%FSLAX25Y25*%
%MOIN*%
G70*
G01*
G75*
G04 Layer_Color=8421504*
%ADD10C,0.01200*%
%ADD11C,0.01100*%
%ADD12R,0.03000X0.03000*%
%ADD13R,0.01122X0.30709*%
%ADD14R,0.02362X0.12244*%
%ADD15R,0.02953X0.13031*%
%ADD16R,0.03000X0.03000*%
%ADD17R,0.03543X0.03150*%
%ADD18R,0.03100X0.03100*%
%ADD19R,0.04449X0.05787*%
%ADD20R,0.07874X0.04724*%
%ADD21R,0.09449X0.10236*%
%ADD22R,0.01200X0.05300*%
%ADD23R,0.07100X0.07500*%
%ADD24R,0.09100X0.07500*%
%ADD25R,0.05000X0.02992*%
%ADD26R,0.02992X0.05000*%
%ADD27R,0.00787X0.02658*%
%ADD28R,0.01496X0.06100*%
%ADD29R,0.05118X0.04921*%
%ADD30R,0.01969X0.01969*%
%ADD31R,0.01969X0.01969*%
%ADD32R,0.12992X0.17323*%
%ADD33R,0.15354X0.24410*%
%ADD34R,0.05787X0.04449*%
%ADD35R,0.01181X0.02047*%
%ADD36R,0.01181X0.01929*%
%ADD37R,0.05079X0.10709*%
%ADD38R,0.01063X0.03150*%
%ADD39R,0.05512X0.04724*%
%ADD40O,0.08661X0.02362*%
%ADD41R,0.03347X0.01102*%
%ADD42R,0.06496X0.09449*%
%ADD43R,0.02362X0.00984*%
%ADD44R,0.00984X0.02362*%
%ADD45R,0.20079X0.20079*%
%ADD46R,0.03937X0.02756*%
%ADD47C,0.00945*%
%ADD48C,0.03937*%
%ADD49C,0.02500*%
%ADD50C,0.00500*%
%ADD51C,0.01000*%
%ADD52C,0.00800*%
%ADD53C,0.02000*%
%ADD54C,0.01500*%
%ADD55C,0.00600*%
%ADD56C,0.06000*%
%ADD57C,0.07000*%
%ADD58C,0.12500*%
%ADD59C,0.09000*%
%ADD60C,0.05906*%
%ADD61C,0.07874*%
%ADD62R,0.05906X0.05906*%
%ADD63C,0.03100*%
%ADD64C,0.01400*%
%ADD65C,0.01969*%
%ADD66C,0.04000*%
%ADD67C,0.04800*%
%ADD68C,0.14500*%
%ADD69C,0.07500*%
%ADD70C,0.05937*%
%ADD71C,0.09874*%
%ADD72C,0.05543*%
%ADD73C,0.03400*%
%ADD74C,0.02700*%
%ADD75C,0.08000*%
%ADD76C,0.02787*%
%ADD77C,0.00984*%
%ADD78C,0.00787*%
%ADD79C,0.00394*%
%ADD80C,0.01575*%
%ADD81C,0.02362*%
%ADD82C,0.01600*%
%ADD83R,0.04331X0.04331*%
G36*
X50567Y117339D02*
X49464D01*
Y119307D01*
X50567D01*
Y117339D01*
D02*
G37*
G36*
X48598D02*
X47496D01*
Y119307D01*
X48598D01*
Y117339D01*
D02*
G37*
G36*
X50567Y128756D02*
X49464D01*
Y130724D01*
X50567D01*
Y128756D01*
D02*
G37*
G36*
X48598D02*
X47496D01*
Y130724D01*
X48598D01*
Y128756D01*
D02*
G37*
D12*
X231750Y220000D02*
D03*
X226250D02*
D03*
X207750D02*
D03*
X202250D02*
D03*
X206250Y160500D02*
D03*
X200750D02*
D03*
X142250Y84500D02*
D03*
X136750D02*
D03*
X198250Y18500D02*
D03*
X192750D02*
D03*
X92250Y32000D02*
D03*
X86750D02*
D03*
X46250Y99000D02*
D03*
X51750D02*
D03*
X46250Y94500D02*
D03*
X51750D02*
D03*
X136750Y75000D02*
D03*
X142250D02*
D03*
X136750Y70000D02*
D03*
X142250D02*
D03*
X136750Y65000D02*
D03*
X142250D02*
D03*
X136750Y102500D02*
D03*
X142250D02*
D03*
X136750Y98000D02*
D03*
X142250D02*
D03*
X136750Y60000D02*
D03*
X142250D02*
D03*
X136750Y89000D02*
D03*
X142250D02*
D03*
X197250Y85000D02*
D03*
X191750D02*
D03*
X197250Y102000D02*
D03*
X191750D02*
D03*
X136750Y80000D02*
D03*
X142250D02*
D03*
X197250Y51500D02*
D03*
X191750D02*
D03*
X197250Y56000D02*
D03*
X191750D02*
D03*
X220250Y7000D02*
D03*
X214750D02*
D03*
X197250Y63000D02*
D03*
X191750D02*
D03*
X246750Y49000D02*
D03*
X241250D02*
D03*
X197250Y79500D02*
D03*
X191750D02*
D03*
X246750Y68000D02*
D03*
X241250D02*
D03*
X136750Y93500D02*
D03*
X142250D02*
D03*
X101750Y104500D02*
D03*
X96250D02*
D03*
X197250Y96500D02*
D03*
X191750D02*
D03*
X197250Y91000D02*
D03*
X191750D02*
D03*
X214250Y89500D02*
D03*
X208750D02*
D03*
X214250Y85000D02*
D03*
X208750D02*
D03*
X197250Y68500D02*
D03*
X191750D02*
D03*
X197250Y74000D02*
D03*
X191750D02*
D03*
X43800Y140000D02*
D03*
X49300D02*
D03*
X49281Y135531D02*
D03*
X43782D02*
D03*
X66800Y134000D02*
D03*
X72300D02*
D03*
X46281Y113531D02*
D03*
X51781D02*
D03*
X56200Y154500D02*
D03*
X50700D02*
D03*
X32750Y52000D02*
D03*
X27250D02*
D03*
X122250Y34000D02*
D03*
X116750D02*
D03*
X197750D02*
D03*
X203250D02*
D03*
X225750Y47500D02*
D03*
X220250D02*
D03*
X256250Y76500D02*
D03*
X261750D02*
D03*
X256250Y81000D02*
D03*
X261750D02*
D03*
X256250Y85500D02*
D03*
X261750D02*
D03*
X226750Y62500D02*
D03*
X221250D02*
D03*
Y112000D02*
D03*
X226750D02*
D03*
X221250Y106500D02*
D03*
X226750D02*
D03*
X221250Y101000D02*
D03*
X226750D02*
D03*
X73750Y99000D02*
D03*
X68250D02*
D03*
X73750Y94500D02*
D03*
X68250D02*
D03*
X221250Y90000D02*
D03*
X226750D02*
D03*
X221250Y79000D02*
D03*
X226750D02*
D03*
X221250Y68000D02*
D03*
X226750D02*
D03*
Y95500D02*
D03*
X221250D02*
D03*
X226750Y84500D02*
D03*
X221250D02*
D03*
X226750Y73500D02*
D03*
X221250D02*
D03*
X86750Y9000D02*
D03*
X92250D02*
D03*
X32750Y64500D02*
D03*
X27250D02*
D03*
X32750Y70000D02*
D03*
X27250D02*
D03*
X32750Y75500D02*
D03*
X27250D02*
D03*
X72281Y129532D02*
D03*
X66781D02*
D03*
X72250Y125000D02*
D03*
X66750D02*
D03*
X66781Y118532D02*
D03*
X72281D02*
D03*
X70250Y176000D02*
D03*
X75750D02*
D03*
X70250Y171500D02*
D03*
X75750D02*
D03*
X75750Y167000D02*
D03*
X70250D02*
D03*
X27250Y47500D02*
D03*
X32750D02*
D03*
X136750Y107000D02*
D03*
X142250D02*
D03*
X96250Y67500D02*
D03*
X101750D02*
D03*
X157750Y148000D02*
D03*
X152250D02*
D03*
X157750Y153000D02*
D03*
X152250D02*
D03*
X160750Y196500D02*
D03*
X155250D02*
D03*
X160750Y201000D02*
D03*
X155250D02*
D03*
X160750Y206000D02*
D03*
X155250D02*
D03*
X188250Y193000D02*
D03*
X193750D02*
D03*
X188250Y197500D02*
D03*
X193750D02*
D03*
X188250Y202000D02*
D03*
X193750D02*
D03*
Y187500D02*
D03*
X188250D02*
D03*
X193750Y183000D02*
D03*
X188250D02*
D03*
X200750Y169500D02*
D03*
X206250D02*
D03*
X200750Y178500D02*
D03*
X206250D02*
D03*
X200750Y174000D02*
D03*
X206250D02*
D03*
X148750Y184000D02*
D03*
X143250D02*
D03*
X148750Y179500D02*
D03*
X143250D02*
D03*
X200750Y156000D02*
D03*
X206250D02*
D03*
X200750Y165000D02*
D03*
X206250D02*
D03*
X160750Y210500D02*
D03*
X155250D02*
D03*
X188250Y206500D02*
D03*
X193750D02*
D03*
X200750Y197500D02*
D03*
X206250D02*
D03*
X200750Y187500D02*
D03*
X206250D02*
D03*
X200750Y202000D02*
D03*
X206250D02*
D03*
Y193000D02*
D03*
X200750D02*
D03*
X206250Y183000D02*
D03*
X200750D02*
D03*
X206250Y206500D02*
D03*
X200750D02*
D03*
X239750Y190500D02*
D03*
X234250D02*
D03*
X243750Y215000D02*
D03*
X249250D02*
D03*
Y209500D02*
D03*
X243750D02*
D03*
D13*
X181010Y209646D02*
D03*
X165990D02*
D03*
D14*
X173500Y200413D02*
D03*
D15*
X168028Y200807D02*
D03*
X178972D02*
D03*
D16*
X140500Y132250D02*
D03*
Y126750D02*
D03*
X145500Y132250D02*
D03*
Y126750D02*
D03*
X267500Y125750D02*
D03*
Y131250D02*
D03*
Y109250D02*
D03*
Y103750D02*
D03*
X272500Y103750D02*
D03*
Y109250D02*
D03*
X167000Y53750D02*
D03*
Y48250D02*
D03*
X171500Y53750D02*
D03*
Y48250D02*
D03*
X99000Y23250D02*
D03*
Y17750D02*
D03*
X164000Y115750D02*
D03*
Y110250D02*
D03*
X168500Y115750D02*
D03*
Y110250D02*
D03*
X158500Y48250D02*
D03*
Y53750D02*
D03*
X159500Y115750D02*
D03*
Y110250D02*
D03*
X29500Y166300D02*
D03*
Y171800D02*
D03*
X154000Y48250D02*
D03*
Y53750D02*
D03*
X210000Y126750D02*
D03*
Y132250D02*
D03*
X205500Y126750D02*
D03*
Y132250D02*
D03*
X201000Y126750D02*
D03*
Y132250D02*
D03*
X219000Y126750D02*
D03*
Y132250D02*
D03*
X214500Y126750D02*
D03*
Y132250D02*
D03*
X190500Y126750D02*
D03*
Y132250D02*
D03*
X150500Y126750D02*
D03*
Y132250D02*
D03*
X155500Y126750D02*
D03*
Y132250D02*
D03*
X160500Y126750D02*
D03*
Y132250D02*
D03*
X165500Y126750D02*
D03*
Y132250D02*
D03*
X170500Y126750D02*
D03*
Y132250D02*
D03*
X175500Y126750D02*
D03*
Y132250D02*
D03*
X180500Y126750D02*
D03*
Y132250D02*
D03*
X185500Y126750D02*
D03*
Y132250D02*
D03*
X123500Y57250D02*
D03*
Y62750D02*
D03*
X272500Y131250D02*
D03*
Y125750D02*
D03*
X272500Y151750D02*
D03*
Y146250D02*
D03*
X267500Y146250D02*
D03*
Y151750D02*
D03*
X152000Y161250D02*
D03*
Y166750D02*
D03*
X147500Y161250D02*
D03*
Y166750D02*
D03*
X143000Y161250D02*
D03*
Y166750D02*
D03*
X180500Y143250D02*
D03*
Y137750D02*
D03*
X116000Y158250D02*
D03*
Y152750D02*
D03*
X121000Y158250D02*
D03*
Y152750D02*
D03*
X126000Y158250D02*
D03*
Y152750D02*
D03*
X131000Y158250D02*
D03*
Y152750D02*
D03*
X229000Y200250D02*
D03*
Y194750D02*
D03*
D17*
X279063Y131240D02*
D03*
Y123760D02*
D03*
X286937Y127500D02*
D03*
Y148500D02*
D03*
X279063Y144760D02*
D03*
Y152240D02*
D03*
X286937Y105000D02*
D03*
X279063Y101260D02*
D03*
Y108740D02*
D03*
D18*
X299000Y108450D02*
D03*
Y102550D02*
D03*
Y125050D02*
D03*
Y130950D02*
D03*
X298500Y145550D02*
D03*
Y151450D02*
D03*
D19*
X220984Y20500D02*
D03*
X214016D02*
D03*
X192016Y9000D02*
D03*
X198984D02*
D03*
X201516Y214000D02*
D03*
X208484D02*
D03*
X247484Y62000D02*
D03*
X240516D02*
D03*
X247484Y55000D02*
D03*
X240516D02*
D03*
X220984Y13500D02*
D03*
X214016D02*
D03*
X141984Y113500D02*
D03*
X135016D02*
D03*
X133984Y22500D02*
D03*
X127016D02*
D03*
D20*
X14488Y111000D02*
D03*
X25512D02*
D03*
X105988Y7000D02*
D03*
X117012D02*
D03*
D21*
X12000Y99098D02*
D03*
Y73902D02*
D03*
X11500Y160099D02*
D03*
Y134902D02*
D03*
D22*
X174950Y15775D02*
D03*
X177550D02*
D03*
X167150D02*
D03*
X169750D02*
D03*
X140750D02*
D03*
X148550D02*
D03*
X151150D02*
D03*
X172350D02*
D03*
X145950D02*
D03*
X143350D02*
D03*
D23*
X130200Y5275D02*
D03*
X141450D02*
D03*
X150450D02*
D03*
X161700D02*
D03*
X171500Y5225D02*
D03*
D24*
X181800D02*
D03*
D25*
X304000Y71500D02*
D03*
Y76500D02*
D03*
Y81500D02*
D03*
Y86500D02*
D03*
X274000Y71500D02*
D03*
Y76500D02*
D03*
Y81500D02*
D03*
Y86500D02*
D03*
X137000Y166500D02*
D03*
Y171500D02*
D03*
Y176500D02*
D03*
Y181500D02*
D03*
X107000Y166500D02*
D03*
Y171500D02*
D03*
Y176500D02*
D03*
Y181500D02*
D03*
D26*
X66000Y37500D02*
D03*
X61000D02*
D03*
X56000D02*
D03*
X51000D02*
D03*
X66000Y7500D02*
D03*
X61000D02*
D03*
X56000D02*
D03*
X51000D02*
D03*
D27*
X176400Y35200D02*
D03*
X174400D02*
D03*
X170600D02*
D03*
X168600D02*
D03*
Y31800D02*
D03*
X170600D02*
D03*
X174400D02*
D03*
X176400D02*
D03*
D28*
X172500Y33500D02*
D03*
D29*
X104500Y73571D02*
D03*
X94500Y82429D02*
D03*
Y73571D02*
D03*
X104500Y82429D02*
D03*
D30*
X180000Y185228D02*
D03*
Y188772D02*
D03*
X174500Y183228D02*
D03*
Y186772D02*
D03*
D31*
X170728Y190500D02*
D03*
X174272D02*
D03*
X244728Y220000D02*
D03*
X248272D02*
D03*
X223228Y182500D02*
D03*
X226772D02*
D03*
X223228Y179000D02*
D03*
X226772D02*
D03*
X223228Y175500D02*
D03*
X226772D02*
D03*
D32*
X277756Y56705D02*
D03*
D33*
X300394Y21272D02*
D03*
X249606D02*
D03*
D34*
X248000Y197984D02*
D03*
Y191016D02*
D03*
D35*
X238968Y198000D02*
D03*
D36*
X237000D02*
D03*
X235032D02*
D03*
Y194968D02*
D03*
X237000D02*
D03*
X238968D02*
D03*
D37*
X236531Y211500D02*
D03*
X225468D02*
D03*
D38*
X124421Y49724D02*
D03*
X122453D02*
D03*
X120484D02*
D03*
X118516D02*
D03*
X116547D02*
D03*
X114579D02*
D03*
X124421Y40276D02*
D03*
X122453D02*
D03*
X120484D02*
D03*
X118516D02*
D03*
X116547D02*
D03*
X114579D02*
D03*
D39*
X219831Y40650D02*
D03*
Y34350D02*
D03*
X211169Y40650D02*
D03*
Y34350D02*
D03*
D40*
X58949Y176500D02*
D03*
Y166500D02*
D03*
Y171500D02*
D03*
Y161500D02*
D03*
X40051Y176500D02*
D03*
Y171500D02*
D03*
Y166500D02*
D03*
Y161500D02*
D03*
D41*
X54839Y127969D02*
D03*
Y126000D02*
D03*
Y124031D02*
D03*
Y122063D02*
D03*
Y120095D02*
D03*
X43224Y127969D02*
D03*
Y124031D02*
D03*
Y126000D02*
D03*
Y120095D02*
D03*
Y122063D02*
D03*
D42*
X49031Y124031D02*
D03*
D43*
X190886Y173827D02*
D03*
Y169890D02*
D03*
Y171858D02*
D03*
Y167921D02*
D03*
Y163984D02*
D03*
Y165953D02*
D03*
Y162016D02*
D03*
Y158079D02*
D03*
Y160047D02*
D03*
Y154142D02*
D03*
Y152173D02*
D03*
Y156110D02*
D03*
X164114Y173827D02*
D03*
Y163984D02*
D03*
Y165953D02*
D03*
Y162016D02*
D03*
Y169890D02*
D03*
Y171858D02*
D03*
Y167921D02*
D03*
Y158079D02*
D03*
Y160047D02*
D03*
Y154142D02*
D03*
Y156110D02*
D03*
Y152173D02*
D03*
D44*
X188327Y176386D02*
D03*
X186358D02*
D03*
X182421D02*
D03*
X180453D02*
D03*
X184390D02*
D03*
X178484D02*
D03*
X176516D02*
D03*
X188327Y149614D02*
D03*
X184390D02*
D03*
X182421D02*
D03*
X186358D02*
D03*
X178484D02*
D03*
X176516D02*
D03*
X180453D02*
D03*
X172579Y176386D02*
D03*
X170610D02*
D03*
X174547D02*
D03*
X168642D02*
D03*
X166673D02*
D03*
X172579Y149614D02*
D03*
X170610D02*
D03*
X174547D02*
D03*
X166673D02*
D03*
X168642D02*
D03*
D46*
X92225Y20500D02*
D03*
Y24240D02*
D03*
Y16760D02*
D03*
X82776Y24240D02*
D03*
Y16760D02*
D03*
D47*
X182748Y101248D02*
D03*
Y98098D02*
D03*
X179598Y101248D02*
D03*
X182748Y94949D02*
D03*
X179598Y98098D02*
D03*
X176449D02*
D03*
Y101248D02*
D03*
X179598Y94949D02*
D03*
X176449D02*
D03*
X182748Y91799D02*
D03*
Y88650D02*
D03*
X179598Y91799D02*
D03*
X182748Y85500D02*
D03*
X179598Y88650D02*
D03*
X176449D02*
D03*
Y91799D02*
D03*
X179598Y85500D02*
D03*
X176449D02*
D03*
X173299Y98098D02*
D03*
Y94949D02*
D03*
Y101248D02*
D03*
Y91799D02*
D03*
X170150Y94949D02*
D03*
Y98098D02*
D03*
Y101248D02*
D03*
X167000Y91799D02*
D03*
Y94949D02*
D03*
X173299Y88650D02*
D03*
X170150Y91799D02*
D03*
X173299Y85500D02*
D03*
X170150Y88650D02*
D03*
Y85500D02*
D03*
X167000Y88650D02*
D03*
Y85500D02*
D03*
X182748Y76051D02*
D03*
Y82350D02*
D03*
X179598D02*
D03*
X176449D02*
D03*
X182748Y79201D02*
D03*
X179598D02*
D03*
X182748Y69752D02*
D03*
Y72902D02*
D03*
X179598D02*
D03*
Y76051D02*
D03*
Y69752D02*
D03*
X176449D02*
D03*
X173299Y82350D02*
D03*
X176449Y79201D02*
D03*
X173299D02*
D03*
X176449Y76051D02*
D03*
X173299D02*
D03*
X170150Y82350D02*
D03*
X167000D02*
D03*
X170150Y79201D02*
D03*
X167000D02*
D03*
X176449Y72902D02*
D03*
X170150Y76051D02*
D03*
X173299Y69752D02*
D03*
Y72902D02*
D03*
X170150D02*
D03*
X167000D02*
D03*
X170150Y69752D02*
D03*
X167000D02*
D03*
X163850Y101248D02*
D03*
X167000D02*
D03*
X160701Y98098D02*
D03*
X167000D02*
D03*
X163850D02*
D03*
X160701Y101248D02*
D03*
X163850Y91799D02*
D03*
Y88650D02*
D03*
Y94949D02*
D03*
Y85500D02*
D03*
X160701Y91799D02*
D03*
Y94949D02*
D03*
Y85500D02*
D03*
Y88650D02*
D03*
X157551Y101248D02*
D03*
Y98098D02*
D03*
X154402Y101248D02*
D03*
X157551Y94949D02*
D03*
X154402Y98098D02*
D03*
X151252D02*
D03*
Y101248D02*
D03*
X154402Y94949D02*
D03*
X151252D02*
D03*
X157551Y91799D02*
D03*
X154402D02*
D03*
X157551Y85500D02*
D03*
Y88650D02*
D03*
X154402D02*
D03*
X151252Y91799D02*
D03*
X154402Y85500D02*
D03*
X151252Y88650D02*
D03*
X163850Y82350D02*
D03*
Y79201D02*
D03*
X160701Y82350D02*
D03*
X167000Y76051D02*
D03*
X163850D02*
D03*
X160701Y79201D02*
D03*
X157551Y82350D02*
D03*
Y76051D02*
D03*
X163850Y72902D02*
D03*
X160701Y76051D02*
D03*
X163850Y69752D02*
D03*
X160701Y72902D02*
D03*
Y69752D02*
D03*
X151252Y85500D02*
D03*
X154402Y82350D02*
D03*
X151252D02*
D03*
X157551Y79201D02*
D03*
X154402D02*
D03*
X151252D02*
D03*
X157551Y72902D02*
D03*
X154402D02*
D03*
X157551Y69752D02*
D03*
X154402D02*
D03*
Y76051D02*
D03*
X151252D02*
D03*
Y69752D02*
D03*
Y72902D02*
D03*
D83*
X185177Y170677D02*
D03*
Y165559D02*
D03*
X180059Y170677D02*
D03*
Y165559D02*
D03*
X185177Y155323D02*
D03*
Y160441D02*
D03*
X180059D02*
D03*
Y155323D02*
D03*
X174941Y170677D02*
D03*
Y165559D02*
D03*
X169823D02*
D03*
Y170677D02*
D03*
X174941Y160441D02*
D03*
Y155323D02*
D03*
X169823Y160441D02*
D03*
Y155323D02*
D03*
M02*
