%FSLAX25Y25*%
%MOIN*%
G70*
G01*
G75*
G04 Layer_Color=32896*
%ADD10C,0.01100*%
%ADD11C,0.01200*%
%ADD12C,0.03937*%
%ADD13R,0.04449X0.05787*%
%ADD14C,0.00945*%
%ADD15R,0.03937X0.02756*%
%ADD16R,0.00984X0.02362*%
%ADD17R,0.02362X0.00984*%
%ADD18R,0.20079X0.20079*%
%ADD19R,0.03347X0.01102*%
%ADD20R,0.06496X0.09449*%
%ADD21O,0.08661X0.02362*%
%ADD22R,0.05512X0.04724*%
%ADD23R,0.01969X0.01969*%
%ADD24R,0.01063X0.03150*%
%ADD25R,0.05079X0.10709*%
%ADD26R,0.03000X0.03000*%
%ADD27R,0.01181X0.01929*%
%ADD28R,0.01181X0.02047*%
%ADD29R,0.05787X0.04449*%
%ADD30R,0.15354X0.24410*%
%ADD31R,0.12992X0.17323*%
%ADD32R,0.03000X0.03000*%
%ADD33R,0.05000X0.02992*%
%ADD34R,0.01969X0.01969*%
%ADD35R,0.05118X0.04921*%
%ADD36R,0.03543X0.03150*%
%ADD37R,0.03100X0.03100*%
%ADD38R,0.00787X0.02658*%
%ADD39R,0.01496X0.06100*%
%ADD40R,0.02992X0.05000*%
%ADD41R,0.01200X0.05300*%
%ADD42R,0.09100X0.07500*%
%ADD43R,0.07100X0.07500*%
%ADD44R,0.09449X0.10236*%
%ADD45R,0.07874X0.04724*%
%ADD46R,0.07874X0.03937*%
%ADD47R,0.11811X0.07874*%
%ADD48C,0.01500*%
%ADD49C,0.00500*%
%ADD50C,0.00800*%
%ADD51C,0.01000*%
%ADD52C,0.02500*%
%ADD53C,0.02000*%
%ADD54C,0.00600*%
%ADD55R,0.05906X0.05906*%
%ADD56C,0.05906*%
%ADD57C,0.07874*%
%ADD58C,0.07000*%
%ADD59C,0.09000*%
%ADD60C,0.12500*%
%ADD61C,0.06000*%
%ADD62C,0.01969*%
%ADD63C,0.03100*%
%ADD64C,0.01400*%
%ADD65C,0.04000*%
%ADD66C,0.05543*%
%ADD67C,0.09874*%
%ADD68C,0.05937*%
%ADD69C,0.07500*%
%ADD70C,0.14500*%
%ADD71C,0.04800*%
%ADD72C,0.03400*%
%ADD73C,0.02700*%
%ADD74C,0.08000*%
%ADD75C,0.02787*%
%ADD76C,0.00984*%
%ADD77C,0.00787*%
%ADD78C,0.02362*%
%ADD79C,0.00394*%
%ADD80C,0.01575*%
%ADD81C,0.01600*%
%ADD82R,0.04331X0.04331*%
%ADD83C,0.11811*%
%ADD84R,0.04749X0.06087*%
%ADD85C,0.01245*%
%ADD86R,0.04237X0.03056*%
%ADD87R,0.20379X0.20379*%
%ADD88R,0.03647X0.01402*%
%ADD89R,0.06796X0.09749*%
%ADD90O,0.08961X0.02662*%
%ADD91R,0.05812X0.05024*%
%ADD92R,0.02269X0.02269*%
%ADD93R,0.01363X0.03450*%
%ADD94R,0.05379X0.11009*%
%ADD95R,0.03300X0.03300*%
%ADD96R,0.01575X0.02323*%
%ADD97R,0.01575X0.02441*%
%ADD98R,0.06087X0.04749*%
%ADD99R,0.15654X0.24710*%
%ADD100R,0.13292X0.17623*%
%ADD101R,0.03300X0.03300*%
%ADD102R,0.05300X0.03292*%
%ADD103R,0.02269X0.02269*%
%ADD104R,0.05418X0.05221*%
%ADD105R,0.03843X0.03450*%
%ADD106R,0.03400X0.03400*%
%ADD107R,0.01087X0.02958*%
%ADD108R,0.01796X0.06400*%
%ADD109R,0.03292X0.05300*%
%ADD110R,0.01500X0.05600*%
%ADD111R,0.09400X0.07800*%
%ADD112R,0.07400X0.07800*%
%ADD113R,0.09749X0.10536*%
%ADD114R,0.08174X0.05024*%
%ADD115R,0.08174X0.04237*%
%ADD116R,0.12111X0.08174*%
%ADD117R,0.06206X0.06206*%
%ADD118C,0.06206*%
%ADD119C,0.07300*%
%ADD120C,0.09300*%
%ADD121C,0.12800*%
%ADD122C,0.06300*%
%ADD123C,0.00300*%
D50*
X183501Y122999D02*
X185500D01*
Y121500D01*
X184500D01*
X185500D01*
Y120000D01*
X182501Y122499D02*
X182001Y122999D01*
X181001D01*
X180502Y122499D01*
Y120500D01*
X181001Y120000D01*
X182001D01*
X182501Y120500D01*
Y122499D01*
X179502D02*
X179002Y122999D01*
X178002D01*
X177503Y122499D01*
Y120500D01*
X178002Y120000D01*
X179002D01*
X179502Y120500D01*
Y122499D01*
X173504Y121999D02*
X173004D01*
Y121500D01*
X173504D01*
Y121999D01*
Y120500D02*
X173004D01*
Y120000D01*
X173504D01*
Y120500D01*
X166006Y122499D02*
X166506Y122999D01*
X167506D01*
X168006Y122499D01*
Y121999D01*
X167506Y121500D01*
X166506D01*
X166006Y121000D01*
Y120500D01*
X166506Y120000D01*
X167506D01*
X168006Y120500D01*
X165007Y121999D02*
Y120500D01*
X164507Y120000D01*
X163007D01*
Y119500D01*
X163507Y119000D01*
X164007D01*
X163007Y120000D02*
Y121999D01*
X162008Y120000D02*
Y121999D01*
X160508D01*
X160008Y121500D01*
Y120000D01*
X157009Y121999D02*
X158509D01*
X159009Y121500D01*
Y120500D01*
X158509Y120000D01*
X157009D01*
X153010D02*
Y121999D01*
X152011Y122999D01*
X151011Y121999D01*
Y120000D01*
Y121500D01*
X153010D01*
X150012Y122999D02*
Y120000D01*
X148512D01*
X148012Y120500D01*
Y122499D01*
X148512Y122999D01*
X150012D01*
X147012Y120000D02*
Y122999D01*
X146013Y121999D01*
X145013Y122999D01*
Y120000D01*
X144013Y121999D02*
Y120500D01*
X143514Y120000D01*
X142014D01*
Y121999D01*
X141014D02*
X139015Y120000D01*
X140015Y121000D01*
X139015Y121999D01*
X141014Y120000D01*
X183501Y118499D02*
X185500D01*
Y116999D01*
X184500D01*
X185500D01*
Y115500D01*
X182501Y117999D02*
X182001Y118499D01*
X181001D01*
X180502Y117999D01*
Y116000D01*
X181001Y115500D01*
X182001D01*
X182501Y116000D01*
Y117999D01*
X179502Y115500D02*
X178502D01*
X179002D01*
Y118499D01*
X179502Y117999D01*
X174004Y117499D02*
X173504D01*
Y116999D01*
X174004D01*
Y117499D01*
Y116000D02*
X173504D01*
Y115500D01*
X174004D01*
Y116000D01*
X168506Y115500D02*
Y117499D01*
X167506Y118499D01*
X166506Y117499D01*
Y115500D01*
Y116999D01*
X168506D01*
X165506Y115500D02*
X164007D01*
X163507Y116000D01*
X164007Y116500D01*
X165007D01*
X165506Y116999D01*
X165007Y117499D01*
X163507D01*
X162507D02*
Y116000D01*
X162008Y115500D01*
X160508D01*
Y115000D01*
X161008Y114500D01*
X161508D01*
X160508Y115500D02*
Y117499D01*
X159508Y115500D02*
Y117499D01*
X158009D01*
X157509Y116999D01*
Y115500D01*
X154510Y117499D02*
X156009D01*
X156509Y116999D01*
Y116000D01*
X156009Y115500D01*
X154510D01*
X150511D02*
Y117499D01*
X149512Y118499D01*
X148512Y117499D01*
Y115500D01*
Y116999D01*
X150511D01*
X147512Y118499D02*
Y115500D01*
X146013D01*
X145513Y116000D01*
Y117999D01*
X146013Y118499D01*
X147512D01*
X144513Y115500D02*
Y118499D01*
X143514Y117499D01*
X142514Y118499D01*
Y115500D01*
X141514Y117499D02*
Y116000D01*
X141014Y115500D01*
X139515D01*
Y117499D01*
X138515D02*
X136516Y115500D01*
X137515Y116500D01*
X136516Y117499D01*
X138515Y115500D01*
X183501Y113499D02*
X185500D01*
Y111999D01*
X184500D01*
X185500D01*
Y110500D01*
X182501D02*
X181501D01*
X182001D01*
Y113499D01*
X182501Y112999D01*
X180002Y110500D02*
X179002D01*
X179502D01*
Y113499D01*
X180002Y112999D01*
X174504Y112499D02*
X174004D01*
Y111999D01*
X174504D01*
Y112499D01*
Y111000D02*
X174004D01*
Y110500D01*
X174504D01*
Y111000D01*
X169005Y113499D02*
Y111000D01*
X168506Y110500D01*
X167506D01*
X167006Y111000D01*
Y113499D01*
X164007Y112999D02*
X164507Y113499D01*
X165506D01*
X166006Y112999D01*
Y112499D01*
X165506Y111999D01*
X164507D01*
X164007Y111500D01*
Y111000D01*
X164507Y110500D01*
X165506D01*
X166006Y111000D01*
X163007Y113499D02*
Y110500D01*
X161508D01*
X161008Y111000D01*
Y111500D01*
X161508Y111999D01*
X163007D01*
X161508D01*
X161008Y112499D01*
Y112999D01*
X161508Y113499D01*
X163007D01*
X157009D02*
Y110500D01*
X155510D01*
X155010Y111000D01*
Y111500D01*
X155510Y111999D01*
X157009D01*
X155510D01*
X155010Y112499D01*
Y112999D01*
X155510Y113499D01*
X157009D01*
X153510Y110500D02*
X152511D01*
X152011Y111000D01*
Y111999D01*
X152511Y112499D01*
X153510D01*
X154010Y111999D01*
Y111000D01*
X153510Y110500D01*
X150511D02*
X149512D01*
X149012Y111000D01*
Y111999D01*
X149512Y112499D01*
X150511D01*
X151011Y111999D01*
Y111000D01*
X150511Y110500D01*
X147512Y112999D02*
Y112499D01*
X148012D01*
X147012D01*
X147512D01*
Y111000D01*
X147012Y110500D01*
X183612Y108499D02*
X185611D01*
Y107000D01*
X184612D01*
X185611D01*
Y105500D01*
X182612Y107999D02*
X182112Y108499D01*
X181113D01*
X180613Y107999D01*
Y106000D01*
X181113Y105500D01*
X182112D01*
X182612Y106000D01*
Y107999D01*
X177614Y108499D02*
X179613D01*
Y107000D01*
X178613D01*
X179613D01*
Y105500D01*
X173615Y107499D02*
X173115D01*
Y107000D01*
X173615D01*
Y107499D01*
Y106000D02*
X173115D01*
Y105500D01*
X173615D01*
Y106000D01*
X168117Y105500D02*
Y107499D01*
X167117Y108499D01*
X166118Y107499D01*
Y105500D01*
Y107000D01*
X168117D01*
X165118Y105500D02*
X163618D01*
X163119Y106000D01*
X163618Y106500D01*
X164618D01*
X165118Y107000D01*
X164618Y107499D01*
X163119D01*
X162119D02*
Y106000D01*
X161619Y105500D01*
X160119D01*
Y105000D01*
X160619Y104500D01*
X161119D01*
X160119Y105500D02*
Y107499D01*
X159120Y105500D02*
Y107499D01*
X157620D01*
X157121Y107000D01*
Y105500D01*
X154121Y107499D02*
X155621D01*
X156121Y107000D01*
Y106000D01*
X155621Y105500D01*
X154121D01*
X148123Y107999D02*
X148623Y108499D01*
X149623D01*
X150123Y107999D01*
Y107499D01*
X149623Y107000D01*
X148623D01*
X148123Y106500D01*
Y106000D01*
X148623Y105500D01*
X149623D01*
X150123Y106000D01*
X147124Y105500D02*
Y108499D01*
X145624D01*
X145124Y107999D01*
Y107000D01*
X145624Y106500D01*
X147124D01*
X146124D02*
X145124Y105500D01*
X144125D02*
Y107499D01*
X143125Y108499D01*
X142125Y107499D01*
Y105500D01*
Y107000D01*
X144125D01*
X141126Y105500D02*
Y108499D01*
X140126Y107499D01*
X139126Y108499D01*
Y105500D01*
X183501Y103666D02*
X185500D01*
Y102166D01*
X184500D01*
X185500D01*
Y100667D01*
X182501D02*
X181501D01*
X182001D01*
Y103666D01*
X182501Y103166D01*
X178002Y103666D02*
X180002D01*
Y102166D01*
X179002D01*
X180002D01*
Y100667D01*
X174004Y102666D02*
X173504D01*
Y102166D01*
X174004D01*
Y102666D01*
Y101166D02*
X173504D01*
Y100667D01*
X174004D01*
Y101166D01*
X168506Y103666D02*
X167506D01*
X168006D01*
Y100667D01*
X168506D01*
X167506D01*
X164007D02*
X166006D01*
X164007Y102666D01*
Y103166D01*
X164507Y103666D01*
X165506D01*
X166006Y103166D01*
X161008D02*
X161508Y103666D01*
X162507D01*
X163007Y103166D01*
Y101166D01*
X162507Y100667D01*
X161508D01*
X161008Y101166D01*
X159508Y100167D02*
X159009Y100667D01*
Y101166D01*
X159508D01*
Y100667D01*
X159009D01*
X159508Y100167D01*
X160008Y99667D01*
X152511Y103666D02*
X153510D01*
X154010Y103166D01*
Y101166D01*
X153510Y100667D01*
X152511D01*
X152011Y101166D01*
Y103166D01*
X152511Y103666D01*
X151011Y100667D02*
Y102666D01*
X149512D01*
X149012Y102166D01*
Y100667D01*
X143014Y103666D02*
X145013D01*
Y102166D01*
X144013D01*
X145013D01*
Y100667D01*
X141514Y102666D02*
X140515D01*
X140015Y102166D01*
Y100667D01*
X141514D01*
X142014Y101166D01*
X141514Y101666D01*
X140015D01*
X139015Y100667D02*
X138015D01*
X138515D01*
Y102666D01*
X139015D01*
X136516Y100667D02*
X135516D01*
X136016D01*
Y103666D01*
X136516D01*
X134017Y102666D02*
Y101166D01*
X133517Y100667D01*
X132017D01*
Y102666D01*
X131018D02*
Y100667D01*
Y101666D01*
X130518Y102166D01*
X130018Y102666D01*
X129518D01*
X126519Y100667D02*
X127519D01*
X128019Y101166D01*
Y102166D01*
X127519Y102666D01*
X126519D01*
X126019Y102166D01*
Y101666D01*
X128019D01*
X122020Y103666D02*
Y101166D01*
X121521Y100667D01*
X120521D01*
X120021Y101166D01*
Y103666D01*
X117022Y103166D02*
X117522Y103666D01*
X118522D01*
X119021Y103166D01*
Y102666D01*
X118522Y102166D01*
X117522D01*
X117022Y101666D01*
Y101166D01*
X117522Y100667D01*
X118522D01*
X119021Y101166D01*
X116023Y103666D02*
Y100667D01*
X114523D01*
X114023Y101166D01*
Y101666D01*
X114523Y102166D01*
X116023D01*
X114523D01*
X114023Y102666D01*
Y103166D01*
X114523Y103666D01*
X116023D01*
X110024D02*
Y100667D01*
X108525D01*
X108025Y101166D01*
Y101666D01*
X108525Y102166D01*
X110024D01*
X108525D01*
X108025Y102666D01*
Y103166D01*
X108525Y103666D01*
X110024D01*
X106526Y100667D02*
X105526D01*
X105026Y101166D01*
Y102166D01*
X105526Y102666D01*
X106526D01*
X107025Y102166D01*
Y101166D01*
X106526Y100667D01*
X103526D02*
X102527D01*
X102027Y101166D01*
Y102166D01*
X102527Y102666D01*
X103526D01*
X104026Y102166D01*
Y101166D01*
X103526Y100667D01*
X100528Y103166D02*
Y102666D01*
X101027D01*
X100028D01*
X100528D01*
Y101166D01*
X100028Y100667D01*
X185500Y95333D02*
X184500D01*
X185000D01*
Y98332D01*
X185500Y97833D01*
X181001Y98332D02*
X183001D01*
Y96833D01*
X182001D01*
X183001D01*
Y95333D01*
X178002Y98332D02*
X180002D01*
Y96833D01*
X179002D01*
X180002D01*
Y95333D01*
X174004Y97333D02*
X173504D01*
Y96833D01*
X174004D01*
Y97333D01*
Y95833D02*
X173504D01*
Y95333D01*
X174004D01*
Y95833D01*
X168506Y98332D02*
X167506D01*
X168006D01*
Y95333D01*
X168506D01*
X167506D01*
X164007D02*
X166006D01*
X164007Y97333D01*
Y97833D01*
X164507Y98332D01*
X165506D01*
X166006Y97833D01*
X161008D02*
X161508Y98332D01*
X162507D01*
X163007Y97833D01*
Y95833D01*
X162507Y95333D01*
X161508D01*
X161008Y95833D01*
X155510Y98332D02*
X156509D01*
X157009Y97833D01*
Y95833D01*
X156509Y95333D01*
X155510D01*
X155010Y95833D01*
Y97833D01*
X155510Y98332D01*
X154010Y95333D02*
Y97333D01*
X152511D01*
X152011Y96833D01*
Y95333D01*
X151011D02*
X150012D01*
X150511D01*
Y98332D01*
X151011D01*
X148512Y97333D02*
Y95833D01*
X148012Y95333D01*
X146513D01*
Y94833D01*
X147012Y94334D01*
X147512D01*
X146513Y95333D02*
Y97333D01*
X185500Y92499D02*
X185000Y92999D01*
X184001D01*
X183501Y92499D01*
Y90500D01*
X184001Y90000D01*
X185000D01*
X185500Y90500D01*
Y92499D01*
X180502Y92999D02*
X182501D01*
Y91500D01*
X181501D01*
X182501D01*
Y90000D01*
X179502D02*
X178502D01*
X179002D01*
Y92999D01*
X179502Y92499D01*
X174004Y91999D02*
X173504D01*
Y91500D01*
X174004D01*
Y91999D01*
Y90500D02*
X173504D01*
Y90000D01*
X174004D01*
Y90500D01*
X166506Y92499D02*
X167006Y92999D01*
X168006D01*
X168506Y92499D01*
Y91999D01*
X168006Y91500D01*
X167006D01*
X166506Y91000D01*
Y90500D01*
X167006Y90000D01*
X168006D01*
X168506Y90500D01*
X165506Y90000D02*
Y92999D01*
X164007D01*
X163507Y92499D01*
Y91500D01*
X164007Y91000D01*
X165506D01*
X162507Y92999D02*
X161508D01*
X162008D01*
Y90000D01*
X162507D01*
X161508D01*
X159508Y89500D02*
X159009Y90000D01*
Y90500D01*
X159508D01*
Y90000D01*
X159009D01*
X159508Y89500D01*
X160008Y89000D01*
X152511Y92999D02*
X153510D01*
X154010Y92499D01*
Y90500D01*
X153510Y90000D01*
X152511D01*
X152011Y90500D01*
Y92499D01*
X152511Y92999D01*
X151011Y90000D02*
Y91999D01*
X149512D01*
X149012Y91500D01*
Y90000D01*
X143014Y92999D02*
X145013D01*
Y91500D01*
X144013D01*
X145013D01*
Y90000D01*
X141514Y91999D02*
X140515D01*
X140015Y91500D01*
Y90000D01*
X141514D01*
X142014Y90500D01*
X141514Y91000D01*
X140015D01*
X139015Y90000D02*
X138015D01*
X138515D01*
Y91999D01*
X139015D01*
X136516Y90000D02*
X135516D01*
X136016D01*
Y92999D01*
X136516D01*
X134017Y91999D02*
Y90500D01*
X133517Y90000D01*
X132017D01*
Y91999D01*
X131018D02*
Y90000D01*
Y91000D01*
X130518Y91500D01*
X130018Y91999D01*
X129518D01*
X126519Y90000D02*
X127519D01*
X128019Y90500D01*
Y91500D01*
X127519Y91999D01*
X126519D01*
X126019Y91500D01*
Y91000D01*
X128019D01*
X122020Y92999D02*
Y90500D01*
X121521Y90000D01*
X120521D01*
X120021Y90500D01*
Y92999D01*
X117022Y92499D02*
X117522Y92999D01*
X118522D01*
X119021Y92499D01*
Y91999D01*
X118522Y91500D01*
X117522D01*
X117022Y91000D01*
Y90500D01*
X117522Y90000D01*
X118522D01*
X119021Y90500D01*
X116023Y92999D02*
Y90000D01*
X114523D01*
X114023Y90500D01*
Y91000D01*
X114523Y91500D01*
X116023D01*
X114523D01*
X114023Y91999D01*
Y92499D01*
X114523Y92999D01*
X116023D01*
X110024D02*
Y90000D01*
X108525D01*
X108025Y90500D01*
Y91000D01*
X108525Y91500D01*
X110024D01*
X108525D01*
X108025Y91999D01*
Y92499D01*
X108525Y92999D01*
X110024D01*
X106526Y90000D02*
X105526D01*
X105026Y90500D01*
Y91500D01*
X105526Y91999D01*
X106526D01*
X107025Y91500D01*
Y90500D01*
X106526Y90000D01*
X103526D02*
X102527D01*
X102027Y90500D01*
Y91500D01*
X102527Y91999D01*
X103526D01*
X104026Y91500D01*
Y90500D01*
X103526Y90000D01*
X100528Y92499D02*
Y91999D01*
X101027D01*
X100028D01*
X100528D01*
Y90500D01*
X100028Y90000D01*
X240000Y97999D02*
Y95000D01*
Y96000D01*
X238001Y97999D01*
X239500Y96500D01*
X238001Y95000D01*
X237001D02*
X236001D01*
X236501D01*
Y97999D01*
X237001Y97499D01*
X231503Y96999D02*
X231003D01*
Y96500D01*
X231503D01*
Y96999D01*
Y95500D02*
X231003D01*
Y95000D01*
X231503D01*
Y95500D01*
X226005Y95000D02*
Y97999D01*
X224505D01*
X224005Y97499D01*
Y96500D01*
X224505Y96000D01*
X226005D01*
X223006Y95000D02*
Y97999D01*
X222006Y96999D01*
X221006Y97999D01*
Y95000D01*
X218507Y97999D02*
X219507D01*
X220006Y97499D01*
Y95500D01*
X219507Y95000D01*
X218507D01*
X218007Y95500D01*
Y97499D01*
X218507Y97999D01*
X217007D02*
Y95000D01*
X215508D01*
X215008Y95500D01*
Y97499D01*
X215508Y97999D01*
X217007D01*
X212009D02*
X214008D01*
Y95000D01*
X212009D01*
X214008Y96500D02*
X213009D01*
X211009Y94500D02*
X209010D01*
X208010Y97499D02*
X207510Y97999D01*
X206511D01*
X206011Y97499D01*
Y95500D01*
X206511Y95000D01*
X207510D01*
X208010Y95500D01*
Y97499D01*
X240000Y110999D02*
Y108000D01*
Y109000D01*
X238001Y110999D01*
X239500Y109500D01*
X238001Y108000D01*
X235002D02*
X237001D01*
X235002Y109999D01*
Y110499D01*
X235502Y110999D01*
X236501D01*
X237001Y110499D01*
X231003Y109999D02*
X230503D01*
Y109500D01*
X231003D01*
Y109999D01*
Y108500D02*
X230503D01*
Y108000D01*
X231003D01*
Y108500D01*
X225505Y108000D02*
Y110999D01*
X224005D01*
X223505Y110499D01*
Y109500D01*
X224005Y109000D01*
X225505D01*
X222506Y108000D02*
Y110999D01*
X221506Y109999D01*
X220506Y110999D01*
Y108000D01*
X218007Y110999D02*
X219007D01*
X219507Y110499D01*
Y108500D01*
X219007Y108000D01*
X218007D01*
X217507Y108500D01*
Y110499D01*
X218007Y110999D01*
X216508D02*
Y108000D01*
X215008D01*
X214508Y108500D01*
Y110499D01*
X215008Y110999D01*
X216508D01*
X211509D02*
X213509D01*
Y108000D01*
X211509D01*
X213509Y109500D02*
X212509D01*
X210509Y107500D02*
X208510D01*
X207510Y108000D02*
X206511D01*
X207011D01*
Y110999D01*
X207510Y110499D01*
X240000Y123999D02*
Y121000D01*
Y122000D01*
X238001Y123999D01*
X239500Y122500D01*
X238001Y121000D01*
X237001Y123499D02*
X236501Y123999D01*
X235502D01*
X235002Y123499D01*
Y122999D01*
X235502Y122500D01*
X236001D01*
X235502D01*
X235002Y122000D01*
Y121500D01*
X235502Y121000D01*
X236501D01*
X237001Y121500D01*
X231003Y122999D02*
X230503D01*
Y122500D01*
X231003D01*
Y122999D01*
Y121500D02*
X230503D01*
Y121000D01*
X231003D01*
Y121500D01*
X225505Y121000D02*
Y123999D01*
X224005D01*
X223505Y123499D01*
Y122500D01*
X224005Y122000D01*
X225505D01*
X222506Y121000D02*
Y123999D01*
X221506Y122999D01*
X220506Y123999D01*
Y121000D01*
X218007Y123999D02*
X219007D01*
X219507Y123499D01*
Y121500D01*
X219007Y121000D01*
X218007D01*
X217507Y121500D01*
Y123499D01*
X218007Y123999D01*
X216508D02*
Y121000D01*
X215008D01*
X214508Y121500D01*
Y123499D01*
X215008Y123999D01*
X216508D01*
X211509D02*
X213509D01*
Y121000D01*
X211509D01*
X213509Y122500D02*
X212509D01*
X210509Y120500D02*
X208510D01*
X205511Y121000D02*
X207510D01*
X205511Y122999D01*
Y123499D01*
X206011Y123999D01*
X207011D01*
X207510Y123499D01*
X194500Y124500D02*
Y127499D01*
X193000D01*
X192501Y126999D01*
Y125999D01*
X193000Y125500D01*
X194500D01*
X191501Y124500D02*
Y127499D01*
X190501Y126499D01*
X189502Y127499D01*
Y124500D01*
X187002Y127499D02*
X188002D01*
X188502Y126999D01*
Y125000D01*
X188002Y124500D01*
X187002D01*
X186503Y125000D01*
Y126999D01*
X187002Y127499D01*
X185503D02*
Y124500D01*
X184003D01*
X183504Y125000D01*
Y126999D01*
X184003Y127499D01*
X185503D01*
X180505D02*
X182504D01*
Y124500D01*
X180505D01*
X182504Y125999D02*
X181504D01*
X178505Y124500D02*
X179505D01*
Y127499D01*
X178505D01*
X175006Y124500D02*
X177006D01*
X175006Y126499D01*
Y126999D01*
X175506Y127499D01*
X176506D01*
X177006Y126999D01*
X174007Y126499D02*
X173507D01*
Y125999D01*
X174007D01*
Y126499D01*
Y125000D02*
X173507D01*
Y124500D01*
X174007D01*
Y125000D01*
X171507Y126999D02*
X171008Y127499D01*
X170008D01*
X169508Y126999D01*
Y125000D01*
X170008Y124500D01*
X171008D01*
X171507Y125000D01*
Y126999D01*
X168508Y124500D02*
X167509D01*
Y127499D01*
X168508D01*
D51*
X260000Y87500D02*
Y129000D01*
X98000Y87500D02*
X260000D01*
X98000D02*
Y103000D01*
X124000Y129000D01*
X260000D01*
X238000Y172000D02*
Y177998D01*
X236001Y175999D01*
X234001Y177998D01*
Y172000D01*
X232002Y177998D02*
X230003D01*
X231002D01*
Y172000D01*
X232002D01*
X230003D01*
X227004D02*
Y177998D01*
X223005Y172000D01*
Y177998D01*
X221006D02*
X219006D01*
X220006D01*
Y172000D01*
X221006D01*
X219006D01*
X212008Y176998D02*
X213008Y177998D01*
X215007D01*
X216007Y176998D01*
Y175999D01*
X215007Y174999D01*
X213008D01*
X212008Y173999D01*
Y173000D01*
X213008Y172000D01*
X215007D01*
X216007Y173000D01*
X206010Y176998D02*
X207010Y177998D01*
X209009D01*
X210009Y176998D01*
Y173000D01*
X209009Y172000D01*
X207010D01*
X206010Y173000D01*
X201012Y177998D02*
X203011D01*
X204011Y176998D01*
Y173000D01*
X203011Y172000D01*
X201012D01*
X200012Y173000D01*
Y176998D01*
X201012Y177998D01*
X198013Y172000D02*
Y177998D01*
X195014D01*
X194014Y176998D01*
Y174999D01*
X195014Y173999D01*
X198013D01*
X188016Y177998D02*
X192015D01*
Y172000D01*
X188016D01*
X192015Y174999D02*
X190015D01*
X180019Y177998D02*
Y173000D01*
X179019Y172000D01*
X177020D01*
X176020Y173000D01*
Y177998D01*
X170022Y176998D02*
X171022Y177998D01*
X173021D01*
X174021Y176998D01*
Y175999D01*
X173021Y174999D01*
X171022D01*
X170022Y173999D01*
Y173000D01*
X171022Y172000D01*
X173021D01*
X174021Y173000D01*
X168023Y177998D02*
Y172000D01*
X165024D01*
X164024Y173000D01*
Y173999D01*
X165024Y174999D01*
X168023D01*
X165024D01*
X164024Y175999D01*
Y176998D01*
X165024Y177998D01*
X168023D01*
X162025Y171000D02*
X158026D01*
X152028Y176998D02*
X153027Y177998D01*
X155027D01*
X156026Y176998D01*
Y173000D01*
X155027Y172000D01*
X153027D01*
X152028Y173000D01*
X149029Y172000D02*
X147029D01*
X146030Y173000D01*
Y174999D01*
X147029Y175999D01*
X149029D01*
X150029Y174999D01*
Y173000D01*
X149029Y172000D01*
X144030D02*
Y175999D01*
X141031D01*
X140032Y174999D01*
Y172000D01*
X137033Y176998D02*
Y175999D01*
X138032D01*
X136033D01*
X137033D01*
Y173000D01*
X136033Y172000D01*
X133034Y175999D02*
Y172000D01*
Y173999D01*
X132034Y174999D01*
X131035Y175999D01*
X130035D01*
X126036Y172000D02*
X124037D01*
X123037Y173000D01*
Y174999D01*
X124037Y175999D01*
X126036D01*
X127036Y174999D01*
Y173000D01*
X126036Y172000D01*
X121038D02*
X119038D01*
X120038D01*
Y177998D01*
X121038D01*
X110041Y175999D02*
X108042Y172000D01*
X106043Y175999D01*
X100045Y172000D02*
X104043D01*
X100045Y175999D01*
Y176998D01*
X101044Y177998D01*
X103044D01*
X104043Y176998D01*
X98045Y172000D02*
Y173000D01*
X97046D01*
Y172000D01*
X98045D01*
X93047Y176998D02*
X92047Y177998D01*
X90048D01*
X89048Y176998D01*
Y175999D01*
X90048Y174999D01*
X91048D01*
X90048D01*
X89048Y173999D01*
Y173000D01*
X90048Y172000D01*
X92047D01*
X93047Y173000D01*
X238000Y169498D02*
Y163500D01*
X235001D01*
X234001Y164500D01*
Y168498D01*
X235001Y169498D01*
X238000D01*
X231002Y167499D02*
X229003D01*
X228003Y166499D01*
Y163500D01*
X231002D01*
X232002Y164500D01*
X231002Y165499D01*
X228003D01*
X226004Y163500D02*
Y167499D01*
X223005D01*
X222005Y166499D01*
Y163500D01*
X220006D02*
X218006D01*
X219006D01*
Y167499D01*
X220006D01*
X212008Y163500D02*
X214008D01*
X215007Y164500D01*
Y166499D01*
X214008Y167499D01*
X212008D01*
X211009Y166499D01*
Y165499D01*
X215007D01*
X209009Y163500D02*
X207010D01*
X208010D01*
Y169498D01*
X209009D01*
X198013Y163500D02*
Y167499D01*
X196014Y169498D01*
X194014Y167499D01*
Y163500D01*
Y166499D01*
X198013D01*
X192015Y169498D02*
Y163500D01*
Y166499D01*
X191015Y167499D01*
X189016D01*
X188016Y166499D01*
Y163500D01*
X185017Y167499D02*
X183018D01*
X182018Y166499D01*
Y163500D01*
X185017D01*
X186017Y164500D01*
X185017Y165499D01*
X182018D01*
X180019Y167499D02*
Y163500D01*
Y165499D01*
X179019Y166499D01*
X178019Y167499D01*
X177020D01*
X173021Y163500D02*
X171022D01*
X170022Y164500D01*
Y166499D01*
X171022Y167499D01*
X173021D01*
X174021Y166499D01*
Y164500D01*
X173021Y163500D01*
X168023D02*
Y167499D01*
X165024D01*
X164024Y166499D01*
Y163500D01*
X162025D02*
X160025D01*
X161025D01*
Y167499D01*
X162025D01*
X151028Y169498D02*
Y163500D01*
X138032Y169498D02*
X140032Y168498D01*
X142031Y166499D01*
Y164500D01*
X141031Y163500D01*
X139032D01*
X138032Y164500D01*
Y165499D01*
X139032Y166499D01*
X142031D01*
X136033D02*
X132034D01*
X126036Y163500D02*
X130035D01*
X126036Y167499D01*
Y168498D01*
X127036Y169498D01*
X129035D01*
X130035Y168498D01*
X121038Y163500D02*
Y169498D01*
X124037Y166499D01*
X120038D01*
X118039D02*
X114040D01*
X108042Y163500D02*
X112041D01*
X108042Y167499D01*
Y168498D01*
X109042Y169498D01*
X111041D01*
X112041Y168498D01*
X106043D02*
X105043Y169498D01*
X103044D01*
X102044Y168498D01*
Y164500D01*
X103044Y163500D01*
X105043D01*
X106043Y164500D01*
Y168498D01*
X100045Y163500D02*
X98045D01*
X99045D01*
Y169498D01*
X100045Y168498D01*
X91048Y169498D02*
X93047Y168498D01*
X95046Y166499D01*
Y164500D01*
X94047Y163500D01*
X92047D01*
X91048Y164500D01*
Y165499D01*
X92047Y166499D01*
X95046D01*
X238000Y160998D02*
Y155000D01*
X235001D01*
X234001Y156000D01*
Y159998D01*
X235001Y160998D01*
X238000D01*
X232002Y155000D02*
Y158999D01*
X230003Y160998D01*
X228003Y158999D01*
Y155000D01*
Y157999D01*
X232002D01*
X226004Y160998D02*
Y155000D01*
Y157999D01*
X225004Y158999D01*
X223005D01*
X222005Y157999D01*
Y155000D01*
X219006Y158999D02*
X217007D01*
X216007Y157999D01*
Y155000D01*
X219006D01*
X220006Y156000D01*
X219006Y156999D01*
X216007D01*
X214008Y158999D02*
Y155000D01*
Y156999D01*
X213008Y157999D01*
X212008Y158999D01*
X211009D01*
X207010Y155000D02*
X205011D01*
X204011Y156000D01*
Y157999D01*
X205011Y158999D01*
X207010D01*
X208010Y157999D01*
Y156000D01*
X207010Y155000D01*
X202012D02*
Y158999D01*
X199013D01*
X198013Y157999D01*
Y155000D01*
X196014D02*
X194014D01*
X195014D01*
Y158999D01*
X196014D01*
X188016Y156999D02*
Y157999D01*
X189016D01*
Y156999D01*
X188016D01*
X187016Y157999D01*
Y159998D01*
X188016Y160998D01*
X190015D01*
X191015Y159998D01*
Y156000D01*
X190015Y155000D01*
X187016D01*
X185017D02*
Y158999D01*
X184018D01*
X183018Y157999D01*
Y155000D01*
Y157999D01*
X182018Y158999D01*
X181018Y157999D01*
Y155000D01*
X176020D02*
X178019D01*
X179019Y156000D01*
Y157999D01*
X178019Y158999D01*
X176020D01*
X175020Y157999D01*
Y156999D01*
X179019D01*
X169022Y160998D02*
Y155000D01*
X172021D01*
X173021Y156000D01*
Y157999D01*
X172021Y158999D01*
X169022D01*
X167023Y155000D02*
Y158999D01*
X164024D01*
X163024Y157999D01*
Y155000D01*
X158026D02*
X160025D01*
X161025Y156000D01*
Y157999D01*
X160025Y158999D01*
X158026D01*
X157026Y157999D01*
Y156999D01*
X161025D01*
X154027Y159998D02*
Y158999D01*
X155027D01*
X153027D01*
X154027D01*
Y156000D01*
X153027Y155000D01*
X150029D02*
Y156000D01*
X149029D01*
Y155000D01*
X150029D01*
X145030Y158999D02*
Y156000D01*
X144030Y155000D01*
X141031D01*
Y158999D01*
X135033D02*
X138032D01*
X139032Y157999D01*
Y156000D01*
X138032Y155000D01*
X135033D01*
X133034D02*
X131035D01*
X132034D01*
Y160998D01*
X133034D01*
X127036Y158999D02*
X125037D01*
X124037Y157999D01*
Y155000D01*
X127036D01*
X128036Y156000D01*
X127036Y156999D01*
X124037D01*
X122037Y155000D02*
Y156000D01*
X121038D01*
Y155000D01*
X122037D01*
X114040D02*
X116040D01*
X117039Y156000D01*
Y157999D01*
X116040Y158999D01*
X114040D01*
X113040Y157999D01*
Y156999D01*
X117039D01*
X107042Y160998D02*
Y155000D01*
X110041D01*
X111041Y156000D01*
Y157999D01*
X110041Y158999D01*
X107042D01*
X105043D02*
Y156000D01*
X104043Y155000D01*
X101044D01*
Y158999D01*
M02*
