%FSLAX25Y25*%
%MOIN*%
G70*
G01*
G75*
%ADD10C,0.01100*%
%ADD11C,0.01200*%
%ADD12C,0.03937*%
%ADD13R,0.04449X0.05787*%
%ADD14C,0.00945*%
%ADD15R,0.03937X0.02756*%
%ADD16R,0.00984X0.02362*%
%ADD17R,0.02362X0.00984*%
%ADD18R,0.20079X0.20079*%
%ADD19R,0.03347X0.01102*%
%ADD20R,0.06496X0.09449*%
%ADD21O,0.08661X0.02362*%
%ADD22R,0.05512X0.04724*%
%ADD23R,0.01969X0.01969*%
%ADD24R,0.01063X0.03150*%
%ADD25R,0.05079X0.10709*%
%ADD26R,0.03000X0.03000*%
%ADD27R,0.01181X0.01929*%
%ADD28R,0.01181X0.02047*%
%ADD29R,0.05787X0.04449*%
%ADD30R,0.15354X0.24410*%
%ADD31R,0.12992X0.17323*%
%ADD32R,0.03000X0.03000*%
%ADD33R,0.05000X0.02992*%
%ADD34R,0.01969X0.01969*%
%ADD35R,0.05118X0.04921*%
%ADD36R,0.03543X0.03150*%
%ADD37R,0.03100X0.03100*%
%ADD38R,0.00787X0.02658*%
%ADD39R,0.01496X0.06100*%
%ADD40R,0.02992X0.05000*%
%ADD41R,0.01200X0.05300*%
%ADD42R,0.09100X0.07500*%
%ADD43R,0.07100X0.07500*%
%ADD44R,0.09449X0.10236*%
%ADD45R,0.07874X0.04724*%
%ADD46R,0.07874X0.03937*%
%ADD47R,0.11811X0.07874*%
%ADD48C,0.01500*%
%ADD49C,0.00500*%
%ADD50C,0.00800*%
%ADD51C,0.01000*%
%ADD52C,0.02500*%
%ADD53C,0.02000*%
%ADD54C,0.00600*%
%ADD55R,0.05906X0.05906*%
%ADD56C,0.05906*%
%ADD57C,0.07874*%
%ADD58C,0.07000*%
%ADD59C,0.09000*%
%ADD60C,0.12500*%
%ADD61C,0.06000*%
%ADD62C,0.01969*%
%ADD63C,0.03100*%
%ADD64C,0.01400*%
%ADD65C,0.04000*%
%ADD66C,0.05543*%
%ADD67C,0.09874*%
%ADD68C,0.05937*%
%ADD69C,0.07500*%
%ADD70C,0.14500*%
%ADD71C,0.04800*%
%ADD72C,0.03400*%
%ADD73C,0.02700*%
%ADD74C,0.08000*%
%ADD75C,0.02787*%
%ADD76C,0.00984*%
%ADD77C,0.00787*%
%ADD78C,0.02362*%
%ADD79C,0.00394*%
%ADD80C,0.01575*%
%ADD81C,0.01600*%
G36*
X186685Y65815D02*
X182748D01*
X186685Y69752D01*
Y65815D01*
D02*
G37*
D49*
X241450Y211800D02*
X251550D01*
X241450Y207200D02*
X251550D01*
Y211800D01*
X241450Y207200D02*
Y211800D01*
Y212700D02*
Y217300D01*
X251550Y212700D02*
Y217300D01*
X241450Y212700D02*
X251550D01*
X241450Y217300D02*
X251550D01*
X242050Y188200D02*
Y192800D01*
X231950Y188200D02*
Y192800D01*
X242050D01*
X231950Y188200D02*
X242050D01*
X226700Y202550D02*
X231300D01*
X226700Y192450D02*
X231300D01*
X226700D02*
Y202550D01*
X231300Y192450D02*
Y202550D01*
X208550Y204200D02*
Y208800D01*
X198450Y204200D02*
Y208800D01*
X208550D01*
X198450Y204200D02*
X208550D01*
Y180700D02*
Y185300D01*
X198450Y180700D02*
Y185300D01*
X208550D01*
X198450Y180700D02*
X208550D01*
Y190700D02*
Y195300D01*
X198450Y190700D02*
Y195300D01*
X208550D01*
X198450Y190700D02*
X208550D01*
X198450Y199700D02*
Y204300D01*
X208550Y199700D02*
Y204300D01*
X198450Y199700D02*
X208550D01*
X198450Y204300D02*
X208550D01*
X198450Y185200D02*
Y189800D01*
X208550Y185200D02*
Y189800D01*
X198450Y185200D02*
X208550D01*
X198450Y189800D02*
X208550D01*
X198450Y195200D02*
Y199800D01*
X208550Y195200D02*
Y199800D01*
X198450Y195200D02*
X208550D01*
X198450Y199800D02*
X208550D01*
X128700Y160550D02*
X133300D01*
X128700Y150450D02*
X133300D01*
X128700D02*
Y160550D01*
X133300Y150450D02*
Y160550D01*
X123700D02*
X128300D01*
X123700Y150450D02*
X128300D01*
X123700D02*
Y160550D01*
X128300Y150450D02*
Y160550D01*
X118700D02*
X123300D01*
X118700Y150450D02*
X123300D01*
X118700D02*
Y160550D01*
X123300Y150450D02*
Y160550D01*
X113700D02*
X118300D01*
X113700Y150450D02*
X118300D01*
X113700D02*
Y160550D01*
X118300Y150450D02*
Y160550D01*
X185950Y204200D02*
X196050D01*
X185950Y208800D02*
X196050D01*
X185950Y204200D02*
Y208800D01*
X196050Y204200D02*
Y208800D01*
X120950D02*
X131050D01*
X120950Y204200D02*
X131050D01*
Y208800D01*
X120950Y204200D02*
Y208800D01*
X198450Y162700D02*
Y167300D01*
X208550Y162700D02*
Y167300D01*
X198450Y162700D02*
X208550D01*
X198450Y167300D02*
X208550D01*
X178200Y145550D02*
X182800D01*
X178200Y135450D02*
X182800D01*
X178200D02*
Y145550D01*
X182800Y135450D02*
Y145550D01*
X140700Y158950D02*
X145300D01*
X140700Y169050D02*
X145300D01*
Y158950D02*
Y169050D01*
X140700Y158950D02*
Y169050D01*
X198450Y153700D02*
Y158300D01*
X208550Y153700D02*
Y158300D01*
X198450Y153700D02*
X208550D01*
X198450Y158300D02*
X208550D01*
X145200Y158950D02*
X149800D01*
X145200Y169050D02*
X149800D01*
Y158950D02*
Y169050D01*
X145200Y158950D02*
Y169050D01*
X149700Y158950D02*
X154300D01*
X149700Y169050D02*
X154300D01*
Y158950D02*
Y169050D01*
X149700Y158950D02*
Y169050D01*
X151050Y177200D02*
Y181800D01*
X140950Y177200D02*
Y181800D01*
X151050D01*
X140950Y177200D02*
X151050D01*
Y181700D02*
Y186300D01*
X140950Y181700D02*
Y186300D01*
X151050D01*
X140950Y181700D02*
X151050D01*
X198450Y171700D02*
Y176300D01*
X208550Y171700D02*
Y176300D01*
X198450Y171700D02*
X208550D01*
X198450Y176300D02*
X208550D01*
X198450Y176200D02*
Y180800D01*
X208550Y176200D02*
Y180800D01*
X198450Y176200D02*
X208550D01*
X198450Y180800D02*
X208550D01*
X198450Y167200D02*
Y171800D01*
X208550Y167200D02*
Y171800D01*
X198450Y167200D02*
X208550D01*
X198450Y171800D02*
X208550D01*
X196050Y180700D02*
Y185300D01*
X185950Y180700D02*
Y185300D01*
X196050D01*
X185950Y180700D02*
X196050D01*
Y185200D02*
Y189800D01*
X185950Y185200D02*
Y189800D01*
X196050D01*
X185950Y185200D02*
X196050D01*
X185950Y199700D02*
Y204300D01*
X196050Y199700D02*
Y204300D01*
X185950Y199700D02*
X196050D01*
X185950Y204300D02*
X196050D01*
X185950Y195200D02*
Y199800D01*
X196050Y195200D02*
Y199800D01*
X185950Y195200D02*
X196050D01*
X185950Y199800D02*
X196050D01*
X185950Y190700D02*
Y195300D01*
X196050Y190700D02*
Y195300D01*
X185950Y190700D02*
X196050D01*
X185950Y195300D02*
X196050D01*
X131050Y199700D02*
Y204300D01*
X120950Y199700D02*
Y204300D01*
X131050D01*
X120950Y199700D02*
X131050D01*
Y194700D02*
Y199300D01*
X120950Y194700D02*
Y199300D01*
X131050D01*
X120950Y194700D02*
X131050D01*
Y190200D02*
Y194800D01*
X120950Y190200D02*
Y194800D01*
X131050D01*
X120950Y190200D02*
X131050D01*
X160050Y150700D02*
Y155300D01*
X149950Y150700D02*
Y155300D01*
X160050D01*
X149950Y150700D02*
X160050D01*
Y145700D02*
Y150300D01*
X149950Y145700D02*
Y150300D01*
X160050D01*
X149950Y145700D02*
X160050D01*
X93950Y65200D02*
X104050D01*
X93950Y69800D02*
X104050D01*
X93950Y65200D02*
Y69800D01*
X104050Y65200D02*
Y69800D01*
X134450Y104700D02*
Y109300D01*
X144550Y104700D02*
Y109300D01*
X134450Y104700D02*
X144550D01*
X134450Y109300D02*
X144550D01*
X265200Y143950D02*
X269800D01*
X265200Y154050D02*
X269800D01*
Y143950D02*
Y154050D01*
X265200Y143950D02*
Y154050D01*
X270200Y154050D02*
X274800D01*
X270200Y143950D02*
X274800D01*
X270200D02*
Y154050D01*
X274800Y143950D02*
Y154050D01*
X270200Y133550D02*
X274800D01*
X270200Y123450D02*
X274800D01*
X270200D02*
Y133550D01*
X274800Y123450D02*
Y133550D01*
X121200Y54950D02*
X125800D01*
X121200Y65050D02*
X125800D01*
Y54950D02*
Y65050D01*
X121200Y54950D02*
Y65050D01*
X24950Y45200D02*
Y49800D01*
X35050Y45200D02*
Y49800D01*
X24950Y45200D02*
X35050D01*
X24950Y49800D02*
X35050D01*
X78050Y164700D02*
Y169300D01*
X67950Y164700D02*
Y169300D01*
X78050D01*
X67950Y164700D02*
X78050D01*
X67950Y169200D02*
Y173800D01*
X78050Y169200D02*
Y173800D01*
X67950Y169200D02*
X78050D01*
X67950Y173800D02*
X78050D01*
X67950Y173700D02*
Y178300D01*
X78050Y173700D02*
Y178300D01*
X67950Y173700D02*
X78050D01*
X67950Y178300D02*
X78050D01*
X64481Y116232D02*
Y120832D01*
X74581Y116232D02*
Y120832D01*
X64481Y116232D02*
X74581D01*
X64481Y120832D02*
X74581D01*
X74550Y122700D02*
Y127300D01*
X64450Y122700D02*
Y127300D01*
X74550D01*
X64450Y122700D02*
X74550D01*
X74581Y127232D02*
Y131832D01*
X64481Y127232D02*
Y131832D01*
X74581D01*
X64481Y127232D02*
X74581D01*
X35050Y73200D02*
Y77800D01*
X24950Y73200D02*
Y77800D01*
X35050D01*
X24950Y73200D02*
X35050D01*
Y67700D02*
Y72300D01*
X24950Y67700D02*
Y72300D01*
X35050D01*
X24950Y67700D02*
X35050D01*
Y62200D02*
Y66800D01*
X24950Y62200D02*
Y66800D01*
X35050D01*
X24950Y62200D02*
X35050D01*
X84450Y6700D02*
Y11300D01*
X94550Y6700D02*
Y11300D01*
X84450Y6700D02*
X94550D01*
X84450Y11300D02*
X94550D01*
X229050Y71200D02*
Y75800D01*
X218950Y71200D02*
Y75800D01*
X229050D01*
X218950Y71200D02*
X229050D01*
Y82200D02*
Y86800D01*
X218950Y82200D02*
Y86800D01*
X229050D01*
X218950Y82200D02*
X229050D01*
Y93200D02*
Y97800D01*
X218950Y93200D02*
Y97800D01*
X229050D01*
X218950Y93200D02*
X229050D01*
X183200Y124450D02*
X187800D01*
X183200Y134550D02*
X187800D01*
Y124450D02*
Y134550D01*
X183200Y124450D02*
Y134550D01*
X218950Y65700D02*
Y70300D01*
X229050Y65700D02*
Y70300D01*
X218950Y65700D02*
X229050D01*
X218950Y70300D02*
X229050D01*
X218950Y76700D02*
Y81300D01*
X229050Y76700D02*
Y81300D01*
X218950Y76700D02*
X229050D01*
X218950Y81300D02*
X229050D01*
X218950Y87700D02*
Y92300D01*
X229050Y87700D02*
Y92300D01*
X218950Y87700D02*
X229050D01*
X218950Y92300D02*
X229050D01*
X178200Y124450D02*
X182800D01*
X178200Y134550D02*
X182800D01*
Y124450D02*
Y134550D01*
X178200Y124450D02*
Y134550D01*
X173200Y124450D02*
X177800D01*
X173200Y134550D02*
X177800D01*
Y124450D02*
Y134550D01*
X173200Y124450D02*
Y134550D01*
X168200Y124450D02*
X172800D01*
X168200Y134550D02*
X172800D01*
Y124450D02*
Y134550D01*
X168200Y124450D02*
Y134550D01*
X163200Y124450D02*
X167800D01*
X163200Y134550D02*
X167800D01*
Y124450D02*
Y134550D01*
X163200Y124450D02*
Y134550D01*
X158200Y124450D02*
X162800D01*
X158200Y134550D02*
X162800D01*
Y124450D02*
Y134550D01*
X158200Y124450D02*
Y134550D01*
X153200Y124450D02*
X157800D01*
X153200Y134550D02*
X157800D01*
Y124450D02*
Y134550D01*
X153200Y124450D02*
Y134550D01*
X148200Y124450D02*
X152800D01*
X148200Y134550D02*
X152800D01*
Y124450D02*
Y134550D01*
X148200Y124450D02*
Y134550D01*
X188200Y124450D02*
X192800D01*
X188200Y134550D02*
X192800D01*
Y124450D02*
Y134550D01*
X188200Y124450D02*
Y134550D01*
X212200Y124450D02*
X216800D01*
X212200Y134550D02*
X216800D01*
Y124450D02*
Y134550D01*
X212200Y124450D02*
Y134550D01*
X216700Y124450D02*
X221300D01*
X216700Y134550D02*
X221300D01*
Y124450D02*
Y134550D01*
X216700Y124450D02*
Y134550D01*
X198700Y124450D02*
X203300D01*
X198700Y134550D02*
X203300D01*
Y124450D02*
Y134550D01*
X198700Y124450D02*
Y134550D01*
X203200Y124450D02*
X207800D01*
X203200Y134550D02*
X207800D01*
Y124450D02*
Y134550D01*
X203200Y124450D02*
Y134550D01*
X76050Y92200D02*
Y96800D01*
X65950Y92200D02*
Y96800D01*
X76050D01*
X65950Y92200D02*
X76050D01*
X207700Y124450D02*
X212300D01*
X207700Y134550D02*
X212300D01*
Y124450D02*
Y134550D01*
X207700Y124450D02*
Y134550D01*
X76050Y96700D02*
Y101300D01*
X65950Y96700D02*
Y101300D01*
X76050D01*
X65950Y96700D02*
X76050D01*
X218950Y98700D02*
Y103300D01*
X229050Y98700D02*
Y103300D01*
X218950Y98700D02*
X229050D01*
X218950Y103300D02*
X229050D01*
X218950Y104200D02*
Y108800D01*
X229050Y104200D02*
Y108800D01*
X218950Y104200D02*
X229050D01*
X218950Y108800D02*
X229050D01*
X218950Y109700D02*
Y114300D01*
X229050Y109700D02*
Y114300D01*
X218950Y109700D02*
X229050D01*
X218950Y114300D02*
X229050D01*
Y60200D02*
Y64800D01*
X218950Y60200D02*
Y64800D01*
X229050D01*
X218950Y60200D02*
X229050D01*
X151700Y45950D02*
X156300D01*
X151700Y56050D02*
X156300D01*
Y45950D02*
Y56050D01*
X151700Y45950D02*
Y56050D01*
X253950Y83200D02*
Y87800D01*
X264050Y83200D02*
Y87800D01*
X253950Y83200D02*
X264050D01*
X253950Y87800D02*
X264050D01*
X253950Y78700D02*
Y83300D01*
X264050Y78700D02*
Y83300D01*
X253950Y78700D02*
X264050D01*
X253950Y83300D02*
X264050D01*
X253950Y74200D02*
Y78800D01*
X264050Y74200D02*
Y78800D01*
X253950Y74200D02*
X264050D01*
X253950Y78800D02*
X264050D01*
X228050Y45200D02*
Y49800D01*
X217950Y45200D02*
Y49800D01*
X228050D01*
X217950Y45200D02*
X228050D01*
X195450Y31700D02*
Y36300D01*
X205550Y31700D02*
Y36300D01*
X195450Y31700D02*
X205550D01*
X195450Y36300D02*
X205550D01*
X124550Y31700D02*
Y36300D01*
X114450Y31700D02*
Y36300D01*
X124550D01*
X114450Y31700D02*
X124550D01*
X35050Y49700D02*
Y54300D01*
X24950Y49700D02*
Y54300D01*
X35050D01*
X24950Y49700D02*
X35050D01*
X48400Y152200D02*
Y156800D01*
X59500D01*
X48400Y152200D02*
X59500D01*
X27200Y174100D02*
X31800D01*
Y163000D02*
Y174100D01*
X27200Y163000D02*
Y174100D01*
X43982Y111232D02*
Y115831D01*
X54081Y111232D02*
Y115831D01*
X43982Y111232D02*
X54081D01*
X43982Y115831D02*
X54081D01*
X74600Y131700D02*
Y136300D01*
X63500Y131700D02*
X74600D01*
X63500Y136300D02*
X74600D01*
X51581Y133231D02*
Y137831D01*
X41482Y133231D02*
Y137831D01*
X51581D01*
X41482Y133231D02*
X51581D01*
X51600Y137700D02*
Y142300D01*
X40500Y137700D02*
X51600D01*
X40500Y142300D02*
X51600D01*
X199550Y71700D02*
Y76300D01*
X189450Y71700D02*
Y76300D01*
X199550D01*
X189450Y71700D02*
X199550D01*
Y66200D02*
Y70800D01*
X189450Y66200D02*
Y70800D01*
X199550D01*
X189450Y66200D02*
X199550D01*
X216550Y82700D02*
Y87300D01*
X206450Y82700D02*
Y87300D01*
X216550D01*
X206450Y82700D02*
X216550D01*
X216550Y87200D02*
Y91800D01*
X206450Y87200D02*
Y91800D01*
X216550D01*
X206450Y87200D02*
X216550D01*
X199550Y88700D02*
Y93300D01*
X189450Y88700D02*
Y93300D01*
X199550D01*
X189450Y88700D02*
X199550D01*
Y94200D02*
Y98800D01*
X189450Y94200D02*
Y98800D01*
X199550D01*
X189450Y94200D02*
X199550D01*
X104050Y102200D02*
Y106800D01*
X93950Y102200D02*
Y106800D01*
X104050D01*
X93950Y102200D02*
X104050D01*
X157200Y118050D02*
X161800D01*
X157200Y107950D02*
X161800D01*
X157200D02*
Y118050D01*
X161800Y107950D02*
Y118050D01*
X134450Y91200D02*
Y95800D01*
X144550Y91200D02*
Y95800D01*
X134450Y91200D02*
X144550D01*
X134450Y95800D02*
X144550D01*
X249050Y65700D02*
Y70300D01*
X238950Y65700D02*
Y70300D01*
X249050D01*
X238950Y65700D02*
X249050D01*
X199550Y77200D02*
Y81800D01*
X189450Y77200D02*
Y81800D01*
X199550D01*
X189450Y77200D02*
X199550D01*
X249050Y46700D02*
Y51300D01*
X238950Y46700D02*
Y51300D01*
X249050D01*
X238950Y46700D02*
X249050D01*
X199550Y60700D02*
Y65300D01*
X189450Y60700D02*
Y65300D01*
X199550D01*
X189450Y60700D02*
X199550D01*
X222550Y4700D02*
Y9300D01*
X212450Y4700D02*
Y9300D01*
X222550D01*
X212450Y4700D02*
X222550D01*
X156200Y45950D02*
X160800D01*
X156200Y56050D02*
X160800D01*
Y45950D02*
Y56050D01*
X156200Y45950D02*
Y56050D01*
X199550Y53700D02*
Y58300D01*
X189450Y53700D02*
Y58300D01*
X199550D01*
X189450Y53700D02*
X199550D01*
X199550Y49200D02*
Y53800D01*
X189450Y49200D02*
Y53800D01*
X199550D01*
X189450Y49200D02*
X199550D01*
X134450Y77700D02*
Y82300D01*
X144550Y77700D02*
Y82300D01*
X134450Y77700D02*
X144550D01*
X134450Y82300D02*
X144550D01*
X199550Y99700D02*
Y104300D01*
X189450Y99700D02*
Y104300D01*
X199550D01*
X189450Y99700D02*
X199550D01*
Y82700D02*
Y87300D01*
X189450Y82700D02*
Y87300D01*
X199550D01*
X189450Y82700D02*
X199550D01*
X134450Y86700D02*
Y91300D01*
X144550Y86700D02*
Y91300D01*
X134450Y86700D02*
X144550D01*
X134450Y91300D02*
X144550D01*
X166200Y118050D02*
X170800D01*
X166200Y107950D02*
X170800D01*
X166200D02*
Y118050D01*
X170800Y107950D02*
Y118050D01*
X134450Y57700D02*
Y62300D01*
X144550Y57700D02*
Y62300D01*
X134450Y57700D02*
X144550D01*
X134450Y62300D02*
X144550D01*
X134450Y95700D02*
Y100300D01*
X144550Y95700D02*
Y100300D01*
X134450Y95700D02*
X144550D01*
X134450Y100300D02*
X144550D01*
X134450Y100200D02*
Y104800D01*
X144550Y100200D02*
Y104800D01*
X134450Y100200D02*
X144550D01*
X134450Y104800D02*
X144550D01*
X134450Y62700D02*
Y67300D01*
X144550Y62700D02*
Y67300D01*
X134450Y62700D02*
X144550D01*
X134450Y67300D02*
X144550D01*
X161700Y118050D02*
X166300D01*
X161700Y107950D02*
X166300D01*
X161700D02*
Y118050D01*
X166300Y107950D02*
Y118050D01*
X134450Y67700D02*
Y72300D01*
X144550Y67700D02*
Y72300D01*
X134450Y67700D02*
X144550D01*
X134450Y72300D02*
X144550D01*
X134450Y72700D02*
Y77300D01*
X144550Y72700D02*
Y77300D01*
X134450Y72700D02*
X144550D01*
X134450Y77300D02*
X144550D01*
X43950Y92200D02*
Y96800D01*
X54050Y92200D02*
Y96800D01*
X43950Y92200D02*
X54050D01*
X43950Y96800D02*
X54050D01*
X43950Y96700D02*
Y101300D01*
X54050Y96700D02*
Y101300D01*
X43950Y96700D02*
X54050D01*
X43950Y101300D02*
X54050D01*
X94550Y29700D02*
Y34300D01*
X84450Y29700D02*
Y34300D01*
X94550D01*
X84450Y29700D02*
X94550D01*
X96700Y25550D02*
X101300D01*
X96700Y15450D02*
X101300D01*
X96700D02*
Y25550D01*
X101300Y15450D02*
Y25550D01*
X169200Y45950D02*
X173800D01*
X169200Y56050D02*
X173800D01*
Y45950D02*
Y56050D01*
X169200Y45950D02*
Y56050D01*
X164700Y45950D02*
X169300D01*
X164700Y56050D02*
X169300D01*
Y45950D02*
Y56050D01*
X164700Y45950D02*
Y56050D01*
X200550Y16200D02*
Y20800D01*
X190450Y16200D02*
Y20800D01*
X200550D01*
X190450Y16200D02*
X200550D01*
X134450Y86800D02*
X144550D01*
X134450Y82200D02*
X144550D01*
Y86800D01*
X134450Y82200D02*
Y86800D01*
X274800Y101450D02*
Y111550D01*
X270200Y101450D02*
Y111550D01*
Y101450D02*
X274800D01*
X270200Y111550D02*
X274800D01*
X265200Y101450D02*
Y111550D01*
X269800Y101450D02*
Y111550D01*
X265200D02*
X269800D01*
X265200Y101450D02*
X269800D01*
X265200Y123450D02*
X269800D01*
X265200Y133550D02*
X269800D01*
Y123450D02*
Y133550D01*
X265200Y123450D02*
Y133550D01*
X143200Y124450D02*
Y134550D01*
X147800Y124450D02*
Y134550D01*
X143200D02*
X147800D01*
X143200Y124450D02*
X147800D01*
X138200D02*
Y134550D01*
X142800Y124450D02*
Y134550D01*
X138200D02*
X142800D01*
X138200Y124450D02*
X142800D01*
X198450Y162800D02*
X208550D01*
X198450Y158200D02*
X208550D01*
Y162800D01*
X198450Y158200D02*
Y162800D01*
X291610Y155390D02*
X305390D01*
X291610Y141610D02*
Y155390D01*
X305390Y141610D02*
Y155390D01*
X291610Y141610D02*
X305390D01*
X291610Y112390D02*
X305390D01*
X291610Y98610D02*
Y112390D01*
X305390Y98610D02*
Y112390D01*
X291610Y98610D02*
X305390D01*
X199950Y222300D02*
X210050D01*
X199950Y217700D02*
X210050D01*
Y222300D01*
X199950Y217700D02*
Y222300D01*
X223950D02*
X234050D01*
X223950Y217700D02*
X234050D01*
Y222300D01*
X223950Y217700D02*
Y222300D01*
X291610Y134890D02*
X305390D01*
X291610Y121110D02*
Y134890D01*
X305390Y121110D02*
Y134890D01*
X291610Y121110D02*
X305390D01*
D50*
X134300Y201900D02*
X136300Y203900D01*
X142300D01*
Y195900D02*
Y203900D01*
X134300Y195900D02*
X142300D01*
X134300D02*
Y201900D01*
X10000Y181500D02*
X12000Y183500D01*
X18000D01*
Y175500D02*
Y183500D01*
X10000Y175500D02*
X18000D01*
X10000D02*
Y181500D01*
X257500Y125000D02*
X260000Y122500D01*
Y115000D02*
Y122500D01*
X240000Y115000D02*
X260000D01*
X240000D02*
Y125000D01*
X257500D01*
Y115000D02*
X260000Y112500D01*
Y105000D02*
Y112500D01*
X240000Y105000D02*
X260000D01*
X240000D02*
Y115000D01*
X257500D01*
Y105000D02*
X260000Y102500D01*
Y95000D02*
Y102500D01*
X240000Y95000D02*
X260000D01*
X240000D02*
Y105000D01*
X257500D01*
X241000Y130000D02*
Y136000D01*
Y130000D02*
X249000D01*
Y138000D01*
X243000D02*
X249000D01*
X241000Y136000D02*
X243000Y138000D01*
X251000Y130000D02*
Y136000D01*
Y130000D02*
X259000D01*
Y138000D01*
X253000D02*
X259000D01*
X251000Y136000D02*
X253000Y138000D01*
X282499Y25999D02*
X280500D01*
Y24499D01*
X281500D01*
X280500D01*
Y23000D01*
X283499Y25999D02*
Y23000D01*
X284998D01*
X285498Y23500D01*
Y25499D01*
X284998Y25999D01*
X283499D01*
X286498Y25499D02*
X286998Y25999D01*
X287998D01*
X288497Y25499D01*
Y24999D01*
X287998Y24499D01*
X287498D01*
X287998D01*
X288497Y24000D01*
Y23500D01*
X287998Y23000D01*
X286998D01*
X286498Y23500D01*
X271999Y221499D02*
X270000D01*
Y220000D01*
X271000D01*
X270000D01*
Y218500D01*
X272999Y221499D02*
Y218500D01*
X274499D01*
X274998Y219000D01*
Y220999D01*
X274499Y221499D01*
X272999D01*
X277997Y218500D02*
X275998D01*
X277997Y220499D01*
Y220999D01*
X277498Y221499D01*
X276498D01*
X275998Y220999D01*
X4999Y61999D02*
X3000D01*
Y60500D01*
X4000D01*
X3000D01*
Y59000D01*
X5999Y61999D02*
Y59000D01*
X7499D01*
X7998Y59500D01*
Y61499D01*
X7499Y61999D01*
X5999D01*
X8998Y59000D02*
X9998D01*
X9498D01*
Y61999D01*
X8998Y61499D01*
X229000Y182500D02*
Y185499D01*
X230500D01*
X230999Y184999D01*
Y184000D01*
X230500Y183500D01*
X229000D01*
X230000D02*
X230999Y182500D01*
X231999Y184999D02*
X232499Y185499D01*
X233499D01*
X233998Y184999D01*
Y184499D01*
X233499Y184000D01*
X232999D01*
X233499D01*
X233998Y183500D01*
Y183000D01*
X233499Y182500D01*
X232499D01*
X231999Y183000D01*
X236997Y185499D02*
X234998D01*
Y184000D01*
X235998Y184499D01*
X236498D01*
X236997Y184000D01*
Y183000D01*
X236498Y182500D01*
X235498D01*
X234998Y183000D01*
X230999Y180999D02*
X230500Y181499D01*
X229500D01*
X229000Y180999D01*
Y179000D01*
X229500Y178500D01*
X230500D01*
X230999Y179000D01*
X233998Y178500D02*
X231999D01*
X233998Y180499D01*
Y180999D01*
X233499Y181499D01*
X232499D01*
X231999Y180999D01*
X234998Y181499D02*
X236997D01*
Y180999D01*
X234998Y179000D01*
Y178500D01*
X230999Y176999D02*
X230500Y177499D01*
X229500D01*
X229000Y176999D01*
Y175000D01*
X229500Y174500D01*
X230500D01*
X230999Y175000D01*
X233998Y174500D02*
X231999D01*
X233998Y176499D01*
Y176999D01*
X233499Y177499D01*
X232499D01*
X231999Y176999D01*
X236997Y177499D02*
X235998Y176999D01*
X234998Y175999D01*
Y175000D01*
X235498Y174500D01*
X236498D01*
X236997Y175000D01*
Y175500D01*
X236498Y175999D01*
X234998D01*
X107001Y43000D02*
X108500D01*
X109000Y43500D01*
Y44999D01*
X107001D01*
X109000Y45999D02*
Y46999D01*
Y46499D01*
X106001D01*
X106501Y45999D01*
Y48498D02*
X106001Y48998D01*
Y49998D01*
X106501Y50498D01*
X108500D01*
X109000Y49998D01*
Y48998D01*
X108500Y48498D01*
X106501D01*
X213000Y218000D02*
Y220999D01*
X214499D01*
X214999Y220499D01*
Y219499D01*
X214499Y219000D01*
X213000D01*
X214000D02*
X214999Y218000D01*
X217998Y220999D02*
X215999D01*
Y219499D01*
X216999Y219999D01*
X217498D01*
X217998Y219499D01*
Y218500D01*
X217498Y218000D01*
X216499D01*
X215999Y218500D01*
X218998Y220999D02*
X220997D01*
Y220499D01*
X218998Y218500D01*
Y218000D01*
X190500Y218500D02*
Y221499D01*
X191999D01*
X192499Y220999D01*
Y220000D01*
X191999Y219500D01*
X190500D01*
X191500D02*
X192499Y218500D01*
X195498Y221499D02*
X193499D01*
Y220000D01*
X194499Y220499D01*
X194999D01*
X195498Y220000D01*
Y219000D01*
X194999Y218500D01*
X193999D01*
X193499Y219000D01*
X198497Y221499D02*
X197498Y220999D01*
X196498Y220000D01*
Y219000D01*
X196998Y218500D01*
X197998D01*
X198497Y219000D01*
Y219500D01*
X197998Y220000D01*
X196498D01*
X213000Y214499D02*
Y211500D01*
X214999D01*
X215999D02*
X216999D01*
X216499D01*
Y214499D01*
X215999Y213999D01*
X218498D02*
X218998Y214499D01*
X219998D01*
X220498Y213999D01*
Y213499D01*
X219998Y213000D01*
X219498D01*
X219998D01*
X220498Y212500D01*
Y212000D01*
X219998Y211500D01*
X218998D01*
X218498Y212000D01*
X190500Y215499D02*
Y212500D01*
X192499D01*
X193499D02*
X194499D01*
X193999D01*
Y215499D01*
X193499Y214999D01*
X197998Y212500D02*
X195998D01*
X197998Y214499D01*
Y214999D01*
X197498Y215499D01*
X196498D01*
X195998Y214999D01*
X253000Y210999D02*
Y208000D01*
X254999D01*
X255999D02*
X256999D01*
X256499D01*
Y210999D01*
X255999Y210499D01*
X258498Y208000D02*
X259498D01*
X258998D01*
Y210999D01*
X258498Y210499D01*
X255999Y220999D02*
X255500Y221499D01*
X254500D01*
X254000Y220999D01*
Y219000D01*
X254500Y218500D01*
X255500D01*
X255999Y219000D01*
X256999Y221499D02*
X258998D01*
Y220999D01*
X256999Y219000D01*
Y218500D01*
X259998Y221499D02*
X261997D01*
Y220999D01*
X259998Y219000D01*
Y218500D01*
X255999Y215999D02*
X255500Y216499D01*
X254500D01*
X254000Y215999D01*
Y214000D01*
X254500Y213500D01*
X255500D01*
X255999Y214000D01*
X256999Y216499D02*
X258998D01*
Y215999D01*
X256999Y214000D01*
Y213500D01*
X261997Y216499D02*
X260998Y215999D01*
X259998Y215000D01*
Y214000D01*
X260498Y213500D01*
X261498D01*
X261997Y214000D01*
Y214500D01*
X261498Y215000D01*
X259998D01*
X235500Y203499D02*
Y201000D01*
X236000Y200500D01*
X237000D01*
X237499Y201000D01*
Y203499D01*
X238499Y202999D02*
X238999Y203499D01*
X239999D01*
X240498Y202999D01*
Y202499D01*
X239999Y201999D01*
X240498Y201500D01*
Y201000D01*
X239999Y200500D01*
X238999D01*
X238499Y201000D01*
Y201500D01*
X238999Y201999D01*
X238499Y202499D01*
Y202999D01*
X238999Y201999D02*
X239999D01*
X252501Y196000D02*
X255500D01*
Y197999D01*
X252501Y200998D02*
Y198999D01*
X254000D01*
X253501Y199999D01*
Y200499D01*
X254000Y200998D01*
X255000D01*
X255500Y200499D01*
Y199499D01*
X255000Y198999D01*
X299999Y41499D02*
X299000D01*
X299500D01*
Y39000D01*
X299000Y38500D01*
X298500D01*
X298000Y39000D01*
X302998Y38500D02*
X300999D01*
X302998Y40499D01*
Y40999D01*
X302499Y41499D01*
X301499D01*
X300999Y40999D01*
X224499Y190999D02*
X224000Y191499D01*
X223000D01*
X222500Y190999D01*
Y189000D01*
X223000Y188500D01*
X224000D01*
X224499Y189000D01*
X225499Y191499D02*
X227498D01*
Y190999D01*
X225499Y189000D01*
Y188500D01*
X230497Y191499D02*
X228498D01*
Y189999D01*
X229498Y190499D01*
X229998D01*
X230497Y189999D01*
Y189000D01*
X229998Y188500D01*
X228998D01*
X228498Y189000D01*
X223001Y195999D02*
X222501Y195500D01*
Y194500D01*
X223001Y194000D01*
X225000D01*
X225500Y194500D01*
Y195500D01*
X225000Y195999D01*
X222501Y196999D02*
Y198998D01*
X223001D01*
X225000Y196999D01*
X225500D01*
Y201498D02*
X222501D01*
X224001Y199998D01*
Y201997D01*
X193500Y147999D02*
Y145500D01*
X194000Y145000D01*
X195000D01*
X195499Y145500D01*
Y147999D01*
X197999Y145000D02*
Y147999D01*
X196499Y146500D01*
X198498D01*
X143801Y195900D02*
Y197899D01*
Y196900D01*
X146800D01*
Y198899D02*
X143801D01*
Y200399D01*
X144301Y200898D01*
X145300D01*
X145800Y200399D01*
Y198899D01*
X146800Y203897D02*
Y201898D01*
X144801Y203897D01*
X144301D01*
X143801Y203398D01*
Y202398D01*
X144301Y201898D01*
X10000Y187999D02*
X11999D01*
X11000D01*
Y185000D01*
X12999D02*
Y187999D01*
X14499D01*
X14998Y187499D01*
Y186500D01*
X14499Y186000D01*
X12999D01*
X15998Y185000D02*
X16998D01*
X16498D01*
Y187999D01*
X15998Y187499D01*
X119499Y187999D02*
X119000Y188499D01*
X118000D01*
X117500Y187999D01*
Y187499D01*
X118000Y186999D01*
X119000D01*
X119499Y186500D01*
Y186000D01*
X119000Y185500D01*
X118000D01*
X117500Y186000D01*
X120499Y188499D02*
Y185500D01*
X121499Y186500D01*
X122498Y185500D01*
Y188499D01*
X125497Y185500D02*
X123498D01*
X125497Y187499D01*
Y187999D01*
X124998Y188499D01*
X123998D01*
X123498Y187999D01*
X213000Y205000D02*
Y207999D01*
X214499D01*
X214999Y207499D01*
Y206500D01*
X214499Y206000D01*
X213000D01*
X214000D02*
X214999Y205000D01*
X217498D02*
Y207999D01*
X215999Y206500D01*
X217998D01*
X220997Y207999D02*
X219998Y207499D01*
X218998Y206500D01*
Y205500D01*
X219498Y205000D01*
X220498D01*
X220997Y205500D01*
Y206000D01*
X220498Y206500D01*
X218998D01*
X213000Y181500D02*
Y184499D01*
X214499D01*
X214999Y183999D01*
Y183000D01*
X214499Y182500D01*
X213000D01*
X214000D02*
X214999Y181500D01*
X217498D02*
Y184499D01*
X215999Y183000D01*
X217998D01*
X220997Y184499D02*
X218998D01*
Y183000D01*
X219998Y183499D01*
X220498D01*
X220997Y183000D01*
Y182000D01*
X220498Y181500D01*
X219498D01*
X218998Y182000D01*
X213000Y191500D02*
Y194499D01*
X214499D01*
X214999Y193999D01*
Y192999D01*
X214499Y192500D01*
X213000D01*
X214000D02*
X214999Y191500D01*
X217498D02*
Y194499D01*
X215999Y192999D01*
X217998D01*
X220498Y191500D02*
Y194499D01*
X218998Y192999D01*
X220997D01*
X213000Y200500D02*
Y203499D01*
X214499D01*
X214999Y202999D01*
Y201999D01*
X214499Y201500D01*
X213000D01*
X214000D02*
X214999Y200500D01*
X217498D02*
Y203499D01*
X215999Y201999D01*
X217998D01*
X218998Y202999D02*
X219498Y203499D01*
X220498D01*
X220997Y202999D01*
Y202499D01*
X220498Y201999D01*
X219998D01*
X220498D01*
X220997Y201500D01*
Y201000D01*
X220498Y200500D01*
X219498D01*
X218998Y201000D01*
X213000Y186000D02*
Y188999D01*
X214499D01*
X214999Y188499D01*
Y187499D01*
X214499Y187000D01*
X213000D01*
X214000D02*
X214999Y186000D01*
X217498D02*
Y188999D01*
X215999Y187499D01*
X217998D01*
X220997Y186000D02*
X218998D01*
X220997Y187999D01*
Y188499D01*
X220498Y188999D01*
X219498D01*
X218998Y188499D01*
X213000Y196000D02*
Y198999D01*
X214499D01*
X214999Y198499D01*
Y197500D01*
X214499Y197000D01*
X213000D01*
X214000D02*
X214999Y196000D01*
X217498D02*
Y198999D01*
X215999Y197500D01*
X217998D01*
X218998Y196000D02*
X219998D01*
X219498D01*
Y198999D01*
X218998Y198499D01*
X133000Y141000D02*
X130001D01*
Y142499D01*
X130501Y142999D01*
X131500D01*
X132000Y142499D01*
Y141000D01*
Y142000D02*
X133000Y142999D01*
Y145499D02*
X130001D01*
X131500Y143999D01*
Y145998D01*
X130501Y146998D02*
X130001Y147498D01*
Y148498D01*
X130501Y148997D01*
X132500D01*
X133000Y148498D01*
Y147498D01*
X132500Y146998D01*
X130501D01*
X127500Y141000D02*
X124501D01*
Y142499D01*
X125001Y142999D01*
X126000D01*
X126500Y142499D01*
Y141000D01*
Y142000D02*
X127500Y142999D01*
X125001Y143999D02*
X124501Y144499D01*
Y145499D01*
X125001Y145998D01*
X125501D01*
X126000Y145499D01*
Y144999D01*
Y145499D01*
X126500Y145998D01*
X127000D01*
X127500Y145499D01*
Y144499D01*
X127000Y143999D01*
Y146998D02*
X127500Y147498D01*
Y148498D01*
X127000Y148997D01*
X125001D01*
X124501Y148498D01*
Y147498D01*
X125001Y146998D01*
X125501D01*
X126000Y147498D01*
Y148997D01*
X122500Y141000D02*
X119501D01*
Y142499D01*
X120001Y142999D01*
X121001D01*
X121500Y142499D01*
Y141000D01*
Y142000D02*
X122500Y142999D01*
X120001Y143999D02*
X119501Y144499D01*
Y145499D01*
X120001Y145998D01*
X120501D01*
X121001Y145499D01*
Y144999D01*
Y145499D01*
X121500Y145998D01*
X122000D01*
X122500Y145499D01*
Y144499D01*
X122000Y143999D01*
X120001Y146998D02*
X119501Y147498D01*
Y148498D01*
X120001Y148997D01*
X120501D01*
X121001Y148498D01*
X121500Y148997D01*
X122000D01*
X122500Y148498D01*
Y147498D01*
X122000Y146998D01*
X121500D01*
X121001Y147498D01*
X120501Y146998D01*
X120001D01*
X121001Y147498D02*
Y148498D01*
X117500Y141000D02*
X114501D01*
Y142499D01*
X115001Y142999D01*
X116000D01*
X116500Y142499D01*
Y141000D01*
Y142000D02*
X117500Y142999D01*
X115001Y143999D02*
X114501Y144499D01*
Y145499D01*
X115001Y145998D01*
X115501D01*
X116000Y145499D01*
Y144999D01*
Y145499D01*
X116500Y145998D01*
X117000D01*
X117500Y145499D01*
Y144499D01*
X117000Y143999D01*
X114501Y146998D02*
Y148997D01*
X115001D01*
X117000Y146998D01*
X117500D01*
X165000Y181000D02*
X162001D01*
Y182500D01*
X162501Y182999D01*
X163500D01*
X164000Y182500D01*
Y181000D01*
Y182000D02*
X165000Y182999D01*
X162501Y183999D02*
X162001Y184499D01*
Y185499D01*
X162501Y185998D01*
X163001D01*
X163500Y185499D01*
Y184999D01*
Y185499D01*
X164000Y185998D01*
X164500D01*
X165000Y185499D01*
Y184499D01*
X164500Y183999D01*
X165000Y188498D02*
X162001D01*
X163500Y186998D01*
Y188997D01*
X271000Y210999D02*
Y208000D01*
X272999D01*
X275499D02*
Y210999D01*
X273999Y209500D01*
X275998D01*
X261400Y211099D02*
Y208100D01*
X263399D01*
X264399Y210599D02*
X264899Y211099D01*
X265898D01*
X266398Y210599D01*
Y210099D01*
X265898Y209599D01*
X265399D01*
X265898D01*
X266398Y209100D01*
Y208600D01*
X265898Y208100D01*
X264899D01*
X264399Y208600D01*
X214999Y165999D02*
X214499Y166499D01*
X213500D01*
X213000Y165999D01*
Y164000D01*
X213500Y163500D01*
X214499D01*
X214999Y164000D01*
X215999Y165999D02*
X216499Y166499D01*
X217498D01*
X217998Y165999D01*
Y165499D01*
X217498Y164999D01*
X216999D01*
X217498D01*
X217998Y164500D01*
Y164000D01*
X217498Y163500D01*
X216499D01*
X215999Y164000D01*
X218998Y165999D02*
X219498Y166499D01*
X220498D01*
X220997Y165999D01*
Y164000D01*
X220498Y163500D01*
X219498D01*
X218998Y164000D01*
Y165999D01*
X184501Y138499D02*
X184001Y137999D01*
Y137000D01*
X184501Y136500D01*
X186500D01*
X187000Y137000D01*
Y137999D01*
X186500Y138499D01*
X187000Y141498D02*
Y139499D01*
X185001Y141498D01*
X184501D01*
X184001Y140999D01*
Y139999D01*
X184501Y139499D01*
X186500Y142498D02*
X187000Y142998D01*
Y143998D01*
X186500Y144497D01*
X184501D01*
X184001Y143998D01*
Y142998D01*
X184501Y142498D01*
X185001D01*
X185501Y142998D01*
Y144497D01*
X137001Y151999D02*
X136501Y151499D01*
Y150500D01*
X137001Y150000D01*
X139000D01*
X139500Y150500D01*
Y151499D01*
X139000Y151999D01*
X139500Y154998D02*
Y152999D01*
X137501Y154998D01*
X137001D01*
X136501Y154499D01*
Y153499D01*
X137001Y152999D01*
Y155998D02*
X136501Y156498D01*
Y157498D01*
X137001Y157997D01*
X137501D01*
X138001Y157498D01*
X138500Y157997D01*
X139000D01*
X139500Y157498D01*
Y156498D01*
X139000Y155998D01*
X138500D01*
X138001Y156498D01*
X137501Y155998D01*
X137001D01*
X138001Y156498D02*
Y157498D01*
X214999Y156999D02*
X214499Y157499D01*
X213500D01*
X213000Y156999D01*
Y155000D01*
X213500Y154500D01*
X214499D01*
X214999Y155000D01*
X217998Y154500D02*
X215999D01*
X217998Y156499D01*
Y156999D01*
X217498Y157499D01*
X216499D01*
X215999Y156999D01*
X220997Y157499D02*
X218998D01*
Y156000D01*
X219998Y156499D01*
X220498D01*
X220997Y156000D01*
Y155000D01*
X220498Y154500D01*
X219498D01*
X218998Y155000D01*
X141501Y151999D02*
X141001Y151499D01*
Y150500D01*
X141501Y150000D01*
X143500D01*
X144000Y150500D01*
Y151499D01*
X143500Y151999D01*
X144000Y154998D02*
Y152999D01*
X142001Y154998D01*
X141501D01*
X141001Y154499D01*
Y153499D01*
X141501Y152999D01*
X144000Y157498D02*
X141001D01*
X142500Y155998D01*
Y157997D01*
X146001Y151999D02*
X145501Y151499D01*
Y150500D01*
X146001Y150000D01*
X148000D01*
X148500Y150500D01*
Y151499D01*
X148000Y151999D01*
X148500Y154998D02*
Y152999D01*
X146501Y154998D01*
X146001D01*
X145501Y154499D01*
Y153499D01*
X146001Y152999D01*
Y155998D02*
X145501Y156498D01*
Y157498D01*
X146001Y157997D01*
X146501D01*
X147001Y157498D01*
Y156998D01*
Y157498D01*
X147500Y157997D01*
X148000D01*
X148500Y157498D01*
Y156498D01*
X148000Y155998D01*
X166501Y182999D02*
X166001Y182500D01*
Y181500D01*
X166501Y181000D01*
X168500D01*
X169000Y181500D01*
Y182500D01*
X168500Y182999D01*
X169000Y185998D02*
Y183999D01*
X167001Y185998D01*
X166501D01*
X166001Y185499D01*
Y184499D01*
X166501Y183999D01*
X169000Y188997D02*
Y186998D01*
X167001Y188997D01*
X166501D01*
X166001Y188498D01*
Y187498D01*
X166501Y186998D01*
X181501Y183999D02*
X181001Y183500D01*
Y182500D01*
X181501Y182000D01*
X183500D01*
X184000Y182500D01*
Y183500D01*
X183500Y183999D01*
X184000Y186998D02*
Y184999D01*
X182001Y186998D01*
X181501D01*
X181001Y186499D01*
Y185499D01*
X181501Y184999D01*
X184000Y187998D02*
Y188998D01*
Y188498D01*
X181001D01*
X181501Y187998D01*
X153499Y172999D02*
X152999Y173499D01*
X152000D01*
X151500Y172999D01*
Y171000D01*
X152000Y170500D01*
X152999D01*
X153499Y171000D01*
X156498Y170500D02*
X154499D01*
X156498Y172499D01*
Y172999D01*
X155999Y173499D01*
X154999D01*
X154499Y172999D01*
X157498D02*
X157998Y173499D01*
X158998D01*
X159497Y172999D01*
Y171000D01*
X158998Y170500D01*
X157998D01*
X157498Y171000D01*
Y172999D01*
X153499Y176999D02*
X152999Y177499D01*
X152000D01*
X151500Y176999D01*
Y175000D01*
X152000Y174500D01*
X152999D01*
X153499Y175000D01*
X154499Y174500D02*
X155499D01*
X154999D01*
Y177499D01*
X154499Y176999D01*
X156998Y175000D02*
X157498Y174500D01*
X158498D01*
X158998Y175000D01*
Y176999D01*
X158498Y177499D01*
X157498D01*
X156998Y176999D01*
Y176499D01*
X157498Y175999D01*
X158998D01*
X214999Y174999D02*
X214499Y175499D01*
X213500D01*
X213000Y174999D01*
Y173000D01*
X213500Y172500D01*
X214499D01*
X214999Y173000D01*
X215999Y172500D02*
X216999D01*
X216499D01*
Y175499D01*
X215999Y174999D01*
X218498D02*
X218998Y175499D01*
X219998D01*
X220498Y174999D01*
Y174499D01*
X219998Y174000D01*
X220498Y173500D01*
Y173000D01*
X219998Y172500D01*
X218998D01*
X218498Y173000D01*
Y173500D01*
X218998Y174000D01*
X218498Y174499D01*
Y174999D01*
X218998Y174000D02*
X219998D01*
X214999Y179499D02*
X214499Y179999D01*
X213500D01*
X213000Y179499D01*
Y177500D01*
X213500Y177000D01*
X214499D01*
X214999Y177500D01*
X215999Y177000D02*
X216999D01*
X216499D01*
Y179999D01*
X215999Y179499D01*
X218498Y179999D02*
X220498D01*
Y179499D01*
X218498Y177500D01*
Y177000D01*
X214999Y170499D02*
X214499Y170999D01*
X213500D01*
X213000Y170499D01*
Y168500D01*
X213500Y168000D01*
X214499D01*
X214999Y168500D01*
X215999Y168000D02*
X216999D01*
X216499D01*
Y170999D01*
X215999Y170499D01*
X220498Y170999D02*
X219498Y170499D01*
X218498Y169500D01*
Y168500D01*
X218998Y168000D01*
X219998D01*
X220498Y168500D01*
Y169000D01*
X219998Y169500D01*
X218498D01*
X272999Y190499D02*
X272499Y190999D01*
X271500D01*
X271000Y190499D01*
Y188500D01*
X271500Y188000D01*
X272499D01*
X272999Y188500D01*
X273999Y188000D02*
X274999D01*
X274499D01*
Y190999D01*
X273999Y190499D01*
X278498Y190999D02*
X276498D01*
Y189499D01*
X277498Y189999D01*
X277998D01*
X278498Y189499D01*
Y188500D01*
X277998Y188000D01*
X276998D01*
X276498Y188500D01*
X272999Y194499D02*
X272499Y194999D01*
X271500D01*
X271000Y194499D01*
Y192500D01*
X271500Y192000D01*
X272499D01*
X272999Y192500D01*
X273999Y192000D02*
X274999D01*
X274499D01*
Y194999D01*
X273999Y194499D01*
X277998Y192000D02*
Y194999D01*
X276498Y193500D01*
X278498D01*
X272999Y206499D02*
X272499Y206999D01*
X271500D01*
X271000Y206499D01*
Y204500D01*
X271500Y204000D01*
X272499D01*
X272999Y204500D01*
X273999Y204000D02*
X274999D01*
X274499D01*
Y206999D01*
X273999Y206499D01*
X276498D02*
X276998Y206999D01*
X277998D01*
X278498Y206499D01*
Y205999D01*
X277998Y205500D01*
X277498D01*
X277998D01*
X278498Y205000D01*
Y204500D01*
X277998Y204000D01*
X276998D01*
X276498Y204500D01*
X272999Y202499D02*
X272499Y202999D01*
X271500D01*
X271000Y202499D01*
Y200500D01*
X271500Y200000D01*
X272499D01*
X272999Y200500D01*
X273999Y200000D02*
X274999D01*
X274499D01*
Y202999D01*
X273999Y202499D01*
X278498Y200000D02*
X276498D01*
X278498Y201999D01*
Y202499D01*
X277998Y202999D01*
X276998D01*
X276498Y202499D01*
X272999Y198499D02*
X272499Y198999D01*
X271500D01*
X271000Y198499D01*
Y196500D01*
X271500Y196000D01*
X272499D01*
X272999Y196500D01*
X273999Y196000D02*
X274999D01*
X274499D01*
Y198999D01*
X273999Y198499D01*
X276498Y196000D02*
X277498D01*
X276998D01*
Y198999D01*
X276498Y198499D01*
X263199Y206599D02*
X262700Y207099D01*
X261700D01*
X261200Y206599D01*
Y204600D01*
X261700Y204100D01*
X262700D01*
X263199Y204600D01*
X264199Y204100D02*
X265199D01*
X264699D01*
Y207099D01*
X264199Y206599D01*
X266698D02*
X267198Y207099D01*
X268198D01*
X268698Y206599D01*
Y204600D01*
X268198Y204100D01*
X267198D01*
X266698Y204600D01*
Y206599D01*
X263299Y202699D02*
X262800Y203199D01*
X261800D01*
X261300Y202699D01*
Y200700D01*
X261800Y200200D01*
X262800D01*
X263299Y200700D01*
X264299D02*
X264799Y200200D01*
X265798D01*
X266298Y200700D01*
Y202699D01*
X265798Y203199D01*
X264799D01*
X264299Y202699D01*
Y202199D01*
X264799Y201699D01*
X266298D01*
X263199Y198699D02*
X262700Y199199D01*
X261700D01*
X261200Y198699D01*
Y196700D01*
X261700Y196200D01*
X262700D01*
X263199Y196700D01*
X264199Y198699D02*
X264699Y199199D01*
X265699D01*
X266198Y198699D01*
Y198199D01*
X265699Y197699D01*
X266198Y197200D01*
Y196700D01*
X265699Y196200D01*
X264699D01*
X264199Y196700D01*
Y197200D01*
X264699Y197699D01*
X264199Y198199D01*
Y198699D01*
X264699Y197699D02*
X265699D01*
X152499Y143999D02*
X151999Y144499D01*
X151000D01*
X150500Y143999D01*
Y142000D01*
X151000Y141500D01*
X151999D01*
X152499Y142000D01*
X153499Y144499D02*
X155498D01*
Y143999D01*
X153499Y142000D01*
Y141500D01*
X152499Y139999D02*
X151999Y140499D01*
X151000D01*
X150500Y139999D01*
Y138000D01*
X151000Y137500D01*
X151999D01*
X152499Y138000D01*
X155498Y140499D02*
X154499Y139999D01*
X153499Y138999D01*
Y138000D01*
X153999Y137500D01*
X154999D01*
X155498Y138000D01*
Y138500D01*
X154999Y138999D01*
X153499D01*
X96999Y63499D02*
X96500Y63999D01*
X95500D01*
X95000Y63499D01*
Y61500D01*
X95500Y61000D01*
X96500D01*
X96999Y61500D01*
X97999Y63499D02*
X98499Y63999D01*
X99499D01*
X99998Y63499D01*
Y62999D01*
X99499Y62499D01*
X99998Y62000D01*
Y61500D01*
X99499Y61000D01*
X98499D01*
X97999Y61500D01*
Y62000D01*
X98499Y62499D01*
X97999Y62999D01*
Y63499D01*
X98499Y62499D02*
X99499D01*
X102997Y61000D02*
X100998D01*
X102997Y62999D01*
Y63499D01*
X102498Y63999D01*
X101498D01*
X100998Y63499D01*
X89500Y88999D02*
X91499Y87000D01*
X89500D02*
X91499Y88999D01*
X89500Y87999D02*
X91499D01*
X90500Y87000D02*
Y88999D01*
X92499Y86500D02*
X93499D01*
X92999D01*
Y89499D01*
X92499Y88999D01*
X100500Y129500D02*
X97501D01*
Y131000D01*
X98001Y131499D01*
X99001D01*
X99500Y131000D01*
Y129500D01*
Y130500D02*
X100500Y131499D01*
Y132499D02*
Y133499D01*
Y132999D01*
X97501D01*
X98001Y132499D01*
Y134998D02*
X97501Y135498D01*
Y136498D01*
X98001Y136998D01*
X100000D01*
X100500Y136498D01*
Y135498D01*
X100000Y134998D01*
X98001D01*
X97000Y129500D02*
X94001D01*
Y131000D01*
X94501Y131499D01*
X95500D01*
X96000Y131000D01*
Y129500D01*
Y130500D02*
X97000Y131499D01*
X96500Y132499D02*
X97000Y132999D01*
Y133999D01*
X96500Y134498D01*
X94501D01*
X94001Y133999D01*
Y132999D01*
X94501Y132499D01*
X95001D01*
X95500Y132999D01*
Y134498D01*
X52196Y221503D02*
X51196D01*
X51696D01*
Y219004D01*
X51196Y218504D01*
X50697D01*
X50197Y219004D01*
X55195Y221503D02*
X53196D01*
Y220004D01*
X54196Y220503D01*
X54695D01*
X55195Y220004D01*
Y219004D01*
X54695Y218504D01*
X53696D01*
X53196Y219004D01*
X144716Y221503D02*
X143716D01*
X144216D01*
Y219004D01*
X143716Y218504D01*
X143216D01*
X142717Y219004D01*
X147215Y218504D02*
Y221503D01*
X145716Y220004D01*
X147715D01*
X38417Y221503D02*
X37417D01*
X37917D01*
Y219004D01*
X37417Y218504D01*
X36917D01*
X36417Y219004D01*
X39416Y221003D02*
X39916Y221503D01*
X40916D01*
X41416Y221003D01*
Y220503D01*
X40916Y220004D01*
X40416D01*
X40916D01*
X41416Y219504D01*
Y219004D01*
X40916Y218504D01*
X39916D01*
X39416Y219004D01*
X278500Y120499D02*
Y118000D01*
X279000Y117500D01*
X279999D01*
X280499Y118000D01*
Y120499D01*
X281499Y117500D02*
X282499D01*
X281999D01*
Y120499D01*
X281499Y119999D01*
X285998Y120499D02*
X283998D01*
Y119000D01*
X284998Y119499D01*
X285498D01*
X285998Y119000D01*
Y118000D01*
X285498Y117500D01*
X284498D01*
X283998Y118000D01*
X303501Y101500D02*
X306000D01*
X306500Y102000D01*
Y102999D01*
X306000Y103499D01*
X303501D01*
X306500Y104499D02*
Y105499D01*
Y104999D01*
X303501D01*
X304001Y104499D01*
X306500Y108498D02*
X303501D01*
X305000Y106998D01*
Y108998D01*
X264000Y124000D02*
X261001D01*
Y125499D01*
X261501Y125999D01*
X262501D01*
X263000Y125499D01*
Y124000D01*
Y125000D02*
X264000Y125999D01*
X261001Y128998D02*
X261501Y127999D01*
X262501Y126999D01*
X263500D01*
X264000Y127499D01*
Y128499D01*
X263500Y128998D01*
X263000D01*
X262501Y128499D01*
Y126999D01*
X261001Y131997D02*
Y129998D01*
X262501D01*
X262001Y130998D01*
Y131498D01*
X262501Y131997D01*
X263500D01*
X264000Y131498D01*
Y130498D01*
X263500Y129998D01*
X264000Y102000D02*
X261001D01*
Y103499D01*
X261501Y103999D01*
X262501D01*
X263000Y103499D01*
Y102000D01*
Y103000D02*
X264000Y103999D01*
X261001Y106998D02*
X261501Y105999D01*
X262501Y104999D01*
X263500D01*
X264000Y105499D01*
Y106499D01*
X263500Y106998D01*
X263000D01*
X262501Y106499D01*
Y104999D01*
X264000Y109498D02*
X261001D01*
X262501Y107998D01*
Y109997D01*
X274000Y92000D02*
X271001D01*
Y93499D01*
X271501Y93999D01*
X272500D01*
X273000Y93499D01*
Y92000D01*
Y93000D02*
X274000Y93999D01*
X271001Y96998D02*
X271501Y95999D01*
X272500Y94999D01*
X273500D01*
X274000Y95499D01*
Y96499D01*
X273500Y96998D01*
X273000D01*
X272500Y96499D01*
Y94999D01*
X271501Y97998D02*
X271001Y98498D01*
Y99498D01*
X271501Y99997D01*
X272001D01*
X272500Y99498D01*
Y98998D01*
Y99498D01*
X273000Y99997D01*
X273500D01*
X274000Y99498D01*
Y98498D01*
X273500Y97998D01*
X225000Y21999D02*
Y19000D01*
X226999D01*
X227999Y21499D02*
X228499Y21999D01*
X229499D01*
X229998Y21499D01*
Y20999D01*
X229499Y20500D01*
X229998Y20000D01*
Y19500D01*
X229499Y19000D01*
X228499D01*
X227999Y19500D01*
Y20000D01*
X228499Y20500D01*
X227999Y20999D01*
Y21499D01*
X228499Y20500D02*
X229499D01*
X122499Y84999D02*
X122000Y85499D01*
X121000D01*
X120500Y84999D01*
Y83000D01*
X121000Y82500D01*
X122000D01*
X122499Y83000D01*
X125498Y85499D02*
X124499Y84999D01*
X123499Y84000D01*
Y83000D01*
X123999Y82500D01*
X124999D01*
X125498Y83000D01*
Y83500D01*
X124999Y84000D01*
X123499D01*
X126498Y83000D02*
X126998Y82500D01*
X127998D01*
X128498Y83000D01*
Y84999D01*
X127998Y85499D01*
X126998D01*
X126498Y84999D01*
Y84499D01*
X126998Y84000D01*
X128498D01*
X203999Y19499D02*
X203500Y19999D01*
X202500D01*
X202000Y19499D01*
Y17500D01*
X202500Y17000D01*
X203500D01*
X203999Y17500D01*
X204999Y17000D02*
X205999D01*
X205499D01*
Y19999D01*
X204999Y19499D01*
X166126Y59499D02*
X165626Y59000D01*
Y58000D01*
X166126Y57500D01*
X168125D01*
X168625Y58000D01*
Y59000D01*
X168125Y59499D01*
X168625Y62498D02*
Y60499D01*
X166625Y62498D01*
X166126D01*
X165626Y61999D01*
Y60999D01*
X166126Y60499D01*
X171001Y59499D02*
X170501Y59000D01*
Y58000D01*
X171001Y57500D01*
X173000D01*
X173500Y58000D01*
Y59000D01*
X173000Y59499D01*
X171001Y60499D02*
X170501Y60999D01*
Y61999D01*
X171001Y62498D01*
X171501D01*
X172001Y61999D01*
Y61499D01*
Y61999D01*
X172500Y62498D01*
X173000D01*
X173500Y61999D01*
Y60999D01*
X173000Y60499D01*
X103001Y21999D02*
X102501Y21499D01*
Y20500D01*
X103001Y20000D01*
X105000D01*
X105500Y20500D01*
Y21499D01*
X105000Y21999D01*
X105500Y24499D02*
X102501D01*
X104000Y22999D01*
Y24998D01*
X97999Y32999D02*
X97500Y33499D01*
X96500D01*
X96000Y32999D01*
Y31000D01*
X96500Y30500D01*
X97500D01*
X97999Y31000D01*
X100998Y33499D02*
X98999D01*
Y31999D01*
X99999Y32499D01*
X100499D01*
X100998Y31999D01*
Y31000D01*
X100499Y30500D01*
X99499D01*
X98999Y31000D01*
X36999Y100499D02*
X36500Y100999D01*
X35500D01*
X35000Y100499D01*
Y98500D01*
X35500Y98000D01*
X36500D01*
X36999Y98500D01*
X37999Y100499D02*
X38499Y100999D01*
X39498D01*
X39998Y100499D01*
Y99999D01*
X39498Y99499D01*
X38999D01*
X39498D01*
X39998Y99000D01*
Y98500D01*
X39498Y98000D01*
X38499D01*
X37999Y98500D01*
X40998Y98000D02*
X41998D01*
X41498D01*
Y100999D01*
X40998Y100499D01*
X36999Y95499D02*
X36500Y95999D01*
X35500D01*
X35000Y95499D01*
Y93500D01*
X35500Y93000D01*
X36500D01*
X36999Y93500D01*
X37999Y95499D02*
X38499Y95999D01*
X39499D01*
X39998Y95499D01*
Y94999D01*
X39499Y94499D01*
X38999D01*
X39499D01*
X39998Y94000D01*
Y93500D01*
X39499Y93000D01*
X38499D01*
X37999Y93500D01*
X42997Y93000D02*
X40998D01*
X42997Y94999D01*
Y95499D01*
X42498Y95999D01*
X41498D01*
X40998Y95499D01*
X18499Y118499D02*
X18000Y118999D01*
X17000D01*
X16500Y118499D01*
Y116500D01*
X17000Y116000D01*
X18000D01*
X18499Y116500D01*
X19499Y118499D02*
X19999Y118999D01*
X20999D01*
X21498Y118499D01*
Y117999D01*
X20999Y117499D01*
X20499D01*
X20999D01*
X21498Y117000D01*
Y116500D01*
X20999Y116000D01*
X19999D01*
X19499Y116500D01*
X22498Y118499D02*
X22998Y118999D01*
X23998D01*
X24497Y118499D01*
Y117999D01*
X23998Y117499D01*
X23498D01*
X23998D01*
X24497Y117000D01*
Y116500D01*
X23998Y116000D01*
X22998D01*
X22498Y116500D01*
X111499Y14499D02*
X111000Y14999D01*
X110000D01*
X109500Y14499D01*
Y12500D01*
X110000Y12000D01*
X111000D01*
X111499Y12500D01*
X112499Y14499D02*
X112999Y14999D01*
X113999D01*
X114498Y14499D01*
Y13999D01*
X113999Y13499D01*
X113499D01*
X113999D01*
X114498Y13000D01*
Y12500D01*
X113999Y12000D01*
X112999D01*
X112499Y12500D01*
X116998Y12000D02*
Y14999D01*
X115498Y13499D01*
X117497D01*
X24001Y85499D02*
X23501Y85000D01*
Y84000D01*
X24001Y83500D01*
X26000D01*
X26500Y84000D01*
Y85000D01*
X26000Y85499D01*
X24001Y86499D02*
X23501Y86999D01*
Y87999D01*
X24001Y88498D01*
X24501D01*
X25001Y87999D01*
Y87499D01*
Y87999D01*
X25500Y88498D01*
X26000D01*
X26500Y87999D01*
Y86999D01*
X26000Y86499D01*
X23501Y91497D02*
Y89498D01*
X25001D01*
X24501Y90498D01*
Y90998D01*
X25001Y91497D01*
X26000D01*
X26500Y90998D01*
Y89998D01*
X26000Y89498D01*
X7999Y169999D02*
X7500Y170499D01*
X6500D01*
X6000Y169999D01*
Y168000D01*
X6500Y167500D01*
X7500D01*
X7999Y168000D01*
X8999Y169999D02*
X9499Y170499D01*
X10499D01*
X10998Y169999D01*
Y169499D01*
X10499Y169000D01*
X9999D01*
X10499D01*
X10998Y168500D01*
Y168000D01*
X10499Y167500D01*
X9499D01*
X8999Y168000D01*
X13997Y170499D02*
X12998Y169999D01*
X11998Y169000D01*
Y168000D01*
X12498Y167500D01*
X13498D01*
X13997Y168000D01*
Y168500D01*
X13498Y169000D01*
X11998D01*
X123999Y75499D02*
X123500Y75999D01*
X122500D01*
X122000Y75499D01*
Y73500D01*
X122500Y73000D01*
X123500D01*
X123999Y73500D01*
X124999Y75499D02*
X125499Y75999D01*
X126499D01*
X126998Y75499D01*
Y74999D01*
X126499Y74499D01*
X125999D01*
X126499D01*
X126998Y74000D01*
Y73500D01*
X126499Y73000D01*
X125499D01*
X124999Y73500D01*
X127998Y75999D02*
X129997D01*
Y75499D01*
X127998Y73500D01*
Y73000D01*
X123499Y71499D02*
X123000Y71999D01*
X122000D01*
X121500Y71499D01*
Y69500D01*
X122000Y69000D01*
X123000D01*
X123499Y69500D01*
X124499Y71499D02*
X124999Y71999D01*
X125998D01*
X126498Y71499D01*
Y70999D01*
X125998Y70499D01*
X125499D01*
X125998D01*
X126498Y70000D01*
Y69500D01*
X125998Y69000D01*
X124999D01*
X124499Y69500D01*
X127498Y71499D02*
X127998Y71999D01*
X128998D01*
X129497Y71499D01*
Y70999D01*
X128998Y70499D01*
X129497Y70000D01*
Y69500D01*
X128998Y69000D01*
X127998D01*
X127498Y69500D01*
Y70000D01*
X127998Y70499D01*
X127498Y70999D01*
Y71499D01*
X127998Y70499D02*
X128998D01*
X177501Y110999D02*
X177001Y110500D01*
Y109500D01*
X177501Y109000D01*
X179500D01*
X180000Y109500D01*
Y110500D01*
X179500Y110999D01*
X180000Y113499D02*
X177001D01*
X178500Y111999D01*
Y113998D01*
X177501Y114998D02*
X177001Y115498D01*
Y116498D01*
X177501Y116998D01*
X179500D01*
X180000Y116498D01*
Y115498D01*
X179500Y114998D01*
X177501D01*
X128499Y65999D02*
X127999Y66499D01*
X127000D01*
X126500Y65999D01*
Y64000D01*
X127000Y63500D01*
X127999D01*
X128499Y64000D01*
X130999Y63500D02*
Y66499D01*
X129499Y65000D01*
X131498D01*
X132498Y63500D02*
X133498D01*
X132998D01*
Y66499D01*
X132498Y65999D01*
X122499Y102999D02*
X122000Y103499D01*
X121000D01*
X120500Y102999D01*
Y101000D01*
X121000Y100500D01*
X122000D01*
X122499Y101000D01*
X124999Y100500D02*
Y103499D01*
X123499Y101999D01*
X125498D01*
X128497Y100500D02*
X126498D01*
X128497Y102499D01*
Y102999D01*
X127998Y103499D01*
X126998D01*
X126498Y102999D01*
X122499Y98499D02*
X122000Y98999D01*
X121000D01*
X120500Y98499D01*
Y96500D01*
X121000Y96000D01*
X122000D01*
X122499Y96500D01*
X124999Y96000D02*
Y98999D01*
X123499Y97500D01*
X125498D01*
X126498Y98499D02*
X126998Y98999D01*
X127998D01*
X128497Y98499D01*
Y97999D01*
X127998Y97500D01*
X127498D01*
X127998D01*
X128497Y97000D01*
Y96500D01*
X127998Y96000D01*
X126998D01*
X126498Y96500D01*
X147999Y60999D02*
X147500Y61499D01*
X146500D01*
X146000Y60999D01*
Y59000D01*
X146500Y58500D01*
X147500D01*
X147999Y59000D01*
X150499Y58500D02*
Y61499D01*
X148999Y60000D01*
X150998D01*
X153498Y58500D02*
Y61499D01*
X151998Y60000D01*
X153997D01*
X181501Y110999D02*
X181001Y110500D01*
Y109500D01*
X181501Y109000D01*
X183500D01*
X184000Y109500D01*
Y110500D01*
X183500Y110999D01*
X184000Y113499D02*
X181001D01*
X182501Y111999D01*
Y113998D01*
X181001Y116997D02*
Y114998D01*
X182501D01*
X182001Y115998D01*
Y116498D01*
X182501Y116997D01*
X183500D01*
X184000Y116498D01*
Y115498D01*
X183500Y114998D01*
X122499Y89499D02*
X122000Y89999D01*
X121000D01*
X120500Y89499D01*
Y87500D01*
X121000Y87000D01*
X122000D01*
X122499Y87500D01*
X124999Y87000D02*
Y89999D01*
X123499Y88499D01*
X125498D01*
X128497Y89999D02*
X127498Y89499D01*
X126498Y88499D01*
Y87500D01*
X126998Y87000D01*
X127998D01*
X128497Y87500D01*
Y88000D01*
X127998Y88499D01*
X126498D01*
X288999Y196499D02*
X288499Y196999D01*
X287500D01*
X287000Y196499D01*
Y194500D01*
X287500Y194000D01*
X288499D01*
X288999Y194500D01*
X291498Y194000D02*
Y196999D01*
X289999Y195500D01*
X291998D01*
X292998Y196999D02*
X294997D01*
Y196499D01*
X292998Y194500D01*
Y194000D01*
X288999Y208499D02*
X288500Y208999D01*
X287500D01*
X287000Y208499D01*
Y206500D01*
X287500Y206000D01*
X288500D01*
X288999Y206500D01*
X291499Y206000D02*
Y208999D01*
X289999Y207500D01*
X291998D01*
X292998Y208499D02*
X293498Y208999D01*
X294498D01*
X294998Y208499D01*
Y207999D01*
X294498Y207500D01*
X294998Y207000D01*
Y206500D01*
X294498Y206000D01*
X293498D01*
X292998Y206500D01*
Y207000D01*
X293498Y207500D01*
X292998Y207999D01*
Y208499D01*
X293498Y207500D02*
X294498D01*
X123999Y80499D02*
X123500Y80999D01*
X122500D01*
X122000Y80499D01*
Y78500D01*
X122500Y78000D01*
X123500D01*
X123999Y78500D01*
X126499Y78000D02*
Y80999D01*
X124999Y79500D01*
X126998D01*
X127998Y78500D02*
X128498Y78000D01*
X129498D01*
X129997Y78500D01*
Y80499D01*
X129498Y80999D01*
X128498D01*
X127998Y80499D01*
Y79999D01*
X128498Y79500D01*
X129997D01*
X202499Y52499D02*
X201999Y52999D01*
X201000D01*
X200500Y52499D01*
Y50500D01*
X201000Y50000D01*
X201999D01*
X202499Y50500D01*
X205498Y52999D02*
X203499D01*
Y51499D01*
X204499Y51999D01*
X204998D01*
X205498Y51499D01*
Y50500D01*
X204998Y50000D01*
X203999D01*
X203499Y50500D01*
X206498Y52499D02*
X206998Y52999D01*
X207998D01*
X208497Y52499D01*
Y50500D01*
X207998Y50000D01*
X206998D01*
X206498Y50500D01*
Y52499D01*
X202499Y57499D02*
X201999Y57999D01*
X201000D01*
X200500Y57499D01*
Y55500D01*
X201000Y55000D01*
X201999D01*
X202499Y55500D01*
X205498Y57999D02*
X203499D01*
Y56499D01*
X204499Y56999D01*
X204998D01*
X205498Y56499D01*
Y55500D01*
X204998Y55000D01*
X203999D01*
X203499Y55500D01*
X206498Y55000D02*
X207498D01*
X206998D01*
Y57999D01*
X206498Y57499D01*
X158001Y34999D02*
X157501Y34499D01*
Y33500D01*
X158001Y33000D01*
X160000D01*
X160500Y33500D01*
Y34499D01*
X160000Y34999D01*
X157501Y37998D02*
Y35999D01*
X159001D01*
X158501Y36999D01*
Y37499D01*
X159001Y37998D01*
X160000D01*
X160500Y37499D01*
Y36499D01*
X160000Y35999D01*
X160500Y40997D02*
Y38998D01*
X158501Y40997D01*
X158001D01*
X157501Y40498D01*
Y39498D01*
X158001Y38998D01*
X225999Y7999D02*
X225500Y8499D01*
X224500D01*
X224000Y7999D01*
Y6000D01*
X224500Y5500D01*
X225500D01*
X225999Y6000D01*
X228998Y8499D02*
X226999D01*
Y7000D01*
X227999Y7499D01*
X228499D01*
X228998Y7000D01*
Y6000D01*
X228499Y5500D01*
X227499D01*
X226999Y6000D01*
X229998Y7999D02*
X230498Y8499D01*
X231498D01*
X231997Y7999D01*
Y7499D01*
X231498Y7000D01*
X230998D01*
X231498D01*
X231997Y6500D01*
Y6000D01*
X231498Y5500D01*
X230498D01*
X229998Y6000D01*
X288999Y180499D02*
X288499Y180999D01*
X287500D01*
X287000Y180499D01*
Y178500D01*
X287500Y178000D01*
X288499D01*
X288999Y178500D01*
X291998Y180999D02*
X289999D01*
Y179499D01*
X290999Y179999D01*
X291498D01*
X291998Y179499D01*
Y178500D01*
X291498Y178000D01*
X290499D01*
X289999Y178500D01*
X294498Y178000D02*
Y180999D01*
X292998Y179499D01*
X294997D01*
X252499Y49999D02*
X251999Y50499D01*
X251000D01*
X250500Y49999D01*
Y48000D01*
X251000Y47500D01*
X251999D01*
X252499Y48000D01*
X255498Y50499D02*
X253499D01*
Y49000D01*
X254499Y49499D01*
X254998D01*
X255498Y49000D01*
Y48000D01*
X254998Y47500D01*
X253999D01*
X253499Y48000D01*
X258497Y50499D02*
X256498D01*
Y49000D01*
X257498Y49499D01*
X257998D01*
X258497Y49000D01*
Y48000D01*
X257998Y47500D01*
X256998D01*
X256498Y48000D01*
X288999Y192499D02*
X288499Y192999D01*
X287500D01*
X287000Y192499D01*
Y190500D01*
X287500Y190000D01*
X288499D01*
X288999Y190500D01*
X291998Y192999D02*
X289999D01*
Y191499D01*
X290999Y191999D01*
X291498D01*
X291998Y191499D01*
Y190500D01*
X291498Y190000D01*
X290499D01*
X289999Y190500D01*
X294997Y192999D02*
X293998Y192499D01*
X292998Y191499D01*
Y190500D01*
X293498Y190000D01*
X294498D01*
X294997Y190500D01*
Y191000D01*
X294498Y191499D01*
X292998D01*
X253499Y68499D02*
X252999Y68999D01*
X252000D01*
X251500Y68499D01*
Y66500D01*
X252000Y66000D01*
X252999D01*
X253499Y66500D01*
X256498Y68999D02*
X254499D01*
Y67500D01*
X255499Y67999D01*
X255998D01*
X256498Y67500D01*
Y66500D01*
X255998Y66000D01*
X254999D01*
X254499Y66500D01*
X257498Y68999D02*
X259497D01*
Y68499D01*
X257498Y66500D01*
Y66000D01*
X122499Y93999D02*
X122000Y94499D01*
X121000D01*
X120500Y93999D01*
Y92000D01*
X121000Y91500D01*
X122000D01*
X122499Y92000D01*
X125498Y94499D02*
X123499D01*
Y93000D01*
X124499Y93499D01*
X124999D01*
X125498Y93000D01*
Y92000D01*
X124999Y91500D01*
X123999D01*
X123499Y92000D01*
X126498Y93999D02*
X126998Y94499D01*
X127998D01*
X128497Y93999D01*
Y93499D01*
X127998Y93000D01*
X128497Y92500D01*
Y92000D01*
X127998Y91500D01*
X126998D01*
X126498Y92000D01*
Y92500D01*
X126998Y93000D01*
X126498Y93499D01*
Y93999D01*
X126998Y93000D02*
X127998D01*
X173001Y110999D02*
X172501Y110500D01*
Y109500D01*
X173001Y109000D01*
X175000D01*
X175500Y109500D01*
Y110500D01*
X175000Y110999D01*
X172501Y113998D02*
Y111999D01*
X174001D01*
X173501Y112999D01*
Y113499D01*
X174001Y113998D01*
X175000D01*
X175500Y113499D01*
Y112499D01*
X175000Y111999D01*
Y114998D02*
X175500Y115498D01*
Y116498D01*
X175000Y116997D01*
X173001D01*
X172501Y116498D01*
Y115498D01*
X173001Y114998D01*
X173501D01*
X174001Y115498D01*
Y116997D01*
X97499Y99999D02*
X97000Y100499D01*
X96000D01*
X95500Y99999D01*
Y98000D01*
X96000Y97500D01*
X97000D01*
X97499Y98000D01*
X100498Y100499D02*
X99499Y99999D01*
X98499Y99000D01*
Y98000D01*
X98999Y97500D01*
X99999D01*
X100498Y98000D01*
Y98500D01*
X99999Y99000D01*
X98499D01*
X101498Y99999D02*
X101998Y100499D01*
X102998D01*
X103497Y99999D01*
Y98000D01*
X102998Y97500D01*
X101998D01*
X101498Y98000D01*
Y99999D01*
X288999Y204499D02*
X288499Y204999D01*
X287500D01*
X287000Y204499D01*
Y202500D01*
X287500Y202000D01*
X288499D01*
X288999Y202500D01*
X291998Y204999D02*
X290999Y204499D01*
X289999Y203500D01*
Y202500D01*
X290499Y202000D01*
X291498D01*
X291998Y202500D01*
Y203000D01*
X291498Y203500D01*
X289999D01*
X292998Y202000D02*
X293998D01*
X293498D01*
Y204999D01*
X292998Y204499D01*
X288999Y200499D02*
X288499Y200999D01*
X287500D01*
X287000Y200499D01*
Y198500D01*
X287500Y198000D01*
X288499D01*
X288999Y198500D01*
X291998Y200999D02*
X290999Y200499D01*
X289999Y199499D01*
Y198500D01*
X290499Y198000D01*
X291498D01*
X291998Y198500D01*
Y199000D01*
X291498Y199499D01*
X289999D01*
X294997Y198000D02*
X292998D01*
X294997Y199999D01*
Y200499D01*
X294498Y200999D01*
X293498D01*
X292998Y200499D01*
X208499Y95499D02*
X207999Y95999D01*
X207000D01*
X206500Y95499D01*
Y93500D01*
X207000Y93000D01*
X207999D01*
X208499Y93500D01*
X211498Y95999D02*
X210499Y95499D01*
X209499Y94499D01*
Y93500D01*
X209999Y93000D01*
X210999D01*
X211498Y93500D01*
Y94000D01*
X210999Y94499D01*
X209499D01*
X212498Y95499D02*
X212998Y95999D01*
X213998D01*
X214497Y95499D01*
Y94999D01*
X213998Y94499D01*
X213498D01*
X213998D01*
X214497Y94000D01*
Y93500D01*
X213998Y93000D01*
X212998D01*
X212498Y93500D01*
X206499Y81499D02*
X205999Y81999D01*
X205000D01*
X204500Y81499D01*
Y79500D01*
X205000Y79000D01*
X205999D01*
X206499Y79500D01*
X209498Y81999D02*
X208499Y81499D01*
X207499Y80500D01*
Y79500D01*
X207999Y79000D01*
X208998D01*
X209498Y79500D01*
Y80000D01*
X208998Y80500D01*
X207499D01*
X211998Y79000D02*
Y81999D01*
X210498Y80500D01*
X212497D01*
X288999Y184499D02*
X288499Y184999D01*
X287500D01*
X287000Y184499D01*
Y182500D01*
X287500Y182000D01*
X288499D01*
X288999Y182500D01*
X291998Y184999D02*
X290999Y184499D01*
X289999Y183500D01*
Y182500D01*
X290499Y182000D01*
X291498D01*
X291998Y182500D01*
Y183000D01*
X291498Y183500D01*
X289999D01*
X294997Y184999D02*
X292998D01*
Y183500D01*
X293998Y183999D01*
X294498D01*
X294997Y183500D01*
Y182500D01*
X294498Y182000D01*
X293498D01*
X292998Y182500D01*
X288999Y188499D02*
X288499Y188999D01*
X287500D01*
X287000Y188499D01*
Y186500D01*
X287500Y186000D01*
X288499D01*
X288999Y186500D01*
X291998Y188999D02*
X290999Y188499D01*
X289999Y187499D01*
Y186500D01*
X290499Y186000D01*
X291498D01*
X291998Y186500D01*
Y187000D01*
X291498Y187499D01*
X289999D01*
X294997Y188999D02*
X293998Y188499D01*
X292998Y187499D01*
Y186500D01*
X293498Y186000D01*
X294498D01*
X294997Y186500D01*
Y187000D01*
X294498Y187499D01*
X292998D01*
X32468Y140968D02*
X31968Y141468D01*
X30968D01*
X30468Y140968D01*
Y138968D01*
X30968Y138469D01*
X31968D01*
X32468Y138968D01*
X35467Y141468D02*
X34467Y140968D01*
X33468Y139968D01*
Y138968D01*
X33967Y138469D01*
X34967D01*
X35467Y138968D01*
Y139468D01*
X34967Y139968D01*
X33468D01*
X36467Y141468D02*
X38466D01*
Y140968D01*
X36467Y138968D01*
Y138469D01*
X32499Y136499D02*
X31999Y136999D01*
X31000D01*
X30500Y136499D01*
Y134500D01*
X31000Y134000D01*
X31999D01*
X32499Y134500D01*
X33499Y136999D02*
X35498D01*
Y136499D01*
X33499Y134500D01*
Y134000D01*
X36498Y136499D02*
X36998Y136999D01*
X37998D01*
X38497Y136499D01*
Y134500D01*
X37998Y134000D01*
X36998D01*
X36498Y134500D01*
Y136499D01*
X80968Y134968D02*
X80468Y135468D01*
X79468D01*
X78969Y134968D01*
Y132968D01*
X79468Y132468D01*
X80468D01*
X80968Y132968D01*
X81968Y135468D02*
X83967D01*
Y134968D01*
X81968Y132968D01*
Y132468D01*
X84967D02*
X85966D01*
X85466D01*
Y135468D01*
X84967Y134968D01*
X57499Y113999D02*
X57000Y114499D01*
X56000D01*
X55500Y113999D01*
Y112000D01*
X56000Y111500D01*
X57000D01*
X57499Y112000D01*
X58499Y114499D02*
X60498D01*
Y113999D01*
X58499Y112000D01*
Y111500D01*
X61498Y113999D02*
X61998Y114499D01*
X62998D01*
X63498Y113999D01*
Y113499D01*
X62998Y113000D01*
X62498D01*
X62998D01*
X63498Y112500D01*
Y112000D01*
X62998Y111500D01*
X61998D01*
X61498Y112000D01*
X23501Y167999D02*
X23001Y167499D01*
Y166500D01*
X23501Y166000D01*
X25500D01*
X26000Y166500D01*
Y167499D01*
X25500Y167999D01*
X23001Y170998D02*
X23501Y169999D01*
X24500Y168999D01*
X25500D01*
X26000Y169499D01*
Y170499D01*
X25500Y170998D01*
X25000D01*
X24500Y170499D01*
Y168999D01*
X23501Y171998D02*
X23001Y172498D01*
Y173498D01*
X23501Y173997D01*
X24001D01*
X24500Y173498D01*
X25000Y173997D01*
X25500D01*
X26000Y173498D01*
Y172498D01*
X25500Y171998D01*
X25000D01*
X24500Y172498D01*
X24001Y171998D01*
X23501D01*
X24500Y172498D02*
Y173498D01*
X63499Y155499D02*
X62999Y155999D01*
X62000D01*
X61500Y155499D01*
Y153500D01*
X62000Y153000D01*
X62999D01*
X63499Y153500D01*
X64499Y155999D02*
X66498D01*
Y155499D01*
X64499Y153500D01*
Y153000D01*
X69497D02*
X67498D01*
X69497Y154999D01*
Y155499D01*
X68998Y155999D01*
X67998D01*
X67498Y155499D01*
X17999Y52999D02*
X17500Y53499D01*
X16500D01*
X16000Y52999D01*
Y51000D01*
X16500Y50500D01*
X17500D01*
X17999Y51000D01*
X18999Y53499D02*
X20998D01*
Y52999D01*
X18999Y51000D01*
Y50500D01*
X21998Y52999D02*
X22498Y53499D01*
X23497D01*
X23997Y52999D01*
Y52499D01*
X23497Y51999D01*
X23997Y51500D01*
Y51000D01*
X23497Y50500D01*
X22498D01*
X21998Y51000D01*
Y51500D01*
X22498Y51999D01*
X21998Y52499D01*
Y52999D01*
X22498Y51999D02*
X23497D01*
X117999Y29999D02*
X117499Y30499D01*
X116500D01*
X116000Y29999D01*
Y28000D01*
X116500Y27500D01*
X117499D01*
X117999Y28000D01*
X118999Y30499D02*
X120998D01*
Y29999D01*
X118999Y28000D01*
Y27500D01*
X121998Y28000D02*
X122498Y27500D01*
X123498D01*
X123997Y28000D01*
Y29999D01*
X123498Y30499D01*
X122498D01*
X121998Y29999D01*
Y29499D01*
X122498Y29000D01*
X123997D01*
X195499Y39999D02*
X195000Y40499D01*
X194000D01*
X193500Y39999D01*
Y38000D01*
X194000Y37500D01*
X195000D01*
X195499Y38000D01*
X196499Y39999D02*
X196999Y40499D01*
X197999D01*
X198498Y39999D01*
Y39499D01*
X197999Y39000D01*
X198498Y38500D01*
Y38000D01*
X197999Y37500D01*
X196999D01*
X196499Y38000D01*
Y38500D01*
X196999Y39000D01*
X196499Y39499D01*
Y39999D01*
X196999Y39000D02*
X197999D01*
X199498Y39999D02*
X199998Y40499D01*
X200998D01*
X201497Y39999D01*
Y38000D01*
X200998Y37500D01*
X199998D01*
X199498Y38000D01*
Y39999D01*
X222999Y53499D02*
X222500Y53999D01*
X221500D01*
X221000Y53499D01*
Y51500D01*
X221500Y51000D01*
X222500D01*
X222999Y51500D01*
X223999Y53499D02*
X224499Y53999D01*
X225499D01*
X225998Y53499D01*
Y52999D01*
X225499Y52500D01*
X225998Y52000D01*
Y51500D01*
X225499Y51000D01*
X224499D01*
X223999Y51500D01*
Y52000D01*
X224499Y52500D01*
X223999Y52999D01*
Y53499D01*
X224499Y52500D02*
X225499D01*
X226998Y51000D02*
X227998D01*
X227498D01*
Y53999D01*
X226998Y53499D01*
X157999Y20499D02*
X157000D01*
X157500D01*
Y18000D01*
X157000Y17500D01*
X156500D01*
X156000Y18000D01*
X158999Y17500D02*
X159999D01*
X159499D01*
Y20499D01*
X158999Y19999D01*
X234000Y101499D02*
Y98500D01*
Y99500D01*
X235999Y101499D01*
X234500Y99999D01*
X235999Y98500D01*
X236999D02*
X237999D01*
X237499D01*
Y101499D01*
X236999Y100999D01*
X233000Y111999D02*
Y109000D01*
Y110000D01*
X234999Y111999D01*
X233500Y110500D01*
X234999Y109000D01*
X237998D02*
X235999D01*
X237998Y110999D01*
Y111499D01*
X237498Y111999D01*
X236499D01*
X235999Y111499D01*
X233000Y121999D02*
Y119000D01*
Y120000D01*
X234999Y121999D01*
X233500Y120500D01*
X234999Y119000D01*
X235999Y121499D02*
X236499Y121999D01*
X237498D01*
X237998Y121499D01*
Y120999D01*
X237498Y120500D01*
X236999D01*
X237498D01*
X237998Y120000D01*
Y119500D01*
X237498Y119000D01*
X236499D01*
X235999Y119500D01*
X138000Y24499D02*
Y21500D01*
X139999D01*
X140999D02*
X141999D01*
X141499D01*
Y24499D01*
X140999Y23999D01*
X202500Y10499D02*
Y7500D01*
X204499D01*
X207498D02*
X205499D01*
X207498Y9499D01*
Y9999D01*
X206998Y10499D01*
X205999D01*
X205499Y9999D01*
X125500Y114499D02*
Y111500D01*
X127499D01*
X130498Y114499D02*
X129499Y113999D01*
X128499Y112999D01*
Y112000D01*
X128999Y111500D01*
X129999D01*
X130498Y112000D01*
Y112500D01*
X129999Y112999D01*
X128499D01*
X225000Y14999D02*
Y12000D01*
X226999D01*
X227999Y14999D02*
X229998D01*
Y14499D01*
X227999Y12500D01*
Y12000D01*
X255000Y56499D02*
Y53500D01*
X256999D01*
X257999Y54000D02*
X258499Y53500D01*
X259499D01*
X259998Y54000D01*
Y55999D01*
X259499Y56499D01*
X258499D01*
X257999Y55999D01*
Y55499D01*
X258499Y55000D01*
X259998D01*
X255000Y62999D02*
Y60000D01*
X256999D01*
X257999D02*
X258999D01*
X258499D01*
Y62999D01*
X257999Y62499D01*
X260498D02*
X260998Y62999D01*
X261998D01*
X262498Y62499D01*
Y60500D01*
X261998Y60000D01*
X260998D01*
X260498Y60500D01*
Y62499D01*
X265500Y75000D02*
Y77999D01*
X267000D01*
X267499Y77499D01*
Y76499D01*
X267000Y76000D01*
X265500D01*
X266500D02*
X267499Y75000D01*
X268499D02*
X269499D01*
X268999D01*
Y77999D01*
X268499Y77499D01*
X265500Y79500D02*
Y82499D01*
X267000D01*
X267499Y81999D01*
Y80999D01*
X267000Y80500D01*
X265500D01*
X266500D02*
X267499Y79500D01*
X270498D02*
X268499D01*
X270498Y81499D01*
Y81999D01*
X269999Y82499D01*
X268999D01*
X268499Y81999D01*
X265500Y84000D02*
Y86999D01*
X267000D01*
X267499Y86499D01*
Y85500D01*
X267000Y85000D01*
X265500D01*
X266500D02*
X267499Y84000D01*
X268499Y86499D02*
X268999Y86999D01*
X269999D01*
X270498Y86499D01*
Y85999D01*
X269999Y85500D01*
X269499D01*
X269999D01*
X270498Y85000D01*
Y84500D01*
X269999Y84000D01*
X268999D01*
X268499Y84500D01*
X156000Y33000D02*
X153001D01*
Y34499D01*
X153501Y34999D01*
X154500D01*
X155000Y34499D01*
Y33000D01*
Y34000D02*
X156000Y34999D01*
Y37499D02*
X153001D01*
X154500Y35999D01*
Y37998D01*
X298000Y179000D02*
Y181999D01*
X299500D01*
X299999Y181499D01*
Y180499D01*
X299500Y180000D01*
X298000D01*
X299000D02*
X299999Y179000D01*
X302998Y181999D02*
X300999D01*
Y180499D01*
X301999Y180999D01*
X302499D01*
X302998Y180499D01*
Y179500D01*
X302499Y179000D01*
X301499D01*
X300999Y179500D01*
X298000Y215000D02*
Y217999D01*
X299500D01*
X299999Y217499D01*
Y216500D01*
X299500Y216000D01*
X298000D01*
X299000D02*
X299999Y215000D01*
X302998Y217999D02*
X301999Y217499D01*
X300999Y216500D01*
Y215500D01*
X301499Y215000D01*
X302499D01*
X302998Y215500D01*
Y216000D01*
X302499Y216500D01*
X300999D01*
X298000Y211000D02*
Y213999D01*
X299500D01*
X299999Y213499D01*
Y212499D01*
X299500Y212000D01*
X298000D01*
X299000D02*
X299999Y211000D01*
X300999Y213999D02*
X302998D01*
Y213499D01*
X300999Y211500D01*
Y211000D01*
X298000Y207000D02*
Y209999D01*
X299500D01*
X299999Y209499D01*
Y208500D01*
X299500Y208000D01*
X298000D01*
X299000D02*
X299999Y207000D01*
X300999Y209499D02*
X301499Y209999D01*
X302499D01*
X302998Y209499D01*
Y208999D01*
X302499Y208500D01*
X302998Y208000D01*
Y207500D01*
X302499Y207000D01*
X301499D01*
X300999Y207500D01*
Y208000D01*
X301499Y208500D01*
X300999Y208999D01*
Y209499D01*
X301499Y208500D02*
X302499D01*
X78000Y97000D02*
Y99999D01*
X79500D01*
X79999Y99499D01*
Y98500D01*
X79500Y98000D01*
X78000D01*
X79000D02*
X79999Y97000D01*
X80999D02*
X81999D01*
X81499D01*
Y99999D01*
X80999Y99499D01*
X85498Y97000D02*
X83498D01*
X85498Y98999D01*
Y99499D01*
X84998Y99999D01*
X83998D01*
X83498Y99499D01*
X211000Y116000D02*
X208001D01*
Y117499D01*
X208501Y117999D01*
X209500D01*
X210000Y117499D01*
Y116000D01*
Y117000D02*
X211000Y117999D01*
Y118999D02*
Y119999D01*
Y119499D01*
X208001D01*
X208501Y118999D01*
Y121498D02*
X208001Y121998D01*
Y122998D01*
X208501Y123497D01*
X209001D01*
X209500Y122998D01*
Y122498D01*
Y122998D01*
X210000Y123497D01*
X210500D01*
X211000Y122998D01*
Y121998D01*
X210500Y121498D01*
X78000Y92500D02*
Y95499D01*
X79500D01*
X79999Y94999D01*
Y94000D01*
X79500Y93500D01*
X78000D01*
X79000D02*
X79999Y92500D01*
X80999D02*
X81999D01*
X81499D01*
Y95499D01*
X80999Y94999D01*
X84998Y92500D02*
Y95499D01*
X83498Y94000D01*
X85498D01*
X207000Y116000D02*
X204001D01*
Y117499D01*
X204501Y117999D01*
X205500D01*
X206000Y117499D01*
Y116000D01*
Y117000D02*
X207000Y117999D01*
Y118999D02*
Y119999D01*
Y119499D01*
X204001D01*
X204501Y118999D01*
X204001Y123497D02*
Y121498D01*
X205500D01*
X205001Y122498D01*
Y122998D01*
X205500Y123497D01*
X206500D01*
X207000Y122998D01*
Y121998D01*
X206500Y121498D01*
X203000Y116000D02*
X200001D01*
Y117499D01*
X200501Y117999D01*
X201501D01*
X202000Y117499D01*
Y116000D01*
Y117000D02*
X203000Y117999D01*
Y118999D02*
Y119999D01*
Y119499D01*
X200001D01*
X200501Y118999D01*
X203000Y121498D02*
Y122498D01*
Y121998D01*
X200001D01*
X200501Y121498D01*
X221000Y135500D02*
X218001D01*
Y136999D01*
X218501Y137499D01*
X219500D01*
X220000Y136999D01*
Y135500D01*
Y136500D02*
X221000Y137499D01*
Y138499D02*
Y139499D01*
Y138999D01*
X218001D01*
X218501Y138499D01*
X218001Y142998D02*
X218501Y141998D01*
X219500Y140998D01*
X220500D01*
X221000Y141498D01*
Y142498D01*
X220500Y142998D01*
X220000D01*
X219500Y142498D01*
Y140998D01*
X217000Y135500D02*
X214001D01*
Y136999D01*
X214501Y137499D01*
X215500D01*
X216000Y136999D01*
Y135500D01*
Y136500D02*
X217000Y137499D01*
Y138499D02*
Y139499D01*
Y138999D01*
X214001D01*
X214501Y138499D01*
X214001Y140998D02*
Y142998D01*
X214501D01*
X216500Y140998D01*
X217000D01*
X132000Y129500D02*
X129001D01*
Y131000D01*
X129501Y131499D01*
X130500D01*
X131000Y131000D01*
Y129500D01*
Y130500D02*
X132000Y131499D01*
Y132499D02*
Y133499D01*
Y132999D01*
X129001D01*
X129501Y132499D01*
Y134998D02*
X129001Y135498D01*
Y136498D01*
X129501Y136997D01*
X130001D01*
X130500Y136498D01*
X131000Y136997D01*
X131500D01*
X132000Y136498D01*
Y135498D01*
X131500Y134998D01*
X131000D01*
X130500Y135498D01*
X130001Y134998D01*
X129501D01*
X130500Y135498D02*
Y136498D01*
X104000Y129500D02*
X101001D01*
Y131000D01*
X101501Y131499D01*
X102500D01*
X103000Y131000D01*
Y129500D01*
Y130500D02*
X104000Y131499D01*
Y132499D02*
Y133499D01*
Y132999D01*
X101001D01*
X101501Y132499D01*
X103500Y134998D02*
X104000Y135498D01*
Y136498D01*
X103500Y136997D01*
X101501D01*
X101001Y136498D01*
Y135498D01*
X101501Y134998D01*
X102001D01*
X102500Y135498D01*
Y136997D01*
X107500Y129500D02*
X104501D01*
Y131000D01*
X105001Y131499D01*
X106000D01*
X106500Y131000D01*
Y129500D01*
Y130500D02*
X107500Y131499D01*
Y134498D02*
Y132499D01*
X105501Y134498D01*
X105001D01*
X104501Y133999D01*
Y132999D01*
X105001Y132499D01*
Y135498D02*
X104501Y135998D01*
Y136997D01*
X105001Y137497D01*
X107000D01*
X107500Y136997D01*
Y135998D01*
X107000Y135498D01*
X105001D01*
X111000Y129500D02*
X108001D01*
Y131000D01*
X108501Y131499D01*
X109500D01*
X110000Y131000D01*
Y129500D01*
Y130500D02*
X111000Y131499D01*
Y134498D02*
Y132499D01*
X109001Y134498D01*
X108501D01*
X108001Y133999D01*
Y132999D01*
X108501Y132499D01*
X111000Y135498D02*
Y136498D01*
Y135998D01*
X108001D01*
X108501Y135498D01*
X114500Y129500D02*
X111501D01*
Y131000D01*
X112001Y131499D01*
X113001D01*
X113500Y131000D01*
Y129500D01*
Y130500D02*
X114500Y131499D01*
Y134498D02*
Y132499D01*
X112501Y134498D01*
X112001D01*
X111501Y133999D01*
Y132999D01*
X112001Y132499D01*
X114500Y137497D02*
Y135498D01*
X112501Y137497D01*
X112001D01*
X111501Y136998D01*
Y135998D01*
X112001Y135498D01*
X118000Y129500D02*
X115001D01*
Y131000D01*
X115501Y131499D01*
X116500D01*
X117000Y131000D01*
Y129500D01*
Y130500D02*
X118000Y131499D01*
Y134498D02*
Y132499D01*
X116001Y134498D01*
X115501D01*
X115001Y133999D01*
Y132999D01*
X115501Y132499D01*
Y135498D02*
X115001Y135998D01*
Y136997D01*
X115501Y137497D01*
X116001D01*
X116500Y136997D01*
Y136498D01*
Y136997D01*
X117000Y137497D01*
X117500D01*
X118000Y136997D01*
Y135998D01*
X117500Y135498D01*
X121500Y129500D02*
X118501D01*
Y131000D01*
X119001Y131499D01*
X120000D01*
X120500Y131000D01*
Y129500D01*
Y130500D02*
X121500Y131499D01*
Y134498D02*
Y132499D01*
X119501Y134498D01*
X119001D01*
X118501Y133999D01*
Y132999D01*
X119001Y132499D01*
X121500Y136997D02*
X118501D01*
X120000Y135498D01*
Y137497D01*
X125000Y129500D02*
X122001D01*
Y131000D01*
X122501Y131499D01*
X123500D01*
X124000Y131000D01*
Y129500D01*
Y130500D02*
X125000Y131499D01*
Y134498D02*
Y132499D01*
X123001Y134498D01*
X122501D01*
X122001Y133999D01*
Y132999D01*
X122501Y132499D01*
X122001Y137497D02*
Y135498D01*
X123500D01*
X123001Y136498D01*
Y136997D01*
X123500Y137497D01*
X124500D01*
X125000Y136997D01*
Y135998D01*
X124500Y135498D01*
X298000Y199000D02*
Y201999D01*
X299500D01*
X299999Y201499D01*
Y200500D01*
X299500Y200000D01*
X298000D01*
X299000D02*
X299999Y199000D01*
X302998D02*
X300999D01*
X302998Y200999D01*
Y201499D01*
X302499Y201999D01*
X301499D01*
X300999Y201499D01*
X305997Y201999D02*
X304998Y201499D01*
X303998Y200500D01*
Y199500D01*
X304498Y199000D01*
X305498D01*
X305997Y199500D01*
Y200000D01*
X305498Y200500D01*
X303998D01*
X298000Y191000D02*
Y193999D01*
X299500D01*
X299999Y193499D01*
Y192499D01*
X299500Y192000D01*
X298000D01*
X299000D02*
X299999Y191000D01*
X302998D02*
X300999D01*
X302998Y192999D01*
Y193499D01*
X302499Y193999D01*
X301499D01*
X300999Y193499D01*
X303998Y193999D02*
X305997D01*
Y193499D01*
X303998Y191500D01*
Y191000D01*
X298000Y183000D02*
Y185999D01*
X299500D01*
X299999Y185499D01*
Y184500D01*
X299500Y184000D01*
X298000D01*
X299000D02*
X299999Y183000D01*
X302998D02*
X300999D01*
X302998Y184999D01*
Y185499D01*
X302499Y185999D01*
X301499D01*
X300999Y185499D01*
X303998D02*
X304498Y185999D01*
X305498D01*
X305997Y185499D01*
Y184999D01*
X305498Y184500D01*
X305997Y184000D01*
Y183500D01*
X305498Y183000D01*
X304498D01*
X303998Y183500D01*
Y184000D01*
X304498Y184500D01*
X303998Y184999D01*
Y185499D01*
X304498Y184500D02*
X305498D01*
X128500Y129500D02*
X125501D01*
Y131000D01*
X126001Y131499D01*
X127000D01*
X127500Y131000D01*
Y129500D01*
Y130500D02*
X128500Y131499D01*
Y134498D02*
Y132499D01*
X126501Y134498D01*
X126001D01*
X125501Y133999D01*
Y132999D01*
X126001Y132499D01*
X128000Y135498D02*
X128500Y135998D01*
Y136998D01*
X128000Y137497D01*
X126001D01*
X125501Y136998D01*
Y135998D01*
X126001Y135498D01*
X126501D01*
X127000Y135998D01*
Y137497D01*
X298000Y203000D02*
Y205999D01*
X299500D01*
X299999Y205499D01*
Y204500D01*
X299500Y204000D01*
X298000D01*
X299000D02*
X299999Y203000D01*
X300999Y205499D02*
X301499Y205999D01*
X302499D01*
X302998Y205499D01*
Y204999D01*
X302499Y204500D01*
X301999D01*
X302499D01*
X302998Y204000D01*
Y203500D01*
X302499Y203000D01*
X301499D01*
X300999Y203500D01*
X303998Y205499D02*
X304498Y205999D01*
X305498D01*
X305997Y205499D01*
Y203500D01*
X305498Y203000D01*
X304498D01*
X303998Y203500D01*
Y205499D01*
X298000Y195000D02*
Y197999D01*
X299500D01*
X299999Y197499D01*
Y196500D01*
X299500Y196000D01*
X298000D01*
X299000D02*
X299999Y195000D01*
X300999Y197499D02*
X301499Y197999D01*
X302499D01*
X302998Y197499D01*
Y196999D01*
X302499Y196500D01*
X301999D01*
X302499D01*
X302998Y196000D01*
Y195500D01*
X302499Y195000D01*
X301499D01*
X300999Y195500D01*
X303998Y195000D02*
X304998D01*
X304498D01*
Y197999D01*
X303998Y197499D01*
X298000Y187000D02*
Y189999D01*
X299500D01*
X299999Y189499D01*
Y188499D01*
X299500Y188000D01*
X298000D01*
X299000D02*
X299999Y187000D01*
X300999Y189499D02*
X301499Y189999D01*
X302499D01*
X302998Y189499D01*
Y188999D01*
X302499Y188499D01*
X301999D01*
X302499D01*
X302998Y188000D01*
Y187500D01*
X302499Y187000D01*
X301499D01*
X300999Y187500D01*
X305997Y187000D02*
X303998D01*
X305997Y188999D01*
Y189499D01*
X305498Y189999D01*
X304498D01*
X303998Y189499D01*
X75000Y7500D02*
Y10499D01*
X76499D01*
X76999Y9999D01*
Y8999D01*
X76499Y8500D01*
X75000D01*
X76000D02*
X76999Y7500D01*
X77999Y9999D02*
X78499Y10499D01*
X79499D01*
X79998Y9999D01*
Y9499D01*
X79499Y8999D01*
X78999D01*
X79499D01*
X79998Y8500D01*
Y8000D01*
X79499Y7500D01*
X78499D01*
X77999Y8000D01*
X80998Y9999D02*
X81498Y10499D01*
X82498D01*
X82997Y9999D01*
Y9499D01*
X82498Y8999D01*
X81998D01*
X82498D01*
X82997Y8500D01*
Y8000D01*
X82498Y7500D01*
X81498D01*
X80998Y8000D01*
X30500Y79000D02*
Y81999D01*
X31999D01*
X32499Y81499D01*
Y80500D01*
X31999Y80000D01*
X30500D01*
X31500D02*
X32499Y79000D01*
X34999D02*
Y81999D01*
X33499Y80500D01*
X35498D01*
X36498Y81999D02*
X38497D01*
Y81499D01*
X36498Y79500D01*
Y79000D01*
X30500Y83500D02*
Y86499D01*
X31999D01*
X32499Y85999D01*
Y85000D01*
X31999Y84500D01*
X30500D01*
X31500D02*
X32499Y83500D01*
X34999D02*
Y86499D01*
X33499Y85000D01*
X35498D01*
X36498Y85999D02*
X36998Y86499D01*
X37998D01*
X38497Y85999D01*
Y85499D01*
X37998Y85000D01*
X38497Y84500D01*
Y84000D01*
X37998Y83500D01*
X36998D01*
X36498Y84000D01*
Y84500D01*
X36998Y85000D01*
X36498Y85499D01*
Y85999D01*
X36998Y85000D02*
X37998D01*
X30500Y87500D02*
Y90499D01*
X31999D01*
X32499Y89999D01*
Y88999D01*
X31999Y88500D01*
X30500D01*
X31500D02*
X32499Y87500D01*
X34999D02*
Y90499D01*
X33499Y88999D01*
X35498D01*
X36498Y88000D02*
X36998Y87500D01*
X37998D01*
X38497Y88000D01*
Y89999D01*
X37998Y90499D01*
X36998D01*
X36498Y89999D01*
Y89499D01*
X36998Y88999D01*
X38497D01*
X79000Y128000D02*
Y130999D01*
X80500D01*
X80999Y130499D01*
Y129499D01*
X80500Y129000D01*
X79000D01*
X80000D02*
X80999Y128000D01*
X83998Y130999D02*
X81999D01*
Y129499D01*
X82999Y129999D01*
X83499D01*
X83998Y129499D01*
Y128500D01*
X83499Y128000D01*
X82499D01*
X81999Y128500D01*
X84998Y130499D02*
X85498Y130999D01*
X86498D01*
X86997Y130499D01*
Y128500D01*
X86498Y128000D01*
X85498D01*
X84998Y128500D01*
Y130499D01*
X76000Y123500D02*
Y126499D01*
X77500D01*
X77999Y125999D01*
Y124999D01*
X77500Y124500D01*
X76000D01*
X77000D02*
X77999Y123500D01*
X80998Y126499D02*
X78999D01*
Y124999D01*
X79999Y125499D01*
X80499D01*
X80998Y124999D01*
Y124000D01*
X80499Y123500D01*
X79499D01*
X78999Y124000D01*
X81998Y125999D02*
X82498Y126499D01*
X83498D01*
X83997Y125999D01*
Y125499D01*
X83498Y124999D01*
X82998D01*
X83498D01*
X83997Y124500D01*
Y124000D01*
X83498Y123500D01*
X82498D01*
X81998Y124000D01*
X76000Y117000D02*
Y119999D01*
X77500D01*
X77999Y119499D01*
Y118500D01*
X77500Y118000D01*
X76000D01*
X77000D02*
X77999Y117000D01*
X80998Y119999D02*
X78999D01*
Y118500D01*
X79999Y118999D01*
X80499D01*
X80998Y118500D01*
Y117500D01*
X80499Y117000D01*
X79499D01*
X78999Y117500D01*
X83997Y119999D02*
X81998D01*
Y118500D01*
X82998Y118999D01*
X83498D01*
X83997Y118500D01*
Y117500D01*
X83498Y117000D01*
X82498D01*
X81998Y117500D01*
X90500Y175000D02*
Y177999D01*
X92000D01*
X92499Y177499D01*
Y176499D01*
X92000Y176000D01*
X90500D01*
X91500D02*
X92499Y175000D01*
X95498Y177999D02*
X93499D01*
Y176499D01*
X94499Y176999D01*
X94999D01*
X95498Y176499D01*
Y175500D01*
X94999Y175000D01*
X93999D01*
X93499Y175500D01*
X96498Y175000D02*
X97498D01*
X96998D01*
Y177999D01*
X96498Y177499D01*
X90500Y169500D02*
Y172499D01*
X92000D01*
X92499Y171999D01*
Y171000D01*
X92000Y170500D01*
X90500D01*
X91500D02*
X92499Y169500D01*
X95498Y172499D02*
X93499D01*
Y171000D01*
X94499Y171499D01*
X94999D01*
X95498Y171000D01*
Y170000D01*
X94999Y169500D01*
X93999D01*
X93499Y170000D01*
X98497Y169500D02*
X96498D01*
X98497Y171499D01*
Y171999D01*
X97998Y172499D01*
X96998D01*
X96498Y171999D01*
X90500Y164000D02*
Y166999D01*
X92000D01*
X92499Y166499D01*
Y165499D01*
X92000Y165000D01*
X90500D01*
X91500D02*
X92499Y164000D01*
X95498Y166999D02*
X93499D01*
Y165499D01*
X94499Y165999D01*
X94999D01*
X95498Y165499D01*
Y164500D01*
X94999Y164000D01*
X93999D01*
X93499Y164500D01*
X97998Y164000D02*
Y166999D01*
X96498Y165499D01*
X98497D01*
X16000Y46000D02*
Y48999D01*
X17500D01*
X17999Y48499D01*
Y47499D01*
X17500Y47000D01*
X16000D01*
X17000D02*
X17999Y46000D01*
X20998Y48999D02*
X18999D01*
Y47499D01*
X19999Y47999D01*
X20499D01*
X20998Y47499D01*
Y46500D01*
X20499Y46000D01*
X19499D01*
X18999Y46500D01*
X21998Y48499D02*
X22498Y48999D01*
X23498D01*
X23997Y48499D01*
Y47999D01*
X23498Y47499D01*
X23997Y47000D01*
Y46500D01*
X23498Y46000D01*
X22498D01*
X21998Y46500D01*
Y47000D01*
X22498Y47499D01*
X21998Y47999D01*
Y48499D01*
X22498Y47499D02*
X23498D01*
X119500Y55000D02*
X116501D01*
Y56499D01*
X117001Y56999D01*
X118000D01*
X118500Y56499D01*
Y55000D01*
Y56000D02*
X119500Y56999D01*
X116501Y59998D02*
Y57999D01*
X118000D01*
X117501Y58999D01*
Y59499D01*
X118000Y59998D01*
X119000D01*
X119500Y59499D01*
Y58499D01*
X119000Y57999D01*
Y60998D02*
X119500Y61498D01*
Y62498D01*
X119000Y62997D01*
X117001D01*
X116501Y62498D01*
Y61498D01*
X117001Y60998D01*
X117501D01*
X118000Y61498D01*
Y62997D01*
X287499Y92999D02*
X287000Y93499D01*
X286000D01*
X285500Y92999D01*
Y92499D01*
X286000Y92000D01*
X287000D01*
X287499Y91500D01*
Y91000D01*
X287000Y90500D01*
X286000D01*
X285500Y91000D01*
X288499Y93499D02*
Y90500D01*
X289499Y91500D01*
X290498Y90500D01*
Y93499D01*
X291498Y90500D02*
X292498D01*
X291998D01*
Y93499D01*
X291498Y92999D01*
X44001Y19999D02*
X43501Y19500D01*
Y18500D01*
X44001Y18000D01*
X44501D01*
X45000Y18500D01*
Y19500D01*
X45500Y19999D01*
X46000D01*
X46500Y19500D01*
Y18500D01*
X46000Y18000D01*
X43501Y20999D02*
X46500D01*
X45500Y21999D01*
X46500Y22998D01*
X43501D01*
X44001Y23998D02*
X43501Y24498D01*
Y25498D01*
X44001Y25997D01*
X44501D01*
X45000Y25498D01*
Y24998D01*
Y25498D01*
X45500Y25997D01*
X46000D01*
X46500Y25498D01*
Y24498D01*
X46000Y23998D01*
X4499Y44999D02*
X4000Y45499D01*
X3000D01*
X2500Y44999D01*
Y44499D01*
X3000Y44000D01*
X4000D01*
X4499Y43500D01*
Y43000D01*
X4000Y42500D01*
X3000D01*
X2500Y43000D01*
X5499Y45499D02*
Y42500D01*
X6499Y43500D01*
X7498Y42500D01*
Y45499D01*
X9998Y42500D02*
Y45499D01*
X8498Y44000D01*
X10498D01*
X174500Y27499D02*
Y25000D01*
X175000Y24500D01*
X175999D01*
X176499Y25000D01*
Y27499D01*
X177499Y24500D02*
X178499D01*
X177999D01*
Y27499D01*
X177499Y26999D01*
X75500Y31499D02*
Y29000D01*
X76000Y28500D01*
X77000D01*
X77499Y29000D01*
Y31499D01*
X78499Y30999D02*
X78999Y31499D01*
X79999D01*
X80498Y30999D01*
Y30499D01*
X79999Y30000D01*
X79499D01*
X79999D01*
X80498Y29500D01*
Y29000D01*
X79999Y28500D01*
X78999D01*
X78499Y29000D01*
X67500Y49999D02*
Y47500D01*
X68000Y47000D01*
X68999D01*
X69499Y47500D01*
Y49999D01*
X72498D02*
X70499D01*
Y48500D01*
X71499Y48999D01*
X71999D01*
X72498Y48500D01*
Y47500D01*
X71999Y47000D01*
X70999D01*
X70499Y47500D01*
X35500Y117999D02*
Y115500D01*
X36000Y115000D01*
X36999D01*
X37499Y115500D01*
Y117999D01*
X40498D02*
X39499Y117499D01*
X38499Y116499D01*
Y115500D01*
X38999Y115000D01*
X39999D01*
X40498Y115500D01*
Y116000D01*
X39999Y116499D01*
X38499D01*
X47000Y183999D02*
Y181500D01*
X47500Y181000D01*
X48500D01*
X48999Y181500D01*
Y183999D01*
X49999D02*
X51998D01*
Y183499D01*
X49999Y181500D01*
Y181000D01*
X224500Y40999D02*
Y39500D01*
X225000Y39000D01*
X226499D01*
Y40999D01*
X227499Y39500D02*
X227999Y39000D01*
X228998D01*
X229498Y39500D01*
Y41499D01*
X228998Y41999D01*
X227999D01*
X227499Y41499D01*
Y40999D01*
X227999Y40499D01*
X229498D01*
X146500Y109999D02*
Y107500D01*
X147000Y107000D01*
X148000D01*
X148499Y107500D01*
Y109999D01*
X151498Y107000D02*
X149499D01*
X151498Y108999D01*
Y109499D01*
X150999Y109999D01*
X149999D01*
X149499Y109499D01*
X274000Y114500D02*
X271001D01*
Y115999D01*
X271501Y116499D01*
X272500D01*
X273000Y115999D01*
Y114500D01*
Y115500D02*
X274000Y116499D01*
X271001Y119498D02*
X271501Y118499D01*
X272500Y117499D01*
X273500D01*
X274000Y117999D01*
Y118999D01*
X273500Y119498D01*
X273000D01*
X272500Y118999D01*
Y117499D01*
X271501Y120498D02*
X271001Y120998D01*
Y121998D01*
X271501Y122497D01*
X273500D01*
X274000Y121998D01*
Y120998D01*
X273500Y120498D01*
X271501D01*
X274000Y136000D02*
X271001D01*
Y137499D01*
X271501Y137999D01*
X272500D01*
X273000Y137499D01*
Y136000D01*
Y137000D02*
X274000Y137999D01*
X271001Y140998D02*
X271501Y139999D01*
X272500Y138999D01*
X273500D01*
X274000Y139499D01*
Y140499D01*
X273500Y140998D01*
X273000D01*
X272500Y140499D01*
Y138999D01*
X274000Y141998D02*
Y142998D01*
Y142498D01*
X271001D01*
X271501Y141998D01*
X264500Y144500D02*
X261501D01*
Y146000D01*
X262001Y146499D01*
X263000D01*
X263500Y146000D01*
Y144500D01*
Y145500D02*
X264500Y146499D01*
X261501Y149498D02*
X262001Y148499D01*
X263000Y147499D01*
X264000D01*
X264500Y147999D01*
Y148999D01*
X264000Y149498D01*
X263500D01*
X263000Y148999D01*
Y147499D01*
X261501Y152497D02*
X262001Y151498D01*
X263000Y150498D01*
X264000D01*
X264500Y150998D01*
Y151998D01*
X264000Y152497D01*
X263500D01*
X263000Y151998D01*
Y150498D01*
X303001Y125000D02*
X305500D01*
X306000Y125500D01*
Y126499D01*
X305500Y126999D01*
X303001D01*
X306000Y127999D02*
Y128999D01*
Y128499D01*
X303001D01*
X303501Y127999D01*
X306000Y130498D02*
Y131498D01*
Y130998D01*
X303001D01*
X303501Y130498D01*
X302501Y145000D02*
X305000D01*
X305500Y145500D01*
Y146500D01*
X305000Y146999D01*
X302501D01*
X305500Y147999D02*
Y148999D01*
Y148499D01*
X302501D01*
X303001Y147999D01*
X305500Y152498D02*
Y150498D01*
X303501Y152498D01*
X303001D01*
X302501Y151998D01*
Y150998D01*
X303001Y150498D01*
X278000Y141499D02*
Y139000D01*
X278500Y138500D01*
X279500D01*
X279999Y139000D01*
Y141499D01*
X280999Y138500D02*
X281999D01*
X281499D01*
Y141499D01*
X280999Y140999D01*
X285498Y141499D02*
X284498Y140999D01*
X283498Y139999D01*
Y139000D01*
X283998Y138500D01*
X284998D01*
X285498Y139000D01*
Y139500D01*
X284998Y139999D01*
X283498D01*
X278000Y97999D02*
Y95500D01*
X278500Y95000D01*
X279500D01*
X279999Y95500D01*
Y97999D01*
X280999Y95000D02*
X281999D01*
X281499D01*
Y97999D01*
X280999Y97499D01*
X283498D02*
X283998Y97999D01*
X284998D01*
X285498Y97499D01*
Y96999D01*
X284998Y96500D01*
X285498Y96000D01*
Y95500D01*
X284998Y95000D01*
X283998D01*
X283498Y95500D01*
Y96000D01*
X283998Y96500D01*
X283498Y96999D01*
Y97499D01*
X283998Y96500D02*
X284998D01*
X233499Y169999D02*
X232500D01*
X232999D01*
Y167500D01*
X232500Y167000D01*
X232000D01*
X231500Y167500D01*
X234499Y169999D02*
X236498D01*
Y169499D01*
X234499Y167500D01*
Y167000D01*
X266249Y163999D02*
X265250D01*
X265750D01*
Y161500D01*
X265250Y161000D01*
X264750D01*
X264250Y161500D01*
X267249Y163499D02*
X267749Y163999D01*
X268748D01*
X269248Y163499D01*
Y162999D01*
X268748Y162499D01*
X269248Y162000D01*
Y161500D01*
X268748Y161000D01*
X267749D01*
X267249Y161500D01*
Y162000D01*
X267749Y162499D01*
X267249Y162999D01*
Y163499D01*
X267749Y162499D02*
X268748D01*
X251000Y141999D02*
X252999D01*
X252000D01*
Y139000D01*
X253999D02*
Y141999D01*
X255499D01*
X255998Y141499D01*
Y140499D01*
X255499Y140000D01*
X253999D01*
X256998Y141499D02*
X257498Y141999D01*
X258498D01*
X258997Y141499D01*
Y140999D01*
X258498Y140499D01*
X257998D01*
X258498D01*
X258997Y140000D01*
Y139500D01*
X258498Y139000D01*
X257498D01*
X256998Y139500D01*
X241500Y141999D02*
X243499D01*
X242500D01*
Y139000D01*
X244499D02*
Y141999D01*
X245999D01*
X246498Y141499D01*
Y140499D01*
X245999Y140000D01*
X244499D01*
X248998Y139000D02*
Y141999D01*
X247498Y140499D01*
X249497D01*
X213000Y159000D02*
Y161999D01*
X214499D01*
X214999Y161499D01*
Y160500D01*
X214499Y160000D01*
X213000D01*
X214000D02*
X214999Y159000D01*
X215999Y161499D02*
X216499Y161999D01*
X217498D01*
X217998Y161499D01*
Y160999D01*
X217498Y160500D01*
X216999D01*
X217498D01*
X217998Y160000D01*
Y159500D01*
X217498Y159000D01*
X216499D01*
X215999Y159500D01*
X220997Y161999D02*
X219998Y161499D01*
X218998Y160500D01*
Y159500D01*
X219498Y159000D01*
X220498D01*
X220997Y159500D01*
Y160000D01*
X220498Y160500D01*
X218998D01*
X293500Y97499D02*
Y95500D01*
X294500Y94500D01*
X295499Y95500D01*
Y97499D01*
X296499Y96999D02*
X296999Y97499D01*
X297998D01*
X298498Y96999D01*
Y96499D01*
X297998Y95999D01*
X297499D01*
X297998D01*
X298498Y95500D01*
Y95000D01*
X297998Y94500D01*
X296999D01*
X296499Y95000D01*
X299498Y94500D02*
Y97499D01*
X300998D01*
X301497Y96999D01*
Y95999D01*
X300998Y95500D01*
X299498D01*
X302497Y96999D02*
X302997Y97499D01*
X303997D01*
X304496Y96999D01*
Y96499D01*
X303997Y95999D01*
X303497D01*
X303997D01*
X304496Y95500D01*
Y95000D01*
X303997Y94500D01*
X302997D01*
X302497Y95000D01*
X293500Y140999D02*
Y138000D01*
X295499D01*
X297998Y140999D02*
X296999D01*
X296499Y140499D01*
Y138500D01*
X296999Y138000D01*
X297998D01*
X298498Y138500D01*
Y140499D01*
X297998Y140999D01*
X301497Y140499D02*
X300998Y140999D01*
X299998D01*
X299498Y140499D01*
Y138500D01*
X299998Y138000D01*
X300998D01*
X301497Y138500D01*
X302497Y140999D02*
Y138000D01*
Y139000D01*
X304496Y140999D01*
X302997Y139499D01*
X304496Y138000D01*
X277499Y179999D02*
X276500D01*
X276999D01*
Y177500D01*
X276500Y177000D01*
X276000D01*
X275500Y177500D01*
X278499D02*
X278999Y177000D01*
X279998D01*
X280498Y177500D01*
Y179499D01*
X279998Y179999D01*
X278999D01*
X278499Y179499D01*
Y178999D01*
X278999Y178499D01*
X280498D01*
X292500Y119499D02*
Y117500D01*
X293500Y116500D01*
X294499Y117500D01*
Y119499D01*
X295499Y116500D02*
X296499D01*
X295999D01*
Y119499D01*
X295499Y118999D01*
X299998Y116500D02*
X297998D01*
X299998Y118499D01*
Y118999D01*
X299498Y119499D01*
X298498D01*
X297998Y118999D01*
X300997Y116500D02*
Y119499D01*
X302497D01*
X302997Y118999D01*
Y117999D01*
X302497Y117500D01*
X300997D01*
X303996Y118999D02*
X304496Y119499D01*
X305496D01*
X305996Y118999D01*
Y117000D01*
X305496Y116500D01*
X304496D01*
X303996Y117000D01*
Y118999D01*
X94500Y194499D02*
Y191500D01*
X95999D01*
X96499Y192000D01*
Y192500D01*
X95999Y192999D01*
X94500D01*
X95999D01*
X96499Y193499D01*
Y193999D01*
X95999Y194499D01*
X94500D01*
X97499D02*
X98499D01*
X97999D01*
Y191500D01*
X97499D01*
X98499D01*
X101998Y193999D02*
X101498Y194499D01*
X100498D01*
X99998Y193999D01*
Y193499D01*
X100498Y192999D01*
X101498D01*
X101998Y192500D01*
Y192000D01*
X101498Y191500D01*
X100498D01*
X99998Y192000D01*
X102997Y194499D02*
X104997D01*
X103997D01*
Y191500D01*
X107996Y194499D02*
X105996D01*
Y191500D01*
X107996D01*
X105996Y192999D02*
X106996D01*
X108995Y191500D02*
Y194499D01*
X110995Y191500D01*
Y194499D01*
X95999Y198999D02*
X95000D01*
X94500Y198499D01*
Y196500D01*
X95000Y196000D01*
X95999D01*
X96499Y196500D01*
Y198499D01*
X95999Y198999D01*
X99498D02*
X97499D01*
Y196000D01*
X99498D01*
X97499Y197500D02*
X98499D01*
X100498Y196000D02*
Y198999D01*
X102497Y196000D01*
Y198999D01*
X95999Y203499D02*
X95000D01*
X94500Y202999D01*
Y201000D01*
X95000Y200500D01*
X95999D01*
X96499Y201000D01*
Y202999D01*
X95999Y203499D01*
X99498Y202999D02*
X98999Y203499D01*
X97999D01*
X97499Y202999D01*
Y202499D01*
X97999Y201999D01*
X98999D01*
X99498Y201500D01*
Y201000D01*
X98999Y200500D01*
X97999D01*
X97499Y201000D01*
X102497Y202999D02*
X101998Y203499D01*
X100998D01*
X100498Y202999D01*
Y202499D01*
X100998Y201999D01*
X101998D01*
X102497Y201500D01*
Y201000D01*
X101998Y200500D01*
X100998D01*
X100498Y201000D01*
X103497Y200000D02*
X105496D01*
X108495Y202999D02*
X107996Y203499D01*
X106996D01*
X106496Y202999D01*
Y202499D01*
X106996Y201999D01*
X107996D01*
X108495Y201500D01*
Y201000D01*
X107996Y200500D01*
X106996D01*
X106496Y201000D01*
X111495Y203499D02*
X109495D01*
Y200500D01*
X111495D01*
X109495Y201999D02*
X110495D01*
X112494Y203499D02*
Y200500D01*
X114494D01*
X96499Y207499D02*
X95999Y207999D01*
X95000D01*
X94500Y207499D01*
Y206999D01*
X95000Y206500D01*
X95999D01*
X96499Y206000D01*
Y205500D01*
X95999Y205000D01*
X95000D01*
X94500Y205500D01*
X99498Y207999D02*
X97499D01*
Y205000D01*
X99498D01*
X97499Y206500D02*
X98499D01*
X100498Y207999D02*
Y205000D01*
X102497D01*
X305500Y222499D02*
Y219500D01*
X306999D01*
X307499Y220000D01*
Y221999D01*
X306999Y222499D01*
X305500D01*
X226500Y118499D02*
Y115500D01*
X227999D01*
X228499Y116000D01*
Y117999D01*
X227999Y118499D01*
X226500D01*
X198999Y107999D02*
X198500Y108499D01*
X197500D01*
X197000Y107999D01*
Y106000D01*
X197500Y105500D01*
X198500D01*
X198999Y106000D01*
X282999Y186499D02*
X282500Y186999D01*
X281500D01*
X281000Y186499D01*
Y184500D01*
X281500Y184000D01*
X282500D01*
X282999Y184500D01*
X186500Y212999D02*
Y210000D01*
X187999D01*
X188499Y210500D01*
Y211000D01*
X187999Y211500D01*
X186500D01*
X187999D01*
X188499Y211999D01*
Y212499D01*
X187999Y212999D01*
X186500D01*
X276000Y216999D02*
Y214000D01*
X277500D01*
X277999Y214500D01*
Y215000D01*
X277500Y215499D01*
X276000D01*
X277500D01*
X277999Y215999D01*
Y216499D01*
X277500Y216999D01*
X276000D01*
X266000Y214000D02*
Y215999D01*
X267000Y216999D01*
X267999Y215999D01*
Y214000D01*
Y215499D01*
X266000D01*
X131890Y205709D02*
Y207708D01*
X132889Y208708D01*
X133889Y207708D01*
Y205709D01*
Y207208D01*
X131890D01*
X226999Y163499D02*
X226500Y163999D01*
X225500D01*
X225000Y163499D01*
Y161500D01*
X225500Y161000D01*
X226500D01*
X226999Y161500D01*
Y162499D01*
X226000D01*
X227999Y161000D02*
Y163999D01*
X229499D01*
X229998Y163499D01*
Y162499D01*
X229499Y162000D01*
X227999D01*
X230998Y163999D02*
X231998D01*
X231498D01*
Y161000D01*
X230998D01*
X231998D01*
X234997Y163999D02*
X233997D01*
X233497Y163499D01*
Y161500D01*
X233997Y161000D01*
X234997D01*
X235497Y161500D01*
Y163499D01*
X234997Y163999D01*
X236496Y163499D02*
X236996Y163999D01*
X237996D01*
X238496Y163499D01*
Y161500D01*
X237996Y161000D01*
X236996D01*
X236496Y161500D01*
Y163499D01*
X226999Y159499D02*
X226500Y159999D01*
X225500D01*
X225000Y159499D01*
Y157500D01*
X225500Y157000D01*
X226500D01*
X226999Y157500D01*
Y158500D01*
X226000D01*
X227999Y157000D02*
Y159999D01*
X229499D01*
X229998Y159499D01*
Y158500D01*
X229499Y158000D01*
X227999D01*
X230998Y159999D02*
X231998D01*
X231498D01*
Y157000D01*
X230998D01*
X231998D01*
X234997Y159999D02*
X233997D01*
X233497Y159499D01*
Y157500D01*
X233997Y157000D01*
X234997D01*
X235497Y157500D01*
Y159499D01*
X234997Y159999D01*
X236496Y157000D02*
X237496D01*
X236996D01*
Y159999D01*
X236496Y159499D01*
X226999Y154999D02*
X226500Y155499D01*
X225500D01*
X225000Y154999D01*
Y153000D01*
X225500Y152500D01*
X226500D01*
X226999Y153000D01*
Y153999D01*
X226000D01*
X227999Y152500D02*
Y155499D01*
X229499D01*
X229998Y154999D01*
Y153999D01*
X229499Y153500D01*
X227999D01*
X230998Y155499D02*
X231998D01*
X231498D01*
Y152500D01*
X230998D01*
X231998D01*
X234997Y155499D02*
X233997D01*
X233497Y154999D01*
Y153000D01*
X233997Y152500D01*
X234997D01*
X235497Y153000D01*
Y154999D01*
X234997Y155499D01*
X238496Y152500D02*
X236496D01*
X238496Y154499D01*
Y154999D01*
X237996Y155499D01*
X236996D01*
X236496Y154999D01*
X226999Y150999D02*
X226500Y151499D01*
X225500D01*
X225000Y150999D01*
Y149000D01*
X225500Y148500D01*
X226500D01*
X226999Y149000D01*
Y149999D01*
X226000D01*
X227999Y148500D02*
Y151499D01*
X229499D01*
X229998Y150999D01*
Y149999D01*
X229499Y149500D01*
X227999D01*
X230998Y151499D02*
X231998D01*
X231498D01*
Y148500D01*
X230998D01*
X231998D01*
X234997Y151499D02*
X233997D01*
X233497Y150999D01*
Y149000D01*
X233997Y148500D01*
X234997D01*
X235497Y149000D01*
Y150999D01*
X234997Y151499D01*
X236496Y150999D02*
X236996Y151499D01*
X237996D01*
X238496Y150999D01*
Y150499D01*
X237996Y149999D01*
X237496D01*
X237996D01*
X238496Y149500D01*
Y149000D01*
X237996Y148500D01*
X236996D01*
X236496Y149000D01*
X262000Y180000D02*
Y182999D01*
X263000Y181999D01*
X263999Y182999D01*
Y180000D01*
X266498Y182999D02*
X265499D01*
X264999Y182499D01*
Y180500D01*
X265499Y180000D01*
X266498D01*
X266998Y180500D01*
Y182499D01*
X266498Y182999D01*
X269997Y182499D02*
X269498Y182999D01*
X268498D01*
X267998Y182499D01*
Y181999D01*
X268498Y181500D01*
X269498D01*
X269997Y181000D01*
Y180500D01*
X269498Y180000D01*
X268498D01*
X267998Y180500D01*
X270997Y182999D02*
X271997D01*
X271497D01*
Y180000D01*
X270997D01*
X271997D01*
X263999Y178499D02*
X263499Y178999D01*
X262500D01*
X262000Y178499D01*
Y177999D01*
X262500Y177499D01*
X263499D01*
X263999Y177000D01*
Y176500D01*
X263499Y176000D01*
X262500D01*
X262000Y176500D01*
X266998Y178499D02*
X266498Y178999D01*
X265499D01*
X264999Y178499D01*
Y176500D01*
X265499Y176000D01*
X266498D01*
X266998Y176500D01*
X267998Y178999D02*
Y176000D01*
Y177000D01*
X269997Y178999D01*
X268498Y177499D01*
X269997Y176000D01*
X262000Y172000D02*
Y174999D01*
X263000Y173999D01*
X263999Y174999D01*
Y172000D01*
X264999Y174999D02*
X265999D01*
X265499D01*
Y172000D01*
X264999D01*
X265999D01*
X269498Y174499D02*
X268998Y174999D01*
X267998D01*
X267498Y174499D01*
Y173999D01*
X267998Y173500D01*
X268998D01*
X269498Y173000D01*
Y172500D01*
X268998Y172000D01*
X267998D01*
X267498Y172500D01*
X271997Y174999D02*
X270997D01*
X270497Y174499D01*
Y172500D01*
X270997Y172000D01*
X271997D01*
X272497Y172500D01*
Y174499D01*
X271997Y174999D01*
X263999Y170499D02*
X263499Y170999D01*
X262500D01*
X262000Y170499D01*
Y169999D01*
X262500Y169500D01*
X263499D01*
X263999Y169000D01*
Y168500D01*
X263499Y168000D01*
X262500D01*
X262000Y168500D01*
X266998Y170499D02*
X266498Y170999D01*
X265499D01*
X264999Y170499D01*
Y169999D01*
X265499Y169500D01*
X266498D01*
X266998Y169000D01*
Y168500D01*
X266498Y168000D01*
X265499D01*
X264999Y168500D01*
X267998Y168000D02*
Y170999D01*
X269997Y168000D01*
Y170999D01*
X299500Y68499D02*
X300000Y68999D01*
X300999D01*
X301499Y68499D01*
Y66500D01*
X300999Y66000D01*
X300000D01*
X299500Y66500D01*
Y68499D01*
X277500Y66000D02*
X278500D01*
X278000D01*
Y68999D01*
X277500Y68499D01*
X70000Y13500D02*
X71000D01*
X70500D01*
Y16499D01*
X70000Y15999D01*
Y30999D02*
X70500Y31499D01*
X71500D01*
X71999Y30999D01*
Y29000D01*
X71500Y28500D01*
X70500D01*
X70000Y29000D01*
Y30999D01*
X78500Y152999D02*
Y151000D01*
X79500Y150000D01*
X80499Y151000D01*
Y152999D01*
X81499Y150000D02*
X82499D01*
X81999D01*
Y152999D01*
X81499Y152499D01*
X83998Y150000D02*
Y152999D01*
X85498D01*
X85998Y152499D01*
Y151499D01*
X85498Y151000D01*
X83998D01*
X88997Y150000D02*
X86997D01*
X88997Y151999D01*
Y152499D01*
X88497Y152999D01*
X87497D01*
X86997Y152499D01*
X84500Y113999D02*
Y112000D01*
X85500Y111000D01*
X86499Y112000D01*
Y113999D01*
X87499Y113499D02*
X87999Y113999D01*
X88999D01*
X89498Y113499D01*
Y112999D01*
X88999Y112499D01*
X88499D01*
X88999D01*
X89498Y112000D01*
Y111500D01*
X88999Y111000D01*
X87999D01*
X87499Y111500D01*
X90498Y111000D02*
Y113999D01*
X91998D01*
X92497Y113499D01*
Y112499D01*
X91998Y112000D01*
X90498D01*
X93497Y113499D02*
X93997Y113999D01*
X94997D01*
X95496Y113499D01*
Y112999D01*
X94997Y112499D01*
X94497D01*
X94997D01*
X95496Y112000D01*
Y111500D01*
X94997Y111000D01*
X93997D01*
X93497Y111500D01*
X111000Y187999D02*
X111500Y188499D01*
X112499D01*
X112999Y187999D01*
Y186000D01*
X112499Y185500D01*
X111500D01*
X111000Y186000D01*
Y187999D01*
X131500Y185500D02*
X132500D01*
X132000D01*
Y188499D01*
X131500Y187999D01*
X278499Y163999D02*
X277500D01*
X277999D01*
Y161500D01*
X277500Y161000D01*
X277000D01*
X276500Y161500D01*
X279499Y161000D02*
Y162999D01*
X280499Y163999D01*
X281498Y162999D01*
Y161000D01*
Y162499D01*
X279499D01*
X284497Y163499D02*
X283998Y163999D01*
X282998D01*
X282498Y163499D01*
Y161500D01*
X282998Y161000D01*
X283998D01*
X284497Y161500D01*
X285497Y163999D02*
Y161000D01*
Y162000D01*
X287496Y163999D01*
X285997Y162499D01*
X287496Y161000D01*
X299500Y163999D02*
Y161500D01*
X300000Y161000D01*
X300999D01*
X301499Y161500D01*
Y163999D01*
X304498Y163499D02*
X303998Y163999D01*
X302999D01*
X302499Y163499D01*
Y162999D01*
X302999Y162499D01*
X303998D01*
X304498Y162000D01*
Y161500D01*
X303998Y161000D01*
X302999D01*
X302499Y161500D01*
X305498Y163999D02*
Y161000D01*
X306998D01*
X307497Y161500D01*
Y162000D01*
X306998Y162499D01*
X305498D01*
X306998D01*
X307497Y162999D01*
Y163499D01*
X306998Y163999D01*
X305498D01*
X289999Y159499D02*
X289499Y159999D01*
X288500D01*
X288000Y159499D01*
Y157500D01*
X288500Y157000D01*
X289499D01*
X289999Y157500D01*
X292498Y159999D02*
X291499D01*
X290999Y159499D01*
Y157500D01*
X291499Y157000D01*
X292498D01*
X292998Y157500D01*
Y159499D01*
X292498Y159999D01*
X293998Y157000D02*
Y158999D01*
X294998Y159999D01*
X295997Y158999D01*
Y157000D01*
Y158500D01*
X293998D01*
X296997Y159999D02*
X298996Y157000D01*
Y159999D02*
X296997Y157000D01*
D51*
X129914Y166500D02*
G03*
X129914Y166500I-1414J0D01*
G01*
X296207Y142500D02*
G03*
X296207Y142500I-707J0D01*
G01*
X296707Y122000D02*
G03*
X296707Y122000I-707J0D01*
G01*
X168500Y28000D02*
G03*
X168500Y28000I-500J0D01*
G01*
X52414Y16000D02*
G03*
X52414Y16000I-1414J0D01*
G01*
X283914Y86500D02*
G03*
X283914Y86500I-1414J0D01*
G01*
X296707Y99500D02*
G03*
X296707Y99500I-707J0D01*
G01*
X102000Y165500D02*
X104000Y163500D01*
X102000Y165500D02*
Y187500D01*
X100000Y189500D02*
X102000Y187500D01*
X94000Y189500D02*
X100000D01*
X59500Y3500D02*
X67500D01*
X49500Y41500D02*
X57500D01*
X240000Y177000D02*
Y178500D01*
X280500Y222000D02*
X301000D01*
X279500Y221000D02*
X280500Y222000D01*
X290500Y176000D02*
X308000D01*
Y215000D01*
X134000Y129000D02*
X135300Y127700D01*
X94000D02*
X135300D01*
X296000Y145000D02*
Y154000D01*
X301000D01*
Y143000D02*
Y154000D01*
X296000Y143000D02*
Y145000D01*
Y143000D02*
X301000D01*
X296500Y124500D02*
Y133500D01*
X301500D01*
Y122500D02*
Y133500D01*
X296500Y122500D02*
Y124500D01*
Y122500D02*
X301500D01*
X167100Y29300D02*
X178100D01*
Y37800D01*
X167100Y29300D02*
Y37800D01*
X178100D01*
X3000Y5500D02*
Y40500D01*
X38000Y5500D02*
Y40500D01*
X3000Y5500D02*
X38000D01*
X3000Y40500D02*
X38000D01*
X11500Y15000D02*
Y31000D01*
X29500Y15000D02*
Y31000D01*
X23500Y23000D02*
X29500D01*
X11500D02*
X17500D01*
X21500Y27000D01*
X130450Y275D02*
X181450D01*
X152950Y15775D02*
X164950D01*
X181950Y10275D02*
Y15775D01*
X179450D02*
X181950D01*
X130450Y10275D02*
Y15775D01*
X138450D01*
X296500Y100000D02*
X301500D01*
X296500D02*
Y102000D01*
X301500Y100000D02*
Y111000D01*
X296500D02*
X301500D01*
X296500Y102000D02*
Y111000D01*
X-1000Y190000D02*
Y257500D01*
X34000D01*
Y190000D02*
Y257500D01*
X-1000Y190000D02*
X34000D01*
X149500Y191000D02*
Y258500D01*
X184500D01*
Y191000D02*
Y258500D01*
X149500Y191000D02*
X184500D01*
X57500Y191000D02*
Y258500D01*
X92500D01*
Y191000D02*
Y258500D01*
X57500Y191000D02*
X92500D01*
X171000Y118000D02*
X184500D01*
X134000Y129000D02*
X138500Y124500D01*
X150000Y170500D02*
Y174500D01*
X147500Y177000D02*
X150000Y174500D01*
X150000Y157500D02*
X153000D01*
X154300Y158950D01*
X261000Y212500D02*
X279500D01*
X260000Y211500D02*
X261000Y212500D01*
X260000Y193000D02*
Y211500D01*
Y193000D02*
X266000Y187000D01*
X278500D01*
X279000Y187500D01*
X223500Y169500D02*
X224000D01*
X223500Y147500D02*
Y169500D01*
Y147500D02*
X225000Y146000D01*
X240000D01*
X260000Y153000D02*
X265000Y158000D01*
X270000D01*
X274000Y162000D01*
Y185500D01*
X273500Y186000D02*
X274000Y185500D01*
X260000Y186000D02*
X273500D01*
X235000Y172000D02*
X240000Y177000D01*
X225500Y172000D02*
X235000D01*
X223500Y170000D02*
X225500Y172000D01*
X223500Y169500D02*
Y170000D01*
X296500Y176000D02*
Y221500D01*
X270000Y187400D02*
Y212500D01*
Y187400D02*
X270200Y187200D01*
X22000Y186000D02*
X76000D01*
X81500Y180500D01*
Y157500D02*
Y180500D01*
X73000Y149000D02*
X81500Y157500D01*
X35500Y149000D02*
X73000D01*
X22000Y162500D02*
X35500Y149000D01*
X22000Y162500D02*
Y186000D01*
X73000Y149000D02*
X89000D01*
X29500Y116000D02*
Y143500D01*
Y116000D02*
X36000Y109500D01*
X82000D01*
X78500D02*
X89500Y120500D01*
Y134000D01*
X80000Y143500D02*
X89500Y134000D01*
X78500Y109500D02*
X96000D01*
X29500Y143500D02*
X80000D01*
X287500Y176000D02*
X290500D01*
X279500Y184000D02*
Y221000D01*
Y184000D02*
X287500Y176000D01*
X301000Y222000D02*
X308000Y215000D01*
X292500Y161500D02*
Y165500D01*
X100394Y221457D02*
X130905D01*
Y210630D02*
Y221457D01*
X100394Y210630D02*
X130905D01*
X100394D02*
Y221457D01*
X122499Y107999D02*
X122000Y108499D01*
X121000D01*
X120500Y107999D01*
Y106000D01*
X121000Y105500D01*
X122000D01*
X122499Y106000D01*
X123499Y107999D02*
X123999Y108499D01*
X124999D01*
X125498Y107999D01*
Y107499D01*
X124999Y107000D01*
X124499D01*
X124999D01*
X125498Y106500D01*
Y106000D01*
X124999Y105500D01*
X123999D01*
X123499Y106000D01*
X126498D02*
X126998Y105500D01*
X127998D01*
X128497Y106000D01*
Y107999D01*
X127998Y108499D01*
X126998D01*
X126498Y107999D01*
Y107499D01*
X126998Y107000D01*
X128497D01*
D53*
X59250Y153000D02*
Y156000D01*
X28000Y163250D02*
X31000D01*
X63750Y132500D02*
Y135500D01*
X40750Y138500D02*
Y141500D01*
D76*
X189736Y66406D02*
G03*
X189736Y66406I-492J0D01*
G01*
X92717Y13217D02*
G03*
X92717Y13217I-492J0D01*
G01*
X160866Y176976D02*
G03*
X160866Y176976I-492J0D01*
G01*
X39874Y54500D02*
G03*
X39874Y54500I-492J0D01*
G01*
X40543Y179847D02*
G03*
X40543Y179847I-492J0D01*
G01*
X112374Y40276D02*
G03*
X112374Y40276I-492J0D01*
G01*
X279555Y112480D02*
G03*
X279555Y112480I-492J0D01*
G01*
Y155980D02*
G03*
X279555Y155980I-492J0D01*
G01*
X21047Y165020D02*
G03*
X21047Y165020I-492J0D01*
G01*
X21547Y104020D02*
G03*
X21547Y104020I-492J0D01*
G01*
X279555Y134980D02*
G03*
X279555Y134980I-492J0D01*
G01*
D77*
X40209Y67000D02*
G03*
X40209Y72000I0J2500D01*
G01*
X123250Y164000D02*
G03*
X120750Y164000I-1250J0D01*
G01*
X48500Y21250D02*
G03*
X48500Y23750I0J1250D01*
G01*
X287750Y89000D02*
G03*
X290250Y89000I1250J0D01*
G01*
X147315Y65815D02*
Y105185D01*
Y65815D02*
X186685D01*
X147315Y105185D02*
X186685D01*
X182748Y65815D02*
X186685Y69752D01*
Y65815D02*
Y105185D01*
X86122Y14594D02*
X88878D01*
X86122D02*
Y26406D01*
X88878Y14594D02*
Y26406D01*
X86122D02*
X88878D01*
X162933Y148433D02*
Y150106D01*
Y148433D02*
X164606D01*
X162933Y175894D02*
Y177567D01*
X164606D01*
X192067Y148433D02*
Y150106D01*
X190394Y148433D02*
X192067D01*
X190394Y177567D02*
X192067D01*
Y175894D02*
Y177567D01*
X40209Y59067D02*
Y67000D01*
Y72000D02*
Y79933D01*
Y59067D02*
X78791D01*
X40209Y79933D02*
X78791D01*
Y59067D02*
Y79933D01*
X42929Y117929D02*
Y117968D01*
Y117929D02*
X44504D01*
X42929Y130095D02*
Y130134D01*
X44504D01*
X55134Y117929D02*
Y117968D01*
X53559Y117929D02*
X55134D01*
Y130095D02*
Y130134D01*
X53559D02*
X55134D01*
X45957Y159158D02*
X53043D01*
X45957D02*
Y178843D01*
X53043Y159158D02*
Y178843D01*
X45957D02*
X53043D01*
X112020Y44803D02*
Y45197D01*
X126980Y44803D02*
Y45197D01*
X229425Y216461D02*
X232575D01*
X229425Y206539D02*
X232575D01*
X131213Y164000D02*
Y184000D01*
X112787D02*
X131213D01*
X112787Y164000D02*
Y184000D01*
Y164000D02*
X120750D01*
X123250D02*
X131213D01*
X109638Y71406D02*
Y84595D01*
X89362Y71406D02*
Y84595D01*
X281819Y110906D02*
X285756D01*
Y108150D02*
Y110906D01*
X281819Y99095D02*
X285756D01*
Y101850D01*
X281819Y154406D02*
X285756D01*
Y151650D02*
Y154406D01*
X281819Y142595D02*
X285756D01*
Y145351D01*
X48500Y13287D02*
Y21250D01*
Y23750D02*
Y31713D01*
X68500D01*
Y13287D02*
Y31713D01*
X48500Y13287D02*
X68500D01*
X279787Y89000D02*
X287750D01*
X290250D02*
X298213D01*
Y69000D02*
Y89000D01*
X279787Y69000D02*
X298213D01*
X279787D02*
Y89000D01*
X20358Y132539D02*
X20555D01*
X2445D02*
X2642D01*
X2445D02*
Y162461D01*
X20555Y132539D02*
Y162461D01*
X2445D02*
X2642D01*
X20358D02*
X20555D01*
X2445Y153406D02*
X20555D01*
X20858Y71539D02*
X21055D01*
X2945D02*
X3142D01*
X2945D02*
Y101461D01*
X21055Y71539D02*
Y101461D01*
X2945D02*
X3142D01*
X20858D02*
X21055D01*
X2945Y92406D02*
X21055D01*
X104807Y3457D02*
X118193D01*
X104807Y10543D02*
X118193D01*
X104807Y3457D02*
Y3654D01*
X113075D02*
X118193D01*
X104807Y10346D02*
Y10543D01*
X113075Y10346D02*
X118193D01*
X13307Y107457D02*
X26693D01*
X13307Y114543D02*
X26693D01*
X13307Y107457D02*
Y107654D01*
X21575D02*
X26693D01*
X13307Y114347D02*
Y114543D01*
X21575Y114347D02*
X26693D01*
X285756Y121595D02*
Y124351D01*
X281819Y121595D02*
X285756D01*
Y130650D02*
Y133406D01*
X281819D02*
X285756D01*
D78*
X45327Y63004D02*
G03*
X45327Y63004I-1181J0D01*
G01*
D79*
X41551Y130134D02*
G03*
X41551Y130134I-197J0D01*
G01*
X207626Y32382D02*
G03*
X207626Y32382I-197J0D01*
G01*
X240937Y198551D02*
G03*
X240937Y198551I-197J0D01*
G01*
X87984Y71406D02*
G03*
X87984Y71406I-197J0D01*
G01*
D80*
X49894Y175693D02*
G03*
X49894Y175693I-787J0D01*
G01*
D81*
X260000Y146000D02*
Y185500D01*
X250000Y146000D02*
X260000D01*
X250000D02*
Y185500D01*
Y176000D02*
X260000D01*
X250000Y186000D02*
X260000D01*
X250000Y146000D02*
Y185500D01*
X240000Y146000D02*
X250000D01*
X240000D02*
Y185500D01*
Y176000D02*
X250000D01*
X240000Y186000D02*
X250000D01*
X297618Y165500D02*
Y175500D01*
X278000Y175500D02*
X307461D01*
Y165500D02*
Y175500D01*
X278000Y165500D02*
X307461D01*
X287500D02*
Y175500D01*
X277500Y165500D02*
Y175500D01*
M02*
