M48
;Layer_Color=9474304
;FILE_FORMAT=2:5
INCH,LZ
;TYPE=PLATED
T1F00S00C0.00700
T2F00S00C0.00787
T3F00S00C0.01400
T4F00S00C0.03543
T5F00S00C0.03937
T6F00S00C0.04000
T7F00S00C0.05500
T8F00S00C0.06000
;TYPE=NON_PLATED
T9F00S00C0.02800
T10F00S00C0.07874
T11F00S00C0.12500
%
T01
X0039531Y0124031
X0077031Y0129532
X01435Y01235
X014195Y01205
X0149Y01195
X01525
X0154106Y0118
X0154377Y0108402
X01575Y01035
X0159Y0099547
X0159102Y00965
X01625Y00935
X01685Y009355
X0168575Y0096524
X01688Y00996
X01655Y0099748
X01625Y00996
X0164Y01035
X017
X01745Y01065
X01805Y01085
X01825Y01105
X01865Y0112
X0181Y00995
X0185547Y0094
X01855Y00875
X01813Y0087
X01811Y00809
X0181Y00775
X0178Y0077602
X0174874Y0077626
X0171724
X0172Y00745
X0168575Y0074476
X0165575Y0077626
X01656Y00809
X01685Y0081
X016865Y0087
X01685Y009
X01655Y00903
X0162276Y0087075
X0159126
X0159Y009
X0155976Y0090224
X0152827
X0148Y0087
X01455
X01465Y00925
X0145Y00985
X0149351Y01
X0149Y01035
X01465Y01135
X01595Y0123
X0174
X01775Y01385
X0180453Y0146
X0174547Y0146547
X01615Y0148
X015225Y01505
X01615Y016
X01905Y0147
X0206Y0118
X02025Y0066
X02035Y0064
X0207Y00625
X02105Y00475
X020325Y003975
X01725Y00405
X017235Y002485
X01485Y00325
X0152827Y0071327
X015615Y007115
X0155976Y0074476
Y0077626
X0159Y0077601
X0159126Y0074476
X0162Y00745
X01624Y00713
X0162276Y0068177
X01717Y00713
X0174874Y0071327
X0178024
X0181173Y0068177
X01845Y0067602
X0186Y0072902
X01865Y00765
X0178Y0083902
X0174874Y0090224
Y0093374
X0159Y0081
X0155976Y0080776
X0155902Y0084
X01485Y00825
X0149677Y0074476
X0124252Y00785
X0118Y00745
X0125Y00685
X0109Y00825
X0241Y01385
X02395Y01405
X0239Y01425
X02205Y01825
X0219Y0179
X02135Y0176
X0194Y0167
X0188839Y0167682
X018725Y017975
X0165Y0179
X0155Y0166
T02
X0047063Y0122063
Y0126
X0051
Y0122063
X0172382Y0157882
Y0163
X01775
Y0157882
X0182618
Y0163
Y0168118
X01775
X0172382
T03
X02345Y0004
X00995Y0007
X0056Y00165
X0041Y0032
X00355Y00575
X0015Y00655
X00095Y0066
X0012Y00625
X002725Y008025
X00245Y0096
Y0102
X00295Y0101
X004625Y010475
X0033Y01205
Y01275
X0014Y0128
X00085
X0011Y0124
X00245Y0157
X0024Y01635
X0029Y0161
X00465Y01545
X0049332Y0145332
X0055531Y0134531
X0060531
Y0128532
X0062031Y0118532
X006425Y009725
X0085Y00865
X0107Y0089
X01065Y01045
X0092
X00915Y00675
X0092Y00615
X0085Y00595
X00865Y0038
X0092Y0028
X01035Y00175
X01065Y0014
X0121Y0015
X01215Y002
X0127Y0017
X0113Y00325
X01055Y00555
X0129Y00505
X0135Y0046
X01345Y0056
X01325Y007
Y00735
X0132Y0086
X01315Y00905
X01315Y00955
Y00995
Y0104
Y0108
X0139Y0119
X01585
X0164
X01695Y012
X0196Y0115
Y01285
X0201Y01365
X02055Y0137
X021Y01375
X02125Y01485
X02175
X02075
X02145Y01225
X0219Y0119
X02015Y01025
Y00965
Y00925
X0202Y0084
X02045Y00775
X02085Y0075
X02145Y00795
X0209Y00585
X021775Y0052
X0207319Y00445
X01945Y0045
X0187Y0055
X01875Y00795
Y00835
X01915Y0106
X019775Y002975
X0198984Y0014
X02085Y00135
X02155Y00295
X01835Y00175
X01545Y00215
X01565Y0025
X01515
X0153Y00435
X01585
X01355Y01425
X013575Y01485
X013875Y016125
X01095Y01545
X007575Y016175
X00765Y0135
X02315Y0096
Y0085
Y00735
X0234Y00655
X02315Y0062
X023Y00475
X02265Y0034
X0233Y002
X026Y00175
Y001
Y0025
Y00325
X0263Y005
X02525Y0055
Y0062
X02465Y0072
X0252Y00855
X02675Y0099
X0276Y00975
X0267Y01215
X0267Y0143
X0292Y0115
X02945Y00765
X0287Y00575
Y00535
Y00495
X02465Y00445
X0254Y0189
Y0193
X0255Y0205
X0251
X0252Y02195
X02425Y01965
X02335Y02015
X0229Y019
X0224
X02645Y0185
X02105Y01825
Y0193
Y02065
X01965Y02105
X0192Y021
X0194Y01785
X01975Y01715
X02105Y01645
X0183493Y0179717
X01585Y0181
X0153Y0185
X0149Y01885
X0144685Y0189409
X01405Y0188
X01165Y01925
X0118Y02065
X0135827Y0216535
X0087Y0177
Y01715
Y0166
X00344Y0164
X00335Y01755
X00295Y0176
T04
X00445Y00545
X00545
Y00845
X00445
X00645
X00745
Y00545
X00645
T05
X0011642Y0010205
X0029358
Y0035795
X0011642
T06
X0245Y01
Y011
Y012
X0255
Y011
Y01
Y0134
X0245
Y0151
X0255
Y0161
X0245
Y0171
X0255
Y0181
X0245
X02825Y01705
X02925
X03025
X01383Y01999
X0014Y01795
T07
X0075Y02085
X0167Y02085
X00165Y02075
T08
X0065Y01985
X0085
Y02185
X0065
X0157Y02185
Y01985
X0177
Y02185
X00265Y02175
Y01975
X00065
Y02175
T09
X02905Y00975
Y012
Y01405
X03065Y0136
Y01565
Y01135
T10
X0275Y0006311
T11
X00985Y0145
M30
