%FSLAX25Y25*%
%MOIN*%
G70*
G01*
G75*
G04 Layer_Color=8388736*
%ADD10C,0.01200*%
%ADD11C,0.01100*%
%ADD12R,0.03000X0.03000*%
%ADD13R,0.01122X0.30709*%
%ADD14R,0.02362X0.12244*%
%ADD15R,0.02953X0.13031*%
%ADD16R,0.03000X0.03000*%
%ADD17R,0.03543X0.03150*%
%ADD18R,0.03100X0.03100*%
%ADD19R,0.04449X0.05787*%
%ADD20R,0.07874X0.04724*%
%ADD21R,0.09449X0.10236*%
%ADD22R,0.01200X0.05300*%
%ADD23R,0.07100X0.07500*%
%ADD24R,0.09100X0.07500*%
%ADD25R,0.05000X0.02992*%
%ADD26R,0.02992X0.05000*%
%ADD27R,0.00787X0.02658*%
%ADD28R,0.01496X0.06100*%
%ADD29R,0.05118X0.04921*%
%ADD30R,0.01969X0.01969*%
%ADD31R,0.01969X0.01969*%
%ADD32R,0.12992X0.17323*%
%ADD33R,0.15354X0.24410*%
%ADD34R,0.05787X0.04449*%
%ADD35R,0.01181X0.02047*%
%ADD36R,0.01181X0.01929*%
%ADD37R,0.05079X0.10709*%
%ADD38R,0.01063X0.03150*%
%ADD39R,0.05512X0.04724*%
%ADD40O,0.08661X0.02362*%
%ADD41R,0.03347X0.01102*%
%ADD42R,0.06496X0.09449*%
%ADD43R,0.02362X0.00984*%
%ADD44R,0.00984X0.02362*%
%ADD45R,0.20079X0.20079*%
%ADD46R,0.03937X0.02756*%
%ADD47C,0.00945*%
%ADD48C,0.03937*%
%ADD49C,0.02500*%
%ADD50C,0.00500*%
%ADD51C,0.01000*%
%ADD52C,0.00800*%
%ADD53C,0.02000*%
%ADD54C,0.01500*%
%ADD55C,0.00600*%
%ADD56C,0.06000*%
%ADD57C,0.07000*%
%ADD58C,0.12500*%
%ADD59C,0.09000*%
%ADD60C,0.05906*%
%ADD61C,0.07874*%
%ADD62R,0.05906X0.05906*%
%ADD63C,0.03100*%
%ADD64C,0.01400*%
%ADD65C,0.01969*%
%ADD66C,0.04000*%
%ADD67C,0.04800*%
%ADD68C,0.14500*%
%ADD69C,0.07500*%
%ADD70C,0.05937*%
%ADD71C,0.09874*%
%ADD72C,0.05543*%
%ADD73C,0.03400*%
%ADD74C,0.02700*%
%ADD75C,0.08000*%
%ADD76C,0.02787*%
%ADD77C,0.00984*%
%ADD78C,0.00787*%
%ADD79C,0.00394*%
%ADD80C,0.01575*%
%ADD81C,0.02362*%
%ADD82C,0.01600*%
%ADD83R,0.04331X0.04331*%
%ADD84R,0.03300X0.03300*%
%ADD85R,0.03300X0.03300*%
%ADD86R,0.03843X0.03450*%
%ADD87R,0.03400X0.03400*%
%ADD88R,0.04749X0.06087*%
%ADD89R,0.08174X0.05024*%
%ADD90R,0.09749X0.10536*%
%ADD91R,0.01500X0.05600*%
%ADD92R,0.07400X0.07800*%
%ADD93R,0.09400X0.07800*%
%ADD94R,0.05300X0.03292*%
%ADD95R,0.03292X0.05300*%
%ADD96R,0.01087X0.02958*%
%ADD97R,0.01796X0.06400*%
%ADD98R,0.05418X0.05221*%
%ADD99R,0.02269X0.02269*%
%ADD100R,0.02269X0.02269*%
%ADD101R,0.13292X0.17623*%
%ADD102R,0.15654X0.24710*%
%ADD103R,0.06087X0.04749*%
%ADD104R,0.01575X0.02441*%
%ADD105R,0.01575X0.02323*%
%ADD106R,0.05379X0.11009*%
%ADD107R,0.01363X0.03450*%
%ADD108R,0.05812X0.05024*%
%ADD109O,0.08961X0.02662*%
%ADD110R,0.03647X0.01402*%
%ADD111R,0.06796X0.09749*%
%ADD112R,0.20379X0.20379*%
%ADD113R,0.04237X0.03056*%
%ADD114C,0.01245*%
%ADD115C,0.11811*%
%ADD116C,0.06300*%
%ADD117C,0.00300*%
%ADD118C,0.07300*%
%ADD119C,0.12800*%
%ADD120C,0.09300*%
%ADD121C,0.06206*%
%ADD122R,0.06206X0.06206*%
G36*
X50596Y119455D02*
X50625Y119446D01*
X50651Y119432D01*
X50674Y119414D01*
X50692Y119391D01*
X50706Y119365D01*
X50715Y119336D01*
X50718Y119307D01*
Y117339D01*
X50715Y117309D01*
X50706Y117281D01*
X50692Y117255D01*
X50674Y117232D01*
X50651Y117213D01*
X50625Y117199D01*
X50596Y117191D01*
X50567Y117188D01*
X49464D01*
X49435Y117191D01*
X49407Y117199D01*
X49381Y117213D01*
X49358Y117232D01*
X49339Y117255D01*
X49325Y117281D01*
X49317Y117309D01*
X49314Y117339D01*
Y119307D01*
X49317Y119336D01*
X49325Y119365D01*
X49339Y119391D01*
X49358Y119414D01*
X49381Y119432D01*
X49407Y119446D01*
X49435Y119455D01*
X49464Y119458D01*
X50567D01*
X50596Y119455D01*
D02*
G37*
G36*
X48628D02*
X48656Y119446D01*
X48682Y119432D01*
X48705Y119414D01*
X48724Y119391D01*
X48738Y119365D01*
X48746Y119336D01*
X48749Y119307D01*
Y117339D01*
X48746Y117309D01*
X48738Y117281D01*
X48724Y117255D01*
X48705Y117232D01*
X48682Y117213D01*
X48656Y117199D01*
X48628Y117191D01*
X48598Y117188D01*
X47496D01*
X47467Y117191D01*
X47438Y117199D01*
X47412Y117213D01*
X47389Y117232D01*
X47371Y117255D01*
X47357Y117281D01*
X47348Y117309D01*
X47345Y117339D01*
Y119307D01*
X47348Y119336D01*
X47357Y119365D01*
X47371Y119391D01*
X47389Y119414D01*
X47412Y119432D01*
X47438Y119446D01*
X47467Y119455D01*
X47496Y119458D01*
X48598D01*
X48628Y119455D01*
D02*
G37*
G36*
X50596Y130872D02*
X50625Y130864D01*
X50651Y130850D01*
X50674Y130831D01*
X50692Y130808D01*
X50706Y130782D01*
X50715Y130754D01*
X50718Y130724D01*
Y128756D01*
X50715Y128726D01*
X50706Y128698D01*
X50692Y128672D01*
X50674Y128649D01*
X50651Y128630D01*
X50625Y128617D01*
X50596Y128608D01*
X50567Y128605D01*
X49464D01*
X49435Y128608D01*
X49407Y128617D01*
X49381Y128630D01*
X49358Y128649D01*
X49339Y128672D01*
X49325Y128698D01*
X49317Y128726D01*
X49314Y128756D01*
Y130724D01*
X49317Y130754D01*
X49325Y130782D01*
X49339Y130808D01*
X49358Y130831D01*
X49381Y130850D01*
X49407Y130864D01*
X49435Y130872D01*
X49464Y130875D01*
X50567D01*
X50596Y130872D01*
D02*
G37*
G36*
X48628D02*
X48656Y130864D01*
X48682Y130850D01*
X48705Y130831D01*
X48724Y130808D01*
X48738Y130782D01*
X48746Y130754D01*
X48749Y130724D01*
Y128756D01*
X48746Y128726D01*
X48738Y128698D01*
X48724Y128672D01*
X48705Y128649D01*
X48682Y128630D01*
X48656Y128617D01*
X48628Y128608D01*
X48598Y128605D01*
X47496D01*
X47467Y128608D01*
X47438Y128617D01*
X47412Y128630D01*
X47389Y128649D01*
X47371Y128672D01*
X47357Y128698D01*
X47348Y128726D01*
X47345Y128756D01*
Y130724D01*
X47348Y130754D01*
X47357Y130782D01*
X47371Y130808D01*
X47389Y130831D01*
X47412Y130850D01*
X47438Y130864D01*
X47467Y130872D01*
X47496Y130875D01*
X48598D01*
X48628Y130872D01*
D02*
G37*
D13*
X181010Y209646D02*
D03*
X165990D02*
D03*
D14*
X173500Y200413D02*
D03*
D15*
X168028Y200807D02*
D03*
X178972D02*
D03*
D43*
X190886Y173827D02*
D03*
Y169890D02*
D03*
Y171858D02*
D03*
Y167921D02*
D03*
Y163984D02*
D03*
Y165953D02*
D03*
Y162016D02*
D03*
Y158079D02*
D03*
Y160047D02*
D03*
Y154142D02*
D03*
Y152173D02*
D03*
Y156110D02*
D03*
X164114Y173827D02*
D03*
Y163984D02*
D03*
Y165953D02*
D03*
Y162016D02*
D03*
Y169890D02*
D03*
Y171858D02*
D03*
Y167921D02*
D03*
Y158079D02*
D03*
Y160047D02*
D03*
Y154142D02*
D03*
Y156110D02*
D03*
Y152173D02*
D03*
D44*
X188327Y176386D02*
D03*
X186358D02*
D03*
X182421D02*
D03*
X180453D02*
D03*
X184390D02*
D03*
X178484D02*
D03*
X176516D02*
D03*
X188327Y149614D02*
D03*
X184390D02*
D03*
X182421D02*
D03*
X186358D02*
D03*
X178484D02*
D03*
X176516D02*
D03*
X180453D02*
D03*
X172579Y176386D02*
D03*
X170610D02*
D03*
X174547D02*
D03*
X168642D02*
D03*
X166673D02*
D03*
X172579Y149614D02*
D03*
X170610D02*
D03*
X174547D02*
D03*
X166673D02*
D03*
X168642D02*
D03*
D84*
X231750Y220000D02*
D03*
X226250D02*
D03*
X207750D02*
D03*
X202250D02*
D03*
X206250Y160500D02*
D03*
X200750D02*
D03*
X142250Y84500D02*
D03*
X136750D02*
D03*
X198250Y18500D02*
D03*
X192750D02*
D03*
X92250Y32000D02*
D03*
X86750D02*
D03*
X46250Y99000D02*
D03*
X51750D02*
D03*
X46250Y94500D02*
D03*
X51750D02*
D03*
X136750Y75000D02*
D03*
X142250D02*
D03*
X136750Y70000D02*
D03*
X142250D02*
D03*
X136750Y65000D02*
D03*
X142250D02*
D03*
X136750Y102500D02*
D03*
X142250D02*
D03*
X136750Y98000D02*
D03*
X142250D02*
D03*
X136750Y60000D02*
D03*
X142250D02*
D03*
X136750Y89000D02*
D03*
X142250D02*
D03*
X197250Y85000D02*
D03*
X191750D02*
D03*
X197250Y102000D02*
D03*
X191750D02*
D03*
X136750Y80000D02*
D03*
X142250D02*
D03*
X197250Y51500D02*
D03*
X191750D02*
D03*
X197250Y56000D02*
D03*
X191750D02*
D03*
X220250Y7000D02*
D03*
X214750D02*
D03*
X197250Y63000D02*
D03*
X191750D02*
D03*
X246750Y49000D02*
D03*
X241250D02*
D03*
X197250Y79500D02*
D03*
X191750D02*
D03*
X246750Y68000D02*
D03*
X241250D02*
D03*
X136750Y93500D02*
D03*
X142250D02*
D03*
X101750Y104500D02*
D03*
X96250D02*
D03*
X197250Y96500D02*
D03*
X191750D02*
D03*
X197250Y91000D02*
D03*
X191750D02*
D03*
X214250Y89500D02*
D03*
X208750D02*
D03*
X214250Y85000D02*
D03*
X208750D02*
D03*
X197250Y68500D02*
D03*
X191750D02*
D03*
X197250Y74000D02*
D03*
X191750D02*
D03*
X43800Y140000D02*
D03*
X49300D02*
D03*
X49281Y135531D02*
D03*
X43782D02*
D03*
X66800Y134000D02*
D03*
X72300D02*
D03*
X46281Y113531D02*
D03*
X51781D02*
D03*
X56200Y154500D02*
D03*
X50700D02*
D03*
X32750Y52000D02*
D03*
X27250D02*
D03*
X122250Y34000D02*
D03*
X116750D02*
D03*
X197750D02*
D03*
X203250D02*
D03*
X225750Y47500D02*
D03*
X220250D02*
D03*
X256250Y76500D02*
D03*
X261750D02*
D03*
X256250Y81000D02*
D03*
X261750D02*
D03*
X256250Y85500D02*
D03*
X261750D02*
D03*
X226750Y62500D02*
D03*
X221250D02*
D03*
Y112000D02*
D03*
X226750D02*
D03*
X221250Y106500D02*
D03*
X226750D02*
D03*
X221250Y101000D02*
D03*
X226750D02*
D03*
X73750Y99000D02*
D03*
X68250D02*
D03*
X73750Y94500D02*
D03*
X68250D02*
D03*
X221250Y90000D02*
D03*
X226750D02*
D03*
X221250Y79000D02*
D03*
X226750D02*
D03*
X221250Y68000D02*
D03*
X226750D02*
D03*
Y95500D02*
D03*
X221250D02*
D03*
X226750Y84500D02*
D03*
X221250D02*
D03*
X226750Y73500D02*
D03*
X221250D02*
D03*
X86750Y9000D02*
D03*
X92250D02*
D03*
X32750Y64500D02*
D03*
X27250D02*
D03*
X32750Y70000D02*
D03*
X27250D02*
D03*
X32750Y75500D02*
D03*
X27250D02*
D03*
X72281Y129532D02*
D03*
X66781D02*
D03*
X72250Y125000D02*
D03*
X66750D02*
D03*
X66781Y118532D02*
D03*
X72281D02*
D03*
X70250Y176000D02*
D03*
X75750D02*
D03*
X70250Y171500D02*
D03*
X75750D02*
D03*
X75750Y167000D02*
D03*
X70250D02*
D03*
X27250Y47500D02*
D03*
X32750D02*
D03*
X136750Y107000D02*
D03*
X142250D02*
D03*
X96250Y67500D02*
D03*
X101750D02*
D03*
X157750Y148000D02*
D03*
X152250D02*
D03*
X157750Y153000D02*
D03*
X152250D02*
D03*
X160750Y196500D02*
D03*
X155250D02*
D03*
X160750Y201000D02*
D03*
X155250D02*
D03*
X160750Y206000D02*
D03*
X155250D02*
D03*
X188250Y193000D02*
D03*
X193750D02*
D03*
X188250Y197500D02*
D03*
X193750D02*
D03*
X188250Y202000D02*
D03*
X193750D02*
D03*
Y187500D02*
D03*
X188250D02*
D03*
X193750Y183000D02*
D03*
X188250D02*
D03*
X200750Y169500D02*
D03*
X206250D02*
D03*
X200750Y178500D02*
D03*
X206250D02*
D03*
X200750Y174000D02*
D03*
X206250D02*
D03*
X148750Y184000D02*
D03*
X143250D02*
D03*
X148750Y179500D02*
D03*
X143250D02*
D03*
X200750Y156000D02*
D03*
X206250D02*
D03*
X200750Y165000D02*
D03*
X206250D02*
D03*
X160750Y210500D02*
D03*
X155250D02*
D03*
X188250Y206500D02*
D03*
X193750D02*
D03*
X200750Y197500D02*
D03*
X206250D02*
D03*
X200750Y187500D02*
D03*
X206250D02*
D03*
X200750Y202000D02*
D03*
X206250D02*
D03*
Y193000D02*
D03*
X200750D02*
D03*
X206250Y183000D02*
D03*
X200750D02*
D03*
X206250Y206500D02*
D03*
X200750D02*
D03*
X239750Y190500D02*
D03*
X234250D02*
D03*
X243750Y215000D02*
D03*
X249250D02*
D03*
Y209500D02*
D03*
X243750D02*
D03*
D85*
X140500Y132250D02*
D03*
Y126750D02*
D03*
X145500Y132250D02*
D03*
Y126750D02*
D03*
X267500Y125750D02*
D03*
Y131250D02*
D03*
Y109250D02*
D03*
Y103750D02*
D03*
X272500Y103750D02*
D03*
Y109250D02*
D03*
X167000Y53750D02*
D03*
Y48250D02*
D03*
X171500Y53750D02*
D03*
Y48250D02*
D03*
X99000Y23250D02*
D03*
Y17750D02*
D03*
X164000Y115750D02*
D03*
Y110250D02*
D03*
X168500Y115750D02*
D03*
Y110250D02*
D03*
X158500Y48250D02*
D03*
Y53750D02*
D03*
X159500Y115750D02*
D03*
Y110250D02*
D03*
X29500Y166300D02*
D03*
Y171800D02*
D03*
X154000Y48250D02*
D03*
Y53750D02*
D03*
X210000Y126750D02*
D03*
Y132250D02*
D03*
X205500Y126750D02*
D03*
Y132250D02*
D03*
X201000Y126750D02*
D03*
Y132250D02*
D03*
X219000Y126750D02*
D03*
Y132250D02*
D03*
X214500Y126750D02*
D03*
Y132250D02*
D03*
X190500Y126750D02*
D03*
Y132250D02*
D03*
X150500Y126750D02*
D03*
Y132250D02*
D03*
X155500Y126750D02*
D03*
Y132250D02*
D03*
X160500Y126750D02*
D03*
Y132250D02*
D03*
X165500Y126750D02*
D03*
Y132250D02*
D03*
X170500Y126750D02*
D03*
Y132250D02*
D03*
X175500Y126750D02*
D03*
Y132250D02*
D03*
X180500Y126750D02*
D03*
Y132250D02*
D03*
X185500Y126750D02*
D03*
Y132250D02*
D03*
X123500Y57250D02*
D03*
Y62750D02*
D03*
X272500Y131250D02*
D03*
Y125750D02*
D03*
X272500Y151750D02*
D03*
Y146250D02*
D03*
X267500Y146250D02*
D03*
Y151750D02*
D03*
X152000Y161250D02*
D03*
Y166750D02*
D03*
X147500Y161250D02*
D03*
Y166750D02*
D03*
X143000Y161250D02*
D03*
Y166750D02*
D03*
X180500Y143250D02*
D03*
Y137750D02*
D03*
X116000Y158250D02*
D03*
Y152750D02*
D03*
X121000Y158250D02*
D03*
Y152750D02*
D03*
X126000Y158250D02*
D03*
Y152750D02*
D03*
X131000Y158250D02*
D03*
Y152750D02*
D03*
X229000Y200250D02*
D03*
Y194750D02*
D03*
D86*
X279063Y131240D02*
D03*
Y123760D02*
D03*
X286937Y127500D02*
D03*
Y148500D02*
D03*
X279063Y144760D02*
D03*
Y152240D02*
D03*
X286937Y105000D02*
D03*
X279063Y101260D02*
D03*
Y108740D02*
D03*
D87*
X299000Y108450D02*
D03*
Y102550D02*
D03*
Y125050D02*
D03*
Y130950D02*
D03*
X298500Y145550D02*
D03*
Y151450D02*
D03*
D88*
X220984Y20500D02*
D03*
X214016D02*
D03*
X192016Y9000D02*
D03*
X198984D02*
D03*
X201516Y214000D02*
D03*
X208484D02*
D03*
X247484Y62000D02*
D03*
X240516D02*
D03*
X247484Y55000D02*
D03*
X240516D02*
D03*
X220984Y13500D02*
D03*
X214016D02*
D03*
X141984Y113500D02*
D03*
X135016D02*
D03*
X133984Y22500D02*
D03*
X127016D02*
D03*
D89*
X14488Y111000D02*
D03*
X25512D02*
D03*
X105988Y7000D02*
D03*
X117012D02*
D03*
D90*
X12000Y99098D02*
D03*
Y73902D02*
D03*
X11500Y160099D02*
D03*
Y134902D02*
D03*
D91*
X174950Y15775D02*
D03*
X177550D02*
D03*
X167150D02*
D03*
X169750D02*
D03*
X140750D02*
D03*
X148550D02*
D03*
X151150D02*
D03*
X172350D02*
D03*
X145950D02*
D03*
X143350D02*
D03*
D92*
X130200Y5275D02*
D03*
X141450D02*
D03*
X150450D02*
D03*
X161700D02*
D03*
X171500Y5225D02*
D03*
D93*
X181800D02*
D03*
D94*
X304000Y71500D02*
D03*
Y76500D02*
D03*
Y81500D02*
D03*
Y86500D02*
D03*
X274000Y71500D02*
D03*
Y76500D02*
D03*
Y81500D02*
D03*
Y86500D02*
D03*
X137000Y166500D02*
D03*
Y171500D02*
D03*
Y176500D02*
D03*
Y181500D02*
D03*
X107000Y166500D02*
D03*
Y171500D02*
D03*
Y176500D02*
D03*
Y181500D02*
D03*
D95*
X66000Y37500D02*
D03*
X61000D02*
D03*
X56000D02*
D03*
X51000D02*
D03*
X66000Y7500D02*
D03*
X61000D02*
D03*
X56000D02*
D03*
X51000D02*
D03*
D96*
X176400Y35200D02*
D03*
X174400D02*
D03*
X170600D02*
D03*
X168600D02*
D03*
Y31800D02*
D03*
X170600D02*
D03*
X174400D02*
D03*
X176400D02*
D03*
D97*
X172500Y33500D02*
D03*
D98*
X104500Y73571D02*
D03*
X94500Y82429D02*
D03*
Y73571D02*
D03*
X104500Y82429D02*
D03*
D99*
X180000Y185228D02*
D03*
Y188772D02*
D03*
X174500Y183228D02*
D03*
Y186772D02*
D03*
D100*
X170728Y190500D02*
D03*
X174272D02*
D03*
X244728Y220000D02*
D03*
X248272D02*
D03*
X223228Y182500D02*
D03*
X226772D02*
D03*
X223228Y179000D02*
D03*
X226772D02*
D03*
X223228Y175500D02*
D03*
X226772D02*
D03*
D101*
X277756Y56705D02*
D03*
D102*
X300394Y21272D02*
D03*
X249606D02*
D03*
D103*
X248000Y197984D02*
D03*
Y191016D02*
D03*
D104*
X238968Y198000D02*
D03*
D105*
X237000D02*
D03*
X235032D02*
D03*
Y194968D02*
D03*
X237000D02*
D03*
X238968D02*
D03*
D106*
X236531Y211500D02*
D03*
X225468D02*
D03*
D107*
X124421Y49724D02*
D03*
X122453D02*
D03*
X120484D02*
D03*
X118516D02*
D03*
X116547D02*
D03*
X114579D02*
D03*
X124421Y40276D02*
D03*
X122453D02*
D03*
X120484D02*
D03*
X118516D02*
D03*
X116547D02*
D03*
X114579D02*
D03*
D108*
X219831Y40650D02*
D03*
Y34350D02*
D03*
X211169Y40650D02*
D03*
Y34350D02*
D03*
D109*
X58949Y176500D02*
D03*
Y166500D02*
D03*
Y171500D02*
D03*
Y161500D02*
D03*
X40051Y176500D02*
D03*
Y171500D02*
D03*
Y166500D02*
D03*
Y161500D02*
D03*
D110*
X54839Y127969D02*
D03*
Y126000D02*
D03*
Y124031D02*
D03*
Y122063D02*
D03*
Y120095D02*
D03*
X43224Y127969D02*
D03*
Y124031D02*
D03*
Y126000D02*
D03*
Y120095D02*
D03*
Y122063D02*
D03*
D111*
X49031Y124031D02*
D03*
D112*
X177500Y163000D02*
D03*
D113*
X92225Y20500D02*
D03*
Y24240D02*
D03*
Y16760D02*
D03*
X82776Y24240D02*
D03*
Y16760D02*
D03*
D114*
X182748Y101248D02*
D03*
Y98098D02*
D03*
X179598Y101248D02*
D03*
X182748Y94949D02*
D03*
X179598Y98098D02*
D03*
X176449D02*
D03*
Y101248D02*
D03*
X179598Y94949D02*
D03*
X176449D02*
D03*
X182748Y91799D02*
D03*
Y88650D02*
D03*
X179598Y91799D02*
D03*
X182748Y85500D02*
D03*
X179598Y88650D02*
D03*
X176449D02*
D03*
Y91799D02*
D03*
X179598Y85500D02*
D03*
X176449D02*
D03*
X173299Y98098D02*
D03*
Y94949D02*
D03*
Y101248D02*
D03*
Y91799D02*
D03*
X170150Y94949D02*
D03*
Y98098D02*
D03*
Y101248D02*
D03*
X167000Y91799D02*
D03*
Y94949D02*
D03*
X173299Y88650D02*
D03*
X170150Y91799D02*
D03*
X173299Y85500D02*
D03*
X170150Y88650D02*
D03*
Y85500D02*
D03*
X167000Y88650D02*
D03*
Y85500D02*
D03*
X182748Y76051D02*
D03*
Y82350D02*
D03*
X179598D02*
D03*
X176449D02*
D03*
X182748Y79201D02*
D03*
X179598D02*
D03*
X182748Y69752D02*
D03*
Y72902D02*
D03*
X179598D02*
D03*
Y76051D02*
D03*
Y69752D02*
D03*
X176449D02*
D03*
X173299Y82350D02*
D03*
X176449Y79201D02*
D03*
X173299D02*
D03*
X176449Y76051D02*
D03*
X173299D02*
D03*
X170150Y82350D02*
D03*
X167000D02*
D03*
X170150Y79201D02*
D03*
X167000D02*
D03*
X176449Y72902D02*
D03*
X170150Y76051D02*
D03*
X173299Y69752D02*
D03*
Y72902D02*
D03*
X170150D02*
D03*
X167000D02*
D03*
X170150Y69752D02*
D03*
X167000D02*
D03*
X163850Y101248D02*
D03*
X167000D02*
D03*
X160701Y98098D02*
D03*
X167000D02*
D03*
X163850D02*
D03*
X160701Y101248D02*
D03*
X163850Y91799D02*
D03*
Y88650D02*
D03*
Y94949D02*
D03*
Y85500D02*
D03*
X160701Y91799D02*
D03*
Y94949D02*
D03*
Y85500D02*
D03*
Y88650D02*
D03*
X157551Y101248D02*
D03*
Y98098D02*
D03*
X154402Y101248D02*
D03*
X157551Y94949D02*
D03*
X154402Y98098D02*
D03*
X151252D02*
D03*
Y101248D02*
D03*
X154402Y94949D02*
D03*
X151252D02*
D03*
X157551Y91799D02*
D03*
X154402D02*
D03*
X157551Y85500D02*
D03*
Y88650D02*
D03*
X154402D02*
D03*
X151252Y91799D02*
D03*
X154402Y85500D02*
D03*
X151252Y88650D02*
D03*
X163850Y82350D02*
D03*
Y79201D02*
D03*
X160701Y82350D02*
D03*
X167000Y76051D02*
D03*
X163850D02*
D03*
X160701Y79201D02*
D03*
X157551Y82350D02*
D03*
Y76051D02*
D03*
X163850Y72902D02*
D03*
X160701Y76051D02*
D03*
X163850Y69752D02*
D03*
X160701Y72902D02*
D03*
Y69752D02*
D03*
X151252Y85500D02*
D03*
X154402Y82350D02*
D03*
X151252D02*
D03*
X157551Y79201D02*
D03*
X154402D02*
D03*
X151252D02*
D03*
X157551Y72902D02*
D03*
X154402D02*
D03*
X157551Y69752D02*
D03*
X154402D02*
D03*
Y76051D02*
D03*
X151252D02*
D03*
Y69752D02*
D03*
Y72902D02*
D03*
D115*
X8000Y52000D02*
D03*
X286000Y215500D02*
D03*
X284000Y16000D02*
D03*
D116*
X302500Y170500D02*
D03*
X282500D02*
D03*
X292500D02*
D03*
X245000Y161000D02*
D03*
Y151000D02*
D03*
Y181000D02*
D03*
Y171000D02*
D03*
X255000Y161000D02*
D03*
Y151000D02*
D03*
Y181000D02*
D03*
Y171000D02*
D03*
D117*
X290500Y97500D02*
D03*
X306500Y113500D02*
D03*
X290500Y120000D02*
D03*
X306500Y136000D02*
D03*
X290500Y140500D02*
D03*
X306500Y156500D02*
D03*
D118*
X255000Y134000D02*
D03*
X245000D02*
D03*
X245000Y96000D02*
D03*
X255000D02*
D03*
X245000Y109000D02*
D03*
X255000D02*
D03*
X245000Y122000D02*
D03*
X255000D02*
D03*
X14000Y179500D02*
D03*
X159000Y187000D02*
D03*
D119*
X98500Y145000D02*
D03*
D120*
X75000Y208500D02*
D03*
X85000Y218500D02*
D03*
X65000D02*
D03*
Y198500D02*
D03*
X85000D02*
D03*
X133500Y207500D02*
D03*
X143500Y217500D02*
D03*
X123500D02*
D03*
Y197500D02*
D03*
X143500D02*
D03*
X16500Y207500D02*
D03*
X26500Y217500D02*
D03*
X6500D02*
D03*
Y197500D02*
D03*
X26500D02*
D03*
D121*
X29358Y10205D02*
D03*
X11642D02*
D03*
Y35795D02*
D03*
X29358D02*
D03*
X74500Y84500D02*
D03*
X64500D02*
D03*
X54500D02*
D03*
X74500Y54500D02*
D03*
X54500D02*
D03*
X64500D02*
D03*
X44500Y84500D02*
D03*
D122*
Y54500D02*
D03*
M02*
