%FSLAX25Y25*%
%MOIN*%
G70*
G01*
G75*
G04 Layer_Color=16711935*
%ADD10C,0.01200*%
%ADD11C,0.01100*%
%ADD12R,0.03000X0.03000*%
%ADD13R,0.01122X0.30709*%
%ADD14R,0.02362X0.12244*%
%ADD15R,0.02953X0.13031*%
%ADD16R,0.03000X0.03000*%
%ADD17R,0.03543X0.03150*%
%ADD18R,0.03100X0.03100*%
%ADD19R,0.04449X0.05787*%
%ADD20R,0.07874X0.04724*%
%ADD21R,0.09449X0.10236*%
%ADD22R,0.01200X0.05300*%
%ADD23R,0.07100X0.07500*%
%ADD24R,0.09100X0.07500*%
%ADD25R,0.05000X0.02992*%
%ADD26R,0.02992X0.05000*%
%ADD27R,0.00787X0.02658*%
%ADD28R,0.01496X0.06100*%
%ADD29R,0.05118X0.04921*%
%ADD30R,0.01969X0.01969*%
%ADD31R,0.01969X0.01969*%
%ADD32R,0.12992X0.17323*%
%ADD33R,0.15354X0.24410*%
%ADD34R,0.05787X0.04449*%
%ADD35R,0.01181X0.02047*%
%ADD36R,0.01181X0.01929*%
%ADD37R,0.05079X0.10709*%
%ADD38R,0.01063X0.03150*%
%ADD39R,0.05512X0.04724*%
%ADD40O,0.08661X0.02362*%
%ADD41R,0.03347X0.01102*%
%ADD42R,0.06496X0.09449*%
%ADD43R,0.02362X0.00984*%
%ADD44R,0.00984X0.02362*%
%ADD45R,0.20079X0.20079*%
%ADD46R,0.03937X0.02756*%
%ADD47C,0.00945*%
%ADD48C,0.03937*%
%ADD49C,0.02500*%
%ADD50C,0.00500*%
%ADD51C,0.01000*%
%ADD52C,0.00800*%
%ADD53C,0.02000*%
%ADD54C,0.01500*%
%ADD55C,0.00600*%
%ADD56C,0.06000*%
%ADD57C,0.07000*%
%ADD58C,0.12500*%
%ADD59C,0.09000*%
%ADD60C,0.05906*%
%ADD61C,0.07874*%
%ADD62R,0.05906X0.05906*%
%ADD63C,0.03100*%
%ADD64C,0.01400*%
%ADD65C,0.01969*%
%ADD66C,0.04000*%
%ADD67C,0.04800*%
%ADD68C,0.14500*%
%ADD69C,0.07500*%
%ADD70C,0.05937*%
%ADD71C,0.09874*%
%ADD72C,0.05543*%
%ADD73C,0.03400*%
%ADD74C,0.02700*%
%ADD75C,0.08000*%
%ADD76C,0.02787*%
%ADD77C,0.00984*%
%ADD78C,0.00787*%
%ADD79C,0.00394*%
%ADD80C,0.01575*%
%ADD81C,0.02362*%
%ADD82C,0.01600*%
%ADD83R,0.04331X0.04331*%
%ADD84R,0.03300X0.03300*%
%ADD85R,0.03300X0.03300*%
%ADD86R,0.03843X0.03450*%
%ADD87R,0.03400X0.03400*%
%ADD88R,0.04749X0.06087*%
%ADD89R,0.08174X0.05024*%
%ADD90R,0.09749X0.10536*%
%ADD91R,0.01500X0.05600*%
%ADD92R,0.07400X0.07800*%
%ADD93R,0.09400X0.07800*%
%ADD94R,0.05300X0.03292*%
%ADD95R,0.03292X0.05300*%
%ADD96R,0.01087X0.02958*%
%ADD97R,0.01796X0.06400*%
%ADD98R,0.05418X0.05221*%
%ADD99R,0.02269X0.02269*%
%ADD100R,0.02269X0.02269*%
%ADD101R,0.13292X0.17623*%
%ADD102R,0.15654X0.24710*%
%ADD103R,0.06087X0.04749*%
%ADD104R,0.01575X0.02441*%
%ADD105R,0.01575X0.02323*%
%ADD106R,0.05379X0.11009*%
%ADD107R,0.01363X0.03450*%
%ADD108R,0.05812X0.05024*%
%ADD109O,0.08961X0.02662*%
%ADD110R,0.03647X0.01402*%
%ADD111R,0.06796X0.09749*%
%ADD112R,0.20379X0.20379*%
%ADD113R,0.04237X0.03056*%
%ADD114C,0.01245*%
%ADD115C,0.11811*%
%ADD116C,0.06300*%
%ADD117C,0.00300*%
%ADD118C,0.07300*%
%ADD119C,0.12800*%
%ADD120C,0.09300*%
%ADD121C,0.06206*%
%ADD122R,0.06206X0.06206*%
D116*
X302500Y170500D02*
D03*
X282500D02*
D03*
X292500D02*
D03*
X245000Y161000D02*
D03*
Y151000D02*
D03*
Y181000D02*
D03*
Y171000D02*
D03*
X255000Y161000D02*
D03*
Y151000D02*
D03*
Y181000D02*
D03*
Y171000D02*
D03*
D117*
X290500Y97500D02*
D03*
X306500Y113500D02*
D03*
X290500Y120000D02*
D03*
X306500Y136000D02*
D03*
X290500Y140500D02*
D03*
X306500Y156500D02*
D03*
D118*
X255000Y134000D02*
D03*
X245000D02*
D03*
X245000Y96000D02*
D03*
X255000D02*
D03*
X245000Y109000D02*
D03*
X255000D02*
D03*
X245000Y122000D02*
D03*
X255000D02*
D03*
X14000Y179500D02*
D03*
X159000Y187000D02*
D03*
D119*
X98500Y145000D02*
D03*
D120*
X75000Y208500D02*
D03*
X85000Y218500D02*
D03*
X65000D02*
D03*
Y198500D02*
D03*
X85000D02*
D03*
X133500Y207500D02*
D03*
X143500Y217500D02*
D03*
X123500D02*
D03*
Y197500D02*
D03*
X143500D02*
D03*
X16500Y207500D02*
D03*
X26500Y217500D02*
D03*
X6500D02*
D03*
Y197500D02*
D03*
X26500D02*
D03*
D121*
X29358Y10205D02*
D03*
X11642D02*
D03*
Y35795D02*
D03*
X29358D02*
D03*
X74500Y84500D02*
D03*
X64500D02*
D03*
X54500D02*
D03*
X74500Y54500D02*
D03*
X54500D02*
D03*
X64500D02*
D03*
X44500Y84500D02*
D03*
D122*
Y54500D02*
D03*
M02*
