%FSLAX25Y25*%
%MOIN*%
G70*
G01*
G75*
G04 Layer_Physical_Order=1*
G04 Layer_Color=255*
%ADD10C,0.01200*%
%ADD11C,0.01100*%
%ADD12R,0.03000X0.03000*%
%ADD13R,0.01122X0.30709*%
%ADD14R,0.02362X0.12244*%
%ADD15R,0.02953X0.13031*%
%ADD16R,0.03000X0.03000*%
%ADD17R,0.03543X0.03150*%
%ADD18R,0.03100X0.03100*%
%ADD19R,0.04449X0.05787*%
%ADD20R,0.07874X0.04724*%
%ADD21R,0.09449X0.10236*%
%ADD22R,0.01200X0.05300*%
%ADD23R,0.07100X0.07500*%
%ADD24R,0.09100X0.07500*%
%ADD25R,0.05000X0.02992*%
%ADD26R,0.02992X0.05000*%
%ADD27R,0.00787X0.02658*%
%ADD28R,0.01496X0.06100*%
%ADD29R,0.05118X0.04921*%
%ADD30R,0.01969X0.01969*%
%ADD31R,0.01969X0.01969*%
%ADD32R,0.12992X0.17323*%
%ADD33R,0.15354X0.24410*%
%ADD34R,0.05787X0.04449*%
%ADD35R,0.01181X0.02047*%
%ADD36R,0.01181X0.01929*%
%ADD37R,0.05079X0.10709*%
%ADD38R,0.01063X0.03150*%
%ADD39R,0.05512X0.04724*%
%ADD40O,0.08661X0.02362*%
%ADD41R,0.03347X0.01102*%
%ADD42R,0.06496X0.09449*%
%ADD43R,0.02362X0.00984*%
%ADD44R,0.00984X0.02362*%
%ADD45R,0.20079X0.20079*%
%ADD46R,0.03937X0.02756*%
%ADD47C,0.00945*%
%ADD48C,0.03937*%
%ADD49C,0.02500*%
%ADD50C,0.00500*%
%ADD51C,0.01000*%
%ADD52C,0.00800*%
%ADD53C,0.02000*%
%ADD54C,0.01500*%
%ADD55C,0.00600*%
%ADD56C,0.06000*%
%ADD57C,0.07000*%
%ADD58C,0.12500*%
%ADD59C,0.09000*%
%ADD60C,0.05906*%
%ADD61C,0.07874*%
%ADD62R,0.05906X0.05906*%
%ADD63C,0.03100*%
%ADD64C,0.01400*%
%ADD65C,0.01969*%
G36*
X50567Y117339D02*
X49464D01*
Y119307D01*
X50567D01*
Y117339D01*
D02*
G37*
G36*
X48598D02*
X47496D01*
Y119307D01*
X48598D01*
Y117339D01*
D02*
G37*
G36*
X32500Y102000D02*
Y95500D01*
X31000Y94000D01*
X7500D01*
Y104000D01*
X30500D01*
X32500Y102000D01*
D02*
G37*
G36*
X15500Y139000D02*
Y124000D01*
X14000Y122500D01*
X8500D01*
X7000Y124000D01*
Y139500D01*
X15500Y139000D01*
D02*
G37*
G36*
X50567Y128756D02*
X49464D01*
Y130724D01*
X50567D01*
Y128756D01*
D02*
G37*
G36*
X48598D02*
X47496D01*
Y130724D01*
X48598D01*
Y128756D01*
D02*
G37*
G36*
X45031Y128532D02*
Y125531D01*
X39031D01*
Y125561D01*
X38446Y125444D01*
X37950Y125113D01*
X37618Y124617D01*
X37502Y124031D01*
X37618Y123446D01*
X37950Y122950D01*
X38446Y122618D01*
X39031Y122502D01*
X45031Y122531D01*
Y119532D01*
X32531D01*
Y119512D01*
X32141Y119589D01*
X31811Y119810D01*
X31589Y120141D01*
X31512Y120531D01*
X31532Y127532D01*
X31512D01*
X31589Y127922D01*
X31811Y128252D01*
X32141Y128473D01*
X32531Y128551D01*
X45031Y128532D01*
D02*
G37*
G36*
X137000Y25500D02*
Y23000D01*
X141500Y18500D01*
Y13000D01*
X137000D01*
X131500Y18500D01*
Y25500D01*
X132000Y26000D01*
X136500D01*
X137000Y25500D01*
D02*
G37*
G36*
X108500Y16500D02*
Y12500D01*
X100500D01*
X97500Y15500D01*
Y19000D01*
X106000D01*
X108500Y16500D01*
D02*
G37*
G36*
X261500Y33000D02*
Y9500D01*
X260500Y8500D01*
X257500D01*
X257000Y9000D01*
Y33500D01*
X261000D01*
X261500Y33000D01*
D02*
G37*
G36*
X129250Y25500D02*
Y18500D01*
X122750Y12000D01*
X122750D01*
X122750Y12000D01*
Y5250D01*
X122000Y4500D01*
X118000Y4500D01*
Y17250D01*
Y17250D01*
X123750Y23000D01*
Y25500D01*
X124250Y26000D01*
X128750D01*
X129250Y25500D01*
D02*
G37*
G36*
X16500Y77500D02*
Y62500D01*
X15000Y61000D01*
X9500D01*
X8000Y62500D01*
Y78000D01*
X16500Y77500D01*
D02*
G37*
G36*
X288500Y58500D02*
Y48500D01*
X287500Y47500D01*
X273000D01*
X271500Y49000D01*
Y59500D01*
X287500D01*
X288500Y58500D01*
D02*
G37*
G36*
X157890Y25942D02*
X158221Y25721D01*
X158442Y25390D01*
X158520Y25000D01*
X158500D01*
X158520Y21000D01*
X158442Y20610D01*
X158221Y20279D01*
X157890Y20058D01*
X157500Y19981D01*
Y20000D01*
X154000Y20039D01*
X153220Y19884D01*
X152558Y19442D01*
X152116Y18780D01*
X151961Y18000D01*
X152000D01*
Y13000D01*
X150500D01*
X150480Y25000D01*
X150558Y25390D01*
X150779Y25721D01*
X151110Y25942D01*
X151500Y26020D01*
Y26000D01*
X157500Y26020D01*
X157890Y25942D01*
D02*
G37*
G36*
X68149Y136414D02*
X67990Y136031D01*
X68031D01*
Y123500D01*
X64063D01*
X62031Y125531D01*
X53031D01*
X52990Y136031D01*
X53149Y136414D01*
X53531Y136573D01*
Y136531D01*
X68531Y136573D01*
X68149Y136414D01*
D02*
G37*
G36*
X245500Y208000D02*
X243500Y206000D01*
X234000D01*
Y215000D01*
X230000Y219000D01*
Y221000D01*
X245500D01*
Y208000D01*
D02*
G37*
G36*
X228000Y206000D02*
X216000D01*
X211000Y211000D01*
X206500D01*
Y218500D01*
X206000Y219000D01*
Y221000D01*
X228000D01*
Y206000D01*
D02*
G37*
G36*
X257000Y205000D02*
X257000Y204000D01*
X256000Y203000D01*
X251000Y203000D01*
X248000Y206000D01*
Y211000D01*
X251000D01*
X257000Y205000D01*
D02*
G37*
G36*
X185000Y211500D02*
X184500Y211000D01*
X181000D01*
Y223000D01*
X185000D01*
Y211500D01*
D02*
G37*
G36*
X253500Y220000D02*
Y216000D01*
X251000Y213500D01*
X247500D01*
Y221000D01*
X252500D01*
X253500Y220000D01*
D02*
G37*
G36*
X166000Y223000D02*
Y213500D01*
X162000Y213500D01*
X161500Y214000D01*
Y222500D01*
X162000Y223000D01*
X166000Y223000D01*
D02*
G37*
G36*
X204000Y211000D02*
X199000D01*
Y218000D01*
X202000Y221000D01*
X204000D01*
Y211000D01*
D02*
G37*
G36*
X43500Y170500D02*
X28000D01*
Y175500D01*
X30000Y177500D01*
X43500D01*
Y170500D01*
D02*
G37*
G36*
X91000Y178000D02*
Y163500D01*
X90000Y162500D01*
X80000D01*
Y178000D01*
X81500Y179500D01*
X89500D01*
X91000Y178000D01*
D02*
G37*
G36*
X43500Y167500D02*
Y160000D01*
X32000D01*
Y156500D01*
X30500Y155000D01*
X7000D01*
Y165000D01*
X28000D01*
Y168000D01*
X43000D01*
X43500Y167500D01*
D02*
G37*
G36*
X241500Y193500D02*
X254500D01*
Y188500D01*
X241500D01*
X241000Y189000D01*
X238500D01*
Y195500D01*
X239500D01*
X241500Y193500D01*
D02*
G37*
G36*
X235500Y201500D02*
Y197000D01*
X232500D01*
X230500Y199000D01*
X227500D01*
Y202500D01*
X229000Y204000D01*
X233000D01*
X235500Y201500D01*
D02*
G37*
G36*
X248000Y204000D02*
X251000Y201000D01*
Y196000D01*
X245000D01*
Y197500D01*
X242500Y200000D01*
X238500Y200000D01*
X237500Y199000D01*
X237500Y197000D01*
X236500D01*
X236500Y201500D01*
X239000Y204000D01*
X248000Y204000D01*
D02*
G37*
G36*
X235500Y189000D02*
X228500D01*
X227500Y190000D01*
Y196000D01*
X235500D01*
Y189000D01*
D02*
G37*
D10*
X219831Y40650D02*
G03*
X220250Y41069I0J419D01*
G01*
X282779Y115000D02*
X292000D01*
X272500Y125279D02*
X282779Y115000D01*
X278600Y94900D02*
X293400D01*
X272500Y101000D02*
X278600Y94900D01*
X272500Y101000D02*
Y103750D01*
X183500Y17500D02*
Y22500D01*
X189500Y28500D01*
X245000Y134000D02*
Y135500D01*
X216500D02*
X245000D01*
X214625Y133625D02*
X216500Y135500D01*
X219000Y119000D02*
Y126750D01*
X214625Y132125D02*
Y133625D01*
X210000Y132250D02*
Y134250D01*
Y137500D01*
X205500Y133250D02*
Y137000D01*
Y133250D02*
X206500Y132250D01*
X204000Y61500D02*
X207000Y58500D01*
X198300Y61500D02*
X204000D01*
X197250Y62550D02*
X198300Y61500D01*
X207000Y58500D02*
X209000D01*
X167500Y200279D02*
X168028Y200807D01*
X167500Y190500D02*
Y200279D01*
Y190500D02*
X170728D01*
X206250Y193000D02*
X210500D01*
X196500Y203500D02*
Y209500D01*
X195000Y202000D02*
X196500Y203500D01*
X193750Y202000D02*
X195000D01*
X196500Y209500D02*
X197500Y210500D01*
X264250Y184750D02*
X264500Y185000D01*
X299000Y145500D02*
X303500Y141000D01*
Y106000D02*
Y141000D01*
X300050Y102550D02*
X303500Y106000D01*
X293400Y94900D02*
X299000Y100500D01*
Y102550D01*
X286937Y128197D02*
X296247D01*
X299000Y130950D01*
X296950Y151450D02*
X299000D01*
X294000Y148500D02*
X296950Y151450D01*
X286937Y148500D02*
X294000D01*
X113500Y142500D02*
X135500D01*
X94500Y161500D02*
X113500Y142500D01*
X94500Y161500D02*
Y185500D01*
X111000Y148500D02*
X135750D01*
X98000Y161500D02*
X111000Y148500D01*
X98000Y161500D02*
Y198000D01*
X267000Y143000D02*
Y146250D01*
X267000Y146250D01*
X282000Y135000D02*
X283500Y133500D01*
X268500Y135000D02*
X282000D01*
X267000Y133500D02*
X268500Y135000D01*
X282000Y112500D02*
X283500Y111000D01*
X268500Y112500D02*
X282000D01*
X267000Y111000D02*
X268500Y112500D01*
X270000Y156000D02*
X281500D01*
X268000Y154000D02*
X270000Y156000D01*
X268000Y152750D02*
Y154000D01*
X281500Y156000D02*
X283500Y154000D01*
X299000Y124750D02*
X303125Y120625D01*
X299000Y124750D02*
Y125050D01*
Y102550D02*
X300050D01*
X283500Y128697D02*
Y133500D01*
X272500Y125279D02*
Y125750D01*
X256250Y76000D02*
Y85500D01*
X252000Y85500D02*
X252000Y85500D01*
X256250D01*
X256750Y76000D02*
X257250Y75500D01*
X198250Y171500D02*
X198750D01*
X198250D02*
X200750Y174000D01*
X197500Y171500D02*
X198250D01*
X200125Y170125D02*
X200750Y169500D01*
X198750Y171500D02*
X200125Y170125D01*
X143250Y187750D02*
X144000Y188500D01*
X143250Y184000D02*
Y187750D01*
Y179500D02*
Y184000D01*
X211250Y185250D02*
X238349D01*
X209500Y187000D02*
X211250Y185250D01*
X239750Y186652D02*
Y190500D01*
X200750Y154750D02*
Y155500D01*
X298050Y145550D02*
X299000D01*
Y145500D02*
Y145550D01*
X126000Y152750D02*
X131000D01*
X121000D02*
X126000D01*
X116000D02*
X121000D01*
X131000D02*
X138750Y160500D01*
Y161250D01*
X143000D01*
X206250Y206500D02*
X210500D01*
X206250Y182500D02*
X210500D01*
X206250Y164500D02*
X210500D01*
X206250D02*
Y178000D01*
X193750Y197500D02*
Y202000D01*
Y193000D02*
Y197500D01*
X187250Y179750D02*
Y187500D01*
X155250Y201000D02*
Y206000D01*
Y196500D02*
Y201000D01*
X152250Y148000D02*
Y153000D01*
X152000Y166750D02*
X152750Y166000D01*
X155000D01*
X147500Y166750D02*
X152000D01*
X143000D02*
X147500D01*
X102000Y192500D02*
X117000Y207500D01*
X102000Y162000D02*
Y192500D01*
Y162000D02*
X109500Y154500D01*
X87500Y208500D02*
X98000Y198000D01*
X90500Y189500D02*
X94500Y185500D01*
X214500Y122500D02*
Y126750D01*
X220250Y41069D02*
Y47500D01*
X210819Y34000D02*
X211169Y34350D01*
X203250Y34000D02*
X210819D01*
X203250D02*
Y39750D01*
X210500Y47500D02*
X220250D01*
X172500Y25000D02*
Y33500D01*
X172350Y15775D02*
Y24850D01*
X172500Y25000D01*
Y33500D02*
Y40500D01*
X304000Y81500D02*
Y86500D01*
Y76500D02*
Y81500D01*
X294500Y76500D02*
X304000D01*
X27250Y64500D02*
Y70000D01*
Y75500D01*
X54500Y84500D02*
Y91750D01*
X51750Y94500D02*
X54500Y91750D01*
X56000Y7500D02*
X61000D01*
X51000D02*
X56000D01*
X44500Y84500D02*
Y92750D01*
X46250Y94500D01*
X27250Y75500D02*
Y80250D01*
X56000Y7500D02*
Y16500D01*
X51781Y113531D02*
X53031D01*
X57712Y118212D01*
Y121143D01*
X54839Y122063D02*
X56791D01*
X57712Y121143D01*
X51032Y120095D02*
X54839D01*
X46281Y113531D02*
Y115573D01*
X48047Y117339D01*
X62031Y118532D02*
X66781D01*
X43224Y126000D02*
Y127969D01*
Y120095D02*
Y122063D01*
X39531Y124031D02*
X43224D01*
X72281Y118532D02*
Y124031D01*
X54839D02*
X61381D01*
X64081Y121332D01*
X72231D01*
X72781Y129532D02*
X77031D01*
X58949Y176500D02*
X69750D01*
X58949Y171500D02*
X70250D01*
Y166000D02*
Y171500D01*
X75750Y161750D02*
Y166000D01*
X191750Y68500D02*
Y74000D01*
X64250Y97250D02*
X68250D01*
Y94500D02*
Y97250D01*
Y99000D01*
X197250Y62550D02*
Y63000D01*
X29358Y35795D02*
X39653Y25500D01*
X69000D01*
X118000Y74500D01*
X32750Y40250D02*
Y47500D01*
Y40250D02*
X41000Y32000D01*
X164000Y103500D02*
X170000D01*
X191500Y102250D02*
Y102750D01*
Y106000D01*
X272990Y152240D02*
X279063D01*
Y144760D02*
X283500Y149197D01*
Y154000D01*
X279063Y101760D02*
X283500Y106197D01*
Y111000D01*
X267000Y121500D02*
Y125250D01*
Y108750D02*
Y111000D01*
X286937Y105000D02*
X295550D01*
X299000Y108450D01*
X279063Y124260D02*
X283500Y128697D01*
X18000Y208000D02*
X28000D01*
X46500Y189500D01*
X190250Y83500D02*
X190750Y84000D01*
X187500Y83500D02*
X190250D01*
X51750Y94500D02*
Y99000D01*
X272000Y109250D02*
X272500D01*
X278073D01*
X267000Y130750D02*
Y133500D01*
X46250Y94500D02*
Y104750D01*
X206500Y131750D02*
Y132250D01*
X41000Y32000D02*
X66500D01*
X85000Y50500D01*
Y59500D01*
X267500Y99000D02*
Y103750D01*
X72531Y129781D02*
X72781Y129532D01*
X272500Y131250D02*
X278073D01*
X142250Y99250D02*
Y101000D01*
Y99250D02*
X143000Y98500D01*
X145000D01*
X201000Y132500D02*
Y136500D01*
X133500Y207500D02*
X136000Y205000D01*
X75000Y208500D02*
X87500D01*
X46500Y189500D02*
X90500D01*
X117000Y207500D02*
X133500D01*
X144500Y196500D02*
X155250D01*
X143500Y197500D02*
X144500Y196500D01*
X200750Y154750D02*
X207000Y148500D01*
X207500D01*
X206250Y155500D02*
X212500Y149250D01*
Y148500D02*
Y149250D01*
X238000Y184901D02*
X239750Y186652D01*
X217500Y148500D02*
X238000Y169000D01*
Y184901D01*
D11*
X153679Y68007D02*
G03*
X154402Y69752I-1745J1745D01*
G01*
X156828Y68007D02*
G03*
X157551Y69752I-1745J1745D01*
G01*
X166829Y54579D02*
G03*
X167625Y56500I-1921J1921D01*
G01*
X167000Y69613D02*
G03*
X167625Y68105I2133J0D01*
G01*
X169525Y56500D02*
G03*
X170073Y55177I1870J0D01*
G01*
X169525Y68105D02*
G03*
X170150Y69613I-1508J1508D01*
G01*
X144000Y19625D02*
G03*
X143350Y18056I1569J-1569D01*
G01*
X147485Y61813D02*
G03*
X144000Y53399I8415J-8415D01*
G01*
X145950Y18904D02*
G03*
X145900Y19025I-171J0D01*
G01*
X148829Y60007D02*
G03*
X145900Y52936I7071J-7071D01*
G01*
X176449Y68802D02*
G03*
X176500Y68678I175J0D01*
G01*
X174600Y66612D02*
G03*
X174022Y68007I-1973J0D01*
G01*
X173299Y69752D02*
G03*
X174022Y68007I2468J0D01*
G01*
X168600Y41973D02*
G03*
X166000Y48250I-8877J0D01*
G01*
X171500D02*
G03*
X170600Y46077I2173J-2173D01*
G01*
X145900Y19025D02*
Y52936D01*
X144000Y19625D02*
Y53399D01*
X147485Y61813D02*
X153679Y68007D01*
X174400Y35200D02*
Y39300D01*
X176400Y35200D02*
Y39400D01*
X168600Y31800D02*
Y35200D01*
X170600Y31800D02*
Y35200D01*
X174400Y31800D02*
Y35200D01*
X176400Y31800D02*
Y35200D01*
Y30100D02*
Y31800D01*
Y30100D02*
X177550Y28950D01*
Y15775D02*
Y28950D01*
X174400Y28100D02*
Y31800D01*
Y28100D02*
X175000Y27500D01*
Y15825D02*
Y27500D01*
X170600Y27600D02*
Y31800D01*
X169750Y26750D02*
X170600Y27600D01*
X169750Y15775D02*
Y26750D01*
X168600Y29600D02*
Y31800D01*
X167150Y28150D02*
X168600Y29600D01*
X167150Y15775D02*
Y28150D01*
X170150Y69613D02*
Y69752D01*
X166000Y53750D02*
X166829Y54579D01*
X167625Y56500D02*
Y68105D01*
X167000Y69613D02*
Y69752D01*
X169525Y56500D02*
Y68105D01*
X170073Y55177D02*
X171500Y53750D01*
X143350Y15775D02*
Y18056D01*
X145950Y15775D02*
Y18904D01*
X148829Y60007D02*
X156828Y68007D01*
X176449Y68802D02*
Y69752D01*
X176500Y39500D02*
Y68678D01*
X174600Y39500D02*
Y66612D01*
X168600Y35200D02*
Y41973D01*
X170600Y35200D02*
Y46077D01*
D12*
X231750Y220000D02*
D03*
X226250D02*
D03*
X207750D02*
D03*
X202250D02*
D03*
X206250Y160500D02*
D03*
X200750D02*
D03*
X142250Y84500D02*
D03*
X136750D02*
D03*
X198250Y18500D02*
D03*
X192750D02*
D03*
X92250Y32000D02*
D03*
X86750D02*
D03*
X46250Y99000D02*
D03*
X51750D02*
D03*
X46250Y94500D02*
D03*
X51750D02*
D03*
X136750Y75000D02*
D03*
X142250D02*
D03*
X136750Y70000D02*
D03*
X142250D02*
D03*
X136750Y65000D02*
D03*
X142250D02*
D03*
X136750Y102500D02*
D03*
X142250D02*
D03*
X136750Y98000D02*
D03*
X142250D02*
D03*
X136750Y60000D02*
D03*
X142250D02*
D03*
X136750Y89000D02*
D03*
X142250D02*
D03*
X197250Y85000D02*
D03*
X191750D02*
D03*
X197250Y102000D02*
D03*
X191750D02*
D03*
X136750Y80000D02*
D03*
X142250D02*
D03*
X197250Y51500D02*
D03*
X191750D02*
D03*
X197250Y56000D02*
D03*
X191750D02*
D03*
X220250Y7000D02*
D03*
X214750D02*
D03*
X197250Y63000D02*
D03*
X191750D02*
D03*
X246750Y49000D02*
D03*
X241250D02*
D03*
X197250Y79500D02*
D03*
X191750D02*
D03*
X246750Y68000D02*
D03*
X241250D02*
D03*
X136750Y93500D02*
D03*
X142250D02*
D03*
X101750Y104500D02*
D03*
X96250D02*
D03*
X197250Y96500D02*
D03*
X191750D02*
D03*
X197250Y91000D02*
D03*
X191750D02*
D03*
X214250Y89500D02*
D03*
X208750D02*
D03*
X214250Y85000D02*
D03*
X208750D02*
D03*
X197250Y68500D02*
D03*
X191750D02*
D03*
X197250Y74000D02*
D03*
X191750D02*
D03*
X43800Y140000D02*
D03*
X49300D02*
D03*
X49281Y135531D02*
D03*
X43782D02*
D03*
X66800Y134000D02*
D03*
X72300D02*
D03*
X46281Y113531D02*
D03*
X51781D02*
D03*
X56200Y154500D02*
D03*
X50700D02*
D03*
X32750Y52000D02*
D03*
X27250D02*
D03*
X122250Y34000D02*
D03*
X116750D02*
D03*
X197750D02*
D03*
X203250D02*
D03*
X225750Y47500D02*
D03*
X220250D02*
D03*
X256250Y76500D02*
D03*
X261750D02*
D03*
X256250Y81000D02*
D03*
X261750D02*
D03*
X256250Y85500D02*
D03*
X261750D02*
D03*
X226750Y62500D02*
D03*
X221250D02*
D03*
Y112000D02*
D03*
X226750D02*
D03*
X221250Y106500D02*
D03*
X226750D02*
D03*
X221250Y101000D02*
D03*
X226750D02*
D03*
X73750Y99000D02*
D03*
X68250D02*
D03*
X73750Y94500D02*
D03*
X68250D02*
D03*
X221250Y90000D02*
D03*
X226750D02*
D03*
X221250Y79000D02*
D03*
X226750D02*
D03*
X221250Y68000D02*
D03*
X226750D02*
D03*
Y95500D02*
D03*
X221250D02*
D03*
X226750Y84500D02*
D03*
X221250D02*
D03*
X226750Y73500D02*
D03*
X221250D02*
D03*
X86750Y9000D02*
D03*
X92250D02*
D03*
X32750Y64500D02*
D03*
X27250D02*
D03*
X32750Y70000D02*
D03*
X27250D02*
D03*
X32750Y75500D02*
D03*
X27250D02*
D03*
X72281Y129532D02*
D03*
X66781D02*
D03*
X72250Y125000D02*
D03*
X66750D02*
D03*
X66781Y118532D02*
D03*
X72281D02*
D03*
X70250Y176000D02*
D03*
X75750D02*
D03*
X70250Y171500D02*
D03*
X75750D02*
D03*
X75750Y167000D02*
D03*
X70250D02*
D03*
X27250Y47500D02*
D03*
X32750D02*
D03*
X136750Y107000D02*
D03*
X142250D02*
D03*
X96250Y67500D02*
D03*
X101750D02*
D03*
X157750Y148000D02*
D03*
X152250D02*
D03*
X157750Y153000D02*
D03*
X152250D02*
D03*
X160750Y196500D02*
D03*
X155250D02*
D03*
X160750Y201000D02*
D03*
X155250D02*
D03*
X160750Y206000D02*
D03*
X155250D02*
D03*
X188250Y193000D02*
D03*
X193750D02*
D03*
X188250Y197500D02*
D03*
X193750D02*
D03*
X188250Y202000D02*
D03*
X193750D02*
D03*
Y187500D02*
D03*
X188250D02*
D03*
X193750Y183000D02*
D03*
X188250D02*
D03*
X200750Y169500D02*
D03*
X206250D02*
D03*
X200750Y178500D02*
D03*
X206250D02*
D03*
X200750Y174000D02*
D03*
X206250D02*
D03*
X148750Y184000D02*
D03*
X143250D02*
D03*
X148750Y179500D02*
D03*
X143250D02*
D03*
X200750Y156000D02*
D03*
X206250D02*
D03*
X200750Y165000D02*
D03*
X206250D02*
D03*
X160750Y210500D02*
D03*
X155250D02*
D03*
X188250Y206500D02*
D03*
X193750D02*
D03*
X200750Y197500D02*
D03*
X206250D02*
D03*
X200750Y187500D02*
D03*
X206250D02*
D03*
X200750Y202000D02*
D03*
X206250D02*
D03*
Y193000D02*
D03*
X200750D02*
D03*
X206250Y183000D02*
D03*
X200750D02*
D03*
X206250Y206500D02*
D03*
X200750D02*
D03*
X239750Y190500D02*
D03*
X234250D02*
D03*
X243750Y215000D02*
D03*
X249250D02*
D03*
Y209500D02*
D03*
X243750D02*
D03*
D13*
X181010Y209646D02*
D03*
X165990D02*
D03*
D14*
X173500Y200413D02*
D03*
D15*
X168028Y200807D02*
D03*
X178972D02*
D03*
D16*
X140500Y132250D02*
D03*
Y126750D02*
D03*
X145500Y132250D02*
D03*
Y126750D02*
D03*
X267500Y125750D02*
D03*
Y131250D02*
D03*
Y109250D02*
D03*
Y103750D02*
D03*
X272500Y103750D02*
D03*
Y109250D02*
D03*
X167000Y53750D02*
D03*
Y48250D02*
D03*
X171500Y53750D02*
D03*
Y48250D02*
D03*
X99000Y23250D02*
D03*
Y17750D02*
D03*
X164000Y115750D02*
D03*
Y110250D02*
D03*
X168500Y115750D02*
D03*
Y110250D02*
D03*
X158500Y48250D02*
D03*
Y53750D02*
D03*
X159500Y115750D02*
D03*
Y110250D02*
D03*
X29500Y166300D02*
D03*
Y171800D02*
D03*
X154000Y48250D02*
D03*
Y53750D02*
D03*
X210000Y126750D02*
D03*
Y132250D02*
D03*
X205500Y126750D02*
D03*
Y132250D02*
D03*
X201000Y126750D02*
D03*
Y132250D02*
D03*
X219000Y126750D02*
D03*
Y132250D02*
D03*
X214500Y126750D02*
D03*
Y132250D02*
D03*
X190500Y126750D02*
D03*
Y132250D02*
D03*
X150500Y126750D02*
D03*
Y132250D02*
D03*
X155500Y126750D02*
D03*
Y132250D02*
D03*
X160500Y126750D02*
D03*
Y132250D02*
D03*
X165500Y126750D02*
D03*
Y132250D02*
D03*
X170500Y126750D02*
D03*
Y132250D02*
D03*
X175500Y126750D02*
D03*
Y132250D02*
D03*
X180500Y126750D02*
D03*
Y132250D02*
D03*
X185500Y126750D02*
D03*
Y132250D02*
D03*
X123500Y57250D02*
D03*
Y62750D02*
D03*
X272500Y131250D02*
D03*
Y125750D02*
D03*
X272500Y151750D02*
D03*
Y146250D02*
D03*
X267500Y146250D02*
D03*
Y151750D02*
D03*
X152000Y161250D02*
D03*
Y166750D02*
D03*
X147500Y161250D02*
D03*
Y166750D02*
D03*
X143000Y161250D02*
D03*
Y166750D02*
D03*
X180500Y143250D02*
D03*
Y137750D02*
D03*
X116000Y158250D02*
D03*
Y152750D02*
D03*
X121000Y158250D02*
D03*
Y152750D02*
D03*
X126000Y158250D02*
D03*
Y152750D02*
D03*
X131000Y158250D02*
D03*
Y152750D02*
D03*
X229000Y200250D02*
D03*
Y194750D02*
D03*
D17*
X279063Y131240D02*
D03*
Y123760D02*
D03*
X286937Y127500D02*
D03*
Y148500D02*
D03*
X279063Y144760D02*
D03*
Y152240D02*
D03*
X286937Y105000D02*
D03*
X279063Y101260D02*
D03*
Y108740D02*
D03*
D18*
X299000Y108450D02*
D03*
Y102550D02*
D03*
Y125050D02*
D03*
Y130950D02*
D03*
X298500Y145550D02*
D03*
Y151450D02*
D03*
D19*
X220984Y20500D02*
D03*
X214016D02*
D03*
X192016Y9000D02*
D03*
X198984D02*
D03*
X201516Y214000D02*
D03*
X208484D02*
D03*
X247484Y62000D02*
D03*
X240516D02*
D03*
X247484Y55000D02*
D03*
X240516D02*
D03*
X220984Y13500D02*
D03*
X214016D02*
D03*
X141984Y113500D02*
D03*
X135016D02*
D03*
X133984Y22500D02*
D03*
X127016D02*
D03*
D20*
X14488Y111000D02*
D03*
X25512D02*
D03*
X105988Y7000D02*
D03*
X117012D02*
D03*
D21*
X12000Y99098D02*
D03*
Y73902D02*
D03*
X11500Y160099D02*
D03*
Y134902D02*
D03*
D22*
X174950Y15775D02*
D03*
X177550D02*
D03*
X167150D02*
D03*
X169750D02*
D03*
X140750D02*
D03*
X148550D02*
D03*
X151150D02*
D03*
X172350D02*
D03*
X145950D02*
D03*
X143350D02*
D03*
D23*
X130200Y5275D02*
D03*
X141450D02*
D03*
X150450D02*
D03*
X161700D02*
D03*
X171500Y5225D02*
D03*
D24*
X181800D02*
D03*
D25*
X304000Y71500D02*
D03*
Y76500D02*
D03*
Y81500D02*
D03*
Y86500D02*
D03*
X274000Y71500D02*
D03*
Y76500D02*
D03*
Y81500D02*
D03*
Y86500D02*
D03*
X137000Y166500D02*
D03*
Y171500D02*
D03*
Y176500D02*
D03*
Y181500D02*
D03*
X107000Y166500D02*
D03*
Y171500D02*
D03*
Y176500D02*
D03*
Y181500D02*
D03*
D26*
X66000Y37500D02*
D03*
X61000D02*
D03*
X56000D02*
D03*
X51000D02*
D03*
X66000Y7500D02*
D03*
X61000D02*
D03*
X56000D02*
D03*
X51000D02*
D03*
D27*
X176400Y35200D02*
D03*
X174400D02*
D03*
X170600D02*
D03*
X168600D02*
D03*
Y31800D02*
D03*
X170600D02*
D03*
X174400D02*
D03*
X176400D02*
D03*
D28*
X172500Y33500D02*
D03*
D29*
X104500Y73571D02*
D03*
X94500Y82429D02*
D03*
Y73571D02*
D03*
X104500Y82429D02*
D03*
D30*
X180000Y185228D02*
D03*
Y188772D02*
D03*
X174500Y183228D02*
D03*
Y186772D02*
D03*
D31*
X170728Y190500D02*
D03*
X174272D02*
D03*
X244728Y220000D02*
D03*
X248272D02*
D03*
X223228Y182500D02*
D03*
X226772D02*
D03*
X223228Y179000D02*
D03*
X226772D02*
D03*
X223228Y175500D02*
D03*
X226772D02*
D03*
D32*
X277756Y56705D02*
D03*
D33*
X300394Y21272D02*
D03*
X249606D02*
D03*
D34*
X248000Y197984D02*
D03*
Y191016D02*
D03*
D35*
X238968Y198000D02*
D03*
D36*
X237000D02*
D03*
X235032D02*
D03*
Y194968D02*
D03*
X237000D02*
D03*
X238968D02*
D03*
D37*
X236531Y211500D02*
D03*
X225468D02*
D03*
D38*
X124421Y49724D02*
D03*
X122453D02*
D03*
X120484D02*
D03*
X118516D02*
D03*
X116547D02*
D03*
X114579D02*
D03*
X124421Y40276D02*
D03*
X122453D02*
D03*
X120484D02*
D03*
X118516D02*
D03*
X116547D02*
D03*
X114579D02*
D03*
D39*
X219831Y40650D02*
D03*
Y34350D02*
D03*
X211169Y40650D02*
D03*
Y34350D02*
D03*
D40*
X58949Y176500D02*
D03*
Y166500D02*
D03*
Y171500D02*
D03*
Y161500D02*
D03*
X40051Y176500D02*
D03*
Y171500D02*
D03*
Y166500D02*
D03*
Y161500D02*
D03*
D41*
X54839Y127969D02*
D03*
Y126000D02*
D03*
Y124031D02*
D03*
Y122063D02*
D03*
Y120095D02*
D03*
X43224Y127969D02*
D03*
Y124031D02*
D03*
Y126000D02*
D03*
Y120095D02*
D03*
Y122063D02*
D03*
D42*
X49031Y124031D02*
D03*
D43*
X190886Y173827D02*
D03*
Y169890D02*
D03*
Y171858D02*
D03*
Y167921D02*
D03*
Y163984D02*
D03*
Y165953D02*
D03*
Y162016D02*
D03*
Y158079D02*
D03*
Y160047D02*
D03*
Y154142D02*
D03*
Y152173D02*
D03*
Y156110D02*
D03*
X164114Y173827D02*
D03*
Y163984D02*
D03*
Y165953D02*
D03*
Y162016D02*
D03*
Y169890D02*
D03*
Y171858D02*
D03*
Y167921D02*
D03*
Y158079D02*
D03*
Y160047D02*
D03*
Y154142D02*
D03*
Y156110D02*
D03*
Y152173D02*
D03*
D44*
X188327Y176386D02*
D03*
X186358D02*
D03*
X182421D02*
D03*
X180453D02*
D03*
X184390D02*
D03*
X178484D02*
D03*
X176516D02*
D03*
X188327Y149614D02*
D03*
X184390D02*
D03*
X182421D02*
D03*
X186358D02*
D03*
X178484D02*
D03*
X176516D02*
D03*
X180453D02*
D03*
X172579Y176386D02*
D03*
X170610D02*
D03*
X174547D02*
D03*
X168642D02*
D03*
X166673D02*
D03*
X172579Y149614D02*
D03*
X170610D02*
D03*
X174547D02*
D03*
X166673D02*
D03*
X168642D02*
D03*
D45*
X177500Y163000D02*
D03*
D46*
X92225Y20500D02*
D03*
Y24240D02*
D03*
Y16760D02*
D03*
X82776Y24240D02*
D03*
Y16760D02*
D03*
D47*
X182748Y101248D02*
D03*
Y98098D02*
D03*
X179598Y101248D02*
D03*
X182748Y94949D02*
D03*
X179598Y98098D02*
D03*
X176449D02*
D03*
Y101248D02*
D03*
X179598Y94949D02*
D03*
X176449D02*
D03*
X182748Y91799D02*
D03*
Y88650D02*
D03*
X179598Y91799D02*
D03*
X182748Y85500D02*
D03*
X179598Y88650D02*
D03*
X176449D02*
D03*
Y91799D02*
D03*
X179598Y85500D02*
D03*
X176449D02*
D03*
X173299Y98098D02*
D03*
Y94949D02*
D03*
Y101248D02*
D03*
Y91799D02*
D03*
X170150Y94949D02*
D03*
Y98098D02*
D03*
Y101248D02*
D03*
X167000Y91799D02*
D03*
Y94949D02*
D03*
X173299Y88650D02*
D03*
X170150Y91799D02*
D03*
X173299Y85500D02*
D03*
X170150Y88650D02*
D03*
Y85500D02*
D03*
X167000Y88650D02*
D03*
Y85500D02*
D03*
X182748Y76051D02*
D03*
Y82350D02*
D03*
X179598D02*
D03*
X176449D02*
D03*
X182748Y79201D02*
D03*
X179598D02*
D03*
X182748Y69752D02*
D03*
Y72902D02*
D03*
X179598D02*
D03*
Y76051D02*
D03*
Y69752D02*
D03*
X176449D02*
D03*
X173299Y82350D02*
D03*
X176449Y79201D02*
D03*
X173299D02*
D03*
X176449Y76051D02*
D03*
X173299D02*
D03*
X170150Y82350D02*
D03*
X167000D02*
D03*
X170150Y79201D02*
D03*
X167000D02*
D03*
X176449Y72902D02*
D03*
X170150Y76051D02*
D03*
X173299Y69752D02*
D03*
Y72902D02*
D03*
X170150D02*
D03*
X167000D02*
D03*
X170150Y69752D02*
D03*
X167000D02*
D03*
X163850Y101248D02*
D03*
X167000D02*
D03*
X160701Y98098D02*
D03*
X167000D02*
D03*
X163850D02*
D03*
X160701Y101248D02*
D03*
X163850Y91799D02*
D03*
Y88650D02*
D03*
Y94949D02*
D03*
Y85500D02*
D03*
X160701Y91799D02*
D03*
Y94949D02*
D03*
Y85500D02*
D03*
Y88650D02*
D03*
X157551Y101248D02*
D03*
Y98098D02*
D03*
X154402Y101248D02*
D03*
X157551Y94949D02*
D03*
X154402Y98098D02*
D03*
X151252D02*
D03*
Y101248D02*
D03*
X154402Y94949D02*
D03*
X151252D02*
D03*
X157551Y91799D02*
D03*
X154402D02*
D03*
X157551Y85500D02*
D03*
Y88650D02*
D03*
X154402D02*
D03*
X151252Y91799D02*
D03*
X154402Y85500D02*
D03*
X151252Y88650D02*
D03*
X163850Y82350D02*
D03*
Y79201D02*
D03*
X160701Y82350D02*
D03*
X167000Y76051D02*
D03*
X163850D02*
D03*
X160701Y79201D02*
D03*
X157551Y82350D02*
D03*
Y76051D02*
D03*
X163850Y72902D02*
D03*
X160701Y76051D02*
D03*
X163850Y69752D02*
D03*
X160701Y72902D02*
D03*
Y69752D02*
D03*
X151252Y85500D02*
D03*
X154402Y82350D02*
D03*
X151252D02*
D03*
X157551Y79201D02*
D03*
X154402D02*
D03*
X151252D02*
D03*
X157551Y72902D02*
D03*
X154402D02*
D03*
X157551Y69752D02*
D03*
X154402D02*
D03*
Y76051D02*
D03*
X151252D02*
D03*
Y69752D02*
D03*
Y72902D02*
D03*
D48*
X8000Y52000D02*
D03*
X286000Y215500D02*
D03*
X284000Y16000D02*
D03*
D49*
X135000Y46000D02*
X136000D01*
X139000Y49000D01*
X223250Y4000D02*
X234500D01*
X220250Y7000D02*
X223250Y4000D01*
X139000Y49000D02*
Y55500D01*
X125000Y34000D02*
X129000Y38000D01*
X122250Y34000D02*
X125000D01*
X129000Y38000D02*
Y46500D01*
X119500Y28500D02*
X125000Y34000D01*
X109500Y28500D02*
X119500D01*
X105500Y32500D02*
X109500Y28500D01*
X246500Y68000D02*
Y72000D01*
Y68000D02*
X246500Y68000D01*
X236400Y32400D02*
X241500Y37500D01*
X236400Y18592D02*
Y32400D01*
X220984Y13500D02*
X231308D01*
X236400Y18592D01*
X221984Y20000D02*
X233000D01*
X221484Y20500D02*
X221984Y20000D01*
X135750Y108000D02*
X136750Y107000D01*
X131500Y108000D02*
X135750D01*
X98500Y113500D02*
X135016D01*
X87000Y125000D02*
X98500Y113500D01*
X227250Y62000D02*
X231500D01*
X202000Y77500D02*
X204500D01*
X200000Y79500D02*
X202000Y77500D01*
X207500Y74000D02*
X208500Y75000D01*
X197250Y74000D02*
X207500D01*
X241500Y37500D02*
X251500D01*
X263000Y49000D01*
X87000Y125000D02*
Y166000D01*
X228000Y52000D02*
X230000Y50000D01*
X194000Y31000D02*
Y38500D01*
Y31000D02*
X195500Y29500D01*
X225750Y47500D02*
X230000D01*
Y50000D01*
X197750Y29750D02*
Y34000D01*
X207319Y44500D02*
X211169Y40650D01*
X194000Y38500D02*
X207500Y52000D01*
X121050Y71050D02*
X126056D01*
X129000Y68106D01*
X105500Y55500D02*
X121050Y71050D01*
X92225Y24240D02*
X98010D01*
X92225Y16760D02*
X98010D01*
X92225Y20500D02*
Y24240D01*
Y9026D02*
Y16760D01*
X82776Y24240D02*
X86750Y20266D01*
Y9000D02*
Y20266D01*
X130200Y5275D02*
X141450D01*
X150450D01*
X161700D01*
X181800Y5225D02*
X188241D01*
X192016Y9000D01*
X192750Y9734D01*
Y18000D01*
X198250D02*
X198984Y17266D01*
X153000Y43500D02*
Y48250D01*
X49281Y135531D02*
X49332Y135582D01*
Y145332D01*
X46500Y154500D02*
X50700D01*
X58949Y161500D02*
Y166500D01*
Y157249D02*
Y161500D01*
X56200Y154500D02*
X58949Y157249D01*
X105500Y32500D02*
Y34500D01*
Y55500D01*
X129000Y46500D02*
Y68106D01*
X215500Y29500D02*
X222500D01*
X207500Y52000D02*
X217750D01*
X228000D01*
X58949Y157249D02*
X76249D01*
X81000Y162000D01*
X75750Y171500D02*
X80500D01*
X247484Y62000D02*
X252500D01*
X247484Y55000D02*
X252500D01*
X99500Y7000D02*
X105988D01*
X14488Y111000D02*
Y125012D01*
X25512Y111000D02*
X27500Y109012D01*
Y103500D02*
Y109012D01*
X12500Y112988D02*
X14488Y111000D01*
X12500Y112988D02*
Y123000D01*
X32750Y53000D02*
X35500Y55750D01*
Y57500D01*
X133500Y84500D02*
X136750D01*
X132500Y85500D02*
X133500Y84500D01*
X136750Y81000D02*
Y84500D01*
X197250Y102000D02*
X197750Y102500D01*
X197250Y91000D02*
X200000D01*
X197250Y85000D02*
X200000D01*
X197250Y79500D02*
X200000D01*
X197250Y68500D02*
Y74000D01*
Y47750D02*
Y56000D01*
X200000Y85000D02*
X201000Y84000D01*
X202000D01*
X194500Y45000D02*
X197250Y47750D01*
X141984Y106766D02*
Y113500D01*
X158500Y115750D02*
Y119000D01*
X86500Y32250D02*
X86750Y32000D01*
X86500Y32250D02*
Y38000D01*
X141984Y113500D02*
Y116016D01*
X139000Y119000D02*
X141984Y116016D01*
X246500Y44500D02*
Y48250D01*
X263000Y49000D02*
Y50000D01*
X92000Y104500D02*
X96250D01*
X101750D02*
X106500D01*
X169500Y115750D02*
Y120000D01*
X196000Y115000D02*
Y128500D01*
X158500Y43500D02*
Y48250D01*
X214250Y85000D02*
Y89500D01*
X226350Y34350D02*
X230000Y38000D01*
Y47500D01*
X222500Y29500D02*
X226000Y33000D01*
X219831Y34350D02*
X226000D01*
X72331Y135031D02*
X72363Y135000D01*
X76500D01*
X200000Y91000D02*
X201500Y92500D01*
X197250Y96500D02*
X201500D01*
X197750Y102500D02*
X201500D01*
X132500Y73500D02*
X135250D01*
X226750D02*
X231500D01*
X226750Y84500D02*
X227250Y85000D01*
X231500D01*
X226750Y95500D02*
X227250Y96000D01*
X231500D01*
X226750Y62500D02*
X227250Y62000D01*
X164000Y115750D02*
Y119000D01*
X85000Y68500D02*
X92000Y61500D01*
X85000Y68500D02*
Y86500D01*
X87500Y89000D01*
X108000D02*
X112000Y85000D01*
X92000Y61500D02*
X100500D01*
X112000Y73000D02*
Y85000D01*
X104250Y65250D02*
X112000Y73000D01*
X92225Y24240D02*
Y31975D01*
X100500Y61500D02*
X104250Y65250D01*
X87500Y89000D02*
X107000D01*
X108000D01*
X198984Y9000D02*
Y17266D01*
X195500Y29500D02*
X215500D01*
X226000Y33000D02*
Y34350D01*
X214500Y79500D02*
Y85250D01*
X161700Y5275D02*
X181750D01*
X25512Y101488D02*
Y111000D01*
X43224Y127969D02*
Y139425D01*
X43800Y140000D01*
X75750Y177000D02*
X81000D01*
Y162000D02*
Y177000D01*
X135250Y73500D02*
X136750Y75000D01*
X132500Y70000D02*
X136250D01*
X139000Y55500D02*
X142250Y58750D01*
Y65000D01*
X134500Y56000D02*
Y57500D01*
X136750Y59750D01*
Y65000D01*
X131500Y90500D02*
X132000Y90000D01*
X133500D01*
X134500Y89000D01*
X136750D01*
X134500Y93500D02*
X136750D01*
X132500Y95500D02*
X134500Y93500D01*
X131500Y95500D02*
X132500D01*
X131500Y104000D02*
X135250D01*
X131500Y99500D02*
X133500D01*
X135000Y98000D01*
X136750D01*
X135250Y104000D02*
X136750Y102500D01*
X142250Y98000D02*
Y102500D01*
X142250Y101000D02*
Y106500D01*
X78500Y21035D02*
X82776Y16760D01*
X78500Y21035D02*
Y27000D01*
X83500Y32000D01*
X86750D01*
D50*
X148500Y15825D02*
Y32500D01*
X125000Y64500D02*
Y68500D01*
X123875Y63375D02*
X125000Y64500D01*
X123875Y63375D02*
X124500Y62750D01*
X201000Y116500D02*
Y126750D01*
X197100Y112600D02*
X201000Y116500D01*
X189600Y112600D02*
X197100D01*
X210000Y119500D02*
Y125250D01*
X201950Y111450D02*
X210000Y119500D01*
X192358Y111450D02*
X201950D01*
X206000Y118000D02*
Y126000D01*
X262200Y146589D02*
Y173800D01*
X255000Y181000D02*
X262200Y173800D01*
X261100Y147044D02*
Y164900D01*
X255000Y171000D02*
X261100Y164900D01*
X255911Y140300D02*
X262200Y146589D01*
X242800Y140300D02*
X255911D01*
X241000Y138500D02*
X242800Y140300D01*
X255456Y141400D02*
X261100Y147044D01*
X240400Y141400D02*
X255456D01*
X239500Y140500D02*
X240400Y141400D01*
X255000Y161000D02*
X260000Y156000D01*
Y147500D02*
Y156000D01*
X255000Y142500D02*
X260000Y147500D01*
X239000Y142500D02*
X255000D01*
X183197Y76500D02*
X186500D01*
X182748Y76051D02*
X183197Y76500D01*
X181000Y77453D02*
Y77500D01*
X179598Y76051D02*
X181000Y77453D01*
X173299Y79201D02*
X174874Y77626D01*
X170150Y79201D02*
X171724Y77626D01*
X261750Y76500D02*
X261750Y76500D01*
X261750Y81000D02*
X262250Y81500D01*
X179598Y69752D02*
X181173Y68177D01*
X149677Y74476D02*
X151252Y76051D01*
X152827Y71327D02*
X154402Y72902D01*
X162276Y68177D02*
X163850Y69752D01*
X176449Y72902D02*
X178024Y71327D01*
X159126Y74476D02*
X160701Y76051D01*
X155976Y90224D02*
X157551Y88650D01*
X155976Y80776D02*
X157551Y82350D01*
X167000Y94949D02*
X168575Y96524D01*
X173299Y91799D02*
X174874Y93374D01*
X173299Y88650D02*
X174874Y90224D01*
X159126Y87075D02*
X160701Y85500D01*
X165575Y77626D02*
X165701Y77500D01*
X162276Y87075D02*
X163850Y85500D01*
X165575Y77776D02*
X167000Y79201D01*
X159126Y59876D02*
Y74476D01*
X242000Y106000D02*
X245000Y109000D01*
X152827Y90224D02*
X154402Y88650D01*
X176449Y76051D02*
X178000Y77602D01*
X170000Y101398D02*
X170150Y101248D01*
X170000Y101398D02*
Y103500D01*
X163850Y101248D02*
X164000Y101398D01*
Y103500D01*
X170000D02*
Y108750D01*
X164000Y103500D02*
Y109250D01*
X153000Y53750D02*
X159126Y59876D01*
X162276Y68050D02*
Y68177D01*
X160226Y66000D02*
X162276Y68050D01*
X160226Y55476D02*
Y66000D01*
X158500Y53750D02*
X160226Y55476D01*
X170150Y72902D02*
X171354Y74106D01*
X171542D01*
X173299Y72902D02*
X174874Y71327D01*
X151051Y92000D02*
X151252Y91799D01*
X157500Y101299D02*
X157551Y101248D01*
X157500Y101299D02*
Y103500D01*
X158500Y104500D02*
Y110250D01*
X157500Y103500D02*
X158500Y104500D01*
X190500Y101500D02*
X190750D01*
X191750Y91000D02*
Y96500D01*
X182748Y91799D02*
X183047Y91500D01*
X185547Y94000D02*
Y96797D01*
X189000Y91000D02*
X191750D01*
X185500Y87500D02*
X189000Y91000D01*
X182748Y85500D02*
X183500D01*
X185500Y87500D01*
X217250Y64000D02*
X221250Y68000D01*
X179598Y72902D02*
X181426Y71074D01*
X183296D01*
X187050Y74550D02*
X191750Y79250D01*
X182748Y72902D02*
X186000D01*
X190652D01*
X176449Y82350D02*
X178000Y83902D01*
X183296Y71074D02*
X188420Y65950D01*
X240000Y101000D02*
X245000Y96000D01*
X225250Y101000D02*
X226750D01*
X240000D01*
X181173Y68177D02*
X186351Y63000D01*
X191750D01*
X217500Y86250D02*
X221250Y90000D01*
X150327Y71327D02*
X152827D01*
X143226Y74476D02*
X149677D01*
X142250Y73500D02*
X143226Y74476D01*
X142250Y70000D02*
Y73500D01*
X144250Y82500D02*
X148500D01*
X142250Y84500D02*
X144250Y82500D01*
X191750Y79250D02*
Y79500D01*
Y80500D01*
X155950Y93401D02*
X157551Y91799D01*
X153000Y93201D02*
X154402Y91799D01*
X157551Y85500D02*
X159051Y84000D01*
X148500Y82500D02*
X151102D01*
X151252Y82350D01*
X154402Y85500D02*
X155902Y84000D01*
X159051D02*
X170520D01*
X171977Y85457D01*
Y109477D01*
X172000Y109500D01*
X174874Y90224D02*
X183964D01*
X187097Y93358D01*
Y96049D01*
X190698Y99650D01*
X174874Y93374D02*
X179894D01*
X181426Y94906D01*
Y95497D01*
X182200Y96271D01*
X182791D01*
X162000Y74500D02*
X162500D01*
X167000Y76051D02*
X168575Y74476D01*
X165650Y81000D02*
X167000Y82350D01*
X168500Y77701D02*
X170150Y76051D01*
X168500Y77701D02*
Y81000D01*
X142250Y79000D02*
X144026Y80776D01*
X155976D01*
X206142Y64050D02*
X206192Y64000D01*
X207000Y62500D02*
X221250D01*
X206192Y64000D02*
X206308D01*
X206358Y64050D01*
X207642D01*
X207692Y64000D01*
X217250D01*
X202550Y64050D02*
X202600Y64000D01*
X203500D01*
X163850Y98098D02*
X165500Y99748D01*
X151252Y85500D02*
X152575Y84178D01*
Y80850D02*
Y84178D01*
X155976Y74476D02*
X157551Y76051D01*
X218000Y112000D02*
X221250D01*
X182791Y96271D02*
X186000Y99480D01*
X191500Y102750D02*
X191750Y103000D01*
X218750Y109000D02*
X221250Y106500D01*
X216100Y110100D02*
X218000Y112000D01*
X178000Y83902D02*
X184402D01*
X149351Y100000D02*
X151252Y98098D01*
X149000Y103500D02*
X151252Y101248D01*
X157551Y94949D02*
X159102Y96500D01*
X157551Y98098D02*
X159000Y99547D01*
X173299Y101248D02*
X175170Y103118D01*
X167000Y88650D02*
X168650Y87000D01*
X186000Y99480D02*
Y104000D01*
X192308Y111500D02*
X192358Y111450D01*
X154377Y108402D02*
X154402D01*
X154098D02*
X154377D01*
X154402Y94949D02*
Y98098D01*
Y101248D01*
X160654Y94949D02*
X160701D01*
X159102Y96500D02*
X160654Y94949D01*
X159351Y90000D02*
X160701Y88650D01*
X159000Y90000D02*
X159351D01*
X159101Y77601D02*
X160701Y79201D01*
X159000Y77601D02*
X159101D01*
X163850Y72453D02*
Y72902D01*
X156150Y71500D02*
X157551Y72902D01*
X156150Y71150D02*
Y71500D01*
X160701Y69752D02*
X161150D01*
X182748D02*
X184500Y68000D01*
Y67602D02*
Y68000D01*
X179598Y82350D02*
X180949Y81000D01*
X181000Y99500D02*
X182748Y101248D01*
X176449D02*
X179598D01*
X182748D01*
X173299Y98098D02*
X176449D01*
Y101248D01*
X155950Y93401D02*
Y108858D01*
X155927Y108881D02*
X155950Y108858D01*
X153000Y93201D02*
Y104000D01*
X61850Y87150D02*
Y100850D01*
Y87150D02*
X64500Y84500D01*
X61850Y100850D02*
X64000Y103000D01*
X155976Y77626D02*
X157551Y79201D01*
X73750Y85250D02*
Y94500D01*
X106000D01*
X152827Y77626D02*
X154402Y79201D01*
X202500Y66000D02*
X207000D01*
X220000Y79000D01*
X221250D01*
X217500Y78500D02*
Y86250D01*
X201858Y67550D02*
X206550D01*
X217500Y78500D01*
X188420Y65950D02*
X200258D01*
X201858Y67550D01*
X161150Y69752D02*
X162500Y71102D01*
X162898Y71500D02*
X163850Y72453D01*
X162500Y71500D02*
X162898D01*
X167000Y72902D02*
X168702Y71200D01*
X181000Y87000D02*
X181098D01*
X165500Y90299D02*
Y90500D01*
X163850Y88650D02*
X165500Y90299D01*
X219900Y99650D02*
X221250Y101000D01*
X190698Y99650D02*
X219900D01*
X188500Y88000D02*
X200750D01*
X184402Y83902D02*
X185050Y84550D01*
Y84601D01*
X185899Y85450D01*
X185950D01*
X188500Y88000D01*
X186000Y104000D02*
X191000Y109000D01*
X218750D01*
X190056Y111500D02*
X192308D01*
X175170Y103118D02*
X183229D01*
X174500Y106500D02*
X185056D01*
X180500Y108500D02*
X185500D01*
X183229Y103118D02*
X190211Y110100D01*
X216100D01*
X185056Y106500D02*
X190056Y111500D01*
X185500Y108500D02*
X189600Y112600D01*
X146500Y110500D02*
X153000Y104000D01*
X146500Y110500D02*
Y113500D01*
X172000Y116750D02*
X180500Y125250D01*
X172000Y109500D02*
Y116750D01*
X165650Y121400D02*
X171000Y126750D01*
X157506Y121400D02*
X165650D01*
X165500Y125500D02*
Y126750D01*
X163000Y123000D02*
X165500Y125500D01*
X159500Y123000D02*
X163000D01*
X155927Y108881D02*
Y109044D01*
X182500Y110500D02*
Y114500D01*
X163850Y91799D02*
Y92150D01*
X162500Y93500D02*
X163850Y92150D01*
X168751Y93550D02*
X170150Y94949D01*
X168500Y93500D02*
Y93550D01*
X168751D01*
X168500Y90150D02*
X170150Y91799D01*
X168500Y90000D02*
Y90150D01*
Y90500D01*
X147500Y92000D02*
X151051D01*
X148000Y87000D02*
X149602D01*
X151202Y85450D02*
X151252Y85500D01*
X146550Y85450D02*
X151202D01*
X149602Y87000D02*
X151252Y88650D01*
X140500Y122000D02*
X141950Y120550D01*
Y120500D02*
X142000D01*
X141950D02*
Y120550D01*
X168702Y71200D02*
X171700D01*
X154402Y101248D02*
Y108402D01*
X160701Y72902D02*
X162500Y71102D01*
X168743Y99505D02*
X169050D01*
X167000Y101248D02*
X168743Y99505D01*
X181098Y87000D02*
X182748Y88650D01*
X206000Y126000D02*
X206750Y126750D01*
X160701Y98098D02*
X162500Y99898D01*
X202550Y64050D02*
X206142D01*
X225500Y106000D02*
X242000D01*
X226500Y111500D02*
X236000D01*
X246500Y122000D01*
X171542Y74106D02*
X171986Y74550D01*
X187050D01*
X143000Y89000D02*
X146550Y85450D01*
X183047Y91500D02*
X185547Y94000D01*
Y96797D02*
X191500Y102750D01*
X162500Y74500D02*
X164000Y76000D01*
X64000Y103000D02*
X70000D01*
X74000Y99000D01*
X103752D01*
X124252Y78500D01*
X168500Y110250D02*
X170000Y108750D01*
X202250Y89500D02*
X207250D01*
X202994Y86400D02*
X204394Y85000D01*
X208750D01*
X201072Y88322D02*
X202250Y89500D01*
X201072Y88322D02*
X202994Y86400D01*
X200750Y88000D02*
X201072Y88322D01*
X106000Y94500D02*
X122874Y77626D01*
X122934D01*
X123610Y76950D01*
X124894D01*
X125570Y77626D01*
X152827D01*
X144000Y65000D02*
X150327Y71327D01*
X142250Y65000D02*
X144000D01*
X149551Y94949D02*
X151252D01*
X148500Y96000D02*
X149551Y94949D01*
X148500Y96000D02*
X148500D01*
X146000Y98500D02*
X148500Y96000D01*
X142250Y93000D02*
X146500D01*
X147500Y92000D01*
X145000Y98500D02*
X146000D01*
X154106Y118000D02*
X157506Y121400D01*
X152500Y119500D02*
X152750D01*
X160000Y126750D01*
X151096Y121596D02*
X154500Y125000D01*
Y126750D01*
X148692Y119500D02*
X149000D01*
X151096Y121596D01*
X147000Y117971D02*
X155927Y109044D01*
X147000Y117971D02*
Y122000D01*
X151000Y126000D01*
X143500Y123500D02*
X145500Y125500D01*
Y126750D01*
X140500Y122000D02*
Y126750D01*
X175500D02*
X175500Y126750D01*
X176500D01*
X174000Y123000D02*
X175500Y124500D01*
Y126750D01*
X180500Y125250D02*
Y126750D01*
X182500Y114500D02*
X185500Y117500D01*
Y126750D01*
X186500Y112000D02*
X190500Y116000D01*
Y126750D01*
D51*
X113000Y32500D02*
X115250D01*
X116750Y34000D01*
X221850Y129400D02*
X250400D01*
X219000Y132250D02*
X221850Y129400D01*
X149500Y207000D02*
X153000Y210500D01*
X155250D01*
X148750Y184000D02*
Y188250D01*
X149000Y188500D01*
X173500Y195000D02*
Y200413D01*
X192000Y208250D02*
X193750Y206500D01*
X192000Y208250D02*
Y210000D01*
X51000Y37000D02*
Y48000D01*
X44500Y54500D02*
X51000Y48000D01*
X236000Y187000D02*
X237000Y188000D01*
X227000Y187000D02*
X236000D01*
X224000Y190000D02*
X227000Y187000D01*
X237000Y188000D02*
Y194968D01*
X241000Y198000D02*
X242500Y196500D01*
X238968Y198000D02*
X241000D01*
X174500Y187000D02*
Y190957D01*
X136448Y181500D02*
X137000D01*
X116000Y161052D02*
X136448Y181500D01*
X116000Y158250D02*
Y161052D01*
X131000Y160000D02*
X137250Y166250D01*
X131000Y158250D02*
Y160000D01*
X135500Y171500D02*
X141000D01*
X126000Y162000D02*
X135500Y171500D01*
X126000Y158250D02*
Y162000D01*
X136000Y176500D02*
X141000D01*
X121000Y161500D02*
X136000Y176500D01*
X121000Y158250D02*
Y161500D01*
X250400Y129400D02*
X255000Y134000D01*
X124421Y50225D02*
Y57171D01*
X114579Y36171D02*
X116750Y34000D01*
X124421Y36171D02*
Y40776D01*
X122250Y34000D02*
X124421Y36171D01*
X34500Y64500D02*
X44500Y54500D01*
X32750Y64500D02*
X34500D01*
X39000Y70000D02*
X54500Y54500D01*
X32750Y70000D02*
X39000D01*
X43500Y75500D02*
X64500Y54500D01*
X32750Y75500D02*
X43500D01*
X61000Y51000D02*
X64500Y54500D01*
X221250Y68000D02*
Y73500D01*
Y79000D02*
Y84500D01*
Y90000D02*
Y95500D01*
X54500Y39000D02*
X56000Y37500D01*
X114579Y36171D02*
Y50225D01*
X54500Y38500D02*
Y39000D01*
Y54500D01*
X61000Y37000D02*
Y37500D01*
Y51000D01*
X104500Y82429D02*
X108929D01*
X104500Y70250D02*
Y73571D01*
X101750Y67500D02*
X104500Y70250D01*
X94500Y69250D02*
Y73571D01*
Y69250D02*
X96250Y67500D01*
X94500Y73571D02*
Y82429D01*
X91500Y67500D02*
X96250D01*
X193750Y183000D02*
Y187500D01*
Y178750D02*
Y183000D01*
Y178750D02*
X194000Y178500D01*
X173500Y195000D02*
X179000Y189500D01*
D52*
X177916Y141416D02*
Y146080D01*
X175500Y139000D02*
X177916Y141416D01*
X175500Y132250D02*
Y139000D01*
X176516Y142516D02*
Y149614D01*
X170500Y136500D02*
X176516Y142516D01*
X170500Y132250D02*
Y136500D01*
X172579Y141079D02*
Y149614D01*
X165500Y134000D02*
X172579Y141079D01*
X165500Y132250D02*
Y134000D01*
X170610Y143610D02*
Y149614D01*
X160500Y133500D02*
X170610Y143610D01*
X160500Y132250D02*
Y133500D01*
X183500Y188000D02*
X188125Y192625D01*
X183500Y180500D02*
Y188000D01*
X160750Y206000D02*
Y210500D01*
Y201000D02*
Y206000D01*
Y196500D02*
Y201000D01*
X156500Y214500D02*
X158000Y213000D01*
Y194836D02*
Y213000D01*
Y194836D02*
X163500Y189336D01*
X151000Y214500D02*
X156500D01*
X137000Y200500D02*
X151000Y214500D01*
X137000Y181500D02*
Y200500D01*
X159000Y187000D02*
X160000D01*
X164950Y187550D02*
X172579Y179921D01*
X164950Y187550D02*
Y191050D01*
X160750Y195250D02*
X164950Y191050D01*
X160750Y195250D02*
Y196500D01*
X163500Y186000D02*
Y189336D01*
Y186000D02*
X170610Y178890D01*
X153000Y181400D02*
X162542Y171858D01*
X153000Y181400D02*
Y185000D01*
X158500Y181000D02*
X164114Y175386D01*
X190750Y179750D02*
Y188914D01*
X188327Y177327D02*
X190750Y179750D01*
X188327Y176386D02*
Y177327D01*
X191836Y190000D02*
X195500D01*
X190750Y188914D02*
X191836Y190000D01*
X196550Y188800D02*
X200750Y193000D01*
X196550Y176403D02*
Y188800D01*
X192005Y171858D02*
X196550Y176403D01*
X190886Y173827D02*
X194000Y176941D01*
Y178500D01*
X198250Y181250D02*
X200750Y183750D01*
X198250Y176586D02*
Y181250D01*
Y176586D02*
X198450Y176386D01*
Y176324D02*
Y176386D01*
X192016Y169890D02*
X198450Y176324D01*
X198250Y192750D02*
Y200750D01*
X195500Y190000D02*
X198250Y192750D01*
X199500Y202000D02*
X200750D01*
X198250Y200750D02*
X199500Y202000D01*
X180453Y181059D02*
Y185228D01*
X188250Y192000D02*
Y205500D01*
X264250Y141250D02*
Y184750D01*
Y141250D02*
X265500Y140000D01*
X268500D01*
X272500Y144000D01*
Y146250D01*
X166673Y176386D02*
Y177327D01*
X165000Y179000D02*
X166673Y177327D01*
X255000Y116500D02*
X260000Y111500D01*
Y102000D02*
Y111500D01*
Y102000D02*
X269500Y92500D01*
X276500D02*
X279900Y89100D01*
X269500Y92500D02*
X276500D01*
X278500Y83500D02*
Y88000D01*
X276000Y90500D02*
X278500Y88000D01*
X268000Y90500D02*
X276000D01*
X279900Y87600D02*
Y89100D01*
X255000Y103500D02*
Y109000D01*
Y103500D02*
X268000Y90500D01*
X255000Y109000D02*
X257000D01*
X255000Y116500D02*
Y122000D01*
X279900Y87600D02*
X280000Y87500D01*
Y82090D02*
Y87500D01*
X274000Y76500D02*
X274410D01*
X280000Y82090D01*
X276500Y81500D02*
X278500Y83500D01*
X274000Y81500D02*
X276500D01*
X255000Y96000D02*
X261750Y89250D01*
Y85500D02*
Y89250D01*
X261750Y76500D02*
X274000D01*
X262250Y81500D02*
X274000D01*
X261750Y85500D02*
X262750Y86500D01*
X274000D01*
X193984Y163984D02*
X200125Y170125D01*
X200750Y174000D02*
Y178000D01*
X182421Y179421D02*
X183500Y180500D01*
X200750Y183750D02*
Y187000D01*
X190886Y169890D02*
X192016D01*
X190886Y171858D02*
X192005D01*
X168642Y147909D02*
Y149614D01*
X155500Y134768D02*
X168642Y147909D01*
X200375Y165375D02*
X205250Y160500D01*
X197016Y162016D02*
X200375Y165375D01*
X190886Y162016D02*
X197016D01*
X190886Y163984D02*
X193984D01*
X180450Y181056D02*
X180453Y181059D01*
X180450Y178944D02*
Y181056D01*
Y178944D02*
X180453Y178941D01*
Y176386D02*
Y178941D01*
X190500Y132250D02*
Y147000D01*
X206250Y187000D02*
X209500D01*
X190886Y158079D02*
X192921D01*
X243827Y150827D02*
Y152173D01*
X245000Y151000D01*
X148750Y179500D02*
Y184000D01*
X213500Y191000D02*
Y194000D01*
X210000Y197500D02*
X213500Y194000D01*
X206250Y197500D02*
X210000D01*
X209500Y187000D02*
X213500Y191000D01*
X200750Y193000D02*
Y197500D01*
X206250D02*
Y202000D01*
X200703Y160047D02*
X200750Y160000D01*
X190886Y160047D02*
X200703D01*
X200750Y155500D02*
Y160000D01*
X205250D02*
X206250D01*
X200000Y186250D02*
X200750Y187000D01*
Y202000D02*
Y206500D01*
X182421Y176386D02*
Y179421D01*
X152516Y162016D02*
X164114D01*
X151750Y161250D02*
X152516Y162016D01*
X143000Y161250D02*
X151750D01*
X160000Y187000D02*
X168642Y178358D01*
Y176386D02*
Y178358D01*
X170610Y176386D02*
Y178890D01*
X172579Y176386D02*
Y179921D01*
X160579Y210329D02*
X160750Y210500D01*
X162542Y171858D02*
X164114D01*
Y173827D02*
Y175386D01*
X160110Y169890D02*
X164114D01*
X150500Y179500D02*
X160110Y169890D01*
X148750Y179500D02*
X150500D01*
X179750Y138500D02*
X180500Y137750D01*
X177500Y138500D02*
X179750D01*
X177916Y146080D02*
X178484Y146649D01*
X183500Y135250D02*
Y145664D01*
X180500Y132250D02*
X183500Y135250D01*
X182421Y146743D02*
X183500Y145664D01*
X185500Y132250D02*
Y147000D01*
X184400Y148100D02*
X185500Y147000D01*
X184400Y148100D02*
Y149604D01*
X184390Y149614D02*
X184400Y149604D01*
X178484Y146649D02*
Y149614D01*
X182421Y146743D02*
Y149614D01*
X174547Y165953D02*
X176516Y163984D01*
Y176386D01*
Y163984D02*
X177500Y163000D01*
X174547Y165953D02*
Y176386D01*
X159579Y167921D02*
X164114D01*
X151000Y176500D02*
X159579Y167921D01*
X141000Y176500D02*
X151000D01*
X158547Y165953D02*
X164114D01*
X153000Y171500D02*
X158547Y165953D01*
X141000Y171500D02*
X153000D01*
X137250Y166250D02*
X139516Y163984D01*
X164114D01*
X157750Y148000D02*
Y153000D01*
Y148000D02*
X161500D01*
Y160000D02*
X164067D01*
X164114Y160047D01*
X180453Y143250D02*
Y149614D01*
X174500Y146500D02*
X174547Y146547D01*
Y149614D01*
X145579Y158079D02*
X164114D01*
X140500Y153000D02*
X145579Y158079D01*
X140500Y132250D02*
Y153000D01*
X145500Y132250D02*
Y152000D01*
X149610Y156110D01*
X164114D01*
X150500Y132250D02*
Y133441D01*
X166673Y149614D01*
X155500Y132250D02*
Y134768D01*
X190886Y165953D02*
X192953D01*
X194000Y167000D01*
X189079Y167921D02*
X190886D01*
X188839Y167682D02*
X189079Y167921D01*
X213500Y176000D02*
X222728D01*
X223228Y175500D01*
X219000Y179000D02*
X223228D01*
X226772D02*
Y182500D01*
X226772Y182500D02*
X226772Y182500D01*
X220500Y182500D02*
X223228D01*
X245000Y158500D02*
Y161000D01*
Y168500D02*
Y171000D01*
X192921Y158079D02*
X205050Y145950D01*
X219950D01*
X229000Y142500D02*
X245000Y158500D01*
X220500Y144000D02*
X245000Y168500D01*
X202059Y141000D02*
X234000D01*
X243827Y150827D01*
X190886Y152173D02*
X202059Y141000D01*
X190886Y156110D02*
X192390D01*
X204500Y144000D01*
X220500D01*
X190886Y154142D02*
X192358D01*
X204000Y142500D01*
X229000D01*
X219950Y145950D02*
X240000Y166000D01*
Y176000D01*
X245000Y181000D01*
X174500Y183228D02*
X178484Y179244D01*
Y176386D02*
Y179244D01*
D53*
X213000Y22000D02*
X214000Y21000D01*
X196500Y22000D02*
X213000D01*
X187000Y31500D02*
X196500Y22000D01*
X217000Y25500D02*
X223500D01*
X214000Y22500D02*
X217000Y25500D01*
X214000Y21000D02*
Y22500D01*
X208500Y13500D02*
X214016D01*
Y7734D02*
X214750Y7000D01*
X214016Y7734D02*
Y13500D01*
X223500Y25500D02*
X239350Y41350D01*
X204650Y55350D02*
X239866D01*
X200700Y59300D02*
X204650Y55350D01*
X194200Y59300D02*
X200700D01*
X191750Y61750D02*
X194200Y59300D01*
X234000Y65500D02*
X237250Y62250D01*
X240734D01*
X241250Y62766D01*
Y68500D01*
X107500Y184000D02*
X121000Y197500D01*
X123500D01*
X107500Y166500D02*
Y184000D01*
X239350Y41350D02*
X248850D01*
X257000Y49500D01*
Y68000D01*
X188000Y51000D02*
X191750D01*
Y61750D02*
Y63000D01*
X29358Y35795D02*
Y41642D01*
X27000Y44000D02*
X29358Y41642D01*
X27000Y44000D02*
Y47250D01*
X27250Y47500D02*
Y52000D01*
X29358Y10205D02*
Y35795D01*
X241516Y49000D02*
Y54500D01*
X235000Y84500D02*
X240500D01*
X257000Y68000D01*
X187500Y79500D02*
X191750D01*
X231000Y79000D02*
X235000Y75000D01*
X226750Y68000D02*
X231500D01*
X235000Y71500D01*
Y75000D01*
X226750Y90000D02*
X231500D01*
Y79000D02*
X235000Y82500D01*
X231500Y90000D02*
X235000Y86500D01*
X187000Y31500D02*
Y55000D01*
Y55500D01*
X226750Y79000D02*
X231000D01*
X231500D01*
X235000Y82500D02*
Y84500D01*
Y86500D01*
X101750Y67500D02*
X104000Y65250D01*
X104250D01*
X187000Y55500D02*
X191750D01*
X239866Y55350D02*
X240016Y55500D01*
D54*
X184500Y192500D02*
Y209000D01*
X185100Y209600D01*
X186900Y211400D02*
X189500Y214000D01*
X186900Y211299D02*
Y211400D01*
X185201Y209600D02*
X186900Y211299D01*
X185100Y209600D02*
X185201D01*
X189500Y214000D02*
X201516D01*
X179000Y189500D02*
X181500D01*
X184500Y192500D01*
D55*
X162642Y79201D02*
X163850D01*
X161269Y80573D02*
X162642Y79201D01*
X159427Y80573D02*
X161269D01*
X159000Y81000D02*
X159427Y80573D01*
X108929Y82429D02*
X109000Y82500D01*
D56*
X302500Y170500D02*
D03*
X282500D02*
D03*
X292500D02*
D03*
X245000Y161000D02*
D03*
Y151000D02*
D03*
Y181000D02*
D03*
Y171000D02*
D03*
X255000Y161000D02*
D03*
Y151000D02*
D03*
Y181000D02*
D03*
Y171000D02*
D03*
D57*
Y134000D02*
D03*
X245000D02*
D03*
X245000Y96000D02*
D03*
X255000D02*
D03*
X245000Y109000D02*
D03*
X255000D02*
D03*
X245000Y122000D02*
D03*
X255000D02*
D03*
X14000Y179500D02*
D03*
X159000Y187000D02*
D03*
D58*
X98500Y145000D02*
D03*
D59*
X75000Y208500D02*
D03*
X85000Y218500D02*
D03*
X65000D02*
D03*
Y198500D02*
D03*
X85000D02*
D03*
X133500Y207500D02*
D03*
X143500Y217500D02*
D03*
X123500D02*
D03*
Y197500D02*
D03*
X143500D02*
D03*
X16500Y207500D02*
D03*
X26500Y217500D02*
D03*
X6500D02*
D03*
Y197500D02*
D03*
X26500D02*
D03*
D60*
X29358Y10205D02*
D03*
X11642D02*
D03*
Y35795D02*
D03*
X29358D02*
D03*
X74500Y84500D02*
D03*
X64500D02*
D03*
X54500D02*
D03*
X74500Y54500D02*
D03*
X54500D02*
D03*
X64500D02*
D03*
X44500Y84500D02*
D03*
D61*
X275000Y6311D02*
D03*
D62*
X44500Y54500D02*
D03*
D63*
X292000Y115000D02*
D03*
X135000Y46000D02*
D03*
X234500Y4000D02*
D03*
X129000Y50500D02*
D03*
X276000Y97500D02*
D03*
X151500Y25000D02*
D03*
X154500Y21500D02*
D03*
X183500Y17500D02*
D03*
X113000Y32500D02*
D03*
X134500Y56000D02*
D03*
X219000Y119000D02*
D03*
X210000Y137500D02*
D03*
X205500Y137000D02*
D03*
X246500Y72000D02*
D03*
X233000Y20000D02*
D03*
X208500Y13500D02*
D03*
X184000Y212500D02*
D03*
X131500Y108000D02*
D03*
X198984Y14000D02*
D03*
X255000Y205000D02*
D03*
X251000D02*
D03*
X163000Y221500D02*
D03*
Y215000D02*
D03*
X184000Y221500D02*
D03*
X149500Y207000D02*
D03*
X149000Y188500D02*
D03*
X153000Y185000D02*
D03*
X167500Y190500D02*
D03*
X158500Y181000D02*
D03*
X210500Y193000D02*
D03*
X196500Y210500D02*
D03*
X192000Y210000D02*
D03*
X194000Y178500D02*
D03*
X264500Y185000D02*
D03*
X231500Y62000D02*
D03*
X204500Y77500D02*
D03*
X208500Y75000D02*
D03*
X267000Y143000D02*
D03*
X252000Y219500D02*
D03*
Y85500D02*
D03*
X287000Y49500D02*
D03*
Y57500D02*
D03*
Y53500D02*
D03*
X197500Y171500D02*
D03*
X144000Y188500D02*
D03*
X183493Y179717D02*
D03*
X254000Y189000D02*
D03*
Y193000D02*
D03*
X233500Y201500D02*
D03*
X224000Y190000D02*
D03*
X229000D02*
D03*
X242500Y196500D02*
D03*
X138750Y161250D02*
D03*
X210500Y206500D02*
D03*
Y182500D02*
D03*
Y164500D02*
D03*
X207319Y44500D02*
D03*
X197750Y29750D02*
D03*
X215500Y29500D02*
D03*
X230000Y47500D02*
D03*
X217750Y52000D02*
D03*
X105500Y55500D02*
D03*
X294500Y76500D02*
D03*
X92000Y28000D02*
D03*
X156500Y25000D02*
D03*
X153000Y43500D02*
D03*
X27250Y80250D02*
D03*
X46250Y104750D02*
D03*
X56000Y16500D02*
D03*
X62031Y118532D02*
D03*
X55531Y134531D02*
D03*
X60531D02*
D03*
X49332Y145332D02*
D03*
X60531Y128532D02*
D03*
X75750Y161750D02*
D03*
X46500Y154500D02*
D03*
X87000Y177000D02*
D03*
Y171500D02*
D03*
Y166000D02*
D03*
X252500Y55000D02*
D03*
Y62000D02*
D03*
X121000Y15000D02*
D03*
X33000Y127500D02*
D03*
Y120500D02*
D03*
X29000Y161000D02*
D03*
X64250Y97250D02*
D03*
X106500Y14000D02*
D03*
X99500Y7000D02*
D03*
X24500Y102000D02*
D03*
Y96000D02*
D03*
X24000Y163500D02*
D03*
X24500Y157000D02*
D03*
X8500Y128000D02*
D03*
X11000Y124000D02*
D03*
X14000Y128000D02*
D03*
X12000Y62500D02*
D03*
X35500Y57500D02*
D03*
X132000Y86000D02*
D03*
X202000Y84000D02*
D03*
X209000Y58500D02*
D03*
X194500Y45000D02*
D03*
X41000Y32000D02*
D03*
X234000Y65500D02*
D03*
X158500Y119000D02*
D03*
X86500Y38000D02*
D03*
X139000Y119000D02*
D03*
X191500Y106000D02*
D03*
X263000Y50000D02*
D03*
X246500Y44500D02*
D03*
X92000Y104500D02*
D03*
X106500D02*
D03*
X169500Y120000D02*
D03*
X196000Y128500D02*
D03*
Y115000D02*
D03*
X267500Y99000D02*
D03*
X267000Y121500D02*
D03*
X103500Y17500D02*
D03*
X187500Y79500D02*
D03*
X29500Y176000D02*
D03*
X135500Y142500D02*
D03*
X158500Y43500D02*
D03*
X214500Y79500D02*
D03*
X29500Y101000D02*
D03*
X214500Y122500D02*
D03*
X226500Y34000D02*
D03*
X76500Y135000D02*
D03*
X201500Y92500D02*
D03*
Y96500D02*
D03*
X131500Y90500D02*
D03*
X187000Y55000D02*
D03*
X201500Y102500D02*
D03*
X187500Y83500D02*
D03*
X132500Y73500D02*
D03*
X33500Y175500D02*
D03*
X34400Y164000D02*
D03*
X231500Y73500D02*
D03*
Y85000D02*
D03*
Y96000D02*
D03*
X9500Y66000D02*
D03*
X15000Y65500D02*
D03*
X127000Y17000D02*
D03*
X121500Y20000D02*
D03*
X164000Y119000D02*
D03*
X92000Y61500D02*
D03*
X91500Y67500D02*
D03*
X85000Y59500D02*
D03*
Y86500D02*
D03*
X107000Y89000D02*
D03*
X132500Y70000D02*
D03*
X131500Y95500D02*
D03*
Y99500D02*
D03*
Y104000D02*
D03*
X201000Y136500D02*
D03*
X135750Y148500D02*
D03*
X109500Y154500D02*
D03*
X260000Y25000D02*
D03*
Y32500D02*
D03*
Y17500D02*
D03*
Y10000D02*
D03*
X207500Y148500D02*
D03*
X212500D02*
D03*
X217500D02*
D03*
D64*
X206000Y118000D02*
D03*
X239500Y140500D02*
D03*
X241000Y138500D02*
D03*
X239000Y142500D02*
D03*
X186500Y76500D02*
D03*
X181000Y77500D02*
D03*
X174874Y77626D02*
D03*
X171724D02*
D03*
X181100Y80900D02*
D03*
X165000Y179000D02*
D03*
X187250Y179750D02*
D03*
X190500Y147000D02*
D03*
X152250Y150500D02*
D03*
X155000Y166000D02*
D03*
X180453Y146000D02*
D03*
X177500Y138500D02*
D03*
X161500Y148000D02*
D03*
Y160000D02*
D03*
X174547Y146547D02*
D03*
X181173Y68177D02*
D03*
X149677Y74476D02*
D03*
X152827Y71327D02*
D03*
X162276Y68177D02*
D03*
X178024Y71327D02*
D03*
X159126Y74476D02*
D03*
X155976Y90224D02*
D03*
Y80776D02*
D03*
X168575Y96524D02*
D03*
X174874Y93374D02*
D03*
Y90224D02*
D03*
X159126Y87075D02*
D03*
X165575Y77626D02*
D03*
X162276Y87075D02*
D03*
X203250Y39750D02*
D03*
X210500Y47500D02*
D03*
X172350Y24850D02*
D03*
X172500Y40500D02*
D03*
X125000Y68500D02*
D03*
X148500Y32500D02*
D03*
X39531Y124031D02*
D03*
X77031Y129532D02*
D03*
X148500Y82500D02*
D03*
X152827Y90224D02*
D03*
X178000Y77602D02*
D03*
X170000Y103500D02*
D03*
X164000D02*
D03*
X174874Y71327D02*
D03*
X171700Y71300D02*
D03*
X157500Y103500D02*
D03*
X185547Y94000D02*
D03*
X185500Y87500D02*
D03*
X202500Y66000D02*
D03*
X186000Y72902D02*
D03*
X178000Y83902D02*
D03*
X155902Y84000D02*
D03*
X162000Y74500D02*
D03*
X168575Y74476D02*
D03*
X165600Y80900D02*
D03*
X168500Y81000D02*
D03*
X118000Y74500D02*
D03*
X207000Y62500D02*
D03*
X203500Y64000D02*
D03*
X165500Y99748D02*
D03*
X162500Y99600D02*
D03*
X155976Y74476D02*
D03*
X149351Y100000D02*
D03*
X149000Y103500D02*
D03*
X159102Y96500D02*
D03*
X159000Y99547D02*
D03*
X174500Y106500D02*
D03*
X168650Y87000D02*
D03*
X180500Y108500D02*
D03*
X159000Y90000D02*
D03*
Y77601D02*
D03*
X156150Y71150D02*
D03*
X184500Y67602D02*
D03*
X181000Y99500D02*
D03*
X154377Y108402D02*
D03*
X124252Y78500D02*
D03*
X155976Y77626D02*
D03*
X168800Y99600D02*
D03*
X162400Y71300D02*
D03*
X172000Y74500D02*
D03*
X181300Y87000D02*
D03*
X165500Y90300D02*
D03*
X186500Y112000D02*
D03*
X146500Y113500D02*
D03*
X174000Y123000D02*
D03*
X159500D02*
D03*
X159000Y81000D02*
D03*
X145500Y87000D02*
D03*
X109000Y82500D02*
D03*
X182500Y110500D02*
D03*
X162500Y93500D02*
D03*
X168500Y93550D02*
D03*
Y90000D02*
D03*
X148000Y87000D02*
D03*
X146500Y92500D02*
D03*
X145000Y98500D02*
D03*
X143500Y123500D02*
D03*
X141950Y120500D02*
D03*
X154106Y118000D02*
D03*
X152500Y119500D02*
D03*
X149000D02*
D03*
X194000Y167000D02*
D03*
X188839Y167682D02*
D03*
X213500Y176000D02*
D03*
X219000Y179000D02*
D03*
X220500Y182500D02*
D03*
D65*
X51000Y126000D02*
D03*
Y122063D02*
D03*
X47063Y126000D02*
D03*
Y122063D02*
D03*
X182618Y168118D02*
D03*
Y163000D02*
D03*
X177500Y168118D02*
D03*
Y163000D02*
D03*
X182618Y157882D02*
D03*
X177500D02*
D03*
X172382Y168118D02*
D03*
Y163000D02*
D03*
Y157882D02*
D03*
M02*
