%FSLAX23Y23*%
%MOIN*%
G70*
G01*
G75*
G04 Layer_Physical_Order=3*
G04 Layer_Color=16440176*
%ADD10C,0.012*%
%ADD11C,0.011*%
%ADD12R,0.118X0.079*%
%ADD13R,0.079X0.039*%
%ADD14R,0.030X0.030*%
%ADD15R,0.030X0.030*%
%ADD16R,0.035X0.031*%
%ADD17R,0.031X0.031*%
%ADD18R,0.044X0.058*%
%ADD19R,0.079X0.047*%
%ADD20R,0.094X0.102*%
%ADD21R,0.012X0.053*%
%ADD22R,0.071X0.075*%
%ADD23R,0.091X0.075*%
%ADD24R,0.050X0.030*%
%ADD25R,0.030X0.050*%
%ADD26R,0.008X0.027*%
%ADD27R,0.015X0.061*%
%ADD28R,0.051X0.049*%
%ADD29R,0.020X0.020*%
%ADD30R,0.130X0.173*%
%ADD31R,0.154X0.244*%
%ADD32R,0.058X0.044*%
%ADD33R,0.012X0.020*%
%ADD34R,0.012X0.019*%
%ADD35R,0.020X0.020*%
%ADD36R,0.051X0.107*%
%ADD37R,0.011X0.031*%
%ADD38R,0.055X0.047*%
%ADD39O,0.087X0.024*%
%ADD40R,0.033X0.011*%
%ADD41R,0.065X0.094*%
%ADD42R,0.024X0.010*%
%ADD43R,0.010X0.024*%
%ADD44R,0.201X0.201*%
%ADD45R,0.039X0.028*%
%ADD46C,0.009*%
%ADD47C,0.039*%
%ADD48C,0.008*%
%ADD49C,0.015*%
%ADD50C,0.010*%
%ADD51C,0.020*%
%ADD52C,0.025*%
%ADD53C,0.005*%
%ADD54C,0.006*%
%ADD55C,0.060*%
%ADD56C,0.070*%
%ADD57C,0.125*%
%ADD58C,0.090*%
%ADD59C,0.059*%
%ADD60C,0.079*%
%ADD61R,0.059X0.059*%
%ADD62C,0.031*%
%ADD63C,0.016*%
%ADD64C,0.020*%
G36*
X3096Y9D02*
X9D01*
Y2246D01*
X3096D01*
Y9D01*
D02*
G37*
%LPC*%
G36*
X1811Y821D02*
X1806Y820D01*
X1802Y818D01*
X1800Y814D01*
X1799Y809D01*
X1800Y804D01*
X1802Y800D01*
X1806Y798D01*
X1811Y797D01*
X1816Y798D01*
X1820Y800D01*
X1822Y804D01*
X1823Y809D01*
X1822Y814D01*
X1820Y818D01*
X1816Y820D01*
X1811Y821D01*
D02*
G37*
G36*
X1560Y820D02*
X1555Y819D01*
X1551Y816D01*
X1549Y812D01*
X1548Y808D01*
X1549Y803D01*
X1551Y799D01*
X1555Y797D01*
X1560Y796D01*
X1564Y797D01*
X1568Y799D01*
X1571Y803D01*
X1572Y808D01*
X1571Y812D01*
X1568Y816D01*
X1564Y819D01*
X1560Y820D01*
D02*
G37*
G36*
X1685Y822D02*
X1680Y821D01*
X1676Y819D01*
X1674Y815D01*
X1673Y810D01*
X1668D01*
Y810D01*
X1668D01*
X1667Y814D01*
X1665Y818D01*
X1661Y820D01*
X1656Y821D01*
X1651Y820D01*
X1647Y818D01*
X1645Y814D01*
X1644Y809D01*
X1645Y804D01*
X1647Y800D01*
X1651Y798D01*
X1656Y797D01*
X1661Y798D01*
X1665Y800D01*
X1667Y804D01*
X1668Y809D01*
X1673D01*
Y809D01*
X1673D01*
X1674Y805D01*
X1676Y801D01*
X1680Y799D01*
X1685Y798D01*
X1690Y799D01*
X1694Y801D01*
X1696Y805D01*
X1697Y810D01*
X1696Y815D01*
X1694Y819D01*
X1690Y821D01*
X1685Y822D01*
D02*
G37*
G36*
X1590Y822D02*
X1585Y821D01*
X1581Y819D01*
X1579Y815D01*
X1578Y810D01*
X1579Y805D01*
X1581Y801D01*
X1585Y799D01*
X1590Y798D01*
X1595Y799D01*
X1599Y801D01*
X1601Y805D01*
X1602Y810D01*
X1601Y815D01*
X1599Y819D01*
X1595Y821D01*
X1590Y822D01*
D02*
G37*
G36*
X1875Y855D02*
X1867Y853D01*
X1861Y849D01*
X1857Y843D01*
X1855Y835D01*
X1857Y827D01*
X1861Y821D01*
X1866Y818D01*
Y813D01*
X1861Y809D01*
X1857Y803D01*
X1855Y795D01*
X1857Y787D01*
X1861Y781D01*
X1862Y780D01*
X1862Y780D01*
X1864Y778D01*
X1860Y776D01*
X1860D01*
D01*
D01*
D01*
X1860Y776D01*
X1856Y774D01*
X1854Y770D01*
X1853Y765D01*
X1854Y760D01*
X1856Y756D01*
X1860Y754D01*
X1865Y753D01*
X1870Y754D01*
X1874Y756D01*
X1876Y760D01*
X1877Y765D01*
X1876Y770D01*
X1875Y771D01*
X1877Y776D01*
X1883Y777D01*
X1889Y781D01*
X1893Y787D01*
X1895Y795D01*
X1893Y803D01*
X1889Y809D01*
X1884Y813D01*
Y818D01*
X1889Y821D01*
X1893Y827D01*
X1895Y835D01*
X1893Y843D01*
X1889Y849D01*
X1883Y853D01*
X1875Y855D01*
D02*
G37*
G36*
X1749Y788D02*
X1744Y788D01*
X1740Y785D01*
X1737Y781D01*
X1737Y776D01*
X1737Y772D01*
X1740Y768D01*
X1744Y765D01*
X1749Y764D01*
X1753Y765D01*
X1757Y768D01*
X1760Y772D01*
X1761Y776D01*
X1760Y781D01*
X1757Y785D01*
X1753Y788D01*
X1749Y788D01*
D02*
G37*
G36*
X1717D02*
X1713Y788D01*
X1709Y785D01*
X1706Y781D01*
X1705Y776D01*
X1706Y772D01*
X1709Y768D01*
X1713Y765D01*
X1717Y764D01*
X1722Y765D01*
X1726Y768D01*
X1728Y772D01*
X1729Y776D01*
X1728Y781D01*
X1726Y785D01*
X1722Y788D01*
X1717Y788D01*
D02*
G37*
G36*
X2145Y815D02*
X2137Y813D01*
X2131Y809D01*
X2127Y803D01*
X2125Y795D01*
X2127Y787D01*
X2131Y781D01*
X2137Y777D01*
X2145Y775D01*
X2153Y777D01*
X2159Y781D01*
X2163Y787D01*
X2165Y795D01*
X2163Y803D01*
X2159Y809D01*
X2153Y813D01*
X2145Y815D01*
D02*
G37*
G36*
X1243Y797D02*
X1238Y796D01*
X1234Y794D01*
X1231Y790D01*
X1230Y785D01*
X1231Y780D01*
X1234Y776D01*
X1238Y774D01*
X1243Y773D01*
X1247Y774D01*
X1251Y776D01*
X1254Y780D01*
X1255Y785D01*
X1254Y790D01*
X1251Y794D01*
X1247Y796D01*
X1243Y797D01*
D02*
G37*
G36*
X1559Y852D02*
X1554Y851D01*
X1550Y849D01*
X1548Y845D01*
X1547Y840D01*
X1548Y835D01*
X1550Y831D01*
X1554Y829D01*
X1559Y828D01*
X1564Y829D01*
X1568Y831D01*
X1570Y835D01*
X1571Y840D01*
X1570Y845D01*
X1568Y849D01*
X1564Y851D01*
X1559Y852D01*
D02*
G37*
G36*
X2020Y860D02*
X2012Y858D01*
X2006Y854D01*
X2002Y848D01*
X2000Y840D01*
X2002Y832D01*
X2006Y826D01*
X2012Y822D01*
X2020Y820D01*
X2028Y822D01*
X2034Y826D01*
X2038Y832D01*
X2040Y840D01*
X2038Y848D01*
X2034Y854D01*
X2028Y858D01*
X2020Y860D01*
D02*
G37*
G36*
X1320Y880D02*
X1312Y878D01*
X1306Y874D01*
X1302Y868D01*
X1300Y860D01*
X1302Y852D01*
X1306Y846D01*
X1312Y842D01*
X1320Y840D01*
X1328Y842D01*
X1334Y846D01*
X1338Y852D01*
X1340Y860D01*
X1338Y868D01*
X1334Y874D01*
X1328Y878D01*
X1320Y880D01*
D02*
G37*
G36*
X2315Y870D02*
X2307Y868D01*
X2301Y864D01*
X2297Y858D01*
X2295Y850D01*
X2297Y842D01*
X2301Y836D01*
X2307Y832D01*
X2315Y830D01*
X2323Y832D01*
X2329Y836D01*
X2333Y842D01*
X2335Y850D01*
X2333Y858D01*
X2329Y864D01*
X2323Y868D01*
X2315Y870D01*
D02*
G37*
G36*
X1485Y837D02*
X1480Y836D01*
X1476Y834D01*
X1474Y830D01*
X1473Y825D01*
X1474Y820D01*
X1476Y816D01*
X1480Y814D01*
X1485Y813D01*
X1490Y814D01*
X1494Y816D01*
X1496Y820D01*
X1497Y825D01*
X1496Y830D01*
X1494Y834D01*
X1490Y836D01*
X1485Y837D01*
D02*
G37*
G36*
X645Y879D02*
X636Y878D01*
X628Y874D01*
X621Y869D01*
X616Y862D01*
X612Y854D01*
X611Y845D01*
X612Y836D01*
X616Y828D01*
X621Y821D01*
X628Y816D01*
X636Y812D01*
X645Y811D01*
X654Y812D01*
X662Y816D01*
X669Y821D01*
X674Y828D01*
X678Y836D01*
X679Y845D01*
X678Y854D01*
X674Y862D01*
X669Y869D01*
X662Y874D01*
X654Y878D01*
X645Y879D01*
D02*
G37*
G36*
X545D02*
X536Y878D01*
X528Y874D01*
X521Y869D01*
X516Y862D01*
X512Y854D01*
X511Y845D01*
X512Y836D01*
X516Y828D01*
X521Y821D01*
X528Y816D01*
X536Y812D01*
X545Y811D01*
X554Y812D01*
X562Y816D01*
X569Y821D01*
X574Y828D01*
X578Y836D01*
X579Y845D01*
X578Y854D01*
X574Y862D01*
X569Y869D01*
X562Y874D01*
X554Y878D01*
X545Y879D01*
D02*
G37*
G36*
X1090Y837D02*
X1085Y836D01*
X1081Y834D01*
X1079Y830D01*
X1078Y825D01*
X1079Y820D01*
X1081Y816D01*
X1085Y814D01*
X1090Y813D01*
X1095Y814D01*
X1099Y816D01*
X1101Y820D01*
X1102Y825D01*
X1101Y830D01*
X1099Y834D01*
X1095Y836D01*
X1090Y837D01*
D02*
G37*
G36*
X745Y879D02*
X736Y878D01*
X728Y874D01*
X721Y869D01*
X716Y862D01*
X712Y854D01*
X711Y845D01*
X712Y836D01*
X716Y828D01*
X721Y821D01*
X728Y816D01*
X736Y812D01*
X745Y811D01*
X754Y812D01*
X762Y816D01*
X769Y821D01*
X774Y828D01*
X778Y836D01*
X779Y845D01*
X778Y854D01*
X774Y862D01*
X769Y869D01*
X762Y874D01*
X754Y878D01*
X745Y879D01*
D02*
G37*
G36*
X1560Y757D02*
X1555Y756D01*
X1551Y753D01*
X1549Y749D01*
X1548Y745D01*
X1549Y740D01*
X1551Y736D01*
X1555Y734D01*
X1560Y733D01*
X1564Y734D01*
X1568Y736D01*
X1571Y740D01*
X1572Y745D01*
X1571Y749D01*
X1568Y753D01*
X1564Y756D01*
X1560Y757D01*
D02*
G37*
G36*
X2085Y770D02*
X2077Y768D01*
X2071Y764D01*
X2067Y758D01*
X2065Y750D01*
X2067Y742D01*
X2071Y736D01*
X2077Y732D01*
X2085Y730D01*
X2093Y732D01*
X2099Y736D01*
X2103Y742D01*
X2105Y750D01*
X2103Y758D01*
X2099Y764D01*
X2093Y768D01*
X2085Y770D01*
D02*
G37*
G36*
X1180Y757D02*
X1175Y756D01*
X1171Y754D01*
X1169Y750D01*
X1168Y745D01*
X1169Y740D01*
X1171Y736D01*
X1175Y734D01*
X1180Y733D01*
X1185Y734D01*
X1189Y736D01*
X1191Y740D01*
X1192Y745D01*
X1191Y750D01*
X1189Y754D01*
X1185Y756D01*
X1180Y757D01*
D02*
G37*
G36*
X1686Y757D02*
X1681Y756D01*
X1677Y753D01*
X1675Y749D01*
X1674Y745D01*
X1675Y740D01*
X1677Y736D01*
X1681Y734D01*
X1686Y733D01*
X1690Y734D01*
X1694Y736D01*
X1697Y740D01*
X1698Y745D01*
X1697Y749D01*
X1694Y753D01*
X1690Y756D01*
X1686Y757D01*
D02*
G37*
G36*
X2315Y755D02*
X2307Y753D01*
X2301Y749D01*
X2297Y743D01*
X2295Y735D01*
X2297Y727D01*
X2301Y721D01*
X2307Y717D01*
X2315Y715D01*
X2323Y717D01*
X2329Y721D01*
X2333Y727D01*
X2335Y735D01*
X2333Y743D01*
X2329Y749D01*
X2323Y753D01*
X2315Y755D01*
D02*
G37*
G36*
X1528Y725D02*
X1524Y725D01*
X1520Y722D01*
X1517Y718D01*
X1516Y713D01*
X1517Y709D01*
X1520Y705D01*
X1524Y702D01*
X1528Y701D01*
X1533Y702D01*
X1537Y705D01*
X1540Y709D01*
X1540Y713D01*
X1540Y718D01*
X1537Y722D01*
X1533Y725D01*
X1528Y725D01*
D02*
G37*
G36*
X1717Y725D02*
X1712Y724D01*
X1708Y722D01*
X1706Y718D01*
X1705Y713D01*
X1706Y708D01*
X1708Y704D01*
X1712Y702D01*
X1717Y701D01*
X1722Y702D01*
X1726Y704D01*
X1728Y708D01*
X1729Y713D01*
X1728Y718D01*
X1726Y722D01*
X1722Y724D01*
X1717Y725D01*
D02*
G37*
G36*
X1780Y725D02*
X1776Y725D01*
X1772Y722D01*
X1769Y718D01*
X1768Y713D01*
X1769Y709D01*
X1772Y705D01*
X1776Y702D01*
X1780Y701D01*
X1785Y702D01*
X1789Y705D01*
X1791Y709D01*
X1792Y713D01*
X1791Y718D01*
X1789Y722D01*
X1785Y725D01*
X1780Y725D01*
D02*
G37*
G36*
X1749D02*
X1744Y725D01*
X1740Y722D01*
X1737Y718D01*
X1737Y713D01*
X1737Y709D01*
X1740Y705D01*
X1744Y702D01*
X1749Y701D01*
X1753Y702D01*
X1757Y705D01*
X1760Y709D01*
X1761Y713D01*
X1760Y718D01*
X1757Y722D01*
X1753Y725D01*
X1749Y725D01*
D02*
G37*
G36*
X1780Y788D02*
X1775Y787D01*
X1771Y785D01*
X1769Y781D01*
X1768Y776D01*
X1769Y771D01*
X1771Y767D01*
X1775Y765D01*
X1780Y764D01*
X1785Y765D01*
X1789Y767D01*
X1791Y771D01*
X1792Y776D01*
X1791Y781D01*
X1789Y785D01*
X1785Y787D01*
X1780Y788D01*
D02*
G37*
G36*
X1590Y788D02*
X1585Y787D01*
X1581Y785D01*
X1579Y781D01*
X1578Y776D01*
X1579Y771D01*
X1581Y767D01*
X1585Y765D01*
X1590Y764D01*
X1595Y765D01*
X1599Y767D01*
X1601Y771D01*
X1602Y776D01*
X1601Y781D01*
X1599Y785D01*
X1595Y787D01*
X1590Y788D01*
D02*
G37*
G36*
X1656Y788D02*
X1651Y788D01*
X1647Y785D01*
X1645Y781D01*
X1644Y776D01*
X1645Y772D01*
X1647Y768D01*
X1651Y765D01*
X1656Y764D01*
X1660Y765D01*
X1664Y768D01*
X1667Y772D01*
X1668Y776D01*
X1667Y781D01*
X1664Y785D01*
X1660Y788D01*
X1656Y788D01*
D02*
G37*
G36*
X1560D02*
X1555Y788D01*
X1551Y785D01*
X1549Y781D01*
X1548Y776D01*
X1549Y772D01*
X1551Y768D01*
X1555Y765D01*
X1560Y764D01*
X1564Y765D01*
X1568Y768D01*
X1571Y772D01*
X1572Y776D01*
X1571Y781D01*
X1568Y785D01*
X1564Y788D01*
X1560Y788D01*
D02*
G37*
G36*
X1810Y787D02*
X1805Y786D01*
X1801Y784D01*
X1799Y780D01*
X1798Y775D01*
X1799Y770D01*
X1801Y766D01*
X1805Y764D01*
X1810Y763D01*
X1815Y764D01*
X1819Y766D01*
X1821Y770D01*
X1822Y775D01*
X1821Y780D01*
X1819Y784D01*
X1815Y786D01*
X1810Y787D01*
D02*
G37*
G36*
X2945Y785D02*
X2937Y783D01*
X2931Y779D01*
X2927Y773D01*
X2925Y765D01*
X2927Y757D01*
X2931Y751D01*
X2937Y747D01*
X2945Y745D01*
X2953Y747D01*
X2959Y751D01*
X2963Y757D01*
X2965Y765D01*
X2963Y773D01*
X2959Y779D01*
X2953Y783D01*
X2945Y785D01*
D02*
G37*
G36*
X1720Y757D02*
X1715Y756D01*
X1711Y754D01*
X1709Y750D01*
X1708Y745D01*
X1709Y740D01*
X1711Y736D01*
X1715Y734D01*
X1720Y733D01*
X1725Y734D01*
X1729Y736D01*
X1731Y740D01*
X1732Y745D01*
X1731Y750D01*
X1729Y754D01*
X1725Y756D01*
X1720Y757D01*
D02*
G37*
G36*
X2045Y795D02*
X2037Y793D01*
X2031Y789D01*
X2027Y783D01*
X2025Y775D01*
X2027Y767D01*
X2031Y761D01*
X2037Y757D01*
X2045Y755D01*
X2053Y757D01*
X2059Y761D01*
X2063Y767D01*
X2065Y775D01*
X2063Y783D01*
X2059Y789D01*
X2053Y793D01*
X2045Y795D01*
D02*
G37*
G36*
X1620Y757D02*
X1615Y756D01*
X1611Y754D01*
X1609Y750D01*
X1608Y746D01*
X1603D01*
Y746D01*
X1603D01*
X1603Y749D01*
X1600Y753D01*
X1596Y756D01*
X1591Y757D01*
X1587Y756D01*
X1583Y753D01*
X1580Y749D01*
X1579Y745D01*
X1580Y740D01*
X1583Y736D01*
X1587Y734D01*
X1591Y733D01*
X1596Y734D01*
X1600Y736D01*
X1603Y740D01*
X1603Y743D01*
X1608D01*
Y743D01*
X1608D01*
X1609Y740D01*
X1611Y736D01*
X1615Y734D01*
X1620Y733D01*
X1625Y734D01*
X1629Y736D01*
X1631Y740D01*
X1632Y745D01*
X1631Y750D01*
X1629Y754D01*
X1625Y756D01*
X1620Y757D01*
D02*
G37*
G36*
X850Y885D02*
X842Y883D01*
X836Y879D01*
X832Y873D01*
X830Y865D01*
X832Y857D01*
X836Y851D01*
X842Y847D01*
X850Y845D01*
X858Y847D01*
X864Y851D01*
X868Y857D01*
X870Y865D01*
X868Y873D01*
X864Y879D01*
X858Y883D01*
X850Y885D01*
D02*
G37*
G36*
X2550Y1039D02*
X2540Y1038D01*
X2530Y1034D01*
X2522Y1028D01*
X2516Y1020D01*
X2512Y1010D01*
X2511Y1000D01*
X2512Y990D01*
X2516Y980D01*
X2522Y972D01*
X2530Y966D01*
X2540Y962D01*
X2550Y961D01*
X2560Y962D01*
X2570Y966D01*
X2578Y972D01*
X2584Y980D01*
X2588Y990D01*
X2589Y1000D01*
X2588Y1010D01*
X2584Y1020D01*
X2578Y1028D01*
X2570Y1034D01*
X2560Y1038D01*
X2550Y1039D01*
D02*
G37*
G36*
X2450D02*
X2440Y1038D01*
X2430Y1034D01*
X2422Y1028D01*
X2416Y1020D01*
X2412Y1010D01*
X2411Y1000D01*
X2412Y990D01*
X2416Y980D01*
X2422Y972D01*
X2430Y966D01*
X2440Y962D01*
X2450Y961D01*
X2460Y962D01*
X2470Y966D01*
X2478Y972D01*
X2484Y980D01*
X2488Y990D01*
X2489Y1000D01*
X2488Y1010D01*
X2484Y1020D01*
X2478Y1028D01*
X2470Y1034D01*
X2460Y1038D01*
X2450Y1039D01*
D02*
G37*
G36*
X1450Y997D02*
X1445Y996D01*
X1441Y994D01*
X1439Y990D01*
X1438Y985D01*
X1439Y980D01*
X1441Y976D01*
X1445Y974D01*
X1450Y973D01*
X1455Y974D01*
X1459Y976D01*
X1461Y980D01*
X1462Y985D01*
X1461Y990D01*
X1459Y994D01*
X1455Y996D01*
X1450Y997D01*
D02*
G37*
G36*
X2675Y1010D02*
X2667Y1008D01*
X2661Y1004D01*
X2657Y998D01*
X2655Y990D01*
X2657Y982D01*
X2661Y976D01*
X2667Y972D01*
X2675Y970D01*
X2683Y972D01*
X2689Y976D01*
X2693Y982D01*
X2695Y990D01*
X2693Y998D01*
X2689Y1004D01*
X2683Y1008D01*
X2675Y1010D01*
D02*
G37*
G36*
X2905Y993D02*
X2898Y992D01*
X2892Y988D01*
X2888Y982D01*
X2887Y975D01*
X2888Y968D01*
X2892Y962D01*
X2898Y958D01*
X2905Y957D01*
X2912Y958D01*
X2918Y962D01*
X2922Y968D01*
X2923Y975D01*
X2922Y982D01*
X2918Y988D01*
X2912Y992D01*
X2905Y993D01*
D02*
G37*
G36*
X2315Y980D02*
X2307Y978D01*
X2301Y974D01*
X2297Y968D01*
X2295Y960D01*
X2297Y952D01*
X2301Y946D01*
X2307Y942D01*
X2315Y940D01*
X2323Y942D01*
X2329Y946D01*
X2333Y952D01*
X2335Y960D01*
X2333Y968D01*
X2329Y974D01*
X2323Y978D01*
X2315Y980D01*
D02*
G37*
G36*
X245D02*
X237Y978D01*
X231Y974D01*
X227Y968D01*
X225Y960D01*
X227Y952D01*
X231Y946D01*
X237Y942D01*
X245Y940D01*
X253Y942D01*
X259Y946D01*
X263Y952D01*
X265Y960D01*
X263Y968D01*
X259Y974D01*
X253Y978D01*
X245Y980D01*
D02*
G37*
G36*
X1686Y977D02*
X1681Y976D01*
X1677Y974D01*
X1675Y970D01*
X1674Y965D01*
X1675Y961D01*
X1677Y957D01*
X1681Y954D01*
X1686Y953D01*
X1690Y954D01*
X1694Y957D01*
X1697Y961D01*
X1698Y965D01*
X1697Y970D01*
X1694Y974D01*
X1690Y976D01*
X1686Y977D01*
D02*
G37*
G36*
X1591Y977D02*
X1586Y976D01*
X1582Y974D01*
X1580Y970D01*
X1579Y965D01*
X1580Y960D01*
X1582Y956D01*
X1586Y954D01*
X1591Y953D01*
X1596Y954D01*
X1600Y956D01*
X1602Y960D01*
X1603Y965D01*
X1602Y970D01*
X1600Y974D01*
X1596Y976D01*
X1591Y977D01*
D02*
G37*
G36*
X295Y1030D02*
X287Y1028D01*
X281Y1024D01*
X277Y1018D01*
X275Y1010D01*
X277Y1002D01*
X281Y996D01*
X287Y992D01*
X295Y990D01*
X303Y992D01*
X309Y996D01*
X313Y1002D01*
X315Y1010D01*
X313Y1018D01*
X309Y1024D01*
X303Y1028D01*
X295Y1030D01*
D02*
G37*
G36*
X1494Y1012D02*
X1489Y1011D01*
X1485Y1009D01*
X1482Y1005D01*
X1481Y1000D01*
X1482Y995D01*
X1485Y991D01*
X1489Y989D01*
X1494Y988D01*
X1498Y989D01*
X1502Y991D01*
X1505Y995D01*
X1506Y1000D01*
X1505Y1005D01*
X1502Y1009D01*
X1498Y1011D01*
X1494Y1012D01*
D02*
G37*
G36*
X2015Y1045D02*
X2007Y1043D01*
X2001Y1039D01*
X1997Y1033D01*
X1995Y1025D01*
X1997Y1017D01*
X2001Y1011D01*
X2007Y1007D01*
X2015Y1005D01*
X2023Y1007D01*
X2029Y1011D01*
X2033Y1017D01*
X2035Y1025D01*
X2033Y1033D01*
X2029Y1039D01*
X2023Y1043D01*
X2015Y1045D01*
D02*
G37*
G36*
X245Y1040D02*
X237Y1038D01*
X231Y1034D01*
X227Y1028D01*
X225Y1020D01*
X227Y1012D01*
X231Y1006D01*
X237Y1002D01*
X245Y1000D01*
X253Y1002D01*
X259Y1006D01*
X263Y1012D01*
X265Y1020D01*
X263Y1028D01*
X259Y1034D01*
X253Y1038D01*
X245Y1040D01*
D02*
G37*
G36*
X1655Y1010D02*
X1650Y1009D01*
X1646Y1006D01*
X1644Y1002D01*
X1643Y997D01*
X1644Y993D01*
X1646Y989D01*
X1650Y986D01*
X1655Y985D01*
X1660Y986D01*
X1664Y989D01*
X1666Y993D01*
X1667Y997D01*
X1666Y1002D01*
X1664Y1006D01*
X1660Y1009D01*
X1655Y1010D01*
D02*
G37*
G36*
X1590Y1008D02*
X1585Y1007D01*
X1581Y1004D01*
X1579Y1000D01*
X1578Y995D01*
X1579Y991D01*
X1581Y987D01*
X1585Y984D01*
X1590Y983D01*
X1595Y984D01*
X1599Y987D01*
X1601Y991D01*
X1602Y995D01*
X1601Y1000D01*
X1599Y1004D01*
X1595Y1007D01*
X1590Y1008D01*
D02*
G37*
G36*
X1810Y1007D02*
X1805Y1006D01*
X1801Y1004D01*
X1799Y1000D01*
X1798Y995D01*
X1799Y990D01*
X1801Y986D01*
X1805Y984D01*
X1810Y983D01*
X1815Y984D01*
X1819Y986D01*
X1821Y990D01*
X1822Y995D01*
X1821Y1000D01*
X1819Y1004D01*
X1815Y1006D01*
X1810Y1007D01*
D02*
G37*
G36*
X1688Y1008D02*
X1683Y1007D01*
X1679Y1005D01*
X1677Y1001D01*
X1676Y996D01*
X1677Y991D01*
X1679Y987D01*
X1683Y985D01*
X1688Y984D01*
X1693Y985D01*
X1697Y987D01*
X1699Y991D01*
X1700Y996D01*
X1699Y1001D01*
X1697Y1005D01*
X1693Y1007D01*
X1688Y1008D01*
D02*
G37*
G36*
X1625D02*
X1620Y1007D01*
X1616Y1005D01*
X1614Y1001D01*
X1613Y996D01*
X1614Y991D01*
X1616Y987D01*
X1620Y985D01*
X1625Y984D01*
X1630Y985D01*
X1634Y987D01*
X1636Y991D01*
X1637Y996D01*
X1636Y1001D01*
X1634Y1005D01*
X1630Y1007D01*
X1625Y1008D01*
D02*
G37*
G36*
X1315Y925D02*
X1307Y923D01*
X1301Y919D01*
X1297Y913D01*
X1295Y905D01*
X1297Y897D01*
X1301Y891D01*
X1307Y887D01*
X1315Y885D01*
X1323Y887D01*
X1329Y891D01*
X1333Y897D01*
X1335Y905D01*
X1333Y913D01*
X1329Y919D01*
X1323Y923D01*
X1315Y925D01*
D02*
G37*
G36*
X1480Y882D02*
X1475Y881D01*
X1471Y879D01*
X1470Y877D01*
X1465D01*
X1464Y879D01*
X1460Y881D01*
X1455Y882D01*
X1450Y881D01*
X1446Y879D01*
X1444Y875D01*
X1443Y870D01*
X1444Y865D01*
X1446Y861D01*
X1450Y859D01*
X1455Y858D01*
X1460Y859D01*
X1464Y861D01*
X1465Y863D01*
X1470D01*
X1471Y861D01*
X1475Y859D01*
X1480Y858D01*
X1485Y859D01*
X1489Y861D01*
X1491Y865D01*
X1492Y870D01*
X1491Y875D01*
X1489Y879D01*
X1485Y881D01*
X1480Y882D01*
D02*
G37*
G36*
X1528Y914D02*
X1524Y913D01*
X1520Y911D01*
X1517Y907D01*
X1516Y902D01*
X1517Y898D01*
X1520Y894D01*
X1524Y891D01*
X1528Y890D01*
X1533Y891D01*
X1537Y894D01*
X1540Y898D01*
X1540Y902D01*
X1540Y907D01*
X1537Y911D01*
X1533Y913D01*
X1528Y914D01*
D02*
G37*
G36*
X1685Y912D02*
X1680Y911D01*
X1676Y909D01*
X1674Y905D01*
X1673Y900D01*
X1674Y895D01*
X1676Y891D01*
X1680Y889D01*
X1685Y888D01*
X1690Y889D01*
X1694Y891D01*
X1696Y895D01*
X1697Y900D01*
X1696Y905D01*
X1694Y909D01*
X1690Y911D01*
X1685Y912D01*
D02*
G37*
G36*
X1070Y910D02*
X1062Y908D01*
X1056Y904D01*
X1052Y898D01*
X1050Y890D01*
X1052Y882D01*
X1056Y876D01*
X1062Y872D01*
X1070Y870D01*
X1078Y872D01*
X1084Y876D01*
X1088Y882D01*
X1090Y890D01*
X1088Y898D01*
X1084Y904D01*
X1078Y908D01*
X1070Y910D01*
D02*
G37*
G36*
X1813Y882D02*
X1808Y881D01*
X1804Y879D01*
X1802Y875D01*
X1801Y870D01*
X1802Y865D01*
X1804Y861D01*
X1808Y859D01*
X1813Y858D01*
X1818Y859D01*
X1822Y861D01*
X1824Y865D01*
X1825Y870D01*
X1824Y875D01*
X1822Y879D01*
X1818Y881D01*
X1813Y882D01*
D02*
G37*
G36*
X1686D02*
X1682Y881D01*
X1678Y879D01*
X1675Y875D01*
X1674Y870D01*
X1675Y865D01*
X1678Y861D01*
X1682Y859D01*
X1686Y858D01*
X1691Y859D01*
X1695Y861D01*
X1698Y865D01*
X1699Y870D01*
X1698Y875D01*
X1695Y879D01*
X1691Y881D01*
X1686Y882D01*
D02*
G37*
G36*
X1623Y883D02*
X1618Y882D01*
X1614Y879D01*
X1612Y875D01*
X1611Y871D01*
X1612Y866D01*
X1614Y862D01*
X1618Y860D01*
X1623Y859D01*
X1627Y860D01*
X1631Y862D01*
X1634Y866D01*
X1635Y871D01*
X1634Y875D01*
X1631Y879D01*
X1627Y882D01*
X1623Y883D01*
D02*
G37*
G36*
X1591D02*
X1587Y882D01*
X1583Y879D01*
X1580Y875D01*
X1579Y871D01*
X1580Y866D01*
X1583Y862D01*
X1587Y860D01*
X1591Y859D01*
X1596Y860D01*
X1600Y862D01*
X1603Y866D01*
X1603Y871D01*
X1603Y875D01*
X1600Y879D01*
X1596Y882D01*
X1591Y883D01*
D02*
G37*
G36*
X1685Y948D02*
X1680Y947D01*
X1676Y944D01*
X1674Y940D01*
X1673Y936D01*
X1674Y931D01*
X1676Y927D01*
X1680Y924D01*
X1685Y923D01*
X1690Y924D01*
X1694Y927D01*
X1696Y931D01*
X1697Y936D01*
X1696Y940D01*
X1694Y944D01*
X1690Y947D01*
X1685Y948D01*
D02*
G37*
G36*
X1625Y947D02*
X1620Y946D01*
X1616Y944D01*
X1614Y940D01*
X1613Y935D01*
X1614Y930D01*
X1616Y926D01*
X1620Y924D01*
X1625Y923D01*
X1630Y924D01*
X1634Y926D01*
X1636Y930D01*
X1637Y935D01*
X1636Y940D01*
X1634Y944D01*
X1630Y946D01*
X1625Y947D01*
D02*
G37*
G36*
X1315Y1015D02*
X1307Y1013D01*
X1301Y1009D01*
X1297Y1003D01*
X1295Y995D01*
X1297Y987D01*
X1301Y981D01*
X1306Y978D01*
Y973D01*
X1301Y969D01*
X1297Y963D01*
X1295Y955D01*
X1297Y947D01*
X1301Y941D01*
X1307Y937D01*
X1315Y935D01*
X1323Y937D01*
X1329Y941D01*
X1333Y947D01*
X1335Y955D01*
X1333Y963D01*
X1329Y969D01*
X1324Y973D01*
Y978D01*
X1329Y981D01*
X1333Y987D01*
X1335Y995D01*
X1333Y1003D01*
X1329Y1009D01*
X1323Y1013D01*
X1315Y1015D01*
D02*
G37*
G36*
X1855Y952D02*
X1851Y951D01*
X1847Y949D01*
X1844Y945D01*
X1843Y940D01*
X1844Y935D01*
X1847Y931D01*
X1851Y929D01*
X1855Y928D01*
X1860Y929D01*
X1864Y931D01*
X1867Y935D01*
X1868Y940D01*
X1867Y945D01*
X1864Y949D01*
X1860Y951D01*
X1855Y952D01*
D02*
G37*
G36*
X1749Y946D02*
X1744Y945D01*
X1740Y942D01*
X1737Y938D01*
X1737Y934D01*
X1737Y929D01*
X1740Y925D01*
X1744Y922D01*
X1749Y922D01*
X1753Y922D01*
X1757Y925D01*
X1760Y929D01*
X1761Y934D01*
X1760Y938D01*
X1757Y942D01*
X1753Y945D01*
X1749Y946D01*
D02*
G37*
G36*
Y914D02*
X1744Y913D01*
X1740Y911D01*
X1737Y907D01*
X1737Y902D01*
X1737Y898D01*
X1740Y894D01*
X1744Y891D01*
X1749Y890D01*
X1753Y891D01*
X1757Y894D01*
X1760Y898D01*
X1761Y902D01*
X1760Y907D01*
X1757Y911D01*
X1753Y913D01*
X1749Y914D01*
D02*
G37*
G36*
X1560D02*
X1555Y913D01*
X1551Y911D01*
X1549Y907D01*
X1548Y902D01*
X1549Y898D01*
X1551Y894D01*
X1555Y891D01*
X1560Y890D01*
X1564Y891D01*
X1568Y894D01*
X1571Y898D01*
X1572Y902D01*
X1571Y907D01*
X1568Y911D01*
X1564Y913D01*
X1560Y914D01*
D02*
G37*
G36*
X2015Y985D02*
X2007Y983D01*
X2001Y979D01*
X1997Y973D01*
X1995Y965D01*
X1997Y957D01*
X2001Y951D01*
X2006Y948D01*
Y943D01*
X2001Y939D01*
X1997Y933D01*
X1995Y925D01*
X1997Y917D01*
X2001Y911D01*
X2007Y907D01*
X2015Y905D01*
X2023Y907D01*
X2029Y911D01*
X2033Y917D01*
X2035Y925D01*
X2033Y933D01*
X2029Y939D01*
X2024Y943D01*
Y948D01*
X2029Y951D01*
X2033Y957D01*
X2035Y965D01*
X2033Y973D01*
X2029Y979D01*
X2023Y983D01*
X2015Y985D01*
D02*
G37*
G36*
X1655Y915D02*
X1650Y914D01*
X1646Y912D01*
X1644Y908D01*
X1643Y903D01*
X1644Y898D01*
X1646Y894D01*
X1650Y892D01*
X1655Y891D01*
X1660Y892D01*
X1664Y894D01*
X1666Y898D01*
X1667Y903D01*
X1666Y908D01*
X1664Y912D01*
X1660Y914D01*
X1655Y915D01*
D02*
G37*
G36*
X410Y340D02*
X402Y338D01*
X396Y334D01*
X392Y328D01*
X390Y320D01*
X392Y312D01*
X396Y306D01*
X402Y302D01*
X410Y300D01*
X418Y302D01*
X424Y306D01*
X428Y312D01*
X430Y320D01*
X428Y328D01*
X424Y334D01*
X418Y338D01*
X410Y340D01*
D02*
G37*
G36*
X1978Y317D02*
X1970Y316D01*
X1963Y312D01*
X1959Y305D01*
X1958Y298D01*
X1959Y290D01*
X1963Y283D01*
X1970Y279D01*
X1978Y278D01*
X1985Y279D01*
X1992Y283D01*
X1996Y290D01*
X1997Y298D01*
X1996Y305D01*
X1992Y312D01*
X1985Y316D01*
X1978Y317D01*
D02*
G37*
G36*
X2600Y345D02*
X2592Y343D01*
X2586Y339D01*
X2582Y333D01*
X2580Y325D01*
X2582Y317D01*
X2586Y311D01*
X2592Y307D01*
X2600Y305D01*
X2608Y307D01*
X2614Y311D01*
X2618Y317D01*
X2620Y325D01*
X2618Y333D01*
X2614Y339D01*
X2608Y343D01*
X2600Y345D01*
D02*
G37*
G36*
X1130D02*
X1122Y343D01*
X1116Y339D01*
X1112Y333D01*
X1110Y325D01*
X1112Y317D01*
X1116Y311D01*
X1122Y307D01*
X1130Y305D01*
X1138Y307D01*
X1144Y311D01*
X1148Y317D01*
X1150Y325D01*
X1148Y333D01*
X1144Y339D01*
X1138Y343D01*
X1130Y345D01*
D02*
G37*
G36*
X2155Y315D02*
X2147Y313D01*
X2141Y309D01*
X2137Y303D01*
X2135Y295D01*
X2137Y287D01*
X2141Y281D01*
X2147Y277D01*
X2155Y275D01*
X2163Y277D01*
X2169Y281D01*
X2173Y287D01*
X2175Y295D01*
X2173Y303D01*
X2169Y309D01*
X2163Y313D01*
X2155Y315D01*
D02*
G37*
G36*
X1565Y270D02*
X1557Y268D01*
X1551Y264D01*
X1547Y258D01*
X1545Y250D01*
X1547Y242D01*
X1549Y239D01*
X1546Y235D01*
X1545Y235D01*
X1537Y233D01*
X1531Y229D01*
X1527Y223D01*
X1525Y215D01*
X1527Y207D01*
X1531Y201D01*
X1537Y197D01*
X1545Y195D01*
X1553Y197D01*
X1559Y201D01*
X1563Y207D01*
X1565Y215D01*
X1563Y223D01*
X1561Y226D01*
X1564Y230D01*
X1565Y230D01*
X1573Y232D01*
X1579Y236D01*
X1583Y242D01*
X1585Y250D01*
X1583Y258D01*
X1579Y264D01*
X1573Y268D01*
X1565Y270D01*
D02*
G37*
G36*
X1515D02*
X1507Y268D01*
X1501Y264D01*
X1497Y258D01*
X1495Y250D01*
X1497Y242D01*
X1501Y236D01*
X1507Y232D01*
X1515Y230D01*
X1523Y232D01*
X1529Y236D01*
X1533Y242D01*
X1535Y250D01*
X1533Y258D01*
X1529Y264D01*
X1523Y268D01*
X1515Y270D01*
D02*
G37*
G36*
X920Y300D02*
X912Y298D01*
X906Y294D01*
X902Y288D01*
X900Y280D01*
X902Y272D01*
X906Y266D01*
X912Y262D01*
X920Y260D01*
X928Y262D01*
X934Y266D01*
X938Y272D01*
X940Y280D01*
X938Y288D01*
X934Y294D01*
X928Y298D01*
X920Y300D01*
D02*
G37*
G36*
X1724Y261D02*
X1719Y260D01*
X1715Y257D01*
X1712Y253D01*
X1711Y249D01*
X1712Y244D01*
X1715Y240D01*
X1719Y237D01*
X1724Y236D01*
X1728Y237D01*
X1732Y240D01*
X1735Y244D01*
X1736Y249D01*
X1735Y253D01*
X1732Y257D01*
X1728Y260D01*
X1724Y261D01*
D02*
G37*
G36*
X1725Y417D02*
X1720Y416D01*
X1716Y414D01*
X1714Y410D01*
X1713Y405D01*
X1714Y400D01*
X1716Y396D01*
X1720Y394D01*
X1725Y393D01*
X1730Y394D01*
X1734Y396D01*
X1736Y400D01*
X1737Y405D01*
X1736Y410D01*
X1734Y414D01*
X1730Y416D01*
X1725Y417D01*
D02*
G37*
G36*
X2033Y410D02*
X2028Y409D01*
X2024Y406D01*
X2021Y402D01*
X2020Y398D01*
X2021Y393D01*
X2024Y389D01*
X2028Y386D01*
X2033Y385D01*
X2037Y386D01*
X2041Y389D01*
X2044Y393D01*
X2045Y398D01*
X2044Y402D01*
X2041Y406D01*
X2037Y409D01*
X2033Y410D01*
D02*
G37*
G36*
X1585Y455D02*
X1577Y453D01*
X1571Y449D01*
X1567Y443D01*
X1565Y435D01*
X1567Y427D01*
X1571Y421D01*
X1577Y417D01*
X1585Y415D01*
X1593Y417D01*
X1599Y421D01*
X1603Y427D01*
X1605Y435D01*
X1603Y443D01*
X1599Y449D01*
X1593Y453D01*
X1585Y455D01*
D02*
G37*
G36*
X1530D02*
X1522Y453D01*
X1516Y449D01*
X1512Y443D01*
X1510Y435D01*
X1512Y427D01*
X1516Y421D01*
X1522Y417D01*
X1530Y415D01*
X1538Y417D01*
X1544Y421D01*
X1548Y427D01*
X1550Y435D01*
X1548Y443D01*
X1544Y449D01*
X1538Y453D01*
X1530Y455D01*
D02*
G37*
G36*
X865Y400D02*
X857Y398D01*
X851Y394D01*
X847Y388D01*
X845Y380D01*
X847Y372D01*
X851Y366D01*
X857Y362D01*
X865Y360D01*
X873Y362D01*
X879Y366D01*
X883Y372D01*
X885Y380D01*
X883Y388D01*
X879Y394D01*
X873Y398D01*
X865Y400D01*
D02*
G37*
G36*
X2265Y360D02*
X2257Y358D01*
X2251Y354D01*
X2247Y348D01*
X2245Y340D01*
X2247Y332D01*
X2251Y326D01*
X2257Y322D01*
X2265Y320D01*
X2273Y322D01*
X2279Y326D01*
X2283Y332D01*
X2285Y340D01*
X2283Y348D01*
X2279Y354D01*
X2273Y358D01*
X2265Y360D01*
D02*
G37*
G36*
X1485Y337D02*
X1480Y336D01*
X1476Y334D01*
X1474Y330D01*
X1473Y325D01*
X1474Y320D01*
X1476Y316D01*
X1480Y314D01*
X1485Y313D01*
X1490Y314D01*
X1494Y316D01*
X1496Y320D01*
X1497Y325D01*
X1496Y330D01*
X1494Y334D01*
X1490Y336D01*
X1485Y337D01*
D02*
G37*
G36*
X294Y392D02*
X285Y391D01*
X277Y387D01*
X270Y382D01*
X264Y375D01*
X261Y367D01*
X260Y358D01*
X261Y349D01*
X264Y341D01*
X270Y334D01*
X277Y329D01*
X285Y325D01*
X294Y324D01*
X302Y325D01*
X310Y329D01*
X317Y334D01*
X323Y341D01*
X326Y349D01*
X327Y358D01*
X326Y367D01*
X323Y375D01*
X317Y382D01*
X310Y387D01*
X302Y391D01*
X294Y392D01*
D02*
G37*
G36*
X116D02*
X108Y391D01*
X100Y387D01*
X93Y382D01*
X87Y375D01*
X84Y367D01*
X83Y358D01*
X84Y349D01*
X87Y341D01*
X93Y334D01*
X100Y329D01*
X108Y325D01*
X116Y324D01*
X125Y325D01*
X133Y329D01*
X140Y334D01*
X146Y341D01*
X149Y349D01*
X150Y358D01*
X149Y367D01*
X146Y375D01*
X140Y382D01*
X133Y387D01*
X125Y391D01*
X116Y392D01*
D02*
G37*
G36*
X2840Y223D02*
X2828Y221D01*
X2816Y218D01*
X2805Y212D01*
X2796Y204D01*
X2788Y195D01*
X2782Y184D01*
X2779Y172D01*
X2777Y160D01*
X2779Y148D01*
X2782Y136D01*
X2788Y125D01*
X2796Y116D01*
X2805Y108D01*
X2816Y102D01*
X2828Y99D01*
X2840Y97D01*
X2852Y99D01*
X2864Y102D01*
X2875Y108D01*
X2884Y116D01*
X2892Y125D01*
X2898Y136D01*
X2901Y148D01*
X2903Y160D01*
X2901Y172D01*
X2898Y184D01*
X2892Y195D01*
X2884Y204D01*
X2875Y212D01*
X2864Y218D01*
X2852Y221D01*
X2840Y223D01*
D02*
G37*
G36*
X2600Y120D02*
X2592Y118D01*
X2586Y114D01*
X2582Y108D01*
X2580Y100D01*
X2582Y92D01*
X2586Y86D01*
X2592Y82D01*
X2600Y80D01*
X2608Y82D01*
X2614Y86D01*
X2618Y92D01*
X2620Y100D01*
X2618Y108D01*
X2614Y114D01*
X2608Y118D01*
X2600Y120D01*
D02*
G37*
G36*
X1990Y160D02*
X1982Y158D01*
X1976Y154D01*
X1971Y148D01*
X1970Y140D01*
X1971Y132D01*
X1976Y126D01*
X1982Y122D01*
X1990Y120D01*
X1997Y122D01*
X2004Y126D01*
X2008Y132D01*
X2010Y140D01*
X2008Y148D01*
X2004Y154D01*
X1997Y158D01*
X1990Y160D01*
D02*
G37*
G36*
X2085Y155D02*
X2077Y153D01*
X2071Y149D01*
X2067Y143D01*
X2065Y135D01*
X2067Y127D01*
X2071Y121D01*
X2077Y117D01*
X2085Y115D01*
X2093Y117D01*
X2099Y121D01*
X2103Y127D01*
X2105Y135D01*
X2103Y143D01*
X2099Y149D01*
X2093Y153D01*
X2085Y155D01*
D02*
G37*
G36*
X294Y136D02*
X285Y135D01*
X277Y131D01*
X270Y126D01*
X264Y119D01*
X261Y111D01*
X260Y102D01*
X261Y93D01*
X264Y85D01*
X270Y78D01*
X277Y73D01*
X285Y69D01*
X294Y68D01*
X302Y69D01*
X310Y73D01*
X317Y78D01*
X323Y85D01*
X326Y93D01*
X327Y102D01*
X326Y111D01*
X323Y119D01*
X317Y126D01*
X310Y131D01*
X302Y135D01*
X294Y136D01*
D02*
G37*
G36*
X2345Y60D02*
X2337Y58D01*
X2331Y54D01*
X2327Y48D01*
X2325Y40D01*
X2327Y32D01*
X2331Y26D01*
X2337Y22D01*
X2345Y20D01*
X2353Y22D01*
X2359Y26D01*
X2363Y32D01*
X2365Y40D01*
X2363Y48D01*
X2359Y54D01*
X2353Y58D01*
X2345Y60D01*
D02*
G37*
G36*
X2750Y107D02*
X2739Y105D01*
X2728Y101D01*
X2719Y94D01*
X2712Y85D01*
X2708Y74D01*
X2706Y63D01*
X2708Y52D01*
X2712Y41D01*
X2719Y32D01*
X2728Y25D01*
X2739Y21D01*
X2750Y19D01*
X2761Y21D01*
X2772Y25D01*
X2781Y32D01*
X2788Y41D01*
X2792Y52D01*
X2794Y63D01*
X2792Y74D01*
X2788Y85D01*
X2781Y94D01*
X2772Y101D01*
X2761Y105D01*
X2750Y107D01*
D02*
G37*
G36*
X116Y136D02*
X108Y135D01*
X100Y131D01*
X93Y126D01*
X87Y119D01*
X84Y111D01*
X83Y102D01*
X84Y93D01*
X87Y85D01*
X93Y78D01*
X100Y73D01*
X108Y69D01*
X116Y68D01*
X125Y69D01*
X133Y73D01*
X140Y78D01*
X146Y85D01*
X149Y93D01*
X150Y102D01*
X149Y111D01*
X146Y119D01*
X140Y126D01*
X133Y131D01*
X125Y135D01*
X116Y136D01*
D02*
G37*
G36*
X995Y90D02*
X987Y88D01*
X981Y84D01*
X977Y78D01*
X975Y70D01*
X977Y62D01*
X981Y56D01*
X987Y52D01*
X995Y50D01*
X1003Y52D01*
X1009Y56D01*
X1013Y62D01*
X1015Y70D01*
X1013Y78D01*
X1009Y84D01*
X1003Y88D01*
X995Y90D01*
D02*
G37*
G36*
X1035Y195D02*
X1027Y193D01*
X1021Y189D01*
X1017Y183D01*
X1015Y175D01*
X1017Y167D01*
X1021Y161D01*
X1027Y157D01*
X1035Y155D01*
X1043Y157D01*
X1049Y161D01*
X1053Y167D01*
X1055Y175D01*
X1053Y183D01*
X1049Y189D01*
X1043Y193D01*
X1035Y195D01*
D02*
G37*
G36*
X2600Y195D02*
X2592Y193D01*
X2586Y189D01*
X2582Y183D01*
X2580Y175D01*
X2582Y167D01*
X2586Y161D01*
X2592Y157D01*
X2600Y155D01*
X2608Y157D01*
X2614Y161D01*
X2618Y167D01*
X2620Y175D01*
X2618Y183D01*
X2614Y189D01*
X2608Y193D01*
X2600Y195D01*
D02*
G37*
G36*
Y270D02*
X2592Y268D01*
X2586Y264D01*
X2582Y258D01*
X2580Y250D01*
X2582Y242D01*
X2586Y236D01*
X2592Y232D01*
X2600Y230D01*
X2608Y232D01*
X2614Y236D01*
X2618Y242D01*
X2620Y250D01*
X2618Y258D01*
X2614Y264D01*
X2608Y268D01*
X2600Y270D01*
D02*
G37*
G36*
X1215Y220D02*
X1207Y218D01*
X1201Y214D01*
X1197Y208D01*
X1195Y200D01*
X1197Y192D01*
X1201Y186D01*
X1207Y182D01*
X1215Y180D01*
X1223Y182D01*
X1229Y186D01*
X1233Y192D01*
X1235Y200D01*
X1233Y208D01*
X1229Y214D01*
X1223Y218D01*
X1215Y220D01*
D02*
G37*
G36*
X1835Y195D02*
X1827Y193D01*
X1821Y189D01*
X1817Y183D01*
X1815Y175D01*
X1817Y167D01*
X1821Y161D01*
X1827Y157D01*
X1835Y155D01*
X1843Y157D01*
X1849Y161D01*
X1853Y167D01*
X1855Y175D01*
X1853Y183D01*
X1849Y189D01*
X1843Y193D01*
X1835Y195D01*
D02*
G37*
G36*
X1210Y170D02*
X1202Y168D01*
X1196Y164D01*
X1192Y158D01*
X1190Y150D01*
X1192Y142D01*
X1196Y136D01*
X1202Y132D01*
X1210Y130D01*
X1218Y132D01*
X1224Y136D01*
X1228Y142D01*
X1230Y150D01*
X1228Y158D01*
X1224Y164D01*
X1218Y168D01*
X1210Y170D01*
D02*
G37*
G36*
X1065Y160D02*
X1057Y158D01*
X1051Y154D01*
X1047Y148D01*
X1045Y140D01*
X1047Y132D01*
X1051Y126D01*
X1057Y122D01*
X1065Y120D01*
X1073Y122D01*
X1079Y126D01*
X1083Y132D01*
X1085Y140D01*
X1083Y148D01*
X1079Y154D01*
X1073Y158D01*
X1065Y160D01*
D02*
G37*
G36*
X1270Y190D02*
X1262Y188D01*
X1256Y184D01*
X1252Y178D01*
X1250Y170D01*
X1252Y162D01*
X1256Y156D01*
X1262Y152D01*
X1270Y150D01*
X1278Y152D01*
X1284Y156D01*
X1288Y162D01*
X1290Y170D01*
X1288Y178D01*
X1284Y184D01*
X1278Y188D01*
X1270Y190D01*
D02*
G37*
G36*
X560Y185D02*
X552Y183D01*
X546Y179D01*
X542Y173D01*
X540Y165D01*
X542Y157D01*
X546Y151D01*
X552Y147D01*
X560Y145D01*
X568Y147D01*
X574Y151D01*
X578Y157D01*
X580Y165D01*
X578Y173D01*
X574Y179D01*
X568Y183D01*
X560Y185D01*
D02*
G37*
G36*
X2073Y465D02*
X2066Y463D01*
X2059Y459D01*
X2055Y453D01*
X2053Y445D01*
X2055Y437D01*
X2059Y431D01*
X2066Y427D01*
X2073Y425D01*
X2081Y427D01*
X2087Y431D01*
X2092Y437D01*
X2093Y445D01*
X2092Y453D01*
X2087Y459D01*
X2081Y463D01*
X2073Y465D01*
D02*
G37*
G36*
X2025Y672D02*
X2020Y671D01*
X2016Y669D01*
X2014Y665D01*
X2013Y660D01*
X2014Y655D01*
X2016Y651D01*
X2020Y649D01*
X2025Y648D01*
X2025Y648D01*
X2024Y645D01*
X2024Y645D01*
X2024Y645D01*
X2023Y640D01*
X2024Y635D01*
X2026Y631D01*
X2030Y629D01*
X2035Y628D01*
X2040Y629D01*
X2044Y631D01*
X2046Y635D01*
X2047Y640D01*
X2046Y645D01*
X2044Y649D01*
X2040Y651D01*
X2038Y652D01*
X2036Y655D01*
D01*
D01*
X2036Y655D01*
D01*
X2037Y660D01*
X2036Y665D01*
X2034Y669D01*
X2030Y671D01*
X2025Y672D01*
D02*
G37*
G36*
X2070Y637D02*
X2065Y636D01*
X2061Y634D01*
X2059Y630D01*
X2058Y625D01*
X2059Y620D01*
X2061Y616D01*
X2065Y614D01*
X2070Y613D01*
X2075Y614D01*
X2079Y616D01*
X2081Y620D01*
X2082Y625D01*
X2081Y630D01*
X2079Y634D01*
X2075Y636D01*
X2070Y637D01*
D02*
G37*
G36*
X2340Y675D02*
X2332Y673D01*
X2326Y669D01*
X2322Y663D01*
X2320Y655D01*
X2322Y647D01*
X2325Y643D01*
X2322Y638D01*
X2315Y640D01*
X2307Y638D01*
X2301Y634D01*
X2297Y628D01*
X2295Y620D01*
X2297Y612D01*
X2301Y606D01*
X2307Y602D01*
X2315Y600D01*
X2323Y602D01*
X2329Y606D01*
X2333Y612D01*
X2335Y620D01*
X2333Y628D01*
X2330Y632D01*
X2333Y637D01*
X2340Y635D01*
X2348Y637D01*
X2354Y641D01*
X2358Y647D01*
X2360Y655D01*
X2358Y663D01*
X2354Y669D01*
X2348Y673D01*
X2340Y675D01*
D02*
G37*
G36*
X95Y680D02*
X87Y678D01*
X81Y674D01*
X77Y668D01*
X75Y660D01*
X77Y652D01*
X81Y646D01*
X87Y642D01*
X95Y640D01*
X102Y642D01*
X105Y637D01*
X102Y633D01*
X100Y625D01*
X102Y617D01*
X106Y611D01*
X112Y607D01*
X120Y605D01*
X128Y607D01*
X134Y611D01*
X138Y617D01*
X140Y625D01*
X138Y633D01*
X137Y634D01*
X141Y638D01*
X142Y637D01*
X150Y635D01*
X158Y637D01*
X164Y641D01*
X168Y647D01*
X170Y655D01*
X168Y663D01*
X164Y669D01*
X158Y673D01*
X150Y675D01*
X142Y673D01*
X136Y669D01*
X132Y663D01*
X130Y655D01*
X132Y647D01*
X133Y646D01*
X129Y642D01*
X128Y643D01*
X120Y645D01*
X113Y643D01*
X110Y648D01*
X113Y652D01*
X115Y660D01*
X113Y668D01*
X109Y674D01*
X103Y678D01*
X95Y680D01*
D02*
G37*
G36*
X2525Y640D02*
X2517Y638D01*
X2511Y634D01*
X2507Y628D01*
X2505Y620D01*
X2507Y612D01*
X2511Y606D01*
X2517Y602D01*
X2525Y600D01*
X2533Y602D01*
X2539Y606D01*
X2543Y612D01*
X2545Y620D01*
X2543Y628D01*
X2539Y634D01*
X2533Y638D01*
X2525Y640D01*
D02*
G37*
G36*
X2090Y605D02*
X2082Y603D01*
X2076Y599D01*
X2072Y593D01*
X2070Y585D01*
X2072Y577D01*
X2076Y571D01*
X2082Y567D01*
X2090Y565D01*
X2098Y567D01*
X2104Y571D01*
X2108Y577D01*
X2110Y585D01*
X2108Y593D01*
X2104Y599D01*
X2098Y603D01*
X2090Y605D01*
D02*
G37*
G36*
X355Y595D02*
X347Y593D01*
X341Y589D01*
X337Y583D01*
X335Y575D01*
X337Y567D01*
X341Y561D01*
X347Y557D01*
X355Y555D01*
X363Y557D01*
X369Y561D01*
X373Y567D01*
X375Y575D01*
X373Y583D01*
X369Y589D01*
X363Y593D01*
X355Y595D01*
D02*
G37*
G36*
X920Y635D02*
X912Y633D01*
X906Y629D01*
X902Y623D01*
X900Y615D01*
X902Y607D01*
X906Y601D01*
X912Y597D01*
X920Y595D01*
X928Y597D01*
X934Y601D01*
X938Y607D01*
X940Y615D01*
X938Y623D01*
X934Y629D01*
X928Y633D01*
X920Y635D01*
D02*
G37*
G36*
X850Y615D02*
X842Y613D01*
X836Y609D01*
X832Y603D01*
X830Y595D01*
X832Y587D01*
X836Y581D01*
X842Y577D01*
X850Y575D01*
X858Y577D01*
X864Y581D01*
X868Y587D01*
X870Y595D01*
X868Y603D01*
X864Y609D01*
X858Y613D01*
X850Y615D01*
D02*
G37*
G36*
X1561Y724D02*
X1557Y723D01*
X1553Y720D01*
X1550Y716D01*
X1549Y711D01*
X1550Y707D01*
X1553Y703D01*
X1557Y700D01*
X1561Y699D01*
X1566Y700D01*
X1570Y703D01*
X1573Y707D01*
X1574Y711D01*
X1573Y716D01*
X1570Y720D01*
X1566Y723D01*
X1561Y724D01*
D02*
G37*
G36*
X1325Y755D02*
X1317Y753D01*
X1311Y749D01*
X1307Y743D01*
X1305Y735D01*
X1307Y727D01*
X1311Y721D01*
X1312Y720D01*
Y715D01*
X1311Y714D01*
X1307Y708D01*
X1305Y700D01*
X1307Y692D01*
X1311Y686D01*
X1317Y682D01*
X1325Y680D01*
X1333Y682D01*
X1339Y686D01*
X1343Y692D01*
X1345Y700D01*
X1343Y708D01*
X1339Y714D01*
X1338Y715D01*
Y720D01*
X1339Y721D01*
X1343Y727D01*
X1345Y735D01*
X1343Y743D01*
X1339Y749D01*
X1333Y753D01*
X1325Y755D01*
D02*
G37*
G36*
X1624Y725D02*
X1619Y724D01*
X1615Y722D01*
X1613Y718D01*
X1612Y713D01*
X1613Y708D01*
X1615Y704D01*
X1619Y702D01*
X1624Y701D01*
X1629Y702D01*
X1633Y704D01*
X1635Y708D01*
X1636Y713D01*
X1635Y718D01*
X1633Y722D01*
X1629Y724D01*
X1624Y725D01*
D02*
G37*
G36*
X2465Y740D02*
X2457Y738D01*
X2451Y734D01*
X2447Y728D01*
X2445Y720D01*
X2447Y712D01*
X2451Y706D01*
X2457Y702D01*
X2465Y700D01*
X2473Y702D01*
X2479Y706D01*
X2483Y712D01*
X2485Y720D01*
X2483Y728D01*
X2479Y734D01*
X2473Y738D01*
X2465Y740D01*
D02*
G37*
G36*
X1250Y697D02*
X1245Y696D01*
X1241Y694D01*
X1239Y690D01*
X1238Y685D01*
X1239Y680D01*
X1241Y676D01*
X1245Y674D01*
X1250Y673D01*
X1255Y674D01*
X1259Y676D01*
X1261Y680D01*
X1262Y685D01*
X1261Y690D01*
X1259Y694D01*
X1255Y696D01*
X1250Y697D01*
D02*
G37*
G36*
X1845Y688D02*
X1840Y687D01*
X1836Y685D01*
X1834Y681D01*
X1833Y676D01*
X1834Y671D01*
X1836Y667D01*
X1840Y665D01*
X1845Y664D01*
X1850Y665D01*
X1854Y667D01*
X1856Y671D01*
X1857Y676D01*
X1856Y681D01*
X1854Y685D01*
X1850Y687D01*
X1845Y688D01*
D02*
G37*
G36*
X915Y695D02*
X907Y693D01*
X901Y689D01*
X897Y683D01*
X895Y675D01*
X897Y667D01*
X901Y661D01*
X907Y657D01*
X915Y655D01*
X923Y657D01*
X929Y661D01*
X933Y667D01*
X935Y675D01*
X933Y683D01*
X929Y689D01*
X923Y693D01*
X915Y695D01*
D02*
G37*
G36*
X1812Y694D02*
X1807Y693D01*
X1803Y690D01*
X1800Y686D01*
X1800Y682D01*
X1800Y677D01*
X1803Y673D01*
X1807Y671D01*
X1812Y670D01*
X1816Y671D01*
X1820Y673D01*
X1823Y677D01*
X1824Y682D01*
X1823Y686D01*
X1820Y690D01*
X1816Y693D01*
X1812Y694D01*
D02*
G37*
G36*
X1623D02*
X1618Y693D01*
X1614Y690D01*
X1612Y686D01*
X1611Y682D01*
X1612Y677D01*
X1614Y673D01*
X1618Y671D01*
X1623Y670D01*
X1627Y671D01*
X1631Y673D01*
X1634Y677D01*
X1635Y682D01*
X1634Y686D01*
X1631Y690D01*
X1627Y693D01*
X1623Y694D01*
D02*
G37*
G36*
X2870Y595D02*
X2862Y593D01*
X2856Y589D01*
X2852Y583D01*
X2850Y575D01*
X2852Y567D01*
X2856Y561D01*
X2861Y558D01*
Y553D01*
X2856Y549D01*
X2852Y543D01*
X2850Y535D01*
X2852Y527D01*
X2856Y521D01*
X2861Y517D01*
Y512D01*
X2856Y509D01*
X2852Y503D01*
X2850Y495D01*
X2852Y487D01*
X2856Y481D01*
X2862Y477D01*
X2870Y475D01*
X2878Y477D01*
X2884Y481D01*
X2888Y487D01*
X2890Y495D01*
X2888Y503D01*
X2884Y509D01*
X2879Y512D01*
Y517D01*
X2884Y521D01*
X2888Y527D01*
X2890Y535D01*
X2888Y543D01*
X2884Y549D01*
X2879Y553D01*
Y558D01*
X2884Y561D01*
X2888Y567D01*
X2890Y575D01*
X2888Y583D01*
X2884Y589D01*
X2878Y593D01*
X2870Y595D01*
D02*
G37*
G36*
X2105Y487D02*
X2100Y486D01*
X2096Y484D01*
X2094Y480D01*
X2093Y475D01*
X2094Y470D01*
X2096Y466D01*
X2100Y464D01*
X2105Y463D01*
X2110Y464D01*
X2114Y466D01*
X2116Y470D01*
X2117Y475D01*
X2116Y480D01*
X2114Y484D01*
X2110Y486D01*
X2105Y487D01*
D02*
G37*
G36*
X1290Y525D02*
X1282Y523D01*
X1276Y519D01*
X1272Y513D01*
X1270Y505D01*
X1272Y497D01*
X1276Y491D01*
X1282Y487D01*
X1290Y485D01*
X1298Y487D01*
X1304Y491D01*
X1308Y497D01*
X1310Y505D01*
X1308Y513D01*
X1304Y519D01*
X1298Y523D01*
X1290Y525D01*
D02*
G37*
G36*
X2630Y520D02*
X2622Y518D01*
X2616Y514D01*
X2612Y508D01*
X2610Y500D01*
X2612Y492D01*
X2616Y486D01*
X2622Y482D01*
X2630Y480D01*
X2638Y482D01*
X2644Y486D01*
X2648Y492D01*
X2650Y500D01*
X2648Y508D01*
X2644Y514D01*
X2638Y518D01*
X2630Y520D01*
D02*
G37*
G36*
X80Y583D02*
X68Y581D01*
X56Y578D01*
X45Y572D01*
X36Y564D01*
X28Y555D01*
X22Y544D01*
X19Y532D01*
X17Y520D01*
X19Y508D01*
X22Y496D01*
X28Y485D01*
X36Y476D01*
X45Y468D01*
X56Y462D01*
X68Y459D01*
X80Y457D01*
X92Y459D01*
X104Y462D01*
X115Y468D01*
X124Y476D01*
X132Y485D01*
X138Y496D01*
X141Y508D01*
X143Y520D01*
X141Y532D01*
X138Y544D01*
X132Y555D01*
X124Y564D01*
X115Y572D01*
X104Y578D01*
X92Y581D01*
X80Y583D01*
D02*
G37*
G36*
X1945Y470D02*
X1937Y468D01*
X1931Y464D01*
X1927Y458D01*
X1925Y450D01*
X1927Y442D01*
X1931Y436D01*
X1937Y432D01*
X1945Y430D01*
X1953Y432D01*
X1959Y436D01*
X1963Y442D01*
X1965Y450D01*
X1963Y458D01*
X1959Y464D01*
X1953Y468D01*
X1945Y470D01*
D02*
G37*
G36*
X2465Y465D02*
X2457Y463D01*
X2451Y459D01*
X2447Y453D01*
X2445Y445D01*
X2447Y437D01*
X2451Y431D01*
X2457Y427D01*
X2465Y425D01*
X2473Y427D01*
X2479Y431D01*
X2483Y437D01*
X2485Y445D01*
X2483Y453D01*
X2479Y459D01*
X2473Y463D01*
X2465Y465D01*
D02*
G37*
G36*
X2300Y495D02*
X2292Y493D01*
X2286Y489D01*
X2282Y483D01*
X2280Y475D01*
X2282Y467D01*
X2286Y461D01*
X2292Y457D01*
X2300Y455D01*
X2308Y457D01*
X2314Y461D01*
X2318Y467D01*
X2320Y475D01*
X2318Y483D01*
X2314Y489D01*
X2308Y493D01*
X2300Y495D01*
D02*
G37*
G36*
X1350Y480D02*
X1342Y478D01*
X1336Y474D01*
X1332Y468D01*
X1330Y460D01*
X1332Y452D01*
X1336Y446D01*
X1342Y442D01*
X1350Y440D01*
X1358Y442D01*
X1364Y446D01*
X1368Y452D01*
X1370Y460D01*
X1368Y468D01*
X1364Y474D01*
X1358Y478D01*
X1350Y480D01*
D02*
G37*
G36*
X2525Y570D02*
X2517Y568D01*
X2511Y564D01*
X2507Y558D01*
X2505Y550D01*
X2507Y542D01*
X2511Y536D01*
X2517Y532D01*
X2525Y530D01*
X2533Y532D01*
X2539Y536D01*
X2543Y542D01*
X2545Y550D01*
X2543Y558D01*
X2539Y564D01*
X2533Y568D01*
X2525Y570D01*
D02*
G37*
G36*
X1870D02*
X1862Y568D01*
X1856Y564D01*
X1852Y558D01*
X1850Y550D01*
X1852Y542D01*
X1856Y536D01*
X1862Y532D01*
X1870Y530D01*
X1878Y532D01*
X1884Y536D01*
X1888Y542D01*
X1890Y550D01*
X1888Y558D01*
X1884Y564D01*
X1878Y568D01*
X1870Y570D01*
D02*
G37*
G36*
X1345Y580D02*
X1337Y578D01*
X1331Y574D01*
X1327Y568D01*
X1325Y560D01*
X1327Y552D01*
X1331Y546D01*
X1337Y542D01*
X1345Y540D01*
X1353Y542D01*
X1359Y546D01*
X1363Y552D01*
X1365Y560D01*
X1363Y568D01*
X1359Y574D01*
X1353Y578D01*
X1345Y580D01*
D02*
G37*
G36*
X1055Y575D02*
X1047Y573D01*
X1041Y569D01*
X1037Y563D01*
X1035Y555D01*
X1037Y547D01*
X1041Y541D01*
X1047Y537D01*
X1055Y535D01*
X1063Y537D01*
X1069Y541D01*
X1073Y547D01*
X1075Y555D01*
X1073Y563D01*
X1069Y569D01*
X1063Y573D01*
X1055Y575D01*
D02*
G37*
G36*
X479Y579D02*
X411D01*
Y511D01*
X479D01*
Y579D01*
D02*
G37*
G36*
X545Y579D02*
X536Y578D01*
X528Y574D01*
X521Y569D01*
X516Y562D01*
X512Y554D01*
X511Y545D01*
X512Y536D01*
X516Y528D01*
X521Y521D01*
X528Y516D01*
X536Y512D01*
X545Y511D01*
X554Y512D01*
X562Y516D01*
X569Y521D01*
X574Y528D01*
X578Y536D01*
X579Y545D01*
X578Y554D01*
X574Y562D01*
X569Y569D01*
X562Y574D01*
X554Y578D01*
X545Y579D01*
D02*
G37*
G36*
X2178Y540D02*
X2170Y538D01*
X2163Y534D01*
X2159Y528D01*
X2158Y520D01*
X2159Y512D01*
X2163Y506D01*
X2170Y502D01*
X2178Y500D01*
X2185Y502D01*
X2192Y506D01*
X2196Y512D01*
X2197Y520D01*
X2196Y528D01*
X2192Y534D01*
X2185Y538D01*
X2178Y540D01*
D02*
G37*
G36*
X745Y579D02*
X736Y578D01*
X728Y574D01*
X721Y569D01*
X716Y562D01*
X712Y554D01*
X711Y545D01*
X712Y536D01*
X716Y528D01*
X721Y521D01*
X728Y516D01*
X736Y512D01*
X745Y511D01*
X754Y512D01*
X762Y516D01*
X769Y521D01*
X774Y528D01*
X778Y536D01*
X779Y545D01*
X778Y554D01*
X774Y562D01*
X769Y569D01*
X762Y574D01*
X754Y578D01*
X745Y579D01*
D02*
G37*
G36*
X645D02*
X636Y578D01*
X628Y574D01*
X621Y569D01*
X616Y562D01*
X612Y554D01*
X611Y545D01*
X612Y536D01*
X616Y528D01*
X621Y521D01*
X628Y516D01*
X636Y512D01*
X645Y511D01*
X654Y512D01*
X662Y516D01*
X669Y521D01*
X674Y528D01*
X678Y536D01*
X679Y545D01*
X678Y554D01*
X674Y562D01*
X669Y569D01*
X662Y574D01*
X654Y578D01*
X645Y579D01*
D02*
G37*
G36*
X2550Y1744D02*
X2541Y1743D01*
X2533Y1740D01*
X2526Y1734D01*
X2520Y1727D01*
X2517Y1719D01*
X2516Y1710D01*
X2517Y1701D01*
X2520Y1693D01*
X2526Y1686D01*
X2533Y1680D01*
X2541Y1677D01*
X2550Y1676D01*
X2559Y1677D01*
X2567Y1680D01*
X2574Y1686D01*
X2580Y1693D01*
X2583Y1701D01*
X2584Y1710D01*
X2583Y1719D01*
X2580Y1727D01*
X2574Y1734D01*
X2567Y1740D01*
X2559Y1743D01*
X2550Y1744D01*
D02*
G37*
G36*
X2450D02*
X2441Y1743D01*
X2433Y1740D01*
X2426Y1734D01*
X2420Y1727D01*
X2417Y1719D01*
X2416Y1710D01*
X2417Y1701D01*
X2420Y1693D01*
X2426Y1686D01*
X2433Y1680D01*
X2441Y1677D01*
X2450Y1676D01*
X2459Y1677D01*
X2467Y1680D01*
X2474Y1686D01*
X2480Y1693D01*
X2483Y1701D01*
X2484Y1710D01*
X2483Y1719D01*
X2480Y1727D01*
X2474Y1734D01*
X2467Y1740D01*
X2459Y1743D01*
X2450Y1744D01*
D02*
G37*
G36*
X870Y1735D02*
X862Y1733D01*
X856Y1729D01*
X852Y1723D01*
X850Y1715D01*
X852Y1707D01*
X856Y1701D01*
X862Y1697D01*
X870Y1695D01*
X878Y1697D01*
X884Y1701D01*
X888Y1707D01*
X890Y1715D01*
X888Y1723D01*
X884Y1729D01*
X878Y1733D01*
X870Y1735D01*
D02*
G37*
G36*
X1975Y1735D02*
X1967Y1733D01*
X1961Y1729D01*
X1957Y1723D01*
X1955Y1715D01*
X1957Y1707D01*
X1961Y1701D01*
X1967Y1697D01*
X1975Y1695D01*
X1983Y1697D01*
X1989Y1701D01*
X1993Y1707D01*
X1995Y1715D01*
X1993Y1723D01*
X1989Y1729D01*
X1983Y1733D01*
X1975Y1735D01*
D02*
G37*
G36*
X3025Y1739D02*
X3016Y1738D01*
X3008Y1735D01*
X3001Y1729D01*
X2995Y1722D01*
X2992Y1714D01*
X2991Y1705D01*
X2992Y1696D01*
X2995Y1688D01*
X3001Y1681D01*
X3008Y1675D01*
X3016Y1672D01*
X3025Y1671D01*
X3034Y1672D01*
X3042Y1675D01*
X3049Y1681D01*
X3055Y1688D01*
X3058Y1696D01*
X3059Y1705D01*
X3058Y1714D01*
X3055Y1722D01*
X3049Y1729D01*
X3042Y1735D01*
X3034Y1738D01*
X3025Y1739D01*
D02*
G37*
G36*
X1826Y1695D02*
X1821Y1694D01*
X1816Y1691D01*
X1813Y1687D01*
X1812Y1681D01*
X1813Y1676D01*
X1816Y1671D01*
X1821Y1668D01*
X1826Y1667D01*
X1832Y1668D01*
X1836Y1671D01*
X1839Y1676D01*
X1840Y1681D01*
X1839Y1687D01*
X1836Y1691D01*
X1832Y1694D01*
X1826Y1695D01*
D02*
G37*
G36*
X1775D02*
X1770Y1694D01*
X1765Y1691D01*
X1762Y1687D01*
X1761Y1681D01*
X1762Y1676D01*
X1765Y1671D01*
X1770Y1668D01*
X1775Y1667D01*
X1780Y1668D01*
X1785Y1671D01*
X1788Y1676D01*
X1789Y1681D01*
X1788Y1687D01*
X1785Y1691D01*
X1780Y1694D01*
X1775Y1695D01*
D02*
G37*
G36*
X2925Y1739D02*
X2916Y1738D01*
X2908Y1735D01*
X2901Y1729D01*
X2895Y1722D01*
X2892Y1714D01*
X2891Y1705D01*
X2892Y1696D01*
X2895Y1688D01*
X2901Y1681D01*
X2908Y1675D01*
X2916Y1672D01*
X2925Y1671D01*
X2934Y1672D01*
X2942Y1675D01*
X2949Y1681D01*
X2955Y1688D01*
X2958Y1696D01*
X2959Y1705D01*
X2958Y1714D01*
X2955Y1722D01*
X2949Y1729D01*
X2942Y1735D01*
X2934Y1738D01*
X2925Y1739D01*
D02*
G37*
G36*
X2825D02*
X2816Y1738D01*
X2808Y1735D01*
X2801Y1729D01*
X2795Y1722D01*
X2792Y1714D01*
X2791Y1705D01*
X2792Y1696D01*
X2795Y1688D01*
X2801Y1681D01*
X2808Y1675D01*
X2816Y1672D01*
X2825Y1671D01*
X2834Y1672D01*
X2842Y1675D01*
X2849Y1681D01*
X2855Y1688D01*
X2858Y1696D01*
X2859Y1705D01*
X2858Y1714D01*
X2855Y1722D01*
X2849Y1729D01*
X2842Y1735D01*
X2834Y1738D01*
X2825Y1739D01*
D02*
G37*
G36*
X2550Y1844D02*
X2541Y1843D01*
X2533Y1840D01*
X2526Y1834D01*
X2520Y1827D01*
X2517Y1819D01*
X2516Y1810D01*
X2517Y1801D01*
X2520Y1793D01*
X2526Y1786D01*
X2533Y1780D01*
X2541Y1777D01*
X2550Y1776D01*
X2559Y1777D01*
X2567Y1780D01*
X2574Y1786D01*
X2580Y1793D01*
X2583Y1801D01*
X2584Y1810D01*
X2583Y1819D01*
X2580Y1827D01*
X2574Y1834D01*
X2567Y1840D01*
X2559Y1843D01*
X2550Y1844D01*
D02*
G37*
G36*
X2450D02*
X2441Y1843D01*
X2433Y1840D01*
X2426Y1834D01*
X2420Y1827D01*
X2417Y1819D01*
X2416Y1810D01*
X2417Y1801D01*
X2420Y1793D01*
X2426Y1786D01*
X2433Y1780D01*
X2441Y1777D01*
X2450Y1776D01*
X2459Y1777D01*
X2467Y1780D01*
X2474Y1786D01*
X2480Y1793D01*
X2483Y1801D01*
X2484Y1810D01*
X2483Y1819D01*
X2480Y1827D01*
X2474Y1834D01*
X2467Y1840D01*
X2459Y1843D01*
X2450Y1844D01*
D02*
G37*
G36*
X1650Y1802D02*
X1645Y1801D01*
X1641Y1799D01*
X1639Y1795D01*
X1638Y1790D01*
X1639Y1785D01*
X1641Y1781D01*
X1645Y1779D01*
X1650Y1778D01*
X1655Y1779D01*
X1659Y1781D01*
X1661Y1785D01*
X1662Y1790D01*
X1661Y1795D01*
X1659Y1799D01*
X1655Y1801D01*
X1650Y1802D01*
D02*
G37*
G36*
X1835Y1817D02*
X1827Y1816D01*
X1821Y1811D01*
X1817Y1805D01*
X1815Y1797D01*
X1817Y1790D01*
X1821Y1783D01*
X1827Y1779D01*
X1835Y1777D01*
X1843Y1779D01*
X1849Y1783D01*
X1853Y1790D01*
X1855Y1797D01*
X1853Y1805D01*
X1849Y1811D01*
X1843Y1816D01*
X1835Y1817D01*
D02*
G37*
G36*
X1940Y1805D02*
X1932Y1803D01*
X1926Y1799D01*
X1922Y1793D01*
X1920Y1785D01*
X1922Y1777D01*
X1926Y1771D01*
X1932Y1767D01*
X1940Y1765D01*
X1948Y1767D01*
X1954Y1771D01*
X1958Y1777D01*
X1960Y1785D01*
X1958Y1793D01*
X1954Y1799D01*
X1948Y1803D01*
X1940Y1805D01*
D02*
G37*
G36*
X2135Y1772D02*
X2130Y1771D01*
X2126Y1769D01*
X2124Y1765D01*
X2123Y1760D01*
X2124Y1755D01*
X2126Y1751D01*
X2130Y1749D01*
X2135Y1748D01*
X2140Y1749D01*
X2144Y1751D01*
X2146Y1755D01*
X2147Y1760D01*
X2146Y1765D01*
X2144Y1769D01*
X2140Y1771D01*
X2135Y1772D01*
D02*
G37*
G36*
X295Y1780D02*
X287Y1778D01*
X281Y1774D01*
X277Y1768D01*
X275Y1760D01*
X277Y1752D01*
X281Y1746D01*
X287Y1742D01*
X295Y1740D01*
X303Y1742D01*
X309Y1746D01*
X311Y1750D01*
X316Y1749D01*
X317Y1747D01*
X321Y1741D01*
X327Y1737D01*
X335Y1735D01*
X343Y1737D01*
X349Y1741D01*
X353Y1747D01*
X355Y1755D01*
X353Y1763D01*
X349Y1769D01*
X343Y1773D01*
X335Y1775D01*
X327Y1773D01*
X321Y1769D01*
X319Y1765D01*
X314Y1766D01*
X313Y1768D01*
X309Y1774D01*
X303Y1778D01*
X295Y1780D01*
D02*
G37*
G36*
X140Y1834D02*
X130Y1833D01*
X120Y1829D01*
X112Y1823D01*
X106Y1815D01*
X102Y1805D01*
X101Y1795D01*
X102Y1785D01*
X106Y1775D01*
X112Y1767D01*
X120Y1761D01*
X130Y1757D01*
X140Y1756D01*
X150Y1757D01*
X160Y1761D01*
X168Y1767D01*
X174Y1775D01*
X178Y1785D01*
X179Y1795D01*
X178Y1805D01*
X174Y1815D01*
X168Y1823D01*
X160Y1829D01*
X150Y1833D01*
X140Y1834D01*
D02*
G37*
G36*
X870Y1790D02*
X862Y1788D01*
X856Y1784D01*
X852Y1778D01*
X850Y1770D01*
X852Y1762D01*
X856Y1756D01*
X862Y1752D01*
X870Y1750D01*
X878Y1752D01*
X884Y1756D01*
X888Y1762D01*
X890Y1770D01*
X888Y1778D01*
X884Y1784D01*
X878Y1788D01*
X870Y1790D01*
D02*
G37*
G36*
X757Y1637D02*
X750Y1636D01*
X743Y1632D01*
X739Y1625D01*
X738Y1618D01*
X739Y1610D01*
X743Y1603D01*
X750Y1599D01*
X757Y1598D01*
X765Y1599D01*
X772Y1603D01*
X776Y1610D01*
X777Y1618D01*
X776Y1625D01*
X772Y1632D01*
X765Y1636D01*
X757Y1637D01*
D02*
G37*
G36*
X290Y1630D02*
X282Y1628D01*
X276Y1624D01*
X272Y1618D01*
X270Y1610D01*
X272Y1602D01*
X276Y1596D01*
X282Y1592D01*
X290Y1590D01*
X298Y1592D01*
X304Y1596D01*
X308Y1602D01*
X310Y1610D01*
X308Y1618D01*
X304Y1624D01*
X298Y1628D01*
X290Y1630D01*
D02*
G37*
G36*
X1724Y1644D02*
X1718Y1643D01*
X1714Y1640D01*
X1711Y1635D01*
X1710Y1630D01*
X1711Y1625D01*
X1714Y1620D01*
X1718Y1617D01*
X1724Y1616D01*
X1729Y1617D01*
X1734Y1620D01*
X1737Y1625D01*
X1738Y1630D01*
X1737Y1635D01*
X1734Y1640D01*
X1729Y1643D01*
X1724Y1644D01*
D02*
G37*
G36*
X240Y1655D02*
X232Y1653D01*
X226Y1649D01*
X222Y1643D01*
X220Y1635D01*
X222Y1627D01*
X226Y1621D01*
X232Y1617D01*
X240Y1615D01*
X248Y1617D01*
X254Y1621D01*
X258Y1627D01*
X260Y1635D01*
X258Y1643D01*
X254Y1649D01*
X248Y1653D01*
X240Y1655D01*
D02*
G37*
G36*
X1615Y1612D02*
X1610Y1611D01*
X1606Y1609D01*
X1604Y1605D01*
X1603Y1600D01*
X1604Y1595D01*
X1606Y1591D01*
X1610Y1589D01*
X1615Y1588D01*
X1620Y1589D01*
X1624Y1591D01*
X1626Y1595D01*
X1627Y1600D01*
X1626Y1605D01*
X1624Y1609D01*
X1620Y1611D01*
X1615Y1612D01*
D02*
G37*
G36*
X1826Y1593D02*
X1821Y1592D01*
X1816Y1589D01*
X1813Y1584D01*
X1812Y1579D01*
X1813Y1573D01*
X1816Y1569D01*
X1821Y1566D01*
X1826Y1565D01*
X1832Y1566D01*
X1836Y1569D01*
X1839Y1573D01*
X1840Y1579D01*
X1839Y1584D01*
X1836Y1589D01*
X1832Y1592D01*
X1826Y1593D01*
D02*
G37*
G36*
X1775D02*
X1770Y1592D01*
X1765Y1589D01*
X1762Y1584D01*
X1761Y1579D01*
X1762Y1573D01*
X1765Y1569D01*
X1770Y1566D01*
X1775Y1565D01*
X1780Y1566D01*
X1785Y1569D01*
X1788Y1573D01*
X1789Y1579D01*
X1788Y1584D01*
X1785Y1589D01*
X1780Y1592D01*
X1775Y1593D01*
D02*
G37*
G36*
X2550Y1644D02*
X2541Y1643D01*
X2533Y1640D01*
X2526Y1634D01*
X2520Y1627D01*
X2517Y1619D01*
X2516Y1610D01*
X2517Y1601D01*
X2520Y1593D01*
X2526Y1586D01*
X2533Y1580D01*
X2541Y1577D01*
X2550Y1576D01*
X2559Y1577D01*
X2567Y1580D01*
X2574Y1586D01*
X2580Y1593D01*
X2583Y1601D01*
X2584Y1610D01*
X2583Y1619D01*
X2580Y1627D01*
X2574Y1634D01*
X2567Y1640D01*
X2559Y1643D01*
X2550Y1644D01*
D02*
G37*
G36*
X2450D02*
X2441Y1643D01*
X2433Y1640D01*
X2426Y1634D01*
X2420Y1627D01*
X2417Y1619D01*
X2416Y1610D01*
X2417Y1601D01*
X2420Y1593D01*
X2426Y1586D01*
X2433Y1580D01*
X2441Y1577D01*
X2450Y1576D01*
X2459Y1577D01*
X2467Y1580D01*
X2474Y1586D01*
X2480Y1593D01*
X2483Y1601D01*
X2484Y1610D01*
X2483Y1619D01*
X2480Y1627D01*
X2474Y1634D01*
X2467Y1640D01*
X2459Y1643D01*
X2450Y1644D01*
D02*
G37*
G36*
X1940Y1682D02*
X1935Y1681D01*
X1931Y1679D01*
X1929Y1675D01*
X1928Y1670D01*
X1929Y1665D01*
X1931Y1661D01*
X1935Y1659D01*
X1940Y1658D01*
X1945Y1659D01*
X1949Y1661D01*
X1951Y1665D01*
X1952Y1670D01*
X1951Y1675D01*
X1949Y1679D01*
X1945Y1681D01*
X1940Y1682D01*
D02*
G37*
G36*
X1550Y1672D02*
X1545Y1671D01*
X1541Y1669D01*
X1539Y1665D01*
X1538Y1660D01*
X1539Y1655D01*
X1541Y1651D01*
X1545Y1649D01*
X1550Y1648D01*
X1555Y1649D01*
X1559Y1651D01*
X1561Y1655D01*
X1562Y1660D01*
X1561Y1665D01*
X1559Y1669D01*
X1555Y1671D01*
X1550Y1672D01*
D02*
G37*
G36*
X1724Y1695D02*
X1718Y1694D01*
X1714Y1691D01*
X1711Y1687D01*
X1710Y1681D01*
X1711Y1676D01*
X1714Y1671D01*
X1718Y1668D01*
X1724Y1667D01*
X1729Y1668D01*
X1734Y1671D01*
X1737Y1676D01*
X1738Y1681D01*
X1737Y1687D01*
X1734Y1691D01*
X1729Y1694D01*
X1724Y1695D01*
D02*
G37*
G36*
X1888Y1689D02*
X1884Y1688D01*
X1880Y1685D01*
X1877Y1681D01*
X1876Y1677D01*
X1877Y1672D01*
X1880Y1668D01*
X1884Y1666D01*
X1888Y1665D01*
X1893Y1666D01*
X1897Y1668D01*
X1900Y1672D01*
X1901Y1677D01*
X1900Y1681D01*
X1897Y1685D01*
X1893Y1688D01*
X1888Y1689D01*
D02*
G37*
G36*
X870Y1680D02*
X862Y1678D01*
X856Y1674D01*
X852Y1668D01*
X850Y1660D01*
X852Y1652D01*
X856Y1646D01*
X862Y1642D01*
X870Y1640D01*
X878Y1642D01*
X884Y1646D01*
X888Y1652D01*
X890Y1660D01*
X888Y1668D01*
X884Y1674D01*
X878Y1678D01*
X870Y1680D01*
D02*
G37*
G36*
X1826Y1644D02*
X1821Y1643D01*
X1816Y1640D01*
X1813Y1635D01*
X1812Y1630D01*
X1813Y1625D01*
X1816Y1620D01*
X1821Y1617D01*
X1826Y1616D01*
X1832Y1617D01*
X1836Y1620D01*
X1839Y1625D01*
X1840Y1630D01*
X1839Y1635D01*
X1836Y1640D01*
X1832Y1643D01*
X1826Y1644D01*
D02*
G37*
G36*
X1775D02*
X1770Y1643D01*
X1765Y1640D01*
X1762Y1635D01*
X1761Y1630D01*
X1762Y1625D01*
X1765Y1620D01*
X1770Y1617D01*
X1775Y1616D01*
X1780Y1617D01*
X1785Y1620D01*
X1788Y1625D01*
X1789Y1630D01*
X1788Y1635D01*
X1785Y1640D01*
X1780Y1643D01*
X1775Y1644D01*
D02*
G37*
G36*
X2105Y1665D02*
X2097Y1663D01*
X2091Y1659D01*
X2087Y1653D01*
X2085Y1645D01*
X2087Y1637D01*
X2091Y1631D01*
X2097Y1627D01*
X2105Y1625D01*
X2113Y1627D01*
X2119Y1631D01*
X2123Y1637D01*
X2125Y1645D01*
X2123Y1653D01*
X2119Y1659D01*
X2113Y1663D01*
X2105Y1665D01*
D02*
G37*
G36*
X344Y1660D02*
X336Y1658D01*
X330Y1654D01*
X326Y1648D01*
X324Y1640D01*
X326Y1632D01*
X330Y1626D01*
X336Y1622D01*
X344Y1620D01*
X352Y1622D01*
X358Y1626D01*
X362Y1632D01*
X364Y1640D01*
X362Y1648D01*
X358Y1654D01*
X352Y1658D01*
X344Y1660D01*
D02*
G37*
G36*
X2190Y1802D02*
X2185Y1801D01*
X2181Y1799D01*
X2179Y1795D01*
X2178Y1790D01*
X2179Y1785D01*
X2181Y1781D01*
X2185Y1779D01*
X2190Y1778D01*
X2195Y1779D01*
X2199Y1781D01*
X2201Y1785D01*
X2202Y1790D01*
X2201Y1795D01*
X2199Y1799D01*
X2195Y1801D01*
X2190Y1802D01*
D02*
G37*
G36*
X2550Y2070D02*
X2542Y2068D01*
X2536Y2064D01*
X2533Y2059D01*
X2527D01*
X2524Y2064D01*
X2518Y2068D01*
X2510Y2070D01*
X2502Y2068D01*
X2496Y2064D01*
X2492Y2058D01*
X2490Y2050D01*
X2492Y2042D01*
X2496Y2036D01*
X2502Y2032D01*
X2510Y2030D01*
X2518Y2032D01*
X2524Y2036D01*
X2527Y2041D01*
X2533D01*
X2536Y2036D01*
X2542Y2032D01*
X2550Y2030D01*
X2558Y2032D01*
X2564Y2036D01*
X2568Y2042D01*
X2570Y2050D01*
X2568Y2058D01*
X2564Y2064D01*
X2558Y2068D01*
X2550Y2070D01*
D02*
G37*
G36*
X2105Y2085D02*
X2097Y2083D01*
X2091Y2079D01*
X2087Y2073D01*
X2085Y2065D01*
X2087Y2057D01*
X2091Y2051D01*
X2097Y2047D01*
X2105Y2045D01*
X2113Y2047D01*
X2119Y2051D01*
X2123Y2057D01*
X2125Y2065D01*
X2123Y2073D01*
X2119Y2079D01*
X2113Y2083D01*
X2105Y2085D01*
D02*
G37*
G36*
X1965Y2125D02*
X1957Y2123D01*
X1951Y2119D01*
X1947Y2113D01*
X1945Y2105D01*
X1947Y2097D01*
X1951Y2091D01*
X1957Y2087D01*
X1965Y2085D01*
X1973Y2087D01*
X1979Y2091D01*
X1983Y2097D01*
X1985Y2105D01*
X1983Y2113D01*
X1979Y2119D01*
X1973Y2123D01*
X1965Y2125D01*
D02*
G37*
G36*
X1920Y2120D02*
X1912Y2118D01*
X1906Y2114D01*
X1902Y2108D01*
X1900Y2100D01*
X1902Y2092D01*
X1906Y2086D01*
X1912Y2082D01*
X1920Y2080D01*
X1928Y2082D01*
X1934Y2086D01*
X1938Y2092D01*
X1940Y2100D01*
X1938Y2108D01*
X1934Y2114D01*
X1928Y2118D01*
X1920Y2120D01*
D02*
G37*
G36*
X1180Y2085D02*
X1172Y2083D01*
X1166Y2079D01*
X1162Y2073D01*
X1160Y2065D01*
X1162Y2057D01*
X1166Y2051D01*
X1172Y2047D01*
X1180Y2045D01*
X1188Y2047D01*
X1194Y2051D01*
X1198Y2057D01*
X1200Y2065D01*
X1198Y2073D01*
X1194Y2079D01*
X1188Y2083D01*
X1180Y2085D01*
D02*
G37*
G36*
X165Y2124D02*
X152Y2123D01*
X140Y2118D01*
X130Y2110D01*
X122Y2100D01*
X117Y2088D01*
X116Y2075D01*
X117Y2062D01*
X122Y2050D01*
X130Y2040D01*
X140Y2032D01*
X152Y2027D01*
X165Y2026D01*
X178Y2027D01*
X190Y2032D01*
X200Y2040D01*
X208Y2050D01*
X213Y2062D01*
X214Y2075D01*
X213Y2088D01*
X208Y2100D01*
X200Y2110D01*
X190Y2118D01*
X178Y2123D01*
X165Y2124D01*
D02*
G37*
G36*
X1383Y2038D02*
X1373Y2037D01*
X1363Y2033D01*
X1355Y2027D01*
X1349Y2019D01*
X1345Y2009D01*
X1344Y1999D01*
X1345Y1989D01*
X1349Y1979D01*
X1355Y1971D01*
X1363Y1965D01*
X1373Y1961D01*
X1383Y1960D01*
X1393Y1961D01*
X1403Y1965D01*
X1411Y1971D01*
X1417Y1979D01*
X1421Y1989D01*
X1422Y1999D01*
X1421Y2009D01*
X1417Y2019D01*
X1411Y2027D01*
X1403Y2033D01*
X1393Y2037D01*
X1383Y2038D01*
D02*
G37*
G36*
X750Y2134D02*
X737Y2133D01*
X725Y2128D01*
X715Y2120D01*
X707Y2110D01*
X702Y2098D01*
X701Y2085D01*
X702Y2072D01*
X707Y2060D01*
X715Y2050D01*
X725Y2042D01*
X737Y2037D01*
X750Y2036D01*
X763Y2037D01*
X775Y2042D01*
X785Y2050D01*
X793Y2060D01*
X798Y2072D01*
X799Y2085D01*
X798Y2098D01*
X793Y2110D01*
X785Y2120D01*
X775Y2128D01*
X763Y2133D01*
X750Y2134D01*
D02*
G37*
G36*
X1670Y2134D02*
X1657Y2133D01*
X1645Y2128D01*
X1635Y2120D01*
X1627Y2110D01*
X1622Y2098D01*
X1621Y2085D01*
X1622Y2072D01*
X1627Y2060D01*
X1635Y2050D01*
X1645Y2042D01*
X1657Y2037D01*
X1670Y2036D01*
X1683Y2037D01*
X1695Y2042D01*
X1705Y2050D01*
X1713Y2060D01*
X1718Y2072D01*
X1719Y2085D01*
X1718Y2098D01*
X1713Y2110D01*
X1705Y2120D01*
X1695Y2128D01*
X1683Y2133D01*
X1670Y2134D01*
D02*
G37*
G36*
X850Y2234D02*
X837Y2233D01*
X825Y2228D01*
X815Y2220D01*
X807Y2210D01*
X802Y2198D01*
X801Y2185D01*
X802Y2172D01*
X807Y2160D01*
X815Y2150D01*
X825Y2142D01*
X837Y2137D01*
X850Y2136D01*
X863Y2137D01*
X875Y2142D01*
X885Y2150D01*
X893Y2160D01*
X898Y2172D01*
X899Y2185D01*
X898Y2198D01*
X893Y2210D01*
X885Y2220D01*
X875Y2228D01*
X863Y2233D01*
X850Y2234D01*
D02*
G37*
G36*
X650D02*
X637Y2233D01*
X625Y2228D01*
X615Y2220D01*
X607Y2210D01*
X602Y2198D01*
X601Y2185D01*
X602Y2172D01*
X607Y2160D01*
X615Y2150D01*
X625Y2142D01*
X637Y2137D01*
X650Y2136D01*
X663Y2137D01*
X675Y2142D01*
X685Y2150D01*
X693Y2160D01*
X698Y2172D01*
X699Y2185D01*
X698Y2198D01*
X693Y2210D01*
X685Y2220D01*
X675Y2228D01*
X663Y2233D01*
X650Y2234D01*
D02*
G37*
G36*
X2520Y2215D02*
X2512Y2213D01*
X2506Y2209D01*
X2502Y2203D01*
X2500Y2195D01*
X2502Y2187D01*
X2506Y2181D01*
X2512Y2177D01*
X2520Y2175D01*
X2528Y2177D01*
X2534Y2181D01*
X2538Y2187D01*
X2540Y2195D01*
X2538Y2203D01*
X2534Y2209D01*
X2528Y2213D01*
X2520Y2215D01*
D02*
G37*
G36*
X1358Y2185D02*
X1351Y2184D01*
X1344Y2179D01*
X1340Y2173D01*
X1338Y2165D01*
X1340Y2158D01*
X1344Y2151D01*
X1351Y2147D01*
X1358Y2145D01*
X1366Y2147D01*
X1372Y2151D01*
X1377Y2158D01*
X1378Y2165D01*
X1377Y2173D01*
X1372Y2179D01*
X1366Y2184D01*
X1358Y2185D01*
D02*
G37*
G36*
X1770Y2234D02*
X1757Y2233D01*
X1745Y2228D01*
X1735Y2220D01*
X1727Y2210D01*
X1722Y2198D01*
X1721Y2185D01*
X1722Y2172D01*
X1727Y2160D01*
X1735Y2150D01*
X1745Y2142D01*
X1757Y2137D01*
X1770Y2136D01*
X1783Y2137D01*
X1795Y2142D01*
X1805Y2150D01*
X1813Y2160D01*
X1818Y2172D01*
X1819Y2185D01*
X1818Y2198D01*
X1813Y2210D01*
X1805Y2220D01*
X1795Y2228D01*
X1783Y2233D01*
X1770Y2234D01*
D02*
G37*
G36*
X65Y2224D02*
X52Y2223D01*
X40Y2218D01*
X30Y2210D01*
X22Y2200D01*
X17Y2188D01*
X16Y2175D01*
X17Y2162D01*
X22Y2150D01*
X30Y2140D01*
X40Y2132D01*
X52Y2127D01*
X65Y2126D01*
X78Y2127D01*
X90Y2132D01*
X100Y2140D01*
X108Y2150D01*
X113Y2162D01*
X114Y2175D01*
X113Y2188D01*
X108Y2200D01*
X100Y2210D01*
X90Y2218D01*
X78Y2223D01*
X65Y2224D01*
D02*
G37*
G36*
X2860Y2218D02*
X2848Y2216D01*
X2836Y2213D01*
X2825Y2207D01*
X2816Y2199D01*
X2808Y2190D01*
X2802Y2179D01*
X2799Y2167D01*
X2797Y2155D01*
X2799Y2143D01*
X2802Y2131D01*
X2808Y2120D01*
X2816Y2111D01*
X2825Y2103D01*
X2836Y2097D01*
X2848Y2094D01*
X2860Y2092D01*
X2872Y2094D01*
X2884Y2097D01*
X2895Y2103D01*
X2904Y2111D01*
X2912Y2120D01*
X2918Y2131D01*
X2921Y2143D01*
X2923Y2155D01*
X2921Y2167D01*
X2918Y2179D01*
X2912Y2190D01*
X2904Y2199D01*
X2895Y2207D01*
X2884Y2213D01*
X2872Y2216D01*
X2860Y2218D01*
D02*
G37*
G36*
X1570Y2234D02*
X1557Y2233D01*
X1545Y2228D01*
X1535Y2220D01*
X1527Y2210D01*
X1522Y2198D01*
X1521Y2185D01*
X1522Y2172D01*
X1527Y2160D01*
X1535Y2150D01*
X1545Y2142D01*
X1557Y2137D01*
X1570Y2136D01*
X1583Y2137D01*
X1595Y2142D01*
X1605Y2150D01*
X1613Y2160D01*
X1618Y2172D01*
X1619Y2185D01*
X1618Y2198D01*
X1613Y2210D01*
X1605Y2220D01*
X1595Y2228D01*
X1583Y2233D01*
X1570Y2234D01*
D02*
G37*
G36*
X265Y2224D02*
X252Y2223D01*
X240Y2218D01*
X230Y2210D01*
X222Y2200D01*
X217Y2188D01*
X216Y2175D01*
X217Y2162D01*
X222Y2150D01*
X230Y2140D01*
X240Y2132D01*
X252Y2127D01*
X265Y2126D01*
X278Y2127D01*
X290Y2132D01*
X300Y2140D01*
X308Y2150D01*
X313Y2162D01*
X314Y2175D01*
X313Y2188D01*
X308Y2200D01*
X300Y2210D01*
X290Y2218D01*
X278Y2223D01*
X265Y2224D01*
D02*
G37*
G36*
X1490Y1905D02*
X1482Y1903D01*
X1476Y1899D01*
X1472Y1893D01*
X1470Y1885D01*
X1472Y1877D01*
X1476Y1871D01*
X1482Y1867D01*
X1490Y1865D01*
X1498Y1867D01*
X1504Y1871D01*
X1508Y1877D01*
X1510Y1885D01*
X1508Y1893D01*
X1504Y1899D01*
X1498Y1903D01*
X1490Y1905D01*
D02*
G37*
G36*
X2645Y1870D02*
X2637Y1868D01*
X2631Y1864D01*
X2627Y1858D01*
X2625Y1850D01*
X2627Y1842D01*
X2631Y1836D01*
X2637Y1832D01*
X2645Y1830D01*
X2653Y1832D01*
X2659Y1836D01*
X2663Y1842D01*
X2665Y1850D01*
X2663Y1858D01*
X2659Y1864D01*
X2653Y1868D01*
X2645Y1870D01*
D02*
G37*
G36*
X2290Y1920D02*
X2282Y1918D01*
X2276Y1914D01*
X2272Y1908D01*
X2270Y1900D01*
X2272Y1892D01*
X2276Y1886D01*
X2282Y1882D01*
X2290Y1880D01*
X2298Y1882D01*
X2304Y1886D01*
X2308Y1892D01*
X2310Y1900D01*
X2308Y1908D01*
X2304Y1914D01*
X2298Y1918D01*
X2290Y1920D01*
D02*
G37*
G36*
X2540Y1950D02*
X2532Y1948D01*
X2526Y1944D01*
X2522Y1938D01*
X2520Y1930D01*
X2522Y1922D01*
X2526Y1916D01*
X2531Y1913D01*
Y1908D01*
X2526Y1904D01*
X2522Y1898D01*
X2520Y1890D01*
X2522Y1882D01*
X2526Y1876D01*
X2532Y1872D01*
X2540Y1870D01*
X2548Y1872D01*
X2554Y1876D01*
X2558Y1882D01*
X2560Y1890D01*
X2558Y1898D01*
X2554Y1904D01*
X2549Y1908D01*
Y1913D01*
X2554Y1916D01*
X2558Y1922D01*
X2560Y1930D01*
X2558Y1938D01*
X2554Y1944D01*
X2548Y1948D01*
X2540Y1950D01*
D02*
G37*
G36*
X1530Y1870D02*
X1522Y1868D01*
X1516Y1864D01*
X1512Y1858D01*
X1510Y1850D01*
X1512Y1842D01*
X1516Y1836D01*
X1522Y1832D01*
X1530Y1830D01*
X1538Y1832D01*
X1544Y1836D01*
X1548Y1842D01*
X1550Y1850D01*
X1548Y1858D01*
X1544Y1864D01*
X1538Y1868D01*
X1530Y1870D01*
D02*
G37*
G36*
X1585Y1830D02*
X1577Y1828D01*
X1571Y1824D01*
X1567Y1818D01*
X1565Y1810D01*
X1567Y1802D01*
X1571Y1796D01*
X1577Y1792D01*
X1585Y1790D01*
X1593Y1792D01*
X1599Y1796D01*
X1603Y1802D01*
X1605Y1810D01*
X1603Y1818D01*
X1599Y1824D01*
X1593Y1828D01*
X1585Y1830D01*
D02*
G37*
G36*
X1872Y1810D02*
X1868Y1809D01*
X1864Y1806D01*
X1861Y1802D01*
X1860Y1798D01*
X1861Y1793D01*
X1864Y1789D01*
X1868Y1786D01*
X1872Y1785D01*
X1877Y1786D01*
X1881Y1789D01*
X1884Y1793D01*
X1885Y1798D01*
X1884Y1802D01*
X1881Y1806D01*
X1877Y1809D01*
X1872Y1810D01*
D02*
G37*
G36*
X2205Y1837D02*
X2200Y1836D01*
X2196Y1834D01*
X2194Y1830D01*
X2193Y1825D01*
X2194Y1820D01*
X2196Y1816D01*
X2200Y1814D01*
X2205Y1813D01*
X2210Y1814D01*
X2214Y1816D01*
X2216Y1820D01*
X2217Y1825D01*
X2216Y1830D01*
X2214Y1834D01*
X2210Y1836D01*
X2205Y1837D01*
D02*
G37*
G36*
X2105Y1845D02*
X2097Y1843D01*
X2091Y1839D01*
X2087Y1833D01*
X2085Y1825D01*
X2087Y1817D01*
X2091Y1811D01*
X2097Y1807D01*
X2105Y1805D01*
X2113Y1807D01*
X2119Y1811D01*
X2123Y1817D01*
X2125Y1825D01*
X2123Y1833D01*
X2119Y1839D01*
X2113Y1843D01*
X2105Y1845D01*
D02*
G37*
G36*
X1770Y2034D02*
X1757Y2033D01*
X1745Y2028D01*
X1735Y2020D01*
X1727Y2010D01*
X1722Y1998D01*
X1721Y1985D01*
X1722Y1972D01*
X1727Y1960D01*
X1735Y1950D01*
X1745Y1942D01*
X1757Y1937D01*
X1770Y1936D01*
X1783Y1937D01*
X1795Y1942D01*
X1805Y1950D01*
X1813Y1960D01*
X1818Y1972D01*
X1819Y1985D01*
X1818Y1998D01*
X1813Y2010D01*
X1805Y2020D01*
X1795Y2028D01*
X1783Y2033D01*
X1770Y2034D01*
D02*
G37*
G36*
X1570D02*
X1557Y2033D01*
X1545Y2028D01*
X1535Y2020D01*
X1527Y2010D01*
X1522Y1998D01*
X1521Y1985D01*
X1522Y1972D01*
X1527Y1960D01*
X1535Y1950D01*
X1545Y1942D01*
X1557Y1937D01*
X1570Y1936D01*
X1583Y1937D01*
X1595Y1942D01*
X1605Y1950D01*
X1613Y1960D01*
X1618Y1972D01*
X1619Y1985D01*
X1618Y1998D01*
X1613Y2010D01*
X1605Y2020D01*
X1595Y2028D01*
X1583Y2033D01*
X1570Y2034D01*
D02*
G37*
G36*
X850Y2034D02*
X837Y2033D01*
X825Y2028D01*
X815Y2020D01*
X807Y2010D01*
X802Y1998D01*
X801Y1985D01*
X802Y1972D01*
X807Y1960D01*
X815Y1950D01*
X825Y1942D01*
X837Y1937D01*
X850Y1936D01*
X863Y1937D01*
X875Y1942D01*
X885Y1950D01*
X893Y1960D01*
X898Y1972D01*
X899Y1985D01*
X898Y1998D01*
X893Y2010D01*
X885Y2020D01*
X875Y2028D01*
X863Y2033D01*
X850Y2034D01*
D02*
G37*
G36*
X650D02*
X637Y2033D01*
X625Y2028D01*
X615Y2020D01*
X607Y2010D01*
X602Y1998D01*
X601Y1985D01*
X602Y1972D01*
X607Y1960D01*
X615Y1950D01*
X625Y1942D01*
X637Y1937D01*
X650Y1936D01*
X663Y1937D01*
X675Y1942D01*
X685Y1950D01*
X693Y1960D01*
X698Y1972D01*
X699Y1985D01*
X698Y1998D01*
X693Y2010D01*
X685Y2020D01*
X675Y2028D01*
X663Y2033D01*
X650Y2034D01*
D02*
G37*
G36*
X265Y2024D02*
X252Y2023D01*
X240Y2018D01*
X230Y2010D01*
X222Y2000D01*
X217Y1988D01*
X216Y1975D01*
X217Y1962D01*
X222Y1950D01*
X230Y1940D01*
X240Y1932D01*
X252Y1927D01*
X265Y1926D01*
X278Y1927D01*
X290Y1932D01*
X300Y1940D01*
X308Y1950D01*
X313Y1962D01*
X314Y1975D01*
X313Y1988D01*
X308Y2000D01*
X300Y2010D01*
X290Y2018D01*
X278Y2023D01*
X265Y2024D01*
D02*
G37*
G36*
X1165Y1945D02*
X1157Y1943D01*
X1151Y1939D01*
X1147Y1933D01*
X1145Y1925D01*
X1147Y1917D01*
X1151Y1911D01*
X1157Y1907D01*
X1165Y1905D01*
X1173Y1907D01*
X1179Y1911D01*
X1183Y1917D01*
X1185Y1925D01*
X1183Y1933D01*
X1179Y1939D01*
X1173Y1943D01*
X1165Y1945D01*
D02*
G37*
G36*
X1447Y1914D02*
X1439Y1912D01*
X1433Y1908D01*
X1428Y1902D01*
X1427Y1894D01*
X1428Y1890D01*
X1427Y1890D01*
Y1890D01*
X1423Y1888D01*
X1419Y1894D01*
X1413Y1898D01*
X1405Y1900D01*
X1397Y1898D01*
X1391Y1894D01*
X1387Y1888D01*
X1385Y1880D01*
X1387Y1872D01*
X1391Y1866D01*
X1397Y1862D01*
X1405Y1860D01*
X1413Y1862D01*
X1419Y1866D01*
X1423Y1872D01*
X1425Y1880D01*
X1424Y1884D01*
X1425Y1885D01*
Y1885D01*
X1429Y1886D01*
X1433Y1880D01*
X1439Y1876D01*
X1447Y1874D01*
X1454Y1876D01*
X1461Y1880D01*
X1465Y1886D01*
X1467Y1894D01*
X1465Y1902D01*
X1461Y1908D01*
X1454Y1912D01*
X1447Y1914D01*
D02*
G37*
G36*
X65Y2024D02*
X52Y2023D01*
X40Y2018D01*
X30Y2010D01*
X22Y2000D01*
X17Y1988D01*
X16Y1975D01*
X17Y1962D01*
X22Y1950D01*
X30Y1940D01*
X40Y1932D01*
X52Y1927D01*
X65Y1926D01*
X78Y1927D01*
X90Y1932D01*
X100Y1940D01*
X108Y1950D01*
X113Y1962D01*
X114Y1975D01*
X113Y1988D01*
X108Y2000D01*
X100Y2010D01*
X90Y2018D01*
X78Y2023D01*
X65Y2024D01*
D02*
G37*
G36*
X2105Y1950D02*
X2097Y1948D01*
X2091Y1944D01*
X2087Y1938D01*
X2085Y1930D01*
X2087Y1922D01*
X2091Y1916D01*
X2097Y1912D01*
X2105Y1910D01*
X2113Y1912D01*
X2119Y1916D01*
X2123Y1922D01*
X2125Y1930D01*
X2123Y1938D01*
X2119Y1944D01*
X2113Y1948D01*
X2105Y1950D01*
D02*
G37*
G36*
X2905Y1218D02*
X2898Y1217D01*
X2892Y1213D01*
X2888Y1207D01*
X2887Y1200D01*
X2888Y1193D01*
X2892Y1187D01*
X2898Y1183D01*
X2905Y1182D01*
X2912Y1183D01*
X2918Y1187D01*
X2922Y1193D01*
X2923Y1200D01*
X2922Y1207D01*
X2918Y1213D01*
X2912Y1217D01*
X2905Y1218D01*
D02*
G37*
G36*
X1695Y1220D02*
X1687Y1218D01*
X1681Y1214D01*
X1677Y1208D01*
X1675Y1200D01*
X1677Y1192D01*
X1681Y1186D01*
X1687Y1182D01*
X1695Y1180D01*
X1703Y1182D01*
X1709Y1186D01*
X1713Y1192D01*
X1715Y1200D01*
X1713Y1208D01*
X1709Y1214D01*
X1703Y1218D01*
X1695Y1220D01*
D02*
G37*
G36*
X330Y1225D02*
X322Y1223D01*
X316Y1219D01*
X312Y1213D01*
X310Y1205D01*
X312Y1197D01*
X316Y1191D01*
X322Y1187D01*
X330Y1185D01*
X338Y1187D01*
X344Y1191D01*
X348Y1197D01*
X350Y1205D01*
X348Y1213D01*
X344Y1219D01*
X338Y1223D01*
X330Y1225D01*
D02*
G37*
G36*
X1490Y1207D02*
X1485Y1206D01*
X1481Y1204D01*
X1479Y1200D01*
X1478Y1195D01*
X1479Y1190D01*
X1481Y1186D01*
X1485Y1184D01*
X1490Y1183D01*
X1495Y1184D01*
X1499Y1186D01*
X1501Y1190D01*
X1502Y1195D01*
X1501Y1200D01*
X1499Y1204D01*
X1495Y1206D01*
X1490Y1207D01*
D02*
G37*
G36*
X1640Y1210D02*
X1632Y1208D01*
X1626Y1204D01*
X1622Y1198D01*
X1620Y1190D01*
X1622Y1182D01*
X1626Y1176D01*
X1632Y1172D01*
X1640Y1170D01*
X1648Y1172D01*
X1654Y1176D01*
X1658Y1182D01*
X1660Y1190D01*
X1658Y1198D01*
X1654Y1204D01*
X1648Y1208D01*
X1640Y1210D01*
D02*
G37*
G36*
X2060Y1192D02*
X2055Y1191D01*
X2051Y1189D01*
X2049Y1185D01*
X2048Y1180D01*
X2049Y1175D01*
X2051Y1171D01*
X2055Y1169D01*
X2060Y1168D01*
X2065Y1169D01*
X2069Y1171D01*
X2071Y1175D01*
X2072Y1180D01*
X2071Y1185D01*
X2069Y1189D01*
X2065Y1191D01*
X2060Y1192D01*
D02*
G37*
G36*
X1525Y1207D02*
X1520Y1206D01*
X1516Y1204D01*
X1514Y1200D01*
X1513Y1195D01*
X1514Y1190D01*
X1516Y1186D01*
X1520Y1184D01*
X1525Y1183D01*
X1526Y1183D01*
X1529Y1180D01*
X1530Y1175D01*
X1532Y1171D01*
X1536Y1169D01*
X1541Y1168D01*
X1546Y1169D01*
X1550Y1171D01*
X1552Y1175D01*
X1553Y1180D01*
X1552Y1185D01*
X1550Y1189D01*
X1546Y1191D01*
X1541Y1192D01*
X1540Y1192D01*
X1537Y1195D01*
X1536Y1200D01*
X1534Y1204D01*
X1530Y1206D01*
X1525Y1207D01*
D02*
G37*
G36*
X1585Y1210D02*
X1577Y1208D01*
X1571Y1204D01*
X1567Y1198D01*
X1565Y1190D01*
X1567Y1182D01*
X1571Y1176D01*
X1577Y1172D01*
X1585Y1170D01*
X1593Y1172D01*
X1599Y1176D01*
X1603Y1182D01*
X1605Y1190D01*
X1603Y1198D01*
X1599Y1204D01*
X1593Y1208D01*
X1585Y1210D01*
D02*
G37*
G36*
X2190Y1210D02*
X2182Y1208D01*
X2176Y1204D01*
X2172Y1198D01*
X2170Y1190D01*
X2172Y1182D01*
X2176Y1176D01*
X2182Y1172D01*
X2190Y1170D01*
X2198Y1172D01*
X2204Y1176D01*
X2208Y1182D01*
X2210Y1190D01*
X2208Y1198D01*
X2204Y1204D01*
X2198Y1208D01*
X2190Y1210D01*
D02*
G37*
G36*
X1740Y1242D02*
X1735Y1241D01*
X1731Y1239D01*
X1729Y1235D01*
X1728Y1230D01*
X1729Y1225D01*
X1731Y1221D01*
X1735Y1219D01*
X1740Y1218D01*
X1745Y1219D01*
X1749Y1221D01*
X1751Y1225D01*
X1752Y1230D01*
X1751Y1235D01*
X1749Y1239D01*
X1745Y1241D01*
X1740Y1242D01*
D02*
G37*
G36*
X1595D02*
X1590Y1241D01*
X1586Y1239D01*
X1584Y1235D01*
X1583Y1230D01*
X1584Y1225D01*
X1586Y1221D01*
X1590Y1219D01*
X1595Y1218D01*
X1600Y1219D01*
X1604Y1221D01*
X1606Y1225D01*
X1607Y1230D01*
X1606Y1235D01*
X1604Y1239D01*
X1600Y1241D01*
X1595Y1242D01*
D02*
G37*
G36*
X1435Y1247D02*
X1430Y1246D01*
X1426Y1244D01*
X1424Y1240D01*
X1423Y1235D01*
X1424Y1230D01*
X1426Y1226D01*
X1430Y1224D01*
X1435Y1223D01*
X1440Y1224D01*
X1444Y1226D01*
X1446Y1230D01*
X1447Y1235D01*
X1446Y1240D01*
X1444Y1244D01*
X1440Y1246D01*
X1435Y1247D01*
D02*
G37*
G36*
X110Y1260D02*
X102Y1258D01*
X96Y1254D01*
X92Y1248D01*
X90Y1240D01*
X92Y1232D01*
X96Y1226D01*
X102Y1222D01*
X110Y1220D01*
X118Y1222D01*
X124Y1226D01*
X128Y1232D01*
X130Y1240D01*
X128Y1248D01*
X124Y1254D01*
X118Y1258D01*
X110Y1260D01*
D02*
G37*
G36*
X510Y1235D02*
X505Y1234D01*
X500Y1231D01*
X497Y1226D01*
X496Y1221D01*
X497Y1215D01*
X500Y1211D01*
X505Y1208D01*
X510Y1207D01*
X515Y1208D01*
X520Y1211D01*
X523Y1215D01*
X524Y1221D01*
X523Y1226D01*
X520Y1231D01*
X515Y1234D01*
X510Y1235D01*
D02*
G37*
G36*
X1419Y1217D02*
X1415Y1216D01*
X1411Y1214D01*
X1408Y1210D01*
X1408Y1207D01*
X1403Y1205D01*
X1398Y1208D01*
X1390Y1210D01*
X1382Y1208D01*
X1376Y1204D01*
X1372Y1198D01*
X1370Y1190D01*
X1372Y1182D01*
X1376Y1176D01*
X1382Y1172D01*
X1390Y1170D01*
X1398Y1172D01*
X1404Y1176D01*
X1408Y1182D01*
X1410Y1190D01*
X1410Y1192D01*
X1414Y1195D01*
X1415Y1194D01*
X1419Y1193D01*
X1424Y1194D01*
X1428Y1196D01*
X1431Y1200D01*
X1432Y1205D01*
X1431Y1210D01*
X1428Y1214D01*
X1424Y1216D01*
X1419Y1217D01*
D02*
G37*
G36*
X2670Y1235D02*
X2662Y1233D01*
X2656Y1229D01*
X2652Y1223D01*
X2650Y1215D01*
X2652Y1207D01*
X2656Y1201D01*
X2662Y1197D01*
X2670Y1195D01*
X2678Y1197D01*
X2684Y1201D01*
X2688Y1207D01*
X2690Y1215D01*
X2688Y1223D01*
X2684Y1229D01*
X2678Y1233D01*
X2670Y1235D01*
D02*
G37*
G36*
X471Y1235D02*
X465Y1234D01*
X461Y1231D01*
X458Y1226D01*
X457Y1221D01*
X458Y1215D01*
X461Y1211D01*
X465Y1208D01*
X471Y1207D01*
X476Y1208D01*
X481Y1211D01*
X484Y1215D01*
X485Y1221D01*
X484Y1226D01*
X481Y1231D01*
X476Y1234D01*
X471Y1235D01*
D02*
G37*
G36*
X2145Y1245D02*
X2137Y1243D01*
X2131Y1239D01*
X2127Y1233D01*
X2125Y1225D01*
X2127Y1217D01*
X2131Y1211D01*
X2137Y1207D01*
X2145Y1205D01*
X2153Y1207D01*
X2159Y1211D01*
X2163Y1217D01*
X2165Y1225D01*
X2163Y1233D01*
X2159Y1239D01*
X2153Y1243D01*
X2145Y1245D01*
D02*
G37*
G36*
X620Y1205D02*
X613Y1204D01*
X606Y1199D01*
X602Y1193D01*
X600Y1185D01*
X602Y1178D01*
X606Y1171D01*
X613Y1167D01*
X620Y1165D01*
X628Y1167D01*
X634Y1171D01*
X639Y1178D01*
X640Y1185D01*
X639Y1193D01*
X634Y1199D01*
X628Y1204D01*
X620Y1205D01*
D02*
G37*
G36*
X1745Y1077D02*
X1740Y1076D01*
X1736Y1074D01*
X1734Y1070D01*
X1733Y1065D01*
X1734Y1060D01*
X1736Y1056D01*
X1740Y1054D01*
X1745Y1053D01*
X1750Y1054D01*
X1754Y1056D01*
X1756Y1060D01*
X1757Y1065D01*
X1756Y1070D01*
X1754Y1074D01*
X1750Y1076D01*
X1745Y1077D01*
D02*
G37*
G36*
X1915Y1080D02*
X1907Y1078D01*
X1901Y1074D01*
X1897Y1068D01*
X1895Y1060D01*
X1897Y1052D01*
X1901Y1046D01*
X1907Y1042D01*
X1915Y1040D01*
X1923Y1042D01*
X1929Y1046D01*
X1933Y1052D01*
X1935Y1060D01*
X1933Y1068D01*
X1929Y1074D01*
X1923Y1078D01*
X1915Y1080D01*
D02*
G37*
G36*
X2550Y1139D02*
X2540Y1138D01*
X2530Y1134D01*
X2522Y1128D01*
X2516Y1120D01*
X2512Y1110D01*
X2511Y1100D01*
X2512Y1090D01*
X2516Y1080D01*
X2522Y1072D01*
X2530Y1066D01*
X2540Y1062D01*
X2550Y1061D01*
X2560Y1062D01*
X2570Y1066D01*
X2578Y1072D01*
X2584Y1080D01*
X2588Y1090D01*
X2589Y1100D01*
X2588Y1110D01*
X2584Y1120D01*
X2578Y1128D01*
X2570Y1134D01*
X2560Y1138D01*
X2550Y1139D01*
D02*
G37*
G36*
X2450D02*
X2440Y1138D01*
X2430Y1134D01*
X2422Y1128D01*
X2416Y1120D01*
X2412Y1110D01*
X2411Y1100D01*
X2412Y1090D01*
X2416Y1080D01*
X2422Y1072D01*
X2430Y1066D01*
X2440Y1062D01*
X2450Y1061D01*
X2460Y1062D01*
X2470Y1066D01*
X2478Y1072D01*
X2484Y1080D01*
X2488Y1090D01*
X2489Y1100D01*
X2488Y1110D01*
X2484Y1120D01*
X2478Y1128D01*
X2470Y1134D01*
X2460Y1138D01*
X2450Y1139D01*
D02*
G37*
G36*
X1065Y1065D02*
X1057Y1063D01*
X1051Y1059D01*
X1047Y1053D01*
X1045Y1045D01*
X1047Y1037D01*
X1051Y1031D01*
X1057Y1027D01*
X1065Y1025D01*
X1073Y1027D01*
X1079Y1031D01*
X1083Y1037D01*
X1085Y1045D01*
X1083Y1053D01*
X1079Y1059D01*
X1073Y1063D01*
X1065Y1065D01*
D02*
G37*
G36*
X1490Y1047D02*
X1485Y1046D01*
X1481Y1044D01*
X1479Y1040D01*
X1478Y1035D01*
X1479Y1030D01*
X1481Y1026D01*
X1485Y1024D01*
X1490Y1023D01*
X1495Y1024D01*
X1499Y1026D01*
X1501Y1030D01*
X1502Y1035D01*
X1501Y1040D01*
X1499Y1044D01*
X1495Y1046D01*
X1490Y1047D01*
D02*
G37*
G36*
X1315Y1100D02*
X1307Y1098D01*
X1301Y1094D01*
X1297Y1088D01*
X1295Y1080D01*
X1297Y1072D01*
X1301Y1066D01*
X1306Y1062D01*
Y1058D01*
X1301Y1054D01*
X1297Y1048D01*
X1295Y1040D01*
X1297Y1032D01*
X1301Y1026D01*
X1307Y1022D01*
X1315Y1020D01*
X1323Y1022D01*
X1329Y1026D01*
X1333Y1032D01*
X1335Y1040D01*
X1333Y1048D01*
X1329Y1054D01*
X1324Y1058D01*
Y1062D01*
X1329Y1066D01*
X1333Y1072D01*
X1335Y1080D01*
X1333Y1088D01*
X1329Y1094D01*
X1323Y1098D01*
X1315Y1100D01*
D02*
G37*
G36*
X1700Y1047D02*
X1695Y1046D01*
X1691Y1044D01*
X1689Y1040D01*
X1688Y1035D01*
X1689Y1030D01*
X1691Y1026D01*
X1695Y1024D01*
X1700Y1023D01*
X1705Y1024D01*
X1709Y1026D01*
X1711Y1030D01*
X1712Y1035D01*
X1711Y1040D01*
X1709Y1044D01*
X1705Y1046D01*
X1700Y1047D01*
D02*
G37*
G36*
X1640D02*
X1635Y1046D01*
X1631Y1044D01*
X1629Y1040D01*
X1628Y1035D01*
X1629Y1030D01*
X1631Y1026D01*
X1635Y1024D01*
X1640Y1023D01*
X1645Y1024D01*
X1649Y1026D01*
X1651Y1030D01*
X1652Y1035D01*
X1651Y1040D01*
X1649Y1044D01*
X1645Y1046D01*
X1640Y1047D01*
D02*
G37*
G36*
X1960Y1170D02*
X1952Y1168D01*
X1946Y1164D01*
X1942Y1158D01*
X1940Y1150D01*
X1942Y1142D01*
X1946Y1136D01*
X1952Y1132D01*
X1960Y1130D01*
X1968Y1132D01*
X1974Y1136D01*
X1978Y1142D01*
X1980Y1150D01*
X1978Y1158D01*
X1974Y1164D01*
X1968Y1168D01*
X1960Y1170D01*
D02*
G37*
G36*
X2920Y1170D02*
X2912Y1168D01*
X2906Y1164D01*
X2902Y1158D01*
X2900Y1150D01*
X2902Y1142D01*
X2906Y1136D01*
X2912Y1132D01*
X2920Y1130D01*
X2928Y1132D01*
X2934Y1136D01*
X2938Y1142D01*
X2940Y1150D01*
X2938Y1158D01*
X2934Y1164D01*
X2928Y1168D01*
X2920Y1170D01*
D02*
G37*
G36*
X2550Y1239D02*
X2540Y1238D01*
X2530Y1234D01*
X2522Y1228D01*
X2516Y1220D01*
X2512Y1210D01*
X2511Y1200D01*
X2512Y1190D01*
X2516Y1180D01*
X2522Y1172D01*
X2530Y1166D01*
X2540Y1162D01*
X2550Y1161D01*
X2560Y1162D01*
X2570Y1166D01*
X2578Y1172D01*
X2584Y1180D01*
X2588Y1190D01*
X2589Y1200D01*
X2588Y1210D01*
X2584Y1220D01*
X2578Y1228D01*
X2570Y1234D01*
X2560Y1238D01*
X2550Y1239D01*
D02*
G37*
G36*
X2450D02*
X2440Y1238D01*
X2430Y1234D01*
X2422Y1228D01*
X2416Y1220D01*
X2412Y1210D01*
X2411Y1200D01*
X2412Y1190D01*
X2416Y1180D01*
X2422Y1172D01*
X2430Y1166D01*
X2440Y1162D01*
X2450Y1161D01*
X2460Y1162D01*
X2470Y1166D01*
X2478Y1172D01*
X2484Y1180D01*
X2488Y1190D01*
X2489Y1200D01*
X2488Y1210D01*
X2484Y1220D01*
X2478Y1228D01*
X2470Y1234D01*
X2460Y1238D01*
X2450Y1239D01*
D02*
G37*
G36*
X1465Y1147D02*
X1460Y1146D01*
X1456Y1144D01*
X1454Y1140D01*
X1453Y1135D01*
X1454Y1130D01*
X1456Y1126D01*
X1460Y1124D01*
X1465Y1123D01*
X1470Y1124D01*
X1474Y1126D01*
X1476Y1130D01*
X1477Y1135D01*
X1476Y1140D01*
X1474Y1144D01*
X1470Y1146D01*
X1465Y1147D01*
D02*
G37*
G36*
X1825Y1117D02*
X1820Y1116D01*
X1816Y1114D01*
X1814Y1110D01*
X1813Y1105D01*
X1814Y1100D01*
X1815Y1099D01*
X1811Y1095D01*
X1810Y1096D01*
X1805Y1097D01*
X1800Y1096D01*
X1796Y1094D01*
X1794Y1090D01*
X1793Y1085D01*
X1794Y1080D01*
X1796Y1076D01*
X1800Y1074D01*
X1805Y1073D01*
X1810Y1074D01*
X1814Y1076D01*
X1816Y1080D01*
X1817Y1085D01*
X1816Y1090D01*
X1815Y1091D01*
X1819Y1095D01*
X1820Y1094D01*
X1825Y1093D01*
X1830Y1094D01*
X1834Y1096D01*
X1836Y1100D01*
X1837Y1105D01*
X1836Y1110D01*
X1834Y1114D01*
X1830Y1116D01*
X1825Y1117D01*
D02*
G37*
G36*
X1544Y1096D02*
X1539Y1095D01*
X1535Y1093D01*
X1533Y1089D01*
X1532Y1084D01*
X1533Y1079D01*
X1535Y1075D01*
X1539Y1073D01*
X1544Y1072D01*
X1548Y1073D01*
X1552Y1075D01*
X1555Y1079D01*
X1556Y1084D01*
X1555Y1089D01*
X1552Y1093D01*
X1548Y1095D01*
X1544Y1096D01*
D02*
G37*
G36*
X3065Y1153D02*
X3058Y1152D01*
X3052Y1148D01*
X3048Y1142D01*
X3047Y1135D01*
X3048Y1128D01*
X3052Y1122D01*
X3058Y1118D01*
X3065Y1117D01*
X3072Y1118D01*
X3078Y1122D01*
X3082Y1128D01*
X3083Y1135D01*
X3082Y1142D01*
X3078Y1148D01*
X3072Y1152D01*
X3065Y1153D01*
D02*
G37*
G36*
X1865Y1132D02*
X1860Y1131D01*
X1856Y1129D01*
X1854Y1125D01*
X1853Y1120D01*
X1854Y1115D01*
X1856Y1111D01*
X1860Y1109D01*
X1865Y1108D01*
X1870Y1109D01*
X1874Y1111D01*
X1876Y1115D01*
X1877Y1120D01*
X1876Y1125D01*
X1874Y1129D01*
X1870Y1131D01*
X1865Y1132D01*
D02*
G37*
G36*
X2125Y1505D02*
X2117Y1503D01*
X2111Y1499D01*
X2107Y1493D01*
X2105Y1485D01*
X2107Y1477D01*
X2111Y1471D01*
X2117Y1467D01*
X2125Y1465D01*
X2133Y1467D01*
X2139Y1471D01*
X2143Y1477D01*
X2145Y1485D01*
X2143Y1493D01*
X2139Y1499D01*
X2133Y1503D01*
X2125Y1505D01*
D02*
G37*
G36*
X1905Y1482D02*
X1900Y1481D01*
X1896Y1479D01*
X1894Y1475D01*
X1893Y1470D01*
X1894Y1465D01*
X1896Y1461D01*
X1900Y1459D01*
X1905Y1458D01*
X1910Y1459D01*
X1914Y1461D01*
X1916Y1465D01*
X1917Y1470D01*
X1916Y1475D01*
X1914Y1479D01*
X1910Y1481D01*
X1905Y1482D01*
D02*
G37*
G36*
X1358Y1505D02*
X1350Y1503D01*
X1343Y1499D01*
X1339Y1493D01*
X1338Y1485D01*
X1339Y1477D01*
X1343Y1471D01*
X1350Y1467D01*
X1358Y1465D01*
X1365Y1467D01*
X1372Y1471D01*
X1376Y1477D01*
X1377Y1485D01*
X1376Y1493D01*
X1372Y1499D01*
X1365Y1503D01*
X1358Y1505D01*
D02*
G37*
G36*
X2175Y1505D02*
X2167Y1503D01*
X2161Y1499D01*
X2157Y1493D01*
X2155Y1485D01*
X2157Y1477D01*
X2161Y1471D01*
X2167Y1467D01*
X2175Y1465D01*
X2183Y1467D01*
X2189Y1471D01*
X2193Y1477D01*
X2195Y1485D01*
X2193Y1493D01*
X2189Y1499D01*
X2183Y1503D01*
X2175Y1505D01*
D02*
G37*
G36*
X1745Y1478D02*
X1741Y1477D01*
X1737Y1474D01*
X1734Y1470D01*
X1733Y1465D01*
X1734Y1461D01*
X1737Y1457D01*
X1741Y1454D01*
X1745Y1453D01*
X1750Y1454D01*
X1754Y1457D01*
X1757Y1461D01*
X1758Y1465D01*
X1757Y1470D01*
X1754Y1474D01*
X1750Y1477D01*
X1745Y1478D01*
D02*
G37*
G36*
X1355Y1445D02*
X1347Y1443D01*
X1341Y1439D01*
X1337Y1433D01*
X1335Y1425D01*
X1337Y1417D01*
X1341Y1411D01*
X1347Y1407D01*
X1355Y1405D01*
X1363Y1407D01*
X1369Y1411D01*
X1373Y1417D01*
X1375Y1425D01*
X1373Y1433D01*
X1369Y1439D01*
X1363Y1443D01*
X1355Y1445D01*
D02*
G37*
G36*
X2905Y1423D02*
X2898Y1422D01*
X2892Y1418D01*
X2888Y1412D01*
X2887Y1405D01*
X2888Y1398D01*
X2892Y1392D01*
X2898Y1388D01*
X2905Y1387D01*
X2912Y1388D01*
X2918Y1392D01*
X2922Y1398D01*
X2923Y1405D01*
X2922Y1412D01*
X2918Y1418D01*
X2912Y1422D01*
X2905Y1423D01*
D02*
G37*
G36*
X493Y1473D02*
X486Y1472D01*
X479Y1467D01*
X475Y1461D01*
X473Y1453D01*
X475Y1446D01*
X479Y1439D01*
X486Y1435D01*
X493Y1433D01*
X501Y1435D01*
X507Y1439D01*
X512Y1446D01*
X513Y1453D01*
X512Y1461D01*
X507Y1467D01*
X501Y1472D01*
X493Y1473D01*
D02*
G37*
G36*
X2670Y1450D02*
X2662Y1448D01*
X2656Y1444D01*
X2652Y1438D01*
X2650Y1430D01*
X2652Y1422D01*
X2656Y1416D01*
X2662Y1412D01*
X2670Y1410D01*
X2678Y1412D01*
X2684Y1416D01*
X2688Y1422D01*
X2690Y1430D01*
X2688Y1438D01*
X2684Y1444D01*
X2678Y1448D01*
X2670Y1450D01*
D02*
G37*
G36*
X3065Y1583D02*
X3058Y1582D01*
X3052Y1578D01*
X3048Y1572D01*
X3047Y1565D01*
X3048Y1558D01*
X3052Y1552D01*
X3058Y1548D01*
X3065Y1547D01*
X3072Y1548D01*
X3078Y1552D01*
X3082Y1558D01*
X3083Y1565D01*
X3082Y1572D01*
X3078Y1578D01*
X3072Y1582D01*
X3065Y1583D01*
D02*
G37*
G36*
X465Y1565D02*
X457Y1563D01*
X451Y1559D01*
X447Y1553D01*
X445Y1545D01*
X447Y1537D01*
X451Y1531D01*
X457Y1527D01*
X465Y1525D01*
X473Y1527D01*
X479Y1531D01*
X483Y1537D01*
X485Y1545D01*
X483Y1553D01*
X479Y1559D01*
X473Y1563D01*
X465Y1565D01*
D02*
G37*
G36*
X1724Y1593D02*
X1718Y1592D01*
X1714Y1589D01*
X1711Y1584D01*
X1710Y1579D01*
X1711Y1573D01*
X1714Y1569D01*
X1718Y1566D01*
X1724Y1565D01*
X1729Y1566D01*
X1734Y1569D01*
X1737Y1573D01*
X1738Y1579D01*
X1737Y1584D01*
X1734Y1589D01*
X1729Y1592D01*
X1724Y1593D01*
D02*
G37*
G36*
X245Y1590D02*
X237Y1588D01*
X231Y1584D01*
X227Y1578D01*
X225Y1570D01*
X227Y1562D01*
X231Y1556D01*
X237Y1552D01*
X245Y1550D01*
X253Y1552D01*
X259Y1556D01*
X263Y1562D01*
X265Y1570D01*
X263Y1578D01*
X259Y1584D01*
X253Y1588D01*
X245Y1590D01*
D02*
G37*
G36*
X1095Y1565D02*
X1087Y1563D01*
X1081Y1559D01*
X1077Y1553D01*
X1075Y1545D01*
X1077Y1537D01*
X1081Y1531D01*
X1087Y1527D01*
X1095Y1525D01*
X1103Y1527D01*
X1109Y1531D01*
X1113Y1537D01*
X1115Y1545D01*
X1113Y1553D01*
X1109Y1559D01*
X1103Y1563D01*
X1095Y1565D01*
D02*
G37*
G36*
X2450Y1544D02*
X2441Y1543D01*
X2433Y1540D01*
X2426Y1534D01*
X2420Y1527D01*
X2417Y1519D01*
X2416Y1510D01*
X2417Y1501D01*
X2420Y1493D01*
X2426Y1486D01*
X2433Y1480D01*
X2441Y1477D01*
X2450Y1476D01*
X2459Y1477D01*
X2467Y1480D01*
X2474Y1486D01*
X2480Y1493D01*
X2483Y1501D01*
X2484Y1510D01*
X2483Y1519D01*
X2480Y1527D01*
X2474Y1534D01*
X2467Y1540D01*
X2459Y1543D01*
X2450Y1544D01*
D02*
G37*
G36*
X1615Y1492D02*
X1610Y1491D01*
X1606Y1489D01*
X1604Y1485D01*
X1603Y1480D01*
X1604Y1475D01*
X1606Y1471D01*
X1610Y1469D01*
X1615Y1468D01*
X1620Y1469D01*
X1624Y1471D01*
X1626Y1475D01*
X1627Y1480D01*
X1626Y1485D01*
X1624Y1489D01*
X1620Y1491D01*
X1615Y1492D01*
D02*
G37*
G36*
X1523Y1517D02*
X1518Y1516D01*
X1514Y1514D01*
X1511Y1510D01*
X1510Y1505D01*
X1511Y1500D01*
X1514Y1496D01*
X1518Y1494D01*
X1523Y1493D01*
X1527Y1494D01*
X1531Y1496D01*
X1534Y1500D01*
X1535Y1505D01*
X1534Y1510D01*
X1531Y1514D01*
X1527Y1516D01*
X1523Y1517D01*
D02*
G37*
G36*
X2550Y1544D02*
X2541Y1543D01*
X2533Y1540D01*
X2526Y1534D01*
X2520Y1527D01*
X2517Y1519D01*
X2516Y1510D01*
X2517Y1501D01*
X2520Y1493D01*
X2526Y1486D01*
X2533Y1480D01*
X2541Y1477D01*
X2550Y1476D01*
X2559Y1477D01*
X2567Y1480D01*
X2574Y1486D01*
X2580Y1493D01*
X2583Y1501D01*
X2584Y1510D01*
X2583Y1519D01*
X2580Y1527D01*
X2574Y1534D01*
X2567Y1540D01*
X2559Y1543D01*
X2550Y1544D01*
D02*
G37*
G36*
X985Y1517D02*
X972Y1516D01*
X959Y1512D01*
X948Y1506D01*
X938Y1497D01*
X929Y1487D01*
X923Y1476D01*
X919Y1463D01*
X918Y1450D01*
X919Y1437D01*
X923Y1424D01*
X929Y1413D01*
X938Y1403D01*
X948Y1394D01*
X959Y1388D01*
X972Y1384D01*
X985Y1383D01*
X998Y1384D01*
X1011Y1388D01*
X1022Y1394D01*
X1032Y1403D01*
X1041Y1413D01*
X1047Y1424D01*
X1051Y1437D01*
X1052Y1450D01*
X1051Y1463D01*
X1047Y1476D01*
X1041Y1487D01*
X1032Y1497D01*
X1022Y1506D01*
X1011Y1512D01*
X998Y1516D01*
X985Y1517D01*
D02*
G37*
G36*
X140Y1300D02*
X132Y1298D01*
X126Y1294D01*
X122Y1288D01*
X120Y1280D01*
X122Y1272D01*
X126Y1266D01*
X132Y1262D01*
X140Y1260D01*
X148Y1262D01*
X154Y1266D01*
X158Y1272D01*
X160Y1280D01*
X158Y1288D01*
X154Y1294D01*
X148Y1298D01*
X140Y1300D01*
D02*
G37*
G36*
X85D02*
X77Y1298D01*
X71Y1294D01*
X67Y1288D01*
X65Y1280D01*
X67Y1272D01*
X71Y1266D01*
X77Y1262D01*
X85Y1260D01*
X93Y1262D01*
X99Y1266D01*
X103Y1272D01*
X105Y1280D01*
X103Y1288D01*
X99Y1294D01*
X93Y1298D01*
X85Y1300D01*
D02*
G37*
G36*
X770Y1307D02*
X766Y1307D01*
X762Y1304D01*
X759Y1300D01*
X758Y1295D01*
X759Y1291D01*
X762Y1287D01*
X766Y1284D01*
X770Y1283D01*
X775Y1284D01*
X779Y1287D01*
X782Y1291D01*
X782Y1295D01*
X782Y1300D01*
X779Y1304D01*
X775Y1307D01*
X770Y1307D01*
D02*
G37*
G36*
X1960Y1305D02*
X1952Y1303D01*
X1946Y1299D01*
X1942Y1293D01*
X1940Y1285D01*
X1942Y1277D01*
X1946Y1271D01*
X1952Y1267D01*
X1960Y1265D01*
X1968Y1267D01*
X1974Y1271D01*
X1978Y1277D01*
X1980Y1285D01*
X1978Y1293D01*
X1974Y1299D01*
X1968Y1303D01*
X1960Y1305D01*
D02*
G37*
G36*
X471Y1274D02*
X465Y1273D01*
X461Y1270D01*
X458Y1265D01*
X457Y1260D01*
X458Y1255D01*
X461Y1250D01*
X465Y1247D01*
X471Y1246D01*
X476Y1247D01*
X481Y1250D01*
X484Y1255D01*
X485Y1260D01*
X484Y1265D01*
X481Y1270D01*
X476Y1273D01*
X471Y1274D01*
D02*
G37*
G36*
X395Y1252D02*
X391Y1252D01*
X387Y1249D01*
X384Y1245D01*
X383Y1240D01*
X384Y1236D01*
X387Y1232D01*
X391Y1229D01*
X395Y1228D01*
X400Y1229D01*
X404Y1232D01*
X407Y1236D01*
X407Y1240D01*
X407Y1245D01*
X404Y1249D01*
X400Y1252D01*
X395Y1252D01*
D02*
G37*
G36*
X330Y1295D02*
X322Y1293D01*
X316Y1289D01*
X312Y1283D01*
X310Y1275D01*
X312Y1267D01*
X316Y1261D01*
X322Y1257D01*
X330Y1255D01*
X338Y1257D01*
X344Y1261D01*
X348Y1267D01*
X350Y1275D01*
X348Y1283D01*
X344Y1289D01*
X338Y1293D01*
X330Y1295D01*
D02*
G37*
G36*
X510Y1274D02*
X505Y1273D01*
X500Y1270D01*
X497Y1265D01*
X496Y1260D01*
X497Y1255D01*
X500Y1250D01*
X505Y1247D01*
X510Y1246D01*
X515Y1247D01*
X520Y1250D01*
X523Y1255D01*
X524Y1260D01*
X523Y1265D01*
X520Y1270D01*
X515Y1273D01*
X510Y1274D01*
D02*
G37*
G36*
X2450Y1379D02*
X2440Y1378D01*
X2430Y1374D01*
X2422Y1368D01*
X2416Y1360D01*
X2412Y1350D01*
X2411Y1340D01*
X2412Y1330D01*
X2416Y1320D01*
X2422Y1312D01*
X2430Y1306D01*
X2440Y1302D01*
X2450Y1301D01*
X2460Y1302D01*
X2470Y1306D01*
X2478Y1312D01*
X2484Y1320D01*
X2488Y1330D01*
X2489Y1340D01*
X2488Y1350D01*
X2484Y1360D01*
X2478Y1368D01*
X2470Y1374D01*
X2460Y1378D01*
X2450Y1379D01*
D02*
G37*
G36*
X2055Y1390D02*
X2047Y1388D01*
X2041Y1384D01*
X2037Y1378D01*
X2035Y1370D01*
X2037Y1362D01*
X2041Y1356D01*
X2047Y1352D01*
X2055Y1350D01*
X2063Y1352D01*
X2069Y1356D01*
X2073Y1362D01*
X2075Y1370D01*
X2073Y1378D01*
X2069Y1384D01*
X2063Y1388D01*
X2055Y1390D01*
D02*
G37*
G36*
X2010Y1385D02*
X2002Y1383D01*
X1996Y1379D01*
X1992Y1373D01*
X1990Y1365D01*
X1992Y1357D01*
X1996Y1351D01*
X2002Y1347D01*
X2010Y1345D01*
X2018Y1347D01*
X2024Y1351D01*
X2028Y1357D01*
X2030Y1365D01*
X2028Y1373D01*
X2024Y1379D01*
X2018Y1383D01*
X2010Y1385D01*
D02*
G37*
G36*
X2100Y1395D02*
X2092Y1393D01*
X2086Y1389D01*
X2082Y1383D01*
X2080Y1375D01*
X2082Y1367D01*
X2086Y1361D01*
X2092Y1357D01*
X2100Y1355D01*
X2108Y1357D01*
X2114Y1361D01*
X2118Y1367D01*
X2120Y1375D01*
X2118Y1383D01*
X2114Y1389D01*
X2108Y1393D01*
X2100Y1395D01*
D02*
G37*
G36*
X2390Y1437D02*
X2385Y1436D01*
X2381Y1434D01*
X2379Y1430D01*
X2378Y1425D01*
X2379Y1420D01*
X2381Y1416D01*
X2383Y1415D01*
X2384Y1410D01*
X2384Y1410D01*
X2383Y1405D01*
X2384Y1400D01*
X2386Y1396D01*
X2390Y1394D01*
X2395Y1393D01*
X2395Y1393D01*
X2399Y1389D01*
X2398Y1385D01*
X2399Y1380D01*
X2401Y1376D01*
X2405Y1374D01*
X2410Y1373D01*
X2415Y1374D01*
X2419Y1376D01*
X2421Y1380D01*
X2422Y1385D01*
X2421Y1390D01*
X2419Y1394D01*
X2415Y1396D01*
X2410Y1397D01*
X2410Y1397D01*
X2406Y1401D01*
X2407Y1405D01*
X2406Y1410D01*
X2404Y1414D01*
X2402Y1415D01*
X2401Y1420D01*
X2401Y1420D01*
X2402Y1425D01*
X2401Y1430D01*
X2399Y1434D01*
X2395Y1436D01*
X2390Y1437D01*
D02*
G37*
G36*
X1775Y1397D02*
X1770Y1396D01*
X1766Y1394D01*
X1764Y1390D01*
X1763Y1385D01*
X1764Y1380D01*
X1766Y1376D01*
X1770Y1374D01*
X1775Y1373D01*
X1780Y1374D01*
X1784Y1376D01*
X1786Y1380D01*
X1787Y1385D01*
X1786Y1390D01*
X1784Y1394D01*
X1780Y1396D01*
X1775Y1397D01*
D02*
G37*
G36*
X3065Y1378D02*
X3058Y1377D01*
X3052Y1373D01*
X3048Y1367D01*
X3047Y1360D01*
X3048Y1353D01*
X3052Y1347D01*
X3058Y1343D01*
X3065Y1342D01*
X3072Y1343D01*
X3078Y1347D01*
X3082Y1353D01*
X3083Y1360D01*
X3082Y1367D01*
X3078Y1373D01*
X3072Y1377D01*
X3065Y1378D01*
D02*
G37*
G36*
X765Y1370D02*
X757Y1368D01*
X751Y1364D01*
X747Y1358D01*
X745Y1350D01*
X747Y1342D01*
X751Y1336D01*
X757Y1332D01*
X765Y1330D01*
X773Y1332D01*
X779Y1336D01*
X783Y1342D01*
X785Y1350D01*
X783Y1358D01*
X779Y1364D01*
X773Y1368D01*
X765Y1370D01*
D02*
G37*
G36*
X2550Y1379D02*
X2540Y1378D01*
X2530Y1374D01*
X2522Y1368D01*
X2516Y1360D01*
X2512Y1350D01*
X2511Y1340D01*
X2512Y1330D01*
X2516Y1320D01*
X2522Y1312D01*
X2530Y1306D01*
X2540Y1302D01*
X2550Y1301D01*
X2560Y1302D01*
X2570Y1306D01*
X2578Y1312D01*
X2584Y1320D01*
X2588Y1330D01*
X2589Y1340D01*
X2588Y1350D01*
X2584Y1360D01*
X2578Y1368D01*
X2570Y1374D01*
X2560Y1378D01*
X2550Y1379D01*
D02*
G37*
%LPD*%
G36*
X2874Y2207D02*
X2887Y2202D01*
X2898Y2193D01*
X2907Y2182D01*
X2912Y2169D01*
X2914Y2155D01*
X2912Y2141D01*
X2907Y2128D01*
X2898Y2117D01*
X2887Y2108D01*
X2874Y2103D01*
X2860Y2101D01*
X2846Y2103D01*
X2833Y2108D01*
X2822Y2117D01*
X2813Y2128D01*
X2808Y2141D01*
X2806Y2155D01*
X2808Y2169D01*
X2813Y2182D01*
X2822Y2193D01*
X2833Y2202D01*
X2846Y2207D01*
X2860Y2209D01*
X2874Y2207D01*
D02*
G37*
G36*
X94Y572D02*
X107Y567D01*
X118Y558D01*
X127Y547D01*
X132Y534D01*
X134Y520D01*
X132Y506D01*
X127Y493D01*
X118Y482D01*
X107Y473D01*
X94Y468D01*
X80Y466D01*
X66Y468D01*
X53Y473D01*
X42Y482D01*
X33Y493D01*
X28Y506D01*
X26Y520D01*
X28Y534D01*
X33Y547D01*
X42Y558D01*
X53Y567D01*
X66Y572D01*
X80Y574D01*
X94Y572D01*
D02*
G37*
G36*
X2854Y212D02*
X2867Y207D01*
X2878Y198D01*
X2887Y187D01*
X2892Y174D01*
X2894Y160D01*
X2892Y146D01*
X2887Y133D01*
X2878Y122D01*
X2867Y113D01*
X2854Y108D01*
X2840Y106D01*
X2826Y108D01*
X2813Y113D01*
X2802Y122D01*
X2793Y133D01*
X2788Y146D01*
X2786Y160D01*
X2788Y174D01*
X2793Y187D01*
X2802Y198D01*
X2813Y207D01*
X2826Y212D01*
X2840Y214D01*
X2854Y212D01*
D02*
G37*
D59*
X445Y845D02*
D03*
D62*
X2760Y975D02*
D03*
X2330Y200D02*
D03*
X2520Y855D02*
D03*
X2335Y2015D02*
D03*
X2240Y1900D02*
D03*
X2425Y1965D02*
D03*
X1388Y1612D02*
D03*
X273Y803D02*
D03*
X463Y1048D02*
D03*
X555Y1345D02*
D03*
X605D02*
D03*
Y1285D02*
D03*
X642Y973D02*
D03*
X920Y1045D02*
D03*
X2075Y1485D02*
D03*
D63*
X1805Y1460D02*
D03*
X1497Y745D02*
D03*
X1575Y1035D02*
D03*
X1855Y875D02*
D03*
X1860Y729D02*
D03*
X1780Y839D02*
D03*
X1590Y900D02*
D03*
X1465Y925D02*
D03*
M02*
