%FSLAX23Y23*%
%MOIN*%
G70*
G01*
G75*
G04 Layer_Color=65535*
%ADD10C,0.012*%
%ADD11C,0.011*%
%ADD12R,0.118X0.079*%
%ADD13R,0.079X0.039*%
%ADD14R,0.030X0.030*%
%ADD15R,0.030X0.030*%
%ADD16R,0.035X0.031*%
%ADD17R,0.031X0.031*%
%ADD18R,0.044X0.058*%
%ADD19R,0.079X0.047*%
%ADD20R,0.094X0.102*%
%ADD21R,0.012X0.053*%
%ADD22R,0.071X0.075*%
%ADD23R,0.091X0.075*%
%ADD24R,0.050X0.030*%
%ADD25R,0.030X0.050*%
%ADD26R,0.008X0.027*%
%ADD27R,0.015X0.061*%
%ADD28R,0.051X0.049*%
%ADD29R,0.020X0.020*%
%ADD30R,0.130X0.173*%
%ADD31R,0.154X0.244*%
%ADD32R,0.058X0.044*%
%ADD33R,0.012X0.020*%
%ADD34R,0.012X0.019*%
%ADD35R,0.020X0.020*%
%ADD36R,0.051X0.107*%
%ADD37R,0.011X0.031*%
%ADD38R,0.055X0.047*%
%ADD39O,0.087X0.024*%
%ADD40R,0.033X0.011*%
%ADD41R,0.065X0.094*%
%ADD42R,0.024X0.010*%
%ADD43R,0.010X0.024*%
%ADD44R,0.201X0.201*%
%ADD45R,0.039X0.028*%
%ADD46C,0.009*%
%ADD47C,0.039*%
%ADD48C,0.008*%
%ADD49C,0.015*%
%ADD50C,0.010*%
%ADD51C,0.020*%
%ADD52C,0.025*%
%ADD53C,0.005*%
%ADD54C,0.006*%
%ADD55C,0.060*%
%ADD56C,0.070*%
%ADD57C,0.125*%
%ADD58C,0.090*%
%ADD59C,0.059*%
%ADD60C,0.079*%
%ADD61R,0.059X0.059*%
%ADD62C,0.031*%
%ADD63C,0.016*%
%ADD64C,0.020*%
%ADD65C,0.006*%
%ADD66C,0.010*%
%ADD67C,0.008*%
%ADD68C,0.004*%
%ADD69C,0.016*%
%ADD70C,0.024*%
%ADD71C,0.016*%
G36*
X1867Y658D02*
X1827D01*
X1867Y698D01*
Y658D01*
D02*
G37*
D48*
X2510Y1360D02*
X2530Y1380D01*
X2590D01*
Y1300D02*
Y1380D01*
X2510Y1300D02*
X2590D01*
X2510D02*
Y1360D01*
X2410D02*
X2430Y1380D01*
X2490D01*
Y1300D02*
Y1380D01*
X2410Y1300D02*
X2490D01*
X2410D02*
Y1360D01*
X2400Y1050D02*
X2575D01*
X2400Y950D02*
Y1050D01*
Y950D02*
X2600D01*
Y1025D01*
X2575Y1050D02*
X2600Y1025D01*
X2400Y1150D02*
X2575D01*
X2400Y1050D02*
Y1150D01*
Y1050D02*
X2600D01*
Y1125D01*
X2575Y1150D02*
X2600Y1125D01*
X2400Y1250D02*
X2575D01*
X2400Y1150D02*
Y1250D01*
Y1150D02*
X2600D01*
Y1225D01*
X2575Y1250D02*
X2600Y1225D01*
X100Y1755D02*
Y1815D01*
Y1755D02*
X180D01*
Y1835D01*
X120D02*
X180D01*
X100Y1815D02*
X120Y1835D01*
X1343Y1959D02*
Y2019D01*
Y1959D02*
X1423D01*
Y2039D01*
X1363D02*
X1423D01*
X1343Y2019D02*
X1363Y2039D01*
X2925Y1195D02*
Y1175D01*
X2935Y1165D01*
X2945Y1175D01*
Y1195D01*
X2955Y1165D02*
X2965D01*
X2960D01*
Y1195D01*
X2955Y1190D01*
X3000Y1165D02*
X2980D01*
X3000Y1185D01*
Y1190D01*
X2995Y1195D01*
X2985D01*
X2980Y1190D01*
X3010Y1165D02*
Y1195D01*
X3025D01*
X3030Y1190D01*
Y1180D01*
X3025Y1175D01*
X3010D01*
X3040Y1190D02*
X3045Y1195D01*
X3055D01*
X3060Y1190D01*
Y1170D01*
X3055Y1165D01*
X3045D01*
X3040Y1170D01*
Y1190D01*
X2775Y1800D02*
X2765D01*
X2770D01*
Y1775D01*
X2765Y1770D01*
X2760D01*
X2755Y1775D01*
X2785D02*
X2790Y1770D01*
X2800D01*
X2805Y1775D01*
Y1795D01*
X2800Y1800D01*
X2790D01*
X2785Y1795D01*
Y1790D01*
X2790Y1785D01*
X2805D01*
X2935Y1410D02*
Y1380D01*
X2955D01*
X2980Y1410D02*
X2970D01*
X2965Y1405D01*
Y1385D01*
X2970Y1380D01*
X2980D01*
X2985Y1385D01*
Y1405D01*
X2980Y1410D01*
X3015Y1405D02*
X3010Y1410D01*
X3000D01*
X2995Y1405D01*
Y1385D01*
X3000Y1380D01*
X3010D01*
X3015Y1385D01*
X3025Y1410D02*
Y1380D01*
Y1390D01*
X3045Y1410D01*
X3030Y1395D01*
X3045Y1380D01*
X2935Y975D02*
Y955D01*
X2945Y945D01*
X2955Y955D01*
Y975D01*
X2965Y970D02*
X2970Y975D01*
X2980D01*
X2985Y970D01*
Y965D01*
X2980Y960D01*
X2975D01*
X2980D01*
X2985Y955D01*
Y950D01*
X2980Y945D01*
X2970D01*
X2965Y950D01*
X2995Y945D02*
Y975D01*
X3010D01*
X3015Y970D01*
Y960D01*
X3010Y955D01*
X2995D01*
X3025Y970D02*
X3030Y975D01*
X3040D01*
X3045Y970D01*
Y965D01*
X3040Y960D01*
X3035D01*
X3040D01*
X3045Y955D01*
Y950D01*
X3040Y945D01*
X3030D01*
X3025Y950D01*
X2130Y1590D02*
Y1620D01*
X2145D01*
X2150Y1615D01*
Y1605D01*
X2145Y1600D01*
X2130D01*
X2140D02*
X2150Y1590D01*
X2160Y1615D02*
X2165Y1620D01*
X2175D01*
X2180Y1615D01*
Y1610D01*
X2175Y1605D01*
X2170D01*
X2175D01*
X2180Y1600D01*
Y1595D01*
X2175Y1590D01*
X2165D01*
X2160Y1595D01*
X2210Y1620D02*
X2200Y1615D01*
X2190Y1605D01*
Y1595D01*
X2195Y1590D01*
X2205D01*
X2210Y1595D01*
Y1600D01*
X2205Y1605D01*
X2190D01*
X2415Y1420D02*
X2435D01*
X2425D01*
Y1390D01*
X2445D02*
Y1420D01*
X2460D01*
X2465Y1415D01*
Y1405D01*
X2460Y1400D01*
X2445D01*
X2490Y1390D02*
Y1420D01*
X2475Y1405D01*
X2495D01*
X2510Y1420D02*
X2530D01*
X2520D01*
Y1390D01*
X2540D02*
Y1420D01*
X2555D01*
X2560Y1415D01*
Y1405D01*
X2555Y1400D01*
X2540D01*
X2570Y1415D02*
X2575Y1420D01*
X2585D01*
X2590Y1415D01*
Y1410D01*
X2585Y1405D01*
X2580D01*
X2585D01*
X2590Y1400D01*
Y1395D01*
X2585Y1390D01*
X2575D01*
X2570Y1395D01*
X2662Y1640D02*
X2652D01*
X2657D01*
Y1615D01*
X2652Y1610D01*
X2647D01*
X2642Y1615D01*
X2672Y1635D02*
X2677Y1640D01*
X2687D01*
X2692Y1635D01*
Y1630D01*
X2687Y1625D01*
X2692Y1620D01*
Y1615D01*
X2687Y1610D01*
X2677D01*
X2672Y1615D01*
Y1620D01*
X2677Y1625D01*
X2672Y1630D01*
Y1635D01*
X2677Y1625D02*
X2687D01*
X2335Y1700D02*
X2325D01*
X2330D01*
Y1675D01*
X2325Y1670D01*
X2320D01*
X2315Y1675D01*
X2345Y1700D02*
X2365D01*
Y1695D01*
X2345Y1675D01*
Y1670D01*
X2780Y980D02*
Y955D01*
X2785Y950D01*
X2795D01*
X2800Y955D01*
Y980D01*
X2810Y950D02*
X2820D01*
X2815D01*
Y980D01*
X2810Y975D01*
X2835D02*
X2840Y980D01*
X2850D01*
X2855Y975D01*
Y970D01*
X2850Y965D01*
X2855Y960D01*
Y955D01*
X2850Y950D01*
X2840D01*
X2835Y955D01*
Y960D01*
X2840Y965D01*
X2835Y970D01*
Y975D01*
X2840Y965D02*
X2850D01*
X2780Y1415D02*
Y1390D01*
X2785Y1385D01*
X2795D01*
X2800Y1390D01*
Y1415D01*
X2810Y1385D02*
X2820D01*
X2815D01*
Y1415D01*
X2810Y1410D01*
X2855Y1415D02*
X2845Y1410D01*
X2835Y1400D01*
Y1390D01*
X2840Y1385D01*
X2850D01*
X2855Y1390D01*
Y1395D01*
X2850Y1400D01*
X2835D01*
X3025Y1450D02*
X3050D01*
X3055Y1455D01*
Y1465D01*
X3050Y1470D01*
X3025D01*
X3055Y1480D02*
Y1490D01*
Y1485D01*
X3025D01*
X3030Y1480D01*
X3055Y1525D02*
Y1505D01*
X3035Y1525D01*
X3030D01*
X3025Y1520D01*
Y1510D01*
X3030Y1505D01*
X3030Y1250D02*
X3055D01*
X3060Y1255D01*
Y1265D01*
X3055Y1270D01*
X3030D01*
X3060Y1280D02*
Y1290D01*
Y1285D01*
X3030D01*
X3035Y1280D01*
X3060Y1305D02*
Y1315D01*
Y1310D01*
X3030D01*
X3035Y1305D01*
X2645Y1445D02*
X2615D01*
Y1460D01*
X2620Y1465D01*
X2630D01*
X2635Y1460D01*
Y1445D01*
Y1455D02*
X2645Y1465D01*
X2615Y1495D02*
X2620Y1485D01*
X2630Y1475D01*
X2640D01*
X2645Y1480D01*
Y1490D01*
X2640Y1495D01*
X2635D01*
X2630Y1490D01*
Y1475D01*
X2615Y1525D02*
X2620Y1515D01*
X2630Y1505D01*
X2640D01*
X2645Y1510D01*
Y1520D01*
X2640Y1525D01*
X2635D01*
X2630Y1520D01*
Y1505D01*
X2740Y1360D02*
X2710D01*
Y1375D01*
X2715Y1380D01*
X2725D01*
X2730Y1375D01*
Y1360D01*
Y1370D02*
X2740Y1380D01*
X2710Y1410D02*
X2715Y1400D01*
X2725Y1390D01*
X2735D01*
X2740Y1395D01*
Y1405D01*
X2735Y1410D01*
X2730D01*
X2725Y1405D01*
Y1390D01*
X2740Y1420D02*
Y1430D01*
Y1425D01*
X2710D01*
X2715Y1420D01*
X2740Y1145D02*
X2710D01*
Y1160D01*
X2715Y1165D01*
X2725D01*
X2730Y1160D01*
Y1145D01*
Y1155D02*
X2740Y1165D01*
X2710Y1195D02*
X2715Y1185D01*
X2725Y1175D01*
X2735D01*
X2740Y1180D01*
Y1190D01*
X2735Y1195D01*
X2730D01*
X2725Y1190D01*
Y1175D01*
X2715Y1205D02*
X2710Y1210D01*
Y1220D01*
X2715Y1225D01*
X2735D01*
X2740Y1220D01*
Y1210D01*
X2735Y1205D01*
X2715D01*
X1465Y1100D02*
Y1075D01*
X1470Y1070D01*
X1480D01*
X1485Y1075D01*
Y1100D01*
X1515Y1070D02*
X1495D01*
X1515Y1090D01*
Y1095D01*
X1510Y1100D01*
X1500D01*
X1495Y1095D01*
X2245Y410D02*
Y395D01*
X2250Y390D01*
X2265D01*
Y410D01*
X2275Y395D02*
X2280Y390D01*
X2290D01*
X2295Y395D01*
Y415D01*
X2290Y420D01*
X2280D01*
X2275Y415D01*
Y410D01*
X2280Y405D01*
X2295D01*
X470Y1840D02*
Y1815D01*
X475Y1810D01*
X485D01*
X490Y1815D01*
Y1840D01*
X500D02*
X520D01*
Y1835D01*
X500Y1815D01*
Y1810D01*
X355Y1180D02*
Y1155D01*
X360Y1150D01*
X370D01*
X375Y1155D01*
Y1180D01*
X405D02*
X395Y1175D01*
X385Y1165D01*
Y1155D01*
X390Y1150D01*
X400D01*
X405Y1155D01*
Y1160D01*
X400Y1165D01*
X385D01*
X675Y500D02*
Y475D01*
X680Y470D01*
X690D01*
X695Y475D01*
Y500D01*
X725D02*
X705D01*
Y485D01*
X715Y490D01*
X720D01*
X725Y485D01*
Y475D01*
X720Y470D01*
X710D01*
X705Y475D01*
X755Y315D02*
Y290D01*
X760Y285D01*
X770D01*
X775Y290D01*
Y315D01*
X785Y310D02*
X790Y315D01*
X800D01*
X805Y310D01*
Y305D01*
X800Y300D01*
X795D01*
X800D01*
X805Y295D01*
Y290D01*
X800Y285D01*
X790D01*
X785Y290D01*
X1745Y275D02*
Y250D01*
X1750Y245D01*
X1760D01*
X1765Y250D01*
Y275D01*
X1775Y245D02*
X1785D01*
X1780D01*
Y275D01*
X1775Y270D01*
X45Y450D02*
X40Y455D01*
X30D01*
X25Y450D01*
Y445D01*
X30Y440D01*
X40D01*
X45Y435D01*
Y430D01*
X40Y425D01*
X30D01*
X25Y430D01*
X55Y455D02*
Y425D01*
X65Y435D01*
X75Y425D01*
Y455D01*
X100Y425D02*
Y455D01*
X85Y440D01*
X105D01*
X440Y200D02*
X435Y195D01*
Y185D01*
X440Y180D01*
X445D01*
X450Y185D01*
Y195D01*
X455Y200D01*
X460D01*
X465Y195D01*
Y185D01*
X460Y180D01*
X435Y210D02*
X465D01*
X455Y220D01*
X465Y230D01*
X435D01*
X440Y240D02*
X435Y245D01*
Y255D01*
X440Y260D01*
X445D01*
X450Y255D01*
Y250D01*
Y255D01*
X455Y260D01*
X460D01*
X465Y255D01*
Y245D01*
X460Y240D01*
X2875Y930D02*
X2870Y935D01*
X2860D01*
X2855Y930D01*
Y925D01*
X2860Y920D01*
X2870D01*
X2875Y915D01*
Y910D01*
X2870Y905D01*
X2860D01*
X2855Y910D01*
X2885Y935D02*
Y905D01*
X2895Y915D01*
X2905Y905D01*
Y935D01*
X2915Y905D02*
X2925D01*
X2920D01*
Y935D01*
X2915Y930D01*
X1195Y550D02*
X1165D01*
Y565D01*
X1170Y570D01*
X1180D01*
X1185Y565D01*
Y550D01*
Y560D02*
X1195Y570D01*
X1165Y600D02*
Y580D01*
X1180D01*
X1175Y590D01*
Y595D01*
X1180Y600D01*
X1190D01*
X1195Y595D01*
Y585D01*
X1190Y580D01*
Y610D02*
X1195Y615D01*
Y625D01*
X1190Y630D01*
X1170D01*
X1165Y625D01*
Y615D01*
X1170Y610D01*
X1175D01*
X1180Y615D01*
Y630D01*
X160Y460D02*
Y490D01*
X175D01*
X180Y485D01*
Y475D01*
X175Y470D01*
X160D01*
X170D02*
X180Y460D01*
X210Y490D02*
X190D01*
Y475D01*
X200Y480D01*
X205D01*
X210Y475D01*
Y465D01*
X205Y460D01*
X195D01*
X190Y465D01*
X220Y485D02*
X225Y490D01*
X235D01*
X240Y485D01*
Y480D01*
X235Y475D01*
X240Y470D01*
Y465D01*
X235Y460D01*
X225D01*
X220Y465D01*
Y470D01*
X225Y475D01*
X220Y480D01*
Y485D01*
X225Y475D02*
X235D01*
X905Y1640D02*
Y1670D01*
X920D01*
X925Y1665D01*
Y1655D01*
X920Y1650D01*
X905D01*
X915D02*
X925Y1640D01*
X955Y1670D02*
X935D01*
Y1655D01*
X945Y1660D01*
X950D01*
X955Y1655D01*
Y1645D01*
X950Y1640D01*
X940D01*
X935Y1645D01*
X980Y1640D02*
Y1670D01*
X965Y1655D01*
X985D01*
X905Y1695D02*
Y1725D01*
X920D01*
X925Y1720D01*
Y1710D01*
X920Y1705D01*
X905D01*
X915D02*
X925Y1695D01*
X955Y1725D02*
X935D01*
Y1710D01*
X945Y1715D01*
X950D01*
X955Y1710D01*
Y1700D01*
X950Y1695D01*
X940D01*
X935Y1700D01*
X985Y1695D02*
X965D01*
X985Y1715D01*
Y1720D01*
X980Y1725D01*
X970D01*
X965Y1720D01*
X905Y1750D02*
Y1780D01*
X920D01*
X925Y1775D01*
Y1765D01*
X920Y1760D01*
X905D01*
X915D02*
X925Y1750D01*
X955Y1780D02*
X935D01*
Y1765D01*
X945Y1770D01*
X950D01*
X955Y1765D01*
Y1755D01*
X950Y1750D01*
X940D01*
X935Y1755D01*
X965Y1750D02*
X975D01*
X970D01*
Y1780D01*
X965Y1775D01*
X760Y1170D02*
Y1200D01*
X775D01*
X780Y1195D01*
Y1185D01*
X775Y1180D01*
X760D01*
X770D02*
X780Y1170D01*
X810Y1200D02*
X790D01*
Y1185D01*
X800Y1190D01*
X805D01*
X810Y1185D01*
Y1175D01*
X805Y1170D01*
X795D01*
X790Y1175D01*
X840Y1200D02*
X820D01*
Y1185D01*
X830Y1190D01*
X835D01*
X840Y1185D01*
Y1175D01*
X835Y1170D01*
X825D01*
X820Y1175D01*
X760Y1235D02*
Y1265D01*
X775D01*
X780Y1260D01*
Y1250D01*
X775Y1245D01*
X760D01*
X770D02*
X780Y1235D01*
X810Y1265D02*
X790D01*
Y1250D01*
X800Y1255D01*
X805D01*
X810Y1250D01*
Y1240D01*
X805Y1235D01*
X795D01*
X790Y1240D01*
X820Y1260D02*
X825Y1265D01*
X835D01*
X840Y1260D01*
Y1255D01*
X835Y1250D01*
X830D01*
X835D01*
X840Y1245D01*
Y1240D01*
X835Y1235D01*
X825D01*
X820Y1240D01*
X790Y1280D02*
Y1310D01*
X805D01*
X810Y1305D01*
Y1295D01*
X805Y1290D01*
X790D01*
X800D02*
X810Y1280D01*
X840Y1310D02*
X820D01*
Y1295D01*
X830Y1300D01*
X835D01*
X840Y1295D01*
Y1285D01*
X835Y1280D01*
X825D01*
X820Y1285D01*
X850Y1305D02*
X855Y1310D01*
X865D01*
X870Y1305D01*
Y1285D01*
X865Y1280D01*
X855D01*
X850Y1285D01*
Y1305D01*
X305Y875D02*
Y905D01*
X320D01*
X325Y900D01*
Y890D01*
X320Y885D01*
X305D01*
X315D02*
X325Y875D01*
X350D02*
Y905D01*
X335Y890D01*
X355D01*
X365Y880D02*
X370Y875D01*
X380D01*
X385Y880D01*
Y900D01*
X380Y905D01*
X370D01*
X365Y900D01*
Y895D01*
X370Y890D01*
X385D01*
X305Y835D02*
Y865D01*
X320D01*
X325Y860D01*
Y850D01*
X320Y845D01*
X305D01*
X315D02*
X325Y835D01*
X350D02*
Y865D01*
X335Y850D01*
X355D01*
X365Y860D02*
X370Y865D01*
X380D01*
X385Y860D01*
Y855D01*
X380Y850D01*
X385Y845D01*
Y840D01*
X380Y835D01*
X370D01*
X365Y840D01*
Y845D01*
X370Y850D01*
X365Y855D01*
Y860D01*
X370Y850D02*
X380D01*
X305Y790D02*
Y820D01*
X320D01*
X325Y815D01*
Y805D01*
X320Y800D01*
X305D01*
X315D02*
X325Y790D01*
X350D02*
Y820D01*
X335Y805D01*
X355D01*
X365Y820D02*
X385D01*
Y815D01*
X365Y795D01*
Y790D01*
X750Y75D02*
Y105D01*
X765D01*
X770Y100D01*
Y90D01*
X765Y85D01*
X750D01*
X760D02*
X770Y75D01*
X780Y100D02*
X785Y105D01*
X795D01*
X800Y100D01*
Y95D01*
X795Y90D01*
X790D01*
X795D01*
X800Y85D01*
Y80D01*
X795Y75D01*
X785D01*
X780Y80D01*
X810Y100D02*
X815Y105D01*
X825D01*
X830Y100D01*
Y95D01*
X825Y90D01*
X820D01*
X825D01*
X830Y85D01*
Y80D01*
X825Y75D01*
X815D01*
X810Y80D01*
X2980Y1870D02*
Y1900D01*
X2995D01*
X3000Y1895D01*
Y1885D01*
X2995Y1880D01*
X2980D01*
X2990D02*
X3000Y1870D01*
X3010Y1895D02*
X3015Y1900D01*
X3025D01*
X3030Y1895D01*
Y1890D01*
X3025Y1885D01*
X3020D01*
X3025D01*
X3030Y1880D01*
Y1875D01*
X3025Y1870D01*
X3015D01*
X3010Y1875D01*
X3060Y1870D02*
X3040D01*
X3060Y1890D01*
Y1895D01*
X3055Y1900D01*
X3045D01*
X3040Y1895D01*
X2980Y1950D02*
Y1980D01*
X2995D01*
X3000Y1975D01*
Y1965D01*
X2995Y1960D01*
X2980D01*
X2990D02*
X3000Y1950D01*
X3010Y1975D02*
X3015Y1980D01*
X3025D01*
X3030Y1975D01*
Y1970D01*
X3025Y1965D01*
X3020D01*
X3025D01*
X3030Y1960D01*
Y1955D01*
X3025Y1950D01*
X3015D01*
X3010Y1955D01*
X3040Y1950D02*
X3050D01*
X3045D01*
Y1980D01*
X3040Y1975D01*
X2980Y2030D02*
Y2060D01*
X2995D01*
X3000Y2055D01*
Y2045D01*
X2995Y2040D01*
X2980D01*
X2990D02*
X3000Y2030D01*
X3010Y2055D02*
X3015Y2060D01*
X3025D01*
X3030Y2055D01*
Y2050D01*
X3025Y2045D01*
X3020D01*
X3025D01*
X3030Y2040D01*
Y2035D01*
X3025Y2030D01*
X3015D01*
X3010Y2035D01*
X3040Y2055D02*
X3045Y2060D01*
X3055D01*
X3060Y2055D01*
Y2035D01*
X3055Y2030D01*
X3045D01*
X3040Y2035D01*
Y2055D01*
X1285Y1295D02*
X1255D01*
Y1310D01*
X1260Y1315D01*
X1270D01*
X1275Y1310D01*
Y1295D01*
Y1305D02*
X1285Y1315D01*
Y1345D02*
Y1325D01*
X1265Y1345D01*
X1260D01*
X1255Y1340D01*
Y1330D01*
X1260Y1325D01*
X1280Y1355D02*
X1285Y1360D01*
Y1370D01*
X1280Y1375D01*
X1260D01*
X1255Y1370D01*
Y1360D01*
X1260Y1355D01*
X1265D01*
X1270Y1360D01*
Y1375D01*
X2980Y1830D02*
Y1860D01*
X2995D01*
X3000Y1855D01*
Y1845D01*
X2995Y1840D01*
X2980D01*
X2990D02*
X3000Y1830D01*
X3030D02*
X3010D01*
X3030Y1850D01*
Y1855D01*
X3025Y1860D01*
X3015D01*
X3010Y1855D01*
X3040D02*
X3045Y1860D01*
X3055D01*
X3060Y1855D01*
Y1850D01*
X3055Y1845D01*
X3060Y1840D01*
Y1835D01*
X3055Y1830D01*
X3045D01*
X3040Y1835D01*
Y1840D01*
X3045Y1845D01*
X3040Y1850D01*
Y1855D01*
X3045Y1845D02*
X3055D01*
X2980Y1910D02*
Y1940D01*
X2995D01*
X3000Y1935D01*
Y1925D01*
X2995Y1920D01*
X2980D01*
X2990D02*
X3000Y1910D01*
X3030D02*
X3010D01*
X3030Y1930D01*
Y1935D01*
X3025Y1940D01*
X3015D01*
X3010Y1935D01*
X3040Y1940D02*
X3060D01*
Y1935D01*
X3040Y1915D01*
Y1910D01*
X2980Y1990D02*
Y2020D01*
X2995D01*
X3000Y2015D01*
Y2005D01*
X2995Y2000D01*
X2980D01*
X2990D02*
X3000Y1990D01*
X3030D02*
X3010D01*
X3030Y2010D01*
Y2015D01*
X3025Y2020D01*
X3015D01*
X3010Y2015D01*
X3060Y2020D02*
X3050Y2015D01*
X3040Y2005D01*
Y1995D01*
X3045Y1990D01*
X3055D01*
X3060Y1995D01*
Y2000D01*
X3055Y2005D01*
X3040D01*
X1250Y1295D02*
X1220D01*
Y1310D01*
X1225Y1315D01*
X1235D01*
X1240Y1310D01*
Y1295D01*
Y1305D02*
X1250Y1315D01*
Y1345D02*
Y1325D01*
X1230Y1345D01*
X1225D01*
X1220Y1340D01*
Y1330D01*
X1225Y1325D01*
X1220Y1375D02*
Y1355D01*
X1235D01*
X1230Y1365D01*
Y1370D01*
X1235Y1375D01*
X1245D01*
X1250Y1370D01*
Y1360D01*
X1245Y1355D01*
X1215Y1295D02*
X1185D01*
Y1310D01*
X1190Y1315D01*
X1200D01*
X1205Y1310D01*
Y1295D01*
Y1305D02*
X1215Y1315D01*
Y1345D02*
Y1325D01*
X1195Y1345D01*
X1190D01*
X1185Y1340D01*
Y1330D01*
X1190Y1325D01*
X1215Y1370D02*
X1185D01*
X1200Y1355D01*
Y1375D01*
X1180Y1295D02*
X1150D01*
Y1310D01*
X1155Y1315D01*
X1165D01*
X1170Y1310D01*
Y1295D01*
Y1305D02*
X1180Y1315D01*
Y1345D02*
Y1325D01*
X1160Y1345D01*
X1155D01*
X1150Y1340D01*
Y1330D01*
X1155Y1325D01*
Y1355D02*
X1150Y1360D01*
Y1370D01*
X1155Y1375D01*
X1160D01*
X1165Y1370D01*
Y1365D01*
Y1370D01*
X1170Y1375D01*
X1175D01*
X1180Y1370D01*
Y1360D01*
X1175Y1355D01*
X1145Y1295D02*
X1115D01*
Y1310D01*
X1120Y1315D01*
X1130D01*
X1135Y1310D01*
Y1295D01*
Y1305D02*
X1145Y1315D01*
Y1345D02*
Y1325D01*
X1125Y1345D01*
X1120D01*
X1115Y1340D01*
Y1330D01*
X1120Y1325D01*
X1145Y1375D02*
Y1355D01*
X1125Y1375D01*
X1120D01*
X1115Y1370D01*
Y1360D01*
X1120Y1355D01*
X1110Y1295D02*
X1080D01*
Y1310D01*
X1085Y1315D01*
X1095D01*
X1100Y1310D01*
Y1295D01*
Y1305D02*
X1110Y1315D01*
Y1345D02*
Y1325D01*
X1090Y1345D01*
X1085D01*
X1080Y1340D01*
Y1330D01*
X1085Y1325D01*
X1110Y1355D02*
Y1365D01*
Y1360D01*
X1080D01*
X1085Y1355D01*
X1075Y1295D02*
X1045D01*
Y1310D01*
X1050Y1315D01*
X1060D01*
X1065Y1310D01*
Y1295D01*
Y1305D02*
X1075Y1315D01*
Y1345D02*
Y1325D01*
X1055Y1345D01*
X1050D01*
X1045Y1340D01*
Y1330D01*
X1050Y1325D01*
Y1355D02*
X1045Y1360D01*
Y1370D01*
X1050Y1375D01*
X1070D01*
X1075Y1370D01*
Y1360D01*
X1070Y1355D01*
X1050D01*
X1040Y1295D02*
X1010D01*
Y1310D01*
X1015Y1315D01*
X1025D01*
X1030Y1310D01*
Y1295D01*
Y1305D02*
X1040Y1315D01*
Y1325D02*
Y1335D01*
Y1330D01*
X1010D01*
X1015Y1325D01*
X1035Y1350D02*
X1040Y1355D01*
Y1365D01*
X1035Y1370D01*
X1015D01*
X1010Y1365D01*
Y1355D01*
X1015Y1350D01*
X1020D01*
X1025Y1355D01*
Y1370D01*
X1320Y1295D02*
X1290D01*
Y1310D01*
X1295Y1315D01*
X1305D01*
X1310Y1310D01*
Y1295D01*
Y1305D02*
X1320Y1315D01*
Y1325D02*
Y1335D01*
Y1330D01*
X1290D01*
X1295Y1325D01*
Y1350D02*
X1290Y1355D01*
Y1365D01*
X1295Y1370D01*
X1300D01*
X1305Y1365D01*
X1310Y1370D01*
X1315D01*
X1320Y1365D01*
Y1355D01*
X1315Y1350D01*
X1310D01*
X1305Y1355D01*
X1300Y1350D01*
X1295D01*
X1305Y1355D02*
Y1365D01*
X2170Y1355D02*
X2140D01*
Y1370D01*
X2145Y1375D01*
X2155D01*
X2160Y1370D01*
Y1355D01*
Y1365D02*
X2170Y1375D01*
Y1385D02*
Y1395D01*
Y1390D01*
X2140D01*
X2145Y1385D01*
X2140Y1410D02*
Y1430D01*
X2145D01*
X2165Y1410D01*
X2170D01*
X2210Y1355D02*
X2180D01*
Y1370D01*
X2185Y1375D01*
X2195D01*
X2200Y1370D01*
Y1355D01*
Y1365D02*
X2210Y1375D01*
Y1385D02*
Y1395D01*
Y1390D01*
X2180D01*
X2185Y1385D01*
X2180Y1430D02*
X2185Y1420D01*
X2195Y1410D01*
X2205D01*
X2210Y1415D01*
Y1425D01*
X2205Y1430D01*
X2200D01*
X2195Y1425D01*
Y1410D01*
X2030Y1160D02*
X2000D01*
Y1175D01*
X2005Y1180D01*
X2015D01*
X2020Y1175D01*
Y1160D01*
Y1170D02*
X2030Y1180D01*
Y1190D02*
Y1200D01*
Y1195D01*
X2000D01*
X2005Y1190D01*
X2030Y1215D02*
Y1225D01*
Y1220D01*
X2000D01*
X2005Y1215D01*
X2070Y1160D02*
X2040D01*
Y1175D01*
X2045Y1180D01*
X2055D01*
X2060Y1175D01*
Y1160D01*
Y1170D02*
X2070Y1180D01*
Y1190D02*
Y1200D01*
Y1195D01*
X2040D01*
X2045Y1190D01*
X2040Y1235D02*
Y1215D01*
X2055D01*
X2050Y1225D01*
Y1230D01*
X2055Y1235D01*
X2065D01*
X2070Y1230D01*
Y1220D01*
X2065Y1215D01*
X780Y925D02*
Y955D01*
X795D01*
X800Y950D01*
Y940D01*
X795Y935D01*
X780D01*
X790D02*
X800Y925D01*
X810D02*
X820D01*
X815D01*
Y955D01*
X810Y950D01*
X850Y925D02*
Y955D01*
X835Y940D01*
X855D01*
X2110Y1160D02*
X2080D01*
Y1175D01*
X2085Y1180D01*
X2095D01*
X2100Y1175D01*
Y1160D01*
Y1170D02*
X2110Y1180D01*
Y1190D02*
Y1200D01*
Y1195D01*
X2080D01*
X2085Y1190D01*
Y1215D02*
X2080Y1220D01*
Y1230D01*
X2085Y1235D01*
X2090D01*
X2095Y1230D01*
Y1225D01*
Y1230D01*
X2100Y1235D01*
X2105D01*
X2110Y1230D01*
Y1220D01*
X2105Y1215D01*
X780Y970D02*
Y1000D01*
X795D01*
X800Y995D01*
Y985D01*
X795Y980D01*
X780D01*
X790D02*
X800Y970D01*
X810D02*
X820D01*
X815D01*
Y1000D01*
X810Y995D01*
X855Y970D02*
X835D01*
X855Y990D01*
Y995D01*
X850Y1000D01*
X840D01*
X835Y995D01*
X2980Y2070D02*
Y2100D01*
X2995D01*
X3000Y2095D01*
Y2085D01*
X2995Y2080D01*
X2980D01*
X2990D02*
X3000Y2070D01*
X3010Y2095D02*
X3015Y2100D01*
X3025D01*
X3030Y2095D01*
Y2090D01*
X3025Y2085D01*
X3030Y2080D01*
Y2075D01*
X3025Y2070D01*
X3015D01*
X3010Y2075D01*
Y2080D01*
X3015Y2085D01*
X3010Y2090D01*
Y2095D01*
X3015Y2085D02*
X3025D01*
X2980Y2110D02*
Y2140D01*
X2995D01*
X3000Y2135D01*
Y2125D01*
X2995Y2120D01*
X2980D01*
X2990D02*
X3000Y2110D01*
X3010Y2140D02*
X3030D01*
Y2135D01*
X3010Y2115D01*
Y2110D01*
X2980Y2150D02*
Y2180D01*
X2995D01*
X3000Y2175D01*
Y2165D01*
X2995Y2160D01*
X2980D01*
X2990D02*
X3000Y2150D01*
X3030Y2180D02*
X3020Y2175D01*
X3010Y2165D01*
Y2155D01*
X3015Y2150D01*
X3025D01*
X3030Y2155D01*
Y2160D01*
X3025Y2165D01*
X3010D01*
X2980Y1790D02*
Y1820D01*
X2995D01*
X3000Y1815D01*
Y1805D01*
X2995Y1800D01*
X2980D01*
X2990D02*
X3000Y1790D01*
X3030Y1820D02*
X3010D01*
Y1805D01*
X3020Y1810D01*
X3025D01*
X3030Y1805D01*
Y1795D01*
X3025Y1790D01*
X3015D01*
X3010Y1795D01*
X1560Y330D02*
X1530D01*
Y345D01*
X1535Y350D01*
X1545D01*
X1550Y345D01*
Y330D01*
Y340D02*
X1560Y350D01*
Y375D02*
X1530D01*
X1545Y360D01*
Y380D01*
X2655Y840D02*
Y870D01*
X2670D01*
X2675Y865D01*
Y855D01*
X2670Y850D01*
X2655D01*
X2665D02*
X2675Y840D01*
X2685Y865D02*
X2690Y870D01*
X2700D01*
X2705Y865D01*
Y860D01*
X2700Y855D01*
X2695D01*
X2700D01*
X2705Y850D01*
Y845D01*
X2700Y840D01*
X2690D01*
X2685Y845D01*
X2655Y795D02*
Y825D01*
X2670D01*
X2675Y820D01*
Y810D01*
X2670Y805D01*
X2655D01*
X2665D02*
X2675Y795D01*
X2705D02*
X2685D01*
X2705Y815D01*
Y820D01*
X2700Y825D01*
X2690D01*
X2685Y820D01*
X2655Y750D02*
Y780D01*
X2670D01*
X2675Y775D01*
Y765D01*
X2670Y760D01*
X2655D01*
X2665D02*
X2675Y750D01*
X2685D02*
X2695D01*
X2690D01*
Y780D01*
X2685Y775D01*
X2550Y630D02*
Y600D01*
X2570D01*
X2580D02*
X2590D01*
X2585D01*
Y630D01*
X2580Y625D01*
X2605D02*
X2610Y630D01*
X2620D01*
X2625Y625D01*
Y605D01*
X2620Y600D01*
X2610D01*
X2605Y605D01*
Y625D01*
X2550Y565D02*
Y535D01*
X2570D01*
X2580Y540D02*
X2585Y535D01*
X2595D01*
X2600Y540D01*
Y560D01*
X2595Y565D01*
X2585D01*
X2580Y560D01*
Y555D01*
X2585Y550D01*
X2600D01*
X2250Y150D02*
Y120D01*
X2270D01*
X2280Y150D02*
X2300D01*
Y145D01*
X2280Y125D01*
Y120D01*
X1255Y1145D02*
Y1115D01*
X1275D01*
X1305Y1145D02*
X1295Y1140D01*
X1285Y1130D01*
Y1120D01*
X1290Y1115D01*
X1300D01*
X1305Y1120D01*
Y1125D01*
X1300Y1130D01*
X1285D01*
X2025Y105D02*
Y75D01*
X2045D01*
X2075D02*
X2055D01*
X2075Y95D01*
Y100D01*
X2070Y105D01*
X2060D01*
X2055Y100D01*
X1380Y245D02*
Y215D01*
X1400D01*
X1410D02*
X1420D01*
X1415D01*
Y245D01*
X1410Y240D01*
X2330Y1220D02*
Y1190D01*
Y1200D01*
X2350Y1220D01*
X2335Y1205D01*
X2350Y1190D01*
X2360Y1215D02*
X2365Y1220D01*
X2375D01*
X2380Y1215D01*
Y1210D01*
X2375Y1205D01*
X2370D01*
X2375D01*
X2380Y1200D01*
Y1195D01*
X2375Y1190D01*
X2365D01*
X2360Y1195D01*
X2330Y1120D02*
Y1090D01*
Y1100D01*
X2350Y1120D01*
X2335Y1105D01*
X2350Y1090D01*
X2380D02*
X2360D01*
X2380Y1110D01*
Y1115D01*
X2375Y1120D01*
X2365D01*
X2360Y1115D01*
X2340Y1015D02*
Y985D01*
Y995D01*
X2360Y1015D01*
X2345Y1000D01*
X2360Y985D01*
X2370D02*
X2380D01*
X2375D01*
Y1015D01*
X2370Y1010D01*
X1580Y205D02*
X1570D01*
X1575D01*
Y180D01*
X1570Y175D01*
X1565D01*
X1560Y180D01*
X1590Y175D02*
X1600D01*
X1595D01*
Y205D01*
X1590Y200D01*
X2230Y535D02*
X2225Y540D01*
X2215D01*
X2210Y535D01*
Y515D01*
X2215Y510D01*
X2225D01*
X2230Y515D01*
X2240Y535D02*
X2245Y540D01*
X2255D01*
X2260Y535D01*
Y530D01*
X2255Y525D01*
X2260Y520D01*
Y515D01*
X2255Y510D01*
X2245D01*
X2240Y515D01*
Y520D01*
X2245Y525D01*
X2240Y530D01*
Y535D01*
X2245Y525D02*
X2255D01*
X2270Y510D02*
X2280D01*
X2275D01*
Y540D01*
X2270Y535D01*
X1955Y400D02*
X1950Y405D01*
X1940D01*
X1935Y400D01*
Y380D01*
X1940Y375D01*
X1950D01*
X1955Y380D01*
X1965Y400D02*
X1970Y405D01*
X1980D01*
X1985Y400D01*
Y395D01*
X1980Y390D01*
X1985Y385D01*
Y380D01*
X1980Y375D01*
X1970D01*
X1965Y380D01*
Y385D01*
X1970Y390D01*
X1965Y395D01*
Y400D01*
X1970Y390D02*
X1980D01*
X1995Y400D02*
X2000Y405D01*
X2010D01*
X2015Y400D01*
Y380D01*
X2010Y375D01*
X2000D01*
X1995Y380D01*
Y400D01*
X1180Y300D02*
X1175Y305D01*
X1165D01*
X1160Y300D01*
Y280D01*
X1165Y275D01*
X1175D01*
X1180Y280D01*
X1190Y305D02*
X1210D01*
Y300D01*
X1190Y280D01*
Y275D01*
X1220Y280D02*
X1225Y275D01*
X1235D01*
X1240Y280D01*
Y300D01*
X1235Y305D01*
X1225D01*
X1220Y300D01*
Y295D01*
X1225Y290D01*
X1240D01*
X180Y530D02*
X175Y535D01*
X165D01*
X160Y530D01*
Y510D01*
X165Y505D01*
X175D01*
X180Y510D01*
X190Y535D02*
X210D01*
Y530D01*
X190Y510D01*
Y505D01*
X220Y530D02*
X225Y535D01*
X235D01*
X240Y530D01*
Y525D01*
X235Y520D01*
X240Y515D01*
Y510D01*
X235Y505D01*
X225D01*
X220Y510D01*
Y515D01*
X225Y520D01*
X220Y525D01*
Y530D01*
X225Y520D02*
X235D01*
X635Y1555D02*
X630Y1560D01*
X620D01*
X615Y1555D01*
Y1535D01*
X620Y1530D01*
X630D01*
X635Y1535D01*
X645Y1560D02*
X665D01*
Y1555D01*
X645Y1535D01*
Y1530D01*
X695D02*
X675D01*
X695Y1550D01*
Y1555D01*
X690Y1560D01*
X680D01*
X675Y1555D01*
X235Y1680D02*
X230Y1675D01*
Y1665D01*
X235Y1660D01*
X255D01*
X260Y1665D01*
Y1675D01*
X255Y1680D01*
X230Y1710D02*
X235Y1700D01*
X245Y1690D01*
X255D01*
X260Y1695D01*
Y1705D01*
X255Y1710D01*
X250D01*
X245Y1705D01*
Y1690D01*
X235Y1720D02*
X230Y1725D01*
Y1735D01*
X235Y1740D01*
X240D01*
X245Y1735D01*
X250Y1740D01*
X255D01*
X260Y1735D01*
Y1725D01*
X255Y1720D01*
X250D01*
X245Y1725D01*
X240Y1720D01*
X235D01*
X245Y1725D02*
Y1735D01*
X575Y1140D02*
X570Y1145D01*
X560D01*
X555Y1140D01*
Y1120D01*
X560Y1115D01*
X570D01*
X575Y1120D01*
X585Y1145D02*
X605D01*
Y1140D01*
X585Y1120D01*
Y1115D01*
X615Y1140D02*
X620Y1145D01*
X630D01*
X635Y1140D01*
Y1135D01*
X630Y1130D01*
X625D01*
X630D01*
X635Y1125D01*
Y1120D01*
X630Y1115D01*
X620D01*
X615Y1120D01*
X810Y1350D02*
X805Y1355D01*
X795D01*
X790Y1350D01*
Y1330D01*
X795Y1325D01*
X805D01*
X810Y1330D01*
X820Y1355D02*
X840D01*
Y1350D01*
X820Y1330D01*
Y1325D01*
X850D02*
X860D01*
X855D01*
Y1355D01*
X850Y1350D01*
X325Y1365D02*
X320Y1370D01*
X310D01*
X305Y1365D01*
Y1345D01*
X310Y1340D01*
X320D01*
X325Y1345D01*
X335Y1370D02*
X355D01*
Y1365D01*
X335Y1345D01*
Y1340D01*
X365Y1365D02*
X370Y1370D01*
X380D01*
X385Y1365D01*
Y1345D01*
X380Y1340D01*
X370D01*
X365Y1345D01*
Y1365D01*
X325Y1410D02*
X320Y1415D01*
X310D01*
X305Y1410D01*
Y1390D01*
X310Y1385D01*
X320D01*
X325Y1390D01*
X355Y1415D02*
X345Y1410D01*
X335Y1400D01*
Y1390D01*
X340Y1385D01*
X350D01*
X355Y1390D01*
Y1395D01*
X350Y1400D01*
X335D01*
X365Y1415D02*
X385D01*
Y1410D01*
X365Y1390D01*
Y1385D01*
X2890Y1885D02*
X2885Y1890D01*
X2875D01*
X2870Y1885D01*
Y1865D01*
X2875Y1860D01*
X2885D01*
X2890Y1865D01*
X2920Y1890D02*
X2910Y1885D01*
X2900Y1875D01*
Y1865D01*
X2905Y1860D01*
X2915D01*
X2920Y1865D01*
Y1870D01*
X2915Y1875D01*
X2900D01*
X2950Y1890D02*
X2940Y1885D01*
X2930Y1875D01*
Y1865D01*
X2935Y1860D01*
X2945D01*
X2950Y1865D01*
Y1870D01*
X2945Y1875D01*
X2930D01*
X2890Y1845D02*
X2885Y1850D01*
X2875D01*
X2870Y1845D01*
Y1825D01*
X2875Y1820D01*
X2885D01*
X2890Y1825D01*
X2920Y1850D02*
X2910Y1845D01*
X2900Y1835D01*
Y1825D01*
X2905Y1820D01*
X2915D01*
X2920Y1825D01*
Y1830D01*
X2915Y1835D01*
X2900D01*
X2950Y1850D02*
X2930D01*
Y1835D01*
X2940Y1840D01*
X2945D01*
X2950Y1835D01*
Y1825D01*
X2945Y1820D01*
X2935D01*
X2930Y1825D01*
X2065Y815D02*
X2060Y820D01*
X2050D01*
X2045Y815D01*
Y795D01*
X2050Y790D01*
X2060D01*
X2065Y795D01*
X2095Y820D02*
X2085Y815D01*
X2075Y805D01*
Y795D01*
X2080Y790D01*
X2090D01*
X2095Y795D01*
Y800D01*
X2090Y805D01*
X2075D01*
X2120Y790D02*
Y820D01*
X2105Y805D01*
X2125D01*
X2085Y955D02*
X2080Y960D01*
X2070D01*
X2065Y955D01*
Y935D01*
X2070Y930D01*
X2080D01*
X2085Y935D01*
X2115Y960D02*
X2105Y955D01*
X2095Y945D01*
Y935D01*
X2100Y930D01*
X2110D01*
X2115Y935D01*
Y940D01*
X2110Y945D01*
X2095D01*
X2125Y955D02*
X2130Y960D01*
X2140D01*
X2145Y955D01*
Y950D01*
X2140Y945D01*
X2135D01*
X2140D01*
X2145Y940D01*
Y935D01*
X2140Y930D01*
X2130D01*
X2125Y935D01*
X2890Y2005D02*
X2885Y2010D01*
X2875D01*
X2870Y2005D01*
Y1985D01*
X2875Y1980D01*
X2885D01*
X2890Y1985D01*
X2920Y2010D02*
X2910Y2005D01*
X2900Y1995D01*
Y1985D01*
X2905Y1980D01*
X2915D01*
X2920Y1985D01*
Y1990D01*
X2915Y1995D01*
X2900D01*
X2950Y1980D02*
X2930D01*
X2950Y2000D01*
Y2005D01*
X2945Y2010D01*
X2935D01*
X2930Y2005D01*
X2890Y2045D02*
X2885Y2050D01*
X2875D01*
X2870Y2045D01*
Y2025D01*
X2875Y2020D01*
X2885D01*
X2890Y2025D01*
X2920Y2050D02*
X2910Y2045D01*
X2900Y2035D01*
Y2025D01*
X2905Y2020D01*
X2915D01*
X2920Y2025D01*
Y2030D01*
X2915Y2035D01*
X2900D01*
X2930Y2020D02*
X2940D01*
X2935D01*
Y2050D01*
X2930Y2045D01*
X975Y1000D02*
X970Y1005D01*
X960D01*
X955Y1000D01*
Y980D01*
X960Y975D01*
X970D01*
X975Y980D01*
X1005Y1005D02*
X995Y1000D01*
X985Y990D01*
Y980D01*
X990Y975D01*
X1000D01*
X1005Y980D01*
Y985D01*
X1000Y990D01*
X985D01*
X1015Y1000D02*
X1020Y1005D01*
X1030D01*
X1035Y1000D01*
Y980D01*
X1030Y975D01*
X1020D01*
X1015Y980D01*
Y1000D01*
X1730Y1110D02*
X1725Y1105D01*
Y1095D01*
X1730Y1090D01*
X1750D01*
X1755Y1095D01*
Y1105D01*
X1750Y1110D01*
X1725Y1140D02*
Y1120D01*
X1740D01*
X1735Y1130D01*
Y1135D01*
X1740Y1140D01*
X1750D01*
X1755Y1135D01*
Y1125D01*
X1750Y1120D01*
Y1150D02*
X1755Y1155D01*
Y1165D01*
X1750Y1170D01*
X1730D01*
X1725Y1165D01*
Y1155D01*
X1730Y1150D01*
X1735D01*
X1740Y1155D01*
Y1170D01*
X1225Y940D02*
X1220Y945D01*
X1210D01*
X1205Y940D01*
Y920D01*
X1210Y915D01*
X1220D01*
X1225Y920D01*
X1255Y945D02*
X1235D01*
Y930D01*
X1245Y935D01*
X1250D01*
X1255Y930D01*
Y920D01*
X1250Y915D01*
X1240D01*
X1235Y920D01*
X1265Y940D02*
X1270Y945D01*
X1280D01*
X1285Y940D01*
Y935D01*
X1280Y930D01*
X1285Y925D01*
Y920D01*
X1280Y915D01*
X1270D01*
X1265Y920D01*
Y925D01*
X1270Y930D01*
X1265Y935D01*
Y940D01*
X1270Y930D02*
X1280D01*
X2535Y685D02*
X2530Y690D01*
X2520D01*
X2515Y685D01*
Y665D01*
X2520Y660D01*
X2530D01*
X2535Y665D01*
X2565Y690D02*
X2545D01*
Y675D01*
X2555Y680D01*
X2560D01*
X2565Y675D01*
Y665D01*
X2560Y660D01*
X2550D01*
X2545Y665D01*
X2575Y690D02*
X2595D01*
Y685D01*
X2575Y665D01*
Y660D01*
X2890Y1925D02*
X2885Y1930D01*
X2875D01*
X2870Y1925D01*
Y1905D01*
X2875Y1900D01*
X2885D01*
X2890Y1905D01*
X2920Y1930D02*
X2900D01*
Y1915D01*
X2910Y1920D01*
X2915D01*
X2920Y1915D01*
Y1905D01*
X2915Y1900D01*
X2905D01*
X2900Y1905D01*
X2950Y1930D02*
X2940Y1925D01*
X2930Y1915D01*
Y1905D01*
X2935Y1900D01*
X2945D01*
X2950Y1905D01*
Y1910D01*
X2945Y1915D01*
X2930D01*
X2525Y500D02*
X2520Y505D01*
X2510D01*
X2505Y500D01*
Y480D01*
X2510Y475D01*
X2520D01*
X2525Y480D01*
X2555Y505D02*
X2535D01*
Y490D01*
X2545Y495D01*
X2550D01*
X2555Y490D01*
Y480D01*
X2550Y475D01*
X2540D01*
X2535Y480D01*
X2585Y505D02*
X2565D01*
Y490D01*
X2575Y495D01*
X2580D01*
X2585Y490D01*
Y480D01*
X2580Y475D01*
X2570D01*
X2565Y480D01*
X2890Y1805D02*
X2885Y1810D01*
X2875D01*
X2870Y1805D01*
Y1785D01*
X2875Y1780D01*
X2885D01*
X2890Y1785D01*
X2920Y1810D02*
X2900D01*
Y1795D01*
X2910Y1800D01*
X2915D01*
X2920Y1795D01*
Y1785D01*
X2915Y1780D01*
X2905D01*
X2900Y1785D01*
X2945Y1780D02*
Y1810D01*
X2930Y1795D01*
X2950D01*
X2260Y80D02*
X2255Y85D01*
X2245D01*
X2240Y80D01*
Y60D01*
X2245Y55D01*
X2255D01*
X2260Y60D01*
X2290Y85D02*
X2270D01*
Y70D01*
X2280Y75D01*
X2285D01*
X2290Y70D01*
Y60D01*
X2285Y55D01*
X2275D01*
X2270Y60D01*
X2300Y80D02*
X2305Y85D01*
X2315D01*
X2320Y80D01*
Y75D01*
X2315Y70D01*
X2310D01*
X2315D01*
X2320Y65D01*
Y60D01*
X2315Y55D01*
X2305D01*
X2300Y60D01*
X1580Y350D02*
X1575Y345D01*
Y335D01*
X1580Y330D01*
X1600D01*
X1605Y335D01*
Y345D01*
X1600Y350D01*
X1575Y380D02*
Y360D01*
X1590D01*
X1585Y370D01*
Y375D01*
X1590Y380D01*
X1600D01*
X1605Y375D01*
Y365D01*
X1600Y360D01*
X1605Y410D02*
Y390D01*
X1585Y410D01*
X1580D01*
X1575Y405D01*
Y395D01*
X1580Y390D01*
X2025Y575D02*
X2020Y580D01*
X2010D01*
X2005Y575D01*
Y555D01*
X2010Y550D01*
X2020D01*
X2025Y555D01*
X2055Y580D02*
X2035D01*
Y565D01*
X2045Y570D01*
X2050D01*
X2055Y565D01*
Y555D01*
X2050Y550D01*
X2040D01*
X2035Y555D01*
X2065Y550D02*
X2075D01*
X2070D01*
Y580D01*
X2065Y575D01*
X2025Y525D02*
X2020Y530D01*
X2010D01*
X2005Y525D01*
Y505D01*
X2010Y500D01*
X2020D01*
X2025Y505D01*
X2055Y530D02*
X2035D01*
Y515D01*
X2045Y520D01*
X2050D01*
X2055Y515D01*
Y505D01*
X2050Y500D01*
X2040D01*
X2035Y505D01*
X2065Y525D02*
X2070Y530D01*
X2080D01*
X2085Y525D01*
Y505D01*
X2080Y500D01*
X2070D01*
X2065Y505D01*
Y525D01*
X1240Y805D02*
X1235Y810D01*
X1225D01*
X1220Y805D01*
Y785D01*
X1225Y780D01*
X1235D01*
X1240Y785D01*
X1265Y780D02*
Y810D01*
X1250Y795D01*
X1270D01*
X1280Y785D02*
X1285Y780D01*
X1295D01*
X1300Y785D01*
Y805D01*
X1295Y810D01*
X1285D01*
X1280Y805D01*
Y800D01*
X1285Y795D01*
X1300D01*
X2890Y2085D02*
X2885Y2090D01*
X2875D01*
X2870Y2085D01*
Y2065D01*
X2875Y2060D01*
X2885D01*
X2890Y2065D01*
X2915Y2060D02*
Y2090D01*
X2900Y2075D01*
X2920D01*
X2930Y2085D02*
X2935Y2090D01*
X2945D01*
X2950Y2085D01*
Y2080D01*
X2945Y2075D01*
X2950Y2070D01*
Y2065D01*
X2945Y2060D01*
X2935D01*
X2930Y2065D01*
Y2070D01*
X2935Y2075D01*
X2930Y2080D01*
Y2085D01*
X2935Y2075D02*
X2945D01*
X2890Y1965D02*
X2885Y1970D01*
X2875D01*
X2870Y1965D01*
Y1945D01*
X2875Y1940D01*
X2885D01*
X2890Y1945D01*
X2915Y1940D02*
Y1970D01*
X2900Y1955D01*
X2920D01*
X2930Y1970D02*
X2950D01*
Y1965D01*
X2930Y1945D01*
Y1940D01*
X1225Y895D02*
X1220Y900D01*
X1210D01*
X1205Y895D01*
Y875D01*
X1210Y870D01*
X1220D01*
X1225Y875D01*
X1250Y870D02*
Y900D01*
X1235Y885D01*
X1255D01*
X1285Y900D02*
X1275Y895D01*
X1265Y885D01*
Y875D01*
X1270Y870D01*
X1280D01*
X1285Y875D01*
Y880D01*
X1280Y885D01*
X1265D01*
X1815Y1110D02*
X1810Y1105D01*
Y1095D01*
X1815Y1090D01*
X1835D01*
X1840Y1095D01*
Y1105D01*
X1835Y1110D01*
X1840Y1135D02*
X1810D01*
X1825Y1120D01*
Y1140D01*
X1810Y1170D02*
Y1150D01*
X1825D01*
X1820Y1160D01*
Y1165D01*
X1825Y1170D01*
X1835D01*
X1840Y1165D01*
Y1155D01*
X1835Y1150D01*
X1480Y610D02*
X1475Y615D01*
X1465D01*
X1460Y610D01*
Y590D01*
X1465Y585D01*
X1475D01*
X1480Y590D01*
X1505Y585D02*
Y615D01*
X1490Y600D01*
X1510D01*
X1535Y585D02*
Y615D01*
X1520Y600D01*
X1540D01*
X1225Y985D02*
X1220Y990D01*
X1210D01*
X1205Y985D01*
Y965D01*
X1210Y960D01*
X1220D01*
X1225Y965D01*
X1250Y960D02*
Y990D01*
X1235Y975D01*
X1255D01*
X1265Y985D02*
X1270Y990D01*
X1280D01*
X1285Y985D01*
Y980D01*
X1280Y975D01*
X1275D01*
X1280D01*
X1285Y970D01*
Y965D01*
X1280Y960D01*
X1270D01*
X1265Y965D01*
X1225Y1030D02*
X1220Y1035D01*
X1210D01*
X1205Y1030D01*
Y1010D01*
X1210Y1005D01*
X1220D01*
X1225Y1010D01*
X1250Y1005D02*
Y1035D01*
X1235Y1020D01*
X1255D01*
X1285Y1005D02*
X1265D01*
X1285Y1025D01*
Y1030D01*
X1280Y1035D01*
X1270D01*
X1265Y1030D01*
X1285Y660D02*
X1280Y665D01*
X1270D01*
X1265Y660D01*
Y640D01*
X1270Y635D01*
X1280D01*
X1285Y640D01*
X1310Y635D02*
Y665D01*
X1295Y650D01*
X1315D01*
X1325Y635D02*
X1335D01*
X1330D01*
Y665D01*
X1325Y660D01*
X1775Y1110D02*
X1770Y1105D01*
Y1095D01*
X1775Y1090D01*
X1795D01*
X1800Y1095D01*
Y1105D01*
X1795Y1110D01*
X1800Y1135D02*
X1770D01*
X1785Y1120D01*
Y1140D01*
X1775Y1150D02*
X1770Y1155D01*
Y1165D01*
X1775Y1170D01*
X1795D01*
X1800Y1165D01*
Y1155D01*
X1795Y1150D01*
X1775D01*
X1235Y715D02*
X1230Y720D01*
X1220D01*
X1215Y715D01*
Y695D01*
X1220Y690D01*
X1230D01*
X1235Y695D01*
X1245Y715D02*
X1250Y720D01*
X1260D01*
X1265Y715D01*
Y710D01*
X1260Y705D01*
X1255D01*
X1260D01*
X1265Y700D01*
Y695D01*
X1260Y690D01*
X1250D01*
X1245Y695D01*
X1275Y715D02*
X1280Y720D01*
X1290D01*
X1295Y715D01*
Y710D01*
X1290Y705D01*
X1295Y700D01*
Y695D01*
X1290Y690D01*
X1280D01*
X1275Y695D01*
Y700D01*
X1280Y705D01*
X1275Y710D01*
Y715D01*
X1280Y705D02*
X1290D01*
X1240Y755D02*
X1235Y760D01*
X1225D01*
X1220Y755D01*
Y735D01*
X1225Y730D01*
X1235D01*
X1240Y735D01*
X1250Y755D02*
X1255Y760D01*
X1265D01*
X1270Y755D01*
Y750D01*
X1265Y745D01*
X1260D01*
X1265D01*
X1270Y740D01*
Y735D01*
X1265Y730D01*
X1255D01*
X1250Y735D01*
X1280Y760D02*
X1300D01*
Y755D01*
X1280Y735D01*
Y730D01*
X80Y1700D02*
X75Y1705D01*
X65D01*
X60Y1700D01*
Y1680D01*
X65Y1675D01*
X75D01*
X80Y1680D01*
X90Y1700D02*
X95Y1705D01*
X105D01*
X110Y1700D01*
Y1695D01*
X105Y1690D01*
X100D01*
X105D01*
X110Y1685D01*
Y1680D01*
X105Y1675D01*
X95D01*
X90Y1680D01*
X140Y1705D02*
X130Y1700D01*
X120Y1690D01*
Y1680D01*
X125Y1675D01*
X135D01*
X140Y1680D01*
Y1685D01*
X135Y1690D01*
X120D01*
X240Y855D02*
X235Y850D01*
Y840D01*
X240Y835D01*
X260D01*
X265Y840D01*
Y850D01*
X260Y855D01*
X240Y865D02*
X235Y870D01*
Y880D01*
X240Y885D01*
X245D01*
X250Y880D01*
Y875D01*
Y880D01*
X255Y885D01*
X260D01*
X265Y880D01*
Y870D01*
X260Y865D01*
X235Y915D02*
Y895D01*
X250D01*
X245Y905D01*
Y910D01*
X250Y915D01*
X260D01*
X265Y910D01*
Y900D01*
X260Y895D01*
X1115Y145D02*
X1110Y150D01*
X1100D01*
X1095Y145D01*
Y125D01*
X1100Y120D01*
X1110D01*
X1115Y125D01*
X1125Y145D02*
X1130Y150D01*
X1140D01*
X1145Y145D01*
Y140D01*
X1140Y135D01*
X1135D01*
X1140D01*
X1145Y130D01*
Y125D01*
X1140Y120D01*
X1130D01*
X1125Y125D01*
X1170Y120D02*
Y150D01*
X1155Y135D01*
X1175D01*
X185Y1185D02*
X180Y1190D01*
X170D01*
X165Y1185D01*
Y1165D01*
X170Y1160D01*
X180D01*
X185Y1165D01*
X195Y1185D02*
X200Y1190D01*
X210D01*
X215Y1185D01*
Y1180D01*
X210Y1175D01*
X205D01*
X210D01*
X215Y1170D01*
Y1165D01*
X210Y1160D01*
X200D01*
X195Y1165D01*
X225Y1185D02*
X230Y1190D01*
X240D01*
X245Y1185D01*
Y1180D01*
X240Y1175D01*
X235D01*
X240D01*
X245Y1170D01*
Y1165D01*
X240Y1160D01*
X230D01*
X225Y1165D01*
X370Y955D02*
X365Y960D01*
X355D01*
X350Y955D01*
Y935D01*
X355Y930D01*
X365D01*
X370Y935D01*
X380Y955D02*
X385Y960D01*
X395D01*
X400Y955D01*
Y950D01*
X395Y945D01*
X390D01*
X395D01*
X400Y940D01*
Y935D01*
X395Y930D01*
X385D01*
X380Y935D01*
X430Y930D02*
X410D01*
X430Y950D01*
Y955D01*
X425Y960D01*
X415D01*
X410Y955D01*
X370Y1005D02*
X365Y1010D01*
X355D01*
X350Y1005D01*
Y985D01*
X355Y980D01*
X365D01*
X370Y985D01*
X380Y1005D02*
X385Y1010D01*
X395D01*
X400Y1005D01*
Y1000D01*
X395Y995D01*
X390D01*
X395D01*
X400Y990D01*
Y985D01*
X395Y980D01*
X385D01*
X380Y985D01*
X410Y980D02*
X420D01*
X415D01*
Y1010D01*
X410Y1005D01*
X980Y330D02*
X975Y335D01*
X965D01*
X960Y330D01*
Y310D01*
X965Y305D01*
X975D01*
X980Y310D01*
X1010Y335D02*
X990D01*
Y320D01*
X1000Y325D01*
X1005D01*
X1010Y320D01*
Y310D01*
X1005Y305D01*
X995D01*
X990Y310D01*
X1030Y220D02*
X1025Y215D01*
Y205D01*
X1030Y200D01*
X1050D01*
X1055Y205D01*
Y215D01*
X1050Y220D01*
X1055Y245D02*
X1025D01*
X1040Y230D01*
Y250D01*
X1710Y595D02*
X1705Y590D01*
Y580D01*
X1710Y575D01*
X1730D01*
X1735Y580D01*
Y590D01*
X1730Y595D01*
X1710Y605D02*
X1705Y610D01*
Y620D01*
X1710Y625D01*
X1715D01*
X1720Y620D01*
Y615D01*
Y620D01*
X1725Y625D01*
X1730D01*
X1735Y620D01*
Y610D01*
X1730Y605D01*
X1661Y595D02*
X1656Y590D01*
Y580D01*
X1661Y575D01*
X1681D01*
X1686Y580D01*
Y590D01*
X1681Y595D01*
X1686Y625D02*
Y605D01*
X1666Y625D01*
X1661D01*
X1656Y620D01*
Y610D01*
X1661Y605D01*
X2040Y195D02*
X2035Y200D01*
X2025D01*
X2020Y195D01*
Y175D01*
X2025Y170D01*
X2035D01*
X2040Y175D01*
X2050Y170D02*
X2060D01*
X2055D01*
Y200D01*
X2050Y195D01*
X1225Y850D02*
X1220Y855D01*
X1210D01*
X1205Y850D01*
Y830D01*
X1210Y825D01*
X1220D01*
X1225Y830D01*
X1255Y855D02*
X1245Y850D01*
X1235Y840D01*
Y830D01*
X1240Y825D01*
X1250D01*
X1255Y830D01*
Y835D01*
X1250Y840D01*
X1235D01*
X1265Y830D02*
X1270Y825D01*
X1280D01*
X1285Y830D01*
Y850D01*
X1280Y855D01*
X1270D01*
X1265Y850D01*
Y845D01*
X1270Y840D01*
X1285D01*
X2250Y220D02*
Y190D01*
X2270D01*
X2280Y215D02*
X2285Y220D01*
X2295D01*
X2300Y215D01*
Y210D01*
X2295Y205D01*
X2300Y200D01*
Y195D01*
X2295Y190D01*
X2285D01*
X2280Y195D01*
Y200D01*
X2285Y205D01*
X2280Y210D01*
Y215D01*
X2285Y205D02*
X2295D01*
X2740Y920D02*
X2710D01*
Y935D01*
X2715Y940D01*
X2725D01*
X2730Y935D01*
Y920D01*
Y930D02*
X2740Y940D01*
X2710Y970D02*
X2715Y960D01*
X2725Y950D01*
X2735D01*
X2740Y955D01*
Y965D01*
X2735Y970D01*
X2730D01*
X2725Y965D01*
Y950D01*
X2715Y980D02*
X2710Y985D01*
Y995D01*
X2715Y1000D01*
X2720D01*
X2725Y995D01*
Y990D01*
Y995D01*
X2730Y1000D01*
X2735D01*
X2740Y995D01*
Y985D01*
X2735Y980D01*
X2640Y1020D02*
X2610D01*
Y1035D01*
X2615Y1040D01*
X2625D01*
X2630Y1035D01*
Y1020D01*
Y1030D02*
X2640Y1040D01*
X2610Y1070D02*
X2615Y1060D01*
X2625Y1050D01*
X2635D01*
X2640Y1055D01*
Y1065D01*
X2635Y1070D01*
X2630D01*
X2625Y1065D01*
Y1050D01*
X2640Y1095D02*
X2610D01*
X2625Y1080D01*
Y1100D01*
X2640Y1240D02*
X2610D01*
Y1255D01*
X2615Y1260D01*
X2625D01*
X2630Y1255D01*
Y1240D01*
Y1250D02*
X2640Y1260D01*
X2610Y1290D02*
X2615Y1280D01*
X2625Y1270D01*
X2635D01*
X2640Y1275D01*
Y1285D01*
X2635Y1290D01*
X2630D01*
X2625Y1285D01*
Y1270D01*
X2610Y1320D02*
Y1300D01*
X2625D01*
X2620Y1310D01*
Y1315D01*
X2625Y1320D01*
X2635D01*
X2640Y1315D01*
Y1305D01*
X2635Y1300D01*
X3035Y1015D02*
X3060D01*
X3065Y1020D01*
Y1030D01*
X3060Y1035D01*
X3035D01*
X3065Y1045D02*
Y1055D01*
Y1050D01*
X3035D01*
X3040Y1045D01*
X3065Y1085D02*
X3035D01*
X3050Y1070D01*
Y1090D01*
X2785Y1205D02*
Y1180D01*
X2790Y1175D01*
X2800D01*
X2805Y1180D01*
Y1205D01*
X2815Y1175D02*
X2825D01*
X2820D01*
Y1205D01*
X2815Y1200D01*
X2860Y1205D02*
X2840D01*
Y1190D01*
X2850Y1195D01*
X2855D01*
X2860Y1190D01*
Y1180D01*
X2855Y1175D01*
X2845D01*
X2840Y1180D01*
X384Y2215D02*
X374D01*
X379D01*
Y2190D01*
X374Y2185D01*
X369D01*
X364Y2190D01*
X394Y2210D02*
X399Y2215D01*
X409D01*
X414Y2210D01*
Y2205D01*
X409Y2200D01*
X404D01*
X409D01*
X414Y2195D01*
Y2190D01*
X409Y2185D01*
X399D01*
X394Y2190D01*
X1447Y2215D02*
X1437D01*
X1442D01*
Y2190D01*
X1437Y2185D01*
X1432D01*
X1427Y2190D01*
X1472Y2185D02*
Y2215D01*
X1457Y2200D01*
X1477D01*
X522Y2215D02*
X512D01*
X517D01*
Y2190D01*
X512Y2185D01*
X507D01*
X502Y2190D01*
X552Y2215D02*
X532D01*
Y2200D01*
X542Y2205D01*
X547D01*
X552Y2200D01*
Y2190D01*
X547Y2185D01*
X537D01*
X532Y2190D01*
X970Y1295D02*
X940D01*
Y1310D01*
X945Y1315D01*
X955D01*
X960Y1310D01*
Y1295D01*
Y1305D02*
X970Y1315D01*
X965Y1325D02*
X970Y1330D01*
Y1340D01*
X965Y1345D01*
X945D01*
X940Y1340D01*
Y1330D01*
X945Y1325D01*
X950D01*
X955Y1330D01*
Y1345D01*
X1005Y1295D02*
X975D01*
Y1310D01*
X980Y1315D01*
X990D01*
X995Y1310D01*
Y1295D01*
Y1305D02*
X1005Y1315D01*
Y1325D02*
Y1335D01*
Y1330D01*
X975D01*
X980Y1325D01*
Y1350D02*
X975Y1355D01*
Y1365D01*
X980Y1370D01*
X1000D01*
X1005Y1365D01*
Y1355D01*
X1000Y1350D01*
X980D01*
X895Y890D02*
X915Y870D01*
X895D02*
X915Y890D01*
X895Y880D02*
X915D01*
X905Y870D02*
Y890D01*
X925Y865D02*
X935D01*
X930D01*
Y895D01*
X925Y890D01*
X970Y635D02*
X965Y640D01*
X955D01*
X950Y635D01*
Y615D01*
X955Y610D01*
X965D01*
X970Y615D01*
X980Y635D02*
X985Y640D01*
X995D01*
X1000Y635D01*
Y630D01*
X995Y625D01*
X1000Y620D01*
Y615D01*
X995Y610D01*
X985D01*
X980Y615D01*
Y620D01*
X985Y625D01*
X980Y630D01*
Y635D01*
X985Y625D02*
X995D01*
X1030Y610D02*
X1010D01*
X1030Y630D01*
Y635D01*
X1025Y640D01*
X1015D01*
X1010Y635D01*
X1525Y1400D02*
X1520Y1405D01*
X1510D01*
X1505Y1400D01*
Y1380D01*
X1510Y1375D01*
X1520D01*
X1525Y1380D01*
X1555Y1405D02*
X1545Y1400D01*
X1535Y1390D01*
Y1380D01*
X1540Y1375D01*
X1550D01*
X1555Y1380D01*
Y1385D01*
X1550Y1390D01*
X1535D01*
X1525Y1440D02*
X1520Y1445D01*
X1510D01*
X1505Y1440D01*
Y1420D01*
X1510Y1415D01*
X1520D01*
X1525Y1420D01*
X1535Y1445D02*
X1555D01*
Y1440D01*
X1535Y1420D01*
Y1415D01*
X2632Y1987D02*
X2627Y1992D01*
X2617D01*
X2612Y1987D01*
Y1967D01*
X2617Y1962D01*
X2627D01*
X2632Y1967D01*
X2642Y1987D02*
X2647Y1992D01*
X2657D01*
X2662Y1987D01*
Y1982D01*
X2657Y1977D01*
X2662Y1972D01*
Y1967D01*
X2657Y1962D01*
X2647D01*
X2642Y1967D01*
Y1972D01*
X2647Y1977D01*
X2642Y1982D01*
Y1987D01*
X2647Y1977D02*
X2657D01*
X2633Y2027D02*
X2628Y2032D01*
X2618D01*
X2613Y2027D01*
Y2007D01*
X2618Y2002D01*
X2628D01*
X2633Y2007D01*
X2643D02*
X2648Y2002D01*
X2658D01*
X2663Y2007D01*
Y2027D01*
X2658Y2032D01*
X2648D01*
X2643Y2027D01*
Y2022D01*
X2648Y2017D01*
X2663D01*
X2632Y2066D02*
X2627Y2071D01*
X2617D01*
X2612Y2066D01*
Y2046D01*
X2617Y2041D01*
X2627D01*
X2632Y2046D01*
X2642Y2041D02*
X2652D01*
X2647D01*
Y2071D01*
X2642Y2066D01*
X2667D02*
X2672Y2071D01*
X2682D01*
X2687Y2066D01*
Y2046D01*
X2682Y2041D01*
X2672D01*
X2667Y2046D01*
Y2066D01*
X2730Y1985D02*
X2725Y1990D01*
X2715D01*
X2710Y1985D01*
Y1965D01*
X2715Y1960D01*
X2725D01*
X2730Y1965D01*
X2740Y1960D02*
X2750D01*
X2745D01*
Y1990D01*
X2740Y1985D01*
X2765Y1960D02*
X2775D01*
X2770D01*
Y1990D01*
X2765Y1985D01*
X2730Y2025D02*
X2725Y2030D01*
X2715D01*
X2710Y2025D01*
Y2005D01*
X2715Y2000D01*
X2725D01*
X2730Y2005D01*
X2740Y2000D02*
X2750D01*
X2745D01*
Y2030D01*
X2740Y2025D01*
X2785Y2000D02*
X2765D01*
X2785Y2020D01*
Y2025D01*
X2780Y2030D01*
X2770D01*
X2765Y2025D01*
X2730Y2065D02*
X2725Y2070D01*
X2715D01*
X2710Y2065D01*
Y2045D01*
X2715Y2040D01*
X2725D01*
X2730Y2045D01*
X2740Y2040D02*
X2750D01*
X2745D01*
Y2070D01*
X2740Y2065D01*
X2765D02*
X2770Y2070D01*
X2780D01*
X2785Y2065D01*
Y2060D01*
X2780Y2055D01*
X2775D01*
X2780D01*
X2785Y2050D01*
Y2045D01*
X2780Y2040D01*
X2770D01*
X2765Y2045D01*
X2730Y1945D02*
X2725Y1950D01*
X2715D01*
X2710Y1945D01*
Y1925D01*
X2715Y1920D01*
X2725D01*
X2730Y1925D01*
X2740Y1920D02*
X2750D01*
X2745D01*
Y1950D01*
X2740Y1945D01*
X2780Y1920D02*
Y1950D01*
X2765Y1935D01*
X2785D01*
X2730Y1905D02*
X2725Y1910D01*
X2715D01*
X2710Y1905D01*
Y1885D01*
X2715Y1880D01*
X2725D01*
X2730Y1885D01*
X2740Y1880D02*
X2750D01*
X2745D01*
Y1910D01*
X2740Y1905D01*
X2785Y1910D02*
X2765D01*
Y1895D01*
X2775Y1900D01*
X2780D01*
X2785Y1895D01*
Y1885D01*
X2780Y1880D01*
X2770D01*
X2765Y1885D01*
X2150Y1705D02*
X2145Y1710D01*
X2135D01*
X2130Y1705D01*
Y1685D01*
X2135Y1680D01*
X2145D01*
X2150Y1685D01*
X2160Y1680D02*
X2170D01*
X2165D01*
Y1710D01*
X2160Y1705D01*
X2205Y1710D02*
X2195Y1705D01*
X2185Y1695D01*
Y1685D01*
X2190Y1680D01*
X2200D01*
X2205Y1685D01*
Y1690D01*
X2200Y1695D01*
X2185D01*
X2150Y1795D02*
X2145Y1800D01*
X2135D01*
X2130Y1795D01*
Y1775D01*
X2135Y1770D01*
X2145D01*
X2150Y1775D01*
X2160Y1770D02*
X2170D01*
X2165D01*
Y1800D01*
X2160Y1795D01*
X2185Y1800D02*
X2205D01*
Y1795D01*
X2185Y1775D01*
Y1770D01*
X2150Y1750D02*
X2145Y1755D01*
X2135D01*
X2130Y1750D01*
Y1730D01*
X2135Y1725D01*
X2145D01*
X2150Y1730D01*
X2160Y1725D02*
X2170D01*
X2165D01*
Y1755D01*
X2160Y1750D01*
X2185D02*
X2190Y1755D01*
X2200D01*
X2205Y1750D01*
Y1745D01*
X2200Y1740D01*
X2205Y1735D01*
Y1730D01*
X2200Y1725D01*
X2190D01*
X2185Y1730D01*
Y1735D01*
X2190Y1740D01*
X2185Y1745D01*
Y1750D01*
X2190Y1740D02*
X2200D01*
X1535Y1770D02*
X1530Y1775D01*
X1520D01*
X1515Y1770D01*
Y1750D01*
X1520Y1745D01*
X1530D01*
X1535Y1750D01*
X1545Y1745D02*
X1555D01*
X1550D01*
Y1775D01*
X1545Y1770D01*
X1570Y1750D02*
X1575Y1745D01*
X1585D01*
X1590Y1750D01*
Y1770D01*
X1585Y1775D01*
X1575D01*
X1570Y1770D01*
Y1765D01*
X1575Y1760D01*
X1590D01*
X1535Y1730D02*
X1530Y1735D01*
X1520D01*
X1515Y1730D01*
Y1710D01*
X1520Y1705D01*
X1530D01*
X1535Y1710D01*
X1565Y1705D02*
X1545D01*
X1565Y1725D01*
Y1730D01*
X1560Y1735D01*
X1550D01*
X1545Y1730D01*
X1575D02*
X1580Y1735D01*
X1590D01*
X1595Y1730D01*
Y1710D01*
X1590Y1705D01*
X1580D01*
X1575Y1710D01*
Y1730D01*
X1815Y1840D02*
X1810Y1835D01*
Y1825D01*
X1815Y1820D01*
X1835D01*
X1840Y1825D01*
Y1835D01*
X1835Y1840D01*
X1840Y1870D02*
Y1850D01*
X1820Y1870D01*
X1815D01*
X1810Y1865D01*
Y1855D01*
X1815Y1850D01*
X1840Y1880D02*
Y1890D01*
Y1885D01*
X1810D01*
X1815Y1880D01*
X1665Y1830D02*
X1660Y1825D01*
Y1815D01*
X1665Y1810D01*
X1685D01*
X1690Y1815D01*
Y1825D01*
X1685Y1830D01*
X1690Y1860D02*
Y1840D01*
X1670Y1860D01*
X1665D01*
X1660Y1855D01*
Y1845D01*
X1665Y1840D01*
X1690Y1890D02*
Y1870D01*
X1670Y1890D01*
X1665D01*
X1660Y1885D01*
Y1875D01*
X1665Y1870D01*
X1460Y1520D02*
X1455Y1515D01*
Y1505D01*
X1460Y1500D01*
X1480D01*
X1485Y1505D01*
Y1515D01*
X1480Y1520D01*
X1485Y1550D02*
Y1530D01*
X1465Y1550D01*
X1460D01*
X1455Y1545D01*
Y1535D01*
X1460Y1530D01*
Y1560D02*
X1455Y1565D01*
Y1575D01*
X1460Y1580D01*
X1465D01*
X1470Y1575D01*
Y1570D01*
Y1575D01*
X1475Y1580D01*
X1480D01*
X1485Y1575D01*
Y1565D01*
X1480Y1560D01*
X1415Y1520D02*
X1410Y1515D01*
Y1505D01*
X1415Y1500D01*
X1435D01*
X1440Y1505D01*
Y1515D01*
X1435Y1520D01*
X1440Y1550D02*
Y1530D01*
X1420Y1550D01*
X1415D01*
X1410Y1545D01*
Y1535D01*
X1415Y1530D01*
X1440Y1575D02*
X1410D01*
X1425Y1560D01*
Y1580D01*
X2150Y1570D02*
X2145Y1575D01*
X2135D01*
X2130Y1570D01*
Y1550D01*
X2135Y1545D01*
X2145D01*
X2150Y1550D01*
X2180Y1545D02*
X2160D01*
X2180Y1565D01*
Y1570D01*
X2175Y1575D01*
X2165D01*
X2160Y1570D01*
X2210Y1575D02*
X2190D01*
Y1560D01*
X2200Y1565D01*
X2205D01*
X2210Y1560D01*
Y1550D01*
X2205Y1545D01*
X2195D01*
X2190Y1550D01*
X1370Y1520D02*
X1365Y1515D01*
Y1505D01*
X1370Y1500D01*
X1390D01*
X1395Y1505D01*
Y1515D01*
X1390Y1520D01*
X1395Y1550D02*
Y1530D01*
X1375Y1550D01*
X1370D01*
X1365Y1545D01*
Y1535D01*
X1370Y1530D01*
Y1560D02*
X1365Y1565D01*
Y1575D01*
X1370Y1580D01*
X1375D01*
X1380Y1575D01*
X1385Y1580D01*
X1390D01*
X1395Y1575D01*
Y1565D01*
X1390Y1560D01*
X1385D01*
X1380Y1565D01*
X1375Y1560D01*
X1370D01*
X1380Y1565D02*
Y1575D01*
X1845Y1385D02*
X1840Y1380D01*
Y1370D01*
X1845Y1365D01*
X1865D01*
X1870Y1370D01*
Y1380D01*
X1865Y1385D01*
X1870Y1415D02*
Y1395D01*
X1850Y1415D01*
X1845D01*
X1840Y1410D01*
Y1400D01*
X1845Y1395D01*
X1865Y1425D02*
X1870Y1430D01*
Y1440D01*
X1865Y1445D01*
X1845D01*
X1840Y1440D01*
Y1430D01*
X1845Y1425D01*
X1850D01*
X1855Y1430D01*
Y1445D01*
X2150Y1660D02*
X2145Y1665D01*
X2135D01*
X2130Y1660D01*
Y1640D01*
X2135Y1635D01*
X2145D01*
X2150Y1640D01*
X2160Y1660D02*
X2165Y1665D01*
X2175D01*
X2180Y1660D01*
Y1655D01*
X2175Y1650D01*
X2170D01*
X2175D01*
X2180Y1645D01*
Y1640D01*
X2175Y1635D01*
X2165D01*
X2160Y1640D01*
X2190Y1660D02*
X2195Y1665D01*
X2205D01*
X2210Y1660D01*
Y1640D01*
X2205Y1635D01*
X2195D01*
X2190Y1640D01*
Y1660D01*
X2614Y2111D02*
Y2081D01*
X2634D01*
X2644Y2106D02*
X2649Y2111D01*
X2659D01*
X2664Y2106D01*
Y2101D01*
X2659Y2096D01*
X2654D01*
X2659D01*
X2664Y2091D01*
Y2086D01*
X2659Y2081D01*
X2649D01*
X2644Y2086D01*
X2710Y2110D02*
Y2080D01*
X2730D01*
X2755D02*
Y2110D01*
X2740Y2095D01*
X2760D01*
X1650Y1810D02*
X1620D01*
Y1825D01*
X1625Y1830D01*
X1635D01*
X1640Y1825D01*
Y1810D01*
Y1820D02*
X1650Y1830D01*
X1625Y1840D02*
X1620Y1845D01*
Y1855D01*
X1625Y1860D01*
X1630D01*
X1635Y1855D01*
Y1850D01*
Y1855D01*
X1640Y1860D01*
X1645D01*
X1650Y1855D01*
Y1845D01*
X1645Y1840D01*
X1650Y1885D02*
X1620D01*
X1635Y1870D01*
Y1890D01*
X1175Y1410D02*
X1145D01*
Y1425D01*
X1150Y1430D01*
X1160D01*
X1165Y1425D01*
Y1410D01*
Y1420D02*
X1175Y1430D01*
X1150Y1440D02*
X1145Y1445D01*
Y1455D01*
X1150Y1460D01*
X1155D01*
X1160Y1455D01*
Y1450D01*
Y1455D01*
X1165Y1460D01*
X1170D01*
X1175Y1455D01*
Y1445D01*
X1170Y1440D01*
X1145Y1470D02*
Y1490D01*
X1150D01*
X1170Y1470D01*
X1175D01*
X1225Y1410D02*
X1195D01*
Y1425D01*
X1200Y1430D01*
X1210D01*
X1215Y1425D01*
Y1410D01*
Y1420D02*
X1225Y1430D01*
X1200Y1440D02*
X1195Y1445D01*
Y1455D01*
X1200Y1460D01*
X1205D01*
X1210Y1455D01*
Y1450D01*
Y1455D01*
X1215Y1460D01*
X1220D01*
X1225Y1455D01*
Y1445D01*
X1220Y1440D01*
X1200Y1470D02*
X1195Y1475D01*
Y1485D01*
X1200Y1490D01*
X1205D01*
X1210Y1485D01*
X1215Y1490D01*
X1220D01*
X1225Y1485D01*
Y1475D01*
X1220Y1470D01*
X1215D01*
X1210Y1475D01*
X1205Y1470D01*
X1200D01*
X1210Y1475D02*
Y1485D01*
X1275Y1410D02*
X1245D01*
Y1425D01*
X1250Y1430D01*
X1260D01*
X1265Y1425D01*
Y1410D01*
Y1420D02*
X1275Y1430D01*
X1250Y1440D02*
X1245Y1445D01*
Y1455D01*
X1250Y1460D01*
X1255D01*
X1260Y1455D01*
Y1450D01*
Y1455D01*
X1265Y1460D01*
X1270D01*
X1275Y1455D01*
Y1445D01*
X1270Y1440D01*
Y1470D02*
X1275Y1475D01*
Y1485D01*
X1270Y1490D01*
X1250D01*
X1245Y1485D01*
Y1475D01*
X1250Y1470D01*
X1255D01*
X1260Y1475D01*
Y1490D01*
X1330Y1410D02*
X1300D01*
Y1425D01*
X1305Y1430D01*
X1315D01*
X1320Y1425D01*
Y1410D01*
Y1420D02*
X1330Y1430D01*
Y1455D02*
X1300D01*
X1315Y1440D01*
Y1460D01*
X1305Y1470D02*
X1300Y1475D01*
Y1485D01*
X1305Y1490D01*
X1325D01*
X1330Y1485D01*
Y1475D01*
X1325Y1470D01*
X1305D01*
X2130Y1960D02*
Y1990D01*
X2145D01*
X2150Y1985D01*
Y1975D01*
X2145Y1970D01*
X2130D01*
X2140D02*
X2150Y1960D01*
X2175D02*
Y1990D01*
X2160Y1975D01*
X2180D01*
X2190Y1960D02*
X2200D01*
X2195D01*
Y1990D01*
X2190Y1985D01*
X2130Y1860D02*
Y1890D01*
X2145D01*
X2150Y1885D01*
Y1875D01*
X2145Y1870D01*
X2130D01*
X2140D02*
X2150Y1860D01*
X2175D02*
Y1890D01*
X2160Y1875D01*
X2180D01*
X2210Y1860D02*
X2190D01*
X2210Y1880D01*
Y1885D01*
X2205Y1890D01*
X2195D01*
X2190Y1885D01*
X2130Y2005D02*
Y2035D01*
X2145D01*
X2150Y2030D01*
Y2020D01*
X2145Y2015D01*
X2130D01*
X2140D02*
X2150Y2005D01*
X2175D02*
Y2035D01*
X2160Y2020D01*
X2180D01*
X2190Y2030D02*
X2195Y2035D01*
X2205D01*
X2210Y2030D01*
Y2025D01*
X2205Y2020D01*
X2200D01*
X2205D01*
X2210Y2015D01*
Y2010D01*
X2205Y2005D01*
X2195D01*
X2190Y2010D01*
X2130Y1915D02*
Y1945D01*
X2145D01*
X2150Y1940D01*
Y1930D01*
X2145Y1925D01*
X2130D01*
X2140D02*
X2150Y1915D01*
X2175D02*
Y1945D01*
X2160Y1930D01*
X2180D01*
X2205Y1915D02*
Y1945D01*
X2190Y1930D01*
X2210D01*
X2130Y1815D02*
Y1845D01*
X2145D01*
X2150Y1840D01*
Y1830D01*
X2145Y1825D01*
X2130D01*
X2140D02*
X2150Y1815D01*
X2175D02*
Y1845D01*
X2160Y1830D01*
X2180D01*
X2210Y1845D02*
X2190D01*
Y1830D01*
X2200Y1835D01*
X2205D01*
X2210Y1830D01*
Y1820D01*
X2205Y1815D01*
X2195D01*
X2190Y1820D01*
X2130Y2050D02*
Y2080D01*
X2145D01*
X2150Y2075D01*
Y2065D01*
X2145Y2060D01*
X2130D01*
X2140D02*
X2150Y2050D01*
X2175D02*
Y2080D01*
X2160Y2065D01*
X2180D01*
X2210Y2080D02*
X2200Y2075D01*
X2190Y2065D01*
Y2055D01*
X2195Y2050D01*
X2205D01*
X2210Y2055D01*
Y2060D01*
X2205Y2065D01*
X2190D01*
X1195Y1880D02*
X1190Y1885D01*
X1180D01*
X1175Y1880D01*
Y1875D01*
X1180Y1870D01*
X1190D01*
X1195Y1865D01*
Y1860D01*
X1190Y1855D01*
X1180D01*
X1175Y1860D01*
X1205Y1885D02*
Y1855D01*
X1215Y1865D01*
X1225Y1855D01*
Y1885D01*
X1255Y1855D02*
X1235D01*
X1255Y1875D01*
Y1880D01*
X1250Y1885D01*
X1240D01*
X1235Y1880D01*
X100Y1880D02*
X120D01*
X110D01*
Y1850D01*
X130D02*
Y1880D01*
X145D01*
X150Y1875D01*
Y1865D01*
X145Y1860D01*
X130D01*
X160Y1850D02*
X170D01*
X165D01*
Y1880D01*
X160Y1875D01*
X1438Y1959D02*
Y1979D01*
Y1969D01*
X1468D01*
Y1989D02*
X1438D01*
Y2004D01*
X1443Y2009D01*
X1453D01*
X1458Y2004D01*
Y1989D01*
X1468Y2039D02*
Y2019D01*
X1448Y2039D01*
X1443D01*
X1438Y2034D01*
Y2024D01*
X1443Y2019D01*
X1935Y1480D02*
Y1455D01*
X1940Y1450D01*
X1950D01*
X1955Y1455D01*
Y1480D01*
X1980Y1450D02*
Y1480D01*
X1965Y1465D01*
X1985D01*
X2230Y1960D02*
X2225Y1955D01*
Y1945D01*
X2230Y1940D01*
X2250D01*
X2255Y1945D01*
Y1955D01*
X2250Y1960D01*
X2225Y1970D02*
Y1990D01*
X2230D01*
X2250Y1970D01*
X2255D01*
Y2015D02*
X2225D01*
X2240Y2000D01*
Y2020D01*
X2245Y1910D02*
X2240Y1915D01*
X2230D01*
X2225Y1910D01*
Y1890D01*
X2230Y1885D01*
X2240D01*
X2245Y1890D01*
X2255Y1915D02*
X2275D01*
Y1910D01*
X2255Y1890D01*
Y1885D01*
X2305Y1915D02*
X2285D01*
Y1900D01*
X2295Y1905D01*
X2300D01*
X2305Y1900D01*
Y1890D01*
X2300Y1885D01*
X2290D01*
X2285Y1890D01*
X3000Y415D02*
X2990D01*
X2995D01*
Y390D01*
X2990Y385D01*
X2985D01*
X2980Y390D01*
X3030Y385D02*
X3010D01*
X3030Y405D01*
Y410D01*
X3025Y415D01*
X3015D01*
X3010Y410D01*
X2525Y1960D02*
X2555D01*
Y1980D01*
X2525Y2010D02*
Y1990D01*
X2540D01*
X2535Y2000D01*
Y2005D01*
X2540Y2010D01*
X2550D01*
X2555Y2005D01*
Y1995D01*
X2550Y1990D01*
X2355Y2035D02*
Y2010D01*
X2360Y2005D01*
X2370D01*
X2375Y2010D01*
Y2035D01*
X2385Y2030D02*
X2390Y2035D01*
X2400D01*
X2405Y2030D01*
Y2025D01*
X2400Y2020D01*
X2405Y2015D01*
Y2010D01*
X2400Y2005D01*
X2390D01*
X2385Y2010D01*
Y2015D01*
X2390Y2020D01*
X2385Y2025D01*
Y2030D01*
X2390Y2020D02*
X2400D01*
X2560Y2160D02*
X2555Y2165D01*
X2545D01*
X2540Y2160D01*
Y2140D01*
X2545Y2135D01*
X2555D01*
X2560Y2140D01*
X2570Y2165D02*
X2590D01*
Y2160D01*
X2570Y2140D01*
Y2135D01*
X2620Y2165D02*
X2610Y2160D01*
X2600Y2150D01*
Y2140D01*
X2605Y2135D01*
X2615D01*
X2620Y2140D01*
Y2145D01*
X2615Y2150D01*
X2600D01*
X2560Y2210D02*
X2555Y2215D01*
X2545D01*
X2540Y2210D01*
Y2190D01*
X2545Y2185D01*
X2555D01*
X2560Y2190D01*
X2570Y2215D02*
X2590D01*
Y2210D01*
X2570Y2190D01*
Y2185D01*
X2600Y2215D02*
X2620D01*
Y2210D01*
X2600Y2190D01*
Y2185D01*
X2530Y2110D02*
Y2080D01*
X2550D01*
X2560D02*
X2570D01*
X2565D01*
Y2110D01*
X2560Y2105D01*
X2585Y2080D02*
X2595D01*
X2590D01*
Y2110D01*
X2585Y2105D01*
X1905Y2155D02*
Y2125D01*
X1925D01*
X1935D02*
X1945D01*
X1940D01*
Y2155D01*
X1935Y2150D01*
X1980Y2125D02*
X1960D01*
X1980Y2145D01*
Y2150D01*
X1975Y2155D01*
X1965D01*
X1960Y2150D01*
X2130Y2145D02*
Y2115D01*
X2150D01*
X2160D02*
X2170D01*
X2165D01*
Y2145D01*
X2160Y2140D01*
X2185D02*
X2190Y2145D01*
X2200D01*
X2205Y2140D01*
Y2135D01*
X2200Y2130D01*
X2195D01*
X2200D01*
X2205Y2125D01*
Y2120D01*
X2200Y2115D01*
X2190D01*
X2185Y2120D01*
X1905Y2185D02*
Y2215D01*
X1920D01*
X1925Y2210D01*
Y2200D01*
X1920Y2195D01*
X1905D01*
X1915D02*
X1925Y2185D01*
X1955Y2215D02*
X1935D01*
Y2200D01*
X1945Y2205D01*
X1950D01*
X1955Y2200D01*
Y2190D01*
X1950Y2185D01*
X1940D01*
X1935Y2190D01*
X1985Y2215D02*
X1975Y2210D01*
X1965Y2200D01*
Y2190D01*
X1970Y2185D01*
X1980D01*
X1985Y2190D01*
Y2195D01*
X1980Y2200D01*
X1965D01*
X2130Y2180D02*
Y2210D01*
X2145D01*
X2150Y2205D01*
Y2195D01*
X2145Y2190D01*
X2130D01*
X2140D02*
X2150Y2180D01*
X2180Y2210D02*
X2160D01*
Y2195D01*
X2170Y2200D01*
X2175D01*
X2180Y2195D01*
Y2185D01*
X2175Y2180D01*
X2165D01*
X2160Y2185D01*
X2190Y2210D02*
X2210D01*
Y2205D01*
X2190Y2185D01*
Y2180D01*
X1070Y430D02*
X1085D01*
X1090Y435D01*
Y450D01*
X1070D01*
X1090Y460D02*
Y470D01*
Y465D01*
X1060D01*
X1065Y460D01*
Y485D02*
X1060Y490D01*
Y500D01*
X1065Y505D01*
X1085D01*
X1090Y500D01*
Y490D01*
X1085Y485D01*
X1065D01*
X2310Y1770D02*
X2305Y1775D01*
X2295D01*
X2290Y1770D01*
Y1750D01*
X2295Y1745D01*
X2305D01*
X2310Y1750D01*
X2340Y1745D02*
X2320D01*
X2340Y1765D01*
Y1770D01*
X2335Y1775D01*
X2325D01*
X2320Y1770D01*
X2370Y1775D02*
X2360Y1770D01*
X2350Y1760D01*
Y1750D01*
X2355Y1745D01*
X2365D01*
X2370Y1750D01*
Y1755D01*
X2365Y1760D01*
X2350D01*
X2310Y1810D02*
X2305Y1815D01*
X2295D01*
X2290Y1810D01*
Y1790D01*
X2295Y1785D01*
X2305D01*
X2310Y1790D01*
X2340Y1785D02*
X2320D01*
X2340Y1805D01*
Y1810D01*
X2335Y1815D01*
X2325D01*
X2320Y1810D01*
X2350Y1815D02*
X2370D01*
Y1810D01*
X2350Y1790D01*
Y1785D01*
X2290Y1825D02*
Y1855D01*
X2305D01*
X2310Y1850D01*
Y1840D01*
X2305Y1835D01*
X2290D01*
X2300D02*
X2310Y1825D01*
X2320Y1850D02*
X2325Y1855D01*
X2335D01*
X2340Y1850D01*
Y1845D01*
X2335Y1840D01*
X2330D01*
X2335D01*
X2340Y1835D01*
Y1830D01*
X2335Y1825D01*
X2325D01*
X2320Y1830D01*
X2370Y1855D02*
X2350D01*
Y1840D01*
X2360Y1845D01*
X2365D01*
X2370Y1840D01*
Y1830D01*
X2365Y1825D01*
X2355D01*
X2350Y1830D01*
X50Y620D02*
X30D01*
Y605D01*
X40D01*
X30D01*
Y590D01*
X60Y620D02*
Y590D01*
X75D01*
X80Y595D01*
Y615D01*
X75Y620D01*
X60D01*
X90Y590D02*
X100D01*
X95D01*
Y620D01*
X90Y615D01*
X2720Y2215D02*
X2700D01*
Y2200D01*
X2710D01*
X2700D01*
Y2185D01*
X2730Y2215D02*
Y2185D01*
X2745D01*
X2750Y2190D01*
Y2210D01*
X2745Y2215D01*
X2730D01*
X2780Y2185D02*
X2760D01*
X2780Y2205D01*
Y2210D01*
X2775Y2215D01*
X2765D01*
X2760Y2210D01*
X2825Y260D02*
X2805D01*
Y245D01*
X2815D01*
X2805D01*
Y230D01*
X2835Y260D02*
Y230D01*
X2850D01*
X2855Y235D01*
Y255D01*
X2850Y260D01*
X2835D01*
X2865Y255D02*
X2870Y260D01*
X2880D01*
X2885Y255D01*
Y250D01*
X2880Y245D01*
X2875D01*
X2880D01*
X2885Y240D01*
Y235D01*
X2880Y230D01*
X2870D01*
X2865Y235D01*
X2900Y1595D02*
X2895Y1600D01*
X2885D01*
X2880Y1595D01*
Y1575D01*
X2885Y1570D01*
X2895D01*
X2900Y1575D01*
X2925Y1600D02*
X2915D01*
X2910Y1595D01*
Y1575D01*
X2915Y1570D01*
X2925D01*
X2930Y1575D01*
Y1595D01*
X2925Y1600D01*
X2940Y1570D02*
Y1590D01*
X2950Y1600D01*
X2960Y1590D01*
Y1570D01*
Y1585D01*
X2940D01*
X2970Y1600D02*
X2990Y1570D01*
Y1600D02*
X2970Y1570D01*
X2995Y1640D02*
Y1615D01*
X3000Y1610D01*
X3010D01*
X3015Y1615D01*
Y1640D01*
X3045Y1635D02*
X3040Y1640D01*
X3030D01*
X3025Y1635D01*
Y1630D01*
X3030Y1625D01*
X3040D01*
X3045Y1620D01*
Y1615D01*
X3040Y1610D01*
X3030D01*
X3025Y1615D01*
X3055Y1640D02*
Y1610D01*
X3070D01*
X3075Y1615D01*
Y1620D01*
X3070Y1625D01*
X3055D01*
X3070D01*
X3075Y1630D01*
Y1635D01*
X3070Y1640D01*
X3055D01*
X2785D02*
X2775D01*
X2780D01*
Y1615D01*
X2775Y1610D01*
X2770D01*
X2765Y1615D01*
X2795Y1610D02*
Y1630D01*
X2805Y1640D01*
X2815Y1630D01*
Y1610D01*
Y1625D01*
X2795D01*
X2845Y1635D02*
X2840Y1640D01*
X2830D01*
X2825Y1635D01*
Y1615D01*
X2830Y1610D01*
X2840D01*
X2845Y1615D01*
X2855Y1640D02*
Y1610D01*
Y1620D01*
X2875Y1640D01*
X2860Y1625D01*
X2875Y1610D01*
X1315Y1855D02*
X1325D01*
X1320D01*
Y1885D01*
X1315Y1880D01*
X1110D02*
X1115Y1885D01*
X1125D01*
X1130Y1880D01*
Y1860D01*
X1125Y1855D01*
X1115D01*
X1110Y1860D01*
Y1880D01*
X845Y1140D02*
Y1120D01*
X855Y1110D01*
X865Y1120D01*
Y1140D01*
X875Y1135D02*
X880Y1140D01*
X890D01*
X895Y1135D01*
Y1130D01*
X890Y1125D01*
X885D01*
X890D01*
X895Y1120D01*
Y1115D01*
X890Y1110D01*
X880D01*
X875Y1115D01*
X905Y1110D02*
Y1140D01*
X920D01*
X925Y1135D01*
Y1125D01*
X920Y1120D01*
X905D01*
X935Y1135D02*
X940Y1140D01*
X950D01*
X955Y1135D01*
Y1130D01*
X950Y1125D01*
X945D01*
X950D01*
X955Y1120D01*
Y1115D01*
X950Y1110D01*
X940D01*
X935Y1115D01*
X785Y1530D02*
Y1510D01*
X795Y1500D01*
X805Y1510D01*
Y1530D01*
X815Y1500D02*
X825D01*
X820D01*
Y1530D01*
X815Y1525D01*
X840Y1500D02*
Y1530D01*
X855D01*
X860Y1525D01*
Y1515D01*
X855Y1510D01*
X840D01*
X890Y1500D02*
X870D01*
X890Y1520D01*
Y1525D01*
X885Y1530D01*
X875D01*
X870Y1525D01*
X700Y310D02*
X705Y315D01*
X715D01*
X720Y310D01*
Y290D01*
X715Y285D01*
X705D01*
X700Y290D01*
Y310D01*
Y135D02*
X710D01*
X705D01*
Y165D01*
X700Y160D01*
X2775Y660D02*
X2785D01*
X2780D01*
Y690D01*
X2775Y685D01*
X2995D02*
X3000Y690D01*
X3010D01*
X3015Y685D01*
Y665D01*
X3010Y660D01*
X3000D01*
X2995Y665D01*
Y685D01*
X2640Y1705D02*
X2635Y1710D01*
X2625D01*
X2620Y1705D01*
Y1700D01*
X2625Y1695D01*
X2635D01*
X2640Y1690D01*
Y1685D01*
X2635Y1680D01*
X2625D01*
X2620Y1685D01*
X2670Y1705D02*
X2665Y1710D01*
X2655D01*
X2650Y1705D01*
Y1700D01*
X2655Y1695D01*
X2665D01*
X2670Y1690D01*
Y1685D01*
X2665Y1680D01*
X2655D01*
X2650Y1685D01*
X2680Y1680D02*
Y1710D01*
X2700Y1680D01*
Y1710D01*
X2620Y1720D02*
Y1750D01*
X2630Y1740D01*
X2640Y1750D01*
Y1720D01*
X2650Y1750D02*
X2660D01*
X2655D01*
Y1720D01*
X2650D01*
X2660D01*
X2695Y1745D02*
X2690Y1750D01*
X2680D01*
X2675Y1745D01*
Y1740D01*
X2680Y1735D01*
X2690D01*
X2695Y1730D01*
Y1725D01*
X2690Y1720D01*
X2680D01*
X2675Y1725D01*
X2720Y1750D02*
X2710D01*
X2705Y1745D01*
Y1725D01*
X2710Y1720D01*
X2720D01*
X2725Y1725D01*
Y1745D01*
X2720Y1750D01*
X2640Y1785D02*
X2635Y1790D01*
X2625D01*
X2620Y1785D01*
Y1780D01*
X2625Y1775D01*
X2635D01*
X2640Y1770D01*
Y1765D01*
X2635Y1760D01*
X2625D01*
X2620Y1765D01*
X2670Y1785D02*
X2665Y1790D01*
X2655D01*
X2650Y1785D01*
Y1765D01*
X2655Y1760D01*
X2665D01*
X2670Y1765D01*
X2680Y1790D02*
Y1760D01*
Y1770D01*
X2700Y1790D01*
X2685Y1775D01*
X2700Y1760D01*
X2620Y1800D02*
Y1830D01*
X2630Y1820D01*
X2640Y1830D01*
Y1800D01*
X2665Y1830D02*
X2655D01*
X2650Y1825D01*
Y1805D01*
X2655Y1800D01*
X2665D01*
X2670Y1805D01*
Y1825D01*
X2665Y1830D01*
X2700Y1825D02*
X2695Y1830D01*
X2685D01*
X2680Y1825D01*
Y1820D01*
X2685Y1815D01*
X2695D01*
X2700Y1810D01*
Y1805D01*
X2695Y1800D01*
X2685D01*
X2680Y1805D01*
X2710Y1830D02*
X2720D01*
X2715D01*
Y1800D01*
X2710D01*
X2720D01*
X2270Y1510D02*
X2265Y1515D01*
X2255D01*
X2250Y1510D01*
Y1490D01*
X2255Y1485D01*
X2265D01*
X2270Y1490D01*
Y1500D01*
X2260D01*
X2280Y1485D02*
Y1515D01*
X2295D01*
X2300Y1510D01*
Y1500D01*
X2295Y1495D01*
X2280D01*
X2310Y1515D02*
X2320D01*
X2315D01*
Y1485D01*
X2310D01*
X2320D01*
X2350Y1515D02*
X2340D01*
X2335Y1510D01*
Y1490D01*
X2340Y1485D01*
X2350D01*
X2355Y1490D01*
Y1510D01*
X2350Y1515D01*
X2365Y1510D02*
X2370Y1515D01*
X2380D01*
X2385Y1510D01*
Y1505D01*
X2380Y1500D01*
X2375D01*
X2380D01*
X2385Y1495D01*
Y1490D01*
X2380Y1485D01*
X2370D01*
X2365Y1490D01*
X2270Y1550D02*
X2265Y1555D01*
X2255D01*
X2250Y1550D01*
Y1530D01*
X2255Y1525D01*
X2265D01*
X2270Y1530D01*
Y1540D01*
X2260D01*
X2280Y1525D02*
Y1555D01*
X2295D01*
X2300Y1550D01*
Y1540D01*
X2295Y1535D01*
X2280D01*
X2310Y1555D02*
X2320D01*
X2315D01*
Y1525D01*
X2310D01*
X2320D01*
X2350Y1555D02*
X2340D01*
X2335Y1550D01*
Y1530D01*
X2340Y1525D01*
X2350D01*
X2355Y1530D01*
Y1550D01*
X2350Y1555D01*
X2385Y1525D02*
X2365D01*
X2385Y1545D01*
Y1550D01*
X2380Y1555D01*
X2370D01*
X2365Y1550D01*
X2270Y1595D02*
X2265Y1600D01*
X2255D01*
X2250Y1595D01*
Y1575D01*
X2255Y1570D01*
X2265D01*
X2270Y1575D01*
Y1585D01*
X2260D01*
X2280Y1570D02*
Y1600D01*
X2295D01*
X2300Y1595D01*
Y1585D01*
X2295Y1580D01*
X2280D01*
X2310Y1600D02*
X2320D01*
X2315D01*
Y1570D01*
X2310D01*
X2320D01*
X2350Y1600D02*
X2340D01*
X2335Y1595D01*
Y1575D01*
X2340Y1570D01*
X2350D01*
X2355Y1575D01*
Y1595D01*
X2350Y1600D01*
X2365Y1570D02*
X2375D01*
X2370D01*
Y1600D01*
X2365Y1595D01*
X2270Y1635D02*
X2265Y1640D01*
X2255D01*
X2250Y1635D01*
Y1615D01*
X2255Y1610D01*
X2265D01*
X2270Y1615D01*
Y1625D01*
X2260D01*
X2280Y1610D02*
Y1640D01*
X2295D01*
X2300Y1635D01*
Y1625D01*
X2295Y1620D01*
X2280D01*
X2310Y1640D02*
X2320D01*
X2315D01*
Y1610D01*
X2310D01*
X2320D01*
X2350Y1640D02*
X2340D01*
X2335Y1635D01*
Y1615D01*
X2340Y1610D01*
X2350D01*
X2355Y1615D01*
Y1635D01*
X2350Y1640D01*
X2365Y1635D02*
X2370Y1640D01*
X2380D01*
X2385Y1635D01*
Y1615D01*
X2380Y1610D01*
X2370D01*
X2365Y1615D01*
Y1635D01*
X1319Y2057D02*
Y2077D01*
X1329Y2087D01*
X1339Y2077D01*
Y2057D01*
Y2072D01*
X1319D01*
X2660Y2140D02*
Y2160D01*
X2670Y2170D01*
X2680Y2160D01*
Y2140D01*
Y2155D01*
X2660D01*
X2760Y2170D02*
Y2140D01*
X2775D01*
X2780Y2145D01*
Y2150D01*
X2775Y2155D01*
X2760D01*
X2775D01*
X2780Y2160D01*
Y2165D01*
X2775Y2170D01*
X2760D01*
X1865Y2130D02*
Y2100D01*
X1880D01*
X1885Y2105D01*
Y2110D01*
X1880Y2115D01*
X1865D01*
X1880D01*
X1885Y2120D01*
Y2125D01*
X1880Y2130D01*
X1865D01*
X2830Y1865D02*
X2825Y1870D01*
X2815D01*
X2810Y1865D01*
Y1845D01*
X2815Y1840D01*
X2825D01*
X2830Y1845D01*
X1990Y1080D02*
X1985Y1085D01*
X1975D01*
X1970Y1080D01*
Y1060D01*
X1975Y1055D01*
X1985D01*
X1990Y1060D01*
X2265Y1185D02*
Y1155D01*
X2280D01*
X2285Y1160D01*
Y1180D01*
X2280Y1185D01*
X2265D01*
X3055Y2225D02*
Y2195D01*
X3070D01*
X3075Y2200D01*
Y2220D01*
X3070Y2225D01*
X3055D01*
X965Y2075D02*
X960Y2080D01*
X950D01*
X945Y2075D01*
Y2070D01*
X950Y2065D01*
X960D01*
X965Y2060D01*
Y2055D01*
X960Y2050D01*
X950D01*
X945Y2055D01*
X995Y2080D02*
X975D01*
Y2050D01*
X995D01*
X975Y2065D02*
X985D01*
X1005Y2080D02*
Y2050D01*
X1025D01*
X960Y2035D02*
X950D01*
X945Y2030D01*
Y2010D01*
X950Y2005D01*
X960D01*
X965Y2010D01*
Y2030D01*
X960Y2035D01*
X995Y2030D02*
X990Y2035D01*
X980D01*
X975Y2030D01*
Y2025D01*
X980Y2020D01*
X990D01*
X995Y2015D01*
Y2010D01*
X990Y2005D01*
X980D01*
X975Y2010D01*
X1025Y2030D02*
X1020Y2035D01*
X1010D01*
X1005Y2030D01*
Y2025D01*
X1010Y2020D01*
X1020D01*
X1025Y2015D01*
Y2010D01*
X1020Y2005D01*
X1010D01*
X1005Y2010D01*
X1035Y2000D02*
X1055D01*
X1085Y2030D02*
X1080Y2035D01*
X1070D01*
X1065Y2030D01*
Y2025D01*
X1070Y2020D01*
X1080D01*
X1085Y2015D01*
Y2010D01*
X1080Y2005D01*
X1070D01*
X1065Y2010D01*
X1115Y2035D02*
X1095D01*
Y2005D01*
X1115D01*
X1095Y2020D02*
X1105D01*
X1125Y2035D02*
Y2005D01*
X1145D01*
X960Y1990D02*
X950D01*
X945Y1985D01*
Y1965D01*
X950Y1960D01*
X960D01*
X965Y1965D01*
Y1985D01*
X960Y1990D01*
X995D02*
X975D01*
Y1960D01*
X995D01*
X975Y1975D02*
X985D01*
X1005Y1960D02*
Y1990D01*
X1025Y1960D01*
Y1990D01*
X945Y1945D02*
Y1915D01*
X960D01*
X965Y1920D01*
Y1925D01*
X960Y1930D01*
X945D01*
X960D01*
X965Y1935D01*
Y1940D01*
X960Y1945D01*
X945D01*
X975D02*
X985D01*
X980D01*
Y1915D01*
X975D01*
X985D01*
X1020Y1940D02*
X1015Y1945D01*
X1005D01*
X1000Y1940D01*
Y1935D01*
X1005Y1930D01*
X1015D01*
X1020Y1925D01*
Y1920D01*
X1015Y1915D01*
X1005D01*
X1000Y1920D01*
X1030Y1945D02*
X1050D01*
X1040D01*
Y1915D01*
X1080Y1945D02*
X1060D01*
Y1915D01*
X1080D01*
X1060Y1930D02*
X1070D01*
X1090Y1915D02*
Y1945D01*
X1110Y1915D01*
Y1945D01*
D50*
X2967Y995D02*
G03*
X2967Y995I-7J0D01*
G01*
X2839Y865D02*
G03*
X2839Y865I-14J0D01*
G01*
X524Y160D02*
G03*
X524Y160I-14J0D01*
G01*
X1685Y280D02*
G03*
X1685Y280I-5J0D01*
G01*
X2967Y1220D02*
G03*
X2967Y1220I-7J0D01*
G01*
X2962Y1425D02*
G03*
X2962Y1425I-7J0D01*
G01*
X1299Y1665D02*
G03*
X1299Y1665I-14J0D01*
G01*
X1004Y2106D02*
Y2215D01*
Y2106D02*
X1309D01*
Y2215D01*
X1004D02*
X1309D01*
X2925Y1615D02*
Y1655D01*
X3010Y2220D02*
X3080Y2150D01*
X2795Y1840D02*
X2875Y1760D01*
X2795Y1840D02*
Y2210D01*
X2875Y1760D02*
X2905D01*
X295Y1435D02*
X800D01*
X785Y1095D02*
X960D01*
X800Y1435D02*
X895Y1340D01*
Y1205D02*
Y1340D01*
X785Y1095D02*
X895Y1205D01*
X360Y1095D02*
X820D01*
X295Y1160D02*
X360Y1095D01*
X295Y1160D02*
Y1435D01*
X730Y1490D02*
X890D01*
X220Y1625D02*
Y1860D01*
Y1625D02*
X355Y1490D01*
X730D01*
X815Y1575D01*
Y1805D01*
X760Y1860D02*
X815Y1805D01*
X220Y1860D02*
X760D01*
X2700Y1874D02*
X2702Y1872D01*
X2700Y1874D02*
Y2125D01*
X2965Y1760D02*
Y2215D01*
X2235Y1695D02*
Y1700D01*
X2255Y1720D01*
X2350D01*
X2400Y1770D01*
X2600Y1860D02*
X2735D01*
X2740Y1855D01*
Y1620D02*
Y1855D01*
X2700Y1580D02*
X2740Y1620D01*
X2650Y1580D02*
X2700D01*
X2600Y1530D02*
X2650Y1580D01*
X2250Y1460D02*
X2400D01*
X2235Y1475D02*
X2250Y1460D01*
X2235Y1475D02*
Y1695D01*
X2240D01*
X2785Y1870D02*
X2790Y1875D01*
X2660Y1870D02*
X2785D01*
X2600Y1930D02*
X2660Y1870D01*
X2600Y1930D02*
Y2115D01*
X2610Y2125D01*
X2795D01*
X1530Y1575D02*
X1543Y1589D01*
X1500Y1575D02*
X1530D01*
X1475Y1770D02*
X1500Y1745D01*
Y1705D02*
Y1745D01*
X1340Y1290D02*
X1385Y1245D01*
X1710Y1180D02*
X1845D01*
X575Y1910D02*
X925D01*
Y2585D01*
X575D02*
X925D01*
X575Y1910D02*
Y2585D01*
X1495Y1910D02*
X1845D01*
Y2585D01*
X1495D02*
X1845D01*
X1495Y1910D02*
Y2585D01*
X-10Y1900D02*
X340D01*
Y2575D01*
X-10D02*
X340D01*
X-10Y1900D02*
Y2575D01*
X2965Y1020D02*
Y1110D01*
X3015D01*
Y1000D02*
Y1110D01*
X2965Y1000D02*
Y1020D01*
Y1000D02*
X3015D01*
X1305Y158D02*
X1385D01*
X1305Y103D02*
Y158D01*
X1795D02*
X1820D01*
Y103D02*
Y158D01*
X1530D02*
X1650D01*
X1305Y3D02*
X1815D01*
X175Y230D02*
X215Y270D01*
X115Y230D02*
X175D01*
X235D02*
X295D01*
Y150D02*
Y310D01*
X115Y150D02*
Y310D01*
X30Y405D02*
X380D01*
X30Y55D02*
X380D01*
Y405D01*
X30Y55D02*
Y405D01*
X1671Y378D02*
X1781D01*
X1671Y293D02*
Y378D01*
X1781Y293D02*
Y378D01*
X1671Y293D02*
X1781D01*
X2965Y1225D02*
X3015D01*
X2965D02*
Y1245D01*
X3015Y1225D02*
Y1335D01*
X2965D02*
X3015D01*
X2965Y1245D02*
Y1335D01*
X2960Y1430D02*
X3010D01*
X2960D02*
Y1450D01*
X3010Y1430D02*
Y1540D01*
X2960D02*
X3010D01*
X2960Y1450D02*
Y1540D01*
X940Y1277D02*
X1353D01*
X1340Y1290D02*
X1353Y1277D01*
X3080Y1760D02*
Y2150D01*
X2905Y1760D02*
X3080D01*
X2795Y2210D02*
X2805Y2220D01*
X3010D01*
X2400Y1770D02*
Y1785D01*
X495Y415D02*
X575D01*
X595Y35D02*
X675D01*
X940Y1895D02*
X1000D01*
X1020Y1875D01*
Y1655D02*
Y1875D01*
Y1655D02*
X1040Y1635D01*
X1225Y1080D02*
X1220Y1085D01*
X1210D01*
X1205Y1080D01*
Y1060D01*
X1210Y1055D01*
X1220D01*
X1225Y1060D01*
X1235Y1080D02*
X1240Y1085D01*
X1250D01*
X1255Y1080D01*
Y1075D01*
X1250Y1070D01*
X1245D01*
X1250D01*
X1255Y1065D01*
Y1060D01*
X1250Y1055D01*
X1240D01*
X1235Y1060D01*
X1265D02*
X1270Y1055D01*
X1280D01*
X1285Y1060D01*
Y1080D01*
X1280Y1085D01*
X1270D01*
X1265Y1080D01*
Y1075D01*
X1270Y1070D01*
X1285D01*
D51*
X407Y1385D02*
Y1415D01*
X637Y1325D02*
Y1355D01*
X280Y1633D02*
X310D01*
X592Y1530D02*
Y1560D01*
D53*
X2916Y1211D02*
X3054D01*
Y1349D01*
X2916Y1211D02*
Y1349D01*
X3054D01*
X2240Y2177D02*
Y2223D01*
X2341Y2177D02*
Y2223D01*
X2240Y2177D02*
X2341D01*
X2240Y2223D02*
X2341D01*
X2000Y2177D02*
Y2223D01*
X2101Y2177D02*
Y2223D01*
X2000Y2177D02*
X2101D01*
X2000Y2223D02*
X2101D01*
X2916Y986D02*
X3054D01*
Y1124D01*
X2916Y986D02*
Y1124D01*
X3054D01*
X2916Y1416D02*
X3054D01*
Y1554D01*
X2916Y1416D02*
Y1554D01*
X3054D01*
X1985Y1582D02*
Y1628D01*
X2086Y1582D02*
Y1628D01*
X1985Y1582D02*
X2086D01*
X1985Y1628D02*
X2086D01*
X1382Y1245D02*
X1428D01*
X1382Y1345D02*
X1428D01*
Y1245D02*
Y1345D01*
X1382Y1245D02*
Y1345D01*
X1432Y1245D02*
X1478D01*
X1432Y1345D02*
X1478D01*
Y1245D02*
Y1345D01*
X1432Y1245D02*
Y1345D01*
X2652Y1235D02*
Y1336D01*
X2698Y1235D02*
Y1336D01*
X2652D02*
X2698D01*
X2652Y1235D02*
X2698D01*
X2652Y1015D02*
X2698D01*
X2652Y1115D02*
X2698D01*
Y1015D02*
Y1115D01*
X2652Y1015D02*
Y1115D01*
X2702Y1116D02*
X2748D01*
X2702Y1015D02*
X2748D01*
X2702D02*
Y1116D01*
X2748Y1015D02*
Y1116D01*
X1345Y822D02*
Y868D01*
X1446Y822D02*
Y868D01*
X1345Y822D02*
X1446D01*
X1345Y868D02*
X1446D01*
X1905Y162D02*
X2006D01*
X1905Y208D02*
X2006D01*
X1905Y162D02*
Y208D01*
X2006Y162D02*
Y208D01*
X1647Y460D02*
Y561D01*
X1693Y460D02*
Y561D01*
X1647D02*
X1693D01*
X1647Y460D02*
X1693D01*
X1692Y460D02*
Y561D01*
X1738Y460D02*
Y561D01*
X1692D02*
X1738D01*
X1692Y460D02*
X1738D01*
X1013Y155D02*
Y256D01*
X967Y155D02*
Y256D01*
Y155D02*
X1013D01*
X967Y256D02*
X1013D01*
X845Y297D02*
X946D01*
X845Y343D02*
X946D01*
X845Y297D02*
Y343D01*
X946Y297D02*
Y343D01*
X440Y1013D02*
X540D01*
X440Y967D02*
X540D01*
Y1013D01*
X440Y967D02*
Y1013D01*
X440Y968D02*
X540D01*
X440Y922D02*
X540D01*
Y968D01*
X440Y922D02*
Y968D01*
X1344Y773D02*
X1446D01*
X1344Y727D02*
X1446D01*
Y773D01*
X1344Y727D02*
Y773D01*
Y723D02*
X1446D01*
X1344Y677D02*
X1446D01*
Y723D01*
X1344Y677D02*
Y723D01*
X1663Y1080D02*
Y1181D01*
X1617Y1080D02*
Y1181D01*
Y1080D02*
X1663D01*
X1617Y1181D02*
X1663D01*
X1344Y673D02*
X1446D01*
X1344Y627D02*
X1446D01*
Y673D01*
X1344Y627D02*
Y673D01*
Y1048D02*
X1446D01*
X1344Y1002D02*
X1446D01*
Y1048D01*
X1344Y1002D02*
Y1048D01*
Y1003D02*
X1446D01*
X1344Y957D02*
X1446D01*
Y1003D01*
X1344Y957D02*
Y1003D01*
Y623D02*
X1446D01*
X1344Y577D02*
X1446D01*
Y623D01*
X1344Y577D02*
Y623D01*
X1708Y1079D02*
Y1181D01*
X1662Y1079D02*
Y1181D01*
Y1079D02*
X1708D01*
X1662Y1181D02*
X1708D01*
X1344Y913D02*
X1446D01*
X1344Y867D02*
X1446D01*
Y913D01*
X1344Y867D02*
Y913D01*
X1895Y827D02*
X1996D01*
X1895Y873D02*
X1996D01*
X1895Y827D02*
Y873D01*
X1996Y827D02*
Y873D01*
X1895Y997D02*
X1996D01*
X1895Y1043D02*
X1996D01*
X1895Y997D02*
Y1043D01*
X1996Y997D02*
Y1043D01*
X1344Y823D02*
X1446D01*
X1344Y777D02*
X1446D01*
Y823D01*
X1344Y777D02*
Y823D01*
X1895Y492D02*
X1995D01*
X1895Y538D02*
X1995D01*
X1895Y492D02*
Y538D01*
X1995Y492D02*
Y538D01*
X1895Y537D02*
X1996D01*
X1895Y583D02*
X1996D01*
X1895Y537D02*
Y583D01*
X1996Y537D02*
Y583D01*
X1562Y460D02*
Y561D01*
X1608Y460D02*
Y561D01*
X1562D02*
X1608D01*
X1562Y460D02*
X1608D01*
X2125Y47D02*
X2226D01*
X2125Y93D02*
X2226D01*
X2125Y47D02*
Y93D01*
X2226Y47D02*
Y93D01*
X1895Y607D02*
X1996D01*
X1895Y653D02*
X1996D01*
X1895Y607D02*
Y653D01*
X1996Y607D02*
Y653D01*
X2389Y467D02*
X2490D01*
X2389Y513D02*
X2490D01*
X2389Y467D02*
Y513D01*
X2490Y467D02*
Y513D01*
X1895Y772D02*
X1996D01*
X1895Y818D02*
X1996D01*
X1895Y772D02*
Y818D01*
X1996Y772D02*
Y818D01*
X2389Y657D02*
X2490D01*
X2389Y703D02*
X2490D01*
X2389Y657D02*
Y703D01*
X2490Y657D02*
Y703D01*
X1344Y958D02*
X1446D01*
X1344Y912D02*
X1446D01*
Y958D01*
X1344Y912D02*
Y958D01*
X1618Y1079D02*
Y1181D01*
X1572Y1079D02*
Y1181D01*
Y1079D02*
X1618D01*
X1572Y1181D02*
X1618D01*
X939Y1022D02*
X1041D01*
X939Y1068D02*
X1041D01*
X939Y1022D02*
Y1068D01*
X1041Y1022D02*
Y1068D01*
X1895Y942D02*
X1996D01*
X1895Y988D02*
X1996D01*
X1895Y942D02*
Y988D01*
X1996Y942D02*
Y988D01*
X1895Y887D02*
X1996D01*
X1895Y933D02*
X1996D01*
X1895Y887D02*
Y933D01*
X1996Y887D02*
Y933D01*
X2065Y872D02*
X2165D01*
X2065Y918D02*
X2165D01*
X2065Y872D02*
Y918D01*
X2165Y872D02*
Y918D01*
X2065Y827D02*
X2166D01*
X2065Y873D02*
X2166D01*
X2065Y827D02*
Y873D01*
X2166Y827D02*
Y873D01*
X1895Y662D02*
X1996D01*
X1895Y708D02*
X1996D01*
X1895Y662D02*
Y708D01*
X1996Y662D02*
Y708D01*
X1895Y717D02*
X1996D01*
X1895Y763D02*
X1996D01*
X1895Y717D02*
Y763D01*
X1996Y717D02*
Y763D01*
X405Y1423D02*
X516D01*
X405Y1377D02*
X516D01*
Y1423D01*
X415Y1332D02*
X516D01*
X415Y1378D02*
X516D01*
X415Y1332D02*
Y1378D01*
X516Y1332D02*
Y1378D01*
X635Y1363D02*
X746D01*
X635Y1317D02*
X746D01*
Y1363D01*
X440Y1158D02*
X541D01*
X440Y1112D02*
X541D01*
Y1158D01*
X440Y1112D02*
Y1158D01*
X272Y1630D02*
Y1741D01*
X318Y1630D02*
Y1741D01*
X272D02*
X318D01*
X484Y1522D02*
X595D01*
X484Y1568D02*
X595D01*
X484Y1522D02*
Y1568D01*
X250Y497D02*
X350D01*
X250Y543D02*
X350D01*
X250Y497D02*
Y543D01*
X350Y497D02*
Y543D01*
X1145Y317D02*
X1246D01*
X1145Y363D02*
X1246D01*
X1145Y317D02*
Y363D01*
X1246Y317D02*
Y363D01*
X1955D02*
X2056D01*
X1955Y317D02*
X2056D01*
Y363D01*
X1955Y317D02*
Y363D01*
X2180Y452D02*
X2281D01*
X2180Y498D02*
X2281D01*
X2180Y452D02*
Y498D01*
X2281Y452D02*
Y498D01*
X2539Y788D02*
X2641D01*
X2539Y742D02*
X2641D01*
Y788D01*
X2539Y742D02*
Y788D01*
Y833D02*
X2641D01*
X2539Y787D02*
X2641D01*
Y833D01*
X2539Y787D02*
Y833D01*
X2540Y878D02*
X2641D01*
X2540Y832D02*
X2641D01*
Y878D01*
X2540Y832D02*
Y878D01*
X1517Y460D02*
Y561D01*
X1563Y460D02*
Y561D01*
X1517D02*
X1563D01*
X1517Y460D02*
X1563D01*
X2190Y602D02*
X2291D01*
X2190Y648D02*
X2291D01*
X2190Y602D02*
Y648D01*
X2291Y602D02*
Y648D01*
X2190Y1143D02*
X2291D01*
X2190Y1097D02*
X2291D01*
Y1143D01*
X2190Y1097D02*
Y1143D01*
Y1088D02*
X2291D01*
X2190Y1042D02*
X2291D01*
Y1088D01*
X2190Y1042D02*
Y1088D01*
Y1033D02*
X2291D01*
X2190Y987D02*
X2291D01*
Y1033D01*
X2190Y987D02*
Y1033D01*
X660Y967D02*
X761D01*
X660Y1013D02*
X761D01*
X660Y967D02*
Y1013D01*
X761Y967D02*
Y1013D01*
X2077Y1245D02*
Y1345D01*
X2123Y1245D02*
Y1345D01*
X2077D02*
X2123D01*
X2077Y1245D02*
X2123D01*
X660Y922D02*
X761D01*
X660Y968D02*
X761D01*
X660Y922D02*
Y968D01*
X761Y922D02*
Y968D01*
X2032Y1245D02*
Y1345D01*
X2078Y1245D02*
Y1345D01*
X2032D02*
X2078D01*
X2032Y1245D02*
X2078D01*
X1987Y1245D02*
Y1346D01*
X2033Y1245D02*
Y1346D01*
X1987D02*
X2033D01*
X1987Y1245D02*
X2033D01*
X2167Y1245D02*
Y1345D01*
X2213Y1245D02*
Y1345D01*
X2167D02*
X2213D01*
X2167Y1245D02*
X2213D01*
X2122D02*
Y1345D01*
X2168Y1245D02*
Y1345D01*
X2122D02*
X2168D01*
X2122Y1245D02*
X2168D01*
X1882D02*
Y1345D01*
X1928Y1245D02*
Y1345D01*
X1882D02*
X1928D01*
X1882Y1245D02*
X1928D01*
X1482D02*
Y1345D01*
X1528Y1245D02*
Y1345D01*
X1482D02*
X1528D01*
X1482Y1245D02*
X1528D01*
X1532D02*
Y1345D01*
X1578Y1245D02*
Y1345D01*
X1532D02*
X1578D01*
X1532Y1245D02*
X1578D01*
X1582D02*
Y1345D01*
X1628Y1245D02*
Y1345D01*
X1582D02*
X1628D01*
X1582Y1245D02*
X1628D01*
X1632Y1245D02*
Y1346D01*
X1678Y1245D02*
Y1346D01*
X1632D02*
X1678D01*
X1632Y1245D02*
X1678D01*
X1682Y1245D02*
Y1345D01*
X1728Y1245D02*
Y1345D01*
X1682D02*
X1728D01*
X1682Y1245D02*
X1728D01*
X1732D02*
Y1345D01*
X1778Y1245D02*
Y1345D01*
X1732D02*
X1778D01*
X1732Y1245D02*
X1778D01*
X1782D02*
Y1345D01*
X1828Y1245D02*
Y1345D01*
X1782D02*
X1828D01*
X1782Y1245D02*
X1828D01*
X2190Y923D02*
X2291D01*
X2190Y877D02*
X2291D01*
Y923D01*
X2190Y877D02*
Y923D01*
Y813D02*
X2291D01*
X2190Y767D02*
X2291D01*
Y813D01*
X2190Y767D02*
Y813D01*
Y703D02*
X2291D01*
X2190Y657D02*
X2291D01*
Y703D01*
X2190Y657D02*
Y703D01*
X1832Y1245D02*
Y1345D01*
X1878Y1245D02*
Y1345D01*
X1832D02*
X1878D01*
X1832Y1245D02*
X1878D01*
X2190Y932D02*
X2291D01*
X2190Y978D02*
X2291D01*
X2190Y932D02*
Y978D01*
X2291Y932D02*
Y978D01*
X2190Y822D02*
X2291D01*
X2190Y868D02*
X2291D01*
X2190Y822D02*
Y868D01*
X2291Y822D02*
Y868D01*
X2190Y712D02*
X2291D01*
X2190Y758D02*
X2291D01*
X2190Y712D02*
Y758D01*
X2291Y712D02*
Y758D01*
X845Y113D02*
X946D01*
X845Y67D02*
X946D01*
Y113D01*
X845Y67D02*
Y113D01*
X250Y622D02*
X350D01*
X250Y668D02*
X350D01*
X250Y622D02*
Y668D01*
X350Y622D02*
Y668D01*
X250Y677D02*
X350D01*
X250Y723D02*
X350D01*
X250Y677D02*
Y723D01*
X350Y677D02*
Y723D01*
X250Y732D02*
X350D01*
X250Y778D02*
X350D01*
X250Y732D02*
Y778D01*
X350Y732D02*
Y778D01*
X645Y1272D02*
X746D01*
X645Y1318D02*
X746D01*
X645Y1272D02*
Y1318D01*
X746Y1272D02*
Y1318D01*
X645Y1227D02*
X746D01*
X645Y1273D02*
X746D01*
X645Y1227D02*
Y1273D01*
X746Y1227D02*
Y1273D01*
X645Y1208D02*
X746D01*
X645Y1162D02*
X746D01*
Y1208D01*
X645Y1162D02*
Y1208D01*
X679Y1783D02*
X780D01*
X679Y1737D02*
X780D01*
Y1783D01*
X679Y1737D02*
Y1783D01*
X679Y1738D02*
X780D01*
X679Y1692D02*
X780D01*
Y1738D01*
X679Y1692D02*
Y1738D01*
X679Y1647D02*
X780D01*
X679Y1693D02*
X780D01*
X679Y1647D02*
Y1693D01*
X780Y1647D02*
Y1693D01*
X250Y498D02*
X350D01*
X250Y452D02*
X350D01*
Y498D01*
X250Y452D02*
Y498D01*
X1212Y549D02*
Y650D01*
X1258Y549D02*
Y650D01*
X1212D02*
X1258D01*
X1212Y549D02*
X1258D01*
X2748Y1235D02*
Y1336D01*
X2702Y1235D02*
Y1336D01*
Y1235D02*
X2748D01*
X2702Y1336D02*
X2748D01*
X2748Y1440D02*
Y1541D01*
X2702Y1440D02*
Y1541D01*
Y1440D02*
X2748D01*
X2702Y1541D02*
X2748D01*
X2652Y1439D02*
Y1541D01*
X2698Y1439D02*
Y1541D01*
X2652D02*
X2698D01*
X2652Y1439D02*
X2698D01*
X1344Y1093D02*
X1446D01*
X1344Y1047D02*
X1446D01*
Y1093D01*
X1344Y1047D02*
Y1093D01*
X1041Y652D02*
Y698D01*
X939Y652D02*
Y698D01*
X1041D01*
X939Y652D02*
X1041D01*
X1500Y1457D02*
X1600D01*
X1500Y1503D02*
X1600D01*
X1500Y1457D02*
Y1503D01*
X1600Y1457D02*
Y1503D01*
X1500Y1507D02*
X1600D01*
X1500Y1553D02*
X1600D01*
X1500Y1507D02*
Y1553D01*
X1600Y1507D02*
Y1553D01*
X1209Y1902D02*
X1311D01*
X1209Y1948D02*
X1311D01*
X1209Y1902D02*
Y1948D01*
X1311Y1902D02*
Y1948D01*
X1209Y1947D02*
X1311D01*
X1209Y1993D02*
X1311D01*
X1209Y1947D02*
Y1993D01*
X1311Y1947D02*
Y1993D01*
X1209Y1997D02*
X1311D01*
X1209Y2043D02*
X1311D01*
X1209Y1997D02*
Y2043D01*
X1311Y1997D02*
Y2043D01*
X1860Y1953D02*
X1961D01*
X1860Y1907D02*
X1961D01*
Y1953D01*
X1860Y1907D02*
Y1953D01*
Y1998D02*
X1961D01*
X1860Y1952D02*
X1961D01*
Y1998D01*
X1860Y1952D02*
Y1998D01*
Y2043D02*
X1961D01*
X1860Y1997D02*
X1961D01*
Y2043D01*
X1860Y1997D02*
Y2043D01*
Y1852D02*
X1961D01*
X1860Y1898D02*
X1961D01*
X1860Y1852D02*
Y1898D01*
X1961Y1852D02*
Y1898D01*
X1860Y1807D02*
X1961D01*
X1860Y1853D02*
X1961D01*
X1860Y1807D02*
Y1853D01*
X1961Y1807D02*
Y1853D01*
X1985Y1718D02*
X2086D01*
X1985Y1672D02*
X2086D01*
Y1718D01*
X1985Y1672D02*
Y1718D01*
Y1808D02*
X2086D01*
X1985Y1762D02*
X2086D01*
Y1808D01*
X1985Y1762D02*
Y1808D01*
Y1763D02*
X2086D01*
X1985Y1717D02*
X2086D01*
Y1763D01*
X1985Y1717D02*
Y1763D01*
X1410Y1817D02*
X1510D01*
X1410Y1863D02*
X1510D01*
X1410Y1817D02*
Y1863D01*
X1510Y1817D02*
Y1863D01*
X1410Y1772D02*
X1510D01*
X1410Y1818D02*
X1510D01*
X1410Y1772D02*
Y1818D01*
X1510Y1772D02*
Y1818D01*
X1497Y1589D02*
Y1691D01*
X1543Y1589D02*
Y1691D01*
X1497D02*
X1543D01*
X1497Y1589D02*
X1543D01*
X1452D02*
Y1691D01*
X1498Y1589D02*
Y1691D01*
X1452D02*
X1498D01*
X1452Y1589D02*
X1498D01*
X1985Y1583D02*
X2086D01*
X1985Y1537D02*
X2086D01*
Y1583D01*
X1985Y1537D02*
Y1583D01*
X1407Y1589D02*
Y1691D01*
X1453Y1589D02*
Y1691D01*
X1407D02*
X1453D01*
X1407Y1589D02*
X1453D01*
X1828Y1355D02*
Y1456D01*
X1782Y1355D02*
Y1456D01*
Y1355D02*
X1828D01*
X1782Y1456D02*
X1828D01*
X1985Y1673D02*
X2086D01*
X1985Y1627D02*
X2086D01*
Y1673D01*
X1985Y1627D02*
Y1673D01*
X1209Y2042D02*
Y2088D01*
X1311Y2042D02*
Y2088D01*
X1209Y2042D02*
X1311D01*
X1209Y2088D02*
X1311D01*
X1961Y2042D02*
Y2088D01*
X1860Y2042D02*
Y2088D01*
X1961D01*
X1860Y2042D02*
X1961D01*
X1183Y1505D02*
Y1605D01*
X1137Y1505D02*
Y1605D01*
Y1505D02*
X1183D01*
X1137Y1605D02*
X1183D01*
X1233Y1505D02*
Y1605D01*
X1187Y1505D02*
Y1605D01*
Y1505D02*
X1233D01*
X1187Y1605D02*
X1233D01*
X1283Y1505D02*
Y1605D01*
X1237Y1505D02*
Y1605D01*
Y1505D02*
X1283D01*
X1237Y1605D02*
X1283D01*
X1333Y1505D02*
Y1605D01*
X1287Y1505D02*
Y1605D01*
Y1505D02*
X1333D01*
X1287Y1605D02*
X1333D01*
X1985Y1998D02*
X2086D01*
X1985Y1952D02*
X2086D01*
Y1998D01*
X1985Y1952D02*
Y1998D01*
Y1898D02*
X2086D01*
X1985Y1852D02*
X2086D01*
Y1898D01*
X1985Y1852D02*
Y1898D01*
Y2043D02*
X2086D01*
X1985Y1997D02*
X2086D01*
Y2043D01*
X1985Y1997D02*
Y2043D01*
Y1907D02*
X2086D01*
X1985Y1953D02*
X2086D01*
X1985Y1907D02*
Y1953D01*
X2086Y1907D02*
Y1953D01*
X1985Y1807D02*
X2086D01*
X1985Y1853D02*
X2086D01*
X1985Y1807D02*
Y1853D01*
X2086Y1807D02*
Y1853D01*
X1985Y2042D02*
X2086D01*
X1985Y2088D02*
X2086D01*
X1985Y2042D02*
Y2088D01*
X2086Y2042D02*
Y2088D01*
X2313Y1924D02*
Y2026D01*
X2267Y1924D02*
Y2026D01*
Y1924D02*
X2313D01*
X2267Y2026D02*
X2313D01*
X2319Y1882D02*
X2421D01*
X2319Y1928D02*
X2421D01*
X2319Y1882D02*
Y1928D01*
X2421Y1882D02*
Y1928D01*
X2414Y2173D02*
X2516D01*
X2414Y2127D02*
X2516D01*
Y2173D01*
X2414Y2127D02*
Y2173D01*
Y2072D02*
Y2118D01*
X2516Y2072D02*
Y2118D01*
X2414Y2072D02*
X2516D01*
X2414Y2118D02*
X2516D01*
D66*
X2796Y1350D02*
G03*
X2796Y1350I-5J0D01*
G01*
X215Y1040D02*
G03*
X215Y1040I-5J0D01*
G01*
X210Y1650D02*
G03*
X210Y1650I-5J0D01*
G01*
X2796Y1560D02*
G03*
X2796Y1560I-5J0D01*
G01*
Y1125D02*
G03*
X2796Y1125I-5J0D01*
G01*
X1124Y403D02*
G03*
X1124Y403I-5J0D01*
G01*
X405Y1798D02*
G03*
X405Y1798I-5J0D01*
G01*
X399Y545D02*
G03*
X399Y545I-5J0D01*
G01*
X1609Y1770D02*
G03*
X1609Y1770I-5J0D01*
G01*
X927Y132D02*
G03*
X927Y132I-5J0D01*
G01*
X1897Y664D02*
G03*
X1897Y664I-5J0D01*
G01*
D67*
X2877Y890D02*
G03*
X2902Y890I13J0D01*
G01*
X485Y213D02*
G03*
X485Y238I0J13D01*
G01*
X1232Y1640D02*
G03*
X1207Y1640I-13J0D01*
G01*
X402Y670D02*
G03*
X402Y720I0J25D01*
G01*
X2818Y1334D02*
X2858D01*
Y1306D02*
Y1334D01*
X2818Y1216D02*
X2858D01*
Y1244D01*
X216Y1143D02*
X267D01*
X133D02*
Y1145D01*
X216Y1077D02*
X267D01*
X133Y1075D02*
Y1077D01*
Y1145D02*
X267D01*
X133Y1075D02*
X267D01*
X1131Y103D02*
X1182D01*
X1048D02*
Y105D01*
X1131Y37D02*
X1182D01*
X1048Y35D02*
Y37D01*
Y105D02*
X1182D01*
X1048Y35D02*
X1182D01*
X29Y924D02*
X211D01*
X209Y1015D02*
X211D01*
X29D02*
X31D01*
X211Y715D02*
Y1015D01*
X29Y715D02*
Y1015D01*
Y715D02*
X31D01*
X209D02*
X211D01*
X24Y1534D02*
X206D01*
X204Y1625D02*
X206D01*
X24D02*
X26D01*
X206Y1325D02*
Y1625D01*
X24Y1325D02*
Y1625D01*
Y1325D02*
X26D01*
X204D02*
X206D01*
X2798Y690D02*
Y890D01*
Y690D02*
X2982D01*
Y890D01*
X2902D02*
X2982D01*
X2798D02*
X2877D01*
X485Y133D02*
X685D01*
Y317D01*
X485D02*
X685D01*
X485Y238D02*
Y317D01*
Y133D02*
Y213D01*
X2858Y1426D02*
Y1454D01*
X2818Y1426D02*
X2858D01*
Y1516D02*
Y1544D01*
X2818D02*
X2858D01*
Y991D02*
Y1019D01*
X2818Y991D02*
X2858D01*
Y1081D02*
Y1109D01*
X2818D02*
X2858D01*
X894Y714D02*
Y846D01*
X1096Y714D02*
Y846D01*
X1232Y1640D02*
X1312D01*
X1128D02*
X1207D01*
X1128D02*
Y1840D01*
X1312D01*
Y1640D02*
Y1840D01*
X2294Y2065D02*
X2326D01*
X2294Y2165D02*
X2326D01*
X1270Y448D02*
Y452D01*
X1120Y448D02*
Y452D01*
X460Y1788D02*
X530D01*
Y1592D02*
Y1788D01*
X460Y1592D02*
Y1788D01*
Y1592D02*
X530D01*
X536Y1301D02*
X551D01*
Y1301D02*
Y1301D01*
X536Y1179D02*
X551D01*
Y1180D01*
X429Y1301D02*
X445D01*
X429Y1301D02*
Y1301D01*
Y1179D02*
X445D01*
X429D02*
Y1180D01*
X788Y591D02*
Y799D01*
X402D02*
X788D01*
X402Y591D02*
X788D01*
X402Y720D02*
Y799D01*
Y591D02*
Y670D01*
X1921Y1759D02*
Y1776D01*
X1904D02*
X1921D01*
X1904Y1484D02*
X1921D01*
Y1501D01*
X1629Y1776D02*
X1646D01*
X1629Y1759D02*
Y1776D01*
Y1484D02*
X1646D01*
X1629D02*
Y1501D01*
X861Y264D02*
X889D01*
Y146D02*
Y264D01*
X861Y146D02*
Y264D01*
Y146D02*
X889D01*
X1867Y658D02*
Y1052D01*
X1827Y658D02*
X1867Y698D01*
X1473Y1052D02*
X1867D01*
X1473Y658D02*
X1867D01*
X1473D02*
Y1052D01*
D68*
X880Y714D02*
G03*
X880Y714I-2J0D01*
G01*
X2409Y1986D02*
G03*
X2409Y1986I-2J0D01*
G01*
X2076Y324D02*
G03*
X2076Y324I-2J0D01*
G01*
X416Y1301D02*
G03*
X416Y1301I-2J0D01*
G01*
D69*
X499Y1757D02*
G03*
X499Y1757I-8J0D01*
G01*
D70*
X453Y630D02*
G03*
X453Y630I-12J0D01*
G01*
D71*
X2775Y1655D02*
Y1755D01*
X2875Y1655D02*
Y1755D01*
X2780Y1655D02*
X3075D01*
Y1755D01*
X2780D02*
X3075D01*
X2976Y1655D02*
Y1755D01*
X2400Y1860D02*
X2500D01*
X2400Y1760D02*
X2500D01*
X2400Y1460D02*
Y1855D01*
Y1460D02*
X2500D01*
Y1855D01*
Y1860D02*
X2600D01*
X2500Y1760D02*
X2600D01*
X2500Y1460D02*
Y1855D01*
Y1460D02*
X2600D01*
Y1855D01*
M02*
