M48
;Layer_Color=9474304
;FILE_FORMAT=2:3
INCH,LZ
;TYPE=PLATED
T1F00S00C0.008
T2F00S00C0.014
T3F00S00C0.035
T4F00S00C0.039
T5F00S00C0.040
T6F00S00C0.055
T7F00S00C0.060
;TYPE=NON_PLATED
T8F00S00C0.028
T9F00S00C0.079
T10F00S00C0.125
%
T01
X00395Y0124
X00471Y01221
Y0126
X0051
Y01221
X0077Y01295
X01435Y01235
X01419Y01205
X0149Y01195
X01525
X01541Y0118
X01544Y01084
X01575Y01035
X0159Y00995
X01591Y00965
X01625Y00935
X01685Y00936
X01686Y00965
X01688Y00996
X01655Y00997
X01625Y00996
X0164Y01035
X017
X01745Y01065
X01805Y01085
X01825Y01105
X01865Y0112
X0181Y00995
X01855Y0094
X01855Y00875
X01813Y0087
X01811Y00809
X0181Y00775
X0178Y00776
X01749Y00776
X01717
X0172Y00745
X01686Y00745
X01656Y00776
X01656Y00809
X01685Y0081
X01686Y0087
X01685Y009
X01655Y00903
X01623Y00871
X01591
X0159Y009
X0156Y00902
X01528
X0148Y0087
X01455
X01465Y00925
X0145Y00985
X01494Y01
X0149Y01035
X01465Y01135
X01595Y0123
X0174
X01775Y01385
X01805Y0146
X01745Y01465
X01724Y01579
X01775
Y0163
X01826
Y01579
X01724Y0163
X01615Y016
Y0148
X01523Y01505
X01905Y0147
X0206Y0118
X02025Y0066
X02035Y0064
X0207Y00625
X02105Y00475
X02033Y00398
X01725Y00405
X01724Y00249
X01485Y00325
X01497Y00745
X01528Y00713
X01561Y00711
X0156Y00745
X01591
X0162Y00745
X01624Y00713
X01623Y00682
X01717Y00713
X01749Y00713
X0178
X01812Y00682
X01845Y00676
X0186Y00729
X01865Y00765
X0178Y00839
X01749Y00902
Y00934
X0159Y0081
X0156Y00808
Y00776
X0159Y00776
X01559Y0084
X01485Y00825
X01243Y00785
X0118Y00745
X0125Y00685
X0109Y00825
X0241Y01385
X02395Y01405
X0239Y01425
X02205Y01825
X0219Y0179
X02135Y0176
X0194Y0167
X01888Y01677
X01826Y01681
X01775
X01724
X0165Y0179
X01872Y01798
X0155Y0166
T02
X02345Y0004
X00995Y0007
X0056Y00165
X0041Y0032
X00355Y00575
X0012Y00625
X00095Y0066
X0015Y00655
X00273Y00803
X00245Y0096
Y0102
X00295Y0101
X00463Y01048
X0033Y01205
Y01275
X0014Y0128
X00085
X0011Y0124
X00245Y0157
X0024Y01635
X0029Y0161
X00465Y01545
X00493Y01453
X00555Y01345
X00605
Y01285
X0062Y01185
X00642Y00973
X0085Y00865
X0107Y0089
X01065Y01045
X0092
X00915Y00675
X0092Y00615
X0085Y00595
X00865Y0038
X0092Y0028
X01035Y00175
X01065Y0014
X0121Y0015
X01215Y002
X0127Y0017
X0113Y00325
X01055Y00555
X0129Y00505
X0135Y0046
X01345Y0056
X01325Y007
Y00735
X0132Y0086
X01315Y00905
X01315Y00955
Y00995
Y0104
Y0108
X0139Y0119
X01585
X0164
X01695Y012
X0196Y0115
X01915Y0106
X02015Y01025
Y00965
Y00925
X0202Y0084
X02045Y00775
X02085Y0075
X02145Y00795
X0209Y00585
X02178Y0052
X02073Y00445
X01945Y0045
X0187Y0055
X01875Y00795
Y00835
X0196Y01285
X0201Y01365
X02055Y0137
X021Y01375
X02075Y01485
X02125
X02175
X02145Y01225
X0219Y0119
X02155Y00295
X01978Y00298
X0199Y0014
X02085Y00135
X01835Y00175
X01545Y00215
X01565Y0025
X01515
X0153Y00435
X01585
X01355Y01425
X01358Y01485
X01388Y01612
X01095Y01545
X00757Y01618
X00765Y0135
X02315Y0096
Y0085
Y00735
X0234Y00655
X02315Y0062
X023Y00475
X02265Y0034
X0233Y002
X026Y00175
Y0025
Y00325
X0263Y005
X02525Y0055
Y0062
X02465Y0072
X0252Y00855
X02675Y0099
X0276Y00975
X0267Y01215
X0267Y0143
X0292Y0115
X02945Y00765
X0287Y00575
Y00535
Y00495
X02465Y00445
X026Y001
X02645Y0185
X0254Y0189
Y0193
X0255Y0205
X0251
X0252Y02195
X02425Y01965
X02335Y02015
X0229Y019
X0224
X02105Y0193
Y01825
Y01645
X01975Y01715
X0194Y01785
X01835Y01797
X01585Y0181
X0153Y0185
X0149Y01885
X01447Y01894
X01405Y0188
X01165Y01925
X0118Y02065
X01358Y02165
X0192Y021
X01965Y02105
X02105Y02065
X0087Y0177
Y01715
Y0166
X00344Y0164
X00335Y01755
X00295Y0176
T03
X00445Y00545
X00545
Y00845
X00445
X00645
X00745
Y00545
X00645
T04
X00116Y00102
X00294
Y00358
X00116
T05
X0245Y01
X0255
Y011
X0245
Y012
X0255
Y0134
X0245
Y0151
Y0161
X0255
Y0151
Y0171
X0245
Y0181
X0255
X02825Y01705
X02925
X03025
X01383Y01999
X0014Y01795
T06
X0075Y02085
X0167Y02085
X00165Y02075
T07
X0065Y01985
Y02185
X0085
Y01985
X0157Y01985
Y02185
X0177
Y01985
X00265Y01975
Y02175
X00065
Y01975
T08
X02905Y00975
Y012
Y01405
X03065Y0136
Y01565
Y01135
T09
X0275Y00063
T10
X00985Y0145
M30
