%FSLAX23Y23*%
%MOIN*%
G70*
G01*
G75*
G04 Layer_Color=16711935*
%ADD10C,0.012*%
%ADD11C,0.011*%
%ADD12R,0.118X0.079*%
%ADD13R,0.079X0.039*%
%ADD14R,0.030X0.030*%
%ADD15R,0.030X0.030*%
%ADD16R,0.035X0.031*%
%ADD17R,0.031X0.031*%
%ADD18R,0.044X0.058*%
%ADD19R,0.079X0.047*%
%ADD20R,0.094X0.102*%
%ADD21R,0.012X0.053*%
%ADD22R,0.071X0.075*%
%ADD23R,0.091X0.075*%
%ADD24R,0.050X0.030*%
%ADD25R,0.030X0.050*%
%ADD26R,0.008X0.027*%
%ADD27R,0.015X0.061*%
%ADD28R,0.051X0.049*%
%ADD29R,0.020X0.020*%
%ADD30R,0.130X0.173*%
%ADD31R,0.154X0.244*%
%ADD32R,0.058X0.044*%
%ADD33R,0.012X0.020*%
%ADD34R,0.012X0.019*%
%ADD35R,0.020X0.020*%
%ADD36R,0.051X0.107*%
%ADD37R,0.011X0.031*%
%ADD38R,0.055X0.047*%
%ADD39O,0.087X0.024*%
%ADD40R,0.033X0.011*%
%ADD41R,0.065X0.094*%
%ADD42R,0.024X0.010*%
%ADD43R,0.010X0.024*%
%ADD44R,0.201X0.201*%
%ADD45R,0.039X0.028*%
%ADD46C,0.009*%
%ADD47C,0.039*%
%ADD48C,0.008*%
%ADD49C,0.015*%
%ADD50C,0.010*%
%ADD51C,0.020*%
%ADD52C,0.025*%
%ADD53C,0.005*%
%ADD54C,0.006*%
%ADD55C,0.060*%
%ADD56C,0.070*%
%ADD57C,0.125*%
%ADD58C,0.090*%
%ADD59C,0.059*%
%ADD60C,0.079*%
%ADD61R,0.059X0.059*%
%ADD62C,0.031*%
%ADD63C,0.016*%
%ADD64C,0.020*%
%ADD65C,0.006*%
%ADD66C,0.010*%
%ADD67C,0.008*%
%ADD68C,0.004*%
%ADD69C,0.016*%
%ADD70C,0.024*%
%ADD71C,0.016*%
%ADD72R,0.120X0.081*%
%ADD73R,0.081X0.041*%
%ADD74R,0.032X0.032*%
%ADD75R,0.032X0.032*%
%ADD76R,0.037X0.033*%
%ADD77R,0.033X0.033*%
%ADD78R,0.046X0.060*%
%ADD79R,0.081X0.049*%
%ADD80R,0.096X0.104*%
%ADD81R,0.014X0.055*%
%ADD82R,0.073X0.077*%
%ADD83R,0.093X0.077*%
%ADD84R,0.052X0.032*%
%ADD85R,0.032X0.052*%
%ADD86R,0.010X0.029*%
%ADD87R,0.017X0.063*%
%ADD88R,0.053X0.051*%
%ADD89R,0.022X0.022*%
%ADD90R,0.132X0.175*%
%ADD91R,0.156X0.246*%
%ADD92R,0.060X0.046*%
%ADD93R,0.016X0.024*%
%ADD94R,0.016X0.023*%
%ADD95R,0.022X0.022*%
%ADD96R,0.053X0.109*%
%ADD97R,0.013X0.033*%
%ADD98R,0.057X0.049*%
%ADD99O,0.089X0.026*%
%ADD100R,0.035X0.013*%
%ADD101R,0.067X0.096*%
%ADD102R,0.203X0.203*%
%ADD103R,0.041X0.030*%
%ADD104C,0.011*%
%ADD105C,0.118*%
%ADD106C,0.002*%
%ADD107C,0.062*%
%ADD108C,0.072*%
%ADD109C,0.127*%
%ADD110C,0.092*%
%ADD111C,0.061*%
%ADD112R,0.061X0.061*%
D106*
X2905Y1200D02*
D03*
X3065Y1360D02*
D03*
X2905Y975D02*
D03*
X3065Y1135D02*
D03*
X2905Y1405D02*
D03*
X3065Y1565D02*
D03*
D107*
X3025Y1705D02*
D03*
X2825D02*
D03*
X2925D02*
D03*
X2450Y1610D02*
D03*
Y1510D02*
D03*
Y1810D02*
D03*
Y1710D02*
D03*
X2550Y1610D02*
D03*
Y1510D02*
D03*
Y1810D02*
D03*
Y1710D02*
D03*
D108*
Y1340D02*
D03*
X2450D02*
D03*
Y1000D02*
D03*
X2550D02*
D03*
X2450Y1100D02*
D03*
X2550D02*
D03*
X2450Y1200D02*
D03*
X2550D02*
D03*
X140Y1795D02*
D03*
X1383Y1999D02*
D03*
D109*
X985Y1450D02*
D03*
D110*
X750Y2085D02*
D03*
X850Y2185D02*
D03*
X650D02*
D03*
Y1985D02*
D03*
X850D02*
D03*
X1670Y2085D02*
D03*
X1770Y2185D02*
D03*
X1570D02*
D03*
Y1985D02*
D03*
X1770D02*
D03*
X165Y2075D02*
D03*
X265Y2175D02*
D03*
X65D02*
D03*
Y1975D02*
D03*
X265D02*
D03*
D111*
X294Y102D02*
D03*
X116D02*
D03*
Y358D02*
D03*
X294D02*
D03*
X745Y845D02*
D03*
X645D02*
D03*
X545D02*
D03*
X745Y545D02*
D03*
X545D02*
D03*
X645D02*
D03*
X445Y845D02*
D03*
D112*
Y545D02*
D03*
M02*
