%FSLAX23Y23*%
%MOIN*%
G70*
G01*
G75*
G04 Layer_Physical_Order=4*
G04 Layer_Color=16711680*
%ADD10C,0.012*%
%ADD11C,0.011*%
%ADD12R,0.118X0.079*%
%ADD13R,0.079X0.039*%
%ADD14R,0.030X0.030*%
%ADD15R,0.030X0.030*%
%ADD16R,0.035X0.031*%
%ADD17R,0.031X0.031*%
%ADD18R,0.044X0.058*%
%ADD19R,0.079X0.047*%
%ADD20R,0.094X0.102*%
%ADD21R,0.012X0.053*%
%ADD22R,0.071X0.075*%
%ADD23R,0.091X0.075*%
%ADD24R,0.050X0.030*%
%ADD25R,0.030X0.050*%
%ADD26R,0.008X0.027*%
%ADD27R,0.015X0.061*%
%ADD28R,0.051X0.049*%
%ADD29R,0.020X0.020*%
%ADD30R,0.130X0.173*%
%ADD31R,0.154X0.244*%
%ADD32R,0.058X0.044*%
%ADD33R,0.012X0.020*%
%ADD34R,0.012X0.019*%
%ADD35R,0.020X0.020*%
%ADD36R,0.051X0.107*%
%ADD37R,0.011X0.031*%
%ADD38R,0.055X0.047*%
%ADD39O,0.087X0.024*%
%ADD40R,0.033X0.011*%
%ADD41R,0.065X0.094*%
%ADD42R,0.024X0.010*%
%ADD43R,0.010X0.024*%
%ADD44R,0.201X0.201*%
%ADD45R,0.039X0.028*%
%ADD46C,0.009*%
%ADD47C,0.039*%
%ADD48C,0.008*%
%ADD49C,0.015*%
%ADD50C,0.010*%
%ADD51C,0.020*%
%ADD52C,0.025*%
%ADD53C,0.005*%
%ADD54C,0.006*%
%ADD55C,0.060*%
%ADD56C,0.070*%
%ADD57C,0.125*%
%ADD58C,0.090*%
%ADD59C,0.059*%
%ADD60C,0.079*%
%ADD61R,0.059X0.059*%
%ADD62C,0.031*%
%ADD63C,0.016*%
%ADD64C,0.020*%
%ADD65C,0.006*%
G36*
X3055Y1720D02*
Y1660D01*
Y1582D01*
X3051Y1579D01*
X3046Y1573D01*
X3045Y1565D01*
X3046Y1557D01*
X3051Y1551D01*
X3055Y1548D01*
Y1377D01*
X3051Y1374D01*
X3046Y1368D01*
X3045Y1360D01*
X3046Y1352D01*
X3051Y1346D01*
X3055Y1343D01*
Y1152D01*
X3051Y1149D01*
X3046Y1143D01*
X3045Y1135D01*
X3046Y1127D01*
X3051Y1121D01*
X3055Y1118D01*
X3055Y460D01*
X2814Y219D01*
X2804Y214D01*
X2794Y206D01*
X2786Y196D01*
X2781Y186D01*
X2625Y30D01*
X2370D01*
X2366Y35D01*
X2367Y40D01*
X2365Y48D01*
X2361Y56D01*
X2353Y60D01*
X2345Y62D01*
X2337Y60D01*
X2329Y56D01*
X2325Y48D01*
X2323Y40D01*
X2324Y35D01*
X2320Y30D01*
X2105D01*
X2015D01*
X1845Y200D01*
X1566D01*
X1564Y204D01*
X1565Y207D01*
X1567Y215D01*
X1565Y223D01*
X1568Y229D01*
X1573Y230D01*
X1581Y235D01*
X1585Y242D01*
X1587Y250D01*
X1585Y258D01*
X1581Y266D01*
X1573Y270D01*
X1565Y272D01*
X1557Y270D01*
X1549Y266D01*
X1545Y258D01*
X1543Y250D01*
X1545Y242D01*
X1542Y236D01*
X1537Y235D01*
X1536Y236D01*
X1534Y239D01*
X1535Y242D01*
X1537Y250D01*
X1535Y258D01*
X1531Y266D01*
X1523Y270D01*
X1515Y272D01*
X1507Y270D01*
X1500Y266D01*
X1495Y258D01*
X1493Y250D01*
X1495Y242D01*
X1500Y235D01*
X1507Y230D01*
X1515Y228D01*
X1523Y230D01*
X1524Y229D01*
X1526Y226D01*
X1525Y223D01*
X1523Y215D01*
X1525Y207D01*
X1526Y204D01*
X1524Y200D01*
X1365D01*
X1220Y345D01*
X1139D01*
X1138Y345D01*
X1130Y347D01*
X1122Y345D01*
X1114Y341D01*
X1110Y333D01*
X1108Y325D01*
X1110Y317D01*
X1110Y316D01*
Y220D01*
X1230D01*
X1255D01*
X1275Y200D01*
Y165D01*
Y155D01*
X1245Y125D01*
X655Y125D01*
X220Y560D01*
Y1675D01*
X236Y1696D01*
X242Y1700D01*
X310Y1700D01*
X340Y1670D01*
X340Y591D01*
X340Y591D01*
X335Y583D01*
X333Y575D01*
X335Y567D01*
X340Y559D01*
X347Y555D01*
X355Y553D01*
X363Y555D01*
X368Y557D01*
X409Y516D01*
Y509D01*
X416D01*
X705Y220D01*
X980Y220D01*
X980Y355D01*
X1060Y435D01*
X1355Y435D01*
X1475Y315D01*
X1477D01*
X1480Y313D01*
X1485Y312D01*
X1490Y313D01*
X1493Y315D01*
X1860D01*
X2060Y115D01*
X2076D01*
X2077Y115D01*
X2085Y113D01*
X2093Y115D01*
X2094Y115D01*
X2540D01*
X2584Y159D01*
X2584D01*
X2592Y155D01*
X2600Y153D01*
X2608Y155D01*
X2616Y159D01*
X2620Y167D01*
X2622Y175D01*
X2620Y183D01*
X2616Y191D01*
X2960Y535D01*
Y749D01*
X2961Y749D01*
X2965Y757D01*
X2967Y765D01*
X2965Y773D01*
X2961Y780D01*
X2960Y781D01*
Y1630D01*
X2995Y1665D01*
Y1720D01*
X3010Y1735D01*
X3040D01*
X3055Y1720D01*
D02*
G37*
G36*
X2835Y1735D02*
X2885Y1685D01*
X2885Y1407D01*
X2885Y1405D01*
X2885Y1403D01*
X2885Y1202D01*
X2885Y1200D01*
X2885Y1198D01*
X2885Y977D01*
X2885Y975D01*
X2885Y973D01*
X2885Y490D01*
X2870Y475D01*
X2775Y475D01*
X2760Y490D01*
X2760Y515D01*
X2815Y570D01*
X2815Y1630D01*
X2790Y1655D01*
X2790Y1715D01*
X2810Y1735D01*
X2835Y1735D01*
D02*
G37*
G36*
X2955Y1745D02*
Y1695D01*
X2948Y1688D01*
X2943Y1690D01*
Y1699D01*
X2942Y1704D01*
X2940Y1708D01*
X2934Y1714D01*
X2930Y1716D01*
X2925Y1717D01*
X2920Y1716D01*
X2916Y1714D01*
X2914Y1710D01*
X2913Y1705D01*
X2914Y1700D01*
X2916Y1696D01*
X2919Y1694D01*
Y1678D01*
X2914Y1676D01*
X2595Y1995D01*
X2545D01*
X2485Y2055D01*
X2485Y2065D01*
X2495Y2075D01*
X2625D01*
X2955Y1745D01*
D02*
G37*
G36*
X2800Y1615D02*
X2800Y595D01*
X2690Y485D01*
X2535D01*
X2510Y510D01*
Y675D01*
X2605Y770D01*
Y1340D01*
X2587Y1358D01*
X2586Y1361D01*
X2579Y1369D01*
X2571Y1376D01*
X2568Y1377D01*
X2484Y1461D01*
Y1466D01*
X2513Y1495D01*
X2518Y1494D01*
X2519Y1492D01*
X2524Y1484D01*
X2532Y1479D01*
X2541Y1475D01*
X2550Y1474D01*
X2559Y1475D01*
X2568Y1479D01*
X2576Y1484D01*
X2581Y1492D01*
X2585Y1501D01*
X2586Y1510D01*
X2585Y1519D01*
X2581Y1528D01*
X2576Y1536D01*
X2568Y1541D01*
X2559Y1545D01*
X2550Y1546D01*
X2541Y1545D01*
X2532Y1541D01*
X2524Y1536D01*
X2519Y1528D01*
X2515Y1519D01*
X2515Y1519D01*
X2512Y1518D01*
X2509Y1516D01*
X2488Y1496D01*
X2484Y1499D01*
X2485Y1501D01*
X2486Y1510D01*
X2485Y1519D01*
X2481Y1528D01*
X2476Y1536D01*
X2468Y1541D01*
X2459Y1545D01*
X2450Y1546D01*
X2441Y1545D01*
X2432Y1541D01*
X2424Y1536D01*
X2419Y1528D01*
X2415Y1519D01*
X2414Y1510D01*
X2414Y1505D01*
X2410Y1500D01*
X2191Y1500D01*
X2191Y1501D01*
X2183Y1505D01*
X2175Y1507D01*
X2167Y1505D01*
X2159Y1501D01*
X2159Y1500D01*
X2141D01*
X2141Y1501D01*
X2133Y1505D01*
X2125Y1507D01*
X2117Y1505D01*
X2109Y1501D01*
X2109Y1500D01*
X2091D01*
X2091Y1501D01*
X2083Y1505D01*
X2075Y1507D01*
X2067Y1505D01*
X2059Y1501D01*
X2059Y1500D01*
X1889D01*
X1887Y1502D01*
X1884Y1504D01*
X1880Y1505D01*
X1724D01*
X1628Y1601D01*
X1627Y1605D01*
X1624Y1609D01*
X1620Y1612D01*
X1615Y1613D01*
X1610Y1612D01*
X1606Y1609D01*
X1603Y1605D01*
X1602Y1600D01*
X1603Y1595D01*
X1606Y1591D01*
X1610Y1588D01*
X1614Y1587D01*
X1696Y1505D01*
X1694Y1500D01*
X1539D01*
X1536Y1504D01*
X1536Y1505D01*
X1535Y1510D01*
X1532Y1514D01*
X1528Y1517D01*
X1523Y1518D01*
X1517Y1517D01*
X1513Y1514D01*
X1510Y1510D01*
X1509Y1505D01*
X1509Y1504D01*
X1506Y1500D01*
X1422D01*
X1369Y1554D01*
X1365Y1556D01*
X1360Y1557D01*
X1113D01*
X1111Y1561D01*
X1103Y1565D01*
X1095Y1567D01*
X1087Y1565D01*
X1079Y1561D01*
X1075Y1553D01*
X1073Y1545D01*
X1075Y1537D01*
X1079Y1529D01*
X1087Y1525D01*
X1095Y1523D01*
X1103Y1525D01*
X1111Y1529D01*
X1113Y1533D01*
X1355D01*
X1383Y1505D01*
X1381Y1500D01*
X1373D01*
X1373Y1501D01*
X1366Y1505D01*
X1358Y1507D01*
X1349Y1505D01*
X1342Y1501D01*
X1342Y1500D01*
X1032Y1500D01*
X1023Y1507D01*
X1011Y1514D01*
X998Y1518D01*
X985Y1519D01*
X972Y1518D01*
X959Y1514D01*
X957Y1513D01*
X837Y1633D01*
Y1782D01*
X855Y1800D01*
X1566D01*
X1569Y1794D01*
X1577Y1790D01*
X1585Y1788D01*
X1593Y1790D01*
X1601Y1794D01*
X1604Y1800D01*
X1635D01*
X1638Y1795D01*
X1637Y1790D01*
X1638Y1785D01*
X1641Y1781D01*
X1645Y1778D01*
X1649Y1777D01*
X1678Y1748D01*
X1681Y1746D01*
X1685Y1745D01*
X1836D01*
X1886Y1695D01*
X1884Y1689D01*
X1883Y1689D01*
X1879Y1686D01*
X1876Y1682D01*
X1875Y1677D01*
X1876Y1672D01*
X1879Y1667D01*
X1883Y1665D01*
X1887Y1664D01*
X1905Y1646D01*
X1908Y1644D01*
X1912Y1643D01*
X2053D01*
X2057Y1644D01*
X2060Y1646D01*
X2191Y1777D01*
X2195Y1778D01*
X2199Y1781D01*
X2202Y1785D01*
X2203Y1790D01*
X2202Y1795D01*
X2205Y1800D01*
X2415D01*
X2419Y1792D01*
X2424Y1784D01*
X2432Y1779D01*
X2441Y1775D01*
X2450Y1774D01*
X2459Y1775D01*
X2468Y1779D01*
X2476Y1784D01*
X2481Y1792D01*
X2485Y1800D01*
X2515D01*
X2519Y1792D01*
X2524Y1784D01*
X2532Y1779D01*
X2541Y1775D01*
X2550Y1774D01*
X2559Y1775D01*
X2568Y1779D01*
X2576Y1784D01*
X2581Y1792D01*
X2585Y1800D01*
X2615D01*
X2800Y1615D01*
D02*
G37*
%LPC*%
G36*
X2670Y1237D02*
X2662Y1235D01*
X2655Y1231D01*
X2650Y1223D01*
X2648Y1215D01*
X2650Y1207D01*
X2655Y1199D01*
X2662Y1195D01*
X2670Y1193D01*
X2678Y1195D01*
X2686Y1199D01*
X2690Y1207D01*
X2692Y1215D01*
X2690Y1223D01*
X2686Y1231D01*
X2678Y1235D01*
X2670Y1237D01*
D02*
G37*
G36*
X2670Y1452D02*
X2662Y1450D01*
X2654Y1446D01*
X2650Y1438D01*
X2648Y1430D01*
X2650Y1422D01*
X2654Y1414D01*
X2662Y1410D01*
X2670Y1408D01*
X2678Y1410D01*
X2686Y1414D01*
X2690Y1422D01*
X2692Y1430D01*
X2690Y1438D01*
X2686Y1446D01*
X2678Y1450D01*
X2670Y1452D01*
D02*
G37*
G36*
X1826Y1595D02*
X1820Y1594D01*
X1815Y1590D01*
X1811Y1585D01*
X1810Y1579D01*
X1811Y1573D01*
X1815Y1567D01*
X1820Y1564D01*
X1826Y1563D01*
X1832Y1564D01*
X1838Y1567D01*
X1841Y1573D01*
X1842Y1579D01*
X1841Y1585D01*
X1838Y1590D01*
X1832Y1594D01*
X1826Y1595D01*
D02*
G37*
G36*
X1775D02*
X1769Y1594D01*
X1764Y1590D01*
X1760Y1585D01*
X1759Y1579D01*
X1760Y1573D01*
X1764Y1567D01*
X1769Y1564D01*
X1775Y1563D01*
X1781Y1564D01*
X1786Y1567D01*
X1790Y1573D01*
X1791Y1579D01*
X1790Y1585D01*
X1786Y1590D01*
X1781Y1594D01*
X1775Y1595D01*
D02*
G37*
G36*
X1724D02*
X1718Y1594D01*
X1712Y1590D01*
X1709Y1585D01*
X1708Y1579D01*
X1709Y1573D01*
X1712Y1567D01*
X1718Y1564D01*
X1724Y1563D01*
X1730Y1564D01*
X1735Y1567D01*
X1739Y1573D01*
X1740Y1579D01*
X1739Y1585D01*
X1735Y1590D01*
X1730Y1594D01*
X1724Y1595D01*
D02*
G37*
G36*
X2675Y1012D02*
X2667Y1010D01*
X2659Y1006D01*
X2655Y998D01*
X2653Y990D01*
X2655Y982D01*
X2659Y975D01*
X2667Y970D01*
X2675Y968D01*
X2683Y970D01*
X2691Y975D01*
X2695Y982D01*
X2697Y990D01*
X2695Y998D01*
X2691Y1006D01*
X2683Y1010D01*
X2675Y1012D01*
D02*
G37*
G36*
X1990Y162D02*
X1981Y160D01*
X1974Y156D01*
X1970Y148D01*
X1968Y140D01*
X1970Y132D01*
X1974Y124D01*
X1981Y120D01*
X1990Y118D01*
X1998Y120D01*
X2005Y124D01*
X2010Y132D01*
X2012Y140D01*
X2010Y148D01*
X2005Y156D01*
X1998Y160D01*
X1990Y162D01*
D02*
G37*
G36*
X2600Y122D02*
X2592Y120D01*
X2584Y116D01*
X2580Y108D01*
X2578Y100D01*
X2580Y92D01*
X2584Y84D01*
X2592Y80D01*
X2600Y78D01*
X2608Y80D01*
X2616Y84D01*
X2620Y92D01*
X2622Y100D01*
X2620Y108D01*
X2616Y116D01*
X2608Y120D01*
X2600Y122D01*
D02*
G37*
G36*
X1724Y262D02*
X1718Y261D01*
X1714Y258D01*
X1711Y254D01*
X1710Y249D01*
X1711Y243D01*
X1714Y239D01*
X1718Y236D01*
X1724Y235D01*
X1729Y236D01*
X1733Y239D01*
X1736Y243D01*
X1737Y249D01*
X1736Y254D01*
X1733Y258D01*
X1729Y261D01*
X1724Y262D01*
D02*
G37*
G36*
X2760Y997D02*
X2752Y995D01*
X2744Y991D01*
X2740Y983D01*
X2738Y975D01*
X2740Y967D01*
X2744Y959D01*
X2752Y955D01*
X2760Y953D01*
X2768Y955D01*
X2776Y959D01*
X2780Y967D01*
X2782Y975D01*
X2780Y983D01*
X2776Y991D01*
X2768Y995D01*
X2760Y997D01*
D02*
G37*
G36*
X273Y824D02*
X264Y823D01*
X257Y818D01*
X252Y811D01*
X251Y803D01*
X252Y794D01*
X257Y787D01*
X264Y782D01*
X273Y781D01*
X281Y782D01*
X288Y787D01*
X293Y794D01*
X294Y803D01*
X293Y811D01*
X288Y818D01*
X281Y823D01*
X273Y824D01*
D02*
G37*
G36*
X1775Y1697D02*
X1769Y1696D01*
X1764Y1693D01*
X1760Y1687D01*
X1759Y1681D01*
X1760Y1675D01*
X1764Y1670D01*
X1769Y1666D01*
X1775Y1665D01*
X1781Y1666D01*
X1786Y1670D01*
X1790Y1675D01*
X1791Y1681D01*
X1790Y1687D01*
X1786Y1693D01*
X1781Y1696D01*
X1775Y1697D01*
D02*
G37*
G36*
X1724D02*
X1718Y1696D01*
X1712Y1693D01*
X1709Y1687D01*
X1708Y1681D01*
X1709Y1675D01*
X1712Y1670D01*
X1718Y1666D01*
X1724Y1665D01*
X1730Y1666D01*
X1735Y1670D01*
X1739Y1675D01*
X1740Y1681D01*
X1739Y1687D01*
X1735Y1693D01*
X1730Y1696D01*
X1724Y1697D01*
D02*
G37*
G36*
X1550Y1673D02*
X1545Y1672D01*
X1541Y1669D01*
X1538Y1665D01*
X1537Y1660D01*
X1538Y1655D01*
X1541Y1651D01*
X1545Y1648D01*
X1550Y1647D01*
X1555Y1648D01*
X1559Y1651D01*
X1562Y1655D01*
X1563Y1660D01*
X1562Y1665D01*
X1559Y1669D01*
X1555Y1672D01*
X1550Y1673D01*
D02*
G37*
G36*
X2550Y1746D02*
X2541Y1745D01*
X2532Y1741D01*
X2524Y1736D01*
X2519Y1728D01*
X2515Y1719D01*
X2514Y1710D01*
X2515Y1701D01*
X2519Y1692D01*
X2524Y1684D01*
X2532Y1679D01*
X2541Y1675D01*
X2550Y1674D01*
X2559Y1675D01*
X2568Y1679D01*
X2576Y1684D01*
X2581Y1692D01*
X2585Y1701D01*
X2586Y1710D01*
X2585Y1719D01*
X2581Y1728D01*
X2576Y1736D01*
X2568Y1741D01*
X2559Y1745D01*
X2550Y1746D01*
D02*
G37*
G36*
X2450D02*
X2441Y1745D01*
X2432Y1741D01*
X2424Y1736D01*
X2419Y1728D01*
X2415Y1719D01*
X2414Y1710D01*
X2415Y1701D01*
X2419Y1692D01*
X2424Y1684D01*
X2432Y1679D01*
X2441Y1675D01*
X2450Y1674D01*
X2459Y1675D01*
X2468Y1679D01*
X2476Y1684D01*
X2481Y1692D01*
X2485Y1701D01*
X2486Y1710D01*
X2485Y1719D01*
X2481Y1728D01*
X2476Y1736D01*
X2468Y1741D01*
X2459Y1745D01*
X2450Y1746D01*
D02*
G37*
G36*
X1826Y1697D02*
X1820Y1696D01*
X1815Y1693D01*
X1811Y1687D01*
X1810Y1681D01*
X1811Y1675D01*
X1815Y1670D01*
X1820Y1666D01*
X1826Y1665D01*
X1832Y1666D01*
X1838Y1670D01*
X1841Y1675D01*
X1842Y1681D01*
X1841Y1687D01*
X1838Y1693D01*
X1832Y1696D01*
X1826Y1697D01*
D02*
G37*
G36*
X2105Y1667D02*
X2097Y1665D01*
X2089Y1661D01*
X2085Y1653D01*
X2083Y1645D01*
X2085Y1637D01*
X2089Y1629D01*
X2097Y1625D01*
X2105Y1623D01*
X2113Y1625D01*
X2121Y1629D01*
X2125Y1637D01*
X2127Y1645D01*
X2125Y1653D01*
X2121Y1661D01*
X2113Y1665D01*
X2105Y1667D01*
D02*
G37*
G36*
X1388Y1634D02*
X1379Y1633D01*
X1372Y1628D01*
X1367Y1621D01*
X1366Y1612D01*
X1367Y1604D01*
X1372Y1597D01*
X1379Y1592D01*
X1388Y1591D01*
X1396Y1592D01*
X1403Y1597D01*
X1408Y1604D01*
X1409Y1612D01*
X1408Y1621D01*
X1403Y1628D01*
X1396Y1633D01*
X1388Y1634D01*
D02*
G37*
G36*
X2550Y1646D02*
X2541Y1645D01*
X2532Y1641D01*
X2524Y1636D01*
X2519Y1628D01*
X2515Y1619D01*
X2514Y1610D01*
X2515Y1601D01*
X2519Y1592D01*
X2524Y1584D01*
X2532Y1579D01*
X2541Y1575D01*
X2550Y1574D01*
X2559Y1575D01*
X2568Y1579D01*
X2576Y1584D01*
X2581Y1592D01*
X2585Y1601D01*
X2586Y1610D01*
X2585Y1619D01*
X2581Y1628D01*
X2576Y1636D01*
X2568Y1641D01*
X2559Y1645D01*
X2550Y1646D01*
D02*
G37*
G36*
X2450D02*
X2441Y1645D01*
X2432Y1641D01*
X2424Y1636D01*
X2419Y1628D01*
X2415Y1619D01*
X2414Y1610D01*
X2415Y1601D01*
X2419Y1592D01*
X2424Y1584D01*
X2432Y1579D01*
X2441Y1575D01*
X2450Y1574D01*
X2459Y1575D01*
X2468Y1579D01*
X2476Y1584D01*
X2481Y1592D01*
X2485Y1601D01*
X2486Y1610D01*
X2485Y1619D01*
X2481Y1628D01*
X2476Y1636D01*
X2468Y1641D01*
X2459Y1645D01*
X2450Y1646D01*
D02*
G37*
G36*
X1826Y1646D02*
X1820Y1645D01*
X1815Y1641D01*
X1811Y1636D01*
X1810Y1630D01*
X1811Y1624D01*
X1815Y1619D01*
X1820Y1615D01*
X1826Y1614D01*
X1832Y1615D01*
X1838Y1619D01*
X1841Y1624D01*
X1842Y1630D01*
X1841Y1636D01*
X1838Y1641D01*
X1832Y1645D01*
X1826Y1646D01*
D02*
G37*
G36*
X1775D02*
X1769Y1645D01*
X1764Y1641D01*
X1760Y1636D01*
X1759Y1630D01*
X1760Y1624D01*
X1764Y1619D01*
X1769Y1615D01*
X1775Y1614D01*
X1781Y1615D01*
X1786Y1619D01*
X1790Y1624D01*
X1791Y1630D01*
X1790Y1636D01*
X1786Y1641D01*
X1781Y1645D01*
X1775Y1646D01*
D02*
G37*
G36*
X1724D02*
X1718Y1645D01*
X1712Y1641D01*
X1709Y1636D01*
X1708Y1630D01*
X1709Y1624D01*
X1712Y1619D01*
X1718Y1615D01*
X1724Y1614D01*
X1730Y1615D01*
X1735Y1619D01*
X1739Y1624D01*
X1740Y1630D01*
X1739Y1636D01*
X1735Y1641D01*
X1730Y1645D01*
X1724Y1646D01*
D02*
G37*
%LPD*%
D10*
X1958Y1145D02*
G03*
X1970Y1150I0J17D01*
G01*
X855Y1820D02*
X1575D01*
X1585Y1810D01*
X1535Y1850D02*
X1538Y1852D01*
X837D02*
X1538D01*
X2931Y1161D02*
Y1699D01*
X2920Y1150D02*
X2931Y1161D01*
X2925Y1705D02*
X2931Y1699D01*
X1755Y95D02*
X1835Y175D01*
X1310Y98D02*
X1755Y95D01*
X1835Y175D02*
X1835D01*
X2125Y1190D02*
X2195D01*
X2115Y1200D02*
X2125Y1190D01*
X1785Y1200D02*
X2115D01*
X1765Y1220D02*
X2145D01*
X2100Y1375D02*
Y1395D01*
X2060Y1435D02*
X2100Y1395D01*
X2055Y1370D02*
Y1380D01*
X2025Y1410D02*
X2055Y1380D01*
X825Y1790D02*
X855Y1820D01*
X1530Y1850D02*
X1535D01*
X825Y925D02*
Y1790D01*
X1907Y1715D02*
X1975D01*
X1835Y1787D02*
X1907Y1715D01*
X1835Y1787D02*
Y1797D01*
Y1790D02*
Y1797D01*
X795Y1810D02*
X837Y1852D01*
X1433Y1410D02*
X2025D01*
X1358Y1485D02*
X1433Y1410D01*
X1470Y1435D02*
X2060D01*
X1360Y1545D02*
X1470Y1435D01*
X795Y995D02*
Y1810D01*
X645Y845D02*
X795Y995D01*
X745Y845D02*
X825Y925D01*
X1656Y1071D02*
X1785Y1200D01*
X395Y1240D02*
X437Y1199D01*
X519D01*
X561Y1240D01*
X715D01*
X770Y1295D01*
X410Y235D02*
Y320D01*
Y235D02*
X548Y98D01*
X1310D01*
X1700Y1035D02*
Y1070D01*
X1355Y1425D02*
X1360D01*
X1875Y835D02*
Y1020D01*
X1915Y1060D01*
Y1145D01*
X1700Y1070D02*
X1795Y1165D01*
X1895D01*
X1915Y1145D01*
X1625Y1080D02*
X1765Y1220D01*
X850Y595D02*
Y610D01*
X915Y675D01*
X1435Y890D02*
X1455Y870D01*
X1435Y890D02*
Y970D01*
X1450Y985D01*
X1915Y1145D02*
X1958D01*
X1360Y1425D02*
X1420Y1365D01*
X2010D01*
X1095Y1545D02*
X1360D01*
D48*
X1395Y1999D02*
X1447Y1947D01*
Y1894D02*
Y1947D01*
X1383Y1999D02*
X1395D01*
X2190Y1850D02*
X2645D01*
X2030Y1689D02*
X2190Y1850D01*
X1906Y1689D02*
X2030D01*
X1650Y1790D02*
X1685Y1755D01*
X1877Y1453D02*
X2148D01*
X1615Y1480D02*
X1630Y1465D01*
X1745D01*
X1685Y1755D02*
X1840D01*
X1906Y1689D01*
X1940Y1670D02*
X2045D01*
X2135Y1760D01*
X2053Y1653D02*
X2190Y1790D01*
X1757Y1477D02*
X1853D01*
X1745Y1465D02*
X1757Y1477D01*
X1853D02*
X1877Y1453D01*
X1615Y1600D02*
X1720Y1495D01*
X1880D01*
X1905Y1470D01*
X1888Y1677D02*
X1912Y1653D01*
X2053D01*
X2175Y1485D02*
X2180D01*
X2148Y1453D02*
X2180Y1485D01*
D50*
X1130Y325D02*
X1135D01*
X1200Y260D01*
X1265D01*
X1310Y215D01*
Y98D02*
Y215D01*
D51*
X1490Y1885D02*
Y1983D01*
X1408Y2065D02*
X1490Y1983D01*
X1180Y2065D02*
X1408D01*
X1623Y597D02*
X2085Y135D01*
X1623Y597D02*
Y682D01*
X2081Y807D02*
X2207Y680D01*
X1987Y807D02*
X2081D01*
X2207Y680D02*
X2315D01*
X2340Y655D01*
X1975Y795D02*
X1987Y807D01*
X1875Y795D02*
X1975D01*
X1920Y2100D02*
X1975Y2045D01*
D52*
X1490Y1885D02*
X1940D01*
X1030Y460D02*
X1350D01*
X910Y340D02*
X1030Y460D01*
X845Y340D02*
X910D01*
X810Y375D02*
X845Y340D01*
X810Y375D02*
Y725D01*
X1273Y1188D01*
X1940Y1785D02*
Y2010D01*
X2020Y2055D02*
X2111Y1964D01*
X1985Y2055D02*
X2020D01*
X2111Y1964D02*
X2274D01*
X2540Y1890D02*
Y1930D01*
X2274Y1964D02*
X2308Y1930D01*
X2540D01*
X1275Y1190D02*
X1390D01*
Y1255D01*
X1420Y1285D01*
X1960D01*
X865Y380D02*
Y470D01*
X1220Y825D01*
X1485D01*
X1940Y2010D02*
X1975Y2045D01*
X1985Y2055D01*
D53*
X1640Y761D02*
G03*
X1656Y776I0J16D01*
G01*
X1312Y761D02*
G03*
X1250Y698I0J-62D01*
G01*
X1686Y729D02*
G03*
X1710Y670I83J0D01*
G01*
X1858Y523D02*
G03*
X1972Y475I115J115D01*
G01*
X1645Y735D02*
G03*
X1621Y745I-24J-24D01*
G01*
X1655Y711D02*
G03*
X1677Y658I74J0D01*
G01*
X1655Y711D02*
G03*
X1645Y735I-34J0D01*
G01*
X1908Y427D02*
G03*
X1979Y398I71J71D01*
G01*
X1545Y600D02*
Y730D01*
X1485Y540D02*
X1545Y600D01*
X1485Y325D02*
Y540D01*
X1794Y1185D02*
X2055D01*
X2060Y1180D01*
X2394Y1404D02*
X2395Y1405D01*
X2379Y620D02*
Y1414D01*
X2368Y625D02*
Y1428D01*
X2379Y1414D02*
X2390Y1425D01*
X2368Y1428D02*
X2400Y1460D01*
X2394Y620D02*
Y1404D01*
X2407Y1382D02*
X2410Y1385D01*
X2407Y617D02*
Y1382D01*
X2400Y1460D02*
X2465D01*
X2340Y550D02*
X2407Y617D01*
X2335Y561D02*
X2394Y620D01*
X2515Y1510D02*
X2550D01*
X2465Y1460D02*
X2515Y1510D01*
X2328Y585D02*
X2368Y625D01*
X2331Y572D02*
X2379Y620D01*
X2195Y585D02*
X2328D01*
X2189Y572D02*
X2331D01*
X2185Y561D02*
X2335D01*
X2180Y550D02*
X2340D01*
X2016Y745D02*
X2189Y572D01*
X2032Y714D02*
X2185Y561D01*
X2027Y703D02*
X2180Y550D01*
X1865Y765D02*
X2015D01*
X1840Y745D02*
X2016D01*
X1810Y775D02*
X1840Y745D01*
X1774Y761D02*
X1815Y719D01*
X1848D01*
X1854Y714D01*
X2032D01*
X1749Y776D02*
X1758D01*
X1765Y770D01*
Y770D02*
X1774Y761D01*
X1774D01*
X1765Y770D02*
Y770D01*
X1827Y704D02*
X1848D01*
X1811Y708D02*
X1823D01*
X1827Y704D01*
X1848D02*
X1849Y703D01*
X2027D01*
X1717Y776D02*
X1718D01*
X1734Y760D02*
X1758D01*
X1769Y750D02*
X1769D01*
X1811Y708D01*
X1718Y776D02*
X1734Y760D01*
X1758D02*
X1769Y750D01*
X2015Y765D02*
X2195Y585D01*
X1810Y835D02*
X1875D01*
X1780Y805D02*
X1810Y835D01*
X1780Y776D02*
Y805D01*
X1655Y997D02*
X1656Y998D01*
Y1071D01*
X1972Y475D02*
X2105D01*
X1806Y697D02*
X1818D01*
X1823Y693D01*
X1780Y713D02*
X1790D01*
X1806Y697D01*
X1733Y707D02*
X1800Y640D01*
X1749Y713D02*
X1803Y659D01*
X1805Y660D01*
X2025D01*
X1823Y693D02*
X1843D01*
X1844Y692D01*
X1560Y903D02*
X1560Y902D01*
X1560Y903D02*
Y1160D01*
X1575Y887D02*
X1591Y871D01*
X1522Y887D02*
X1575D01*
X1686Y965D02*
X1716Y995D01*
X1671Y782D02*
Y783D01*
X1656Y797D02*
X1671Y783D01*
X1180Y745D02*
X1236Y801D01*
X1265D01*
X1273Y792D01*
X2070Y625D02*
Y637D01*
X1844Y692D02*
X2015D01*
X2070Y637D01*
X1800Y640D02*
X2035D01*
X1625Y999D02*
X1625Y999D01*
X1607Y886D02*
X1623Y871D01*
X1716Y995D02*
Y1057D01*
X1625Y999D02*
Y1080D01*
X1545Y730D02*
X1560Y745D01*
X1243Y785D02*
X1251Y776D01*
X1560D01*
X1717Y693D02*
Y712D01*
X1733Y707D02*
Y722D01*
X1725Y730D02*
X1733Y722D01*
X1714Y730D02*
X1725D01*
X1705Y739D02*
X1714Y730D01*
X1705Y739D02*
Y749D01*
X1671Y782D02*
X1705Y749D01*
X1671Y981D02*
Y1061D01*
X1794Y1185D01*
X1860Y550D02*
X1870D01*
X1717Y693D02*
X1860Y550D01*
X1716Y1057D02*
X1778Y1120D01*
X1778Y1120D01*
X1640Y1230D02*
X1740D01*
X1607Y1178D02*
X1609Y1180D01*
Y1199D01*
X1640Y1230D01*
X1561Y1161D02*
Y1200D01*
X1560Y1160D02*
X1561Y1161D01*
X1591Y1230D02*
X1595D01*
X1561Y1200D02*
X1591Y1230D01*
X1686Y870D02*
X1765D01*
X1795Y900D01*
X1806Y895D02*
Y969D01*
X1826Y989D01*
Y1011D01*
X1825Y1011D02*
X1826Y1011D01*
X1825Y1011D02*
Y1105D01*
X1778Y1120D02*
X1818D01*
X1819Y1120D01*
X1865D02*
X1865Y1120D01*
X1819Y1120D02*
X1865D01*
X1795Y900D02*
Y1075D01*
X1805Y1085D01*
X1745Y960D02*
Y1065D01*
X1655Y905D02*
X1670Y920D01*
X1705D01*
X1745Y960D01*
X1607Y886D02*
Y1178D01*
X1625Y935D02*
Y935D01*
X1671Y981D01*
X1681Y931D02*
X1685Y936D01*
X1661Y931D02*
X1681D01*
X1638Y908D02*
X1661Y931D01*
X1638Y864D02*
Y908D01*
X1629Y855D02*
X1638Y864D01*
X1585Y855D02*
X1629D01*
X1567Y873D02*
X1585Y855D01*
X1670Y826D02*
X1685Y810D01*
X1736Y825D02*
X1806Y895D01*
X1692Y825D02*
X1736D01*
X1559Y840D02*
X1566D01*
X1680Y837D02*
X1692Y825D01*
X1566Y840D02*
X1581Y826D01*
X1641Y815D02*
Y815D01*
X1618Y792D02*
X1641Y815D01*
Y815D02*
X1651Y826D01*
X1670D01*
X1273Y792D02*
X1618D01*
X1646Y837D02*
X1680D01*
X1581Y826D02*
X1635D01*
X1646Y837D01*
X1685Y896D02*
Y900D01*
X1634Y844D02*
X1685Y896D01*
X1580Y844D02*
X1634D01*
X1562Y862D02*
X1580Y844D01*
X1515Y862D02*
X1562D01*
X1520Y873D02*
X1567D01*
X1499Y894D02*
X1520Y873D01*
X1510Y899D02*
X1522Y887D01*
X1488Y889D02*
X1515Y862D01*
X1499Y894D02*
Y973D01*
X1478Y994D02*
X1499Y973D01*
X1478Y994D02*
Y1022D01*
X1488Y889D02*
Y968D01*
X1467Y989D02*
X1488Y968D01*
X1467Y989D02*
Y1015D01*
X1419Y1063D02*
Y1205D01*
Y1063D02*
X1467Y1015D01*
X1250Y685D02*
Y698D01*
X1312Y761D02*
X1640D01*
X1656Y797D02*
Y810D01*
X1710Y670D02*
X1858Y523D01*
X1686Y729D02*
Y745D01*
X1620Y745D02*
X1621D01*
X1680Y655D02*
X1908Y427D01*
X1979Y398D02*
X2033D01*
X1528Y902D02*
Y1168D01*
X1536Y1176D01*
X1435Y1065D02*
X1478Y1022D01*
X1435Y1065D02*
Y1235D01*
X1465Y1135D02*
Y1170D01*
X1510Y899D02*
Y1180D01*
X1525Y1195D01*
X1465Y1170D02*
X1490Y1195D01*
D54*
X1127Y825D02*
G03*
X1175Y845I0J68D01*
G01*
X1280Y930D02*
G03*
X1246Y916I0J-48D01*
G01*
X1380Y915D02*
G03*
X1344Y930I-36J-36D01*
G01*
X1436Y859D02*
G03*
X1448Y854I13J13D01*
G01*
X1580Y810D02*
X1590D01*
X1486Y854D02*
X1517Y824D01*
X1566D01*
X1580Y810D01*
X1090Y825D02*
X1127D01*
X1175Y845D02*
X1246Y916D01*
X1448Y854D02*
X1486D01*
X1380Y915D02*
X1380Y915D01*
X1436Y859D01*
X1280Y930D02*
X1344D01*
D55*
X3025Y1705D02*
D03*
X2825D02*
D03*
X2925D02*
D03*
X2450Y1610D02*
D03*
Y1510D02*
D03*
Y1810D02*
D03*
Y1710D02*
D03*
X2550Y1610D02*
D03*
Y1510D02*
D03*
Y1810D02*
D03*
Y1710D02*
D03*
D56*
Y1340D02*
D03*
X2450D02*
D03*
Y1000D02*
D03*
X2550D02*
D03*
X2450Y1100D02*
D03*
X2550D02*
D03*
X2450Y1200D02*
D03*
X2550D02*
D03*
X140Y1795D02*
D03*
X1383Y1999D02*
D03*
D57*
X985Y1450D02*
D03*
D58*
X750Y2085D02*
D03*
X850Y2185D02*
D03*
X650D02*
D03*
Y1985D02*
D03*
X850D02*
D03*
X1670Y2085D02*
D03*
X1770Y2185D02*
D03*
X1570D02*
D03*
Y1985D02*
D03*
X1770D02*
D03*
X165Y2075D02*
D03*
X265Y2175D02*
D03*
X65D02*
D03*
Y1975D02*
D03*
X265D02*
D03*
D59*
X294Y102D02*
D03*
X116D02*
D03*
Y358D02*
D03*
X294D02*
D03*
X745Y845D02*
D03*
X645D02*
D03*
X545D02*
D03*
X745Y545D02*
D03*
X545D02*
D03*
X645D02*
D03*
X445Y845D02*
D03*
D60*
X2750Y63D02*
D03*
D61*
X445Y545D02*
D03*
D62*
X1358Y2165D02*
D03*
X1447Y1894D02*
D03*
X2100Y1375D02*
D03*
X1095Y1545D02*
D03*
X1490Y1885D02*
D03*
X1405Y1880D02*
D03*
X1180Y2065D02*
D03*
X1165Y1925D02*
D03*
X1585Y1810D02*
D03*
X2920Y1150D02*
D03*
X1350Y460D02*
D03*
X2345Y40D02*
D03*
X1290Y505D02*
D03*
X2760Y975D02*
D03*
X1515Y250D02*
D03*
X1545Y215D02*
D03*
X1835Y175D02*
D03*
X1130Y325D02*
D03*
X1345Y560D02*
D03*
X2190Y1190D02*
D03*
X2055Y1370D02*
D03*
X2465Y720D02*
D03*
X2330Y200D02*
D03*
X2085Y135D02*
D03*
X1315Y1080D02*
D03*
X1990Y140D02*
D03*
X2550Y2050D02*
D03*
X2510D02*
D03*
X1530Y1850D02*
D03*
X2105Y1930D02*
D03*
X1965Y2105D02*
D03*
X1920Y2100D02*
D03*
X1940Y1785D02*
D03*
X2645Y1850D02*
D03*
X2315Y620D02*
D03*
X2045Y775D02*
D03*
X2085Y750D02*
D03*
X2670Y1430D02*
D03*
X2520Y2195D02*
D03*
Y855D02*
D03*
X2870Y495D02*
D03*
Y575D02*
D03*
Y535D02*
D03*
X1975Y1715D02*
D03*
X1835Y1797D02*
D03*
X2540Y1890D02*
D03*
Y1930D02*
D03*
X2335Y2015D02*
D03*
X2240Y1900D02*
D03*
X2290D02*
D03*
X2425Y1965D02*
D03*
X1388Y1612D02*
D03*
X2105Y2065D02*
D03*
Y1825D02*
D03*
Y1645D02*
D03*
X2073Y445D02*
D03*
X1978Y298D02*
D03*
X2155Y295D02*
D03*
X2300Y475D02*
D03*
X2178Y520D02*
D03*
X1055Y555D02*
D03*
X2945Y765D02*
D03*
X920Y280D02*
D03*
X1565Y250D02*
D03*
X1530Y435D02*
D03*
X273Y803D02*
D03*
X463Y1048D02*
D03*
X560Y165D02*
D03*
X620Y1185D02*
D03*
X555Y1345D02*
D03*
X605D02*
D03*
X493Y1453D02*
D03*
X605Y1285D02*
D03*
X757Y1618D02*
D03*
X465Y1545D02*
D03*
X870Y1770D02*
D03*
Y1715D02*
D03*
Y1660D02*
D03*
X2525Y550D02*
D03*
Y620D02*
D03*
X1210Y150D02*
D03*
X330Y1275D02*
D03*
Y1205D02*
D03*
X290Y1610D02*
D03*
X642Y973D02*
D03*
X1065Y140D02*
D03*
X995Y70D02*
D03*
X245Y1020D02*
D03*
Y960D02*
D03*
X240Y1635D02*
D03*
X245Y1570D02*
D03*
X85Y1280D02*
D03*
X110Y1240D02*
D03*
X140Y1280D02*
D03*
X120Y625D02*
D03*
X355Y575D02*
D03*
X1320Y860D02*
D03*
X2020Y840D02*
D03*
X2090Y585D02*
D03*
X1945Y450D02*
D03*
X410Y320D02*
D03*
X2340Y655D02*
D03*
X1585Y1190D02*
D03*
X865Y380D02*
D03*
X1390Y1190D02*
D03*
X1915Y1060D02*
D03*
X2630Y500D02*
D03*
X2465Y445D02*
D03*
X920Y1045D02*
D03*
X1065D02*
D03*
X1695Y1200D02*
D03*
X1960Y1285D02*
D03*
Y1150D02*
D03*
X2675Y990D02*
D03*
X2670Y1215D02*
D03*
X1035Y175D02*
D03*
X1875Y795D02*
D03*
X295Y1760D02*
D03*
X1355Y1425D02*
D03*
X1585Y435D02*
D03*
X2145Y795D02*
D03*
X295Y1010D02*
D03*
X2145Y1225D02*
D03*
X2265Y340D02*
D03*
X765Y1350D02*
D03*
X2015Y925D02*
D03*
Y965D02*
D03*
X1315Y905D02*
D03*
X1870Y550D02*
D03*
X2015Y1025D02*
D03*
X1875Y835D02*
D03*
X1325Y735D02*
D03*
X335Y1755D02*
D03*
X344Y1640D02*
D03*
X2315Y735D02*
D03*
Y850D02*
D03*
Y960D02*
D03*
X95Y660D02*
D03*
X150Y655D02*
D03*
X1270Y170D02*
D03*
X1215Y200D02*
D03*
X1640Y1190D02*
D03*
X920Y615D02*
D03*
X915Y675D02*
D03*
X850Y595D02*
D03*
Y865D02*
D03*
X1070Y890D02*
D03*
X1325Y700D02*
D03*
X1315Y955D02*
D03*
Y995D02*
D03*
Y1040D02*
D03*
X2010Y1365D02*
D03*
X1358Y1485D02*
D03*
X2600Y250D02*
D03*
Y325D02*
D03*
Y175D02*
D03*
Y100D02*
D03*
X2075Y1485D02*
D03*
X2125D02*
D03*
X2175D02*
D03*
D63*
X2060Y1180D02*
D03*
X2395Y1405D02*
D03*
X2410Y1385D02*
D03*
X2390Y1425D02*
D03*
X1865Y765D02*
D03*
X1810Y775D02*
D03*
X1749Y776D02*
D03*
X1717D02*
D03*
X1811Y809D02*
D03*
X1650Y1790D02*
D03*
X1872Y1798D02*
D03*
X1905Y1470D02*
D03*
X1523Y1505D02*
D03*
X1550Y1660D02*
D03*
X1805Y1460D02*
D03*
X1775Y1385D02*
D03*
X1615Y1480D02*
D03*
Y1600D02*
D03*
X1745Y1465D02*
D03*
X1812Y682D02*
D03*
X1497Y745D02*
D03*
X1528Y713D02*
D03*
X1623Y682D02*
D03*
X1780Y713D02*
D03*
X1591Y745D02*
D03*
X1560Y902D02*
D03*
Y808D02*
D03*
X1686Y965D02*
D03*
X1749Y934D02*
D03*
Y902D02*
D03*
X1591Y871D02*
D03*
X1656Y776D02*
D03*
X1623Y871D02*
D03*
X2033Y398D02*
D03*
X2105Y475D02*
D03*
X1724Y249D02*
D03*
X1725Y405D02*
D03*
X1250Y685D02*
D03*
X1485Y325D02*
D03*
X395Y1240D02*
D03*
X770Y1295D02*
D03*
X1485Y825D02*
D03*
X1528Y902D02*
D03*
X1780Y776D02*
D03*
X1700Y1035D02*
D03*
X1640D02*
D03*
X1749Y713D02*
D03*
X1717Y713D02*
D03*
X1575Y1035D02*
D03*
X1855Y940D02*
D03*
X1855Y875D02*
D03*
X2025Y660D02*
D03*
X1860Y729D02*
D03*
X1780Y839D02*
D03*
X1559Y840D02*
D03*
X1620Y745D02*
D03*
X1686Y745D02*
D03*
X1656Y809D02*
D03*
X1685Y810D02*
D03*
X1180Y745D02*
D03*
X2070Y625D02*
D03*
X2035Y640D02*
D03*
X1655Y997D02*
D03*
X1625Y996D02*
D03*
X1560Y745D02*
D03*
X1494Y1000D02*
D03*
X1490Y1035D02*
D03*
X1591Y965D02*
D03*
X1590Y995D02*
D03*
X1745Y1065D02*
D03*
X1686Y870D02*
D03*
X1805Y1085D02*
D03*
X1590Y900D02*
D03*
Y776D02*
D03*
X1561Y711D02*
D03*
X1845Y676D02*
D03*
X1810Y995D02*
D03*
X1544Y1084D02*
D03*
X1243Y785D02*
D03*
X1560Y776D02*
D03*
X1688Y996D02*
D03*
X1624Y713D02*
D03*
X1720Y745D02*
D03*
X1813Y870D02*
D03*
X1655Y903D02*
D03*
X1865Y1120D02*
D03*
X1465Y1135D02*
D03*
X1740Y1230D02*
D03*
X1595D02*
D03*
X1590Y810D02*
D03*
X1455Y870D02*
D03*
X1090Y825D02*
D03*
X1825Y1105D02*
D03*
X1625Y935D02*
D03*
X1685Y936D02*
D03*
Y900D02*
D03*
X1480Y870D02*
D03*
X1465Y925D02*
D03*
X1450Y985D02*
D03*
X1435Y1235D02*
D03*
X1419Y1205D02*
D03*
X1541Y1180D02*
D03*
X1525Y1195D02*
D03*
X1490D02*
D03*
X1940Y1670D02*
D03*
X1888Y1677D02*
D03*
X2135Y1760D02*
D03*
X2190Y1790D02*
D03*
X2205Y1825D02*
D03*
D64*
X510Y1260D02*
D03*
Y1221D02*
D03*
X471Y1260D02*
D03*
Y1221D02*
D03*
X1826Y1681D02*
D03*
Y1630D02*
D03*
X1775Y1681D02*
D03*
Y1630D02*
D03*
X1826Y1579D02*
D03*
X1775D02*
D03*
X1724Y1681D02*
D03*
Y1630D02*
D03*
Y1579D02*
D03*
D65*
X1380Y915D02*
D03*
M02*
