%FSLAX23Y23*%
%MOIN*%
G70*
G01*
G75*
G04 Layer_Physical_Order=2*
G04 Layer_Color=36540*
%ADD10C,0.012*%
%ADD11C,0.011*%
%ADD12R,0.118X0.079*%
%ADD13R,0.079X0.039*%
%ADD14R,0.030X0.030*%
%ADD15R,0.030X0.030*%
%ADD16R,0.035X0.031*%
%ADD17R,0.031X0.031*%
%ADD18R,0.044X0.058*%
%ADD19R,0.079X0.047*%
%ADD20R,0.094X0.102*%
%ADD21R,0.012X0.053*%
%ADD22R,0.071X0.075*%
%ADD23R,0.091X0.075*%
%ADD24R,0.050X0.030*%
%ADD25R,0.030X0.050*%
%ADD26R,0.008X0.027*%
%ADD27R,0.015X0.061*%
%ADD28R,0.051X0.049*%
%ADD29R,0.020X0.020*%
%ADD30R,0.130X0.173*%
%ADD31R,0.154X0.244*%
%ADD32R,0.058X0.044*%
%ADD33R,0.012X0.020*%
%ADD34R,0.012X0.019*%
%ADD35R,0.020X0.020*%
%ADD36R,0.051X0.107*%
%ADD37R,0.011X0.031*%
%ADD38R,0.055X0.047*%
%ADD39O,0.087X0.024*%
%ADD40R,0.033X0.011*%
%ADD41R,0.065X0.094*%
%ADD42R,0.024X0.010*%
%ADD43R,0.010X0.024*%
%ADD44R,0.201X0.201*%
%ADD45R,0.039X0.028*%
%ADD46C,0.009*%
%ADD47C,0.039*%
%ADD48C,0.008*%
%ADD49C,0.015*%
%ADD50C,0.010*%
%ADD51C,0.020*%
%ADD52C,0.025*%
%ADD53C,0.005*%
%ADD54C,0.006*%
%ADD55C,0.060*%
%ADD56C,0.070*%
%ADD57C,0.125*%
%ADD58C,0.090*%
%ADD59C,0.059*%
%ADD60C,0.079*%
%ADD61R,0.059X0.059*%
%ADD62C,0.031*%
%ADD63C,0.016*%
%ADD64C,0.020*%
G36*
X3096Y9D02*
X9D01*
Y2246D01*
X3096D01*
Y9D01*
D02*
G37*
%LPC*%
G36*
X1780Y851D02*
X1775Y850D01*
X1771Y848D01*
X1769Y844D01*
X1768Y839D01*
X1769Y834D01*
X1771Y830D01*
X1775Y828D01*
X1780Y827D01*
X1785Y828D01*
X1789Y830D01*
X1791Y834D01*
X1792Y839D01*
X1791Y844D01*
X1789Y848D01*
X1785Y850D01*
X1780Y851D01*
D02*
G37*
G36*
X1559Y852D02*
X1554Y851D01*
X1550Y849D01*
X1548Y845D01*
X1547Y840D01*
X1548Y835D01*
X1550Y831D01*
X1554Y829D01*
X1559Y828D01*
X1564Y829D01*
X1568Y831D01*
X1570Y835D01*
X1571Y840D01*
X1570Y845D01*
X1568Y849D01*
X1564Y851D01*
X1559Y852D01*
D02*
G37*
G36*
X2520Y875D02*
X2512Y873D01*
X2506Y869D01*
X2502Y863D01*
X2500Y855D01*
X2502Y847D01*
X2506Y841D01*
X2512Y837D01*
X2520Y835D01*
X2528Y837D01*
X2534Y841D01*
X2538Y847D01*
X2540Y855D01*
X2538Y863D01*
X2534Y869D01*
X2528Y873D01*
X2520Y875D01*
D02*
G37*
G36*
X745Y879D02*
X736Y878D01*
X728Y874D01*
X721Y869D01*
X716Y862D01*
X712Y854D01*
X711Y845D01*
X712Y836D01*
X716Y828D01*
X721Y821D01*
X728Y816D01*
X736Y812D01*
X745Y811D01*
X754Y812D01*
X762Y816D01*
X769Y821D01*
X774Y828D01*
X778Y836D01*
X779Y845D01*
X778Y854D01*
X774Y862D01*
X769Y869D01*
X762Y874D01*
X754Y878D01*
X745Y879D01*
D02*
G37*
G36*
X1090Y837D02*
X1085Y836D01*
X1081Y834D01*
X1079Y830D01*
X1078Y825D01*
X1079Y820D01*
X1081Y816D01*
X1085Y814D01*
X1090Y813D01*
X1095Y814D01*
X1099Y816D01*
X1101Y820D01*
X1102Y825D01*
X1101Y830D01*
X1099Y834D01*
X1095Y836D01*
X1090Y837D01*
D02*
G37*
G36*
X1485Y837D02*
X1480Y836D01*
X1476Y834D01*
X1474Y830D01*
X1473Y825D01*
X1474Y820D01*
X1476Y816D01*
X1480Y814D01*
X1485Y813D01*
X1490Y814D01*
X1494Y816D01*
X1496Y820D01*
X1497Y825D01*
X1496Y830D01*
X1494Y834D01*
X1490Y836D01*
X1485Y837D01*
D02*
G37*
G36*
X1623Y883D02*
X1618Y882D01*
X1614Y879D01*
X1612Y875D01*
X1611Y871D01*
X1612Y866D01*
X1614Y862D01*
X1618Y860D01*
X1623Y859D01*
X1627Y860D01*
X1631Y862D01*
X1634Y866D01*
X1635Y871D01*
X1634Y875D01*
X1631Y879D01*
X1627Y882D01*
X1623Y883D01*
D02*
G37*
G36*
X1855Y887D02*
X1850Y886D01*
X1846Y884D01*
X1844Y880D01*
X1843Y875D01*
X1844Y870D01*
X1846Y866D01*
X1850Y864D01*
X1855Y863D01*
X1860Y864D01*
X1864Y866D01*
X1866Y870D01*
X1867Y875D01*
X1866Y880D01*
X1864Y884D01*
X1860Y886D01*
X1855Y887D01*
D02*
G37*
G36*
X1685Y912D02*
X1680Y911D01*
X1676Y909D01*
X1674Y905D01*
X1673Y900D01*
X1674Y895D01*
X1676Y891D01*
X1680Y889D01*
X1685Y888D01*
X1690Y889D01*
X1694Y891D01*
X1696Y895D01*
X1697Y900D01*
X1696Y905D01*
X1694Y909D01*
X1690Y911D01*
X1685Y912D01*
D02*
G37*
G36*
X1455Y882D02*
X1450Y881D01*
X1446Y879D01*
X1444Y875D01*
X1443Y870D01*
X1444Y865D01*
X1446Y861D01*
X1450Y859D01*
X1455Y858D01*
X1460Y859D01*
X1464Y861D01*
X1466Y865D01*
X1467Y870D01*
X1466Y875D01*
X1464Y879D01*
X1460Y881D01*
X1455Y882D01*
D02*
G37*
G36*
X1686Y882D02*
X1682Y881D01*
X1678Y879D01*
X1675Y875D01*
X1674Y870D01*
X1675Y865D01*
X1678Y861D01*
X1682Y859D01*
X1686Y858D01*
X1691Y859D01*
X1695Y861D01*
X1698Y865D01*
X1699Y870D01*
X1698Y875D01*
X1695Y879D01*
X1691Y881D01*
X1686Y882D01*
D02*
G37*
G36*
X1591Y883D02*
X1587Y882D01*
X1583Y879D01*
X1580Y875D01*
X1579Y871D01*
X1580Y866D01*
X1583Y862D01*
X1587Y860D01*
X1591Y859D01*
X1596Y860D01*
X1600Y862D01*
X1603Y866D01*
X1603Y871D01*
X1603Y875D01*
X1600Y879D01*
X1596Y882D01*
X1591Y883D01*
D02*
G37*
G36*
X1749Y788D02*
X1744Y788D01*
X1740Y785D01*
X1737Y781D01*
X1737Y776D01*
X1737Y772D01*
X1740Y768D01*
X1744Y765D01*
X1749Y764D01*
X1753Y765D01*
X1757Y768D01*
X1760Y772D01*
X1761Y776D01*
X1760Y781D01*
X1757Y785D01*
X1753Y788D01*
X1749Y788D01*
D02*
G37*
G36*
X1243Y797D02*
X1238Y796D01*
X1234Y794D01*
X1231Y790D01*
X1230Y785D01*
X1231Y780D01*
X1234Y776D01*
X1238Y774D01*
X1243Y773D01*
X1247Y774D01*
X1251Y776D01*
X1254Y780D01*
X1255Y785D01*
X1254Y790D01*
X1251Y794D01*
X1247Y796D01*
X1243Y797D01*
D02*
G37*
G36*
X1875Y855D02*
X1867Y853D01*
X1861Y849D01*
X1857Y843D01*
X1855Y835D01*
X1857Y827D01*
X1861Y821D01*
X1866Y818D01*
Y813D01*
X1861Y809D01*
X1857Y803D01*
X1855Y795D01*
X1857Y787D01*
X1861Y781D01*
X1862Y780D01*
X1862Y780D01*
X1864Y778D01*
X1860Y776D01*
X1860D01*
D01*
D01*
D01*
X1860Y776D01*
X1856Y774D01*
X1854Y770D01*
X1853Y765D01*
X1854Y760D01*
X1856Y756D01*
X1860Y754D01*
X1865Y753D01*
X1870Y754D01*
X1874Y756D01*
X1876Y760D01*
X1877Y765D01*
X1876Y770D01*
X1875Y771D01*
X1877Y776D01*
X1883Y777D01*
X1889Y781D01*
X1893Y787D01*
X1895Y795D01*
X1893Y803D01*
X1889Y809D01*
X1884Y813D01*
Y818D01*
X1889Y821D01*
X1893Y827D01*
X1895Y835D01*
X1893Y843D01*
X1889Y849D01*
X1883Y853D01*
X1875Y855D01*
D02*
G37*
G36*
X1560Y788D02*
X1555Y788D01*
X1551Y785D01*
X1549Y781D01*
X1548Y776D01*
X1549Y772D01*
X1551Y768D01*
X1555Y765D01*
X1560Y764D01*
X1564Y765D01*
X1568Y768D01*
X1571Y772D01*
X1572Y776D01*
X1571Y781D01*
X1568Y785D01*
X1564Y788D01*
X1560Y788D01*
D02*
G37*
G36*
X1656D02*
X1651Y788D01*
X1647Y785D01*
X1645Y781D01*
X1644Y776D01*
X1645Y772D01*
X1647Y768D01*
X1651Y765D01*
X1656Y764D01*
X1660Y765D01*
X1664Y768D01*
X1667Y772D01*
X1668Y776D01*
X1667Y781D01*
X1664Y785D01*
X1660Y788D01*
X1656Y788D01*
D02*
G37*
G36*
X1717D02*
X1713Y788D01*
X1709Y785D01*
X1706Y781D01*
X1705Y776D01*
X1706Y772D01*
X1709Y768D01*
X1713Y765D01*
X1717Y764D01*
X1722Y765D01*
X1726Y768D01*
X1728Y772D01*
X1729Y776D01*
X1728Y781D01*
X1726Y785D01*
X1722Y788D01*
X1717Y788D01*
D02*
G37*
G36*
X1685Y822D02*
X1680Y821D01*
X1676Y819D01*
X1674Y815D01*
X1673Y810D01*
X1668D01*
Y810D01*
X1668D01*
X1667Y814D01*
X1665Y818D01*
X1661Y820D01*
X1656Y821D01*
X1651Y820D01*
X1647Y818D01*
X1645Y814D01*
X1644Y809D01*
X1645Y804D01*
X1647Y800D01*
X1651Y798D01*
X1656Y797D01*
X1661Y798D01*
X1665Y800D01*
X1667Y804D01*
X1668Y809D01*
X1673D01*
Y809D01*
X1673D01*
X1674Y805D01*
X1676Y801D01*
X1680Y799D01*
X1685Y798D01*
X1690Y799D01*
X1694Y801D01*
X1696Y805D01*
X1697Y810D01*
X1696Y815D01*
X1694Y819D01*
X1690Y821D01*
X1685Y822D01*
D02*
G37*
G36*
X445Y879D02*
X436Y878D01*
X428Y874D01*
X421Y869D01*
X416Y862D01*
X412Y854D01*
X411Y845D01*
X412Y836D01*
X416Y828D01*
X421Y821D01*
X428Y816D01*
X436Y812D01*
X445Y811D01*
X454Y812D01*
X462Y816D01*
X469Y821D01*
X474Y828D01*
X478Y836D01*
X479Y845D01*
X478Y854D01*
X474Y862D01*
X469Y869D01*
X462Y874D01*
X454Y878D01*
X445Y879D01*
D02*
G37*
G36*
X645D02*
X636Y878D01*
X628Y874D01*
X621Y869D01*
X616Y862D01*
X612Y854D01*
X611Y845D01*
X612Y836D01*
X616Y828D01*
X621Y821D01*
X628Y816D01*
X636Y812D01*
X645Y811D01*
X654Y812D01*
X662Y816D01*
X669Y821D01*
X674Y828D01*
X678Y836D01*
X679Y845D01*
X678Y854D01*
X674Y862D01*
X669Y869D01*
X662Y874D01*
X654Y878D01*
X645Y879D01*
D02*
G37*
G36*
X273Y822D02*
X265Y821D01*
X258Y817D01*
X254Y810D01*
X253Y803D01*
X254Y795D01*
X258Y788D01*
X265Y784D01*
X273Y783D01*
X280Y784D01*
X287Y788D01*
X291Y795D01*
X292Y803D01*
X291Y810D01*
X287Y817D01*
X280Y821D01*
X273Y822D01*
D02*
G37*
G36*
X1560Y820D02*
X1555Y819D01*
X1551Y816D01*
X1549Y812D01*
X1548Y808D01*
X1549Y803D01*
X1551Y799D01*
X1555Y797D01*
X1560Y796D01*
X1564Y797D01*
X1568Y799D01*
X1571Y803D01*
X1572Y808D01*
X1571Y812D01*
X1568Y816D01*
X1564Y819D01*
X1560Y820D01*
D02*
G37*
G36*
X1590Y822D02*
X1585Y821D01*
X1581Y819D01*
X1579Y815D01*
X1578Y810D01*
X1579Y805D01*
X1581Y801D01*
X1585Y799D01*
X1590Y798D01*
X1595Y799D01*
X1599Y801D01*
X1601Y805D01*
X1602Y810D01*
X1601Y815D01*
X1599Y819D01*
X1595Y821D01*
X1590Y822D01*
D02*
G37*
G36*
X2450Y1039D02*
X2440Y1038D01*
X2430Y1034D01*
X2422Y1028D01*
X2416Y1020D01*
X2412Y1010D01*
X2411Y1000D01*
X2412Y990D01*
X2416Y980D01*
X2422Y972D01*
X2430Y966D01*
X2440Y962D01*
X2450Y961D01*
X2460Y962D01*
X2470Y966D01*
X2478Y972D01*
X2484Y980D01*
X2488Y990D01*
X2489Y1000D01*
X2488Y1010D01*
X2484Y1020D01*
X2478Y1028D01*
X2470Y1034D01*
X2460Y1038D01*
X2450Y1039D01*
D02*
G37*
G36*
X2550D02*
X2540Y1038D01*
X2530Y1034D01*
X2522Y1028D01*
X2516Y1020D01*
X2512Y1010D01*
X2511Y1000D01*
X2512Y990D01*
X2516Y980D01*
X2522Y972D01*
X2530Y966D01*
X2540Y962D01*
X2550Y961D01*
X2560Y962D01*
X2570Y966D01*
X2578Y972D01*
X2584Y980D01*
X2588Y990D01*
X2589Y1000D01*
X2588Y1010D01*
X2584Y1020D01*
X2578Y1028D01*
X2570Y1034D01*
X2560Y1038D01*
X2550Y1039D01*
D02*
G37*
G36*
X1450Y997D02*
X1445Y996D01*
X1441Y994D01*
X1439Y990D01*
X1438Y985D01*
X1439Y980D01*
X1441Y976D01*
X1445Y974D01*
X1450Y973D01*
X1455Y974D01*
X1459Y976D01*
X1461Y980D01*
X1462Y985D01*
X1461Y990D01*
X1459Y994D01*
X1455Y996D01*
X1450Y997D01*
D02*
G37*
G36*
X1686Y977D02*
X1681Y976D01*
X1677Y974D01*
X1675Y970D01*
X1674Y965D01*
X1675Y961D01*
X1677Y957D01*
X1681Y954D01*
X1686Y953D01*
X1690Y954D01*
X1694Y957D01*
X1697Y961D01*
X1698Y965D01*
X1697Y970D01*
X1694Y974D01*
X1690Y976D01*
X1686Y977D01*
D02*
G37*
G36*
X2760Y995D02*
X2752Y993D01*
X2746Y989D01*
X2742Y983D01*
X2740Y975D01*
X2742Y967D01*
X2746Y961D01*
X2752Y957D01*
X2760Y955D01*
X2768Y957D01*
X2774Y961D01*
X2778Y967D01*
X2780Y975D01*
X2778Y983D01*
X2774Y989D01*
X2768Y993D01*
X2760Y995D01*
D02*
G37*
G36*
X2905Y993D02*
X2898Y992D01*
X2892Y988D01*
X2888Y982D01*
X2887Y975D01*
X2888Y968D01*
X2892Y962D01*
X2898Y958D01*
X2905Y957D01*
X2912Y958D01*
X2918Y962D01*
X2922Y968D01*
X2923Y975D01*
X2922Y982D01*
X2918Y988D01*
X2912Y992D01*
X2905Y993D01*
D02*
G37*
G36*
X245Y1040D02*
X237Y1038D01*
X231Y1034D01*
X227Y1028D01*
X225Y1020D01*
X227Y1012D01*
X231Y1006D01*
X237Y1002D01*
X245Y1000D01*
X253Y1002D01*
X259Y1006D01*
X263Y1012D01*
X265Y1020D01*
X263Y1028D01*
X259Y1034D01*
X253Y1038D01*
X245Y1040D01*
D02*
G37*
G36*
X1575Y1047D02*
X1570Y1046D01*
X1566Y1044D01*
X1564Y1040D01*
X1563Y1035D01*
X1564Y1030D01*
X1566Y1026D01*
X1570Y1024D01*
X1575Y1023D01*
X1580Y1024D01*
X1584Y1026D01*
X1586Y1030D01*
X1587Y1035D01*
X1586Y1040D01*
X1584Y1044D01*
X1580Y1046D01*
X1575Y1047D01*
D02*
G37*
G36*
X1640D02*
X1635Y1046D01*
X1631Y1044D01*
X1629Y1040D01*
X1628Y1035D01*
X1629Y1030D01*
X1631Y1026D01*
X1635Y1024D01*
X1640Y1023D01*
X1645Y1024D01*
X1649Y1026D01*
X1651Y1030D01*
X1652Y1035D01*
X1651Y1040D01*
X1649Y1044D01*
X1645Y1046D01*
X1640Y1047D01*
D02*
G37*
G36*
X1625Y1008D02*
X1620Y1007D01*
X1616Y1005D01*
X1614Y1001D01*
X1613Y996D01*
X1614Y991D01*
X1616Y987D01*
X1620Y985D01*
X1625Y984D01*
X1630Y985D01*
X1634Y987D01*
X1636Y991D01*
X1637Y996D01*
X1636Y1001D01*
X1634Y1005D01*
X1630Y1007D01*
X1625Y1008D01*
D02*
G37*
G36*
X1655Y1010D02*
X1650Y1009D01*
X1646Y1006D01*
X1644Y1002D01*
X1643Y997D01*
X1644Y993D01*
X1646Y989D01*
X1650Y986D01*
X1655Y985D01*
X1660Y986D01*
X1664Y989D01*
X1666Y993D01*
X1667Y997D01*
X1666Y1002D01*
X1664Y1006D01*
X1660Y1009D01*
X1655Y1010D01*
D02*
G37*
G36*
X295Y1030D02*
X287Y1028D01*
X281Y1024D01*
X277Y1018D01*
X275Y1010D01*
X277Y1002D01*
X281Y996D01*
X287Y992D01*
X295Y990D01*
X303Y992D01*
X309Y996D01*
X313Y1002D01*
X315Y1010D01*
X313Y1018D01*
X309Y1024D01*
X303Y1028D01*
X295Y1030D01*
D02*
G37*
G36*
X1749Y914D02*
X1744Y913D01*
X1740Y911D01*
X1737Y907D01*
X1737Y902D01*
X1737Y898D01*
X1740Y894D01*
X1744Y891D01*
X1749Y890D01*
X1753Y891D01*
X1757Y894D01*
X1760Y898D01*
X1761Y902D01*
X1760Y907D01*
X1757Y911D01*
X1753Y913D01*
X1749Y914D01*
D02*
G37*
G36*
X1655Y915D02*
X1650Y914D01*
X1646Y912D01*
X1644Y908D01*
X1643Y903D01*
X1644Y898D01*
X1646Y894D01*
X1650Y892D01*
X1655Y891D01*
X1660Y892D01*
X1664Y894D01*
X1666Y898D01*
X1667Y903D01*
X1666Y908D01*
X1664Y912D01*
X1660Y914D01*
X1655Y915D01*
D02*
G37*
G36*
X1465Y937D02*
X1460Y936D01*
X1456Y934D01*
X1454Y930D01*
X1453Y925D01*
X1454Y920D01*
X1456Y916D01*
X1460Y914D01*
X1465Y913D01*
X1470Y914D01*
X1474Y916D01*
X1476Y920D01*
X1477Y925D01*
X1476Y930D01*
X1474Y934D01*
X1470Y936D01*
X1465Y937D01*
D02*
G37*
G36*
X1590Y912D02*
X1585Y911D01*
X1581Y909D01*
X1579Y905D01*
X1578Y900D01*
X1579Y895D01*
X1581Y891D01*
X1585Y889D01*
X1590Y888D01*
X1595Y889D01*
X1599Y891D01*
X1601Y895D01*
X1602Y900D01*
X1601Y905D01*
X1599Y909D01*
X1595Y911D01*
X1590Y912D01*
D02*
G37*
G36*
X1528Y914D02*
X1524Y913D01*
X1520Y911D01*
X1517Y907D01*
X1516Y902D01*
X1517Y898D01*
X1520Y894D01*
X1524Y891D01*
X1528Y890D01*
X1533Y891D01*
X1537Y894D01*
X1540Y898D01*
X1540Y902D01*
X1540Y907D01*
X1537Y911D01*
X1533Y913D01*
X1528Y914D01*
D02*
G37*
G36*
X1560D02*
X1555Y913D01*
X1551Y911D01*
X1549Y907D01*
X1548Y902D01*
X1549Y898D01*
X1551Y894D01*
X1555Y891D01*
X1560Y890D01*
X1564Y891D01*
X1568Y894D01*
X1571Y898D01*
X1572Y902D01*
X1571Y907D01*
X1568Y911D01*
X1564Y913D01*
X1560Y914D01*
D02*
G37*
G36*
X1855Y952D02*
X1851Y951D01*
X1847Y949D01*
X1844Y945D01*
X1843Y940D01*
X1844Y935D01*
X1847Y931D01*
X1851Y929D01*
X1855Y928D01*
X1860Y929D01*
X1864Y931D01*
X1867Y935D01*
X1868Y940D01*
X1867Y945D01*
X1864Y949D01*
X1860Y951D01*
X1855Y952D01*
D02*
G37*
G36*
X245Y980D02*
X237Y978D01*
X231Y974D01*
X227Y968D01*
X225Y960D01*
X227Y952D01*
X231Y946D01*
X237Y942D01*
X245Y940D01*
X253Y942D01*
X259Y946D01*
X263Y952D01*
X265Y960D01*
X263Y968D01*
X259Y974D01*
X253Y978D01*
X245Y980D01*
D02*
G37*
G36*
X642Y992D02*
X635Y991D01*
X628Y987D01*
X624Y980D01*
X623Y973D01*
X624Y965D01*
X628Y958D01*
X635Y954D01*
X642Y953D01*
X650Y954D01*
X657Y958D01*
X661Y965D01*
X662Y973D01*
X661Y980D01*
X657Y987D01*
X650Y991D01*
X642Y992D01*
D02*
G37*
G36*
X1749Y946D02*
X1744Y945D01*
X1740Y942D01*
X1737Y938D01*
X1737Y934D01*
X1737Y929D01*
X1740Y925D01*
X1744Y922D01*
X1749Y922D01*
X1753Y922D01*
X1757Y925D01*
X1760Y929D01*
X1761Y934D01*
X1760Y938D01*
X1757Y942D01*
X1753Y945D01*
X1749Y946D01*
D02*
G37*
G36*
X1625Y947D02*
X1620Y946D01*
X1616Y944D01*
X1614Y940D01*
X1613Y935D01*
X1614Y930D01*
X1616Y926D01*
X1620Y924D01*
X1625Y923D01*
X1630Y924D01*
X1634Y926D01*
X1636Y930D01*
X1637Y935D01*
X1636Y940D01*
X1634Y944D01*
X1630Y946D01*
X1625Y947D01*
D02*
G37*
G36*
X1685Y948D02*
X1680Y947D01*
X1676Y944D01*
X1674Y940D01*
X1673Y936D01*
X1674Y931D01*
X1676Y927D01*
X1680Y924D01*
X1685Y923D01*
X1690Y924D01*
X1694Y927D01*
X1696Y931D01*
X1697Y936D01*
X1696Y940D01*
X1694Y944D01*
X1690Y947D01*
X1685Y948D01*
D02*
G37*
G36*
X1780Y788D02*
X1775Y787D01*
X1771Y785D01*
X1769Y781D01*
X1768Y776D01*
X1769Y771D01*
X1771Y767D01*
X1775Y765D01*
X1780Y764D01*
X1785Y765D01*
X1789Y767D01*
X1791Y771D01*
X1792Y776D01*
X1791Y781D01*
X1789Y785D01*
X1785Y787D01*
X1780Y788D01*
D02*
G37*
G36*
X865Y400D02*
X857Y398D01*
X851Y394D01*
X847Y388D01*
X845Y380D01*
X847Y372D01*
X851Y366D01*
X857Y362D01*
X865Y360D01*
X873Y362D01*
X879Y366D01*
X883Y372D01*
X885Y380D01*
X883Y388D01*
X879Y394D01*
X873Y398D01*
X865Y400D01*
D02*
G37*
G36*
X2033Y410D02*
X2028Y409D01*
X2024Y406D01*
X2021Y402D01*
X2020Y398D01*
X2021Y393D01*
X2024Y389D01*
X2028Y386D01*
X2033Y385D01*
X2037Y386D01*
X2041Y389D01*
X2044Y393D01*
X2045Y398D01*
X2044Y402D01*
X2041Y406D01*
X2037Y409D01*
X2033Y410D01*
D02*
G37*
G36*
X1350Y480D02*
X1342Y478D01*
X1336Y474D01*
X1332Y468D01*
X1330Y460D01*
X1332Y452D01*
X1336Y446D01*
X1342Y442D01*
X1350Y440D01*
X1358Y442D01*
X1364Y446D01*
X1368Y452D01*
X1370Y460D01*
X1368Y468D01*
X1364Y474D01*
X1358Y478D01*
X1350Y480D01*
D02*
G37*
G36*
X1130Y345D02*
X1122Y343D01*
X1116Y339D01*
X1112Y333D01*
X1110Y325D01*
X1112Y317D01*
X1116Y311D01*
X1122Y307D01*
X1130Y305D01*
X1138Y307D01*
X1144Y311D01*
X1148Y317D01*
X1150Y325D01*
X1148Y333D01*
X1144Y339D01*
X1138Y343D01*
X1130Y345D01*
D02*
G37*
G36*
X1485Y337D02*
X1480Y336D01*
X1476Y334D01*
X1474Y330D01*
X1473Y325D01*
X1474Y320D01*
X1476Y316D01*
X1480Y314D01*
X1485Y313D01*
X1490Y314D01*
X1494Y316D01*
X1496Y320D01*
X1497Y325D01*
X1496Y330D01*
X1494Y334D01*
X1490Y336D01*
X1485Y337D01*
D02*
G37*
G36*
X294Y392D02*
X285Y391D01*
X277Y387D01*
X270Y382D01*
X264Y375D01*
X261Y367D01*
X260Y358D01*
X261Y349D01*
X264Y341D01*
X270Y334D01*
X277Y329D01*
X285Y325D01*
X294Y324D01*
X302Y325D01*
X310Y329D01*
X317Y334D01*
X323Y341D01*
X326Y349D01*
X327Y358D01*
X326Y367D01*
X323Y375D01*
X317Y382D01*
X310Y387D01*
X302Y391D01*
X294Y392D01*
D02*
G37*
G36*
X2630Y520D02*
X2622Y518D01*
X2616Y514D01*
X2612Y508D01*
X2610Y500D01*
X2612Y492D01*
X2616Y486D01*
X2622Y482D01*
X2630Y480D01*
X2638Y482D01*
X2644Y486D01*
X2648Y492D01*
X2650Y500D01*
X2648Y508D01*
X2644Y514D01*
X2638Y518D01*
X2630Y520D01*
D02*
G37*
G36*
X545Y579D02*
X536Y578D01*
X528Y574D01*
X521Y569D01*
X516Y562D01*
X512Y554D01*
X511Y545D01*
X512Y536D01*
X516Y528D01*
X521Y521D01*
X528Y516D01*
X536Y512D01*
X545Y511D01*
X554Y512D01*
X562Y516D01*
X569Y521D01*
X574Y528D01*
X578Y536D01*
X579Y545D01*
X578Y554D01*
X574Y562D01*
X569Y569D01*
X562Y574D01*
X554Y578D01*
X545Y579D01*
D02*
G37*
G36*
X645D02*
X636Y578D01*
X628Y574D01*
X621Y569D01*
X616Y562D01*
X612Y554D01*
X611Y545D01*
X612Y536D01*
X616Y528D01*
X621Y521D01*
X628Y516D01*
X636Y512D01*
X645Y511D01*
X654Y512D01*
X662Y516D01*
X669Y521D01*
X674Y528D01*
X678Y536D01*
X679Y545D01*
X678Y554D01*
X674Y562D01*
X669Y569D01*
X662Y574D01*
X654Y578D01*
X645Y579D01*
D02*
G37*
G36*
X80Y583D02*
X68Y581D01*
X56Y578D01*
X45Y572D01*
X36Y564D01*
X28Y555D01*
X22Y544D01*
X19Y532D01*
X17Y520D01*
X19Y508D01*
X22Y496D01*
X28Y485D01*
X36Y476D01*
X45Y468D01*
X56Y462D01*
X68Y459D01*
X80Y457D01*
X92Y459D01*
X104Y462D01*
X115Y468D01*
X124Y476D01*
X132Y485D01*
X138Y496D01*
X141Y508D01*
X143Y520D01*
X141Y532D01*
X138Y544D01*
X132Y555D01*
X124Y564D01*
X115Y572D01*
X104Y578D01*
X92Y581D01*
X80Y583D01*
D02*
G37*
G36*
X2105Y487D02*
X2100Y486D01*
X2096Y484D01*
X2094Y480D01*
X2093Y475D01*
X2094Y470D01*
X2096Y466D01*
X2100Y464D01*
X2105Y463D01*
X2110Y464D01*
X2114Y466D01*
X2116Y470D01*
X2117Y475D01*
X2116Y480D01*
X2114Y484D01*
X2110Y486D01*
X2105Y487D01*
D02*
G37*
G36*
X2870Y595D02*
X2862Y593D01*
X2856Y589D01*
X2852Y583D01*
X2850Y575D01*
X2852Y567D01*
X2856Y561D01*
X2861Y558D01*
Y553D01*
X2856Y549D01*
X2852Y543D01*
X2850Y535D01*
X2852Y527D01*
X2856Y521D01*
X2861Y517D01*
Y512D01*
X2856Y509D01*
X2852Y503D01*
X2850Y495D01*
X2852Y487D01*
X2856Y481D01*
X2862Y477D01*
X2870Y475D01*
X2878Y477D01*
X2884Y481D01*
X2888Y487D01*
X2890Y495D01*
X2888Y503D01*
X2884Y509D01*
X2879Y512D01*
Y517D01*
X2884Y521D01*
X2888Y527D01*
X2890Y535D01*
X2888Y543D01*
X2884Y549D01*
X2879Y553D01*
Y558D01*
X2884Y561D01*
X2888Y567D01*
X2890Y575D01*
X2888Y583D01*
X2884Y589D01*
X2878Y593D01*
X2870Y595D01*
D02*
G37*
G36*
X2085Y155D02*
X2077Y153D01*
X2071Y149D01*
X2067Y143D01*
X2065Y135D01*
X2067Y127D01*
X2071Y121D01*
X2077Y117D01*
X2085Y115D01*
X2093Y117D01*
X2099Y121D01*
X2103Y127D01*
X2105Y135D01*
X2103Y143D01*
X2099Y149D01*
X2093Y153D01*
X2085Y155D01*
D02*
G37*
G36*
X1065Y160D02*
X1057Y158D01*
X1051Y154D01*
X1047Y148D01*
X1045Y140D01*
X1047Y132D01*
X1051Y126D01*
X1057Y122D01*
X1065Y120D01*
X1073Y122D01*
X1079Y126D01*
X1083Y132D01*
X1085Y140D01*
X1083Y148D01*
X1079Y154D01*
X1073Y158D01*
X1065Y160D01*
D02*
G37*
G36*
X1210Y170D02*
X1202Y168D01*
X1196Y164D01*
X1192Y158D01*
X1190Y150D01*
X1192Y142D01*
X1196Y136D01*
X1202Y132D01*
X1210Y130D01*
X1218Y132D01*
X1224Y136D01*
X1228Y142D01*
X1230Y150D01*
X1228Y158D01*
X1224Y164D01*
X1218Y168D01*
X1210Y170D01*
D02*
G37*
G36*
X2750Y107D02*
X2739Y105D01*
X2728Y101D01*
X2719Y94D01*
X2712Y85D01*
X2708Y74D01*
X2706Y63D01*
X2708Y52D01*
X2712Y41D01*
X2719Y32D01*
X2728Y25D01*
X2739Y21D01*
X2750Y19D01*
X2761Y21D01*
X2772Y25D01*
X2781Y32D01*
X2788Y41D01*
X2792Y52D01*
X2794Y63D01*
X2792Y74D01*
X2788Y85D01*
X2781Y94D01*
X2772Y101D01*
X2761Y105D01*
X2750Y107D01*
D02*
G37*
G36*
X294Y136D02*
X285Y135D01*
X277Y131D01*
X270Y126D01*
X264Y119D01*
X261Y111D01*
X260Y102D01*
X261Y93D01*
X264Y85D01*
X270Y78D01*
X277Y73D01*
X285Y69D01*
X294Y68D01*
X302Y69D01*
X310Y73D01*
X317Y78D01*
X323Y85D01*
X326Y93D01*
X327Y102D01*
X326Y111D01*
X323Y119D01*
X317Y126D01*
X310Y131D01*
X302Y135D01*
X294Y136D01*
D02*
G37*
G36*
X2840Y223D02*
X2828Y221D01*
X2816Y218D01*
X2805Y212D01*
X2796Y204D01*
X2788Y195D01*
X2782Y184D01*
X2779Y172D01*
X2777Y160D01*
X2779Y148D01*
X2782Y136D01*
X2788Y125D01*
X2796Y116D01*
X2805Y108D01*
X2816Y102D01*
X2828Y99D01*
X2840Y97D01*
X2852Y99D01*
X2864Y102D01*
X2875Y108D01*
X2884Y116D01*
X2892Y125D01*
X2898Y136D01*
X2901Y148D01*
X2903Y160D01*
X2901Y172D01*
X2898Y184D01*
X2892Y195D01*
X2884Y204D01*
X2875Y212D01*
X2864Y218D01*
X2852Y221D01*
X2840Y223D01*
D02*
G37*
G36*
X2330Y220D02*
X2322Y218D01*
X2316Y214D01*
X2312Y208D01*
X2310Y200D01*
X2312Y192D01*
X2316Y186D01*
X2322Y182D01*
X2330Y180D01*
X2338Y182D01*
X2344Y186D01*
X2348Y192D01*
X2350Y200D01*
X2348Y208D01*
X2344Y214D01*
X2338Y218D01*
X2330Y220D01*
D02*
G37*
G36*
X1215Y220D02*
X1207Y218D01*
X1201Y214D01*
X1197Y208D01*
X1195Y200D01*
X1197Y192D01*
X1201Y186D01*
X1207Y182D01*
X1215Y180D01*
X1223Y182D01*
X1229Y186D01*
X1233Y192D01*
X1235Y200D01*
X1233Y208D01*
X1229Y214D01*
X1223Y218D01*
X1215Y220D01*
D02*
G37*
G36*
X410Y340D02*
X402Y338D01*
X396Y334D01*
X392Y328D01*
X390Y320D01*
X392Y312D01*
X396Y306D01*
X402Y302D01*
X410Y300D01*
X418Y302D01*
X424Y306D01*
X428Y312D01*
X430Y320D01*
X428Y328D01*
X424Y334D01*
X418Y338D01*
X410Y340D01*
D02*
G37*
G36*
X1270Y190D02*
X1262Y188D01*
X1256Y184D01*
X1252Y178D01*
X1250Y170D01*
X1252Y162D01*
X1256Y156D01*
X1262Y152D01*
X1270Y150D01*
X1278Y152D01*
X1284Y156D01*
X1288Y162D01*
X1290Y170D01*
X1288Y178D01*
X1284Y184D01*
X1278Y188D01*
X1270Y190D01*
D02*
G37*
G36*
X1835Y195D02*
X1827Y193D01*
X1821Y189D01*
X1817Y183D01*
X1815Y175D01*
X1817Y167D01*
X1821Y161D01*
X1827Y157D01*
X1835Y155D01*
X1843Y157D01*
X1849Y161D01*
X1853Y167D01*
X1855Y175D01*
X1853Y183D01*
X1849Y189D01*
X1843Y193D01*
X1835Y195D01*
D02*
G37*
G36*
X1035Y195D02*
X1027Y193D01*
X1021Y189D01*
X1017Y183D01*
X1015Y175D01*
X1017Y167D01*
X1021Y161D01*
X1027Y157D01*
X1035Y155D01*
X1043Y157D01*
X1049Y161D01*
X1053Y167D01*
X1055Y175D01*
X1053Y183D01*
X1049Y189D01*
X1043Y193D01*
X1035Y195D01*
D02*
G37*
G36*
X1780Y725D02*
X1776Y725D01*
X1772Y722D01*
X1769Y718D01*
X1768Y713D01*
X1769Y709D01*
X1772Y705D01*
X1776Y702D01*
X1780Y701D01*
X1785Y702D01*
X1789Y705D01*
X1791Y709D01*
X1792Y713D01*
X1791Y718D01*
X1789Y722D01*
X1785Y725D01*
X1780Y725D01*
D02*
G37*
G36*
X1860Y741D02*
X1855Y740D01*
X1851Y738D01*
X1849Y734D01*
X1848Y729D01*
X1849Y724D01*
X1851Y720D01*
X1855Y718D01*
X1860Y717D01*
X1865Y718D01*
X1869Y720D01*
X1871Y724D01*
X1872Y729D01*
X1871Y734D01*
X1869Y738D01*
X1865Y740D01*
X1860Y741D01*
D02*
G37*
G36*
X1497Y757D02*
X1492Y756D01*
X1488Y753D01*
X1486Y749D01*
X1485Y745D01*
X1486Y740D01*
X1488Y736D01*
X1492Y734D01*
X1497Y733D01*
X1501Y734D01*
X1505Y736D01*
X1508Y740D01*
X1509Y745D01*
X1508Y749D01*
X1505Y753D01*
X1501Y756D01*
X1497Y757D01*
D02*
G37*
G36*
X1717Y725D02*
X1712Y724D01*
X1708Y722D01*
X1706Y718D01*
X1705Y713D01*
X1706Y708D01*
X1708Y704D01*
X1712Y702D01*
X1717Y701D01*
X1722Y702D01*
X1726Y704D01*
X1728Y708D01*
X1729Y713D01*
X1728Y718D01*
X1726Y722D01*
X1722Y724D01*
X1717Y725D01*
D02*
G37*
G36*
X1528Y725D02*
X1524Y725D01*
X1520Y722D01*
X1517Y718D01*
X1516Y713D01*
X1517Y709D01*
X1520Y705D01*
X1524Y702D01*
X1528Y701D01*
X1533Y702D01*
X1537Y705D01*
X1540Y709D01*
X1540Y713D01*
X1540Y718D01*
X1537Y722D01*
X1533Y725D01*
X1528Y725D01*
D02*
G37*
G36*
X1749D02*
X1744Y725D01*
X1740Y722D01*
X1737Y718D01*
X1737Y713D01*
X1737Y709D01*
X1740Y705D01*
X1744Y702D01*
X1749Y701D01*
X1753Y702D01*
X1757Y705D01*
X1760Y709D01*
X1761Y713D01*
X1760Y718D01*
X1757Y722D01*
X1753Y725D01*
X1749Y725D01*
D02*
G37*
G36*
X1720Y757D02*
X1715Y756D01*
X1711Y754D01*
X1709Y750D01*
X1708Y745D01*
X1709Y740D01*
X1711Y736D01*
X1715Y734D01*
X1720Y733D01*
X1725Y734D01*
X1729Y736D01*
X1731Y740D01*
X1732Y745D01*
X1731Y750D01*
X1729Y754D01*
X1725Y756D01*
X1720Y757D01*
D02*
G37*
G36*
X1620D02*
X1615Y756D01*
X1611Y754D01*
X1609Y750D01*
X1608Y746D01*
X1603D01*
Y746D01*
X1603D01*
X1603Y749D01*
X1600Y753D01*
X1596Y756D01*
X1591Y757D01*
X1587Y756D01*
X1583Y753D01*
X1580Y749D01*
X1579Y745D01*
X1580Y740D01*
X1583Y736D01*
X1587Y734D01*
X1591Y733D01*
X1596Y734D01*
X1600Y736D01*
X1603Y740D01*
X1603Y743D01*
X1608D01*
Y743D01*
X1608D01*
X1609Y740D01*
X1611Y736D01*
X1615Y734D01*
X1620Y733D01*
X1625Y734D01*
X1629Y736D01*
X1631Y740D01*
X1632Y745D01*
X1631Y750D01*
X1629Y754D01*
X1625Y756D01*
X1620Y757D01*
D02*
G37*
G36*
X1810Y787D02*
X1805Y786D01*
X1801Y784D01*
X1799Y780D01*
X1798Y775D01*
X1799Y770D01*
X1801Y766D01*
X1805Y764D01*
X1810Y763D01*
X1815Y764D01*
X1819Y766D01*
X1821Y770D01*
X1822Y775D01*
X1821Y780D01*
X1819Y784D01*
X1815Y786D01*
X1810Y787D01*
D02*
G37*
G36*
X1560Y757D02*
X1555Y756D01*
X1551Y753D01*
X1549Y749D01*
X1548Y745D01*
X1549Y740D01*
X1551Y736D01*
X1555Y734D01*
X1560Y733D01*
X1564Y734D01*
X1568Y736D01*
X1571Y740D01*
X1572Y745D01*
X1571Y749D01*
X1568Y753D01*
X1564Y756D01*
X1560Y757D01*
D02*
G37*
G36*
X1686D02*
X1681Y756D01*
X1677Y753D01*
X1675Y749D01*
X1674Y745D01*
X1675Y740D01*
X1677Y736D01*
X1681Y734D01*
X1686Y733D01*
X1690Y734D01*
X1694Y736D01*
X1697Y740D01*
X1698Y745D01*
X1697Y749D01*
X1694Y753D01*
X1690Y756D01*
X1686Y757D01*
D02*
G37*
G36*
X1180Y757D02*
X1175Y756D01*
X1171Y754D01*
X1169Y750D01*
X1168Y745D01*
X1169Y740D01*
X1171Y736D01*
X1175Y734D01*
X1180Y733D01*
X1185Y734D01*
X1189Y736D01*
X1191Y740D01*
X1192Y745D01*
X1191Y750D01*
X1189Y754D01*
X1185Y756D01*
X1180Y757D01*
D02*
G37*
G36*
X850Y615D02*
X842Y613D01*
X836Y609D01*
X832Y603D01*
X830Y595D01*
X832Y587D01*
X836Y581D01*
X842Y577D01*
X850Y575D01*
X858Y577D01*
X864Y581D01*
X868Y587D01*
X870Y595D01*
X868Y603D01*
X864Y609D01*
X858Y613D01*
X850Y615D01*
D02*
G37*
G36*
X2525Y640D02*
X2517Y638D01*
X2511Y634D01*
X2507Y628D01*
X2505Y620D01*
X2507Y612D01*
X2511Y606D01*
X2517Y602D01*
X2525Y600D01*
X2533Y602D01*
X2539Y606D01*
X2543Y612D01*
X2545Y620D01*
X2543Y628D01*
X2539Y634D01*
X2533Y638D01*
X2525Y640D01*
D02*
G37*
G36*
X2070Y637D02*
X2065Y636D01*
X2061Y634D01*
X2059Y630D01*
X2058Y625D01*
X2059Y620D01*
X2061Y616D01*
X2065Y614D01*
X2070Y613D01*
X2075Y614D01*
X2079Y616D01*
X2081Y620D01*
X2082Y625D01*
X2081Y630D01*
X2079Y634D01*
X2075Y636D01*
X2070Y637D01*
D02*
G37*
G36*
X479Y579D02*
X411D01*
Y511D01*
X479D01*
Y579D01*
D02*
G37*
G36*
X1870Y570D02*
X1862Y568D01*
X1856Y564D01*
X1852Y558D01*
X1850Y550D01*
X1852Y542D01*
X1856Y536D01*
X1862Y532D01*
X1870Y530D01*
X1878Y532D01*
X1884Y536D01*
X1888Y542D01*
X1890Y550D01*
X1888Y558D01*
X1884Y564D01*
X1878Y568D01*
X1870Y570D01*
D02*
G37*
G36*
X2525D02*
X2517Y568D01*
X2511Y564D01*
X2507Y558D01*
X2505Y550D01*
X2507Y542D01*
X2511Y536D01*
X2517Y532D01*
X2525Y530D01*
X2533Y532D01*
X2539Y536D01*
X2543Y542D01*
X2545Y550D01*
X2543Y558D01*
X2539Y564D01*
X2533Y568D01*
X2525Y570D01*
D02*
G37*
G36*
X1623Y694D02*
X1618Y693D01*
X1614Y690D01*
X1612Y686D01*
X1611Y682D01*
X1612Y677D01*
X1614Y673D01*
X1618Y671D01*
X1623Y670D01*
X1627Y671D01*
X1631Y673D01*
X1634Y677D01*
X1635Y682D01*
X1634Y686D01*
X1631Y690D01*
X1627Y693D01*
X1623Y694D01*
D02*
G37*
G36*
X1812D02*
X1807Y693D01*
X1803Y690D01*
X1800Y686D01*
X1800Y682D01*
X1800Y677D01*
X1803Y673D01*
X1807Y671D01*
X1812Y670D01*
X1816Y671D01*
X1820Y673D01*
X1823Y677D01*
X1824Y682D01*
X1823Y686D01*
X1820Y690D01*
X1816Y693D01*
X1812Y694D01*
D02*
G37*
G36*
X1250Y697D02*
X1245Y696D01*
X1241Y694D01*
X1239Y690D01*
X1238Y685D01*
X1239Y680D01*
X1241Y676D01*
X1245Y674D01*
X1250Y673D01*
X1255Y674D01*
X1259Y676D01*
X1261Y680D01*
X1262Y685D01*
X1261Y690D01*
X1259Y694D01*
X1255Y696D01*
X1250Y697D01*
D02*
G37*
G36*
X2025Y672D02*
X2020Y671D01*
X2016Y669D01*
X2014Y665D01*
X2013Y660D01*
X2014Y655D01*
X2016Y651D01*
X2020Y649D01*
X2025Y648D01*
X2025Y648D01*
X2024Y645D01*
X2024Y645D01*
X2024Y645D01*
X2023Y640D01*
X2024Y635D01*
X2026Y631D01*
X2030Y629D01*
X2035Y628D01*
X2040Y629D01*
X2044Y631D01*
X2046Y635D01*
X2047Y640D01*
X2046Y645D01*
X2044Y649D01*
X2040Y651D01*
X2038Y652D01*
X2036Y655D01*
D01*
D01*
X2036Y655D01*
D01*
X2037Y660D01*
X2036Y665D01*
X2034Y669D01*
X2030Y671D01*
X2025Y672D01*
D02*
G37*
G36*
X2340Y675D02*
X2332Y673D01*
X2326Y669D01*
X2322Y663D01*
X2320Y655D01*
X2322Y647D01*
X2326Y641D01*
X2332Y637D01*
X2340Y635D01*
X2348Y637D01*
X2354Y641D01*
X2358Y647D01*
X2360Y655D01*
X2358Y663D01*
X2354Y669D01*
X2348Y673D01*
X2340Y675D01*
D02*
G37*
G36*
X915Y695D02*
X907Y693D01*
X901Y689D01*
X897Y683D01*
X895Y675D01*
X897Y667D01*
X901Y661D01*
X907Y657D01*
X915Y655D01*
X923Y657D01*
X929Y661D01*
X933Y667D01*
X935Y675D01*
X933Y683D01*
X929Y689D01*
X923Y693D01*
X915Y695D01*
D02*
G37*
G36*
X1888Y1689D02*
X1884Y1688D01*
X1880Y1685D01*
X1877Y1681D01*
X1876Y1677D01*
X1877Y1672D01*
X1880Y1668D01*
X1884Y1666D01*
X1888Y1665D01*
X1893Y1666D01*
X1897Y1668D01*
X1900Y1672D01*
X1901Y1677D01*
X1900Y1681D01*
X1897Y1685D01*
X1893Y1688D01*
X1888Y1689D01*
D02*
G37*
G36*
X2825Y1739D02*
X2816Y1738D01*
X2808Y1735D01*
X2801Y1729D01*
X2795Y1722D01*
X2792Y1714D01*
X2791Y1705D01*
X2792Y1696D01*
X2795Y1688D01*
X2801Y1681D01*
X2808Y1675D01*
X2816Y1672D01*
X2825Y1671D01*
X2834Y1672D01*
X2842Y1675D01*
X2849Y1681D01*
X2855Y1688D01*
X2858Y1696D01*
X2859Y1705D01*
X2858Y1714D01*
X2855Y1722D01*
X2849Y1729D01*
X2842Y1735D01*
X2834Y1738D01*
X2825Y1739D01*
D02*
G37*
G36*
X2925D02*
X2916Y1738D01*
X2908Y1735D01*
X2901Y1729D01*
X2895Y1722D01*
X2892Y1714D01*
X2891Y1705D01*
X2892Y1696D01*
X2895Y1688D01*
X2901Y1681D01*
X2908Y1675D01*
X2916Y1672D01*
X2925Y1671D01*
X2934Y1672D01*
X2942Y1675D01*
X2949Y1681D01*
X2955Y1688D01*
X2958Y1696D01*
X2959Y1705D01*
X2958Y1714D01*
X2955Y1722D01*
X2949Y1729D01*
X2942Y1735D01*
X2934Y1738D01*
X2925Y1739D01*
D02*
G37*
G36*
X344Y1660D02*
X336Y1658D01*
X330Y1654D01*
X326Y1648D01*
X324Y1640D01*
X326Y1632D01*
X330Y1626D01*
X336Y1622D01*
X344Y1620D01*
X352Y1622D01*
X358Y1626D01*
X362Y1632D01*
X364Y1640D01*
X362Y1648D01*
X358Y1654D01*
X352Y1658D01*
X344Y1660D01*
D02*
G37*
G36*
X870Y1680D02*
X862Y1678D01*
X856Y1674D01*
X852Y1668D01*
X850Y1660D01*
X852Y1652D01*
X856Y1646D01*
X862Y1642D01*
X870Y1640D01*
X878Y1642D01*
X884Y1646D01*
X888Y1652D01*
X890Y1660D01*
X888Y1668D01*
X884Y1674D01*
X878Y1678D01*
X870Y1680D01*
D02*
G37*
G36*
X1940Y1682D02*
X1935Y1681D01*
X1931Y1679D01*
X1929Y1675D01*
X1928Y1670D01*
X1929Y1665D01*
X1931Y1661D01*
X1935Y1659D01*
X1940Y1658D01*
X1945Y1659D01*
X1949Y1661D01*
X1951Y1665D01*
X1952Y1670D01*
X1951Y1675D01*
X1949Y1679D01*
X1945Y1681D01*
X1940Y1682D01*
D02*
G37*
G36*
X1975Y1735D02*
X1967Y1733D01*
X1961Y1729D01*
X1957Y1723D01*
X1955Y1715D01*
X1957Y1707D01*
X1961Y1701D01*
X1967Y1697D01*
X1975Y1695D01*
X1983Y1697D01*
X1989Y1701D01*
X1993Y1707D01*
X1995Y1715D01*
X1993Y1723D01*
X1989Y1729D01*
X1983Y1733D01*
X1975Y1735D01*
D02*
G37*
G36*
X870Y1735D02*
X862Y1733D01*
X856Y1729D01*
X852Y1723D01*
X850Y1715D01*
X852Y1707D01*
X856Y1701D01*
X862Y1697D01*
X870Y1695D01*
X878Y1697D01*
X884Y1701D01*
X888Y1707D01*
X890Y1715D01*
X888Y1723D01*
X884Y1729D01*
X878Y1733D01*
X870Y1735D01*
D02*
G37*
G36*
X2135Y1772D02*
X2130Y1771D01*
X2126Y1769D01*
X2124Y1765D01*
X2123Y1760D01*
X2124Y1755D01*
X2126Y1751D01*
X2130Y1749D01*
X2135Y1748D01*
X2140Y1749D01*
X2144Y1751D01*
X2146Y1755D01*
X2147Y1760D01*
X2146Y1765D01*
X2144Y1769D01*
X2140Y1771D01*
X2135Y1772D01*
D02*
G37*
G36*
X3025Y1739D02*
X3016Y1738D01*
X3008Y1735D01*
X3001Y1729D01*
X2995Y1722D01*
X2992Y1714D01*
X2991Y1705D01*
X2992Y1696D01*
X2995Y1688D01*
X3001Y1681D01*
X3008Y1675D01*
X3016Y1672D01*
X3025Y1671D01*
X3034Y1672D01*
X3042Y1675D01*
X3049Y1681D01*
X3055Y1688D01*
X3058Y1696D01*
X3059Y1705D01*
X3058Y1714D01*
X3055Y1722D01*
X3049Y1729D01*
X3042Y1735D01*
X3034Y1738D01*
X3025Y1739D01*
D02*
G37*
G36*
X2450Y1744D02*
X2441Y1743D01*
X2433Y1740D01*
X2426Y1734D01*
X2420Y1727D01*
X2417Y1719D01*
X2416Y1710D01*
X2417Y1701D01*
X2420Y1693D01*
X2426Y1686D01*
X2433Y1680D01*
X2441Y1677D01*
X2450Y1676D01*
X2459Y1677D01*
X2467Y1680D01*
X2474Y1686D01*
X2480Y1693D01*
X2483Y1701D01*
X2484Y1710D01*
X2483Y1719D01*
X2480Y1727D01*
X2474Y1734D01*
X2467Y1740D01*
X2459Y1743D01*
X2450Y1744D01*
D02*
G37*
G36*
X2550D02*
X2541Y1743D01*
X2533Y1740D01*
X2526Y1734D01*
X2520Y1727D01*
X2517Y1719D01*
X2516Y1710D01*
X2517Y1701D01*
X2520Y1693D01*
X2526Y1686D01*
X2533Y1680D01*
X2541Y1677D01*
X2550Y1676D01*
X2559Y1677D01*
X2567Y1680D01*
X2574Y1686D01*
X2580Y1693D01*
X2583Y1701D01*
X2584Y1710D01*
X2583Y1719D01*
X2580Y1727D01*
X2574Y1734D01*
X2567Y1740D01*
X2559Y1743D01*
X2550Y1744D01*
D02*
G37*
G36*
X1095Y1565D02*
X1087Y1563D01*
X1081Y1559D01*
X1077Y1553D01*
X1075Y1545D01*
X1077Y1537D01*
X1081Y1531D01*
X1087Y1527D01*
X1095Y1525D01*
X1103Y1527D01*
X1109Y1531D01*
X1113Y1537D01*
X1115Y1545D01*
X1113Y1553D01*
X1109Y1559D01*
X1103Y1563D01*
X1095Y1565D01*
D02*
G37*
G36*
X3065Y1583D02*
X3058Y1582D01*
X3052Y1578D01*
X3048Y1572D01*
X3047Y1565D01*
X3048Y1558D01*
X3052Y1552D01*
X3058Y1548D01*
X3065Y1547D01*
X3072Y1548D01*
X3078Y1552D01*
X3082Y1558D01*
X3083Y1565D01*
X3082Y1572D01*
X3078Y1578D01*
X3072Y1582D01*
X3065Y1583D01*
D02*
G37*
G36*
X245Y1590D02*
X237Y1588D01*
X231Y1584D01*
X227Y1578D01*
X225Y1570D01*
X227Y1562D01*
X231Y1556D01*
X237Y1552D01*
X245Y1550D01*
X253Y1552D01*
X259Y1556D01*
X263Y1562D01*
X265Y1570D01*
X263Y1578D01*
X259Y1584D01*
X253Y1588D01*
X245Y1590D01*
D02*
G37*
G36*
X1615Y1492D02*
X1610Y1491D01*
X1606Y1489D01*
X1604Y1485D01*
X1603Y1480D01*
X1604Y1475D01*
X1606Y1471D01*
X1610Y1469D01*
X1615Y1468D01*
X1620Y1469D01*
X1624Y1471D01*
X1626Y1475D01*
X1627Y1480D01*
X1626Y1485D01*
X1624Y1489D01*
X1620Y1491D01*
X1615Y1492D01*
D02*
G37*
G36*
X2450Y1544D02*
X2441Y1543D01*
X2433Y1540D01*
X2426Y1534D01*
X2420Y1527D01*
X2417Y1519D01*
X2416Y1510D01*
X2417Y1501D01*
X2420Y1493D01*
X2426Y1486D01*
X2433Y1480D01*
X2441Y1477D01*
X2450Y1476D01*
X2459Y1477D01*
X2467Y1480D01*
X2474Y1486D01*
X2480Y1493D01*
X2483Y1501D01*
X2484Y1510D01*
X2483Y1519D01*
X2480Y1527D01*
X2474Y1534D01*
X2467Y1540D01*
X2459Y1543D01*
X2450Y1544D01*
D02*
G37*
G36*
X2550D02*
X2541Y1543D01*
X2533Y1540D01*
X2526Y1534D01*
X2520Y1527D01*
X2517Y1519D01*
X2516Y1510D01*
X2517Y1501D01*
X2520Y1493D01*
X2526Y1486D01*
X2533Y1480D01*
X2541Y1477D01*
X2550Y1476D01*
X2559Y1477D01*
X2567Y1480D01*
X2574Y1486D01*
X2580Y1493D01*
X2583Y1501D01*
X2584Y1510D01*
X2583Y1519D01*
X2580Y1527D01*
X2574Y1534D01*
X2567Y1540D01*
X2559Y1543D01*
X2550Y1544D01*
D02*
G37*
G36*
X290Y1630D02*
X282Y1628D01*
X276Y1624D01*
X272Y1618D01*
X270Y1610D01*
X272Y1602D01*
X276Y1596D01*
X282Y1592D01*
X290Y1590D01*
X298Y1592D01*
X304Y1596D01*
X308Y1602D01*
X310Y1610D01*
X308Y1618D01*
X304Y1624D01*
X298Y1628D01*
X290Y1630D01*
D02*
G37*
G36*
X1388Y1632D02*
X1380Y1631D01*
X1373Y1627D01*
X1369Y1620D01*
X1368Y1612D01*
X1369Y1605D01*
X1373Y1598D01*
X1380Y1594D01*
X1388Y1593D01*
X1395Y1594D01*
X1402Y1598D01*
X1406Y1605D01*
X1407Y1612D01*
X1406Y1620D01*
X1402Y1627D01*
X1395Y1631D01*
X1388Y1632D01*
D02*
G37*
G36*
X240Y1655D02*
X232Y1653D01*
X226Y1649D01*
X222Y1643D01*
X220Y1635D01*
X222Y1627D01*
X226Y1621D01*
X232Y1617D01*
X240Y1615D01*
X248Y1617D01*
X254Y1621D01*
X258Y1627D01*
X260Y1635D01*
X258Y1643D01*
X254Y1649D01*
X248Y1653D01*
X240Y1655D01*
D02*
G37*
G36*
X2450Y1644D02*
X2441Y1643D01*
X2433Y1640D01*
X2426Y1634D01*
X2420Y1627D01*
X2417Y1619D01*
X2416Y1610D01*
X2417Y1601D01*
X2420Y1593D01*
X2426Y1586D01*
X2433Y1580D01*
X2441Y1577D01*
X2450Y1576D01*
X2459Y1577D01*
X2467Y1580D01*
X2474Y1586D01*
X2480Y1593D01*
X2483Y1601D01*
X2484Y1610D01*
X2483Y1619D01*
X2480Y1627D01*
X2474Y1634D01*
X2467Y1640D01*
X2459Y1643D01*
X2450Y1644D01*
D02*
G37*
G36*
X2550D02*
X2541Y1643D01*
X2533Y1640D01*
X2526Y1634D01*
X2520Y1627D01*
X2517Y1619D01*
X2516Y1610D01*
X2517Y1601D01*
X2520Y1593D01*
X2526Y1586D01*
X2533Y1580D01*
X2541Y1577D01*
X2550Y1576D01*
X2559Y1577D01*
X2567Y1580D01*
X2574Y1586D01*
X2580Y1593D01*
X2583Y1601D01*
X2584Y1610D01*
X2583Y1619D01*
X2580Y1627D01*
X2574Y1634D01*
X2567Y1640D01*
X2559Y1643D01*
X2550Y1644D01*
D02*
G37*
G36*
X1615Y1612D02*
X1610Y1611D01*
X1606Y1609D01*
X1604Y1605D01*
X1603Y1600D01*
X1604Y1595D01*
X1606Y1591D01*
X1610Y1589D01*
X1615Y1588D01*
X1620Y1589D01*
X1624Y1591D01*
X1626Y1595D01*
X1627Y1600D01*
X1626Y1605D01*
X1624Y1609D01*
X1620Y1611D01*
X1615Y1612D01*
D02*
G37*
G36*
X1383Y2038D02*
X1373Y2037D01*
X1363Y2033D01*
X1355Y2027D01*
X1349Y2019D01*
X1345Y2009D01*
X1344Y1999D01*
X1345Y1989D01*
X1349Y1979D01*
X1355Y1971D01*
X1363Y1965D01*
X1373Y1961D01*
X1383Y1960D01*
X1393Y1961D01*
X1403Y1965D01*
X1411Y1971D01*
X1417Y1979D01*
X1421Y1989D01*
X1422Y1999D01*
X1421Y2009D01*
X1417Y2019D01*
X1411Y2027D01*
X1403Y2033D01*
X1393Y2037D01*
X1383Y2038D01*
D02*
G37*
G36*
X2335Y2035D02*
X2327Y2033D01*
X2321Y2029D01*
X2317Y2023D01*
X2315Y2015D01*
X2317Y2007D01*
X2321Y2001D01*
X2327Y1997D01*
X2335Y1995D01*
X2343Y1997D01*
X2349Y2001D01*
X2353Y2007D01*
X2355Y2015D01*
X2353Y2023D01*
X2349Y2029D01*
X2343Y2033D01*
X2335Y2035D01*
D02*
G37*
G36*
X165Y2124D02*
X152Y2123D01*
X140Y2118D01*
X130Y2110D01*
X122Y2100D01*
X117Y2088D01*
X116Y2075D01*
X117Y2062D01*
X122Y2050D01*
X130Y2040D01*
X140Y2032D01*
X152Y2027D01*
X165Y2026D01*
X178Y2027D01*
X190Y2032D01*
X200Y2040D01*
X208Y2050D01*
X213Y2062D01*
X214Y2075D01*
X213Y2088D01*
X208Y2100D01*
X200Y2110D01*
X190Y2118D01*
X178Y2123D01*
X165Y2124D01*
D02*
G37*
G36*
X1447Y1914D02*
X1439Y1912D01*
X1433Y1908D01*
X1428Y1902D01*
X1427Y1894D01*
X1428Y1886D01*
X1433Y1880D01*
X1439Y1876D01*
X1447Y1874D01*
X1454Y1876D01*
X1461Y1880D01*
X1465Y1886D01*
X1467Y1894D01*
X1465Y1902D01*
X1461Y1908D01*
X1454Y1912D01*
X1447Y1914D01*
D02*
G37*
G36*
X2240Y1920D02*
X2232Y1918D01*
X2226Y1914D01*
X2222Y1908D01*
X2220Y1900D01*
X2222Y1892D01*
X2226Y1886D01*
X2232Y1882D01*
X2240Y1880D01*
X2248Y1882D01*
X2254Y1886D01*
X2258Y1892D01*
X2260Y1900D01*
X2258Y1908D01*
X2254Y1914D01*
X2248Y1918D01*
X2240Y1920D01*
D02*
G37*
G36*
X2425Y1985D02*
X2417Y1983D01*
X2411Y1979D01*
X2407Y1973D01*
X2405Y1965D01*
X2407Y1957D01*
X2411Y1951D01*
X2417Y1947D01*
X2425Y1945D01*
X2433Y1947D01*
X2439Y1951D01*
X2443Y1957D01*
X2445Y1965D01*
X2443Y1973D01*
X2439Y1979D01*
X2433Y1983D01*
X2425Y1985D01*
D02*
G37*
G36*
X2550Y2070D02*
X2542Y2068D01*
X2536Y2064D01*
X2533Y2059D01*
X2527D01*
X2524Y2064D01*
X2518Y2068D01*
X2510Y2070D01*
X2502Y2068D01*
X2496Y2064D01*
X2492Y2058D01*
X2490Y2050D01*
X2492Y2042D01*
X2496Y2036D01*
X2502Y2032D01*
X2510Y2030D01*
X2518Y2032D01*
X2524Y2036D01*
X2527Y2041D01*
X2533D01*
X2536Y2036D01*
X2542Y2032D01*
X2550Y2030D01*
X2558Y2032D01*
X2564Y2036D01*
X2568Y2042D01*
X2570Y2050D01*
X2568Y2058D01*
X2564Y2064D01*
X2558Y2068D01*
X2550Y2070D01*
D02*
G37*
G36*
X1920Y2120D02*
X1912Y2118D01*
X1906Y2114D01*
X1902Y2108D01*
X1900Y2100D01*
X1902Y2092D01*
X1906Y2086D01*
X1912Y2082D01*
X1920Y2080D01*
X1928Y2082D01*
X1934Y2086D01*
X1938Y2092D01*
X1940Y2100D01*
X1938Y2108D01*
X1934Y2114D01*
X1928Y2118D01*
X1920Y2120D01*
D02*
G37*
G36*
X2860Y2218D02*
X2848Y2216D01*
X2836Y2213D01*
X2825Y2207D01*
X2816Y2199D01*
X2808Y2190D01*
X2802Y2179D01*
X2799Y2167D01*
X2797Y2155D01*
X2799Y2143D01*
X2802Y2131D01*
X2808Y2120D01*
X2816Y2111D01*
X2825Y2103D01*
X2836Y2097D01*
X2848Y2094D01*
X2860Y2092D01*
X2872Y2094D01*
X2884Y2097D01*
X2895Y2103D01*
X2904Y2111D01*
X2912Y2120D01*
X2918Y2131D01*
X2921Y2143D01*
X2923Y2155D01*
X2921Y2167D01*
X2918Y2179D01*
X2912Y2190D01*
X2904Y2199D01*
X2895Y2207D01*
X2884Y2213D01*
X2872Y2216D01*
X2860Y2218D01*
D02*
G37*
G36*
X1670Y2134D02*
X1657Y2133D01*
X1645Y2128D01*
X1635Y2120D01*
X1627Y2110D01*
X1622Y2098D01*
X1621Y2085D01*
X1622Y2072D01*
X1627Y2060D01*
X1635Y2050D01*
X1645Y2042D01*
X1657Y2037D01*
X1670Y2036D01*
X1683Y2037D01*
X1695Y2042D01*
X1705Y2050D01*
X1713Y2060D01*
X1718Y2072D01*
X1719Y2085D01*
X1718Y2098D01*
X1713Y2110D01*
X1705Y2120D01*
X1695Y2128D01*
X1683Y2133D01*
X1670Y2134D01*
D02*
G37*
G36*
X750Y2134D02*
X737Y2133D01*
X725Y2128D01*
X715Y2120D01*
X707Y2110D01*
X702Y2098D01*
X701Y2085D01*
X702Y2072D01*
X707Y2060D01*
X715Y2050D01*
X725Y2042D01*
X737Y2037D01*
X750Y2036D01*
X763Y2037D01*
X775Y2042D01*
X785Y2050D01*
X793Y2060D01*
X798Y2072D01*
X799Y2085D01*
X798Y2098D01*
X793Y2110D01*
X785Y2120D01*
X775Y2128D01*
X763Y2133D01*
X750Y2134D01*
D02*
G37*
G36*
X1180Y2085D02*
X1172Y2083D01*
X1166Y2079D01*
X1162Y2073D01*
X1160Y2065D01*
X1162Y2057D01*
X1166Y2051D01*
X1172Y2047D01*
X1180Y2045D01*
X1188Y2047D01*
X1194Y2051D01*
X1198Y2057D01*
X1200Y2065D01*
X1198Y2073D01*
X1194Y2079D01*
X1188Y2083D01*
X1180Y2085D01*
D02*
G37*
G36*
X2550Y1844D02*
X2541Y1843D01*
X2533Y1840D01*
X2526Y1834D01*
X2520Y1827D01*
X2517Y1819D01*
X2516Y1810D01*
X2517Y1801D01*
X2520Y1793D01*
X2526Y1786D01*
X2533Y1780D01*
X2541Y1777D01*
X2550Y1776D01*
X2559Y1777D01*
X2567Y1780D01*
X2574Y1786D01*
X2580Y1793D01*
X2583Y1801D01*
X2584Y1810D01*
X2583Y1819D01*
X2580Y1827D01*
X2574Y1834D01*
X2567Y1840D01*
X2559Y1843D01*
X2550Y1844D01*
D02*
G37*
G36*
X1835Y1817D02*
X1827Y1816D01*
X1821Y1811D01*
X1817Y1805D01*
X1815Y1797D01*
X1817Y1790D01*
X1821Y1783D01*
X1827Y1779D01*
X1835Y1777D01*
X1843Y1779D01*
X1849Y1783D01*
X1853Y1790D01*
X1855Y1797D01*
X1853Y1805D01*
X1849Y1811D01*
X1843Y1816D01*
X1835Y1817D01*
D02*
G37*
G36*
X1650Y1802D02*
X1645Y1801D01*
X1641Y1799D01*
X1639Y1795D01*
X1638Y1790D01*
X1639Y1785D01*
X1641Y1781D01*
X1645Y1779D01*
X1650Y1778D01*
X1655Y1779D01*
X1659Y1781D01*
X1661Y1785D01*
X1662Y1790D01*
X1661Y1795D01*
X1659Y1799D01*
X1655Y1801D01*
X1650Y1802D01*
D02*
G37*
G36*
X870Y1790D02*
X862Y1788D01*
X856Y1784D01*
X852Y1778D01*
X850Y1770D01*
X852Y1762D01*
X856Y1756D01*
X862Y1752D01*
X870Y1750D01*
X878Y1752D01*
X884Y1756D01*
X888Y1762D01*
X890Y1770D01*
X888Y1778D01*
X884Y1784D01*
X878Y1788D01*
X870Y1790D01*
D02*
G37*
G36*
X1940Y1805D02*
X1932Y1803D01*
X1926Y1799D01*
X1922Y1793D01*
X1920Y1785D01*
X1922Y1777D01*
X1926Y1771D01*
X1932Y1767D01*
X1940Y1765D01*
X1948Y1767D01*
X1954Y1771D01*
X1958Y1777D01*
X1960Y1785D01*
X1958Y1793D01*
X1954Y1799D01*
X1948Y1803D01*
X1940Y1805D01*
D02*
G37*
G36*
X2450Y1844D02*
X2441Y1843D01*
X2433Y1840D01*
X2426Y1834D01*
X2420Y1827D01*
X2417Y1819D01*
X2416Y1810D01*
X2417Y1801D01*
X2420Y1793D01*
X2426Y1786D01*
X2433Y1780D01*
X2441Y1777D01*
X2450Y1776D01*
X2459Y1777D01*
X2467Y1780D01*
X2474Y1786D01*
X2480Y1793D01*
X2483Y1801D01*
X2484Y1810D01*
X2483Y1819D01*
X2480Y1827D01*
X2474Y1834D01*
X2467Y1840D01*
X2459Y1843D01*
X2450Y1844D01*
D02*
G37*
G36*
X2645Y1870D02*
X2637Y1868D01*
X2631Y1864D01*
X2627Y1858D01*
X2625Y1850D01*
X2627Y1842D01*
X2631Y1836D01*
X2637Y1832D01*
X2645Y1830D01*
X2653Y1832D01*
X2659Y1836D01*
X2663Y1842D01*
X2665Y1850D01*
X2663Y1858D01*
X2659Y1864D01*
X2653Y1868D01*
X2645Y1870D01*
D02*
G37*
G36*
X1490Y1905D02*
X1482Y1903D01*
X1476Y1899D01*
X1472Y1893D01*
X1470Y1885D01*
X1472Y1877D01*
X1476Y1871D01*
X1482Y1867D01*
X1490Y1865D01*
X1498Y1867D01*
X1504Y1871D01*
X1508Y1877D01*
X1510Y1885D01*
X1508Y1893D01*
X1504Y1899D01*
X1498Y1903D01*
X1490Y1905D01*
D02*
G37*
G36*
X2540Y1950D02*
X2532Y1948D01*
X2526Y1944D01*
X2522Y1938D01*
X2520Y1930D01*
X2522Y1922D01*
X2526Y1916D01*
X2531Y1913D01*
Y1908D01*
X2526Y1904D01*
X2522Y1898D01*
X2520Y1890D01*
X2522Y1882D01*
X2526Y1876D01*
X2532Y1872D01*
X2540Y1870D01*
X2548Y1872D01*
X2554Y1876D01*
X2558Y1882D01*
X2560Y1890D01*
X2558Y1898D01*
X2554Y1904D01*
X2549Y1908D01*
Y1913D01*
X2554Y1916D01*
X2558Y1922D01*
X2560Y1930D01*
X2558Y1938D01*
X2554Y1944D01*
X2548Y1948D01*
X2540Y1950D01*
D02*
G37*
G36*
X2190Y1802D02*
X2185Y1801D01*
X2181Y1799D01*
X2179Y1795D01*
X2178Y1790D01*
X2179Y1785D01*
X2181Y1781D01*
X2185Y1779D01*
X2190Y1778D01*
X2195Y1779D01*
X2199Y1781D01*
X2201Y1785D01*
X2202Y1790D01*
X2201Y1795D01*
X2199Y1799D01*
X2195Y1801D01*
X2190Y1802D01*
D02*
G37*
G36*
X1585Y1830D02*
X1577Y1828D01*
X1571Y1824D01*
X1567Y1818D01*
X1565Y1810D01*
X1567Y1802D01*
X1571Y1796D01*
X1577Y1792D01*
X1585Y1790D01*
X1593Y1792D01*
X1599Y1796D01*
X1603Y1802D01*
X1605Y1810D01*
X1603Y1818D01*
X1599Y1824D01*
X1593Y1828D01*
X1585Y1830D01*
D02*
G37*
G36*
X1530Y1870D02*
X1522Y1868D01*
X1516Y1864D01*
X1512Y1858D01*
X1510Y1850D01*
X1512Y1842D01*
X1516Y1836D01*
X1522Y1832D01*
X1530Y1830D01*
X1538Y1832D01*
X1544Y1836D01*
X1548Y1842D01*
X1550Y1850D01*
X1548Y1858D01*
X1544Y1864D01*
X1538Y1868D01*
X1530Y1870D01*
D02*
G37*
G36*
X1358Y1505D02*
X1350Y1503D01*
X1343Y1499D01*
X1339Y1493D01*
X1338Y1485D01*
X1339Y1477D01*
X1343Y1471D01*
X1350Y1467D01*
X1358Y1465D01*
X1365Y1467D01*
X1372Y1471D01*
X1376Y1477D01*
X1377Y1485D01*
X1376Y1493D01*
X1372Y1499D01*
X1365Y1503D01*
X1358Y1505D01*
D02*
G37*
G36*
X1525Y1207D02*
X1520Y1206D01*
X1516Y1204D01*
X1514Y1200D01*
X1513Y1195D01*
X1514Y1190D01*
X1516Y1186D01*
X1520Y1184D01*
X1525Y1183D01*
X1526Y1183D01*
X1529Y1180D01*
X1530Y1175D01*
X1532Y1171D01*
X1536Y1169D01*
X1541Y1168D01*
X1546Y1169D01*
X1550Y1171D01*
X1552Y1175D01*
X1553Y1180D01*
X1552Y1185D01*
X1550Y1189D01*
X1546Y1191D01*
X1541Y1192D01*
X1540Y1192D01*
X1537Y1195D01*
X1536Y1200D01*
X1534Y1204D01*
X1530Y1206D01*
X1525Y1207D01*
D02*
G37*
G36*
X2060Y1192D02*
X2055Y1191D01*
X2051Y1189D01*
X2049Y1185D01*
X2048Y1180D01*
X2049Y1175D01*
X2051Y1171D01*
X2055Y1169D01*
X2060Y1168D01*
X2065Y1169D01*
X2069Y1171D01*
X2071Y1175D01*
X2072Y1180D01*
X2071Y1185D01*
X2069Y1189D01*
X2065Y1191D01*
X2060Y1192D01*
D02*
G37*
G36*
X2190Y1210D02*
X2182Y1208D01*
X2176Y1204D01*
X2172Y1198D01*
X2170Y1190D01*
X2172Y1182D01*
X2176Y1176D01*
X2182Y1172D01*
X2190Y1170D01*
X2198Y1172D01*
X2204Y1176D01*
X2208Y1182D01*
X2210Y1190D01*
X2208Y1198D01*
X2204Y1204D01*
X2198Y1208D01*
X2190Y1210D01*
D02*
G37*
G36*
X1960Y1170D02*
X1952Y1168D01*
X1946Y1164D01*
X1942Y1158D01*
X1940Y1150D01*
X1942Y1142D01*
X1946Y1136D01*
X1952Y1132D01*
X1960Y1130D01*
X1968Y1132D01*
X1974Y1136D01*
X1978Y1142D01*
X1980Y1150D01*
X1978Y1158D01*
X1974Y1164D01*
X1968Y1168D01*
X1960Y1170D01*
D02*
G37*
G36*
X2450Y1239D02*
X2440Y1238D01*
X2430Y1234D01*
X2422Y1228D01*
X2416Y1220D01*
X2412Y1210D01*
X2411Y1200D01*
X2412Y1190D01*
X2416Y1180D01*
X2422Y1172D01*
X2430Y1166D01*
X2440Y1162D01*
X2450Y1161D01*
X2460Y1162D01*
X2470Y1166D01*
X2478Y1172D01*
X2484Y1180D01*
X2488Y1190D01*
X2489Y1200D01*
X2488Y1210D01*
X2484Y1220D01*
X2478Y1228D01*
X2470Y1234D01*
X2460Y1238D01*
X2450Y1239D01*
D02*
G37*
G36*
X2550D02*
X2540Y1238D01*
X2530Y1234D01*
X2522Y1228D01*
X2516Y1220D01*
X2512Y1210D01*
X2511Y1200D01*
X2512Y1190D01*
X2516Y1180D01*
X2522Y1172D01*
X2530Y1166D01*
X2540Y1162D01*
X2550Y1161D01*
X2560Y1162D01*
X2570Y1166D01*
X2578Y1172D01*
X2584Y1180D01*
X2588Y1190D01*
X2589Y1200D01*
X2588Y1210D01*
X2584Y1220D01*
X2578Y1228D01*
X2570Y1234D01*
X2560Y1238D01*
X2550Y1239D01*
D02*
G37*
G36*
X1419Y1217D02*
X1415Y1216D01*
X1411Y1214D01*
X1408Y1210D01*
X1408Y1207D01*
X1403Y1205D01*
X1398Y1208D01*
X1390Y1210D01*
X1382Y1208D01*
X1376Y1204D01*
X1372Y1198D01*
X1370Y1190D01*
X1372Y1182D01*
X1376Y1176D01*
X1382Y1172D01*
X1390Y1170D01*
X1398Y1172D01*
X1404Y1176D01*
X1408Y1182D01*
X1410Y1190D01*
X1410Y1192D01*
X1414Y1195D01*
X1415Y1194D01*
X1419Y1193D01*
X1424Y1194D01*
X1428Y1196D01*
X1431Y1200D01*
X1432Y1205D01*
X1431Y1210D01*
X1428Y1214D01*
X1424Y1216D01*
X1419Y1217D01*
D02*
G37*
G36*
X2145Y1245D02*
X2137Y1243D01*
X2131Y1239D01*
X2127Y1233D01*
X2125Y1225D01*
X2127Y1217D01*
X2131Y1211D01*
X2137Y1207D01*
X2145Y1205D01*
X2153Y1207D01*
X2159Y1211D01*
X2163Y1217D01*
X2165Y1225D01*
X2163Y1233D01*
X2159Y1239D01*
X2153Y1243D01*
X2145Y1245D01*
D02*
G37*
G36*
X1595Y1242D02*
X1590Y1241D01*
X1586Y1239D01*
X1584Y1235D01*
X1583Y1230D01*
X1584Y1225D01*
X1586Y1221D01*
X1590Y1219D01*
X1595Y1218D01*
X1600Y1219D01*
X1604Y1221D01*
X1606Y1225D01*
X1607Y1230D01*
X1606Y1235D01*
X1604Y1239D01*
X1600Y1241D01*
X1595Y1242D01*
D02*
G37*
G36*
X2905Y1218D02*
X2898Y1217D01*
X2892Y1213D01*
X2888Y1207D01*
X2887Y1200D01*
X2888Y1193D01*
X2892Y1187D01*
X2898Y1183D01*
X2905Y1182D01*
X2912Y1183D01*
X2918Y1187D01*
X2922Y1193D01*
X2923Y1200D01*
X2922Y1207D01*
X2918Y1213D01*
X2912Y1217D01*
X2905Y1218D01*
D02*
G37*
G36*
X1490Y1207D02*
X1485Y1206D01*
X1481Y1204D01*
X1479Y1200D01*
X1478Y1195D01*
X1479Y1190D01*
X1481Y1186D01*
X1485Y1184D01*
X1490Y1183D01*
X1495Y1184D01*
X1499Y1186D01*
X1501Y1190D01*
X1502Y1195D01*
X1501Y1200D01*
X1499Y1204D01*
X1495Y1206D01*
X1490Y1207D01*
D02*
G37*
G36*
X330Y1225D02*
X322Y1223D01*
X316Y1219D01*
X312Y1213D01*
X310Y1205D01*
X312Y1197D01*
X316Y1191D01*
X322Y1187D01*
X330Y1185D01*
X338Y1187D01*
X344Y1191D01*
X348Y1197D01*
X350Y1205D01*
X348Y1213D01*
X344Y1219D01*
X338Y1223D01*
X330Y1225D01*
D02*
G37*
G36*
X1915Y1080D02*
X1907Y1078D01*
X1901Y1074D01*
X1897Y1068D01*
X1895Y1060D01*
X1897Y1052D01*
X1901Y1046D01*
X1907Y1042D01*
X1915Y1040D01*
X1923Y1042D01*
X1929Y1046D01*
X1933Y1052D01*
X1935Y1060D01*
X1933Y1068D01*
X1929Y1074D01*
X1923Y1078D01*
X1915Y1080D01*
D02*
G37*
G36*
X1745Y1077D02*
X1740Y1076D01*
X1736Y1074D01*
X1734Y1070D01*
X1733Y1065D01*
X1734Y1060D01*
X1736Y1056D01*
X1740Y1054D01*
X1745Y1053D01*
X1750Y1054D01*
X1754Y1056D01*
X1756Y1060D01*
X1757Y1065D01*
X1756Y1070D01*
X1754Y1074D01*
X1750Y1076D01*
X1745Y1077D01*
D02*
G37*
G36*
X2450Y1139D02*
X2440Y1138D01*
X2430Y1134D01*
X2422Y1128D01*
X2416Y1120D01*
X2412Y1110D01*
X2411Y1100D01*
X2412Y1090D01*
X2416Y1080D01*
X2422Y1072D01*
X2430Y1066D01*
X2440Y1062D01*
X2450Y1061D01*
X2460Y1062D01*
X2470Y1066D01*
X2478Y1072D01*
X2484Y1080D01*
X2488Y1090D01*
X2489Y1100D01*
X2488Y1110D01*
X2484Y1120D01*
X2478Y1128D01*
X2470Y1134D01*
X2460Y1138D01*
X2450Y1139D01*
D02*
G37*
G36*
X1700Y1047D02*
X1695Y1046D01*
X1691Y1044D01*
X1689Y1040D01*
X1688Y1035D01*
X1689Y1030D01*
X1691Y1026D01*
X1695Y1024D01*
X1700Y1023D01*
X1705Y1024D01*
X1709Y1026D01*
X1711Y1030D01*
X1712Y1035D01*
X1711Y1040D01*
X1709Y1044D01*
X1705Y1046D01*
X1700Y1047D01*
D02*
G37*
G36*
X920Y1065D02*
X912Y1063D01*
X906Y1059D01*
X902Y1053D01*
X900Y1045D01*
X902Y1037D01*
X906Y1031D01*
X912Y1027D01*
X920Y1025D01*
X928Y1027D01*
X934Y1031D01*
X938Y1037D01*
X940Y1045D01*
X938Y1053D01*
X934Y1059D01*
X928Y1063D01*
X920Y1065D01*
D02*
G37*
G36*
X463Y1067D02*
X455Y1066D01*
X448Y1062D01*
X444Y1055D01*
X443Y1048D01*
X444Y1040D01*
X448Y1033D01*
X455Y1029D01*
X463Y1028D01*
X470Y1029D01*
X477Y1033D01*
X481Y1040D01*
X482Y1048D01*
X481Y1055D01*
X477Y1062D01*
X470Y1066D01*
X463Y1067D01*
D02*
G37*
G36*
X3065Y1153D02*
X3058Y1152D01*
X3052Y1148D01*
X3048Y1142D01*
X3047Y1135D01*
X3048Y1128D01*
X3052Y1122D01*
X3058Y1118D01*
X3065Y1117D01*
X3072Y1118D01*
X3078Y1122D01*
X3082Y1128D01*
X3083Y1135D01*
X3082Y1142D01*
X3078Y1148D01*
X3072Y1152D01*
X3065Y1153D01*
D02*
G37*
G36*
X1465Y1147D02*
X1460Y1146D01*
X1456Y1144D01*
X1454Y1140D01*
X1453Y1135D01*
X1454Y1130D01*
X1456Y1126D01*
X1460Y1124D01*
X1465Y1123D01*
X1470Y1124D01*
X1474Y1126D01*
X1476Y1130D01*
X1477Y1135D01*
X1476Y1140D01*
X1474Y1144D01*
X1470Y1146D01*
X1465Y1147D01*
D02*
G37*
G36*
X2920Y1170D02*
X2912Y1168D01*
X2906Y1164D01*
X2902Y1158D01*
X2900Y1150D01*
X2902Y1142D01*
X2906Y1136D01*
X2912Y1132D01*
X2920Y1130D01*
X2928Y1132D01*
X2934Y1136D01*
X2938Y1142D01*
X2940Y1150D01*
X2938Y1158D01*
X2934Y1164D01*
X2928Y1168D01*
X2920Y1170D01*
D02*
G37*
G36*
X2550Y1139D02*
X2540Y1138D01*
X2530Y1134D01*
X2522Y1128D01*
X2516Y1120D01*
X2512Y1110D01*
X2511Y1100D01*
X2512Y1090D01*
X2516Y1080D01*
X2522Y1072D01*
X2530Y1066D01*
X2540Y1062D01*
X2550Y1061D01*
X2560Y1062D01*
X2570Y1066D01*
X2578Y1072D01*
X2584Y1080D01*
X2588Y1090D01*
X2589Y1100D01*
X2588Y1110D01*
X2584Y1120D01*
X2578Y1128D01*
X2570Y1134D01*
X2560Y1138D01*
X2550Y1139D01*
D02*
G37*
G36*
X1825Y1117D02*
X1820Y1116D01*
X1816Y1114D01*
X1814Y1110D01*
X1813Y1105D01*
X1814Y1100D01*
X1815Y1099D01*
X1811Y1095D01*
X1810Y1096D01*
X1805Y1097D01*
X1800Y1096D01*
X1796Y1094D01*
X1794Y1090D01*
X1793Y1085D01*
X1794Y1080D01*
X1796Y1076D01*
X1800Y1074D01*
X1805Y1073D01*
X1810Y1074D01*
X1814Y1076D01*
X1816Y1080D01*
X1817Y1085D01*
X1816Y1090D01*
X1815Y1091D01*
X1819Y1095D01*
X1820Y1094D01*
X1825Y1093D01*
X1830Y1094D01*
X1834Y1096D01*
X1836Y1100D01*
X1837Y1105D01*
X1836Y1110D01*
X1834Y1114D01*
X1830Y1116D01*
X1825Y1117D01*
D02*
G37*
G36*
X1865Y1132D02*
X1860Y1131D01*
X1856Y1129D01*
X1854Y1125D01*
X1853Y1120D01*
X1854Y1115D01*
X1856Y1111D01*
X1860Y1109D01*
X1865Y1108D01*
X1870Y1109D01*
X1874Y1111D01*
X1876Y1115D01*
X1877Y1120D01*
X1876Y1125D01*
X1874Y1129D01*
X1870Y1131D01*
X1865Y1132D01*
D02*
G37*
G36*
X2390Y1437D02*
X2385Y1436D01*
X2381Y1434D01*
X2379Y1430D01*
X2378Y1425D01*
X2379Y1420D01*
X2381Y1416D01*
X2383Y1415D01*
X2384Y1410D01*
X2384Y1410D01*
X2383Y1405D01*
X2384Y1400D01*
X2386Y1396D01*
X2390Y1394D01*
X2395Y1393D01*
X2395Y1393D01*
X2399Y1389D01*
X2398Y1385D01*
X2399Y1380D01*
X2401Y1376D01*
X2405Y1374D01*
X2410Y1373D01*
X2415Y1374D01*
X2419Y1376D01*
X2421Y1380D01*
X2422Y1385D01*
X2421Y1390D01*
X2419Y1394D01*
X2415Y1396D01*
X2410Y1397D01*
X2410Y1397D01*
X2406Y1401D01*
X2407Y1405D01*
X2406Y1410D01*
X2404Y1414D01*
X2402Y1415D01*
X2401Y1420D01*
X2401Y1420D01*
X2402Y1425D01*
X2401Y1430D01*
X2399Y1434D01*
X2395Y1436D01*
X2390Y1437D01*
D02*
G37*
G36*
X985Y1517D02*
X972Y1516D01*
X959Y1512D01*
X948Y1506D01*
X938Y1497D01*
X929Y1487D01*
X923Y1476D01*
X919Y1463D01*
X918Y1450D01*
X919Y1437D01*
X923Y1424D01*
X929Y1413D01*
X938Y1403D01*
X948Y1394D01*
X959Y1388D01*
X972Y1384D01*
X985Y1383D01*
X998Y1384D01*
X1011Y1388D01*
X1022Y1394D01*
X1032Y1403D01*
X1041Y1413D01*
X1047Y1424D01*
X1051Y1437D01*
X1052Y1450D01*
X1051Y1463D01*
X1047Y1476D01*
X1041Y1487D01*
X1032Y1497D01*
X1022Y1506D01*
X1011Y1512D01*
X998Y1516D01*
X985Y1517D01*
D02*
G37*
G36*
X2905Y1423D02*
X2898Y1422D01*
X2892Y1418D01*
X2888Y1412D01*
X2887Y1405D01*
X2888Y1398D01*
X2892Y1392D01*
X2898Y1388D01*
X2905Y1387D01*
X2912Y1388D01*
X2918Y1392D01*
X2922Y1398D01*
X2923Y1405D01*
X2922Y1412D01*
X2918Y1418D01*
X2912Y1422D01*
X2905Y1423D01*
D02*
G37*
G36*
X2010Y1385D02*
X2002Y1383D01*
X1996Y1379D01*
X1992Y1373D01*
X1990Y1365D01*
X1992Y1357D01*
X1996Y1351D01*
X2002Y1347D01*
X2010Y1345D01*
X2018Y1347D01*
X2024Y1351D01*
X2028Y1357D01*
X2030Y1365D01*
X2028Y1373D01*
X2024Y1379D01*
X2018Y1383D01*
X2010Y1385D01*
D02*
G37*
G36*
X2055Y1390D02*
X2047Y1388D01*
X2041Y1384D01*
X2037Y1378D01*
X2035Y1370D01*
X2037Y1362D01*
X2041Y1356D01*
X2047Y1352D01*
X2055Y1350D01*
X2063Y1352D01*
X2069Y1356D01*
X2073Y1362D01*
X2075Y1370D01*
X2073Y1378D01*
X2069Y1384D01*
X2063Y1388D01*
X2055Y1390D01*
D02*
G37*
G36*
X2100Y1395D02*
X2092Y1393D01*
X2086Y1389D01*
X2082Y1383D01*
X2080Y1375D01*
X2082Y1367D01*
X2086Y1361D01*
X2092Y1357D01*
X2100Y1355D01*
X2108Y1357D01*
X2114Y1361D01*
X2118Y1367D01*
X2120Y1375D01*
X2118Y1383D01*
X2114Y1389D01*
X2108Y1393D01*
X2100Y1395D01*
D02*
G37*
G36*
X1905Y1482D02*
X1900Y1481D01*
X1896Y1479D01*
X1894Y1475D01*
X1893Y1470D01*
X1894Y1465D01*
X1896Y1461D01*
X1900Y1459D01*
X1905Y1458D01*
X1910Y1459D01*
X1914Y1461D01*
X1916Y1465D01*
X1917Y1470D01*
X1916Y1475D01*
X1914Y1479D01*
X1910Y1481D01*
X1905Y1482D01*
D02*
G37*
G36*
X2075Y1505D02*
X2067Y1503D01*
X2061Y1499D01*
X2057Y1493D01*
X2055Y1485D01*
X2057Y1477D01*
X2061Y1471D01*
X2067Y1467D01*
X2075Y1465D01*
X2083Y1467D01*
X2089Y1471D01*
X2093Y1477D01*
X2095Y1485D01*
X2093Y1493D01*
X2089Y1499D01*
X2083Y1503D01*
X2075Y1505D01*
D02*
G37*
G36*
X2175D02*
X2167Y1503D01*
X2161Y1499D01*
X2157Y1493D01*
X2155Y1485D01*
X2157Y1477D01*
X2161Y1471D01*
X2167Y1467D01*
X2175Y1465D01*
X2183Y1467D01*
X2189Y1471D01*
X2193Y1477D01*
X2195Y1485D01*
X2193Y1493D01*
X2189Y1499D01*
X2183Y1503D01*
X2175Y1505D01*
D02*
G37*
G36*
X1355Y1445D02*
X1347Y1443D01*
X1341Y1439D01*
X1337Y1433D01*
X1335Y1425D01*
X1337Y1417D01*
X1341Y1411D01*
X1347Y1407D01*
X1355Y1405D01*
X1363Y1407D01*
X1369Y1411D01*
X1373Y1417D01*
X1375Y1425D01*
X1373Y1433D01*
X1369Y1439D01*
X1363Y1443D01*
X1355Y1445D01*
D02*
G37*
G36*
X1805Y1472D02*
X1800Y1471D01*
X1796Y1469D01*
X1793Y1465D01*
X1792Y1460D01*
X1793Y1455D01*
X1796Y1451D01*
X1800Y1449D01*
X1805Y1448D01*
X1809Y1449D01*
X1813Y1451D01*
X1816Y1455D01*
X1817Y1460D01*
X1816Y1465D01*
X1813Y1469D01*
X1809Y1471D01*
X1805Y1472D01*
D02*
G37*
G36*
X1745Y1478D02*
X1741Y1477D01*
X1737Y1474D01*
X1734Y1470D01*
X1733Y1465D01*
X1734Y1461D01*
X1737Y1457D01*
X1741Y1454D01*
X1745Y1453D01*
X1750Y1454D01*
X1754Y1457D01*
X1757Y1461D01*
X1758Y1465D01*
X1757Y1470D01*
X1754Y1474D01*
X1750Y1477D01*
X1745Y1478D01*
D02*
G37*
G36*
X3065Y1378D02*
X3058Y1377D01*
X3052Y1373D01*
X3048Y1367D01*
X3047Y1360D01*
X3048Y1353D01*
X3052Y1347D01*
X3058Y1343D01*
X3065Y1342D01*
X3072Y1343D01*
X3078Y1347D01*
X3082Y1353D01*
X3083Y1360D01*
X3082Y1367D01*
X3078Y1373D01*
X3072Y1377D01*
X3065Y1378D01*
D02*
G37*
G36*
X330Y1295D02*
X322Y1293D01*
X316Y1289D01*
X312Y1283D01*
X310Y1275D01*
X312Y1267D01*
X316Y1261D01*
X322Y1257D01*
X330Y1255D01*
X338Y1257D01*
X344Y1261D01*
X348Y1267D01*
X350Y1275D01*
X348Y1283D01*
X344Y1289D01*
X338Y1293D01*
X330Y1295D01*
D02*
G37*
G36*
X1960Y1305D02*
X1952Y1303D01*
X1946Y1299D01*
X1942Y1293D01*
X1940Y1285D01*
X1942Y1277D01*
X1946Y1271D01*
X1952Y1267D01*
X1960Y1265D01*
X1968Y1267D01*
X1974Y1271D01*
X1978Y1277D01*
X1980Y1285D01*
X1978Y1293D01*
X1974Y1299D01*
X1968Y1303D01*
X1960Y1305D01*
D02*
G37*
G36*
X395Y1252D02*
X391Y1252D01*
X387Y1249D01*
X384Y1245D01*
X383Y1240D01*
X384Y1236D01*
X387Y1232D01*
X391Y1229D01*
X395Y1228D01*
X400Y1229D01*
X404Y1232D01*
X407Y1236D01*
X407Y1240D01*
X407Y1245D01*
X404Y1249D01*
X400Y1252D01*
X395Y1252D01*
D02*
G37*
G36*
X1740Y1242D02*
X1735Y1241D01*
X1731Y1239D01*
X1729Y1235D01*
X1728Y1230D01*
X1729Y1225D01*
X1731Y1221D01*
X1735Y1219D01*
X1740Y1218D01*
X1745Y1219D01*
X1749Y1221D01*
X1751Y1225D01*
X1752Y1230D01*
X1751Y1235D01*
X1749Y1239D01*
X1745Y1241D01*
X1740Y1242D01*
D02*
G37*
G36*
X1435Y1247D02*
X1430Y1246D01*
X1426Y1244D01*
X1424Y1240D01*
X1423Y1235D01*
X1424Y1230D01*
X1426Y1226D01*
X1430Y1224D01*
X1435Y1223D01*
X1440Y1224D01*
X1444Y1226D01*
X1446Y1230D01*
X1447Y1235D01*
X1446Y1240D01*
X1444Y1244D01*
X1440Y1246D01*
X1435Y1247D01*
D02*
G37*
G36*
X605Y1305D02*
X598Y1304D01*
X591Y1299D01*
X587Y1293D01*
X585Y1285D01*
X587Y1278D01*
X591Y1271D01*
X598Y1267D01*
X605Y1265D01*
X613Y1267D01*
X619Y1271D01*
X624Y1278D01*
X625Y1285D01*
X624Y1293D01*
X619Y1299D01*
X613Y1304D01*
X605Y1305D01*
D02*
G37*
G36*
Y1365D02*
X598Y1364D01*
X591Y1359D01*
X587Y1353D01*
X585Y1345D01*
X587Y1338D01*
X591Y1331D01*
X598Y1327D01*
X605Y1325D01*
X613Y1327D01*
X619Y1331D01*
X624Y1338D01*
X625Y1345D01*
X624Y1353D01*
X619Y1359D01*
X613Y1364D01*
X605Y1365D01*
D02*
G37*
G36*
X2550Y1379D02*
X2540Y1378D01*
X2530Y1374D01*
X2522Y1368D01*
X2516Y1360D01*
X2512Y1350D01*
X2511Y1340D01*
X2512Y1330D01*
X2516Y1320D01*
X2522Y1312D01*
X2530Y1306D01*
X2540Y1302D01*
X2550Y1301D01*
X2560Y1302D01*
X2570Y1306D01*
X2578Y1312D01*
X2584Y1320D01*
X2588Y1330D01*
X2589Y1340D01*
X2588Y1350D01*
X2584Y1360D01*
X2578Y1368D01*
X2570Y1374D01*
X2560Y1378D01*
X2550Y1379D01*
D02*
G37*
G36*
X555Y1365D02*
X548Y1364D01*
X541Y1359D01*
X537Y1353D01*
X535Y1345D01*
X537Y1338D01*
X541Y1331D01*
X548Y1327D01*
X555Y1325D01*
X563Y1327D01*
X569Y1331D01*
X574Y1338D01*
X575Y1345D01*
X574Y1353D01*
X569Y1359D01*
X563Y1364D01*
X555Y1365D01*
D02*
G37*
G36*
X770Y1307D02*
X766Y1307D01*
X762Y1304D01*
X759Y1300D01*
X758Y1295D01*
X759Y1291D01*
X762Y1287D01*
X766Y1284D01*
X770Y1283D01*
X775Y1284D01*
X779Y1287D01*
X782Y1291D01*
X782Y1295D01*
X782Y1300D01*
X779Y1304D01*
X775Y1307D01*
X770Y1307D01*
D02*
G37*
G36*
X2450Y1379D02*
X2440Y1378D01*
X2430Y1374D01*
X2422Y1368D01*
X2416Y1360D01*
X2412Y1350D01*
X2411Y1340D01*
X2412Y1330D01*
X2416Y1320D01*
X2422Y1312D01*
X2430Y1306D01*
X2440Y1302D01*
X2450Y1301D01*
X2460Y1302D01*
X2470Y1306D01*
X2478Y1312D01*
X2484Y1320D01*
X2488Y1330D01*
X2489Y1340D01*
X2488Y1350D01*
X2484Y1360D01*
X2478Y1368D01*
X2470Y1374D01*
X2460Y1378D01*
X2450Y1379D01*
D02*
G37*
%LPD*%
G36*
X2874Y2207D02*
X2887Y2202D01*
X2898Y2193D01*
X2907Y2182D01*
X2912Y2169D01*
X2914Y2155D01*
X2912Y2141D01*
X2907Y2128D01*
X2898Y2117D01*
X2887Y2108D01*
X2874Y2103D01*
X2860Y2101D01*
X2846Y2103D01*
X2833Y2108D01*
X2822Y2117D01*
X2813Y2128D01*
X2808Y2141D01*
X2806Y2155D01*
X2808Y2169D01*
X2813Y2182D01*
X2822Y2193D01*
X2833Y2202D01*
X2846Y2207D01*
X2860Y2209D01*
X2874Y2207D01*
D02*
G37*
G36*
X94Y572D02*
X107Y567D01*
X118Y558D01*
X127Y547D01*
X132Y534D01*
X134Y520D01*
X132Y506D01*
X127Y493D01*
X118Y482D01*
X107Y473D01*
X94Y468D01*
X80Y466D01*
X66Y468D01*
X53Y473D01*
X42Y482D01*
X33Y493D01*
X28Y506D01*
X26Y520D01*
X28Y534D01*
X33Y547D01*
X42Y558D01*
X53Y567D01*
X66Y572D01*
X80Y574D01*
X94Y572D01*
D02*
G37*
G36*
X2854Y212D02*
X2867Y207D01*
X2878Y198D01*
X2887Y187D01*
X2892Y174D01*
X2894Y160D01*
X2892Y146D01*
X2887Y133D01*
X2878Y122D01*
X2867Y113D01*
X2854Y108D01*
X2840Y106D01*
X2826Y108D01*
X2813Y113D01*
X2802Y122D01*
X2793Y133D01*
X2788Y146D01*
X2786Y160D01*
X2788Y174D01*
X2793Y187D01*
X2802Y198D01*
X2813Y207D01*
X2826Y212D01*
X2840Y214D01*
X2854Y212D01*
D02*
G37*
D56*
X140Y1795D02*
D03*
D58*
X850Y2185D02*
D03*
X650D02*
D03*
Y1985D02*
D03*
X850D02*
D03*
X1770Y2185D02*
D03*
X1570D02*
D03*
Y1985D02*
D03*
X1770D02*
D03*
X265Y2175D02*
D03*
X65D02*
D03*
Y1975D02*
D03*
X265D02*
D03*
D59*
X116Y102D02*
D03*
Y358D02*
D03*
X545Y845D02*
D03*
X745Y545D02*
D03*
D62*
X1358Y2165D02*
D03*
X1405Y1880D02*
D03*
X1165Y1925D02*
D03*
X2345Y40D02*
D03*
X1290Y505D02*
D03*
X1515Y250D02*
D03*
X1545Y215D02*
D03*
X1345Y560D02*
D03*
X2465Y720D02*
D03*
X1315Y1080D02*
D03*
X1990Y140D02*
D03*
X2105Y1930D02*
D03*
X1965Y2105D02*
D03*
X2315Y620D02*
D03*
X2045Y775D02*
D03*
X2085Y750D02*
D03*
X2670Y1430D02*
D03*
X2520Y2195D02*
D03*
X2290Y1900D02*
D03*
X2105Y2065D02*
D03*
Y1825D02*
D03*
Y1645D02*
D03*
X2073Y445D02*
D03*
X1978Y298D02*
D03*
X2155Y295D02*
D03*
X2300Y475D02*
D03*
X2178Y520D02*
D03*
X1055Y555D02*
D03*
X2945Y765D02*
D03*
X920Y280D02*
D03*
X1565Y250D02*
D03*
X1530Y435D02*
D03*
X560Y165D02*
D03*
X620Y1185D02*
D03*
X493Y1453D02*
D03*
X757Y1618D02*
D03*
X465Y1545D02*
D03*
X995Y70D02*
D03*
X85Y1280D02*
D03*
X110Y1240D02*
D03*
X140Y1280D02*
D03*
X120Y625D02*
D03*
X355Y575D02*
D03*
X1320Y860D02*
D03*
X2020Y840D02*
D03*
X2090Y585D02*
D03*
X1945Y450D02*
D03*
X1585Y1190D02*
D03*
X2465Y445D02*
D03*
X1065Y1045D02*
D03*
X1695Y1200D02*
D03*
X2675Y990D02*
D03*
X2670Y1215D02*
D03*
X295Y1760D02*
D03*
X1585Y435D02*
D03*
X2145Y795D02*
D03*
X2265Y340D02*
D03*
X765Y1350D02*
D03*
X2015Y925D02*
D03*
Y965D02*
D03*
X1315Y905D02*
D03*
X2015Y1025D02*
D03*
X1325Y735D02*
D03*
X335Y1755D02*
D03*
X2315Y735D02*
D03*
Y850D02*
D03*
Y960D02*
D03*
X95Y660D02*
D03*
X150Y655D02*
D03*
X1640Y1190D02*
D03*
X920Y615D02*
D03*
X850Y865D02*
D03*
X1070Y890D02*
D03*
X1325Y700D02*
D03*
X1315Y955D02*
D03*
Y995D02*
D03*
Y1040D02*
D03*
X2600Y250D02*
D03*
Y325D02*
D03*
Y175D02*
D03*
Y100D02*
D03*
X2125Y1485D02*
D03*
D63*
X1811Y809D02*
D03*
X1872Y1798D02*
D03*
X1523Y1505D02*
D03*
X1550Y1660D02*
D03*
X1775Y1385D02*
D03*
X1724Y249D02*
D03*
X1725Y405D02*
D03*
X1494Y1000D02*
D03*
X1490Y1035D02*
D03*
X1591Y965D02*
D03*
X1590Y995D02*
D03*
Y776D02*
D03*
X1561Y711D02*
D03*
X1845Y676D02*
D03*
X1810Y995D02*
D03*
X1544Y1084D02*
D03*
X1688Y996D02*
D03*
X1624Y713D02*
D03*
X1813Y870D02*
D03*
X1480Y870D02*
D03*
X2205Y1825D02*
D03*
D64*
X510Y1260D02*
D03*
Y1221D02*
D03*
X471Y1260D02*
D03*
Y1221D02*
D03*
X1826Y1681D02*
D03*
Y1630D02*
D03*
X1775Y1681D02*
D03*
Y1630D02*
D03*
X1826Y1579D02*
D03*
X1775D02*
D03*
X1724Y1681D02*
D03*
Y1630D02*
D03*
Y1579D02*
D03*
M02*
