%FSLAX25Y25*%
%MOIN*%
G70*
G01*
G75*
G04 Layer_Physical_Order=2*
G04 Layer_Color=36540*
%ADD10C,0.05906*%
%ADD11C,0.07000*%
%ADD12C,0.09000*%
%ADD13C,0.01969*%
%ADD14C,0.03100*%
%ADD15C,0.01400*%
G36*
X9352Y57048D02*
X10613Y56525D01*
X11695Y55695D01*
X12526Y54613D01*
X13048Y53352D01*
X13226Y52000D01*
X13048Y50647D01*
X12526Y49387D01*
X11695Y48305D01*
X10613Y47475D01*
X9352Y46952D01*
X8000Y46774D01*
X6647Y46952D01*
X5387Y47475D01*
X4305Y48305D01*
X3475Y49387D01*
X2952Y50647D01*
X2774Y52000D01*
X2952Y53352D01*
X3475Y54613D01*
X4305Y55695D01*
X5387Y56525D01*
X6647Y57048D01*
X8000Y57226D01*
X9352Y57048D01*
D02*
G37*
G36*
X308000Y158504D02*
X307500Y158237D01*
X307280Y158384D01*
X306500Y158539D01*
X305720Y158384D01*
X305058Y157942D01*
X304616Y157280D01*
X304461Y156500D01*
X304616Y155720D01*
X305058Y155058D01*
X305720Y154616D01*
X306500Y154461D01*
X307280Y154616D01*
X307500Y154763D01*
X308000Y154496D01*
Y138005D01*
X307500Y137737D01*
X307280Y137884D01*
X306500Y138039D01*
X305720Y137884D01*
X305058Y137442D01*
X304616Y136780D01*
X304461Y136000D01*
X304616Y135220D01*
X305058Y134558D01*
X305720Y134116D01*
X306500Y133961D01*
X307280Y134116D01*
X307500Y134263D01*
X308000Y133995D01*
Y115505D01*
X307500Y115237D01*
X307280Y115384D01*
X306500Y115539D01*
X305720Y115384D01*
X305058Y114942D01*
X304616Y114280D01*
X304461Y113500D01*
X304616Y112720D01*
X305058Y112058D01*
X305720Y111616D01*
X306500Y111461D01*
X307280Y111616D01*
X307500Y111763D01*
X308000Y111495D01*
Y2000D01*
X277656D01*
X277486Y2500D01*
X278236Y3075D01*
X278963Y4023D01*
X279420Y5127D01*
X279576Y6311D01*
X279420Y7495D01*
X278963Y8599D01*
X278236Y9547D01*
X277288Y10274D01*
X276184Y10731D01*
X275000Y10887D01*
X273816Y10731D01*
X272712Y10274D01*
X271764Y9547D01*
X271037Y8599D01*
X270580Y7495D01*
X270424Y6311D01*
X270580Y5127D01*
X271037Y4023D01*
X271764Y3075D01*
X272514Y2500D01*
X272344Y2000D01*
X2000D01*
Y48522D01*
X2500Y48647D01*
X2627Y48410D01*
X3431Y47431D01*
X4410Y46627D01*
X5527Y46030D01*
X6739Y45662D01*
X8000Y45538D01*
X9261Y45662D01*
X10473Y46030D01*
X11590Y46627D01*
X12569Y47431D01*
X13373Y48410D01*
X13970Y49527D01*
X14338Y50739D01*
X14462Y52000D01*
X14338Y53261D01*
X13970Y54473D01*
X13373Y55590D01*
X12569Y56569D01*
X11590Y57373D01*
X10473Y57970D01*
X9261Y58338D01*
X8000Y58462D01*
X6739Y58338D01*
X5527Y57970D01*
X4410Y57373D01*
X3431Y56569D01*
X2627Y55590D01*
X2500Y55353D01*
X2000Y55478D01*
Y223000D01*
X308000D01*
Y158504D01*
D02*
G37*
%LPC*%
G36*
X168500Y82326D02*
X167993Y82225D01*
X167563Y81937D01*
X167294Y81536D01*
X167185Y81506D01*
X166764Y81498D01*
X166537Y81837D01*
X166107Y82125D01*
X165600Y82226D01*
X165093Y82125D01*
X164663Y81837D01*
X164375Y81407D01*
X164275Y80900D01*
X164375Y80393D01*
X164663Y79963D01*
X165093Y79676D01*
X165600Y79575D01*
X166107Y79676D01*
X166537Y79963D01*
X166806Y80365D01*
X166915Y80394D01*
X167336Y80402D01*
X167563Y80063D01*
X167993Y79776D01*
X168500Y79675D01*
X169007Y79776D01*
X169437Y80063D01*
X169725Y80493D01*
X169825Y81000D01*
X169725Y81507D01*
X169437Y81937D01*
X169007Y82225D01*
X168500Y82326D01*
D02*
G37*
G36*
X178000Y85227D02*
X177493Y85126D01*
X177063Y84839D01*
X176776Y84409D01*
X176675Y83902D01*
X176776Y83394D01*
X177063Y82964D01*
X177493Y82677D01*
X178000Y82576D01*
X178507Y82677D01*
X178937Y82964D01*
X179225Y83394D01*
X179325Y83902D01*
X179225Y84409D01*
X178937Y84839D01*
X178507Y85126D01*
X178000Y85227D01*
D02*
G37*
G36*
X159000Y82326D02*
X158493Y82225D01*
X158063Y81937D01*
X157775Y81507D01*
X157721Y81233D01*
X157211D01*
X157201Y81283D01*
X156914Y81713D01*
X156484Y82000D01*
X155976Y82101D01*
X155469Y82000D01*
X155039Y81713D01*
X154752Y81283D01*
X154651Y80776D01*
X154752Y80268D01*
X155039Y79838D01*
X155469Y79551D01*
X155976Y79450D01*
X156484Y79551D01*
X156914Y79838D01*
X157201Y80268D01*
X157256Y80543D01*
X157765D01*
X157775Y80493D01*
X158063Y80063D01*
X158493Y79775D01*
X159000Y79675D01*
X159507Y79775D01*
X159937Y80063D01*
X160225Y80493D01*
X160326Y81000D01*
X160225Y81507D01*
X159937Y81937D01*
X159507Y82225D01*
X159000Y82326D01*
D02*
G37*
G36*
X109000Y83825D02*
X108493Y83725D01*
X108063Y83437D01*
X107775Y83007D01*
X107675Y82500D01*
X107775Y81993D01*
X108063Y81563D01*
X108493Y81275D01*
X109000Y81174D01*
X109507Y81275D01*
X109937Y81563D01*
X110225Y81993D01*
X110326Y82500D01*
X110225Y83007D01*
X109937Y83437D01*
X109507Y83725D01*
X109000Y83825D01*
D02*
G37*
G36*
X148500Y83825D02*
X147993Y83725D01*
X147563Y83437D01*
X147275Y83007D01*
X147175Y82500D01*
X147275Y81993D01*
X147563Y81563D01*
X147993Y81275D01*
X148500Y81175D01*
X149007Y81275D01*
X149437Y81563D01*
X149725Y81993D01*
X149826Y82500D01*
X149725Y83007D01*
X149437Y83437D01*
X149007Y83725D01*
X148500Y83825D01*
D02*
G37*
G36*
X252000Y87692D02*
X251161Y87525D01*
X250450Y87050D01*
X249975Y86339D01*
X249808Y85500D01*
X249975Y84661D01*
X250450Y83950D01*
X251161Y83475D01*
X252000Y83308D01*
X252839Y83475D01*
X253550Y83950D01*
X254025Y84661D01*
X254192Y85500D01*
X254025Y86339D01*
X253550Y87050D01*
X252839Y87525D01*
X252000Y87692D01*
D02*
G37*
G36*
X145500Y88326D02*
X144993Y88225D01*
X144563Y87937D01*
X144275Y87507D01*
X144175Y87000D01*
X144275Y86493D01*
X144563Y86063D01*
X144993Y85775D01*
X145500Y85675D01*
X146007Y85775D01*
X146437Y86063D01*
X146725Y86493D01*
X146826Y87000D01*
X146725Y87507D01*
X146437Y87937D01*
X146007Y88225D01*
X145500Y88326D01*
D02*
G37*
G36*
X165500Y91625D02*
X164993Y91525D01*
X164563Y91237D01*
X164276Y90807D01*
X164175Y90300D01*
X164276Y89793D01*
X164563Y89363D01*
X164993Y89075D01*
X165500Y88975D01*
X166007Y89075D01*
X166437Y89363D01*
X166710Y89771D01*
X166806Y89785D01*
X167225Y89746D01*
X167275Y89493D01*
X167563Y89063D01*
X167993Y88775D01*
X168171Y88740D01*
Y88230D01*
X168142Y88225D01*
X167712Y87937D01*
X167425Y87507D01*
X167324Y87000D01*
X167425Y86493D01*
X167712Y86063D01*
X168142Y85776D01*
X168650Y85675D01*
X169157Y85776D01*
X169587Y86063D01*
X169874Y86493D01*
X169975Y87000D01*
X169874Y87507D01*
X169587Y87937D01*
X169157Y88225D01*
X168979Y88260D01*
Y88770D01*
X169007Y88775D01*
X169437Y89063D01*
X169725Y89493D01*
X169825Y90000D01*
X169725Y90507D01*
X169437Y90937D01*
X169007Y91225D01*
X168500Y91325D01*
X167993Y91225D01*
X167563Y90937D01*
X167290Y90529D01*
X167194Y90515D01*
X166775Y90554D01*
X166725Y90807D01*
X166437Y91237D01*
X166007Y91525D01*
X165500Y91625D01*
D02*
G37*
G36*
X155902Y85325D02*
X155394Y85225D01*
X154964Y84937D01*
X154677Y84507D01*
X154576Y84000D01*
X154677Y83493D01*
X154964Y83063D01*
X155394Y82775D01*
X155902Y82675D01*
X156409Y82775D01*
X156839Y83063D01*
X157126Y83493D01*
X157227Y84000D01*
X157126Y84507D01*
X156839Y84937D01*
X156409Y85225D01*
X155902Y85325D01*
D02*
G37*
G36*
X155976Y91550D02*
X155469Y91449D01*
X155039Y91162D01*
X154752Y90732D01*
X154651Y90224D01*
X154752Y89717D01*
X155039Y89287D01*
X155469Y89000D01*
X155976Y88899D01*
X156484Y89000D01*
X156914Y89287D01*
X157201Y89717D01*
X157211Y89768D01*
X157721D01*
X157775Y89493D01*
X158063Y89063D01*
X158493Y88775D01*
X158498Y88774D01*
X158561Y88529D01*
X158551Y88254D01*
X158189Y88012D01*
X157902Y87582D01*
X157801Y87075D01*
X157902Y86568D01*
X158189Y86138D01*
X158619Y85850D01*
X159126Y85749D01*
X159633Y85850D01*
X160063Y86138D01*
X160351Y86568D01*
X160451Y87075D01*
X160351Y87582D01*
X160063Y88012D01*
X159633Y88299D01*
X159628Y88301D01*
X159566Y88546D01*
X159575Y88821D01*
X159937Y89063D01*
X160225Y89493D01*
X160326Y90000D01*
X160225Y90507D01*
X159937Y90937D01*
X159507Y91225D01*
X159000Y91325D01*
X158493Y91225D01*
X158063Y90937D01*
X157775Y90507D01*
X157765Y90457D01*
X157256D01*
X157201Y90732D01*
X156914Y91162D01*
X156484Y91449D01*
X155976Y91550D01*
D02*
G37*
G36*
Y78952D02*
X155469Y78851D01*
X155039Y78563D01*
X154752Y78133D01*
X154651Y77626D01*
X154752Y77119D01*
X155039Y76689D01*
X155469Y76402D01*
X155976Y76301D01*
X156484Y76402D01*
X156914Y76689D01*
X157201Y77119D01*
X157302Y77626D01*
X157201Y78133D01*
X156914Y78563D01*
X156484Y78851D01*
X155976Y78952D01*
D02*
G37*
G36*
X165575D02*
X165068Y78851D01*
X164638Y78563D01*
X164350Y78133D01*
X164249Y77626D01*
X164350Y77119D01*
X164638Y76689D01*
X165068Y76402D01*
X165575Y76301D01*
X166082Y76402D01*
X166512Y76689D01*
X166799Y77119D01*
X166900Y77626D01*
X166799Y78133D01*
X166512Y78563D01*
X166082Y78851D01*
X165575Y78952D01*
D02*
G37*
G36*
X174874D02*
X174367Y78851D01*
X173937Y78563D01*
X173650Y78133D01*
X173549Y77626D01*
X173650Y77119D01*
X173937Y76689D01*
X174367Y76402D01*
X174874Y76301D01*
X175381Y76402D01*
X175811Y76689D01*
X176099Y77119D01*
X176107Y77159D01*
X176107Y77159D01*
X176167Y77460D01*
X176600Y77606D01*
X176605Y77606D01*
X176760Y77172D01*
X176766Y77146D01*
Y77146D01*
X176776Y77095D01*
X177063Y76665D01*
X177493Y76378D01*
X178000Y76277D01*
X178507Y76378D01*
X178937Y76665D01*
X179225Y77095D01*
X179235Y77147D01*
X179745D01*
X179775Y76993D01*
X180063Y76563D01*
X180493Y76275D01*
X181000Y76174D01*
X181507Y76275D01*
X181937Y76563D01*
X182225Y76993D01*
X182325Y77500D01*
X182225Y78007D01*
X181937Y78437D01*
X181507Y78725D01*
X181000Y78825D01*
X180493Y78725D01*
X180063Y78437D01*
X179775Y78007D01*
X179765Y77955D01*
X179255D01*
X179225Y78110D01*
X178937Y78540D01*
X178507Y78827D01*
X178000Y78928D01*
X177493Y78827D01*
X177063Y78540D01*
X176776Y78110D01*
X176768Y78070D01*
X176767Y78069D01*
X176707Y77768D01*
X176274Y77623D01*
X176269Y77623D01*
X176114Y78056D01*
X176109Y78083D01*
Y78083D01*
X176099Y78133D01*
X175811Y78563D01*
X175381Y78851D01*
X174874Y78952D01*
D02*
G37*
G36*
X162000Y75826D02*
X161493Y75725D01*
X161063Y75437D01*
X160833Y75093D01*
X160646Y75051D01*
X160525Y75048D01*
X160282Y75087D01*
X160063Y75414D01*
X159633Y75701D01*
X159126Y75802D01*
X158619Y75701D01*
X158189Y75414D01*
X157902Y74984D01*
X157801Y74476D01*
X157902Y73969D01*
X158189Y73539D01*
X158619Y73252D01*
X159126Y73151D01*
X159633Y73252D01*
X160063Y73539D01*
X160293Y73883D01*
X160480Y73926D01*
X160601Y73929D01*
X160845Y73889D01*
X161063Y73563D01*
X161493Y73276D01*
X162000Y73175D01*
X162507Y73276D01*
X162937Y73563D01*
X163225Y73993D01*
X163326Y74500D01*
X163225Y75007D01*
X162937Y75437D01*
X162507Y75725D01*
X162000Y75826D01*
D02*
G37*
G36*
X187500Y85692D02*
X186661Y85525D01*
X185950Y85050D01*
X185475Y84339D01*
X185308Y83500D01*
X185475Y82661D01*
X185950Y81950D01*
X186249Y81750D01*
Y81250D01*
X185950Y81050D01*
X185475Y80339D01*
X185308Y79500D01*
X185475Y78661D01*
X185810Y78159D01*
X185730Y77589D01*
X185690Y77522D01*
X185563Y77437D01*
X185275Y77007D01*
X185175Y76500D01*
X185275Y75993D01*
X185563Y75563D01*
X185993Y75275D01*
X186500Y75175D01*
X187007Y75275D01*
X187437Y75563D01*
X187725Y75993D01*
X187826Y76500D01*
X187756Y76849D01*
X188011Y77410D01*
X188339Y77475D01*
X189050Y77950D01*
X189525Y78661D01*
X189692Y79500D01*
X189525Y80339D01*
X189050Y81050D01*
X188751Y81250D01*
Y81750D01*
X189050Y81950D01*
X189525Y82661D01*
X189692Y83500D01*
X189525Y84339D01*
X189050Y85050D01*
X188339Y85525D01*
X187500Y85692D01*
D02*
G37*
G36*
X171724Y78952D02*
X171217Y78851D01*
X170787Y78563D01*
X170500Y78133D01*
X170399Y77626D01*
X170500Y77119D01*
X170787Y76689D01*
X171217Y76402D01*
X171724Y76301D01*
X172232Y76402D01*
X172662Y76689D01*
X172949Y77119D01*
X173050Y77626D01*
X172949Y78133D01*
X172662Y78563D01*
X172232Y78851D01*
X171724Y78952D01*
D02*
G37*
G36*
X64500Y88083D02*
X63573Y87961D01*
X62708Y87603D01*
X61966Y87034D01*
X61397Y86292D01*
X61039Y85427D01*
X60917Y84500D01*
X61039Y83573D01*
X61397Y82708D01*
X61966Y81966D01*
X62708Y81397D01*
X63573Y81039D01*
X64500Y80917D01*
X65428Y81039D01*
X66292Y81397D01*
X67034Y81966D01*
X67603Y82708D01*
X67961Y83573D01*
X68084Y84500D01*
X67961Y85427D01*
X67603Y86292D01*
X67034Y87034D01*
X66292Y87603D01*
X65428Y87961D01*
X64500Y88083D01*
D02*
G37*
G36*
X74500D02*
X73573Y87961D01*
X72708Y87603D01*
X71966Y87034D01*
X71397Y86292D01*
X71039Y85427D01*
X70917Y84500D01*
X71039Y83573D01*
X71397Y82708D01*
X71966Y81966D01*
X72708Y81397D01*
X73573Y81039D01*
X74500Y80917D01*
X75428Y81039D01*
X76292Y81397D01*
X77034Y81966D01*
X77603Y82708D01*
X77961Y83573D01*
X78083Y84500D01*
X77961Y85427D01*
X77603Y86292D01*
X77034Y87034D01*
X76292Y87603D01*
X75428Y87961D01*
X74500Y88083D01*
D02*
G37*
G36*
X44500D02*
X43573Y87961D01*
X42708Y87603D01*
X41966Y87034D01*
X41397Y86292D01*
X41039Y85427D01*
X40917Y84500D01*
X41039Y83573D01*
X41397Y82708D01*
X41966Y81966D01*
X42708Y81397D01*
X43573Y81039D01*
X44500Y80917D01*
X45428Y81039D01*
X46292Y81397D01*
X47034Y81966D01*
X47603Y82708D01*
X47961Y83573D01*
X48083Y84500D01*
X47961Y85427D01*
X47603Y86292D01*
X47034Y87034D01*
X46292Y87603D01*
X45428Y87961D01*
X44500Y88083D01*
D02*
G37*
G36*
X124252Y79826D02*
X123745Y79725D01*
X123315Y79437D01*
X123028Y79007D01*
X122927Y78500D01*
X123028Y77993D01*
X123315Y77563D01*
X123745Y77276D01*
X124252Y77175D01*
X124759Y77276D01*
X125189Y77563D01*
X125477Y77993D01*
X125577Y78500D01*
X125477Y79007D01*
X125189Y79437D01*
X124759Y79725D01*
X124252Y79826D01*
D02*
G37*
G36*
X27250Y82442D02*
X26411Y82275D01*
X25700Y81800D01*
X25225Y81089D01*
X25058Y80250D01*
X25225Y79411D01*
X25700Y78700D01*
X26411Y78225D01*
X27250Y78058D01*
X28089Y78225D01*
X28800Y78700D01*
X29275Y79411D01*
X29442Y80250D01*
X29275Y81089D01*
X28800Y81800D01*
X28089Y82275D01*
X27250Y82442D01*
D02*
G37*
G36*
X162276Y88400D02*
X161768Y88299D01*
X161338Y88012D01*
X161051Y87582D01*
X160950Y87075D01*
X161051Y86568D01*
X161338Y86138D01*
X161768Y85850D01*
X162276Y85749D01*
X162783Y85850D01*
X163213Y86138D01*
X163500Y86568D01*
X163601Y87075D01*
X163500Y87582D01*
X163213Y88012D01*
X162783Y88299D01*
X162276Y88400D01*
D02*
G37*
G36*
X145000Y99826D02*
X144493Y99725D01*
X144063Y99437D01*
X143775Y99007D01*
X143675Y98500D01*
X143775Y97993D01*
X144063Y97563D01*
X144493Y97275D01*
X145000Y97175D01*
X145507Y97275D01*
X145937Y97563D01*
X146225Y97993D01*
X146326Y98500D01*
X146225Y99007D01*
X145937Y99437D01*
X145507Y99725D01*
X145000Y99826D01*
D02*
G37*
G36*
X29500Y103192D02*
X28661Y103025D01*
X27950Y102550D01*
X27475Y101839D01*
X27308Y101000D01*
X27475Y100161D01*
X27950Y99450D01*
X28661Y98975D01*
X29500Y98808D01*
X30339Y98975D01*
X31050Y99450D01*
X31525Y100161D01*
X31692Y101000D01*
X31525Y101839D01*
X31050Y102550D01*
X30339Y103025D01*
X29500Y103192D01*
D02*
G37*
G36*
X255000Y104135D02*
X253930Y103995D01*
X252932Y103581D01*
X252076Y102924D01*
X251419Y102068D01*
X251006Y101070D01*
X250865Y100000D01*
X251006Y98930D01*
X251419Y97932D01*
X252076Y97076D01*
X252932Y96419D01*
X253930Y96005D01*
X255000Y95865D01*
X256070Y96005D01*
X257068Y96419D01*
X257924Y97076D01*
X258581Y97932D01*
X258995Y98930D01*
X259135Y100000D01*
X258995Y101070D01*
X258581Y102068D01*
X257924Y102924D01*
X257068Y103581D01*
X256070Y103995D01*
X255000Y104135D01*
D02*
G37*
G36*
X290500Y99539D02*
X289720Y99384D01*
X289058Y98942D01*
X288616Y98280D01*
X288461Y97500D01*
X288616Y96720D01*
X289058Y96058D01*
X289720Y95616D01*
X290500Y95461D01*
X291280Y95616D01*
X291942Y96058D01*
X292384Y96720D01*
X292539Y97500D01*
X292384Y98280D01*
X291942Y98942D01*
X291280Y99384D01*
X290500Y99539D01*
D02*
G37*
G36*
X245000Y104135D02*
X243930Y103995D01*
X242932Y103581D01*
X242076Y102924D01*
X241419Y102068D01*
X241005Y101070D01*
X240865Y100000D01*
X241005Y98930D01*
X241419Y97932D01*
X242076Y97076D01*
X242932Y96419D01*
X243930Y96005D01*
X245000Y95865D01*
X246070Y96005D01*
X247068Y96419D01*
X247924Y97076D01*
X248581Y97932D01*
X248994Y98930D01*
X249135Y100000D01*
X248994Y101070D01*
X248581Y102068D01*
X247924Y102924D01*
X247068Y103581D01*
X246070Y103995D01*
X245000Y104135D01*
D02*
G37*
G36*
X24500Y104192D02*
X23661Y104025D01*
X22950Y103550D01*
X22475Y102839D01*
X22308Y102000D01*
X22475Y101161D01*
X22950Y100450D01*
X23661Y99975D01*
X24500Y99808D01*
X25339Y99975D01*
X26050Y100450D01*
X26525Y101161D01*
X26692Y102000D01*
X26525Y102839D01*
X26050Y103550D01*
X25339Y104025D01*
X24500Y104192D01*
D02*
G37*
G36*
X170000Y104825D02*
X169493Y104725D01*
X169063Y104437D01*
X168775Y104007D01*
X168675Y103500D01*
X168775Y102993D01*
X169063Y102563D01*
X169493Y102276D01*
X170000Y102175D01*
X170507Y102276D01*
X170937Y102563D01*
X171225Y102993D01*
X171326Y103500D01*
X171225Y104007D01*
X170937Y104437D01*
X170507Y104725D01*
X170000Y104825D01*
D02*
G37*
G36*
X92000Y106692D02*
X91161Y106525D01*
X90450Y106050D01*
X89975Y105339D01*
X89808Y104500D01*
X89975Y103661D01*
X90450Y102950D01*
X91161Y102475D01*
X92000Y102308D01*
X92839Y102475D01*
X93550Y102950D01*
X94025Y103661D01*
X94192Y104500D01*
X94025Y105339D01*
X93550Y106050D01*
X92839Y106525D01*
X92000Y106692D01*
D02*
G37*
G36*
X164000Y104825D02*
X163493Y104725D01*
X163063Y104437D01*
X162776Y104007D01*
X162675Y103500D01*
X162776Y102993D01*
X163063Y102563D01*
X163493Y102276D01*
X164000Y102175D01*
X164507Y102276D01*
X164937Y102563D01*
X165225Y102993D01*
X165325Y103500D01*
X165225Y104007D01*
X164937Y104437D01*
X164507Y104725D01*
X164000Y104825D01*
D02*
G37*
G36*
X165500Y101074D02*
X164993Y100973D01*
X164563Y100685D01*
X164276Y100255D01*
X164240Y100078D01*
X163730D01*
X163725Y100107D01*
X163437Y100537D01*
X163007Y100825D01*
X162500Y100926D01*
X161993Y100825D01*
X161563Y100537D01*
X161275Y100107D01*
X161175Y99600D01*
X161275Y99093D01*
X161563Y98663D01*
X161993Y98375D01*
X162500Y98275D01*
X163007Y98375D01*
X163437Y98663D01*
X163725Y99093D01*
X163760Y99270D01*
X164270D01*
X164276Y99241D01*
X164563Y98811D01*
X164993Y98523D01*
X165500Y98423D01*
X166007Y98523D01*
X166437Y98811D01*
X166725Y99241D01*
X166825Y99748D01*
X166725Y100255D01*
X166437Y100685D01*
X166007Y100973D01*
X165500Y101074D01*
D02*
G37*
G36*
X157500Y104825D02*
X156993Y104725D01*
X156563Y104437D01*
X156275Y104007D01*
X156175Y103500D01*
X156275Y102993D01*
X156563Y102563D01*
X156993Y102276D01*
X157500Y102175D01*
X158007Y102276D01*
X158437Y102563D01*
X158725Y102993D01*
X158826Y103500D01*
X158725Y104007D01*
X158437Y104437D01*
X158007Y104725D01*
X157500Y104825D01*
D02*
G37*
G36*
X146500Y93826D02*
X145993Y93725D01*
X145563Y93437D01*
X145275Y93007D01*
X145175Y92500D01*
X145275Y91993D01*
X145563Y91563D01*
X145993Y91275D01*
X146500Y91175D01*
X147007Y91275D01*
X147437Y91563D01*
X147725Y91993D01*
X147826Y92500D01*
X147725Y93007D01*
X147437Y93437D01*
X147007Y93725D01*
X146500Y93826D01*
D02*
G37*
G36*
X174874Y94700D02*
X174367Y94599D01*
X173937Y94311D01*
X173650Y93881D01*
X173549Y93374D01*
X173650Y92867D01*
X173937Y92437D01*
X174367Y92150D01*
X174874Y92049D01*
X175381Y92150D01*
X175811Y92437D01*
X176099Y92867D01*
X176199Y93374D01*
X176099Y93881D01*
X175811Y94311D01*
X175381Y94599D01*
X174874Y94700D01*
D02*
G37*
G36*
Y91550D02*
X174367Y91449D01*
X173937Y91162D01*
X173650Y90732D01*
X173549Y90224D01*
X173650Y89717D01*
X173937Y89287D01*
X174367Y89000D01*
X174874Y88899D01*
X175381Y89000D01*
X175811Y89287D01*
X176099Y89717D01*
X176199Y90224D01*
X176099Y90732D01*
X175811Y91162D01*
X175381Y91449D01*
X174874Y91550D01*
D02*
G37*
G36*
X185500Y88826D02*
X184993Y88725D01*
X184563Y88437D01*
X184275Y88007D01*
X184175Y87500D01*
X184275Y86993D01*
X184563Y86563D01*
X184993Y86276D01*
X185500Y86175D01*
X186007Y86276D01*
X186437Y86563D01*
X186725Y86993D01*
X186826Y87500D01*
X186725Y88007D01*
X186437Y88437D01*
X186007Y88725D01*
X185500Y88826D01*
D02*
G37*
G36*
X152827Y91550D02*
X152320Y91449D01*
X151890Y91162D01*
X151602Y90732D01*
X151501Y90224D01*
X151602Y89717D01*
X151890Y89287D01*
X152320Y89000D01*
X152827Y88899D01*
X153334Y89000D01*
X153764Y89287D01*
X154051Y89717D01*
X154152Y90224D01*
X154051Y90732D01*
X153764Y91162D01*
X153334Y91449D01*
X152827Y91550D01*
D02*
G37*
G36*
X162500Y94826D02*
X161993Y94725D01*
X161563Y94437D01*
X161275Y94007D01*
X161174Y93500D01*
X161275Y92993D01*
X161563Y92563D01*
X161993Y92275D01*
X162500Y92175D01*
X163007Y92275D01*
X163437Y92563D01*
X163725Y92993D01*
X163826Y93500D01*
X163725Y94007D01*
X163437Y94437D01*
X163007Y94725D01*
X162500Y94826D01*
D02*
G37*
G36*
X64250Y99442D02*
X63411Y99275D01*
X62700Y98800D01*
X62225Y98089D01*
X62058Y97250D01*
X62225Y96411D01*
X62700Y95700D01*
X63411Y95225D01*
X64250Y95058D01*
X65089Y95225D01*
X65800Y95700D01*
X66275Y96411D01*
X66442Y97250D01*
X66275Y98089D01*
X65800Y98800D01*
X65089Y99275D01*
X64250Y99442D01*
D02*
G37*
G36*
X276000Y99692D02*
X275161Y99525D01*
X274450Y99050D01*
X273975Y98339D01*
X273808Y97500D01*
X273975Y96661D01*
X274450Y95950D01*
X275161Y95475D01*
X276000Y95308D01*
X276839Y95475D01*
X277550Y95950D01*
X278025Y96661D01*
X278192Y97500D01*
X278025Y98339D01*
X277550Y99050D01*
X276839Y99525D01*
X276000Y99692D01*
D02*
G37*
G36*
X24500Y98192D02*
X23661Y98025D01*
X22950Y97550D01*
X22475Y96839D01*
X22308Y96000D01*
X22475Y95161D01*
X22950Y94450D01*
X23661Y93975D01*
X24500Y93808D01*
X25339Y93975D01*
X26050Y94450D01*
X26525Y95161D01*
X26692Y96000D01*
X26525Y96839D01*
X26050Y97550D01*
X25339Y98025D01*
X24500Y98192D01*
D02*
G37*
G36*
X168575Y97849D02*
X168068Y97748D01*
X167638Y97461D01*
X167350Y97031D01*
X167249Y96524D01*
X167350Y96016D01*
X167638Y95586D01*
X168067Y95299D01*
X168068Y95298D01*
X168067Y94789D01*
X167993Y94775D01*
X167563Y94487D01*
X167275Y94057D01*
X167174Y93550D01*
X167275Y93043D01*
X167563Y92613D01*
X167993Y92325D01*
X168500Y92225D01*
X169007Y92325D01*
X169437Y92613D01*
X169725Y93043D01*
X169825Y93550D01*
X169725Y94057D01*
X169437Y94487D01*
X169007Y94774D01*
X169007Y94775D01*
X169008Y95284D01*
X169082Y95299D01*
X169512Y95586D01*
X169799Y96016D01*
X169900Y96524D01*
X169799Y97031D01*
X169512Y97461D01*
X169082Y97748D01*
X168575Y97849D01*
D02*
G37*
G36*
X185547Y95325D02*
X185040Y95225D01*
X184610Y94937D01*
X184323Y94507D01*
X184222Y94000D01*
X184323Y93493D01*
X184610Y93063D01*
X185040Y92775D01*
X185547Y92675D01*
X186055Y92775D01*
X186485Y93063D01*
X186772Y93493D01*
X186873Y94000D01*
X186772Y94507D01*
X186485Y94937D01*
X186055Y95225D01*
X185547Y95325D01*
D02*
G37*
G36*
X203250Y41076D02*
X202743Y40975D01*
X202313Y40687D01*
X202026Y40257D01*
X201925Y39750D01*
X202026Y39243D01*
X202313Y38813D01*
X202743Y38526D01*
X203250Y38425D01*
X203757Y38526D01*
X204187Y38813D01*
X204475Y39243D01*
X204575Y39750D01*
X204475Y40257D01*
X204187Y40687D01*
X203757Y40975D01*
X203250Y41076D01*
D02*
G37*
G36*
X135000Y48192D02*
X134161Y48025D01*
X133450Y47550D01*
X132975Y46839D01*
X132808Y46000D01*
X132975Y45161D01*
X133450Y44450D01*
X134161Y43975D01*
X135000Y43808D01*
X135839Y43975D01*
X136550Y44450D01*
X137025Y45161D01*
X137192Y46000D01*
X137025Y46839D01*
X136550Y47550D01*
X135839Y48025D01*
X135000Y48192D01*
D02*
G37*
G36*
X86500Y40192D02*
X85661Y40025D01*
X84950Y39550D01*
X84475Y38839D01*
X84308Y38000D01*
X84475Y37161D01*
X84950Y36450D01*
X85661Y35975D01*
X86500Y35808D01*
X87339Y35975D01*
X88050Y36450D01*
X88525Y37161D01*
X88692Y38000D01*
X88525Y38839D01*
X88050Y39550D01*
X87339Y40025D01*
X86500Y40192D01*
D02*
G37*
G36*
X148500Y33825D02*
X147993Y33725D01*
X147563Y33437D01*
X147275Y33007D01*
X147175Y32500D01*
X147275Y31993D01*
X147563Y31563D01*
X147993Y31275D01*
X148500Y31175D01*
X149007Y31275D01*
X149437Y31563D01*
X149725Y31993D01*
X149826Y32500D01*
X149725Y33007D01*
X149437Y33437D01*
X149007Y33725D01*
X148500Y33825D01*
D02*
G37*
G36*
X29358Y39379D02*
X28431Y39257D01*
X27567Y38899D01*
X26824Y38329D01*
X26255Y37587D01*
X25897Y36723D01*
X25775Y35795D01*
X25897Y34868D01*
X26255Y34004D01*
X26824Y33261D01*
X27567Y32692D01*
X28431Y32334D01*
X29358Y32212D01*
X30286Y32334D01*
X31150Y32692D01*
X31892Y33261D01*
X32462Y34004D01*
X32820Y34868D01*
X32942Y35795D01*
X32820Y36723D01*
X32462Y37587D01*
X31892Y38329D01*
X31150Y38899D01*
X30286Y39257D01*
X29358Y39379D01*
D02*
G37*
G36*
X173900Y56200D02*
X164500D01*
Y45700D01*
X173900D01*
Y56200D01*
D02*
G37*
G36*
X54500Y58083D02*
X53573Y57961D01*
X52708Y57603D01*
X51966Y57034D01*
X51397Y56292D01*
X51039Y55427D01*
X50917Y54500D01*
X51039Y53573D01*
X51397Y52708D01*
X51966Y51966D01*
X52708Y51397D01*
X53573Y51039D01*
X54500Y50917D01*
X55427Y51039D01*
X56292Y51397D01*
X57034Y51966D01*
X57603Y52708D01*
X57961Y53573D01*
X58083Y54500D01*
X57961Y55427D01*
X57603Y56292D01*
X57034Y57034D01*
X56292Y57603D01*
X55427Y57961D01*
X54500Y58083D01*
D02*
G37*
G36*
X64500D02*
X63573Y57961D01*
X62708Y57603D01*
X61966Y57034D01*
X61397Y56292D01*
X61039Y55427D01*
X60917Y54500D01*
X61039Y53573D01*
X61397Y52708D01*
X61966Y51966D01*
X62708Y51397D01*
X63573Y51039D01*
X64500Y50917D01*
X65428Y51039D01*
X66292Y51397D01*
X67034Y51966D01*
X67603Y52708D01*
X67961Y53573D01*
X68084Y54500D01*
X67961Y55427D01*
X67603Y56292D01*
X67034Y57034D01*
X66292Y57603D01*
X65428Y57961D01*
X64500Y58083D01*
D02*
G37*
G36*
X263000Y52192D02*
X262161Y52025D01*
X261450Y51550D01*
X260975Y50839D01*
X260808Y50000D01*
X260975Y49161D01*
X261450Y48450D01*
X262161Y47975D01*
X263000Y47808D01*
X263839Y47975D01*
X264550Y48450D01*
X265025Y49161D01*
X265192Y50000D01*
X265025Y50839D01*
X264550Y51550D01*
X263839Y52025D01*
X263000Y52192D01*
D02*
G37*
G36*
X210500Y48825D02*
X209993Y48725D01*
X209563Y48437D01*
X209276Y48007D01*
X209175Y47500D01*
X209276Y46993D01*
X209563Y46563D01*
X209993Y46275D01*
X210500Y46175D01*
X211007Y46275D01*
X211437Y46563D01*
X211725Y46993D01*
X211825Y47500D01*
X211725Y48007D01*
X211437Y48437D01*
X211007Y48725D01*
X210500Y48825D01*
D02*
G37*
G36*
X287000Y59692D02*
X286161Y59525D01*
X285450Y59050D01*
X284975Y58339D01*
X284808Y57500D01*
X284975Y56661D01*
X285450Y55950D01*
X285749Y55750D01*
Y55250D01*
X285450Y55050D01*
X284975Y54339D01*
X284808Y53500D01*
X284975Y52661D01*
X285450Y51950D01*
X285749Y51750D01*
Y51250D01*
X285450Y51050D01*
X284975Y50339D01*
X284808Y49500D01*
X284975Y48661D01*
X285450Y47950D01*
X286161Y47475D01*
X287000Y47308D01*
X287839Y47475D01*
X288550Y47950D01*
X289025Y48661D01*
X289192Y49500D01*
X289025Y50339D01*
X288550Y51050D01*
X288251Y51250D01*
Y51750D01*
X288550Y51950D01*
X289025Y52661D01*
X289192Y53500D01*
X289025Y54339D01*
X288550Y55050D01*
X288251Y55250D01*
Y55750D01*
X288550Y55950D01*
X289025Y56661D01*
X289192Y57500D01*
X289025Y58339D01*
X288550Y59050D01*
X287839Y59525D01*
X287000Y59692D01*
D02*
G37*
G36*
X103500Y19692D02*
X102661Y19525D01*
X101950Y19050D01*
X101475Y18339D01*
X101308Y17500D01*
X101475Y16661D01*
X101950Y15950D01*
X102661Y15475D01*
X103500Y15308D01*
X104292Y15465D01*
X104417Y15364D01*
X104626Y15065D01*
X104475Y14839D01*
X104308Y14000D01*
X104475Y13161D01*
X104950Y12450D01*
X105661Y11975D01*
X106500Y11808D01*
X107339Y11975D01*
X108050Y12450D01*
X108525Y13161D01*
X108692Y14000D01*
X108525Y14839D01*
X108050Y15550D01*
X107339Y16025D01*
X106500Y16192D01*
X105708Y16035D01*
X105583Y16136D01*
X105374Y16435D01*
X105525Y16661D01*
X105692Y17500D01*
X105525Y18339D01*
X105050Y19050D01*
X104339Y19525D01*
X103500Y19692D01*
D02*
G37*
G36*
X121000Y17192D02*
X120161Y17025D01*
X119450Y16550D01*
X118975Y15839D01*
X118808Y15000D01*
X118975Y14161D01*
X119450Y13450D01*
X120161Y12975D01*
X121000Y12808D01*
X121839Y12975D01*
X122550Y13450D01*
X123025Y14161D01*
X123192Y15000D01*
X123025Y15839D01*
X122550Y16550D01*
X121839Y17025D01*
X121000Y17192D01*
D02*
G37*
G36*
X208500Y15692D02*
X207661Y15525D01*
X206950Y15050D01*
X206475Y14339D01*
X206308Y13500D01*
X206475Y12661D01*
X206950Y11950D01*
X207661Y11475D01*
X208500Y11308D01*
X209339Y11475D01*
X210050Y11950D01*
X210525Y12661D01*
X210692Y13500D01*
X210525Y14339D01*
X210050Y15050D01*
X209339Y15525D01*
X208500Y15692D01*
D02*
G37*
G36*
X29358Y13788D02*
X28431Y13666D01*
X27567Y13308D01*
X26824Y12739D01*
X26255Y11997D01*
X25897Y11132D01*
X25775Y10205D01*
X25897Y9277D01*
X26255Y8413D01*
X26824Y7671D01*
X27567Y7102D01*
X28431Y6744D01*
X29358Y6622D01*
X30286Y6744D01*
X31150Y7102D01*
X31892Y7671D01*
X32462Y8413D01*
X32820Y9277D01*
X32942Y10205D01*
X32820Y11132D01*
X32462Y11997D01*
X31892Y12739D01*
X31150Y13308D01*
X30286Y13666D01*
X29358Y13788D01*
D02*
G37*
G36*
X284000Y22462D02*
X282739Y22338D01*
X281527Y21970D01*
X280410Y21373D01*
X279431Y20569D01*
X278627Y19590D01*
X278030Y18473D01*
X277662Y17261D01*
X277538Y16000D01*
X277662Y14739D01*
X278030Y13527D01*
X278627Y12410D01*
X279431Y11431D01*
X280410Y10627D01*
X281527Y10030D01*
X282739Y9662D01*
X284000Y9538D01*
X285261Y9662D01*
X286473Y10030D01*
X287590Y10627D01*
X288569Y11431D01*
X289373Y12410D01*
X289970Y13527D01*
X290338Y14739D01*
X290462Y16000D01*
X290338Y17261D01*
X289970Y18473D01*
X289373Y19590D01*
X288569Y20569D01*
X287590Y21373D01*
X286473Y21970D01*
X285261Y22338D01*
X284000Y22462D01*
D02*
G37*
G36*
X127000Y19192D02*
X126161Y19025D01*
X125450Y18550D01*
X124975Y17839D01*
X124808Y17000D01*
X124975Y16161D01*
X125450Y15450D01*
X126161Y14975D01*
X127000Y14808D01*
X127839Y14975D01*
X128550Y15450D01*
X129025Y16161D01*
X129192Y17000D01*
X129025Y17839D01*
X128550Y18550D01*
X127839Y19025D01*
X127000Y19192D01*
D02*
G37*
G36*
X41000Y34192D02*
X40161Y34025D01*
X39450Y33550D01*
X38975Y32839D01*
X38808Y32000D01*
X38975Y31161D01*
X39450Y30450D01*
X40161Y29975D01*
X41000Y29808D01*
X41839Y29975D01*
X42550Y30450D01*
X43025Y31161D01*
X43192Y32000D01*
X43025Y32839D01*
X42550Y33550D01*
X41839Y34025D01*
X41000Y34192D01*
D02*
G37*
G36*
X113000Y34692D02*
X112161Y34525D01*
X111450Y34050D01*
X110975Y33339D01*
X110808Y32500D01*
X110975Y31661D01*
X111450Y30950D01*
X112161Y30475D01*
X113000Y30308D01*
X113839Y30475D01*
X114550Y30950D01*
X115025Y31661D01*
X115192Y32500D01*
X115025Y33339D01*
X114550Y34050D01*
X113839Y34525D01*
X113000Y34692D01*
D02*
G37*
G36*
X121500Y22192D02*
X120661Y22025D01*
X119950Y21550D01*
X119475Y20839D01*
X119308Y20000D01*
X119475Y19161D01*
X119950Y18450D01*
X120661Y17975D01*
X121500Y17808D01*
X122339Y17975D01*
X123050Y18450D01*
X123525Y19161D01*
X123692Y20000D01*
X123525Y20839D01*
X123050Y21550D01*
X122339Y22025D01*
X121500Y22192D01*
D02*
G37*
G36*
X183500Y19692D02*
X182661Y19525D01*
X181950Y19050D01*
X181475Y18339D01*
X181308Y17500D01*
X181475Y16661D01*
X181950Y15950D01*
X182661Y15475D01*
X183500Y15308D01*
X184339Y15475D01*
X185050Y15950D01*
X185525Y16661D01*
X185692Y17500D01*
X185525Y18339D01*
X185050Y19050D01*
X184339Y19525D01*
X183500Y19692D01*
D02*
G37*
G36*
X233000Y22192D02*
X232161Y22025D01*
X231450Y21550D01*
X230975Y20839D01*
X230808Y20000D01*
X230975Y19161D01*
X231450Y18450D01*
X232161Y17975D01*
X233000Y17808D01*
X233839Y17975D01*
X234550Y18450D01*
X235025Y19161D01*
X235192Y20000D01*
X235025Y20839D01*
X234550Y21550D01*
X233839Y22025D01*
X233000Y22192D01*
D02*
G37*
G36*
X174874Y72652D02*
X174367Y72551D01*
X173937Y72264D01*
X173650Y71834D01*
X173549Y71327D01*
X173650Y70820D01*
X173937Y70390D01*
X174367Y70102D01*
X174874Y70001D01*
X175381Y70102D01*
X175811Y70390D01*
X176099Y70820D01*
X176199Y71327D01*
X176099Y71834D01*
X175811Y72264D01*
X175381Y72551D01*
X174874Y72652D01*
D02*
G37*
G36*
X178024D02*
X177516Y72551D01*
X177086Y72264D01*
X176799Y71834D01*
X176698Y71327D01*
X176799Y70820D01*
X177086Y70390D01*
X177516Y70102D01*
X178024Y70001D01*
X178531Y70102D01*
X178961Y70390D01*
X179248Y70820D01*
X179349Y71327D01*
X179248Y71834D01*
X178961Y72264D01*
X178531Y72551D01*
X178024Y72652D01*
D02*
G37*
G36*
X152827D02*
X152320Y72551D01*
X151890Y72264D01*
X151602Y71834D01*
X151501Y71327D01*
X151602Y70820D01*
X151890Y70390D01*
X152320Y70102D01*
X152827Y70001D01*
X153334Y70102D01*
X153764Y70390D01*
X154051Y70820D01*
X154152Y71327D01*
X154051Y71834D01*
X153764Y72264D01*
X153334Y72551D01*
X152827Y72652D01*
D02*
G37*
G36*
X125000Y69826D02*
X124493Y69725D01*
X124063Y69437D01*
X123775Y69007D01*
X123675Y68500D01*
X123775Y67993D01*
X124063Y67563D01*
X124493Y67276D01*
X125000Y67175D01*
X125507Y67276D01*
X125937Y67563D01*
X126225Y67993D01*
X126326Y68500D01*
X126225Y69007D01*
X125937Y69437D01*
X125507Y69725D01*
X125000Y69826D01*
D02*
G37*
G36*
X171700Y72625D02*
X171193Y72525D01*
X170763Y72237D01*
X170475Y71807D01*
X170375Y71300D01*
X170475Y70793D01*
X170763Y70363D01*
X171193Y70076D01*
X171700Y69975D01*
X172207Y70076D01*
X172637Y70363D01*
X172925Y70793D01*
X173026Y71300D01*
X172925Y71807D01*
X172637Y72237D01*
X172207Y72525D01*
X171700Y72625D01*
D02*
G37*
G36*
X186000Y74227D02*
X185493Y74126D01*
X185063Y73839D01*
X184775Y73409D01*
X184675Y72902D01*
X184775Y72394D01*
X185063Y71964D01*
X185493Y71677D01*
X186000Y71576D01*
X186507Y71677D01*
X186937Y71964D01*
X187225Y72394D01*
X187326Y72902D01*
X187225Y73409D01*
X186937Y73839D01*
X186507Y74126D01*
X186000Y74227D01*
D02*
G37*
G36*
X118000Y75826D02*
X117493Y75725D01*
X117063Y75437D01*
X116776Y75007D01*
X116675Y74500D01*
X116776Y73993D01*
X117063Y73563D01*
X117493Y73276D01*
X118000Y73175D01*
X118507Y73276D01*
X118937Y73563D01*
X119225Y73993D01*
X119325Y74500D01*
X119225Y75007D01*
X118937Y75437D01*
X118507Y75725D01*
X118000Y75826D01*
D02*
G37*
G36*
X172000D02*
X171493Y75725D01*
X171063Y75437D01*
X170775Y75007D01*
X170675Y74500D01*
X170775Y73993D01*
X171063Y73563D01*
X171493Y73276D01*
X172000Y73175D01*
X172507Y73276D01*
X172937Y73563D01*
X173225Y73993D01*
X173326Y74500D01*
X173225Y75007D01*
X172937Y75437D01*
X172507Y75725D01*
X172000Y75826D01*
D02*
G37*
G36*
X168575Y75802D02*
X168068Y75701D01*
X167638Y75414D01*
X167350Y74984D01*
X167249Y74476D01*
X167350Y73969D01*
X167638Y73539D01*
X168068Y73252D01*
X168575Y73151D01*
X169082Y73252D01*
X169512Y73539D01*
X169799Y73969D01*
X169900Y74476D01*
X169799Y74984D01*
X169512Y75414D01*
X169082Y75701D01*
X168575Y75802D01*
D02*
G37*
G36*
X149677D02*
X149170Y75701D01*
X148740Y75414D01*
X148453Y74984D01*
X148352Y74476D01*
X148453Y73969D01*
X148740Y73539D01*
X149170Y73252D01*
X149677Y73151D01*
X150185Y73252D01*
X150615Y73539D01*
X150902Y73969D01*
X151003Y74476D01*
X150902Y74984D01*
X150615Y75414D01*
X150185Y75701D01*
X149677Y75802D01*
D02*
G37*
G36*
X155976D02*
X155469Y75701D01*
X155039Y75414D01*
X154752Y74984D01*
X154651Y74476D01*
X154752Y73969D01*
X155039Y73539D01*
X155469Y73252D01*
X155976Y73151D01*
X156484Y73252D01*
X156914Y73539D01*
X157201Y73969D01*
X157302Y74476D01*
X157201Y74984D01*
X156914Y75414D01*
X156484Y75701D01*
X155976Y75802D01*
D02*
G37*
G36*
X85000Y61692D02*
X84161Y61525D01*
X83450Y61050D01*
X82975Y60339D01*
X82808Y59500D01*
X82975Y58661D01*
X83450Y57950D01*
X84161Y57475D01*
X85000Y57308D01*
X85839Y57475D01*
X86550Y57950D01*
X87025Y58661D01*
X87192Y59500D01*
X87025Y60339D01*
X86550Y61050D01*
X85839Y61525D01*
X85000Y61692D01*
D02*
G37*
G36*
X252500Y64192D02*
X251661Y64025D01*
X250950Y63550D01*
X250475Y62839D01*
X250308Y62000D01*
X250475Y61161D01*
X250950Y60450D01*
X251661Y59975D01*
X252500Y59808D01*
X253339Y59975D01*
X254050Y60450D01*
X254525Y61161D01*
X254692Y62000D01*
X254525Y62839D01*
X254050Y63550D01*
X253339Y64025D01*
X252500Y64192D01*
D02*
G37*
G36*
Y57192D02*
X251661Y57025D01*
X250950Y56550D01*
X250475Y55839D01*
X250308Y55000D01*
X250475Y54161D01*
X250950Y53450D01*
X251661Y52975D01*
X252500Y52808D01*
X253339Y52975D01*
X254050Y53450D01*
X254525Y54161D01*
X254692Y55000D01*
X254525Y55839D01*
X254050Y56550D01*
X253339Y57025D01*
X252500Y57192D01*
D02*
G37*
G36*
X48053Y58053D02*
X40947D01*
Y50947D01*
X48053D01*
Y58053D01*
D02*
G37*
G36*
X187000Y57192D02*
X186161Y57025D01*
X185450Y56550D01*
X184975Y55839D01*
X184808Y55000D01*
X184975Y54161D01*
X185450Y53450D01*
X186161Y52975D01*
X187000Y52808D01*
X187839Y52975D01*
X188550Y53450D01*
X189025Y54161D01*
X189192Y55000D01*
X189025Y55839D01*
X188550Y56550D01*
X187839Y57025D01*
X187000Y57192D01*
D02*
G37*
G36*
X207000Y63826D02*
X206493Y63725D01*
X206063Y63437D01*
X205775Y63007D01*
X205675Y62500D01*
X205775Y61993D01*
X206063Y61563D01*
X206493Y61276D01*
X207000Y61175D01*
X207507Y61276D01*
X207937Y61563D01*
X208225Y61993D01*
X208326Y62500D01*
X208225Y63007D01*
X207937Y63437D01*
X207507Y63725D01*
X207000Y63826D01*
D02*
G37*
G36*
X162276Y69503D02*
X161768Y69402D01*
X161338Y69115D01*
X161051Y68685D01*
X160950Y68177D01*
X161051Y67670D01*
X161338Y67240D01*
X161768Y66953D01*
X162276Y66852D01*
X162783Y66953D01*
X163213Y67240D01*
X163500Y67670D01*
X163601Y68177D01*
X163500Y68685D01*
X163213Y69115D01*
X162783Y69402D01*
X162276Y69503D01*
D02*
G37*
G36*
X181173D02*
X180666Y69402D01*
X180236Y69115D01*
X179949Y68685D01*
X179848Y68177D01*
X179949Y67670D01*
X180236Y67240D01*
X180666Y66953D01*
X181173Y66852D01*
X181681Y66953D01*
X182111Y67240D01*
X182398Y67670D01*
X182499Y68177D01*
X182398Y68685D01*
X182111Y69115D01*
X181681Y69402D01*
X181173Y69503D01*
D02*
G37*
G36*
X91500Y69692D02*
X90661Y69525D01*
X89950Y69050D01*
X89475Y68339D01*
X89308Y67500D01*
X89475Y66661D01*
X89950Y65950D01*
X90661Y65475D01*
X91500Y65308D01*
X92339Y65475D01*
X93050Y65950D01*
X93525Y66661D01*
X93692Y67500D01*
X93525Y68339D01*
X93050Y69050D01*
X92339Y69525D01*
X91500Y69692D01*
D02*
G37*
G36*
X202500Y67326D02*
X201993Y67225D01*
X201563Y66937D01*
X201275Y66507D01*
X201175Y66000D01*
X201275Y65493D01*
X201563Y65063D01*
X201993Y64776D01*
X202219Y64221D01*
X202175Y64000D01*
X202275Y63493D01*
X202563Y63063D01*
X202993Y62775D01*
X203500Y62675D01*
X204007Y62775D01*
X204437Y63063D01*
X204725Y63493D01*
X204825Y64000D01*
X204725Y64507D01*
X204437Y64937D01*
X204007Y65225D01*
X203782Y65779D01*
X203825Y66000D01*
X203725Y66507D01*
X203437Y66937D01*
X203007Y67225D01*
X202500Y67326D01*
D02*
G37*
G36*
X234000Y67692D02*
X233161Y67525D01*
X232450Y67050D01*
X231975Y66339D01*
X231808Y65500D01*
X231975Y64661D01*
X232450Y63950D01*
X233161Y63475D01*
X234000Y63308D01*
X234839Y63475D01*
X235550Y63950D01*
X236025Y64661D01*
X236192Y65500D01*
X236025Y66339D01*
X235550Y67050D01*
X234839Y67525D01*
X234000Y67692D01*
D02*
G37*
G36*
X46250Y106942D02*
X45411Y106775D01*
X44700Y106300D01*
X44225Y105589D01*
X44058Y104750D01*
X44225Y103911D01*
X44700Y103200D01*
X45411Y102725D01*
X46250Y102558D01*
X47089Y102725D01*
X47800Y103200D01*
X48275Y103911D01*
X48442Y104750D01*
X48275Y105589D01*
X47800Y106300D01*
X47089Y106775D01*
X46250Y106942D01*
D02*
G37*
G36*
X292500Y174131D02*
X291560Y174007D01*
X290685Y173645D01*
X289932Y173068D01*
X289355Y172316D01*
X288993Y171440D01*
X288869Y170500D01*
X288993Y169560D01*
X289355Y168684D01*
X289932Y167932D01*
X290685Y167355D01*
X291560Y166993D01*
X292500Y166869D01*
X293440Y166993D01*
X294316Y167355D01*
X295068Y167932D01*
X295645Y168684D01*
X296007Y169560D01*
X296131Y170500D01*
X296007Y171440D01*
X295645Y172316D01*
X295068Y173068D01*
X294316Y173645D01*
X293440Y174007D01*
X292500Y174131D01*
D02*
G37*
G36*
X302500D02*
X301560Y174007D01*
X300684Y173645D01*
X299933Y173068D01*
X299355Y172316D01*
X298993Y171440D01*
X298869Y170500D01*
X298993Y169560D01*
X299355Y168684D01*
X299933Y167932D01*
X300684Y167355D01*
X301560Y166993D01*
X302500Y166869D01*
X303440Y166993D01*
X304315Y167355D01*
X305067Y167932D01*
X305645Y168684D01*
X306007Y169560D01*
X306131Y170500D01*
X306007Y171440D01*
X305645Y172316D01*
X305067Y173068D01*
X304315Y173645D01*
X303440Y174007D01*
X302500Y174131D01*
D02*
G37*
G36*
X282500D02*
X281560Y174007D01*
X280684Y173645D01*
X279932Y173068D01*
X279355Y172316D01*
X278993Y171440D01*
X278869Y170500D01*
X278993Y169560D01*
X279355Y168684D01*
X279932Y167932D01*
X280684Y167355D01*
X281560Y166993D01*
X282500Y166869D01*
X283440Y166993D01*
X284315Y167355D01*
X285068Y167932D01*
X285645Y168684D01*
X286007Y169560D01*
X286131Y170500D01*
X286007Y171440D01*
X285645Y172316D01*
X285068Y173068D01*
X284315Y173645D01*
X283440Y174007D01*
X282500Y174131D01*
D02*
G37*
G36*
X194000Y168325D02*
X193493Y168225D01*
X193063Y167937D01*
X192775Y167507D01*
X192675Y167000D01*
X192775Y166493D01*
X193063Y166063D01*
X193493Y165775D01*
X194000Y165674D01*
X194507Y165775D01*
X194937Y166063D01*
X195225Y166493D01*
X195326Y167000D01*
X195225Y167507D01*
X194937Y167937D01*
X194507Y168225D01*
X194000Y168325D01*
D02*
G37*
G36*
X188839Y169007D02*
X188332Y168906D01*
X187902Y168619D01*
X187615Y168189D01*
X187514Y167682D01*
X187615Y167175D01*
X187902Y166745D01*
X188332Y166457D01*
X188839Y166356D01*
X189347Y166457D01*
X189777Y166745D01*
X190064Y167175D01*
X190165Y167682D01*
X190064Y168189D01*
X189777Y168619D01*
X189347Y168906D01*
X188839Y169007D01*
D02*
G37*
G36*
X245000Y174631D02*
X244060Y174507D01*
X243184Y174145D01*
X242432Y173568D01*
X241855Y172816D01*
X241493Y171940D01*
X241369Y171000D01*
X241493Y170060D01*
X241855Y169185D01*
X242432Y168432D01*
X243184Y167855D01*
X244060Y167493D01*
X245000Y167369D01*
X245940Y167493D01*
X246815Y167855D01*
X247568Y168432D01*
X248145Y169185D01*
X248507Y170060D01*
X248631Y171000D01*
X248507Y171940D01*
X248145Y172816D01*
X247568Y173568D01*
X246815Y174145D01*
X245940Y174507D01*
X245000Y174631D01*
D02*
G37*
G36*
X213500Y177325D02*
X212993Y177225D01*
X212563Y176937D01*
X212275Y176507D01*
X212175Y176000D01*
X212275Y175493D01*
X212563Y175063D01*
X212993Y174775D01*
X213500Y174674D01*
X214007Y174775D01*
X214437Y175063D01*
X214725Y175493D01*
X214826Y176000D01*
X214725Y176507D01*
X214437Y176937D01*
X214007Y177225D01*
X213500Y177325D01*
D02*
G37*
G36*
X87000Y179192D02*
X86161Y179025D01*
X85450Y178550D01*
X84975Y177839D01*
X84808Y177000D01*
X84975Y176161D01*
X85450Y175450D01*
X86161Y174975D01*
X87000Y174808D01*
X87839Y174975D01*
X88550Y175450D01*
X89025Y176161D01*
X89192Y177000D01*
X89025Y177839D01*
X88550Y178550D01*
X87839Y179025D01*
X87000Y179192D01*
D02*
G37*
G36*
Y173692D02*
X86161Y173525D01*
X85450Y173050D01*
X84975Y172339D01*
X84808Y171500D01*
X84975Y170661D01*
X85450Y169950D01*
X86161Y169475D01*
X87000Y169308D01*
X87839Y169475D01*
X88550Y169950D01*
X89025Y170661D01*
X89192Y171500D01*
X89025Y172339D01*
X88550Y173050D01*
X87839Y173525D01*
X87000Y173692D01*
D02*
G37*
G36*
X255000Y174631D02*
X254060Y174507D01*
X253185Y174145D01*
X252432Y173568D01*
X251855Y172816D01*
X251493Y171940D01*
X251369Y171000D01*
X251493Y170060D01*
X251855Y169185D01*
X252432Y168432D01*
X253185Y167855D01*
X254060Y167493D01*
X255000Y167369D01*
X255940Y167493D01*
X256816Y167855D01*
X257568Y168432D01*
X258145Y169185D01*
X258507Y170060D01*
X258631Y171000D01*
X258507Y171940D01*
X258145Y172816D01*
X257568Y173568D01*
X256816Y174145D01*
X255940Y174507D01*
X255000Y174631D01*
D02*
G37*
G36*
X197500Y173692D02*
X196661Y173525D01*
X195950Y173050D01*
X195475Y172339D01*
X195308Y171500D01*
X195475Y170661D01*
X195950Y169950D01*
X196661Y169475D01*
X197500Y169308D01*
X198339Y169475D01*
X199050Y169950D01*
X199525Y170661D01*
X199692Y171500D01*
X199525Y172339D01*
X199050Y173050D01*
X198339Y173525D01*
X197500Y173692D01*
D02*
G37*
G36*
X245000Y164631D02*
X244060Y164507D01*
X243184Y164145D01*
X242432Y163568D01*
X241855Y162815D01*
X241493Y161940D01*
X241369Y161000D01*
X241493Y160060D01*
X241855Y159185D01*
X242432Y158432D01*
X243184Y157855D01*
X244060Y157493D01*
X245000Y157369D01*
X245940Y157493D01*
X246815Y157855D01*
X247568Y158432D01*
X248145Y159185D01*
X248507Y160060D01*
X248631Y161000D01*
X248507Y161940D01*
X248145Y162815D01*
X247568Y163568D01*
X246815Y164145D01*
X245940Y164507D01*
X245000Y164631D01*
D02*
G37*
G36*
X255000D02*
X254060Y164507D01*
X253185Y164145D01*
X252432Y163568D01*
X251855Y162815D01*
X251493Y161940D01*
X251369Y161000D01*
X251493Y160060D01*
X251855Y159185D01*
X252432Y158432D01*
X253185Y157855D01*
X254060Y157493D01*
X255000Y157369D01*
X255940Y157493D01*
X256816Y157855D01*
X257568Y158432D01*
X258145Y159185D01*
X258507Y160060D01*
X258631Y161000D01*
X258507Y161940D01*
X258145Y162815D01*
X257568Y163568D01*
X256816Y164145D01*
X255940Y164507D01*
X255000Y164631D01*
D02*
G37*
G36*
X24500Y159192D02*
X23661Y159025D01*
X22950Y158550D01*
X22475Y157839D01*
X22308Y157000D01*
X22475Y156161D01*
X22950Y155450D01*
X23661Y154975D01*
X24500Y154808D01*
X25339Y154975D01*
X26050Y155450D01*
X26525Y156161D01*
X26692Y157000D01*
X26525Y157839D01*
X26050Y158550D01*
X25339Y159025D01*
X24500Y159192D01*
D02*
G37*
G36*
X255000Y154631D02*
X254060Y154507D01*
X253185Y154145D01*
X252432Y153568D01*
X251855Y152815D01*
X251493Y151940D01*
X251369Y151000D01*
X251493Y150060D01*
X251855Y149185D01*
X252432Y148432D01*
X253185Y147855D01*
X254060Y147493D01*
X255000Y147369D01*
X255940Y147493D01*
X256816Y147855D01*
X257568Y148432D01*
X258145Y149185D01*
X258507Y150060D01*
X258631Y151000D01*
X258507Y151940D01*
X258145Y152815D01*
X257568Y153568D01*
X256816Y154145D01*
X255940Y154507D01*
X255000Y154631D01*
D02*
G37*
G36*
X109500Y156692D02*
X108661Y156525D01*
X107950Y156050D01*
X107475Y155339D01*
X107308Y154500D01*
X107475Y153661D01*
X107950Y152950D01*
X108661Y152475D01*
X109500Y152308D01*
X110339Y152475D01*
X111050Y152950D01*
X111525Y153661D01*
X111692Y154500D01*
X111525Y155339D01*
X111050Y156050D01*
X110339Y156525D01*
X109500Y156692D01*
D02*
G37*
G36*
X161500Y161326D02*
X160993Y161225D01*
X160563Y160937D01*
X160275Y160507D01*
X160175Y160000D01*
X160275Y159493D01*
X160563Y159063D01*
X160993Y158775D01*
X161500Y158675D01*
X162007Y158775D01*
X162437Y159063D01*
X162725Y159493D01*
X162826Y160000D01*
X162725Y160507D01*
X162437Y160937D01*
X162007Y161225D01*
X161500Y161326D01*
D02*
G37*
G36*
X34400Y166192D02*
X33561Y166025D01*
X32850Y165550D01*
X32375Y164839D01*
X32208Y164000D01*
X32375Y163161D01*
X32850Y162450D01*
X33561Y161975D01*
X34400Y161808D01*
X35239Y161975D01*
X35950Y162450D01*
X36425Y163161D01*
X36592Y164000D01*
X36425Y164839D01*
X35950Y165550D01*
X35239Y166025D01*
X34400Y166192D01*
D02*
G37*
G36*
X87000Y168192D02*
X86161Y168025D01*
X85450Y167550D01*
X84975Y166839D01*
X84808Y166000D01*
X84975Y165161D01*
X85450Y164450D01*
X86161Y163975D01*
X87000Y163808D01*
X87839Y163975D01*
X88550Y164450D01*
X89025Y165161D01*
X89192Y166000D01*
X89025Y166839D01*
X88550Y167550D01*
X87839Y168025D01*
X87000Y168192D01*
D02*
G37*
G36*
X24000Y165692D02*
X23161Y165525D01*
X22450Y165050D01*
X21975Y164339D01*
X21808Y163500D01*
X21975Y162661D01*
X22450Y161950D01*
X23161Y161475D01*
X24000Y161308D01*
X24839Y161475D01*
X25550Y161950D01*
X26025Y162661D01*
X26192Y163500D01*
X26025Y164339D01*
X25550Y165050D01*
X24839Y165525D01*
X24000Y165692D01*
D02*
G37*
G36*
X29000Y163192D02*
X28161Y163025D01*
X27450Y162550D01*
X26975Y161839D01*
X26808Y161000D01*
X26975Y160161D01*
X27450Y159450D01*
X28161Y158975D01*
X29000Y158808D01*
X29839Y158975D01*
X30550Y159450D01*
X31025Y160161D01*
X31192Y161000D01*
X31025Y161839D01*
X30550Y162550D01*
X29839Y163025D01*
X29000Y163192D01*
D02*
G37*
G36*
X138750Y163442D02*
X137911Y163275D01*
X137200Y162800D01*
X136725Y162089D01*
X136558Y161250D01*
X136725Y160411D01*
X137200Y159700D01*
X137911Y159225D01*
X138750Y159058D01*
X139589Y159225D01*
X140300Y159700D01*
X140775Y160411D01*
X140942Y161250D01*
X140775Y162089D01*
X140300Y162800D01*
X139589Y163275D01*
X138750Y163442D01*
D02*
G37*
G36*
X233500Y203692D02*
X232661Y203525D01*
X231950Y203050D01*
X231475Y202339D01*
X231308Y201500D01*
X231475Y200661D01*
X231950Y199950D01*
X232661Y199475D01*
X233500Y199308D01*
X234339Y199475D01*
X235050Y199950D01*
X235525Y200661D01*
X235692Y201500D01*
X235525Y202339D01*
X235050Y203050D01*
X234339Y203525D01*
X233500Y203692D01*
D02*
G37*
G36*
X16500Y212644D02*
X15169Y212469D01*
X13928Y211955D01*
X12863Y211137D01*
X12045Y210072D01*
X11531Y208831D01*
X11356Y207500D01*
X11531Y206169D01*
X12045Y204928D01*
X12863Y203863D01*
X13928Y203045D01*
X15169Y202531D01*
X16500Y202356D01*
X17831Y202531D01*
X19072Y203045D01*
X20137Y203863D01*
X20955Y204928D01*
X21469Y206169D01*
X21644Y207500D01*
X21469Y208831D01*
X20955Y210072D01*
X20137Y211137D01*
X19072Y211955D01*
X17831Y212469D01*
X16500Y212644D01*
D02*
G37*
G36*
X138300Y204035D02*
X137230Y203894D01*
X136232Y203481D01*
X135376Y202824D01*
X134719Y201968D01*
X134306Y200970D01*
X134165Y199900D01*
X134306Y198830D01*
X134719Y197832D01*
X135376Y196976D01*
X136232Y196319D01*
X137230Y195905D01*
X138300Y195765D01*
X139370Y195905D01*
X140368Y196319D01*
X141224Y196976D01*
X141881Y197832D01*
X142295Y198830D01*
X142435Y199900D01*
X142295Y200970D01*
X141881Y201968D01*
X141224Y202824D01*
X140368Y203481D01*
X139370Y203894D01*
X138300Y204035D01*
D02*
G37*
G36*
X224000Y192192D02*
X223161Y192025D01*
X222450Y191550D01*
X221975Y190839D01*
X221808Y190000D01*
X221975Y189161D01*
X222450Y188450D01*
X223161Y187975D01*
X224000Y187808D01*
X224839Y187975D01*
X225550Y188450D01*
X226025Y189161D01*
X226192Y190000D01*
X226025Y190839D01*
X225550Y191550D01*
X224839Y192025D01*
X224000Y192192D01*
D02*
G37*
G36*
X242500Y198692D02*
X241661Y198525D01*
X240950Y198050D01*
X240475Y197339D01*
X240308Y196500D01*
X240475Y195661D01*
X240950Y194950D01*
X241661Y194475D01*
X242500Y194308D01*
X243339Y194475D01*
X244050Y194950D01*
X244525Y195661D01*
X244692Y196500D01*
X244525Y197339D01*
X244050Y198050D01*
X243339Y198525D01*
X242500Y198692D01*
D02*
G37*
G36*
X167000Y213644D02*
X165669Y213469D01*
X164428Y212955D01*
X163363Y212137D01*
X162545Y211072D01*
X162031Y209831D01*
X161856Y208500D01*
X162031Y207169D01*
X162545Y205928D01*
X163363Y204863D01*
X164428Y204045D01*
X165669Y203531D01*
X167000Y203356D01*
X168331Y203531D01*
X169572Y204045D01*
X170637Y204863D01*
X171455Y205928D01*
X171969Y207169D01*
X172144Y208500D01*
X171969Y209831D01*
X171455Y211072D01*
X170637Y212137D01*
X169572Y212955D01*
X168331Y213469D01*
X167000Y213644D01*
D02*
G37*
G36*
X192000Y212192D02*
X191161Y212025D01*
X190450Y211550D01*
X189975Y210839D01*
X189808Y210000D01*
X189975Y209161D01*
X190450Y208450D01*
X191161Y207975D01*
X192000Y207808D01*
X192839Y207975D01*
X193550Y208450D01*
X194025Y209161D01*
X194192Y210000D01*
X194025Y210839D01*
X193550Y211550D01*
X192839Y212025D01*
X192000Y212192D01*
D02*
G37*
G36*
X286000Y221962D02*
X284739Y221838D01*
X283527Y221470D01*
X282410Y220873D01*
X281431Y220069D01*
X280627Y219090D01*
X280030Y217973D01*
X279662Y216761D01*
X279538Y215500D01*
X279662Y214239D01*
X280030Y213027D01*
X280627Y211910D01*
X281431Y210931D01*
X282410Y210127D01*
X283527Y209530D01*
X284739Y209162D01*
X286000Y209038D01*
X287261Y209162D01*
X288473Y209530D01*
X289590Y210127D01*
X290569Y210931D01*
X291373Y211910D01*
X291970Y213027D01*
X292338Y214239D01*
X292462Y215500D01*
X292338Y216761D01*
X291970Y217973D01*
X291373Y219090D01*
X290569Y220069D01*
X289590Y220873D01*
X288473Y221470D01*
X287261Y221838D01*
X286000Y221962D01*
D02*
G37*
G36*
X255000Y207192D02*
X254161Y207025D01*
X253450Y206550D01*
X253250Y206251D01*
X252750D01*
X252550Y206550D01*
X251839Y207025D01*
X251000Y207192D01*
X250161Y207025D01*
X249450Y206550D01*
X248975Y205839D01*
X248808Y205000D01*
X248975Y204161D01*
X249450Y203450D01*
X250161Y202975D01*
X251000Y202808D01*
X251839Y202975D01*
X252550Y203450D01*
X252750Y203749D01*
X253250D01*
X253450Y203450D01*
X254161Y202975D01*
X255000Y202808D01*
X255839Y202975D01*
X256550Y203450D01*
X257025Y204161D01*
X257192Y205000D01*
X257025Y205839D01*
X256550Y206550D01*
X255839Y207025D01*
X255000Y207192D01*
D02*
G37*
G36*
X75000Y213644D02*
X73669Y213469D01*
X72428Y212955D01*
X71363Y212137D01*
X70545Y211072D01*
X70031Y209831D01*
X69856Y208500D01*
X70031Y207169D01*
X70545Y205928D01*
X71363Y204863D01*
X72428Y204045D01*
X73669Y203531D01*
X75000Y203356D01*
X76331Y203531D01*
X77572Y204045D01*
X78637Y204863D01*
X79455Y205928D01*
X79969Y207169D01*
X80144Y208500D01*
X79969Y209831D01*
X79455Y211072D01*
X78637Y212137D01*
X77572Y212955D01*
X76331Y213469D01*
X75000Y213644D01*
D02*
G37*
G36*
X118000Y208692D02*
X117161Y208525D01*
X116450Y208050D01*
X115975Y207339D01*
X115808Y206500D01*
X115975Y205661D01*
X116450Y204950D01*
X117161Y204475D01*
X118000Y204308D01*
X118839Y204475D01*
X119550Y204950D01*
X120025Y205661D01*
X120192Y206500D01*
X120025Y207339D01*
X119550Y208050D01*
X118839Y208525D01*
X118000Y208692D01*
D02*
G37*
G36*
X183493Y181909D02*
X182654Y181742D01*
X181942Y181267D01*
X181467Y180556D01*
X181300Y179717D01*
X181467Y178878D01*
X181942Y178167D01*
X182654Y177692D01*
X183493Y177525D01*
X184331Y177692D01*
X185043Y178167D01*
X185518Y178878D01*
X185685Y179717D01*
X185518Y180556D01*
X185043Y181267D01*
X184331Y181742D01*
X183493Y181909D01*
D02*
G37*
G36*
X165000Y180325D02*
X164493Y180225D01*
X164063Y179937D01*
X163775Y179507D01*
X163674Y179000D01*
X163775Y178493D01*
X164063Y178063D01*
X164493Y177775D01*
X165000Y177674D01*
X165507Y177775D01*
X165937Y178063D01*
X166225Y178493D01*
X166325Y179000D01*
X166225Y179507D01*
X165937Y179937D01*
X165507Y180225D01*
X165000Y180325D01*
D02*
G37*
G36*
X255000Y184631D02*
X254060Y184507D01*
X253185Y184145D01*
X252432Y183568D01*
X251855Y182816D01*
X251493Y181940D01*
X251369Y181000D01*
X251493Y180060D01*
X251855Y179184D01*
X252432Y178432D01*
X253185Y177855D01*
X254060Y177493D01*
X255000Y177369D01*
X255940Y177493D01*
X256816Y177855D01*
X257568Y178432D01*
X258145Y179184D01*
X258507Y180060D01*
X258631Y181000D01*
X258507Y181940D01*
X258145Y182816D01*
X257568Y183568D01*
X256816Y184145D01*
X255940Y184507D01*
X255000Y184631D01*
D02*
G37*
G36*
X194000Y180692D02*
X193161Y180525D01*
X192450Y180050D01*
X191975Y179339D01*
X191808Y178500D01*
X191975Y177661D01*
X192450Y176950D01*
X193161Y176475D01*
X194000Y176308D01*
X194839Y176475D01*
X195550Y176950D01*
X196025Y177661D01*
X196192Y178500D01*
X196025Y179339D01*
X195550Y180050D01*
X194839Y180525D01*
X194000Y180692D01*
D02*
G37*
G36*
X245000Y184631D02*
X244060Y184507D01*
X243184Y184145D01*
X242432Y183568D01*
X241855Y182816D01*
X241493Y181940D01*
X241369Y181000D01*
X241493Y180060D01*
X241855Y179184D01*
X242432Y178432D01*
X243184Y177855D01*
X244060Y177493D01*
X245000Y177369D01*
X245940Y177493D01*
X246815Y177855D01*
X247568Y178432D01*
X248145Y179184D01*
X248507Y180060D01*
X248631Y181000D01*
X248507Y181940D01*
X248145Y182816D01*
X247568Y183568D01*
X246815Y184145D01*
X245940Y184507D01*
X245000Y184631D01*
D02*
G37*
G36*
X219000Y180325D02*
X218493Y180225D01*
X218063Y179937D01*
X217775Y179507D01*
X217674Y179000D01*
X217775Y178493D01*
X218063Y178063D01*
X218493Y177775D01*
X219000Y177674D01*
X219507Y177775D01*
X219937Y178063D01*
X220225Y178493D01*
X220325Y179000D01*
X220225Y179507D01*
X219937Y179937D01*
X219507Y180225D01*
X219000Y180325D01*
D02*
G37*
G36*
X144685Y191601D02*
X143846Y191434D01*
X143135Y190959D01*
X142660Y190248D01*
X142493Y189409D01*
X142660Y188570D01*
X143135Y187859D01*
X143846Y187383D01*
X144685Y187217D01*
X145524Y187383D01*
X146235Y187859D01*
X146382Y188078D01*
X146913Y187973D01*
X146975Y187661D01*
X147450Y186950D01*
X148161Y186475D01*
X149000Y186308D01*
X149839Y186475D01*
X150550Y186950D01*
X151025Y187661D01*
X151192Y188500D01*
X151025Y189339D01*
X150550Y190050D01*
X149839Y190525D01*
X149000Y190692D01*
X148161Y190525D01*
X147450Y190050D01*
X147303Y189830D01*
X146772Y189936D01*
X146710Y190248D01*
X146235Y190959D01*
X145524Y191434D01*
X144685Y191601D01*
D02*
G37*
G36*
X254000Y195192D02*
X253161Y195025D01*
X252450Y194550D01*
X251975Y193839D01*
X251808Y193000D01*
X251975Y192161D01*
X252450Y191450D01*
X252749Y191250D01*
Y190750D01*
X252450Y190550D01*
X251975Y189839D01*
X251808Y189000D01*
X251975Y188161D01*
X252450Y187450D01*
X253161Y186975D01*
X254000Y186808D01*
X254839Y186975D01*
X255550Y187450D01*
X256025Y188161D01*
X256192Y189000D01*
X256025Y189839D01*
X255550Y190550D01*
X255251Y190750D01*
Y191250D01*
X255550Y191450D01*
X256025Y192161D01*
X256192Y193000D01*
X256025Y193839D01*
X255550Y194550D01*
X254839Y195025D01*
X254000Y195192D01*
D02*
G37*
G36*
X264500Y187192D02*
X263661Y187025D01*
X262950Y186550D01*
X262475Y185839D01*
X262308Y185000D01*
X262475Y184161D01*
X262950Y183450D01*
X263661Y182975D01*
X264500Y182808D01*
X265339Y182975D01*
X266050Y183450D01*
X266525Y184161D01*
X266692Y185000D01*
X266525Y185839D01*
X266050Y186550D01*
X265339Y187025D01*
X264500Y187192D01*
D02*
G37*
G36*
X158500Y183192D02*
X157661Y183025D01*
X156950Y182550D01*
X156475Y181839D01*
X156308Y181000D01*
X156475Y180161D01*
X156950Y179450D01*
X157661Y178975D01*
X158500Y178808D01*
X159339Y178975D01*
X160050Y179450D01*
X160525Y180161D01*
X160692Y181000D01*
X160525Y181839D01*
X160050Y182550D01*
X159339Y183025D01*
X158500Y183192D01*
D02*
G37*
G36*
X153000Y187192D02*
X152161Y187025D01*
X151450Y186550D01*
X150975Y185839D01*
X150808Y185000D01*
X150975Y184161D01*
X151450Y183450D01*
X152161Y182975D01*
X153000Y182808D01*
X153839Y182975D01*
X154550Y183450D01*
X155025Y184161D01*
X155192Y185000D01*
X155025Y185839D01*
X154550Y186550D01*
X153839Y187025D01*
X153000Y187192D01*
D02*
G37*
G36*
X290500Y122039D02*
X289720Y121884D01*
X289058Y121442D01*
X288616Y120780D01*
X288461Y120000D01*
X288616Y119220D01*
X289058Y118558D01*
X289720Y118116D01*
X290500Y117961D01*
X291280Y118116D01*
X291942Y118558D01*
X292384Y119220D01*
X292539Y120000D01*
X292384Y120780D01*
X291942Y121442D01*
X291280Y121884D01*
X290500Y122039D01*
D02*
G37*
G36*
X149000Y120826D02*
X148493Y120725D01*
X148063Y120437D01*
X147775Y120007D01*
X147675Y119500D01*
X147775Y118993D01*
X148063Y118563D01*
X148493Y118275D01*
X149000Y118175D01*
X149507Y118275D01*
X149937Y118563D01*
X150225Y118993D01*
X150326Y119500D01*
X150225Y120007D01*
X149937Y120437D01*
X149507Y120725D01*
X149000Y120826D01*
D02*
G37*
G36*
X219000Y121192D02*
X218161Y121025D01*
X217450Y120550D01*
X216975Y119839D01*
X216808Y119000D01*
X216975Y118161D01*
X217450Y117450D01*
X218161Y116975D01*
X219000Y116808D01*
X219839Y116975D01*
X220550Y117450D01*
X221025Y118161D01*
X221192Y119000D01*
X221025Y119839D01*
X220550Y120550D01*
X219839Y121025D01*
X219000Y121192D01*
D02*
G37*
G36*
X152500Y120826D02*
X151993Y120725D01*
X151563Y120437D01*
X151275Y120007D01*
X151174Y119500D01*
X151275Y118993D01*
X151563Y118563D01*
X151993Y118275D01*
X152500Y118175D01*
X152834Y117731D01*
X152881Y117493D01*
X153169Y117063D01*
X153599Y116775D01*
X154106Y116674D01*
X154613Y116775D01*
X155043Y117063D01*
X155330Y117493D01*
X155431Y118000D01*
X155330Y118507D01*
X155043Y118937D01*
X154613Y119225D01*
X154106Y119325D01*
X153772Y119769D01*
X153725Y120007D01*
X153437Y120437D01*
X153007Y120725D01*
X152500Y120826D01*
D02*
G37*
G36*
X206000Y119325D02*
X205493Y119225D01*
X205063Y118937D01*
X204775Y118507D01*
X204675Y118000D01*
X204775Y117493D01*
X205063Y117063D01*
X205493Y116775D01*
X206000Y116674D01*
X206507Y116775D01*
X206937Y117063D01*
X207225Y117493D01*
X207326Y118000D01*
X207225Y118507D01*
X206937Y118937D01*
X206507Y119225D01*
X206000Y119325D01*
D02*
G37*
G36*
X33000Y122692D02*
X32161Y122525D01*
X31450Y122050D01*
X30975Y121339D01*
X30808Y120500D01*
X30975Y119661D01*
X31450Y118950D01*
X32161Y118475D01*
X33000Y118308D01*
X33839Y118475D01*
X34550Y118950D01*
X35025Y119661D01*
X35192Y120500D01*
X35025Y121339D01*
X34550Y122050D01*
X33839Y122525D01*
X33000Y122692D01*
D02*
G37*
G36*
X174000Y124326D02*
X173493Y124225D01*
X173063Y123937D01*
X172775Y123507D01*
X172675Y123000D01*
X172775Y122493D01*
X173063Y122063D01*
X173493Y121775D01*
X174000Y121675D01*
X174507Y121775D01*
X174937Y122063D01*
X175225Y122493D01*
X175326Y123000D01*
X175225Y123507D01*
X174937Y123937D01*
X174507Y124225D01*
X174000Y124326D01*
D02*
G37*
G36*
X143500Y124826D02*
X142993Y124725D01*
X142563Y124437D01*
X142275Y124007D01*
X142174Y123500D01*
X142275Y122993D01*
X142563Y122563D01*
X142993Y122275D01*
X143500Y122175D01*
X144007Y122275D01*
X144437Y122563D01*
X144725Y122993D01*
X144825Y123500D01*
X144725Y124007D01*
X144437Y124437D01*
X144007Y124725D01*
X143500Y124826D01*
D02*
G37*
G36*
X159500Y124326D02*
X158993Y124225D01*
X158563Y123937D01*
X158275Y123507D01*
X158175Y123000D01*
X158275Y122493D01*
X158563Y122063D01*
X158993Y121775D01*
X159500Y121675D01*
X160007Y121775D01*
X160437Y122063D01*
X160725Y122493D01*
X160826Y123000D01*
X160725Y123507D01*
X160437Y123937D01*
X160007Y124225D01*
X159500Y124326D01*
D02*
G37*
G36*
X214500Y124692D02*
X213661Y124525D01*
X212950Y124050D01*
X212475Y123339D01*
X212308Y122500D01*
X212475Y121661D01*
X212950Y120950D01*
X213661Y120475D01*
X214500Y120308D01*
X215339Y120475D01*
X216050Y120950D01*
X216525Y121661D01*
X216692Y122500D01*
X216525Y123339D01*
X216050Y124050D01*
X215339Y124525D01*
X214500Y124692D01*
D02*
G37*
G36*
X141950Y121826D02*
X141443Y121725D01*
X141013Y121437D01*
X140738Y121026D01*
X140721Y121005D01*
X140175Y120801D01*
X139839Y121025D01*
X139000Y121192D01*
X138161Y121025D01*
X137450Y120550D01*
X136975Y119839D01*
X136808Y119000D01*
X136975Y118161D01*
X137450Y117450D01*
X138161Y116975D01*
X139000Y116808D01*
X139839Y116975D01*
X140550Y117450D01*
X141025Y118161D01*
X141164Y118860D01*
X141212Y118931D01*
X141509Y119159D01*
X141656Y119233D01*
X141950Y119175D01*
X142457Y119275D01*
X142887Y119563D01*
X143175Y119993D01*
X143275Y120500D01*
X143175Y121007D01*
X142887Y121437D01*
X142457Y121725D01*
X141950Y121826D01*
D02*
G37*
G36*
X255000Y114135D02*
X253930Y113995D01*
X252932Y113581D01*
X252076Y112924D01*
X251419Y112068D01*
X251006Y111070D01*
X250865Y110000D01*
X251006Y108930D01*
X251419Y107932D01*
X252076Y107076D01*
X252932Y106419D01*
X253930Y106006D01*
X255000Y105865D01*
X256070Y106006D01*
X257068Y106419D01*
X257924Y107076D01*
X258581Y107932D01*
X258995Y108930D01*
X259135Y110000D01*
X258995Y111070D01*
X258581Y112068D01*
X257924Y112924D01*
X257068Y113581D01*
X256070Y113995D01*
X255000Y114135D01*
D02*
G37*
G36*
X182500Y111826D02*
X181993Y111725D01*
X181563Y111437D01*
X181275Y111007D01*
X181175Y110500D01*
X181245Y110149D01*
X181198Y110065D01*
X180936Y109802D01*
X180852Y109756D01*
X180500Y109826D01*
X179993Y109725D01*
X179563Y109437D01*
X179276Y109007D01*
X179175Y108500D01*
X179276Y107993D01*
X179563Y107563D01*
X179993Y107275D01*
X180500Y107175D01*
X181007Y107275D01*
X181437Y107563D01*
X181725Y107993D01*
X181825Y108500D01*
X181756Y108852D01*
X181802Y108935D01*
X182065Y109197D01*
X182148Y109245D01*
X182500Y109175D01*
X183007Y109275D01*
X183437Y109563D01*
X183725Y109993D01*
X183826Y110500D01*
X183725Y111007D01*
X183437Y111437D01*
X183007Y111725D01*
X182500Y111826D01*
D02*
G37*
G36*
X245000Y114135D02*
X243930Y113995D01*
X242932Y113581D01*
X242076Y112924D01*
X241419Y112068D01*
X241005Y111070D01*
X240865Y110000D01*
X241005Y108930D01*
X241419Y107932D01*
X242076Y107076D01*
X242932Y106419D01*
X243930Y106006D01*
X245000Y105865D01*
X246070Y106006D01*
X247068Y106419D01*
X247924Y107076D01*
X248581Y107932D01*
X248994Y108930D01*
X249135Y110000D01*
X248994Y111070D01*
X248581Y112068D01*
X247924Y112924D01*
X247068Y113581D01*
X246070Y113995D01*
X245000Y114135D01*
D02*
G37*
G36*
X191500Y108192D02*
X190661Y108025D01*
X189950Y107550D01*
X189475Y106839D01*
X189308Y106000D01*
X189475Y105161D01*
X189950Y104450D01*
X190661Y103975D01*
X191500Y103808D01*
X192339Y103975D01*
X193050Y104450D01*
X193525Y105161D01*
X193692Y106000D01*
X193525Y106839D01*
X193050Y107550D01*
X192339Y108025D01*
X191500Y108192D01*
D02*
G37*
G36*
X174500Y107826D02*
X173993Y107725D01*
X173563Y107437D01*
X173275Y107007D01*
X173175Y106500D01*
X173275Y105993D01*
X173563Y105563D01*
X173993Y105275D01*
X174500Y105175D01*
X175007Y105275D01*
X175437Y105563D01*
X175725Y105993D01*
X175826Y106500D01*
X175725Y107007D01*
X175437Y107437D01*
X175007Y107725D01*
X174500Y107826D01*
D02*
G37*
G36*
X186500Y113326D02*
X185993Y113225D01*
X185563Y112937D01*
X185275Y112507D01*
X185175Y112000D01*
X185275Y111493D01*
X185563Y111063D01*
X185993Y110775D01*
X186500Y110675D01*
X187007Y110775D01*
X187437Y111063D01*
X187725Y111493D01*
X187826Y112000D01*
X187725Y112507D01*
X187437Y112937D01*
X187007Y113225D01*
X186500Y113326D01*
D02*
G37*
G36*
X245000Y124135D02*
X243930Y123995D01*
X242932Y123581D01*
X242076Y122924D01*
X241419Y122068D01*
X241005Y121070D01*
X240865Y120000D01*
X241005Y118930D01*
X241419Y117932D01*
X242076Y117076D01*
X242932Y116419D01*
X243930Y116006D01*
X245000Y115865D01*
X246070Y116006D01*
X247068Y116419D01*
X247924Y117076D01*
X248581Y117932D01*
X248994Y118930D01*
X249135Y120000D01*
X248994Y121070D01*
X248581Y122068D01*
X247924Y122924D01*
X247068Y123581D01*
X246070Y123995D01*
X245000Y124135D01*
D02*
G37*
G36*
X255000D02*
X253930Y123995D01*
X252932Y123581D01*
X252076Y122924D01*
X251419Y122068D01*
X251006Y121070D01*
X250865Y120000D01*
X251006Y118930D01*
X251419Y117932D01*
X252076Y117076D01*
X252932Y116419D01*
X253930Y116006D01*
X255000Y115865D01*
X256070Y116006D01*
X257068Y116419D01*
X257924Y117076D01*
X258581Y117932D01*
X258995Y118930D01*
X259135Y120000D01*
X258995Y121070D01*
X258581Y122068D01*
X257924Y122924D01*
X257068Y123581D01*
X256070Y123995D01*
X255000Y124135D01*
D02*
G37*
G36*
X196000Y117192D02*
X195161Y117025D01*
X194450Y116550D01*
X193975Y115839D01*
X193808Y115000D01*
X193975Y114161D01*
X194450Y113450D01*
X195161Y112975D01*
X196000Y112808D01*
X196839Y112975D01*
X197550Y113450D01*
X198025Y114161D01*
X198192Y115000D01*
X198025Y115839D01*
X197550Y116550D01*
X196839Y117025D01*
X196000Y117192D01*
D02*
G37*
G36*
X146500Y114825D02*
X145993Y114725D01*
X145563Y114437D01*
X145275Y114007D01*
X145175Y113500D01*
X145275Y112993D01*
X145563Y112563D01*
X145993Y112276D01*
X146500Y112175D01*
X147007Y112276D01*
X147437Y112563D01*
X147725Y112993D01*
X147826Y113500D01*
X147725Y114007D01*
X147437Y114437D01*
X147007Y114725D01*
X146500Y114825D01*
D02*
G37*
G36*
X292000Y117192D02*
X291161Y117025D01*
X290450Y116550D01*
X289975Y115839D01*
X289808Y115000D01*
X289975Y114161D01*
X290450Y113450D01*
X291161Y112975D01*
X292000Y112808D01*
X292839Y112975D01*
X293550Y113450D01*
X294025Y114161D01*
X294192Y115000D01*
X294025Y115839D01*
X293550Y116550D01*
X292839Y117025D01*
X292000Y117192D01*
D02*
G37*
G36*
X180453Y147326D02*
X179946Y147225D01*
X179516Y146937D01*
X179228Y146507D01*
X179127Y146000D01*
X179228Y145493D01*
X179516Y145063D01*
X179946Y144775D01*
X180453Y144675D01*
X180960Y144775D01*
X181390Y145063D01*
X181677Y145493D01*
X181778Y146000D01*
X181677Y146507D01*
X181390Y146937D01*
X180960Y147225D01*
X180453Y147326D01*
D02*
G37*
G36*
X174547Y147873D02*
X174040Y147772D01*
X173610Y147485D01*
X173323Y147055D01*
X173222Y146547D01*
X173323Y146040D01*
X173610Y145610D01*
X174040Y145323D01*
X174547Y145222D01*
X175055Y145323D01*
X175485Y145610D01*
X175772Y146040D01*
X175873Y146547D01*
X175772Y147055D01*
X175485Y147485D01*
X175055Y147772D01*
X174547Y147873D01*
D02*
G37*
G36*
X135500Y144692D02*
X134661Y144525D01*
X133950Y144050D01*
X133475Y143339D01*
X133308Y142500D01*
X133475Y141661D01*
X133950Y140950D01*
X134661Y140475D01*
X135500Y140308D01*
X136339Y140475D01*
X137050Y140950D01*
X137525Y141661D01*
X137692Y142500D01*
X137525Y143339D01*
X137050Y144050D01*
X136339Y144525D01*
X135500Y144692D01*
D02*
G37*
G36*
X98500Y151883D02*
X97157Y151751D01*
X95866Y151359D01*
X94676Y150723D01*
X93633Y149867D01*
X92777Y148824D01*
X92141Y147634D01*
X91749Y146343D01*
X91617Y145000D01*
X91749Y143657D01*
X92141Y142366D01*
X92777Y141176D01*
X93633Y140133D01*
X94676Y139277D01*
X95866Y138641D01*
X97157Y138249D01*
X98500Y138117D01*
X99843Y138249D01*
X101134Y138641D01*
X102324Y139277D01*
X103367Y140133D01*
X104223Y141176D01*
X104859Y142366D01*
X105251Y143657D01*
X105383Y145000D01*
X105251Y146343D01*
X104859Y147634D01*
X104223Y148824D01*
X103367Y149867D01*
X102324Y150723D01*
X101134Y151359D01*
X99843Y151751D01*
X98500Y151883D01*
D02*
G37*
G36*
X290500Y142539D02*
X289720Y142384D01*
X289058Y141942D01*
X288616Y141280D01*
X288461Y140500D01*
X288616Y139720D01*
X289058Y139058D01*
X289720Y138616D01*
X290500Y138461D01*
X291280Y138616D01*
X291942Y139058D01*
X292384Y139720D01*
X292539Y140500D01*
X292384Y141280D01*
X291942Y141942D01*
X291280Y142384D01*
X290500Y142539D01*
D02*
G37*
G36*
X190500Y148326D02*
X189993Y148225D01*
X189563Y147937D01*
X189275Y147507D01*
X189174Y147000D01*
X189275Y146493D01*
X189563Y146063D01*
X189993Y145775D01*
X190500Y145675D01*
X191007Y145775D01*
X191437Y146063D01*
X191725Y146493D01*
X191825Y147000D01*
X191725Y147507D01*
X191437Y147937D01*
X191007Y148225D01*
X190500Y148326D01*
D02*
G37*
G36*
X161500Y149326D02*
X160993Y149225D01*
X160563Y148937D01*
X160275Y148507D01*
X160175Y148000D01*
X160275Y147493D01*
X160563Y147063D01*
X160993Y146775D01*
X161500Y146675D01*
X162007Y146775D01*
X162437Y147063D01*
X162725Y147493D01*
X162826Y148000D01*
X162725Y148507D01*
X162437Y148937D01*
X162007Y149225D01*
X161500Y149326D01*
D02*
G37*
G36*
X245000Y154631D02*
X244060Y154507D01*
X243184Y154145D01*
X242432Y153568D01*
X241855Y152815D01*
X241493Y151940D01*
X241369Y151000D01*
X241493Y150060D01*
X241855Y149185D01*
X242432Y148432D01*
X243184Y147855D01*
X244060Y147493D01*
X245000Y147369D01*
X245940Y147493D01*
X246815Y147855D01*
X247568Y148432D01*
X248145Y149185D01*
X248507Y150060D01*
X248631Y151000D01*
X248507Y151940D01*
X248145Y152815D01*
X247568Y153568D01*
X246815Y154145D01*
X245940Y154507D01*
X245000Y154631D01*
D02*
G37*
G36*
X135750Y150692D02*
X134911Y150525D01*
X134200Y150050D01*
X133725Y149339D01*
X133558Y148500D01*
X133725Y147661D01*
X134200Y146950D01*
X134911Y146475D01*
X135750Y146308D01*
X136589Y146475D01*
X137300Y146950D01*
X137775Y147661D01*
X137942Y148500D01*
X137775Y149339D01*
X137300Y150050D01*
X136589Y150525D01*
X135750Y150692D01*
D02*
G37*
G36*
X207500Y150692D02*
X206661Y150525D01*
X205950Y150050D01*
X205475Y149339D01*
X205308Y148500D01*
X205475Y147661D01*
X205950Y146950D01*
X206661Y146475D01*
X207500Y146308D01*
X208339Y146475D01*
X209050Y146950D01*
X209525Y147661D01*
X209692Y148500D01*
X209525Y149339D01*
X209050Y150050D01*
X208339Y150525D01*
X207500Y150692D01*
D02*
G37*
G36*
X217500D02*
X216661Y150525D01*
X215950Y150050D01*
X215475Y149339D01*
X215308Y148500D01*
X215475Y147661D01*
X215950Y146950D01*
X216661Y146475D01*
X217500Y146308D01*
X218339Y146475D01*
X219050Y146950D01*
X219525Y147661D01*
X219692Y148500D01*
X219525Y149339D01*
X219050Y150050D01*
X218339Y150525D01*
X217500Y150692D01*
D02*
G37*
G36*
X60531Y130724D02*
X59693Y130557D01*
X58981Y130081D01*
X58506Y129370D01*
X58339Y128532D01*
X58506Y127693D01*
X58981Y126981D01*
X59693Y126506D01*
X60531Y126339D01*
X61370Y126506D01*
X62081Y126981D01*
X62557Y127693D01*
X62724Y128532D01*
X62557Y129370D01*
X62081Y130081D01*
X61370Y130557D01*
X60531Y130724D01*
D02*
G37*
G36*
X77031Y130857D02*
X76524Y130756D01*
X76094Y130469D01*
X75807Y130039D01*
X75706Y129532D01*
X75807Y129024D01*
X76094Y128594D01*
X76524Y128307D01*
X77031Y128206D01*
X77539Y128307D01*
X77969Y128594D01*
X78256Y129024D01*
X78357Y129532D01*
X78256Y130039D01*
X77969Y130469D01*
X77539Y130756D01*
X77031Y130857D01*
D02*
G37*
G36*
X196000Y130692D02*
X195161Y130525D01*
X194450Y130050D01*
X193975Y129339D01*
X193808Y128500D01*
X193975Y127661D01*
X194450Y126950D01*
X195161Y126475D01*
X196000Y126308D01*
X196839Y126475D01*
X197550Y126950D01*
X198025Y127661D01*
X198192Y128500D01*
X198025Y129339D01*
X197550Y130050D01*
X196839Y130525D01*
X196000Y130692D01*
D02*
G37*
G36*
X39531Y125357D02*
X39024Y125256D01*
X38594Y124969D01*
X38307Y124539D01*
X38206Y124031D01*
X38307Y123524D01*
X38594Y123094D01*
X39024Y122807D01*
X39531Y122706D01*
X40039Y122807D01*
X40469Y123094D01*
X40756Y123524D01*
X40857Y124031D01*
X40756Y124539D01*
X40469Y124969D01*
X40039Y125256D01*
X39531Y125357D01*
D02*
G37*
G36*
X33000Y129692D02*
X32161Y129525D01*
X31450Y129050D01*
X30975Y128339D01*
X30808Y127500D01*
X30975Y126661D01*
X31450Y125950D01*
X32161Y125475D01*
X33000Y125308D01*
X33839Y125475D01*
X34550Y125950D01*
X35025Y126661D01*
X35192Y127500D01*
X35025Y128339D01*
X34550Y129050D01*
X33839Y129525D01*
X33000Y129692D01*
D02*
G37*
G36*
X245000Y138135D02*
X243930Y137995D01*
X242932Y137581D01*
X242076Y136924D01*
X241419Y136068D01*
X241005Y135070D01*
X240865Y134000D01*
X241005Y132930D01*
X241419Y131932D01*
X242076Y131076D01*
X242932Y130419D01*
X243930Y130006D01*
X245000Y129865D01*
X246070Y130006D01*
X247068Y130419D01*
X247924Y131076D01*
X248581Y131932D01*
X248994Y132930D01*
X249135Y134000D01*
X248994Y135070D01*
X248581Y136068D01*
X247924Y136924D01*
X247068Y137581D01*
X246070Y137995D01*
X245000Y138135D01*
D02*
G37*
G36*
X239000Y143825D02*
X238493Y143725D01*
X238063Y143437D01*
X237775Y143007D01*
X237674Y142500D01*
X237775Y141993D01*
X238063Y141563D01*
X238466Y141293D01*
X238275Y141007D01*
X238175Y140500D01*
X238275Y139993D01*
X238563Y139563D01*
X238993Y139275D01*
X239344Y139206D01*
X239524Y139123D01*
X239716Y138708D01*
X239674Y138500D01*
X239775Y137993D01*
X240063Y137563D01*
X240493Y137275D01*
X241000Y137174D01*
X241507Y137275D01*
X241937Y137563D01*
X242225Y137993D01*
X242325Y138500D01*
X242225Y139007D01*
X241937Y139437D01*
X241507Y139725D01*
X241156Y139794D01*
X240976Y139877D01*
X240784Y140292D01*
X240826Y140500D01*
X240725Y141007D01*
X240437Y141437D01*
X240034Y141707D01*
X240225Y141993D01*
X240325Y142500D01*
X240225Y143007D01*
X239937Y143437D01*
X239507Y143725D01*
X239000Y143825D01*
D02*
G37*
G36*
X210000Y139692D02*
X209161Y139525D01*
X208450Y139050D01*
X207975Y138339D01*
X207933Y138129D01*
X207402Y138023D01*
X207050Y138550D01*
X206339Y139025D01*
X205500Y139192D01*
X204661Y139025D01*
X203950Y138550D01*
X203475Y137839D01*
X203433Y137629D01*
X202902Y137523D01*
X202550Y138050D01*
X201839Y138525D01*
X201000Y138692D01*
X200161Y138525D01*
X199450Y138050D01*
X198975Y137339D01*
X198808Y136500D01*
X198975Y135661D01*
X199450Y134950D01*
X200161Y134475D01*
X201000Y134308D01*
X201839Y134475D01*
X202550Y134950D01*
X203025Y135661D01*
X203067Y135871D01*
X203598Y135977D01*
X203950Y135450D01*
X204661Y134975D01*
X205500Y134808D01*
X206339Y134975D01*
X207050Y135450D01*
X207525Y136161D01*
X207567Y136371D01*
X208098Y136477D01*
X208450Y135950D01*
X209161Y135475D01*
X210000Y135308D01*
X210839Y135475D01*
X211550Y135950D01*
X212025Y136661D01*
X212192Y137500D01*
X212025Y138339D01*
X211550Y139050D01*
X210839Y139525D01*
X210000Y139692D01*
D02*
G37*
G36*
X60531Y136724D02*
X59693Y136557D01*
X58981Y136082D01*
X58506Y135370D01*
X58339Y134531D01*
X58506Y133693D01*
X58981Y132981D01*
X59693Y132506D01*
X60531Y132339D01*
X61370Y132506D01*
X62081Y132981D01*
X62557Y133693D01*
X62724Y134531D01*
X62557Y135370D01*
X62081Y136082D01*
X61370Y136557D01*
X60531Y136724D01*
D02*
G37*
G36*
X255000Y138135D02*
X253930Y137995D01*
X252932Y137581D01*
X252076Y136924D01*
X251419Y136068D01*
X251006Y135070D01*
X250865Y134000D01*
X251006Y132930D01*
X251419Y131932D01*
X252076Y131076D01*
X252932Y130419D01*
X253930Y130006D01*
X255000Y129865D01*
X256070Y130006D01*
X257068Y130419D01*
X257924Y131076D01*
X258581Y131932D01*
X258995Y132930D01*
X259135Y134000D01*
X258995Y135070D01*
X258581Y136068D01*
X257924Y136924D01*
X257068Y137581D01*
X256070Y137995D01*
X255000Y138135D01*
D02*
G37*
G36*
X55531Y136724D02*
X54693Y136557D01*
X53981Y136082D01*
X53506Y135370D01*
X53339Y134531D01*
X53506Y133693D01*
X53981Y132981D01*
X54693Y132506D01*
X55531Y132339D01*
X56370Y132506D01*
X57082Y132981D01*
X57557Y133693D01*
X57724Y134531D01*
X57557Y135370D01*
X57082Y136082D01*
X56370Y136557D01*
X55531Y136724D01*
D02*
G37*
%LPD*%
G36*
X287352Y220548D02*
X288613Y220026D01*
X289695Y219195D01*
X290526Y218113D01*
X291048Y216852D01*
X291226Y215500D01*
X291048Y214147D01*
X290526Y212887D01*
X289695Y211805D01*
X288613Y210974D01*
X287352Y210452D01*
X286000Y210274D01*
X284647Y210452D01*
X283387Y210974D01*
X282305Y211805D01*
X281474Y212887D01*
X280952Y214147D01*
X280774Y215500D01*
X280952Y216852D01*
X281474Y218113D01*
X282305Y219195D01*
X283387Y220026D01*
X284647Y220548D01*
X286000Y220726D01*
X287352Y220548D01*
D02*
G37*
G36*
X285352Y21048D02*
X286613Y20526D01*
X287695Y19695D01*
X288526Y18613D01*
X289048Y17353D01*
X289226Y16000D01*
X289048Y14648D01*
X288526Y13387D01*
X287695Y12305D01*
X286613Y11474D01*
X285352Y10952D01*
X284000Y10774D01*
X282647Y10952D01*
X281387Y11474D01*
X280305Y12305D01*
X279474Y13387D01*
X278952Y14648D01*
X278774Y16000D01*
X278952Y17353D01*
X279474Y18613D01*
X280305Y19695D01*
X281387Y20526D01*
X282647Y21048D01*
X284000Y21226D01*
X285352Y21048D01*
D02*
G37*
D10*
X74500Y54500D02*
D03*
X54500Y84500D02*
D03*
X11642Y35795D02*
D03*
Y10205D02*
D03*
D11*
X14000Y179500D02*
D03*
D12*
X26500Y197500D02*
D03*
X6500D02*
D03*
Y217500D02*
D03*
X26500D02*
D03*
X177000Y198500D02*
D03*
X157000D02*
D03*
Y218500D02*
D03*
X177000D02*
D03*
X85000Y198500D02*
D03*
X65000D02*
D03*
Y218500D02*
D03*
X85000D02*
D03*
D13*
X172382Y157882D02*
D03*
Y163000D02*
D03*
Y168118D02*
D03*
X177500Y157882D02*
D03*
X182618D02*
D03*
X177500Y163000D02*
D03*
Y168118D02*
D03*
X182618Y163000D02*
D03*
Y168118D02*
D03*
X47063Y122063D02*
D03*
Y126000D02*
D03*
X51000Y122063D02*
D03*
Y126000D02*
D03*
D14*
X212500Y148500D02*
D03*
X260000Y10000D02*
D03*
Y17500D02*
D03*
Y32500D02*
D03*
Y25000D02*
D03*
X131500Y104000D02*
D03*
Y99500D02*
D03*
Y95500D02*
D03*
X132500Y70000D02*
D03*
X107000Y89000D02*
D03*
X85000Y86500D02*
D03*
X92000Y61500D02*
D03*
X164000Y119000D02*
D03*
X15000Y65500D02*
D03*
X9500Y66000D02*
D03*
X231500Y96000D02*
D03*
Y85000D02*
D03*
Y73500D02*
D03*
X33500Y175500D02*
D03*
X132500Y73500D02*
D03*
X201500Y102500D02*
D03*
X131500Y90500D02*
D03*
X201500Y96500D02*
D03*
Y92500D02*
D03*
X76500Y135000D02*
D03*
X226500Y34000D02*
D03*
X214500Y79500D02*
D03*
X158500Y43500D02*
D03*
X29500Y176000D02*
D03*
X267000Y121500D02*
D03*
X267500Y99000D02*
D03*
X169500Y120000D02*
D03*
X106500Y104500D02*
D03*
X246500Y44500D02*
D03*
X158500Y119000D02*
D03*
X194500Y45000D02*
D03*
X209000Y58500D02*
D03*
X202000Y84000D02*
D03*
X132000Y86000D02*
D03*
X35500Y57500D02*
D03*
X12000Y62500D02*
D03*
X14000Y128000D02*
D03*
X11000Y124000D02*
D03*
X8500Y128000D02*
D03*
X99500Y7000D02*
D03*
X46500Y154500D02*
D03*
X75750Y161750D02*
D03*
X49332Y145332D02*
D03*
X62031Y118532D02*
D03*
X56000Y16500D02*
D03*
X153000Y43500D02*
D03*
X156500Y25000D02*
D03*
X92000Y28000D02*
D03*
X294500Y76500D02*
D03*
X105500Y55500D02*
D03*
X217750Y52000D02*
D03*
X230000Y47500D02*
D03*
X215500Y29500D02*
D03*
X197750Y29750D02*
D03*
X207319Y44500D02*
D03*
X210500Y164500D02*
D03*
Y182500D02*
D03*
Y206500D02*
D03*
X229000Y190000D02*
D03*
X252000Y219500D02*
D03*
X267000Y143000D02*
D03*
X208500Y75000D02*
D03*
X204500Y77500D02*
D03*
X231500Y62000D02*
D03*
X196500Y210500D02*
D03*
X210500Y193000D02*
D03*
X198984Y14000D02*
D03*
X131500Y108000D02*
D03*
X246500Y72000D02*
D03*
X134500Y56000D02*
D03*
X154500Y21500D02*
D03*
X151500Y25000D02*
D03*
X129000Y50500D02*
D03*
X234500Y4000D02*
D03*
X116500Y192500D02*
D03*
X140500Y188000D02*
D03*
X135827Y216535D02*
D03*
D15*
X220500Y182500D02*
D03*
X148000Y87000D02*
D03*
X181300Y87000D02*
D03*
X162400Y71300D02*
D03*
X168800Y99600D02*
D03*
X154377Y108402D02*
D03*
X181000Y99500D02*
D03*
X184500Y67602D02*
D03*
X156150Y71150D02*
D03*
X159000Y77601D02*
D03*
Y99547D02*
D03*
X159102Y96500D02*
D03*
X149000Y103500D02*
D03*
X149351Y100000D02*
D03*
X172500Y40500D02*
D03*
X172350Y24850D02*
D03*
X177500Y138500D02*
D03*
X155000Y166000D02*
D03*
X152250Y150500D02*
D03*
X187250Y179750D02*
D03*
X181100Y80900D02*
D03*
M02*
